<svg viewBox="0 0 24 24" fill="none" xmlns="http://www.w3.org/2000/svg">
<path d="M13.5417 5.6C13.5417 6.47273 12.7841 7.2 11.875 7.2C10.9659 7.2 10.2084 6.47273 10.2084 5.6C10.2084 4.72727 10.9659 4 11.875 4C12.7841 4 13.5417 4.72727 13.5417 5.6ZM13.5417 12C13.5417 12.8727 12.7841 13.6 11.875 13.6C10.9659 13.6 10.2084 12.8727 10.2084 12C10.2084 11.1273 10.9659 10.4 11.875 10.4C12.7841 10.4 13.5417 11.1273 13.5417 12ZM13.5417 18.4C13.5417 19.2727 12.7841 20 11.875 20C10.9659 20 10.2084 19.2727 10.2084 18.4C10.2084 17.5273 10.9659 16.8 11.875 16.8C12.7841 16.8 13.5417 17.5273 13.5417 18.4Z" fill="#141419"/>
</svg>
