<?xml version="1.0" encoding="utf-8"?>
<!-- Generator: Adobe Illustrator 26.5.0, SVG Export Plug-In . SVG Version: 6.00 Build 0)  -->
<svg version="1.1" id="Layer_1" xmlns="http://www.w3.org/2000/svg" xmlns:xlink="http://www.w3.org/1999/xlink" x="0px" y="0px"
	 viewBox="0 0 24 24" style="enable-background:new 0 0 24 24;" xml:space="preserve">
<path d="M14.2,3.2c0,1.2-1,2.2-2.2,2.2s-2.2-1-2.2-2.2S10.8,1,12,1S14.2,2,14.2,3.2z M14.2,12c0,1.2-1,2.2-2.2,2.2s-2.2-1-2.2-2.2
	s1-2.2,2.2-2.2S14.2,10.8,14.2,12z M14.2,20.8c0,1.2-1,2.2-2.2,2.2s-2.2-1-2.2-2.2s1-2.2,2.2-2.2S14.2,19.6,14.2,20.8z"/>
</svg>
