<?xml version="1.0" encoding="UTF-8" standalone="no"?>
<svg
   width="24"
   height="24"
   fill="none"
   version="1.1"
   viewBox="0 0 24 24"
   id="svg387"
   xmlns="http://www.w3.org/2000/svg"
   xmlns:svg="http://www.w3.org/2000/svg">
  <defs
     id="defs391" />
  <path
     d="m 14.000037,1.0000003 c 0.16778,0 0.313716,0.1145867 0.35464,0.2773745 0.125507,0.4978907 0.289185,0.9835646 0.492887,1.4560008 0.530613,1.2326564 1.258693,2.3116389 2.18313,3.2360037 0.9248,0.9243641 2.003349,1.6525105 3.236003,2.1831298 0.472843,0.2036798 0.958109,0.3673681 1.455925,0.4928572 0.162782,0.04094 0.277351,0.1868877 0.277378,0.3546707 0,0.167782 -0.114572,0.313738 -0.277378,0.354641 -0.497866,0.125507 -0.983562,0.289184 -1.455925,0.492887 -1.232731,0.530633 -2.311641,1.258693 -3.236003,2.183129 -0.924437,0.924874 -1.652511,2.003349 -2.18313,3.236005 -0.203702,0.472862 -0.367389,0.958108 -0.492887,1.455924 -0.04094,0.162804 -0.186867,0.277378 -0.35464,0.277378 -0.167782,-2.2e-5 -0.313741,-0.114585 -0.354671,-0.277378 C 13.51986,16.224757 13.356181,15.739059 13.15251,15.266699 12.621876,14.034043 11.894252,12.955059 10.96938,12.030694 10.044505,11.106258 8.9660322,10.378183 7.7333757,9.847565 7.2604957,9.643862 6.7752658,9.480175 6.2773747,9.354678 6.1145975,9.313741 6,9.16781 6,9.000037 6.0000215,8.832254 6.1146135,8.6862978 6.2773747,8.6453663 6.7752738,8.51986 7.2609387,8.3562108 7.7333757,8.1525091 8.9661022,7.6218462 10.045014,6.8938157 10.96938,5.9693793 11.893814,5.0449427 12.621816,3.966032 13.15251,2.7333756 13.35621,2.2604876 13.519877,1.7753391 13.645366,1.2773748 13.686309,1.114603 13.832255,1.000023 14.000037,1.0000003 Z"
     fill="#000"
     id="path385"
     style="fill:#000000;fill-opacity:1;stroke-width:1" />
  <path
     id="rect1"
     style="fill:#000000;stroke-miterlimit:10"
     d="M 4.75 4 C 2.131473 4 0 6.1314731 0 8.75 L 0 19.25 C 0 21.868527 2.131473 24 4.75 24 L 14.25 24 C 16.868527 24 19 21.868527 19 19.25 L 19 11.685547 C 18.549341 11.998103 18.128826 12.347705 17.738281 12.738281 C 17.656716 12.819885 17.578124 12.904166 17.5 12.988281 L 17.5 19.25 C 17.5 21.063473 16.063473 22.5 14.25 22.5 L 4.75 22.5 C 2.936527 22.5 1.5 21.063473 1.5 19.25 L 1.5 8.75 C 1.5 6.9365274 2.936527 5.5 4.75 5.5 L 10.013672 5.5 C 10.09766 5.4219624 10.180262 5.3431818 10.261719 5.2617188 C 10.652299 4.871137 11.001908 4.4506534 11.314453 4 L 4.75 4 z " />
  <path
     d="m 21.499969,1 c 0.05242,0 0.09804,0.03581 0.110825,0.08668 0.03923,0.1555913 0.09038,0.3073646 0.154028,0.4550013 0.165817,0.3852057 0.393342,0.7223883 0.68223,1.0112528 0.289001,0.2888645 0.626046,0.5164104 1.011252,0.6822292 0.147765,0.06365 0.29941,0.1148027 0.454978,0.1540183 0.05088,0.01279 0.08667,0.058403 0.08667,0.1108352 0,0.052431 -0.0358,0.098043 -0.08667,0.1108252 -0.155584,0.039219 -0.307364,0.09037 -0.454978,0.1540273 -0.385228,0.1658228 -0.722388,0.3933417 -1.011252,0.6822292 -0.288888,0.2890235 -0.516411,0.6260471 -0.68223,1.0112522 -0.06366,0.1477713 -0.114813,0.2994101 -0.154028,0.4549788 -0.01278,0.050875 -0.0584,0.086679 -0.110825,0.086679 -0.05244,-7.5e-6 -0.09805,-0.03581 -0.110837,-0.08668 C 21.349914,5.7577444 21.298763,5.6059646 21.235115,5.4583503 21.069292,5.0731452 20.841909,4.7359621 20.552886,4.4470981 20.263862,4.1582106 19.926839,3.9306872 19.541633,3.7648689 19.393858,3.7012113 19.242224,3.6500587 19.086632,3.6108411 c -0.05088,-0.01279 -0.08668,-0.058396 -0.08668,-0.1108252 7e-6,-0.052433 0.03581,-0.098043 0.08668,-0.1108352 0.155593,-0.03922 0.307365,-0.090361 0.455001,-0.1540183 0.385228,-0.1658318 0.722389,-0.3933417 1.011253,-0.6822287 0.288887,-0.288887 0.516387,-0.6260471 0.682229,-1.0112527 0.06366,-0.1477778 0.114804,-0.2993871 0.154019,-0.4550013 0.01279,-0.050866 0.0584,-0.086673 0.110835,-0.08668 z"
     fill="#000"
     id="path385-9"
     style="fill:#000000;fill-opacity:1;stroke-width:1" />
  <path
     d="m 6.2500205,13 c 0.089145,0 0.166669,0.06089 0.1884015,0.147357 0.06666,0.264505 0.153629,0.522519 0.2618476,0.773502 0.2818879,0.654848 0.6686804,1.228055 1.159788,1.719126 0.4913,0.49107 1.0642787,0.877895 1.7191272,1.159788 0.2511982,0.108205 0.5089952,0.195164 0.7734602,0.26183 0.08648,0.02177 0.14734,0.09929 0.147356,0.188419 0,0.08915 -0.06088,0.166668 -0.147356,0.188402 -0.264493,0.06667 -0.522519,0.15363 -0.7734602,0.261846 C 8.924297,17.982169 8.351126,18.368949 7.8600576,18.860058 7.36895,19.351396 6.9821605,19.924337 6.7002696,20.579185 6.592053,20.830394 6.5050949,21.08818 6.438422,21.352648 6.4166949,21.439132 6.3391505,21.500001 6.2500205,21.500001 6.1608767,21.49999 6.0833525,21.43913 6.061601,21.352645 5.9949397,21.088151 5.907972,20.830128 5.7997712,20.579183 5.5178718,19.924337 5.1313227,19.351124 4.6399833,18.860058 4.1486451,18.368949 3.5757046,17.982161 2.9208561,17.70027 c -0.2512175,-0.108216 -0.5089959,-0.195176 -0.7735,-0.261846 -0.086479,-0.02175 -0.147356,-0.09928 -0.147356,-0.188405 9.6e-6,-0.08915 0.06087,-0.166668 0.147356,-0.188416 0.2645094,-0.06664 0.5225194,-0.153613 0.7735,-0.261831 C 3.575745,16.517857 4.1489139,16.131089 4.6399833,15.639984 5.1310899,15.148877 5.5178422,14.575705 5.7997712,13.920857 5.907989,13.669634 5.9949355,13.411901 6.061601,13.147357 6.0833503,13.060879 6.160881,13.000017 6.2500205,13 Z"
     fill="#000"
     id="path385-9-5"
     style="fill:#000000;fill-opacity:1;stroke-width:1" />
</svg>
