<?xml version="1.0" encoding="UTF-8" standalone="no"?>
<svg
   width="24"
   height="24"
   fill="none"
   version="1.1"
   viewBox="0 0 24 24"
   id="svg387"
   xmlns="http://www.w3.org/2000/svg"
   xmlns:svg="http://www.w3.org/2000/svg">
  <defs
     id="defs391" />
  <path
     d="m 15.000037,3e-7 c 0.16778,0 0.313716,0.1145867 0.35464,0.2773745 0.125507,0.4978907 0.289185,0.9835646 0.492887,1.4560008 0.530613,1.2326564 1.258693,2.3116389 2.18313,3.2360037 0.9248,0.9243641 2.003349,1.6525105 3.236003,2.1831298 0.472843,0.2036798 0.958109,0.3673681 1.455925,0.4928572 0.162782,0.04094 0.277351,0.1868877 0.277378,0.3546707 0,0.167782 -0.114572,0.313738 -0.277378,0.354641 -0.497866,0.125507 -0.983562,0.289184 -1.455925,0.492887 -1.232731,0.530633 -2.311641,1.258693 -3.236003,2.183129 -0.924437,0.924874 -1.652511,2.003349 -2.18313,3.236005 -0.203702,0.472862 -0.367389,0.958108 -0.492887,1.455924 -0.04094,0.162804 -0.186867,0.277378 -0.35464,0.277378 -0.167782,-2.2e-5 -0.313741,-0.114585 -0.354671,-0.277378 C 14.51986,15.224757 14.356181,14.739059 14.15251,14.266699 13.621876,13.034043 12.894252,11.955059 11.96938,11.030694 11.044505,10.106258 9.9660322,9.378183 8.7333757,8.847565 8.2604957,8.643862 7.7752658,8.480175 7.2773747,8.354678 7.1145975,8.313741 7,8.16781 7,8.000037 7.0000215,7.832254 7.1146135,7.6862978 7.2773747,7.6453663 7.7752738,7.51986 8.2609387,7.3562108 8.7333757,7.1525091 9.9661022,6.6218462 11.045014,5.8938157 11.96938,4.9693793 12.893814,4.0449427 13.621816,2.966032 14.15251,1.7333756 14.35621,1.2604876 14.519877,0.7753391 14.645366,0.2773748 14.686309,0.114603 14.832255,2.3e-5 15.000037,3e-7 Z"
     fill="#000"
     id="path385"
     style="fill:#000000;fill-opacity:1;stroke-width:1" />
  <path
     id="rect1"
     style="fill:#000000;stroke-miterlimit:10"
     d="M 5.75,3 C 3.131473,3 1,5.1314731 1,7.75 v 10.5 C 1,20.868527 3.131473,23 5.75,23 h 9.5 C 17.868527,23 20,20.868527 20,18.25 v -7.564453 c -0.450659,0.312556 -0.871174,0.662158 -1.261719,1.052734 -0.08157,0.0816 -0.160157,0.165885 -0.238281,0.25 V 18.25 c 0,1.813473 -1.436527,3.25 -3.25,3.25 H 5.75 C 3.936527,21.5 2.5,20.063473 2.5,18.25 V 7.75 C 2.5,5.9365274 3.936527,4.5 5.75,4.5 h 5.263672 C 11.09766,4.4219624 11.180262,4.3431818 11.261719,4.2617188 11.652299,3.871137 12.001908,3.4506534 12.314453,3 Z" />
  <path
     d="m 21.499969,1 c 0.05242,0 0.09804,0.03581 0.110825,0.08668 0.03923,0.1555913 0.09038,0.3073646 0.154028,0.4550013 0.165817,0.3852057 0.393342,0.7223883 0.68223,1.0112528 0.289001,0.2888645 0.626046,0.5164104 1.011252,0.6822292 0.147765,0.06365 0.29941,0.1148027 0.454978,0.1540183 0.05088,0.01279 0.08667,0.058403 0.08667,0.1108352 0,0.052431 -0.0358,0.098043 -0.08667,0.1108252 -0.155584,0.039219 -0.307364,0.09037 -0.454978,0.1540273 -0.385228,0.1658228 -0.722388,0.3933417 -1.011252,0.6822292 -0.288888,0.2890235 -0.516411,0.6260471 -0.68223,1.0112522 -0.06366,0.1477713 -0.114813,0.2994101 -0.154028,0.4549788 -0.01278,0.050875 -0.0584,0.086679 -0.110825,0.086679 -0.05244,-7.5e-6 -0.09805,-0.03581 -0.110837,-0.08668 C 21.349914,5.7577444 21.298763,5.6059646 21.235115,5.4583503 21.069292,5.0731452 20.841909,4.7359621 20.552886,4.4470981 20.263862,4.1582106 19.926839,3.9306872 19.541633,3.7648689 19.393858,3.7012113 19.242224,3.6500587 19.086632,3.6108411 c -0.05088,-0.01279 -0.08668,-0.058396 -0.08668,-0.1108252 7e-6,-0.052433 0.03581,-0.098043 0.08668,-0.1108352 0.155593,-0.03922 0.307365,-0.090361 0.455001,-0.1540183 0.385228,-0.1658318 0.722389,-0.3933417 1.011253,-0.6822287 0.288887,-0.288887 0.516387,-0.6260471 0.682229,-1.0112527 0.06366,-0.1477778 0.114804,-0.2993871 0.154019,-0.4550013 0.01279,-0.050866 0.0584,-0.086673 0.110835,-0.08668 z"
     fill="#000"
     id="path385-9"
     style="fill:#000000;fill-opacity:1;stroke-width:1" />
  <path
     d="m 8.2500205,11 c 0.089145,0 0.166669,0.06089 0.1884015,0.147357 0.06666,0.264505 0.153629,0.522519 0.2618476,0.773502 0.2818879,0.654848 0.6686804,1.228055 1.159788,1.719126 0.4913004,0.49107 1.0642784,0.877895 1.7191274,1.159788 0.251198,0.108205 0.508995,0.195164 0.77346,0.26183 0.08648,0.02177 0.14734,0.09929 0.147356,0.188419 0,0.08915 -0.06088,0.166668 -0.147356,0.188402 -0.264493,0.06667 -0.522519,0.15363 -0.77346,0.261846 -0.654888,0.281899 -1.228059,0.668679 -1.7191274,1.159788 C 9.36895,17.351396 8.9821605,17.924337 8.7002696,18.579185 8.592053,18.830394 8.5050949,19.08818 8.438422,19.352648 8.4166949,19.439132 8.3391505,19.500001 8.2500205,19.500001 8.1608767,19.49999 8.0833525,19.43913 8.061601,19.352645 7.9949397,19.088151 7.907972,18.830128 7.7997712,18.579183 7.5178718,17.924337 7.1313227,17.351124 6.6399833,16.860058 6.1486451,16.368949 5.5757046,15.982161 4.9208561,15.70027 c -0.2512175,-0.108216 -0.5089959,-0.195176 -0.7735,-0.261846 -0.086479,-0.02175 -0.147356,-0.09928 -0.147356,-0.188405 9.6e-6,-0.08915 0.06087,-0.166668 0.147356,-0.188416 0.2645094,-0.06664 0.5225194,-0.153613 0.7735,-0.261831 C 5.575745,14.517857 6.1489139,14.131089 6.6399833,13.639984 7.1310899,13.148877 7.5178422,12.575705 7.7997712,11.920857 7.907989,11.669634 7.9949355,11.411901 8.061601,11.147357 8.0833503,11.060879 8.160881,11.000017 8.2500205,11 Z"
     fill="#000"
     id="path385-9-5"
     style="fill:#000000;fill-opacity:1;stroke-width:1" />
</svg>
