<svg viewBox="0 0 24 24" fill="none" xmlns="http://www.w3.org/2000/svg">
<path d="M12.1047 2.57141C12.3042 2.57141 12.4778 2.70769 12.5265 2.90129C12.6757 3.49342 12.8704 4.07103 13.1126 4.63289C13.7437 6.09888 14.6096 7.3821 15.709 8.48144C16.8089 9.58077 18.0916 10.4467 19.5575 11.0778C20.1199 11.32 20.697 11.5147 21.2891 11.664C21.4827 11.7126 21.6189 11.8862 21.6189 12.0858C21.6189 12.2853 21.4827 12.4589 21.2891 12.5075C20.697 12.6568 20.1193 12.8515 19.5575 13.0937C18.0915 13.7248 16.8083 14.5907 15.709 15.6901C14.6096 16.79 13.7437 18.0726 13.1126 19.5386C12.8704 20.101 12.6757 20.6781 12.5265 21.2701C12.4778 21.4638 12.3042 21.6 12.1047 21.6C11.9051 21.6 11.7316 21.4637 11.6829 21.2701C11.5336 20.678 11.339 20.1004 11.0967 19.5386C10.4657 18.0726 9.6003 16.7894 8.50036 15.6901C7.40041 14.5907 6.1178 13.7248 4.65182 13.0937C4.08942 12.8515 3.51235 12.6568 2.92021 12.5075C2.72662 12.4588 2.59033 12.2853 2.59033 12.0858C2.59036 11.8862 2.72664 11.7126 2.92021 11.664C3.51236 11.5147 4.08995 11.3201 4.65182 11.0778C6.11788 10.4467 7.40102 9.58086 8.50036 8.48144C9.59978 7.38201 10.4656 6.09888 11.0967 4.63289C11.339 4.07049 11.5336 3.49351 11.6829 2.90129C11.7316 2.70771 11.9051 2.57144 12.1047 2.57141Z" fill="black"/>
<path d="M20.1899 0C20.2698 0 20.3393 0.0545676 20.3588 0.132084C20.4186 0.369175 20.4965 0.600449 20.5935 0.825419C20.8462 1.4124 21.1929 1.9262 21.6331 2.36638C22.0735 2.80655 22.5871 3.15329 23.174 3.40596C23.3992 3.50295 23.6303 3.5809 23.8674 3.64066C23.9449 3.66015 23.9994 3.72965 23.9994 3.80955C23.9994 3.88944 23.9449 3.95895 23.8674 3.97843C23.6303 4.03819 23.399 4.11613 23.174 4.21313C22.587 4.46582 22.0733 4.81251 21.6331 5.25272C21.1929 5.69314 20.8462 6.2067 20.5935 6.79368C20.4965 7.01885 20.4186 7.24992 20.3588 7.48698C20.3393 7.5645 20.2698 7.61906 20.1899 7.61906C20.11 7.61905 20.0405 7.56449 20.021 7.48698C19.9613 7.2499 19.8833 7.01861 19.7863 6.79368C19.5337 6.2067 19.1872 5.69289 18.7467 5.25272C18.3063 4.81251 17.7928 4.46581 17.2058 4.21313C16.9806 4.11613 16.7495 4.03818 16.5125 3.97842C16.4349 3.95894 16.3804 3.88944 16.3804 3.80955C16.3804 3.72965 16.4349 3.66015 16.5125 3.64066C16.7495 3.58089 16.9808 3.50296 17.2058 3.40596C17.7928 3.15327 18.3066 2.80658 18.7467 2.36638C19.187 1.92617 19.5336 1.4124 19.7863 0.825419C19.8833 0.600233 19.9613 0.36921 20.021 0.132083C20.0405 0.0545732 20.11 1.01905e-05 20.1899 0Z" fill="black"/>
<path d="M3.80955 16.38C3.88943 16.38 3.95894 16.4346 3.97843 16.5121C4.03821 16.7492 4.11615 16.9805 4.21314 17.2054C4.46581 17.7924 4.81251 18.3062 5.25272 18.7464C5.69311 19.1866 6.2067 19.5333 6.79368 19.786C7.01884 19.883 7.24992 19.9609 7.48698 20.0207C7.56451 20.0402 7.61905 20.1097 7.61905 20.1896C7.61905 20.2694 7.5645 20.339 7.48698 20.3584C7.2499 20.4182 7.01861 20.4961 6.79368 20.5931C6.20666 20.8458 5.6929 21.1925 5.25272 21.6327C4.81251 22.0731 4.46581 22.5867 4.21314 23.1737C4.11613 23.3989 4.03818 23.6299 3.97843 23.867C3.95895 23.9445 3.88943 23.9991 3.80955 23.9991C3.72963 23.9991 3.66014 23.9445 3.64065 23.867C3.58089 23.6299 3.50295 23.3986 3.40596 23.1737C3.15328 22.5867 2.80679 22.0729 2.36638 21.6327C1.92596 21.1925 1.4124 20.8458 0.825417 20.5931C0.600236 20.4961 0.369175 20.4182 0.132083 20.3584C0.0545497 20.3389 0 20.2694 0 20.1896C1.04762e-05 20.1097 0.0545611 20.0402 0.132083 20.0207C0.369177 19.9609 0.600448 19.883 0.825417 19.786C1.41243 19.5333 1.9262 19.1866 2.36638 18.7464C2.80658 18.3062 3.15325 17.7924 3.40596 17.2054C3.50297 16.9802 3.5809 16.7492 3.64066 16.5121C3.66015 16.4346 3.72965 16.38 3.80955 16.38Z" fill="black"/>
</svg>
