<?xml version="1.0" encoding="UTF-8" standalone="no"?>
<svg
   width="24"
   height="24"
   fill="none"
   version="1.1"
   viewBox="0 0 24 24"
   id="svg387"
   xmlns="http://www.w3.org/2000/svg"
   xmlns:svg="http://www.w3.org/2000/svg">
  <defs
     id="defs391" />
  <path
     d="m 12.000044,1.5 c 0.199239,0 0.372538,0.1360717 0.421135,0.3293822 0.149039,0.5912452 0.343407,1.1679829 0.585304,1.7290008 0.630102,1.4637796 1.494697,2.7450714 2.592466,3.8427546 1.0982,1.0976827 2.378977,1.9623554 3.842754,2.5924664 0.561501,0.24187 1.137754,0.436249 1.728911,0.585267 0.193303,0.04862 0.329354,0.22193 0.329386,0.421172 0,0.199241 -0.136055,0.372564 -0.329386,0.421136 -0.591216,0.14904 -1.16798,0.343406 -1.728911,0.585304 -1.463868,0.630126 -2.745074,1.494697 -3.842754,2.592465 -1.097769,1.098288 -1.962357,2.378977 -2.592466,3.842756 -0.241897,0.561524 -0.436275,1.137753 -0.585304,1.72891 C 12.372563,20.363943 12.199274,20.5 12.000044,20.5 11.800803,20.499974 11.627477,20.36393 11.578872,20.170614 11.429833,19.579398 11.235465,19.002631 10.993606,18.441704 10.363478,16.977925 9.499424,15.696631 8.4011387,14.598948 7.3028497,13.50118 6.0221632,12.636591 4.5583837,12.006483 3.9968387,11.764585 3.4206281,11.570207 2.8293824,11.421179 2.6360845,11.372567 2.5,11.199273 2.5,11.000043 2.5000255,10.800801 2.6361035,10.627478 2.8293824,10.578871 3.4206376,10.429832 3.9973647,10.235499 4.5583837,9.993604 6.0222464,9.363442 7.3034542,8.4989058 8.4011387,7.4011376 9.498904,6.3033689 10.363407,5.0221626 10.993606,3.558383 11.235499,2.9968287 11.429854,2.4207148 11.578872,1.8293822 11.627491,1.6360907 11.800803,1.5000269 12.000044,1.5 Z"
     fill="#000"
     id="path385"
     style="fill:#000000;fill-opacity:1;stroke-width:1.1875" />
  <path
     d="m 19.999979,1 c 0.08387,0 0.156864,0.057296 0.17732,0.138688 0.06277,0.2489461 0.144608,0.4917833 0.246445,0.7280021 0.265307,0.6163291 0.629347,1.1558212 1.091568,1.6180044 0.462401,0.4621832 1.001673,0.8262567 1.618003,1.0915668 0.236424,0.10184 0.479056,0.1836843 0.727965,0.2464292 0.08141,0.020464 0.138672,0.093445 0.138672,0.1773364 0,0.083889 -0.05728,0.1568688 -0.138672,0.1773203 -0.248935,0.062751 -0.491783,0.144592 -0.727965,0.2464437 -0.616364,0.2653164 -1.15582,0.6293467 -1.618003,1.0915667 -0.462221,0.4624376 -0.826257,1.0016753 -1.091568,1.6180035 -0.101853,0.2364341 -0.183701,0.4790562 -0.246445,0.7279661 -0.02045,0.0814 -0.09344,0.1386864 -0.17732,0.1386864 -0.08391,-1.2e-5 -0.15688,-0.057296 -0.177339,-0.138688 C 19.759891,8.6123911 19.678049,8.3695433 19.576213,8.1333605 19.310896,7.5170323 18.947083,6.9775393 18.484647,6.5153569 18.022208,6.0531369 17.482971,5.6890995 16.866641,5.4237903 16.630201,5.3219381 16.387587,5.2400939 16.13864,5.1773457 16.05723,5.1568817 15.999952,5.0839127 15.999952,5.0000255 c 1.1e-5,-0.083893 0.05729,-0.1568688 0.138688,-0.1773364 0.248949,-0.062752 0.491784,-0.1445776 0.728001,-0.2464292 0.616366,-0.265331 1.155823,-0.6293468 1.618006,-1.091566 0.462218,-0.4622192 0.826218,-1.0016754 1.091566,-1.6180043 0.101856,-0.2364445 0.183686,-0.4790193 0.24643,-0.7280021 C 19.843107,1.0573019 19.916083,1.0000107 19.999979,1 Z"
     fill="#000"
     id="path385-9"
     style="fill:#000000;fill-opacity:1;stroke-width:1.6" />
  <path
     d="m 5.0000238,14 c 0.1048766,0 0.1960812,0.07163 0.2216487,0.173361 0.078423,0.311182 0.18074,0.614728 0.308056,0.910002 0.3316329,0.770409 0.7866829,1.44477 1.3644564,2.022503 0.5780005,0.577727 1.2520923,1.032816 2.0225027,1.364455 0.2955274,0.1273 0.5988184,0.229605 0.9099524,0.308035 0.101741,0.02561 0.173341,0.116812 0.17336,0.22167 0,0.104877 -0.07162,0.19608 -0.17336,0.22165 -0.311168,0.07843 -0.614728,0.18074 -0.9099524,0.308053 -0.7704563,0.331647 -1.4447752,0.786681 -2.0225027,1.364458 -0.5777735,0.578043 -1.03282,1.252091 -1.3644564,2.022501 -0.1273136,0.29554 -0.2296172,0.598818 -0.308056,0.909955 C 5.1961113,23.92839 5.1048826,24 5.0000238,24 4.8951488,23.999987 4.8039438,23.92839 4.7783538,23.82664 4.6999288,23.515471 4.5976139,23.211916 4.4703188,22.916686 4.1386724,22.146278 3.6839089,21.47191 3.1058625,20.894187 2.5278176,20.31641 1.8537699,19.861366 1.08336,19.529729 0.78781,19.402416 0.4845414,19.30011 0.1733601,19.221676 0.0716201,19.196086 1e-7,19.104876 1e-7,19.000022 c 1.14e-5,-0.104878 0.071612,-0.19608 0.17336,-0.221666 0.3111875,-0.0784 0.6147286,-0.18072 0.9099999,-0.308036 0.7704576,-0.331664 1.4447739,-0.786687 2.0225025,-1.364457 0.5777725,-0.577773 1.0327751,-1.252093 1.3644563,-2.022502 0.1273151,-0.295555 0.2296051,-0.598772 0.308035,-0.91 0.025588,-0.101733 0.1168,-0.173341 0.22167,-0.173361 z"
     fill="#000"
     id="path385-9-5"
     style="fill:#000000;fill-opacity:1;stroke-width:1.17647" />
</svg>
