<!-- Generated by IcoMoon.io -->
<svg version="1.1" xmlns="http://www.w3.org/2000/svg" width="512" height="512" viewBox="0 0 512 512">
<title></title>
<g id="icomoon-ignore">
</g>
<path fill="#000" d="M248.869 115.558c51.157 0 92.776 41.619 92.776 92.776v156.988h-185.553v-156.988c0-51.157 41.619-92.776 92.776-92.776zM248.869 60.89c-81.431 0-147.444 66.013-147.444 147.444v140.821l-57.041 70.834h423.23l-71.301-70.834v-140.821c0-81.431-66.013-147.444-147.444-147.444v0z"></path>
<path fill="#000" d="M291.651 444.349c0 19.689-15.961 35.651-35.651 35.651s-35.65-15.961-35.65-35.651h71.301z"></path>
<path fill="#000" d="M220.35 67.65c0-19.689 15.961-35.651 35.65-35.651s35.651 15.961 35.651 35.651h-71.301z"></path>
</svg>
