<svg viewBox="0 0 24 24" fill="none" xmlns="http://www.w3.org/2000/svg">
<path d="M21.1387 11.5459C21.0264 9.2845 20.0783 7.13889 18.4697 5.53027C16.8611 3.92165 14.7155 2.97361 12.4541 2.86133L12 2.84961C9.57327 2.84961 7.24623 3.81432 5.53027 5.53027C3.81432 7.24623 2.84961 9.57327 2.84961 12L2.86133 12.4502C2.91294 13.498 3.14456 14.5307 3.54688 15.502C4.0067 16.6119 4.68074 17.6202 5.53027 18.4697C6.37981 19.3193 7.38811 19.9933 8.49805 20.4531C9.60818 20.913 10.7984 21.1504 12 21.1504L12.4502 21.1387C13.498 21.0871 14.5307 20.8554 15.502 20.4531C16.6119 19.9933 17.6202 19.3193 18.4697 18.4697C19.3193 17.6202 19.9933 16.6119 20.4531 15.502C20.913 14.3918 21.1504 13.2016 21.1504 12L21.1387 11.5459ZM12.0107 15.5947L12.0977 15.5986C12.5264 15.642 12.8613 16.0042 12.8613 16.4443C12.8613 16.8846 12.5264 17.2467 12.0977 17.29L12.0107 17.2949H12C11.5306 17.2949 11.1504 16.9138 11.1504 16.4443C11.1504 15.9749 11.5306 15.5947 12 15.5947H12.0107ZM11.1504 12V7.55566C11.1504 7.08622 11.5306 6.70508 12 6.70508C12.4694 6.70508 12.8496 7.08622 12.8496 7.55566V12C12.8496 12.4694 12.4694 12.8496 12 12.8496C11.5306 12.8496 11.1504 12.4694 11.1504 12ZM22.8369 12.5332C22.7758 13.7759 22.5016 15.0004 22.0244 16.1523C21.4792 17.4687 20.6794 18.6644 19.6719 19.6719C18.6644 20.6794 17.4687 21.4792 16.1523 22.0244C15.0004 22.5016 13.7759 22.7758 12.5332 22.8369L12 22.8496C10.5752 22.8496 9.16404 22.5697 7.84766 22.0244C6.53131 21.4792 5.33562 20.6794 4.32812 19.6719C3.32063 18.6644 2.52085 17.4687 1.97559 16.1523C1.49844 15.0004 1.22423 13.7759 1.16309 12.5332L1.15039 12C1.15039 9.1224 2.29336 6.36289 4.32812 4.32812C6.36289 2.29336 9.1224 1.15039 12 1.15039L12.5381 1.16309C15.2198 1.29614 17.7643 2.42054 19.6719 4.32812C21.7066 6.36289 22.8496 9.1224 22.8496 12L22.8369 12.5332Z" fill="black"/>
</svg>
