<?xml version="1.0" encoding="utf-8"?>
<!-- Generator: Adobe Illustrator 26.5.0, SVG Export Plug-In . SVG Version: 6.00 Build 0)  -->
<svg version="1.1" id="Layer_1" xmlns="http://www.w3.org/2000/svg" xmlns:xlink="http://www.w3.org/1999/xlink" x="0px" y="0px"
	 viewBox="0 0 24 24" style="enable-background:new 0 0 24 24;" xml:space="preserve">
<path d="M19.3,16.7V9.8c0-3.4-2.4-6.3-5.5-7c-0.1-0.9-0.8-1.6-1.7-1.6c-0.9,0-1.7,0.7-1.7,1.6c-3.1,0.8-5.5,3.6-5.5,7v6.9L2,20.1
	h20.8L19.3,16.7z M16.6,17.5H7.5V9.8c0-2.5,2-4.6,4.6-4.6h0c2.5,0,4.6,2,4.6,4.6V17.5z M10.6,21.3h3.5c0,1-0.8,1.8-1.8,1.8
	S10.6,22.3,10.6,21.3z"/>
</svg>
