<?xml version="1.0" encoding="utf-8"?>
<!-- Generator: Adobe Illustrator 27.8.0, SVG Export Plug-In . SVG Version: 6.00 Build 0)  -->
<svg version="1.1" id="Layer_1" xmlns="http://www.w3.org/2000/svg" xmlns:xlink="http://www.w3.org/1999/xlink" x="0px" y="0px"
	 viewBox="0 0 24 24" style="enable-background:new 0 0 24 24;" xml:space="preserve">
<path d="M12,22c-1,0-2.1-0.2-3.1-0.5c-1.1-0.4-2-0.9-2.9-1.5s-1.6-1.4-2.1-2.2S3,16,3,15v-3l4,3l-1.5,1.5c0.5,0.9,1.2,1.6,2.3,2.2
	s2.1,1,3.2,1.2V11H8V9h3V7.8c-0.6-0.2-1.1-0.6-1.4-1.1S9,5.6,9,5c0-0.8,0.3-1.5,0.9-2.1C10.5,2.3,11.2,2,12,2s1.5,0.3,2.1,0.9
	S15,4.2,15,5c0,0.7-0.2,1.2-0.6,1.7S13.6,7.6,13,7.8V9h3v2h-3v8.9c1.1-0.2,2.2-0.6,3.2-1.2s1.8-1.4,2.3-2.2L17,15l4-3v3
	c0,1-0.3,1.9-0.8,2.7S18.9,19.3,18,20c-0.9,0.6-1.8,1.1-2.9,1.5C14.1,21.8,13,22,12,22z M12,6c0.3,0,0.5-0.1,0.7-0.3S13,5.3,13,5
	s-0.1-0.5-0.3-0.7C12.5,4.1,12.3,4,12,4s-0.5,0.1-0.7,0.3C11.1,4.5,11,4.7,11,5s0.1,0.5,0.3,0.7S11.7,6,12,6z"/>
</svg>
