<!-- Generated by IcoMoon.io -->
<svg version="1.1" xmlns="http://www.w3.org/2000/svg" width="512" height="512" viewBox="0 0 512 512">
<title></title>
<g id="icomoon-ignore">
</g>
<path fill="#000" d="M367.784 268.808c0.575 61.986 54.377 82.613 54.974 82.876-0.455 1.454-8.596 29.395-28.346 58.256-17.072 24.952-34.791 49.813-62.702 50.327-27.426 0.505-36.245-16.263-67.601-16.263-31.346 0-41.144 15.749-67.106 16.769-26.942 1.021-47.459-26.981-64.672-51.843-35.174-50.853-62.055-143.698-25.961-206.37 17.93-31.124 49.974-50.832 84.754-51.337 26.457-0.505 51.427 17.799 67.601 17.799 16.163 0 46.509-22.012 78.41-18.779 13.355 0.556 50.844 5.394 74.915 40.63-1.94 1.202-44.731 26.113-44.266 77.936zM316.24 116.599c14.303-17.314 23.931-41.417 21.305-65.399-20.618 0.828-45.549 13.739-60.337 31.044-13.253 15.324-24.861 39.851-21.728 63.358 22.981 1.778 46.457-11.678 60.762-29.003z"></path>
</svg>
