<?xml version="1.0" encoding="utf-8"?>
<!-- Generator: Adobe Illustrator 26.5.0, SVG Export Plug-In . SVG Version: 6.00 Build 0)  -->
<svg version="1.1" id="Layer_1" xmlns="http://www.w3.org/2000/svg" xmlns:xlink="http://www.w3.org/1999/xlink" x="0px" y="0px"
	 viewBox="0 0 24 24" style="enable-background:new 0 0 24 24;" xml:space="preserve">
<g id="icomoon-ignore">
</g>
<path d="M18,12.7c0,3.3,2.9,4.4,3,4.5c0,0.1-0.5,1.6-1.5,3.1c-0.9,1.3-1.9,2.7-3.4,2.7c-1.5,0-1.9-0.9-3.6-0.9
	c-1.7,0-2.2,0.8-3.6,0.9c-1.4,0.1-2.5-1.4-3.5-2.8C3.4,17.5,2,12.5,3.9,9.1c1-1.7,2.7-2.7,4.6-2.8c1.4,0,2.8,1,3.6,1
	c0.9,0,2.5-1.2,4.2-1c0.7,0,2.7,0.3,4,2.2C20.2,8.6,17.9,9.9,18,12.7L18,12.7z M15.2,4.5C16,3.6,16.5,2.3,16.3,1
	c-1.1,0-2.4,0.7-3.2,1.7c-0.7,0.8-1.3,2.1-1.2,3.4C13.2,6.2,14.4,5.4,15.2,4.5L15.2,4.5z"/>
</svg>
