<?xml version="1.0" encoding="utf-8"?>
<!-- Generator: Adobe Illustrator 26.5.0, SVG Export Plug-In . SVG Version: 6.00 Build 0)  -->
<svg version="1.1" id="Layer_1" xmlns="http://www.w3.org/2000/svg" xmlns:xlink="http://www.w3.org/1999/xlink" x="0px" y="0px"
	 viewBox="0 0 24 24" style="enable-background:new 0 0 24 24;" xml:space="preserve">
<g transform="translate(0, 0) scale(1, 1) ">
	<path d="M1,6.5h5.5V1H1V6.5z M9.2,23h5.5v-5.5H9.2V23z M1,23h5.5v-5.5H1V23z M1,14.8h5.5V9.2H1V14.8z M9.2,14.8h5.5V9.2H9.2V14.8z
		 M17.5,1v5.5H23V1H17.5z M9.2,6.5h5.5V1H9.2V6.5z M17.5,14.8H23V9.2h-5.5V14.8z M17.5,23H23v-5.5h-5.5V23z"/>
</g>
</svg>
