<svg viewBox="0 0 24 24" fill="none" xmlns="http://www.w3.org/2000/svg">
<path d="M19.2906 9.81815C19.2909 9.81755 19.2917 9.8159 19.2922 9.8148C19.293 9.81342 19.2936 9.81123 19.2947 9.80894V9.80643L19.2956 9.80727L19.2981 9.80224L19.3416 9.70431L19.3458 9.69259C19.4693 9.43868 19.6504 9.21313 19.8732 9.03467L19.8874 9.02211L19.9912 8.94678L19.992 8.94761L19.9987 8.94343L20.0029 8.94008C20.2756 8.75704 20.5916 8.64648 20.9195 8.62032L21.0601 8.61446L21.256 8.62451C22.2169 8.72335 22.9673 9.54258 22.9728 10.5372V10.5481L22.9627 10.7397V10.749C22.8692 11.6597 22.1506 12.3844 21.2459 12.4716L21.0626 12.48C20.6314 12.4776 20.2097 12.3316 19.8723 12.0615C19.617 11.8568 19.4199 11.5896 19.2973 11.2889L19.2956 11.2863L19.2738 11.2353L19.2295 11.1306H12.744V12.7654H17.6324L17.655 12.7663L17.6759 12.7679L17.7018 12.7721C17.7294 12.78 17.7542 12.7948 17.7755 12.814L17.8023 12.8424L18.5632 13.8234L18.6377 13.9197L18.8134 13.8603L18.8201 13.8578L18.8243 13.8561C18.8255 13.8556 18.8263 13.8554 18.8268 13.8553L18.9608 13.8134C18.9626 13.813 18.965 13.8132 18.9675 13.8126L19.0252 13.7975C19.1247 13.7737 19.227 13.7563 19.3307 13.749H19.3341L19.4504 13.7448H19.4647L19.6195 13.7523L19.6622 13.7573C20.5614 13.8525 21.2736 14.5779 21.3623 15.4867L21.3715 15.6708V15.6809L21.3614 15.8709V15.8818C21.2692 16.7738 20.5766 17.4861 19.6974 17.596L19.6572 17.6019C19.6534 17.6024 19.6492 17.6024 19.6471 17.6027L19.4647 17.6111H19.4555C18.5879 17.6083 17.8579 17.021 17.6273 16.2191L17.588 16.0559V16.0534L17.5872 16.0475L17.5838 16.0358L17.562 15.8843C17.5615 15.8806 17.5607 15.8764 17.5604 15.8726V15.8659L17.5512 15.6909V15.6876L17.5629 15.4624C17.586 15.2504 17.6425 15.0479 17.7278 14.8622L17.7286 14.8606L17.7487 14.8154L17.7897 14.7224L17.6993 14.6036L17.6985 14.6027L17.2322 13.9992L17.1812 13.9323H12.744V15.4314H15.7314L15.8478 15.4431C16.1114 15.4981 16.3097 15.7354 16.3098 16.0157V17.7409L16.4119 17.7852L16.4546 17.8036L16.4555 17.8045L16.4571 17.8053C16.4588 17.8062 16.4625 17.8077 16.4663 17.8095L16.4705 17.8112C16.5797 17.8579 16.6841 17.9151 16.7827 17.9811L16.8798 18.0506L16.9995 18.1493L17.1586 18.3084L17.2256 18.3913L17.2289 18.3938L17.2339 18.3996C17.2345 18.4003 17.2354 18.4026 17.2381 18.4063L17.321 18.5227L17.3285 18.5327L17.3319 18.5377L17.3913 18.6365L17.393 18.6399C17.4262 18.6989 17.4575 18.76 17.4842 18.8223L17.5537 19.0132L17.5888 19.1421L17.5913 19.1538L17.6148 19.2785L17.634 19.4484C17.6347 19.4548 17.6358 19.4603 17.6365 19.4644L17.6407 19.5799V19.6025L17.6324 19.7808C17.6323 19.7817 17.6328 19.7845 17.6324 19.7883L17.6315 19.7908C17.5455 20.6451 16.9091 21.3376 16.0855 21.4942L15.9189 21.5185C15.918 21.5185 15.9169 21.5184 15.9147 21.5185L15.7306 21.5269H15.7264C14.7998 21.5242 14.0305 20.8557 13.8572 19.9716C13.8571 19.9707 13.8565 19.9697 13.8564 19.9691L13.8539 19.9565L13.8313 19.8C13.8308 19.7968 13.83 19.7929 13.8296 19.7891C13.8293 19.7856 13.8296 19.7833 13.8296 19.7833L13.8288 19.7824L13.8196 19.6067V19.5824C13.8242 18.7879 14.3044 18.1039 14.9881 17.8112L14.9948 17.8078C14.9964 17.807 14.9989 17.8066 14.9998 17.8062L15.0007 17.8045H15.0023L15.153 17.74V16.5983H12.7448V21.2163L12.7415 21.2833C12.7413 21.2852 12.7408 21.2873 12.7406 21.2891C12.7315 21.361 12.7073 21.4293 12.6737 21.4917L12.6703 21.4992C12.6244 21.5813 12.5586 21.6506 12.4811 21.7018L12.4234 21.737L9.88375 23.2863C9.8808 23.2878 9.87773 23.2895 9.87455 23.2914L9.87036 23.2939L9.74313 23.3726L9.6837 23.4069C9.63456 23.4348 9.58479 23.4551 9.53554 23.4671L9.47192 23.4789L9.47025 23.4797L9.46188 23.4814L9.42337 23.4839H9.39826C9.3189 23.4834 9.24073 23.4673 9.16975 23.4362L9.16473 23.4337L9.16389 23.4328C9.16284 23.4322 9.16186 23.4311 9.16054 23.4303H9.15887C9.15785 23.4298 9.15642 23.43 9.15552 23.4295L9.11032 23.4044C9.10876 23.4034 9.10712 23.4021 9.10529 23.401L9.09692 23.3968L9.09609 23.396L9.09106 23.3918L9.01657 23.3449L9.11701 23.3516C9.11717 23.3507 9.11748 23.3502 9.11785 23.3483C9.11829 23.346 9.11886 23.3442 9.11952 23.3407L9.11701 23.3399L8.95965 23.3098L4.03275 20.2236L3.94402 20.1558C3.917 20.1307 3.89194 20.1029 3.87036 20.0737L3.86785 20.0704L3.83437 20.0185L3.83102 20.0126C3.7953 19.9475 3.7723 19.8756 3.76322 19.8025C3.76285 19.7995 3.76328 19.7969 3.76322 19.7958L3.75987 19.7322V16.5204L3.67449 16.471L1.31902 15.1041C1.25645 15.0678 1.20047 15.0195 1.1558 14.9644C1.15448 14.9627 1.15369 14.9616 1.15329 14.961L1.11813 14.9125L1.11478 14.9074C1.06504 14.8272 1.03511 14.733 1.02856 14.6371V9.33266L1.03275 9.25983C1.0536 9.09256 1.14531 8.94056 1.28721 8.84633L1.29726 8.8388L1.29558 8.83963C1.29917 8.83706 1.30467 8.83429 1.314 8.82875L3.67616 7.42585L3.75987 7.37646V4.23165L3.76322 4.16469L3.76238 4.16385L3.76322 4.15715C3.78305 4.00897 3.8598 3.87277 3.97667 3.77881L4.01517 3.75118L4.01936 3.74951L4.02271 3.74532L4.02856 3.74198C4.03023 3.74077 4.03224 3.73962 4.03359 3.73863C4.03503 3.73757 4.0358 3.73611 4.03694 3.73528C4.03911 3.73369 4.04097 3.73345 4.04196 3.73277C4.04401 3.73134 4.04263 3.73195 4.03945 3.73361L4.05116 3.72691L9.07432 0.614744L9.07935 0.611396L9.08269 0.608047L9.08353 0.608885L9.08269 0.609722C9.08434 0.608703 9.08607 0.607565 9.08939 0.605536L9.09358 0.602188L9.15217 0.571217L9.15384 0.569543C9.15479 0.569076 9.15612 0.568779 9.15803 0.567869L9.17561 0.559498L9.17896 0.557824L9.28526 0.525179L9.39408 0.514297H9.41919L9.4736 0.518483H9.48197L9.49034 0.520157L9.49369 0.520994C9.567 0.532816 9.64025 0.557828 9.7063 0.59884L12.3857 2.26709C12.3867 2.26793 12.3884 2.2692 12.3907 2.27127C12.3928 2.2731 12.3964 2.27658 12.3999 2.27964L12.4217 2.29806L12.4493 2.30894C12.4539 2.31072 12.4586 2.31319 12.4627 2.31564L12.4669 2.31815L12.4686 2.31899L12.4728 2.32066L12.5439 2.37339C12.577 2.40225 12.6065 2.43542 12.6326 2.47133L12.6703 2.52992L12.6745 2.53746L12.7096 2.62116L12.718 2.64209L12.7205 2.6513L12.7381 2.72663L12.7423 2.75593V2.7576L12.7456 2.82122V7.29778H16.3533V5.6446L16.2462 5.60107L16.1985 5.58182C16.1972 5.58127 16.1959 5.58047 16.1951 5.58015C16.1943 5.57981 16.1939 5.57948 16.1935 5.57931L16.1951 5.58015L16.0101 5.48974C16.0097 5.48948 16.0084 5.48858 16.006 5.48723C15.8673 5.40942 15.7384 5.31468 15.6226 5.20515L15.5113 5.09047L15.5096 5.08796L15.4276 4.98919L15.4242 4.98584C15.1612 4.64588 15.0191 4.22733 15.0208 3.79722C15.0225 2.73273 15.8764 1.86363 16.9317 1.86363H16.9401L17.1167 1.87116L17.1176 1.872C17.1192 1.87224 17.1216 1.87165 17.1243 1.872L17.1276 1.87284C17.1276 1.87284 17.1284 1.87357 17.1293 1.87367C17.1298 1.87375 17.1308 1.87353 17.1318 1.87367L17.1494 1.87786H17.1561L17.167 1.87869L17.2959 1.90046V1.89795C17.9228 2.02038 18.4396 2.45347 18.6862 3.03132L18.7322 3.15018L18.7749 3.28578L18.7774 3.29666L18.8067 3.42724L18.8109 3.44984L18.8335 3.61558V3.62563L18.8411 3.78969V3.81061L18.836 3.93868V3.94622C18.7845 4.62381 18.3855 5.2034 17.8182 5.50565L17.6658 5.57847C17.6636 5.57957 17.6616 5.58102 17.66 5.58182L17.485 5.65046L17.5085 5.6965V7.88623L17.5068 7.92724V7.93645C17.5042 7.96449 17.4995 7.99264 17.4926 8.02016L17.4658 8.10051C17.4518 8.13473 17.4338 8.17033 17.4122 8.20347C17.41 8.20692 17.4089 8.20912 17.408 8.21017L17.3478 8.28467L17.3411 8.29136C17.2882 8.34471 17.224 8.38885 17.1536 8.41859C17.0844 8.44758 17.0088 8.46323 16.9326 8.4638H12.7456V9.96463H19.2328L19.2755 9.85665L19.2906 9.81815ZM9.16473 23.4337L9.16891 23.4345C9.16834 23.4342 9.16707 23.4337 9.16556 23.4328L9.16473 23.4337ZM9.11952 23.4102C9.12044 23.4108 9.1215 23.4115 9.12204 23.4119C9.12131 23.4114 9.11921 23.4103 9.11785 23.4094L9.11952 23.4102ZM7.56177 2.92083L7.48057 2.97105V5.91329C7.48057 6.01738 7.39632 6.10163 7.29224 6.10163H6.5121C6.40799 6.10127 6.3246 6.01682 6.3246 5.91329V3.68589L6.0626 3.84828L4.9962 4.51123L4.915 4.56145V7.38734L4.9895 7.4384L5.02717 7.46435L5.03135 7.46686L6.77075 8.58852L6.77829 8.59354L6.78666 8.59772L6.81512 8.61614L6.90635 8.67557L6.99843 8.61698L8.8751 7.43589L8.95546 7.38567V5.1566C8.95571 5.05246 9.04013 4.96826 9.1438 4.96826H9.92393L9.96244 4.97244C10.0477 4.99044 10.1112 5.06611 10.1114 5.1566V7.7297L10.1081 7.77657L10.1072 7.77992V7.78662C10.0881 7.9363 10.0107 8.07216 9.8938 8.16664L9.89045 8.16915L9.84525 8.20263C9.84358 8.20387 9.84204 8.20568 9.84023 8.20682L7.63459 9.59298L7.51406 9.66832V11.6161L7.58521 11.668L7.61869 11.6923L7.62036 11.6931L8.89352 12.5947C8.97731 12.6543 8.99833 12.7725 8.93956 12.8575L8.49173 13.5045L8.46746 13.533C8.44069 13.5585 8.40609 13.5757 8.36869 13.5824L8.36115 13.5832C8.31369 13.5896 8.26588 13.5786 8.22723 13.5514L7.04363 12.7127C7.04464 12.7136 7.04551 12.7146 7.04614 12.7152C7.04539 12.7145 7.04342 12.7132 7.04196 12.7118C7.0405 12.7105 7.03847 12.7089 7.0361 12.7068L7.03024 12.7026L7.02856 12.7001L7.02187 12.6951L6.98336 12.6683L6.88794 12.6022L6.79168 12.6658L5.42896 13.5615C5.38884 13.5877 5.33931 13.597 5.29252 13.5891L5.28582 13.5882L5.24983 13.5765C5.2155 13.5617 5.18619 13.5371 5.16612 13.5062L5.15608 13.4903L5.1544 13.4886L4.7409 12.8441C4.68564 12.7572 4.71093 12.6404 4.79698 12.5838L6.2794 11.6094L6.35725 11.5592V9.70682L6.2501 9.63651L6.23169 9.61809L6.21327 9.6114L4.4563 8.4797L4.45462 8.47886L4.32404 8.39348L4.23197 8.44789L2.2674 9.61391L2.1837 9.66329V10.9674L3.92644 9.91776L3.92896 9.91608C3.9312 9.91467 3.93352 9.91357 3.93481 9.91274L3.93565 9.9119C3.93648 9.91136 3.93772 9.91134 3.93816 9.91106C3.93974 9.91038 3.94174 9.90891 3.94486 9.90771L3.97332 9.89683C3.97826 9.89494 3.98184 9.89387 3.98336 9.89348C4.06297 9.87349 4.14875 9.90923 4.19179 9.98221L4.58521 10.651L4.59106 10.6611C4.63516 10.7374 4.6187 10.8315 4.55758 10.8904L4.51657 10.9222L2.26657 12.2799L2.1837 12.3293V14.2587L2.26908 14.3081L4.14073 15.3971L4.22778 15.4482L4.35418 15.3728L4.35669 15.3712C4.35949 15.3694 4.36202 15.3679 4.36339 15.367L4.36506 15.3661L6.44095 14.1147L6.44598 14.1114L6.44681 14.1122L6.47611 14.0972L6.49369 14.0896L6.52047 14.0813C6.52191 14.0808 6.52596 14.0799 6.53303 14.0788C6.58268 14.071 6.63317 14.0831 6.67282 14.1114L6.70797 14.1457L6.72639 14.1717L7.11646 14.8396L7.13738 14.8857C7.1486 14.9202 7.15127 14.9586 7.13989 14.997C7.12681 15.04 7.09668 15.0769 7.05619 15.1016L7.05535 15.1025C7.05356 15.1038 7.05169 15.1047 7.05033 15.1058L7.04531 15.11C7.04631 15.1092 7.04817 15.1073 7.05033 15.1058C7.04963 15.1064 7.04918 15.1079 7.04865 15.1083L7.04531 15.11L7.04447 15.1108L4.99955 16.3447L4.915 16.394V19.4041L4.99536 19.4551L6.52801 20.4144L6.54642 20.4236L6.55144 20.427L6.57823 20.4445L6.66696 20.4998L6.75652 20.4462L6.79754 20.4219L6.81679 20.4111L6.81846 20.4085L8.9856 19.1027L8.98978 19.0994L9.01573 19.0885L9.03498 19.081L9.04837 19.0768C9.11623 19.0603 9.18821 19.0834 9.2342 19.1362L9.2568 19.1672L9.65022 19.8385L9.66947 19.8804C9.69183 19.9489 9.67305 20.0241 9.62092 20.0737L9.57823 20.1055L7.77187 21.1954L8.00792 21.3435L9.31456 22.1605L9.40496 22.2166L11.5068 20.9334L11.5888 20.8832V15.3594L6.9775 18.1644C6.93563 18.1899 6.88287 18.1981 6.83353 18.1862C6.78478 18.1739 6.7419 18.1421 6.71634 18.0991L6.31623 17.4219C6.26395 17.3329 6.292 17.2183 6.37901 17.165L11.4658 14.0729L11.4675 14.0721L11.5888 13.9992V3.1393L11.5043 3.08991L11.4733 3.0715L11.4683 3.06815L9.49034 1.83601L9.39994 1.77992L7.56177 2.92083ZM15.7306 18.8282C15.7267 18.8283 15.723 18.8287 15.7197 18.829C15.6241 18.8311 15.5296 18.8507 15.4418 18.8876C15.3719 18.9172 15.3073 18.9574 15.2509 19.0048L15.1965 19.055C15.145 19.1073 15.0987 19.1657 15.0643 19.23L15.0609 19.2367L15.0584 19.2425L15.0392 19.2869L15.0358 19.2953L15.0283 19.3154L15.0249 19.3262L14.9948 19.4258L14.9898 19.4418L14.9881 19.4577L14.9764 19.5732L14.9756 19.5874L14.9764 19.6016L14.9806 19.6661V19.677L14.9831 19.687L15.004 19.7975L15.0065 19.8126L15.0115 19.826L15.045 19.9147L15.0475 19.9222L15.0509 19.9281C15.173 20.1833 15.4322 20.3584 15.7281 20.36H15.7322C15.828 20.3591 15.9252 20.3394 16.0168 20.3014L16.0177 20.3022L16.0269 20.2964L16.0277 20.2972L16.0888 20.2679L16.0955 20.2646L16.1022 20.2604L16.1064 20.2579L16.1056 20.257C16.1631 20.224 16.2187 20.1839 16.2671 20.1348C16.3371 20.0638 16.3921 19.979 16.4295 19.8871L16.4638 19.7816C16.4727 19.7457 16.4789 19.7085 16.4822 19.6711L16.4831 19.6619L16.4856 19.5924V19.5815L16.4848 19.5698L16.4739 19.4568L16.473 19.4493L16.4714 19.4409L16.4538 19.3714C16.447 19.3492 16.4392 19.328 16.4312 19.3078L16.4287 19.2995L16.4245 19.2919L16.3692 19.1856L16.3617 19.1705L16.3508 19.1572L16.2788 19.0668L16.2671 19.0534L16.2119 19.0031C16.1545 18.9555 16.0905 18.9159 16.0219 18.8868C15.9573 18.8599 15.8856 18.8415 15.8134 18.8332L15.7406 18.8282H15.7306ZM19.4596 14.9125C19.3618 14.9136 19.264 14.9338 19.1734 14.9719C19.1044 15.0011 19.0397 15.0396 18.9834 15.0857L18.9775 15.0916L18.9273 15.1368L18.9197 15.1452L18.8628 15.2121L18.8586 15.218L18.8545 15.223C18.8343 15.251 18.8164 15.2797 18.8009 15.3084L18.7967 15.3176L18.7682 15.3779L18.7624 15.3887L18.759 15.4013L18.7264 15.5101L18.7222 15.5227L18.7205 15.5352L18.7197 15.5411L18.7189 15.5495L18.7088 15.6599L18.708 15.6717V15.6825L18.7105 15.747L18.7113 15.7604L18.7138 15.7738L18.7356 15.8843L18.7389 15.8985L18.744 15.9127L18.7783 16.0015L18.7833 16.0132C18.9056 16.2689 19.1642 16.4447 19.4596 16.4459H19.4622C19.5615 16.4451 19.6599 16.4242 19.7501 16.3865L19.7576 16.3832L19.7652 16.379L19.874 16.3204L19.8824 16.3162L19.8899 16.3112C19.9278 16.2852 19.9627 16.2559 19.9945 16.2241L20.0021 16.2157L20.0447 16.1672L20.0498 16.1613C20.0953 16.1045 20.1337 16.0414 20.1611 15.9747C20.1889 15.906 20.206 15.8316 20.213 15.7612L20.2138 15.7529L20.2172 15.6825V15.675C20.2174 15.5995 20.2063 15.5259 20.1862 15.4574L20.1837 15.4507L20.1661 15.3988L20.1619 15.3879L20.1577 15.3779L20.1544 15.3703L20.1351 15.3301L20.1268 15.3134L20.1226 15.3059L20.0766 15.2322L20.0699 15.2222L20.0615 15.2121L20.0046 15.1452L19.997 15.1368L19.9887 15.1293L19.9443 15.0891L19.9376 15.0832L19.848 15.0204C19.8172 15.002 19.7853 14.9857 19.7526 14.9719C19.7063 14.9524 19.6585 14.938 19.612 14.9284L19.6036 14.9275L19.5961 14.9258L19.4831 14.9133L19.473 14.9125H19.4596ZM20.9253 9.79387C20.9213 9.79572 20.9177 9.79812 20.9161 9.7989C20.9153 9.79931 20.914 9.79953 20.9136 9.79973C20.9142 9.79944 20.9156 9.79841 20.9186 9.79722C20.9141 9.79898 20.9109 9.79999 20.9086 9.80057L20.9052 9.80141L20.9027 9.80224C20.898 9.80328 20.8938 9.80407 20.891 9.80476C20.8887 9.80516 20.8854 9.80582 20.8826 9.80643C20.884 9.80614 20.885 9.80495 20.886 9.80476C20.8837 9.80513 20.8809 9.80665 20.8776 9.80727L20.8617 9.80978L20.8584 9.81061H20.8559L20.5587 9.86753L20.5922 9.90102L20.5177 9.92696L20.562 9.97133L20.5554 9.97803L20.552 9.98388L20.5394 9.9956L20.5286 10.0048L20.5202 10.0157L20.4373 10.1178L20.4306 10.1262L20.4248 10.1346C20.4147 10.1506 20.405 10.1685 20.3946 10.1881L20.3905 10.1957L20.3662 10.2476L20.3612 10.2593L20.3578 10.2718L20.3252 10.3815L20.3226 10.389L20.321 10.3974C20.3118 10.4451 20.3067 10.4943 20.3067 10.5439V10.5506L20.3084 10.6075L20.3093 10.6209L20.3118 10.6343L20.3352 10.7573L20.3369 10.7665L20.3394 10.7757C20.4346 11.0869 20.7213 11.3105 21.0542 11.314H21.0618L21.1346 11.3098C21.2072 11.3023 21.28 11.2846 21.3497 11.2554C21.4404 11.217 21.5248 11.1604 21.595 11.0896L21.5958 11.0905L21.6033 11.0813L21.6402 11.0386L21.6435 11.0344C21.6904 10.9765 21.7307 10.9107 21.759 10.841L21.7641 10.8226L21.8151 10.6912L21.6879 10.6175C21.6588 10.6007 21.6428 10.5715 21.6444 10.5405L21.6569 10.4995C21.6643 10.4875 21.6742 10.4773 21.6862 10.4702L21.8252 10.389L21.7523 10.2434L21.7507 10.2409L21.6954 10.1354L21.687 10.1203L21.6444 10.0626C21.6291 10.0439 21.613 10.0256 21.5958 10.0082C21.5443 9.956 21.4843 9.91037 21.4184 9.87423L21.4117 9.87088L21.3556 9.84326L21.3455 9.83907L21.2794 9.8148C21.2119 9.79405 21.1415 9.78279 21.071 9.78132L21.0015 9.77881L20.9613 9.77797L20.9253 9.79387ZM20.9027 9.80224L20.8927 9.80476C20.8943 9.80445 20.8958 9.8041 20.8969 9.80392C20.8991 9.80356 20.9008 9.80322 20.9019 9.80308L20.9027 9.80224ZM6.26266 9.65074L6.2635 9.65241L6.26015 9.64906C6.26096 9.64993 6.26216 9.65018 6.26266 9.65074ZM16.9142 3.02797L16.905 3.02881L16.7978 3.04053L16.4421 3.07987L16.5174 3.1552C16.4729 3.18507 16.4317 3.21864 16.3952 3.25565C16.3462 3.30545 16.3014 3.36199 16.2671 3.42473L16.206 3.5369L16.2169 3.54778L16.1943 3.62563L16.1918 3.634L16.1901 3.6432C16.181 3.6915 16.1762 3.73979 16.1759 3.7855V3.7922L16.1767 3.7989V3.80141L16.1801 3.8667L16.1809 3.87925L16.1834 3.89013L16.2043 3.99979L16.2077 4.01653C16.3009 4.33373 16.5907 4.56107 16.9276 4.56229H16.9301C17.0269 4.56147 17.1258 4.54223 17.218 4.50369L17.2264 4.50035L17.2339 4.49616L17.3369 4.44008L17.3444 4.43589L17.3511 4.43087C17.3925 4.40278 17.4316 4.37169 17.4658 4.33712C17.5355 4.26649 17.5904 4.18073 17.6282 4.08768L17.6625 3.98305C17.6716 3.94709 17.6782 3.91005 17.6817 3.87256L17.6826 3.86335L17.6851 3.79638V3.77964L17.6826 3.76374C17.6824 3.76232 17.6828 3.75926 17.6826 3.75453C17.6798 3.69 17.6684 3.62838 17.6516 3.57038L17.6483 3.56117L17.6307 3.51095L17.6265 3.49923L17.6215 3.48835L17.5687 3.38707L17.5679 3.38623L17.5595 3.36865L17.547 3.35358L17.4708 3.26151L17.4658 3.25565L17.4583 3.24811L17.4055 3.2004C17.3505 3.15525 17.2883 3.11686 17.2205 3.08824C17.1733 3.06838 17.1244 3.05442 17.0782 3.04471L17.0707 3.04304L17.0623 3.0422L16.9518 3.02964L16.9426 3.02797H16.9142Z" fill="black"/>
</svg>
