<?xml version="1.0" encoding="utf-8"?>
<!-- Generator: Adobe Illustrator 26.5.0, SVG Export Plug-In . SVG Version: 6.00 Build 0)  -->
<svg version="1.1" id="Layer_1" xmlns="http://www.w3.org/2000/svg" xmlns:xlink="http://www.w3.org/1999/xlink" x="0px" y="0px"
	 viewBox="0 0 24 24" style="enable-background:new 0 0 24 24;" xml:space="preserve">
<path d="M12,1L12,1C8.4,1,5.2,2.7,3.2,5.4L1.6,3.8C1.4,3.6,1.2,3.7,1.2,4v4.9c0,0.3,0.2,0.5,0.5,0.5h4.9C7,9.5,7,9.3,6.8,9.1
	L5.1,7.4c1.5-2.2,4-3.7,6.9-3.7c4.6,0,8.3,3.7,8.3,8.3s-3.7,8.3-8.3,8.3c-4.5,0-8.1-3.6-8.2-8.1H1C1.1,18.2,6,23,12,23
	c6.1,0,11-4.9,11-11S18.1,1,12,1L12,1z"/>
</svg>
