<!-- Generated by IcoMoon.io -->
<svg version="1.1" xmlns="http://www.w3.org/2000/svg" width="32" height="32" viewBox="0 0 32 32">
<title>backup-restore</title>
<path d="M14.66 19.321c0 1.48-1.2 2.679-2.679 2.679s-2.679-1.2-2.679-2.679c0-1.48 1.2-2.679 2.679-2.679s2.679 1.2 2.679 2.679zM22.698 19.321c0 1.48-1.2 2.679-2.679 2.679s-2.679-1.2-2.679-2.679c0-1.48 1.2-2.679 2.679-2.679s2.679 1.2 2.679 2.679zM18.531 12.568c0 1.418-1.15 2.568-2.568 2.568s-2.568-1.15-2.568-2.568 1.15-2.568 2.568-2.568 2.568 1.15 2.568 2.568z"></path>
<path d="M16 3.2v0c-4.205 0-7.935 2.028-10.269 5.159l-1.855-1.855c-0.243-0.243-0.442-0.161-0.442 0.183v5.75c0 0.344 0.281 0.625 0.625 0.625h5.75c0.344 0 0.426-0.199 0.183-0.442l-1.966-1.966c1.723-2.566 4.651-4.254 7.973-4.254 5.302 0 9.6 4.298 9.6 9.6s-4.298 9.6-9.6 9.6c-5.228 0-9.479-4.179-9.597-9.379h-3.2c0.118 6.967 5.802 12.578 12.797 12.578 7.069 0 12.8-5.731 12.8-12.8s-5.731-12.8-12.8-12.8v-0z"></path>
</svg>
