<svg viewBox="0 0 20 20" fill="none" xmlns="http://www.w3.org/2000/svg">
<path d="M6.63158 5.78932C6.63158 6.68268 6.98647 7.53945 7.61817 8.17115C8.24987 8.80285 9.10664 9.15774 10 9.15774C10.8934 9.15774 11.7501 8.80285 12.3818 8.17115C13.0135 7.53945 13.3684 6.68268 13.3684 5.78932C13.3684 4.89596 13.0135 4.03919 12.3818 3.40749C11.7501 2.77578 10.8934 2.4209 10 2.4209C9.10664 2.4209 8.24987 2.77578 7.61817 3.40749C6.98647 4.03919 6.63158 4.89596 6.63158 5.78932Z" stroke="black" stroke-width="1.3" stroke-linecap="round" stroke-linejoin="round"/>
<path d="M2 14.2104C2 15.1037 2.35489 15.9605 2.98659 16.5922C3.61829 17.2239 4.47506 17.5788 5.36842 17.5788C6.26178 17.5788 7.11855 17.2239 7.75025 16.5922C8.38196 15.9605 8.73684 15.1037 8.73684 14.2104C8.73684 13.317 8.38196 12.4602 7.75025 11.8285C7.11855 11.1968 6.26178 10.842 5.36842 10.842C4.47506 10.842 3.61829 11.1968 2.98659 11.8285C2.35489 12.4602 2 13.317 2 14.2104Z" stroke="black" stroke-width="1.3" stroke-linecap="round" stroke-linejoin="round"/>
<path d="M11.2632 14.2104C11.2632 15.1037 11.618 15.9605 12.2497 16.5922C12.8814 17.2239 13.7382 17.5788 14.6316 17.5788C15.5249 17.5788 16.3817 17.2239 17.0134 16.5922C17.6451 15.9605 18 15.1037 18 14.2104C18 13.317 17.6451 12.4602 17.0134 11.8285C16.3817 11.1968 15.5249 10.842 14.6316 10.842C13.7382 10.842 12.8814 11.1968 12.2497 11.8285C11.618 12.4602 11.2632 13.317 11.2632 14.2104Z" stroke="black" stroke-width="1.3" stroke-linecap="round" stroke-linejoin="round"/>
</svg>
