<svg viewBox="0 0 24 24" fill="none" xmlns="http://www.w3.org/2000/svg">
<path d="M7.78947 6.72222C7.78947 7.84203 8.23308 8.91596 9.02271 9.70778C9.81234 10.4996 10.8833 10.9444 12 10.9444C13.1167 10.9444 14.1877 10.4996 14.9773 9.70778C15.7669 8.91596 16.2105 7.84203 16.2105 6.72222C16.2105 5.60242 15.7669 4.52848 14.9773 3.73666C14.1877 2.94484 13.1167 2.5 12 2.5C10.8833 2.5 9.81234 2.94484 9.02271 3.73666C8.23308 4.52848 7.78947 5.60242 7.78947 6.72222Z" stroke="black" stroke-width="1.7" stroke-linecap="round" stroke-linejoin="round"/>
<path d="M2 17.2778C2 18.3976 2.44361 19.4715 3.23323 20.2633C4.02286 21.0552 5.09383 21.5 6.21053 21.5C7.32723 21.5 8.39819 21.0552 9.18782 20.2633C9.97745 19.4715 10.4211 18.3976 10.4211 17.2778C10.4211 16.158 9.97745 15.084 9.18782 14.2922C8.39819 13.5004 7.32723 13.0556 6.21053 13.0556C5.09383 13.0556 4.02286 13.5004 3.23323 14.2922C2.44361 15.084 2 16.158 2 17.2778Z" stroke="black" stroke-width="1.7" stroke-linecap="round" stroke-linejoin="round"/>
<path d="M13.5789 17.2778C13.5789 18.3976 14.0226 19.4715 14.8122 20.2633C15.6018 21.0552 16.6728 21.5 17.7895 21.5C18.9062 21.5 19.9771 21.0552 20.7668 20.2633C21.5564 19.4715 22 18.3976 22 17.2778C22 16.158 21.5564 15.084 20.7668 14.2922C19.9771 13.5004 18.9062 13.0556 17.7895 13.0556C16.6728 13.0556 15.6018 13.5004 14.8122 14.2922C14.0226 15.084 13.5789 16.158 13.5789 17.2778Z" stroke="black" stroke-width="1.7" stroke-linecap="round" stroke-linejoin="round"/>
</svg>
