<svg viewBox="0 0 24 24" fill="none" xmlns="http://www.w3.org/2000/svg">
<path d="M9.56738 17.075C9.5261 16.2467 9.17696 15.4611 8.58594 14.8725C7.99492 14.2839 7.20691 13.9378 6.37695 13.8968L6.21094 13.892C5.32043 13.892 4.46536 14.2447 3.83496 14.8725C3.20467 15.5003 2.84972 16.3521 2.84961 17.2409L2.85449 17.4077C2.8958 18.236 3.24399 19.0217 3.83496 19.6103C4.46536 20.2381 5.32043 20.5908 6.21094 20.5908C7.10129 20.5907 7.95563 20.238 8.58594 19.6103C9.21641 18.9824 9.57129 18.1299 9.57129 17.2409L9.56738 17.075ZM21.1504 17.2409C21.1503 16.3521 20.7953 15.5003 20.165 14.8725C19.5741 14.2839 18.786 13.9378 17.9561 13.8968L17.7891 13.892C16.8987 13.8921 16.0444 14.2448 15.4141 14.8725C14.7837 15.5003 14.4288 16.3521 14.4287 17.2409L14.4326 17.4077C14.4739 18.2361 14.823 19.0216 15.4141 19.6103C16.0444 20.238 16.8987 20.5907 17.7891 20.5908C18.6796 20.5908 19.5346 20.2381 20.165 19.6103C20.7955 18.9824 21.1504 18.1298 21.1504 17.2409ZM15.3564 6.59183C15.3151 5.76348 14.966 4.97789 14.375 4.38928C13.7446 3.76158 12.8904 3.40875 12 3.40875C11.1096 3.40875 10.2554 3.76158 9.625 4.38928C8.99452 5.01717 8.63965 5.86966 8.63965 6.75864L8.64355 6.92449C8.68484 7.75288 9.03394 8.53841 9.625 9.12704C10.2554 9.75478 11.1096 10.1076 12 10.1076L12.166 10.1027C12.9961 10.0618 13.7839 9.71565 14.375 9.12704C15.0054 8.49925 15.3602 7.64747 15.3604 6.75864L15.3564 6.59183ZM11.2646 17.4911C11.2026 18.7353 10.6793 19.9165 9.79004 20.8022C8.84129 21.7471 7.55369 22.2782 6.21094 22.2783C4.86809 22.2783 3.58068 21.7471 2.63184 20.8022C1.7424 19.9164 1.21827 18.7355 1.15625 17.4911L1.15039 17.2409C1.15051 15.9058 1.68317 14.6253 2.63184 13.6805C3.58068 12.7356 4.86806 12.2034 6.21094 12.2034L6.46191 12.2102C7.71322 12.2721 8.90057 12.7947 9.79004 13.6805C10.7385 14.6253 11.2714 15.906 11.2715 17.2409L11.2646 17.4911ZM22.8496 17.2409C22.8496 18.5761 22.3169 19.8573 21.3682 20.8022C20.4193 21.7471 19.1319 22.2783 17.7891 22.2783C16.4463 22.2782 15.1587 21.7471 14.21 20.8022C13.3207 19.9165 12.7974 18.7353 12.7354 17.4911L12.7285 17.2409C12.7286 15.906 13.2615 14.6253 14.21 13.6805C15.1587 12.7357 16.4463 12.2035 17.7891 12.2034L18.041 12.2102C19.2922 12.2722 20.4787 12.7948 21.3682 13.6805C22.3168 14.6253 22.8495 15.9058 22.8496 17.2409ZM17.0547 7.0079C16.9927 8.25223 16.4685 9.4332 15.5791 10.319C14.6895 11.2049 13.5024 11.7275 12.251 11.7893L12 11.7961C10.6571 11.7961 9.36975 11.264 8.4209 10.319C7.53152 9.4332 7.0073 8.25223 6.94531 7.0079L6.93945 6.75864C6.93945 5.42344 7.47219 4.14219 8.4209 3.19732C9.36975 2.25236 10.6571 1.72119 12 1.72119C13.3429 1.72119 14.6303 2.25236 15.5791 3.19732C16.5278 4.14219 17.0605 5.42344 17.0605 6.75864L17.0547 7.0079Z" fill="black"/>
</svg>
