<?xml version="1.0" encoding="utf-8"?>
<!-- Generator: Adobe Illustrator 26.5.0, SVG Export Plug-In . SVG Version: 6.00 Build 0)  -->
<svg version="1.1" id="Layer_1" xmlns="http://www.w3.org/2000/svg" xmlns:xlink="http://www.w3.org/1999/xlink" x="0px" y="0px"
	 viewBox="0 0 24 24" style="enable-background:new 0 0 24 24;" xml:space="preserve">
<path d="M12,16.7c-0.4,0-0.7-0.1-0.9-0.4L4.3,9.5C4.1,9.3,3.9,9,3.9,8.6c0-0.7,0.6-1.3,1.3-1.3c0.4,0,0.7,0.1,0.9,0.4l5.9,5.9
	l5.9-5.9c0.2-0.2,0.6-0.4,0.9-0.4c0.7,0,1.3,0.6,1.3,1.3c0,0.4-0.1,0.7-0.4,0.9l-6.8,6.8C12.7,16.5,12.4,16.7,12,16.7L12,16.7z"/>
</svg>
