<!-- Generated by IcoMoon.io -->
<svg version="1.1" xmlns="http://www.w3.org/2000/svg" width="32" height="32" viewBox="0 0 32 32">
<title>chevron-down</title>
<path d="M16 20.674c-0.353 0-0.673-0.143-0.905-0.375l-6.788-6.788c-0.232-0.232-0.375-0.552-0.375-0.905 0-0.707 0.573-1.28 1.28-1.28 0.353 0 0.673 0.143 0.905 0.375l5.883 5.883 5.883-5.883c0.232-0.232 0.552-0.375 0.905-0.375 0.707 0 1.28 0.573 1.28 1.28 0 0.353-0.143 0.674-0.375 0.905l-6.788 6.788c-0.232 0.232-0.552 0.375-0.905 0.375v0z"></path>
</svg>
