<?xml version="1.0" encoding="utf-8"?>
<!-- Generator: Adobe Illustrator 26.5.0, SVG Export Plug-In . SVG Version: 6.00 Build 0)  -->
<svg version="1.1" id="Layer_1" xmlns="http://www.w3.org/2000/svg" xmlns:xlink="http://www.w3.org/1999/xlink" x="0px" y="0px"
	 viewBox="0 0 24 24" style="enable-background:new 0 0 24 24;" xml:space="preserve">
<path d="M15.4,20.1C15.4,20.1,15.4,20.1,15.4,20.1c-0.4,0-0.7-0.1-0.9-0.4l-6.8-6.8c-0.2-0.2-0.4-0.6-0.4-0.9s0.1-0.7,0.4-0.9
	l6.8-6.8c0.2-0.2,0.6-0.4,0.9-0.4c0.7,0,1.3,0.6,1.3,1.3c0,0.4-0.1,0.7-0.4,0.9L10.4,12l5.9,5.9c0.2,0.2,0.4,0.6,0.4,0.9
	C16.7,19.5,16.1,20.1,15.4,20.1L15.4,20.1L15.4,20.1L15.4,20.1z"/>
</svg>
