<?xml version="1.0" encoding="utf-8"?>
<!-- Generator: Adobe Illustrator 26.5.0, SVG Export Plug-In . SVG Version: 6.00 Build 0)  -->
<svg version="1.1" id="Layer_1" xmlns="http://www.w3.org/2000/svg" xmlns:xlink="http://www.w3.org/1999/xlink" x="0px" y="0px"
	 viewBox="0 0 24 24" style="enable-background:new 0 0 24 24;" xml:space="preserve">
<path d="M18.9,17.9L13,12l5.9-5.9c0.2-0.2,0.4-0.6,0.4-0.9c0-0.7-0.6-1.3-1.3-1.3c-0.4,0-0.7,0.1-0.9,0.4l-6.8,6.8
	c-0.2,0.2-0.4,0.6-0.4,0.9s0.1,0.7,0.4,0.9l6.8,6.8c0.2,0.2,0.6,0.4,0.9,0.4c0,0,0,0,0,0l0,0l0,0c0.7,0,1.3-0.6,1.3-1.3
	C19.3,18.4,19.1,18.1,18.9,17.9L18.9,17.9z"/>
<path d="M6,4C5.3,4,4.7,4.6,4.7,5.3v13.5C4.7,19.4,5.3,20,6,20s1.3-0.6,1.3-1.3V5.3C7.3,4.6,6.7,4,6,4z"/>
</svg>
