<!-- Generated by IcoMoon.io -->
<svg version="1.1" xmlns="http://www.w3.org/2000/svg" width="32" height="32" viewBox="0 0 32 32">
<title>chevron-right</title>
<path d="M12.606 24.068c-0 0-0 0-0 0-0.707 0-1.28-0.573-1.28-1.28 0-0.353 0.143-0.674 0.375-0.905l5.883-5.883-5.883-5.883c-0.232-0.232-0.375-0.552-0.375-0.905 0-0.707 0.573-1.28 1.28-1.28 0.353 0 0.673 0.143 0.905 0.375l6.788 6.788c0.232 0.232 0.375 0.552 0.375 0.905s-0.143 0.673-0.375 0.905l-6.788 6.788c-0.231 0.232-0.551 0.375-0.904 0.375-0.001 0-0.001 0-0.002 0h0z"></path>
</svg>
