<?xml version="1.0" encoding="utf-8"?>
<!-- Generator: Adobe Illustrator 26.5.0, SVG Export Plug-In . SVG Version: 6.00 Build 0)  -->
<svg version="1.1" id="Layer_1" xmlns="http://www.w3.org/2000/svg" xmlns:xlink="http://www.w3.org/1999/xlink" x="0px" y="0px"
	 viewBox="0 0 24 24" style="enable-background:new 0 0 24 24;" xml:space="preserve">
<path d="M8.6,20.1L8.6,20.1c-0.7,0-1.3-0.6-1.3-1.3c0-0.4,0.1-0.7,0.4-0.9l5.9-5.9L7.7,6.1C7.5,5.9,7.3,5.6,7.3,5.2
	c0-0.7,0.6-1.3,1.3-1.3c0.4,0,0.7,0.1,0.9,0.4l6.8,6.8c0.2,0.2,0.4,0.6,0.4,0.9s-0.1,0.7-0.4,0.9l-6.8,6.8C9.3,19.9,9,20.1,8.6,20.1
	C8.6,20.1,8.6,20.1,8.6,20.1L8.6,20.1L8.6,20.1z"/>
</svg>
