<?xml version="1.0" encoding="utf-8"?>
<!-- Generator: Adobe Illustrator 26.5.0, SVG Export Plug-In . SVG Version: 6.00 Build 0)  -->
<svg version="1.1" id="Layer_1" xmlns="http://www.w3.org/2000/svg" xmlns:xlink="http://www.w3.org/1999/xlink" x="0px" y="0px"
	 viewBox="0 0 24 24" style="enable-background:new 0 0 24 24;" xml:space="preserve">
<path d="M5.1,6.1L11,12l-5.9,5.9c-0.2,0.2-0.4,0.6-0.4,0.9c0,0.7,0.6,1.3,1.3,1.3c0.4,0,0.7-0.1,0.9-0.4l6.8-6.8
	c0.2-0.2,0.4-0.6,0.4-0.9s-0.1-0.7-0.4-0.9L6.9,4.3C6.7,4.1,6.4,3.9,6,3.9c0,0,0,0,0,0l0,0l0,0c-0.7,0-1.3,0.6-1.3,1.3
	C4.7,5.6,4.9,5.9,5.1,6.1L5.1,6.1z"/>
<path d="M18,20c0.7,0,1.3-0.6,1.3-1.3V5.3C19.3,4.6,18.7,4,18,4s-1.3,0.6-1.3,1.3v13.5C16.7,19.4,17.3,20,18,20z"/>
</svg>
