<?xml version="1.0" encoding="UTF-8"?>
<svg id="Layer_1" data-name="Layer 1" xmlns="http://www.w3.org/2000/svg" viewBox="0 0 32 32">
  <polygon points="13.27 6.24 7.17 9.12 8.48 12.41 13.27 6.24"/>
  <polygon points="6.04 12.57 4.83 16.54 6.83 14.53 6.04 12.57"/>
  <polygon points="25.45 8.9 19.06 6.01 24.04 12.42 25.45 8.9"/>
  <polygon points="8.02 16.64 4.76 19.91 10.96 27.41 14.54 25.03 8.02 16.64"/>
  <polygon points="16.24 23.43 22.74 15.07 22.74 15.07 22.75 15.06 22.95 14.8 16.26 6.19 9.56 14.82 16.24 23.43"/>
  <polygon points="17.96 25.02 21.47 27.35 27.38 19.74 24.39 16.73 17.96 25.02"/>
  <polygon points="14.38 27.94 18.14 27.94 16.26 26.69 14.38 27.94"/>
  <polygon points="25.64 14.68 27.47 16.53 26.58 12.34 25.64 14.68"/>
  <path d="m30,0H2C.9,0,0,.9,0,2v28c0,1.1.9,2,2,2h28c1.1,0,2-.9,2-2V2c0-1.1-.9-2-2-2Zm-.4,20.21l-6.98,8.99c-.39.5-.98.79-1.6.79h-9.61c-.6,0-1.18-.27-1.57-.74l-7.34-8.87c-.44-.53-.58-1.25-.38-1.91l2.72-8.91h0s0-.01,0-.01l.3-.98c.17-.55.56-1.01,1.08-1.25L15.49,2.94c.27-.13.57-.19.87-.19s.57.06.83.18l9.53,4.3c.59.27,1.02.8,1.16,1.44l2.11,9.86c.13.59-.01,1.21-.39,1.69Z"/>
</svg>