<?xml version="1.0" encoding="utf-8"?>
<!-- Generator: Adobe Illustrator 26.5.0, SVG Export Plug-In . SVG Version: 6.00 Build 0)  -->
<svg version="1.1" id="Layer_1" xmlns="http://www.w3.org/2000/svg" xmlns:xlink="http://www.w3.org/1999/xlink" x="0px" y="0px"
	 viewBox="0 0 24 24" style="enable-background:new 0 0 24 24;" xml:space="preserve">
<path d="M22.9,14.7C22.9,14.7,22.9,14.7,22.9,14.7c0.1-0.3,0.1-0.7,0-1.1l-1.7-7.5c-0.1-0.3-0.2-0.7-0.5-0.9c0,0,0,0,0,0
	c0,0,0,0,0,0c0,0,0,0,0,0c0,0,0,0,0,0c-0.2-0.3-0.5-0.5-0.8-0.6c0,0,0,0,0,0l-7-3.3C12.7,1.1,12.3,1,12,1c0,0,0,0,0,0c0,0,0,0,0,0h0
	c0,0-0.1,0-0.1,0c0,0,0,0,0,0c-0.3,0-0.6,0.1-0.8,0.2L4,4.6C3.7,4.7,3.5,4.9,3.3,5.1c0,0,0,0,0,0C3,5.4,2.9,5.8,2.8,6.1l-1.7,7.5
	C1,13.9,1,14.2,1,14.5c0,0,0,0.1,0,0.1c0,0,0,0,0,0c0,0,0,0,0,0c0,0,0,0,0,0s0,0,0,0c0.1,0.3,0.2,0.5,0.3,0.7c0,0.1,0.1,0.1,0.1,0.2
	c0,0,0,0,0,0l4.8,6c0.2,0.3,0.6,0.5,0.9,0.7c0,0,0,0,0,0c0.3,0.1,0.6,0.2,0.9,0.2c0,0,0,0,0,0l7.7,0c0.3,0,0.6-0.1,0.9-0.2
	c0,0,0,0,0,0c0.3-0.1,0.6-0.4,0.9-0.7l4.8-6c0.1-0.2,0.3-0.4,0.3-0.6C22.9,14.9,22.9,14.8,22.9,14.7C22.9,14.7,22.9,14.7,22.9,14.7
	C22.9,14.7,22.9,14.7,22.9,14.7L22.9,14.7z M19.3,10.4l0.6-1.5l0.6,2.7C20.5,11.6,19.3,10.4,19.3,10.4z M18.9,6.1L18,8.6l-3.2-4.4
	L18.9,6.1L18.9,6.1z M10.5,5.7L12,3.6l5.1,7L12,17l-5.1-6.5L10.5,5.7C10.4,5.7,10.5,5.7,10.5,5.7L10.5,5.7z M3.5,11.4l0.6-2.6
	l0.5,1.4L3.5,11.4L3.5,11.4z M9.1,4.2L9,4.5c0,0,0,0,0,0L6,8.5L5.1,6.1C5.1,6.1,9.1,4.2,9.1,4.2z M3.2,14.6L5.6,12l5,6.3l-2.9,1.9
	L3.2,14.6L3.2,14.6z M12,19.7l1.3,0.8l-2.6,0C10.7,20.5,12,19.7,12,19.7z M16.3,20.2l-2.9-1.9l4.9-6.2l2.5,2.5L16.3,20.2z"/>
</svg>
