<?xml version="1.0" encoding="utf-8"?>
<!-- Generator: Adobe Illustrator 26.5.0, SVG Export Plug-In . SVG Version: 6.00 Build 0)  -->
<svg version="1.1" id="Layer_1" xmlns="http://www.w3.org/2000/svg" xmlns:xlink="http://www.w3.org/1999/xlink" x="0px" y="0px"
	 viewBox="0 0 24 24" style="enable-background:new 0 0 24 24;" xml:space="preserve">
<path d="M14.7,12.2l6.9-6.9C22,4.9,22.2,4.5,22.2,4c0-1-0.8-1.8-1.8-1.8c-0.5,0-0.9,0.2-1.3,0.5l-6.9,6.9L5.2,2.7
	C4.9,2.4,4.5,2.2,4,2.2C3,2.2,2.2,3,2.2,4c0,0.5,0.2,0.9,0.5,1.3l6.9,6.9l-6.9,6.9c-0.3,0.3-0.5,0.8-0.5,1.3c0,1,0.8,1.8,1.8,1.8
	c0.5,0,0.9-0.2,1.3-0.5l6.9-6.9l6.9,6.9c0.3,0.3,0.8,0.5,1.3,0.5c1,0,1.8-0.8,1.8-1.8c0-0.5-0.2-0.9-0.5-1.3l0,0L14.7,12.2z"/>
</svg>
