<!-- Generated by IcoMoon.io -->
<svg version="1.1" xmlns="http://www.w3.org/2000/svg" width="32" height="32" viewBox="0 0 32 32">
<title>close</title>
<path d="M17.81 16l4.978-4.978c0.232-0.232 0.375-0.552 0.375-0.905 0-0.707-0.573-1.28-1.28-1.28-0.353 0-0.673 0.143-0.905 0.375l-4.978 4.978-4.978-4.978c-0.232-0.232-0.552-0.375-0.905-0.375-0.707 0-1.28 0.573-1.28 1.28 0 0.353 0.143 0.674 0.375 0.905l4.978 4.978-4.978 4.978c-0.232 0.232-0.375 0.552-0.375 0.905 0 0.707 0.573 1.28 1.28 1.28 0.353 0 0.673-0.143 0.905-0.375l4.978-4.978 4.978 4.978c0.232 0.232 0.552 0.375 0.905 0.375 0.707 0 1.28-0.573 1.28-1.28 0-0.353-0.143-0.674-0.375-0.905v0z"></path>
</svg>
