<svg viewBox="0 0 24 21" fill="none" xmlns="http://www.w3.org/2000/svg">
<path d="M18.5625 19.3464V16.7013H15.9165C15.4837 16.7012 15.1327 16.3495 15.1327 15.9166C15.1329 15.4839 15.4838 15.133 15.9165 15.1329H18.5625V12.4868C18.5627 12.0541 18.9136 11.7032 19.3463 11.7031C19.7791 11.7031 20.1308 12.054 20.131 12.4868V15.1329H22.7761C23.2089 15.1329 23.5606 15.4838 23.5608 15.9166C23.5608 16.3496 23.209 16.7013 22.7761 16.7013H20.131V19.3464C20.131 19.7794 19.7792 20.1311 19.3463 20.1311C18.9135 20.1309 18.5625 19.7793 18.5625 19.3464ZM0 10.5211C0 7.4307 2.43709 4.93375 5.5045 4.64144C6.17794 2.59949 7.89532 0.999185 10.0817 0.33316C12.4684 -0.39283 15.1124 0.0824698 17.0236 1.61454H17.0226C18.6791 2.93926 19.5745 4.88968 19.4552 6.89511H19.6897C20.5656 6.896 21.4243 7.13919 22.1702 7.59849C22.9161 8.05789 23.5206 8.71519 23.9157 9.49712C24.1109 9.88356 23.9557 10.3555 23.5692 10.5507C23.1828 10.746 22.7108 10.5908 22.5156 10.2043C22.2513 9.68109 21.8473 9.24088 21.3481 8.93346C20.8489 8.62608 20.274 8.4632 19.6878 8.46263H18.5566C18.3189 8.46255 18.0939 8.3543 17.9451 8.16884C17.7965 7.98336 17.7404 7.74053 17.792 7.50853C18.1708 5.80597 17.5274 4.02512 16.0436 2.83851H16.0427C14.5516 1.64305 12.449 1.25107 10.5372 1.83273C8.62761 2.41461 7.25431 3.85806 6.87297 5.56779C6.79294 5.92589 6.47527 6.18102 6.10835 6.18121C3.57231 6.18121 1.56752 8.15246 1.56752 10.5211C1.56761 12.8907 3.57228 14.8627 6.1093 14.8667H12.2167C12.6494 14.8669 13.0003 15.2177 13.0005 15.6504C13.0005 16.0833 12.6495 16.435 12.2167 16.4352H6.10643C2.76275 16.4298 8.62875e-05 13.8127 0 10.5211Z" fill="black"/>
</svg>
