<!-- Generated by IcoMoon.io -->
<svg version="1.1" xmlns="http://www.w3.org/2000/svg" width="512" height="512" viewBox="0 0 512 512">
<title></title>
<g id="icomoon-ignore">
</g>
<path fill="#000" d="M491.892 138.488c-3.572-49.458-44.486-87.79-94.373-87.79-47.404 0-86.683 34.621-93.542 80.504l-61.518-30.683c-5.621-2.803-12.232-2.803-17.853 0l-141.327 70.491c-3.879 1.935-7.023 5.077-8.962 8.953l-52.438 104.877c-4.939 9.88-0.935 21.894 8.944 26.833 9.881 4.94 21.892 0.935 26.833-8.945l49.452-98.904 126.425-63.058 126.425 63.058 49.452 98.904c3.505 7.009 10.567 11.060 17.904 11.060 3.005 0 6.058-0.68 8.928-2.115 9.88-4.94 13.884-16.953 8.945-26.833l-52.438-104.877c-1.938-3.876-5.084-7.018-8.962-8.953l-40.986-20.443v-5.811c0.072-0.559 0.119-1.125 0.144-1.698 1.252-29.36 25.224-52.358 54.575-52.358s53.323 22.998 54.574 52.358c0.024 0.573 0.072 1.138 0.144 1.698v276.324h-54.938v-115.491c0-3.104-0.723-6.167-2.111-8.945l-39.695-79.389c-1.938-3.876-5.083-7.018-8.962-8.953l-104.070-51.908c-5.619-2.803-12.232-2.803-17.853 0l-104.072 51.908c-3.879 1.935-7.023 5.077-8.962 8.953l-39.694 79.389c-1.388 2.777-2.112 5.84-2.112 8.945v135.715c0 11.046 8.954 20 20 20h287.531c0.964 0 1.906-0.091 2.834-0.224h92.105c11.046 0 20-8.954 20-20v-298.873c0-1.27-0.118-2.512-0.344-3.717zM357.298 421.302h-247.53v-110.993l34.596-69.194 89.169-44.476 89.168 44.476 34.597 69.194v110.993z"></path>
</svg>
