<?xml version="1.0" encoding="utf-8"?>
<!-- Generator: Adobe Illustrator 26.5.0, SVG Export Plug-In . SVG Version: 6.00 Build 0)  -->
<svg version="1.1" id="Layer_1" xmlns="http://www.w3.org/2000/svg" xmlns:xlink="http://www.w3.org/1999/xlink" x="0px" y="0px"
	 viewBox="0 0 24 24" style="enable-background:new 0 0 24 24;" xml:space="preserve">
<g id="icomoon-ignore">
</g>
<path d="M23,6.3c-0.2-2.3-2.1-4.1-4.4-4.1c-2.2,0-4,1.6-4.4,3.7l-2.9-1.4c-0.3-0.1-0.6-0.1-0.8,0L4,7.8C3.8,7.9,3.6,8,3.5,8.2
	l-2.4,4.9c-0.2,0.5,0,1,0.4,1.2c0.5,0.2,1,0,1.2-0.4l2.3-4.6L11,6.4l5.9,2.9l2.3,4.6c0.2,0.3,0.5,0.5,0.8,0.5c0.1,0,0.3,0,0.4-0.1
	c0.5-0.2,0.6-0.8,0.4-1.2l-2.4-4.9C18.3,8,18.1,7.9,18,7.8l-1.9-1V6.6c0,0,0-0.1,0-0.1c0.1-1.4,1.2-2.4,2.5-2.4s2.5,1.1,2.5,2.4
	c0,0,0,0.1,0,0.1v12.9h-2.6v-5.4c0-0.1,0-0.3-0.1-0.4L16.6,10c-0.1-0.2-0.2-0.3-0.4-0.4l-4.8-2.4c-0.3-0.1-0.6-0.1-0.8,0L5.7,9.5
	C5.5,9.6,5.4,9.8,5.3,10l-1.8,3.7c-0.1,0.1-0.1,0.3-0.1,0.4v6.3c0,0.5,0.4,0.9,0.9,0.9h13.4c0,0,0.1,0,0.1,0h4.3
	c0.5,0,0.9-0.4,0.9-0.9V6.5C23,6.4,23,6.3,23,6.3L23,6.3z M16.7,19.5H5.2v-5.2l1.6-3.2L11,9l4.2,2.1l1.6,3.2L16.7,19.5L16.7,19.5z"
	/>
</svg>
