<?xml version="1.0" encoding="utf-8"?>
<!-- Generator: Adobe Illustrator 26.0.0, SVG Export Plug-In . SVG Version: 6.00 Build 0)  -->
<svg version="1.1" id="Layer_1" xmlns="http://www.w3.org/2000/svg" xmlns:xlink="http://www.w3.org/1999/xlink" x="0px" y="0px"
	 viewBox="0 0 24 24" style="enable-background:new 0 0 24 24;" xml:space="preserve">
<g>
	<path d="M20.3,5.3l-6.7-3.9C13.1,1.1,12.6,1,12,1s-1.1,0.1-1.6,0.4L3.7,5.3C2.7,5.9,2,7,2,8.1v7.8c0,1.2,0.6,2.2,1.6,2.8l6.7,3.9
		c0.5,0.3,1.1,0.4,1.6,0.4s1.1-0.1,1.6-0.4l6.7-3.9c1-0.6,1.6-1.6,1.6-2.8V8.1C22,7,21.3,5.9,20.3,5.3z M11,20.6l-6.3-3.7
		C4.3,16.7,4,16.3,4,15.9v-2.1l7,4.1V20.6z M11,15.6l-7-4.1V8.7l7,4.1V15.6z M4.9,6.9l6.4-3.7C11.6,3.1,11.8,3,12,3s0.4,0.1,0.6,0.2
		l6.4,3.7L12,11L4.9,6.9z M20,15.9c0,0.4-0.2,0.8-0.6,1.1L13,20.6v-2.7l7-4.1V15.9z M20,11.5l-7,4.1v-2.8l7-4.1V11.5z"/>
	<circle cx="5.3" cy="10.9" r="0.8"/>
	<circle cx="5.3" cy="15.9" r="0.8"/>
</g>
</svg>
