<?xml version="1.0" encoding="UTF-8"?>
<svg id="Layer_1" data-name="Layer 1" xmlns="http://www.w3.org/2000/svg" viewBox="0 0 32 32">
  <path d="m30,0H2C.9,0,0,.9,0,2v28C0,31.1.9,32,2,32h28c1.1,0,2-.9,2-2V2C32,.9,31.1,0,30,0Zm-.52,27H6.56v-9l.2-1,.9-2.69,6.29-3.43,7.35,3.39.91,2.73.35,1v7h4.92v-14c0-2.21-1.79-4-4-4-1.81,0-3.32,1.21-3.82,2.86l2.16,1.14,2.47,1.3,2.13,6.38c.17.52-.11,1.09-.63,1.27-.1.04-.21.05-.32.05-.42,0-.81-.27-.95-.68l-1.87-5.62-5.13-2.7h-.05s0-.02,0-.03l-3.47-1.83-7.7,4.53-1.88,5.64c-.17.52-.74.81-1.27.63-.52-.17-.81-.74-.63-1.27l2.12-6.36,9.3-5.47,3.91,2.06c.85-2.28,3.04-3.91,5.62-3.91,3.31,0,6,2.69,6,6v16Z"/>
  <polygon points="19.67 15.73 14.02 13.12 9.31 15.69 8.87 17 8.56 18 8.56 25 20.56 25 20.56 18 20.09 17 19.67 15.73"/>
</svg>