<!-- Generated by IcoMoon.io -->
<svg version="1.1" xmlns="http://www.w3.org/2000/svg" width="32" height="32" viewBox="0 0 32 32">
<title>cluster</title>
<path d="M13.621 21.898c0 2.628-2.13 4.759-4.759 4.759s-4.759-2.131-4.759-4.759c0-2.628 2.13-4.759 4.759-4.759s4.759 2.131 4.759 4.759z"></path>
<path d="M27.897 21.898c0 2.628-2.131 4.759-4.759 4.759s-4.759-2.131-4.759-4.759c0-2.628 2.131-4.759 4.759-4.759s4.759 2.131 4.759 4.759z"></path>
<path d="M20.495 9.903c0 2.519-2.042 4.56-4.56 4.56s-4.56-2.042-4.56-4.56c0-2.519 2.042-4.56 4.56-4.56s4.56 2.042 4.56 4.56z"></path>
</svg>
