<?xml version="1.0" encoding="utf-8"?>
<!-- Generator: Adobe Illustrator 26.5.0, SVG Export Plug-In . SVG Version: 6.00 Build 0)  -->
<svg version="1.1" id="Layer_1" xmlns="http://www.w3.org/2000/svg" xmlns:xlink="http://www.w3.org/1999/xlink" x="0px" y="0px"
	 viewBox="0 0 24 24" style="enable-background:new 0 0 24 24;" xml:space="preserve">
<path d="M12,1C5.9,1,1,5.9,1,12s4.9,11,11,11s11-4.9,11-11S18.1,1,12,1C12,1,12,1,12,1z M12,20.3c-4.6,0-8.2-3.7-8.2-8.3
	S7.4,3.8,12,3.8s8.2,3.7,8.2,8.2l0,0C20.2,16.6,16.6,20.3,12,20.3L12,20.3z M18.9,12l-5.4-1.2l0.8-1.2l-1.2,0.8L12,5.1l-1.2,5.4
	L9.6,9.6l0.8,1.2L5,12l5.4,1.2l-0.8,1.2l1.2-0.8l1.2,5.4l1.2-5.4l1.2,0.8l-0.8-1.2L18.9,12z M12,12.7c-0.4,0-0.7-0.3-0.7-0.7
	c0-0.4,0.3-0.7,0.7-0.7c0.4,0,0.7,0.3,0.7,0.7C12.7,12.4,12.4,12.7,12,12.7z"/>
</svg>
