<svg viewBox="0 0 24 24" fill="none" xmlns="http://www.w3.org/2000/svg">
<path d="M21.1387 11.5498C21.0871 10.502 20.8554 9.46932 20.4531 8.49805C19.9933 7.38811 19.3193 6.37981 18.4697 5.53027C17.6202 4.68074 16.6119 4.0067 15.502 3.54688C14.5307 3.14456 13.498 2.91294 12.4502 2.86133L12 2.84961C10.7984 2.84961 9.60818 3.08704 8.49805 3.54688C7.3881 4.0067 6.37981 4.68074 5.53027 5.53027C4.68074 6.37981 4.0067 7.3881 3.54688 8.49805C3.08704 9.60818 2.84961 10.7984 2.84961 12L2.86133 12.4502C2.91294 13.498 3.14456 14.5307 3.54688 15.502C4.0067 16.6119 4.68074 17.6202 5.53027 18.4697C6.37981 19.3193 7.38811 19.9933 8.49805 20.4531C9.60818 20.913 10.7984 21.1504 12 21.1504L12.4502 21.1387C13.498 21.0871 14.5307 20.8554 15.502 20.4531C16.6119 19.9933 17.6202 19.3193 18.4697 18.4697C19.3193 17.6202 19.9933 16.6119 20.4531 15.502C20.913 14.3918 21.1504 13.2016 21.1504 12L21.1387 11.5498ZM14.7324 9.17676C15.0644 8.84487 15.6026 8.84483 15.9346 9.17676C16.2664 9.50869 16.2664 10.047 15.9346 10.3789L11.4902 14.8232C11.1583 15.1552 10.62 15.1551 10.2881 14.8232L8.06543 12.6006C7.73392 12.2687 7.73392 11.7313 8.06543 11.3994C8.39738 11.0675 8.93563 11.0675 9.26758 11.3994L10.8887 13.0195L14.7324 9.17676ZM22.8369 12.5332C22.7758 13.7759 22.5016 15.0004 22.0244 16.1523C21.4792 17.4687 20.6794 18.6644 19.6719 19.6719C18.6644 20.6794 17.4687 21.4792 16.1523 22.0244C15.0004 22.5016 13.7759 22.7758 12.5332 22.8369L12 22.8496C10.5752 22.8496 9.16404 22.5697 7.84766 22.0244C6.53131 21.4792 5.33562 20.6794 4.32812 19.6719C3.32063 18.6644 2.52085 17.4687 1.97559 16.1523C1.49844 15.0004 1.22423 13.7759 1.16309 12.5332L1.15039 12C1.15039 10.5752 1.43032 9.16404 1.97559 7.84766C2.52085 6.53131 3.32063 5.33562 4.32812 4.32812C5.33562 3.32063 6.53131 2.52085 7.84766 1.97559C9.16404 1.43032 10.5752 1.15039 12 1.15039L12.5332 1.16309C13.7759 1.22423 15.0004 1.49844 16.1523 1.97559C17.4687 2.52085 18.6644 3.32063 19.6719 4.32812C20.6794 5.33562 21.4792 6.53131 22.0244 7.84766C22.5697 9.16404 22.8496 10.5752 22.8496 12L22.8369 12.5332Z" fill="black"/>
</svg>
