<!-- Generated by IcoMoon.io -->
<svg version="1.1" xmlns="http://www.w3.org/2000/svg" width="32" height="32" viewBox="0 0 32 32">
<title>copy</title>
<path d="M26.24 12.16v14.080h-14.080v-14.080h14.080zM27.52 9.6h-16.64c-0.707 0-1.28 0.573-1.28 1.28v0 16.64c0 0.707 0.573 1.28 1.28 1.28h16.64c0.707 0 1.28-0.573 1.28-1.28v0-16.64c0-0.707-0.573-1.28-1.28-1.28v0z"></path>
<path d="M9.441 3.2h2.398v1.92h-2.398v-1.92z"></path>
<path d="M3.2 13.761h1.92v2.398h-1.92v-2.398z"></path>
<path d="M9.441 20.48h2.398v1.92h-2.398v-1.92z"></path>
<path d="M20.48 18.080v2.4h-2.4v1.92h3.040c0.707 0 1.28-0.573 1.28-1.28v0-3.040z"></path>
<path d="M18.080 5.12h2.4v2.4h1.92v-3.040c0-0.707-0.573-1.28-1.28-1.28h-3.040z"></path>
<path d="M13.761 20.48h2.398v1.92h-2.398v-1.92z"></path>
<path d="M3.2 9.441h1.92v2.398h-1.92v-2.398z"></path>
<path d="M5.12 7.52v-2.4h2.4v-1.92h-3.040c-0.707 0-1.28 0.573-1.28 1.28v0 3.040z"></path>
<path d="M7.52 20.48h-2.4v-2.4h-1.92v3.040c0 0.707 0.573 1.28 1.28 1.28h3.040z"></path>
<path d="M20.48 13.761h1.92v2.398h-1.92v-2.398z"></path>
<path d="M20.48 9.441h1.92v2.398h-1.92v-2.398z"></path>
<path d="M13.761 3.2h2.398v1.92h-2.398v-1.92z"></path>
</svg>
