<!-- Generated by IcoMoon.io -->
<svg version="1.1" xmlns="http://www.w3.org/2000/svg" width="512" height="512" viewBox="0 0 512 512">
<title></title>
<g id="icomoon-ignore">
</g>
<path fill="#000" d="M419.84 194.56v225.28h-225.28v-225.28h225.28zM440.32 153.6h-266.24c-11.311 0-20.48 9.169-20.48 20.48v0 266.24c0 11.311 9.169 20.48 20.48 20.48h266.24c11.311 0 20.48-9.169 20.48-20.48v0-266.24c0-11.311-9.169-20.48-20.48-20.48v0z"></path>
<path fill="#000" d="M151.060 51.2h38.368v30.72h-38.368v-30.72z"></path>
<path fill="#000" d="M51.2 220.173h30.72v38.368h-30.72v-38.368z"></path>
<path fill="#000" d="M151.060 327.68h38.368v30.72h-38.368v-30.72z"></path>
<path fill="#000" d="M327.68 289.286v38.394h-38.394v30.72h48.633c11.311 0 20.48-9.169 20.48-20.48v0-48.634z"></path>
<path fill="#000" d="M289.286 81.92h38.394v38.394h30.72v-48.633c0-11.311-9.169-20.48-20.48-20.48h-48.634z"></path>
<path fill="#000" d="M220.173 327.68h38.368v30.72h-38.368v-30.72z"></path>
<path fill="#000" d="M51.2 151.059h30.72v38.368h-30.72v-38.368z"></path>
<path fill="#000" d="M81.92 120.314v-38.394h38.394v-30.72h-48.634c-11.311 0-20.48 9.169-20.48 20.48v0 48.633z"></path>
<path fill="#000" d="M120.314 327.68h-38.394v-38.394h-30.72v48.633c0 11.311 9.169 20.48 20.48 20.48h48.633z"></path>
<path fill="#000" d="M327.68 220.173h30.72v38.368h-30.72v-38.368z"></path>
<path fill="#000" d="M327.68 151.059h30.72v38.368h-30.72v-38.368z"></path>
<path fill="#000" d="M220.173 51.2h38.368v30.72h-38.368v-30.72z"></path>
</svg>
