<svg viewBox="0 0 24 24" fill="none" xmlns="http://www.w3.org/2000/svg">
<path d="M18.9549 9.99645C18.9548 9.79736 18.9151 9.60026 18.8389 9.41632C18.7626 9.23232 18.6514 9.06477 18.5106 8.92393C18.3698 8.7831 18.2022 8.6719 18.0182 8.59566C17.8341 8.51942 17.6364 8.47964 17.4371 8.47964H9.99645C9.59423 8.47975 9.20835 8.6395 8.92393 8.92393C8.6395 9.20835 8.47975 9.59423 8.47964 9.99645V17.4371C8.47964 17.6364 8.51942 17.8341 8.59566 18.0182C8.6719 18.2022 8.7831 18.3698 8.92393 18.5106C9.06477 18.6514 9.23232 18.7626 9.41632 18.8389C9.60026 18.9151 9.79736 18.9548 9.99645 18.9549H17.4371C17.6364 18.9549 17.8341 18.9151 18.0182 18.8389C18.2022 18.7626 18.3698 18.6514 18.5106 18.5106C18.6514 18.3698 18.7626 18.2022 18.8389 18.0182C18.9151 17.8341 18.9549 17.6364 18.9549 17.4371V9.99645ZM3.5 5.98935C3.50023 4.61844 4.61844 3.50023 5.98935 3.5H14.5761C15.0428 3.50006 15.4545 3.62368 15.8052 3.87826C16.1393 4.12074 16.3664 4.44494 16.5391 4.75552C16.7465 5.1285 16.6121 5.59893 16.2392 5.80635C15.8662 6.01374 15.3957 5.87935 15.1883 5.50638C15.0675 5.28912 14.9723 5.18384 14.8968 5.12906C14.8381 5.08651 14.7528 5.04516 14.5761 5.04511H5.98935C5.47198 5.04534 5.04534 5.47198 5.04511 5.98935V14.5742L5.0536 14.6988C5.07025 14.822 5.11133 14.9415 5.17434 15.0497C5.25842 15.1938 5.3793 15.3132 5.5243 15.3958C5.89487 15.6072 6.02399 16.0788 5.81295 16.4495C5.60159 16.8203 5.12911 16.9495 4.75835 16.7382C4.37707 16.5207 4.05961 16.2062 3.83864 15.8269C3.61778 15.4477 3.50112 15.0169 3.5 14.578V5.98935ZM20.5 17.4371C20.5 17.8393 20.4209 18.2381 20.267 18.6096C20.1131 18.9812 19.8873 19.3186 19.6029 19.6029C19.3186 19.8873 18.9812 20.1131 18.6096 20.267C18.2381 20.4209 17.8393 20.5 17.4371 20.5H9.99645C9.5944 20.4999 9.19633 20.4209 8.82488 20.267C8.45332 20.1131 8.11597 19.8873 7.83159 19.6029C7.54723 19.3186 7.32143 18.9812 7.16752 18.6096C7.01361 18.2381 6.93452 17.8393 6.93452 17.4371V9.99645C6.93464 9.18434 7.25734 8.40585 7.83159 7.83159C8.40585 7.25734 9.18434 6.93464 9.99645 6.93452H17.4371C17.8393 6.93452 18.2381 7.01361 18.6096 7.16752C18.9812 7.32143 19.3186 7.54723 19.6029 7.83159C19.8873 8.11597 20.1131 8.45332 20.267 8.82488C20.4209 9.19633 20.4999 9.5944 20.5 9.99645V17.4371Z" fill="#141419"/>
</svg>
