<?xml version="1.0" encoding="utf-8"?>
<!-- Generator: Adobe Illustrator 26.5.0, SVG Export Plug-In . SVG Version: 6.00 Build 0)  -->
<svg version="1.1" id="Layer_1" xmlns="http://www.w3.org/2000/svg" xmlns:xlink="http://www.w3.org/1999/xlink" x="0px" y="0px"
	 viewBox="0 0 24 24" style="enable-background:new 0 0 24 24;" xml:space="preserve">
<path d="M21.9,6.4L21.9,6.4l-14.5,0c-0.6,0-1.1,0.5-1.1,1.1V22c0,0.6,0.5,1.1,1.1,1.1h14.5c0.6,0,1.1-0.5,1.1-1.1V7.5
	C23,6.9,22.5,6.4,21.9,6.4z M20.8,20.9H8.5V8.6h12.2V20.9z M8.5,2.7H6.4V1h2.1V2.7z M2.7,12.3H1v-2.1v0h1.7V12.3z M16.6,17.7h-2.6
	V16H16v-2.1h1.7v2.6C17.7,17.2,17.2,17.7,16.6,17.7z M16,2.7h-2.1V1h2.6c0.6,0,1.1,0.5,1.1,1.1v2.6H16V2.7z M12.3,17.7h-2.1V16h2.1
	V17.7z M2.7,8.5H1V6.4h1.7V8.5z M2.1,1h2.6v1.7H2.7v2.1L1,4.8V2.1C1,1.5,1.5,1,2.1,1z M2.7,16h2.1l0,1.7H2.1c-0.6,0-1.1-0.5-1.1-1.1
	v-2.6h1.7V16z M17.7,12.3H16v-2.1v0h1.7V12.3z M12.3,2.7h-2.1V1h2.1V2.7z"/>
</svg>
