<?xml version="1.0" encoding="UTF-8" standalone="no"?>
<svg
   width="24"
   height="24"
   viewBox="0 0 24 24"
   fill="none"
   version="1.1"
   id="svg2"
   xmlns="http://www.w3.org/2000/svg"
   xmlns:svg="http://www.w3.org/2000/svg">
  <defs
     id="defs2" />
  <path
     id="path3"
     style="baseline-shift:baseline;display:inline;overflow:visible;vector-effect:none;fill:#000000;stroke-width:1;stroke-linecap:round;stroke-linejoin:round;enable-background:accumulate;stop-color:#000000"
     d="m 3.8990795,11.099605 a 0.89995371,0.89995371 0 0 0 -0.8990776,0.901713 c 0,0.715531 0.4226494,1.306404 0.9518087,1.732239 0.5291592,0.425837 1.2081301,0.75513 2.0354479,1.030907 1.6546261,0.551542 3.7838296,0.835799 6.0114245,0.835799 2.227593,0 4.359456,-0.284254 6.014061,-0.835799 0.827299,-0.275775 1.50364,-0.605078 2.03281,-1.030907 0.52917,-0.425827 0.954445,-1.016676 0.954445,-1.732239 a 0.89995371,0.89995371 0 0 0 -0.901713,-0.901713 0.89995371,0.89995371 0 0 0 -0.899077,0.901713 c 0,4.82e-4 -0.0022,0.109075 -0.279478,0.332211 -0.277281,0.223129 -0.784845,0.491868 -1.476491,0.722425 -1.383261,0.461095 -3.375852,0.743519 -5.444557,0.743519 -2.0687063,0 -4.0586304,-0.282421 -5.4419212,-0.743519 C 5.8651056,12.825399 5.3575305,12.55665 5.0802716,12.333529 4.8030114,12.110407 4.8007921,12.001832 4.8007921,12.001318 A 0.89995371,0.89995371 0 0 0 3.8990795,11.099605 Z m 0,-6.2988129 A 0.89995371,0.89995371 0 0 0 3.0000019,5.6998697 V 18.300131 c 0,0.715531 0.4226548,1.309051 0.9518087,1.734876 0.5291538,0.425824 1.2081355,0.75248 2.0354479,1.02827 1.6546463,0.551593 3.7838336,0.835799 6.0114245,0.835799 2.227589,0 4.359437,-0.284204 6.014061,-0.835799 0.827293,-0.275789 1.503645,-0.602454 2.03281,-1.02827 0.529164,-0.425817 0.954445,-1.019312 0.954445,-1.734876 V 5.6998697 A 0.89995371,0.89995371 0 0 0 20.098286,4.8007921 0.89995371,0.89995371 0 0 0 19.199209,5.6998697 V 18.300131 c 0,4.42e-4 -0.0022,0.109075 -0.279478,0.332211 -0.277286,0.22313 -0.784839,0.491854 -1.476491,0.722425 -1.38324,0.461125 -3.375848,0.746154 -5.444557,0.746154 -2.0687104,0 -4.0586493,-0.285026 -5.4419212,-0.746154 C 5.8651002,19.124197 5.3575359,18.855464 5.0802716,18.632342 4.803006,18.409219 4.8007921,18.300605 4.8007921,18.300131 V 5.6998697 A 0.89995371,0.89995371 0 0 0 3.8990795,4.8007921 Z M 11.998683,2.1009243 c -2.317707,0 -4.4154031,0.3037918 -6.0114245,0.8357994 C 5.1892464,3.2027269 4.5132251,3.5222346 3.9781761,3.9439 3.4431271,4.3655667 3.0000019,4.9623171 3.0000019,5.6998697 c 0,0.7375512 0.4431252,1.3369381 0.9781742,1.7586048 0.5350504,0.4216653 1.2110703,0.7385367 2.0090824,1.0045411 1.5960214,0.5320063 3.6937175,0.8384345 6.0114245,0.8384345 2.317705,0 4.418037,-0.3064282 6.014061,-0.8384345 0.798012,-0.2660044 1.471394,-0.5828758 2.006444,-1.0045411 0.535051,-0.4216654 0.980811,-1.0210522 0.980811,-1.7586048 0,-0.7375539 -0.44576,-1.334303 -0.980811,-1.7559697 C 19.484138,3.5222346 18.810756,3.2027269 18.012744,2.9367237 16.41672,2.4047161 14.316388,2.1009243 11.998683,2.1009243 Z m 0,1.8007902 c 2.155582,0 4.109095,0.2983651 5.444557,0.7435193 0.667732,0.2225758 1.17863,0.4875287 1.463307,0.7118782 0.284677,0.2243509 0.292662,0.334762 0.292662,0.3427577 0,0.00796 -0.008,0.1210486 -0.292662,0.3453927 C 18.62187,6.269612 18.110972,6.5345649 17.44324,6.757142 16.107778,7.2022948 14.154265,7.5006599 11.998683,7.5006599 9.843099,7.5006599 7.8922204,7.2022948 6.5567618,6.757142 5.8890319,6.5345649 5.3781291,6.269612 5.0934537,6.0452624 4.8087783,5.8209129 4.8007921,5.7078653 4.8007921,5.6998697 c 0,-0.00796 0.00796,-0.1184027 0.2926616,-0.3427577 C 5.3781291,5.1327625 5.8890319,4.8678096 6.5567618,4.6452338 7.8922204,4.2000796 9.843099,3.9017145 11.998683,3.9017145 Z" />
</svg>
