<?xml version="1.0" encoding="UTF-8" standalone="no"?>
<svg
   width="24"
   height="24"
   viewBox="0 0 24 24"
   fill="none"
   version="1.1"
   id="svg2"
   xmlns="http://www.w3.org/2000/svg"
   xmlns:svg="http://www.w3.org/2000/svg">
  <defs
     id="defs2" />
  <path
     id="path4"
     style="baseline-shift:baseline;display:inline;overflow:visible;vector-effect:none;fill:#000000;stroke-width:1;stroke-linecap:round;stroke-linejoin:round;enable-background:accumulate;stop-color:#000000"
     d="m 10.182182,14.727394 a 0.90912895,0.90912895 0 0 0 -0.908244,0.908244 0.90912895,0.90912895 0 0 0 0.908244,0.910906 h 0.0081 a 0.90912895,0.90912895 0 0 0 0.910847,-0.910906 0.90912895,0.90912895 0 0 0 -0.910907,-0.908244 z m -3.6356376,0 a 0.90912895,0.90912895 0 0 0 -0.9109065,0.908244 0.90912895,0.90912895 0 0 0 0.9109065,0.910906 h 0.00805 A 0.90912895,0.90912895 0 0 0 7.4627782,15.635638 0.90912895,0.90912895 0 0 0 6.5545357,14.727394 Z M 7.6731925,3.81782 C 7.1658441,3.8180901 6.6687548,3.9606166 6.2375825,4.2279945 5.8063809,4.4953792 5.4565573,4.8763556 5.2307904,5.3306712 L 2.0958861,11.59249 A 0.90921986,0.90921986 0 0 0 2.0000005,12 v 5.454788 c 0,0.722985 0.2879105,1.417119 0.7990417,1.928353 0.5112118,0.511109 1.2053116,0.79904 1.9283518,0.79904 h 14.545212 c 0.723025,0 1.417116,-0.287804 1.928352,-0.79904 C 21.712264,18.871835 22,18.177642 22,17.454788 V 12 a 0.90921986,0.90921986 0 0 0 -0.09588,-0.40751 L 18.769214,5.3280077 C 18.543452,4.8741825 18.195627,4.4949979 17.765082,4.2279945 17.333908,3.9606039 16.836847,3.8180901 16.329472,3.81782 a 0.90921986,0.90921986 0 0 0 -0.0027,0 z m 0,1.8191503 h 8.6536145 c 0.169292,9e-5 0.335663,0.046683 0.479425,0.1358365 0.14382,0.08919 0.260498,0.2163115 0.335598,0.3675589 a 0.90921986,0.90921986 0 0 0 0,0.00266 l 3.041682,6.0727123 v 5.239051 c 0,0.241551 -0.09553,0.47108 -0.266346,0.641896 -0.170612,0.170612 -0.40318,0.266347 -0.64456,0.266347 H 4.727394 c -0.2414207,0 -0.4711245,-0.09561 -0.6418961,-0.266347 C 3.9146444,17.925796 3.8191501,17.696208 3.8191501,17.454788 V 12.215741 L 6.858171,6.1430296 a 0.90921986,0.90921986 0 0 0 0.00273,-0.00266 C 6.9362153,5.9888185 7.0500486,5.8619692 7.1938367,5.7728072 7.3376249,5.6836419 7.5040532,5.6370607 7.6732607,5.6369707 Z M 2.9082444,11.091758 A 0.90912895,0.90912895 0 0 0 2.0000005,12 0.90912895,0.90912895 0 0 0 2.9082444,12.908244 H 21.091756 A 0.90912895,0.90912895 0 0 0 22,12 0.90912895,0.90912895 0 0 0 21.091756,11.091758 Z" />
</svg>
