<?xml version="1.0" encoding="utf-8"?>
<!-- Generator: Adobe Illustrator 26.0.0, SVG Export Plug-In . SVG Version: 6.00 Build 0)  -->
<svg version="1.1" id="Layer_1" xmlns="http://www.w3.org/2000/svg" xmlns:xlink="http://www.w3.org/1999/xlink" x="0px" y="0px"
	 viewBox="0 0 24 24" style="enable-background:new 0 0 24 24;" xml:space="preserve">
<path d="M11,4.1c-0.1,0-0.2,0.1-0.2,0.2v1.3c0,0.1,0.1,0.2,0.2,0.2h1.3c0.1,0,0.2-0.1,0.2-0.2V4.3c0-0.1-0.1-0.2-0.2-0.2H11z M6,6.6
	c-0.1,0-0.2,0.1-0.2,0.2V8c0,0.1,0.1,0.2,0.2,0.2h1.3c0.1,0,0.2-0.1,0.2-0.2V6.8c0-0.1-0.1-0.2-0.2-0.2H6z M8.5,6.6
	c-0.1,0-0.2,0.1-0.2,0.2V8c0,0.1,0.1,0.2,0.2,0.2h1.3c0.1,0,0.2-0.1,0.2-0.2V6.8c0-0.1-0.1-0.2-0.2-0.2H8.5z M11,6.6
	c-0.1,0-0.2,0.1-0.2,0.2V8c0,0.1,0.1,0.2,0.2,0.2h1.3c0.1,0,0.2-0.1,0.2-0.2V6.8c0-0.1-0.1-0.2-0.2-0.2H11z M17.3,7.9
	c-0.2,0-0.4,0.1-0.5,0.3l-0.2,0.3c0,0,0,0,0,0c-0.3,0.4-0.4,0.8-0.6,1.3c0,0,0,0,0,0c-0.1,0.6-0.1,1.2,0.1,1.7c0,0-0.1,0-0.1,0
	c-0.2,0-0.4,0-0.5,0H3c-0.6,0-1,0.5-1,1v0.4c0,0.9,0.2,2.1,0.6,3.2c0,0,0,0,0,0C3,17.4,3.7,18.4,4.7,19c1.1,0.7,2.7,1,4.4,1
	c0.8,0,1.6-0.1,2.4-0.2c1.1-0.2,2.2-0.6,3.2-1.1c0,0,0,0,0,0c0.8-0.5,1.6-1.1,2.2-1.8c0.7-0.7,1.2-1.6,1.6-2.3
	c0.2-0.3,0.3-0.7,0.4-0.9c0,0,0,0,0,0c1.1-0.1,1.9-0.6,2.2-1c0.3-0.3,0.5-0.6,0.7-1c0,0,0,0,0,0l0.1-0.2c0.1-0.3,0-0.5-0.2-0.7
	l-0.2-0.1c-0.1-0.1-0.8-0.5-1.9-0.5c0,0,0,0,0,0c-0.1,0-0.2,0-0.4,0c-0.2-0.5-0.4-0.9-0.7-1.2c-0.2-0.2-0.4-0.3-0.5-0.4
	c-0.1,0-0.1-0.1-0.2-0.1c0,0-0.1-0.1-0.1,0c0,0,0,0,0,0L17.6,8C17.5,8,17.4,7.9,17.3,7.9z M3.5,9.1c-0.1,0-0.2,0.1-0.2,0.2v1.3
	c0,0.1,0.1,0.2,0.2,0.2h1.3c0.1,0,0.2-0.1,0.2-0.2V9.3c0-0.1-0.1-0.2-0.2-0.2H3.5z M6,9.1c-0.1,0-0.2,0.1-0.2,0.2v1.3
	c0,0.1,0.1,0.2,0.2,0.2h1.3c0.1,0,0.2-0.1,0.2-0.2V9.3c0-0.1-0.1-0.2-0.2-0.2H6z M8.5,9.1c-0.1,0-0.2,0.1-0.2,0.2v1.3
	c0,0.1,0.1,0.2,0.2,0.2h1.3c0.1,0,0.2-0.1,0.2-0.2V9.3c0-0.1-0.1-0.2-0.2-0.2H8.5z M11,9.1c-0.1,0-0.2,0.1-0.2,0.2v1.3
	c0,0.1,0.1,0.2,0.2,0.2h1.3c0.1,0,0.2-0.1,0.2-0.2V9.3c0-0.1-0.1-0.2-0.2-0.2H11z M13.5,9.1c-0.1,0-0.2,0.1-0.2,0.2v1.3
	c0,0.1,0.1,0.2,0.2,0.2h1.3c0.1,0,0.2-0.1,0.2-0.2V9.3c0-0.1-0.1-0.2-0.2-0.2H13.5z M17.2,9.3C17.3,9.3,17.3,9.3,17.2,9.3
	C17.3,9.3,17.3,9.3,17.2,9.3L17.2,9.3z M17.5,9.5c0.1,0.1,0.1,0.1,0.2,0.2c0.2,0.2,0.5,0.6,0.6,1.1c0.1,0.3,0.4,0.6,0.7,0.5
	c0,0,0,0,0,0c0.2,0,0.5-0.1,0.7-0.1h0c0.4,0,0.7,0.1,0.9,0.1c-0.1,0.1-0.1,0.3-0.2,0.4c0,0,0,0,0,0c-0.3,0.3-0.8,0.7-1.8,0.7
	c-0.1,0-0.2,0-0.3,0.1c0,0-0.2,0.3-0.2,0.3c0,0,0,0,0,0c0,0,0,0,0,0c0,0,0,0,0,0c0,0,0,0,0,0c0,0,0,0,0,0.1c0,0.1-0.1,0.1-0.1,0.2
	c-0.1,0.2-0.2,0.5-0.4,0.8c-0.4,0.6-0.8,1.4-1.4,2c-0.6,0.6-1.2,1.1-1.9,1.5l0,0c-0.9,0.5-1.8,0.8-2.8,1c0,0,0,0,0,0
	c-0.7,0.1-1.4,0.2-2.2,0.2c0,0,0,0,0,0c-1.6,0-3-0.3-3.8-0.8c0,0,0,0,0,0c-0.7-0.4-1.2-1.1-1.6-2.1c-0.3-0.9-0.5-2-0.5-2.7v-0.2
	h12.3c0,0,0,0,0,0c0.1,0,0.3,0,0.6-0.1c0.3,0,0.7-0.1,1-0.3c0.3-0.2,0.4-0.5,0.2-0.9c0,0,0,0,0,0c-0.3-0.5-0.4-0.9-0.2-1.5
	C17.3,9.9,17.4,9.7,17.5,9.5z M20.8,11.5C20.8,11.5,20.8,11.5,20.8,11.5C20.8,11.5,20.8,11.5,20.8,11.5L20.8,11.5z"/>
</svg>
