<!-- Generated by IcoMoon.io -->
<svg version="1.1" xmlns="http://www.w3.org/2000/svg" width="32" height="32" viewBox="0 0 32 32">
<title>docker</title>
<path d="M14.191 8.433h3.305v3.005h-3.305v-3.005z"></path>
<path d="M14.191 12.043h3.305v2.97h-3.305v-2.97z"></path>
<path d="M10.287 8.433h3.305v3.005h-3.305v-3.005z"></path>
<path d="M18.101 12.038h3.305v2.97h-3.305v-2.97z"></path>
<path d="M14.191 4.798h3.305v3.035h-3.305v-3.035z"></path>
<path d="M6.382 8.433h3.305v3.005h-3.305v-3.005z"></path>
<path d="M10.287 12.038h3.305v2.97h-3.305v-2.97z"></path>
<path d="M31.335 13.433c-0.72-0.485-2.38-0.66-3.655-0.42-0.165-1.2-0.835-2.245-2.055-3.185l-0.7-0.465-0.465 0.7c-0.92 1.39-1.17 3.68-0.185 5.19-0.435 0.235-1.29 0.555-2.42 0.535h-21.733c-0.435 2.54 0.29 5.84 2.2 8.104 1.855 2.195 4.635 3.31 8.269 3.31 7.87 0 13.694-3.625 16.419-10.209 1.070 0.020 3.38 0.005 4.565-2.26 0.075-0.125 0.33-0.66 0.425-0.855l-0.665-0.445z"></path>
<path d="M5.787 12.038h-3.305v2.97h3.305z"></path>
<path d="M6.382 12.038h3.305v2.97h-3.305v-2.97z"></path>
</svg>
