<?xml version="1.0" encoding="utf-8"?>
<!-- Generator: Adobe Illustrator 26.5.0, SVG Export Plug-In . SVG Version: 6.00 Build 0)  -->
<svg version="1.1" id="Layer_1" xmlns="http://www.w3.org/2000/svg" xmlns:xlink="http://www.w3.org/1999/xlink" x="0px" y="0px"
	 viewBox="0 0 24 24" style="enable-background:new 0 0 24 24;" xml:space="preserve">
<path d="M10.8,7H13v2.1h-2.3V7z"/>
<path d="M10.8,9.5H13v2h-2.3V9.5z"/>
<path d="M8.1,7h2.3v2.1H8.1V7z"/>
<path d="M13.4,9.5h2.3v2h-2.3V9.5z"/>
<path d="M10.8,4.5H13v2.1h-2.3C10.8,6.6,10.8,4.5,10.8,4.5z"/>
<path d="M5.4,7h2.3v2.1H5.4V7z"/>
<path d="M8.1,9.5h2.3v2H8.1V9.5z"/>
<path d="M22.5,10.5C22,10.1,20.9,10,20,10.2c-0.1-0.8-0.6-1.5-1.4-2.2l-0.5-0.3l-0.3,0.5c-0.6,1-0.8,2.5-0.1,3.6
	c-0.3,0.2-0.9,0.4-1.7,0.4H1.1c-0.3,1.7,0.2,4,1.5,5.6c1.3,1.5,3.2,2.3,5.7,2.3c5.4,0,9.4-2.5,11.3-7c0.7,0,2.3,0,3.1-1.6
	c0.1-0.1,0.2-0.5,0.3-0.6C23,10.8,22.5,10.5,22.5,10.5z"/>
<path d="M5,9.5H2.7v2H5V9.5z"/>
<path d="M5.4,9.5h2.3v2H5.4V9.5z"/>
</svg>
