<?xml version="1.0" encoding="utf-8"?>
<!-- Generator: Adobe Illustrator 26.5.0, SVG Export Plug-In . SVG Version: 6.00 Build 0)  -->
<svg version="1.1" id="Layer_1" xmlns="http://www.w3.org/2000/svg" xmlns:xlink="http://www.w3.org/1999/xlink" x="0px"
   y="0px" viewBox="0 0 24 24" style="enable-background:new 0 0 24 24;" xml:space="preserve">
   <path
      d="m 6.3535851,1.0559087 c -0.8563581,0 -1.6797912,0.3399277 -2.2853202,0.9454568 -0.6055676,0.6055466 -0.945457,1.4261811 -0.945457,2.2825238 V 19.881129 c 0,0.856374 0.3398367,1.676967 0.945457,2.282523 0.6055183,0.605478 1.4289457,0.945458 2.2853202,0.945458 H 17.492074 c 0.856327,0 1.679782,-0.33992 2.28532,-0.945458 0.605538,-0.605536 0.945457,-1.426116 0.945457,-2.282523 V 4.2838893 c 0,-0.8563752 -0.339972,-1.6769973 -0.945457,-2.2825238 -0.605549,-0.60559 -1.429009,-0.9454568 -2.28532,-0.9454568 z m 0,2.002802 H 17.492074 c 0.32523,0 0.637154,0.1308447 0.867134,0.3608401 0.230044,0.2300598 0.358044,0.5389992 0.358043,0.8643385 V 19.881129 c 0,0.325422 -0.12805,0.634348 -0.358043,0.864338 -0.229991,0.229992 -0.541919,0.36084 -0.867134,0.36084 H 6.3535851 c -0.3253387,0 -0.6370673,-0.130786 -0.8671351,-0.36084 C 5.2564554,20.515497 5.1284073,20.206584 5.1284072,19.881129 V 4.2838893 c 0,-0.3253722 0.127996,-0.6342987 0.3580428,-0.8643385 C 5.716507,3.1894938 6.02823,3.0587107 6.3535851,3.0587107 Z M 8.580164,5.509066 a 1.0028,1.0028 0 1 0 0,2.0055999 h 6.685331 a 1.0028,1.0028 0 1 0 0,-2.0055999 z m 0,4.4559553 a 1.0027999,1.0027999 0 1 0 0,2.0055987 h 6.685331 a 1.0027999,1.0027999 0 1 0 0,-2.0055987 z m 0,4.4559547 a 1.0028,1.0028 0 1 0 0,2.0056 h 4.455955 a 1.0028,1.0028 0 1 0 0,-2.0056 z" />
</svg>