<?xml version="1.0" encoding="utf-8"?>
<!-- Generator: Adobe Illustrator 26.5.0, SVG Export Plug-In . SVG Version: 6.00 Build 0)  -->
<svg version="1.1" id="Layer_1" xmlns="http://www.w3.org/2000/svg" xmlns:xlink="http://www.w3.org/1999/xlink" x="0px" y="0px"
	 viewBox="0 0 24 24" style="enable-background:new 0 0 24 24;" xml:space="preserve">
<g>
	<path d="M11.7,18.7C11.7,18.7,11.7,18.7,11.7,18.7c0.3,0.2,0.5,0.3,0.8,0.3c0,0,0,0,0,0s0,0,0,0c0.3,0,0.5-0.1,0.7-0.3
		c0,0,0.1,0,0.1,0l6.2-6.2c0.2-0.2,0.3-0.5,0.3-0.8c0-0.6-0.5-1.1-1.1-1.1c-0.3,0-0.6,0.1-0.8,0.3l-4.3,4.3v-13
		c0-0.6-0.5-1.1-1.1-1.1c-0.6,0-1.1,0.5-1.1,1.1v13L7,11c-0.2-0.2-0.5-0.3-0.8-0.3c-0.6,0-1.1,0.5-1.1,1.1c0,0.3,0.1,0.6,0.3,0.8
		L11.7,18.7z"/>
	<path d="M20.9,18.7c-0.6,0-1.1,0.5-1.1,1.1V21H5v-1.2c0-0.6-0.5-1.1-1.1-1.1c-0.6,0-1.1,0.5-1.1,1.1v2.3c0,0.6,0.5,1.1,1.1,1.1h17
		c0.6,0,1.1-0.5,1.1-1.1v-2.3C22,19.2,21.5,18.7,20.9,18.7z"/>
</g>
</svg>
