<svg viewBox="0 0 24 24" fill="none" xmlns="http://www.w3.org/2000/svg">
<path d="M21 11.8496C21 14.2763 20.0353 16.6034 18.3193 18.3193C16.6034 20.0353 14.2763 21 11.8496 21C9.42288 21 7.09584 20.0353 5.37988 18.3193C3.66393 16.6034 2.69922 14.2763 2.69922 11.8496C2.69922 10.648 2.93665 9.45779 3.39648 8.34766C3.85631 7.23771 4.53035 6.22942 5.37988 5.37988C6.22942 4.53035 7.23771 3.85631 8.34766 3.39648C9.45779 2.93665 10.648 2.69922 11.8496 2.69922L12.2998 2.71094C13.3476 2.76255 14.3803 2.99417 15.3516 3.39648C16.4615 3.85631 17.4698 4.53035 18.3193 5.37988C19.1689 6.22942 19.8429 7.23771 20.3027 8.34766C20.7626 9.45779 21 10.648 21 11.8496ZM11 7.40527V14.2432L8.00586 11.249L6.80371 12.4502L11.249 16.8955L11.3135 16.9531C11.6472 17.2253 12.139 17.2063 12.4502 16.8955L16.8955 12.4502C17.2269 12.1184 17.2269 11.5809 16.8955 11.249C16.5636 10.9171 16.0253 10.9171 15.6934 11.249L12.6992 14.2432V7.40527C12.6992 6.93583 12.3191 6.55469 11.8496 6.55469C11.3802 6.55469 11 6.93583 11 7.40527ZM8.00586 11.249C7.67391 10.9171 7.13566 10.9171 6.80371 11.249C6.47234 11.5809 6.47234 12.1184 6.80371 12.4502L8.00586 11.249ZM22.6992 11.8496C22.6992 10.4248 22.4193 9.01365 21.874 7.69727C21.3288 6.38091 20.529 5.18523 19.5215 4.17773C18.514 3.17024 17.3183 2.37046 16.002 1.8252C14.85 1.34805 13.6255 1.07384 12.3828 1.0127L11.8496 1C10.4248 1 9.01365 1.27993 7.69727 1.8252C6.38092 2.37046 5.18523 3.17024 4.17773 4.17773C3.17024 5.18523 2.37046 6.38091 1.8252 7.69727C1.27993 9.01365 1 10.4248 1 11.8496C1 14.7272 2.14296 17.4867 4.17773 19.5215C6.2125 21.5563 8.97201 22.6992 11.8496 22.6992L12.3877 22.6865C15.0694 22.5535 17.6139 21.4291 19.5215 19.5215C21.5563 17.4867 22.6992 14.7272 22.6992 11.8496Z" fill="black"/>
</svg>
