<!-- Generated by IcoMoon.io -->
<svg version="1.1" xmlns="http://www.w3.org/2000/svg" width="32" height="32" viewBox="0 0 32 32">
<title>edit</title>
<path d="M28.116 21.806l-18.121-18.121c-0.177-0.176-0.422-0.285-0.692-0.285s-0.514 0.109-0.692 0.285l-5.118 5.118c-0.176 0.177-0.285 0.422-0.285 0.692s0.109 0.514 0.285 0.692l18.121 18.121c0.38 0.38 1.132 0.692 1.67 0.692h4.545c0.54-0.002 0.977-0.439 0.978-0.978v-4.545c0-0.538-0.311-1.289-0.692-1.67zM13.242 9.699l-3.735 3.735c-0.118 0.118-0.281 0.191-0.461 0.191-0.36 0-0.652-0.292-0.652-0.652 0-0.18 0.073-0.343 0.191-0.461l3.735-3.735c0.118-0.118 0.281-0.191 0.461-0.191 0.36 0 0.652 0.292 0.652 0.652 0 0.18-0.073 0.343-0.191 0.461v0z"></path>
</svg>
