<svg viewBox="0 0 24 24" fill="none" xmlns="http://www.w3.org/2000/svg">
<path d="M19.3639 7.36371C19.3639 7.09743 19.3115 6.83335 19.2096 6.58734C19.1077 6.34153 18.9582 6.11831 18.7701 5.93011C18.5818 5.74176 18.358 5.59162 18.1119 5.48969C17.8658 5.38775 17.6019 5.33539 17.3356 5.33539C17.0692 5.33539 16.8053 5.38775 16.5592 5.48969C16.3131 5.59162 16.0894 5.74176 15.901 5.93011L15.4664 6.36371L18.3356 9.23285L18.7701 8.79828C18.9584 8.60995 19.1077 8.38611 19.2096 8.14008C19.3115 7.89402 19.3639 7.63003 19.3639 7.36371ZM5.63538 16.1957V19.0639H8.50452L17.2037 10.3637L14.3356 7.49554L5.63538 16.1957ZM20.9645 7.36371C20.9645 7.84011 20.8704 8.31223 20.6881 8.75238C20.5058 9.1926 20.2379 9.59318 19.901 9.93011L9.401 20.4301C9.251 20.5799 9.04759 20.6645 8.83557 20.6645H4.83557C4.39374 20.6645 4.03577 20.3055 4.03577 19.8637V15.8637C4.03585 15.6516 4.12018 15.4482 4.27014 15.2983L14.7701 4.79828C15.107 4.46148 15.5068 4.19446 15.9469 4.01215C16.3871 3.8298 16.8591 3.73578 17.3356 3.73578C17.8121 3.73578 18.284 3.8298 18.7242 4.01215C19.1643 4.19446 19.5642 4.46148 19.901 4.79828C20.2379 5.13514 20.5058 5.53492 20.6881 5.97504C20.8704 6.41517 20.9644 6.88732 20.9645 7.36371Z" fill="black"/>
</svg>
