<?xml version="1.0" encoding="utf-8"?>
<!-- Generator: Adobe Illustrator 26.5.0, SVG Export Plug-In . SVG Version: 6.00 Build 0)  -->
<svg version="1.1" id="Layer_1" xmlns="http://www.w3.org/2000/svg" xmlns:xlink="http://www.w3.org/1999/xlink" x="0px" y="0px"
	 viewBox="0 0 24 24" style="enable-background:new 0 0 24 24;" xml:space="preserve">
<path d="M22.4,17.2L6.8,1.6C6.7,1.5,6.5,1.4,6.2,1.4C6,1.4,5.8,1.5,5.6,1.6L1.2,6C1.1,6.2,1,6.4,1,6.6c0,0.2,0.1,0.4,0.2,0.6
	l15.6,15.6c0.3,0.3,1,0.6,1.4,0.6h3.9c0.5,0,0.8-0.4,0.8-0.8v-3.9C23,18.2,22.7,17.5,22.4,17.2L22.4,17.2z M9.6,6.8L6.4,10
	c-0.1,0.1-0.2,0.2-0.4,0.2c-0.3,0-0.6-0.3-0.6-0.6c0-0.2,0.1-0.3,0.2-0.4L8.8,6c0.1-0.1,0.2-0.2,0.4-0.2c0.3,0,0.6,0.3,0.6,0.6
	C9.8,6.6,9.7,6.7,9.6,6.8L9.6,6.8z"/>
</svg>
