<?xml version="1.0" encoding="UTF-8"?>
<svg id="Layer_1" data-name="Layer 1" xmlns="http://www.w3.org/2000/svg" viewBox="0 0 32 32">
  <path d="m30,0H2C.9,0,0,.9,0,2v28c0,1.1.9,2,2,2h28c1.1,0,2-.9,2-2V2c0-1.1-.9-2-2-2Zm-9.18,28.4c-1.72,1.88-5.22,1.97-7.57,1-1.65-.79-2.82-2.32-3.14-4.12-.31-1.84.85-3.64,1.74-5.32.77-1.45,1.19-1.99,2.7-4.52.48-.83.83-1.72,1.05-2.65,0,0,1.61,3.24,2.52,4.8.92,1.58,2.05,3.31,2.97,4.61,1.2,1.69,1.12,4.68-.28,6.21Zm7.09-10.32c-.22,3.63-.99,6.78-2.67,10.66.7-10.24.4-12.85-.86-14.84-1.1.43-2.21,1.08-3.31,1.51-.31-2.78-2.49-5.62-2.73-8.61-.46-.51-4.87,5.74-4.87,5.74,0,0-1.87-1.72-2.22-1.54-.23,1.84-1.73,7.01-1.73,7.01,0,0-2.46-1.14-3.16-1.33.32,3.47-.15,7.68,2.23,11.7-2.62-.98-5.62-7.79-4.14-15.22.7.6,3.39,1.72,3.39,1.72,0,0,1.13-5.52,1.03-7.99,1.53.8,2.37,1.54,3.88,2.21,1.87-2.77,4.45-4.95,6.98-7.09h0c.52,3.28,1.92,6.01,3.28,9.5,1.03-.4,2.63-.97,3.66-1.38.55,2.54,1.37,5.44,1.22,7.94Z"/>
  <path d="m13.04,23.81l-1.39.13c-.01,1.23.51,2.41,1.42,3.24.93.85,2.75,1.14,3.58,1.23l.05-1.38c-.95-.15-1.83-.6-2.51-1.28-.55-.53-.95-1.2-1.15-1.94Z"/>
</svg>