<?xml version="1.0" encoding="UTF-8"?>
<svg id="Layer_1" data-name="Layer 1" xmlns="http://www.w3.org/2000/svg" viewBox="0 0 32 32">
  <rect x="6" y="7" width="7" height="3"/>
  <path d="m30,0H2C.9,0,0,.9,0,2v28c0,1.1.9,2,2,2h28c1.1,0,2-.9,2-2V2c0-1.1-.9-2-2-2Zm0,23.97c-.17,0-.33.03-.5.03-1.61,0-3.13-.37-4.5-1.02h0c-1.37.65-2.89,1.02-4.5,1.02s-3.13-.37-4.5-1.02h0c-1.37.65-2.89,1.02-4.5,1.02s-3.13-.37-4.5-1.02h0c-1.37.65-2.89,1.02-4.5,1.02-.17,0-.33-.02-.5-.03v-2.01c.17,0,.33.04.5.04,1.65,0,3.19-.48,4.5-1.3h0c1.31.82,2.85,1.3,4.5,1.3s3.19-.48,4.5-1.3h0c1.31.82,2.85,1.3,4.5,1.3s3.19-.48,4.5-1.3h0c1.31.82,2.85,1.3,4.5,1.3.17,0,.33-.03.5-.04v2.01Zm0-11.97v1.61h0c-.42.1-.83.23-1.23.39-1.04.41-2.03,1.03-2.87,1.87-1.17,1.17-1.92,2.6-2.26,4.1l-1.61-1.61c.51-1.43,1.32-2.77,2.46-3.91,1.03-1.03,2.24-1.78,3.51-2.29.13-.05.26-.12.39-.16H4v8h-2v-10h2v-3h-2v-2h16v2h-3v3h15v2Z"/>
</svg>