<?xml version="1.0" encoding="utf-8"?>
<!-- Generator: Adobe Illustrator 26.5.0, SVG Export Plug-In . SVG Version: 6.00 Build 0)  -->
<svg version="1.1" id="Layer_1" xmlns="http://www.w3.org/2000/svg" xmlns:xlink="http://www.w3.org/1999/xlink" x="0px" y="0px"
	 viewBox="0 0 24 24" style="enable-background:new 0 0 24 24;" xml:space="preserve">
<path d="M4,15.9v-4.1h13.8c-0.5,0.9-0.7,1.8-0.7,2.8v2c0.4-0.1,0.8-0.3,1.2-0.5l1-0.5l0.8,0.4v-1.4c0-1.5,1.2-2.8,2.8-2.8v-3H12.2
	V6.9h1.5v-3H1v3h1.5v1.8H1v8.1c1,0,2.1-0.4,2.7-0.7L4,15.9z M5.6,6.9h3.6v1.8H5.6V6.9z M20,16.7l-0.7-0.3l-0.7,0.3
	c-0.6,0.3-1.8,0.8-3,0.8c-1.2,0-2.4-0.5-3-0.8L12,16.4l-0.7,0.3c-0.6,0.3-1.8,0.8-3,0.8c-1.2,0-2.4-0.5-3-0.8l-0.7-0.3L4,16.7
	c-0.6,0.3-1.8,0.8-3,0.8v3c1.3,0,2.5-0.3,3.7-0.8c1.2,0.5,2.4,0.8,3.7,0.8c1.3,0,2.5-0.3,3.7-0.8c1.2,0.5,2.4,0.8,3.7,0.8
	c1.3,0,2.5-0.3,3.7-0.8c1.2,0.5,2.4,0.8,3.7,0.8v-3C21.8,17.5,20.6,17,20,16.7z"/>
</svg>
