<?xml version="1.0" encoding="utf-8"?>
<!-- Generator: Adobe Illustrator 26.0.0, SVG Export Plug-In . SVG Version: 6.00 Build 0)  -->
<svg version="1.1" id="Layer_1" xmlns="http://www.w3.org/2000/svg" xmlns:xlink="http://www.w3.org/1999/xlink" x="0px" y="0px"
	 viewBox="0 0 24 24" style="enable-background:new 0 0 24 24;" xml:space="preserve">
<g>
	<path d="M4,15.5V11h14.8c-0.9,0.8-1.4,3-1.4,4.3v0v0.2c0.1,0,0.2-0.1,0.2-0.1l1-0.5l0.7,0.4c0-1.4,1.1-3.5,2.5-3.5V9H11.6V7h2V5h-2
		h-2H6H4H2v2h2v2H2v7h0C2.7,16,3.5,15.7,4,15.5z M6,7h3.6v2H6V7z"/>
	<path d="M19.3,16.3L18.7,16l-0.6,0.3c-0.6,0.3-1.6,0.7-2.7,0.7c-1.1,0-2.2-0.5-2.7-0.7L12,16l-0.6,0.3C10.8,16.6,9.8,17,8.7,17
		c-1.1,0-2.2-0.5-2.7-0.7L5.3,16l-0.6,0.3C4.2,16.6,3.1,17,2,17v2c1.1,0,2.3-0.3,3.3-0.7C6.4,18.7,7.5,19,8.7,19
		c1.1,0,2.3-0.3,3.3-0.7c1.1,0.5,2.2,0.7,3.3,0.7c1.1,0,2.3-0.3,3.3-0.7c1.1,0.5,2.2,0.7,3.3,0.7v-2C20.9,17,19.8,16.6,19.3,16.3z"
		/>
</g>
</svg>
