<!-- Generator: Adobe Illustrator 26.0.0, SVG Export Plug-In . SVG Version: 6.00 Build 0)  -->
<svg version="1.1" xmlns="http://www.w3.org/2000/svg" width="32" height="32" viewBox="0 0 32 32">
<title>epinio3</title>
<path d="M4.4123969,21.3256855v-6.0112438h20.0676765c-0.6802807,1.2420845-1.0360603,2.6357746-1.0343761,4.0519505 v2.9141674c0.6070404-0.1851006,1.1984081-0.4181614,1.7685127-0.6969776l1.4525604-0.7099056l1.1913261,0.5818195v-2.0891037 c0.0025616-2.2367687,1.8151817-4.0493889,4.0519505-4.0519505v-4.4123964H16.3616314V8.2705498h2.2061977V3.8581536H0.0000008 v4.4123964H2.253921v2.6314955H0.0000008v11.7243052c1.5185926,0,3.0878146-0.6534576,3.8846538-1.0427742L4.4123969,21.3256855z M6.6663175,8.2705498h5.2829175v2.6314955H6.6663175V8.2705498z M27.6354332,22.5744267l-0.9685516-0.4731274 l-0.9683342,0.4733429c-0.8825874,0.4313278-2.6229858,1.154808-4.3635979,1.154808 c-1.7403965,0-3.4811172-0.7234783-4.3638115-1.154808l-0.9686604-0.4733429l-0.9685507,0.4733429 c-0.8825855,0.4313278-2.6228762,1.154808-4.3632736,1.154808c-1.7398586,0-3.4814405-0.7236958-4.3646746-1.1550236 l-0.9685521-0.4731274L4.369091,22.5746422C3.4865031,23.00597,1.7405051,23.7294502,0,23.7294502v4.4123955 c1.838116-0.0373669,3.6512947-0.4329205,5.3379645-1.1645012c1.6848516,0.7314758,3.496285,1.1270409,5.3326888,1.1645012 c1.836194-0.0372696,3.647439-0.432766,5.3320398-1.1642857c1.6846848,0.7314968,3.4959946,1.1269894,5.3322563,1.1642857	c1.8363495-0.0373154,3.6477413-0.4328861,5.3324718-1.1645012C28.3522396,27.7088108,30.1636333,28.104372,32,28.1418457 v-4.4123955C30.2602482,23.7294502,28.5186672,23.0057564,27.6354332,22.5744267z"/>
</svg>
