<svg width="24" height="24" viewBox="0 0 24 24" fill="none" xmlns="http://www.w3.org/2000/svg">
<path d="M3.69995 18.1998V8.1998C3.69995 7.45719 3.99516 6.74541 4.52026 6.22031C5.04537 5.6952 5.75715 5.39999 6.49976 5.39999H12.4998C12.9416 5.39999 13.2996 5.75797 13.2996 6.1998C13.2996 6.64163 12.9416 6.9996 12.4998 6.9996H6.49976C6.1815 6.9996 5.87617 7.12612 5.65112 7.35117C5.42608 7.57621 5.29956 7.88154 5.29956 8.1998V18.1998C5.29956 18.5181 5.42608 18.8234 5.65112 19.0484C5.87617 19.2735 6.1815 19.4 6.49976 19.4H16.4998C16.818 19.4 17.1233 19.2735 17.3484 19.0484C17.5734 18.8234 17.7 18.5181 17.7 18.1998V12.1998C17.7 11.758 18.0579 11.4 18.4998 11.4C18.9416 11.4 19.2996 11.758 19.2996 12.1998V18.1998C19.2996 18.9424 19.0043 19.6542 18.4792 20.1793C17.9541 20.7044 17.2424 20.9996 16.4998 20.9996H6.49976C5.75715 20.9996 5.04537 20.7044 4.52026 20.1793C3.99516 19.6542 3.69995 18.9424 3.69995 18.1998ZM21.2996 9.1998C21.2996 9.64163 20.9416 9.9996 20.4998 9.9996C20.0579 9.9996 19.7 9.64163 19.7 9.1998V6.13046L12.0652 13.7652C11.7528 14.0776 11.2467 14.0776 10.9343 13.7652C10.6219 13.4528 10.6219 12.9468 10.9343 12.6344L18.5691 4.9996H15.4998C15.0579 4.9996 14.7 4.64163 14.7 4.1998C14.7 3.75797 15.0579 3.39999 15.4998 3.39999H20.4998C20.9416 3.39999 21.2996 3.75797 21.2996 4.1998V9.1998Z" fill="#141419"/>
</svg>
