<?xml version="1.0" encoding="utf-8"?>
<!-- Generator: Adobe Illustrator 26.5.0, SVG Export Plug-In . SVG Version: 6.00 Build 0)  -->
<svg version="1.1" id="Layer_1" xmlns="http://www.w3.org/2000/svg" xmlns:xlink="http://www.w3.org/1999/xlink" x="0px" y="0px"
	 viewBox="0 0 24 24" style="enable-background:new 0 0 24 24;" xml:space="preserve">
<g>
	<path d="M18.7,10.7c-0.6,0-1.1,0.5-1.1,1.1V21H3.2V6.6h9.2c0.6,0,1.1-0.5,1.1-1.1S13,4.4,12.4,4.4H2.1C1.5,4.4,1,4.9,1,5.5v16.6
		c0,0.6,0.5,1.1,1.1,1.1h16.6c0.6,0,1.1-0.5,1.1-1.1V11.8C19.8,11.2,19.3,10.7,18.7,10.7z"/>
	<path d="M21.9,1.2H11.6c-0.6,0-1.1,0.5-1.1,1.1c0,0.6,0.5,1.1,1.1,1.1h7.7L6.2,16.4c-0.2,0.2-0.3,0.5-0.3,0.8
		c0,0.6,0.5,1.1,1.1,1.1c0,0,0,0,0,0c0.3,0,0.6-0.1,0.8-0.3L20.8,4.9v7.7c0,0.6,0.5,1.1,1.1,1.1c0.6,0,1.1-0.5,1.1-1.1V2.3
		C23,1.7,22.5,1.2,21.9,1.2z"/>
</g>
</svg>
