<!-- Generated by IcoMoon.io -->
<svg version="1.1" xmlns="http://www.w3.org/2000/svg" width="32" height="32" viewBox="0 0 32 32">
<title>external-link</title>
<path d="M9.952 23.328c-0 0-0 0-0 0-0.707 0-1.28-0.573-1.28-1.28 0-0.353 0.143-0.674 0.375-0.905v0l17.563-17.563c0.232-0.232 0.552-0.376 0.906-0.376 0.707 0 1.28 0.573 1.28 1.28 0 0.354-0.144 0.674-0.376 0.906l-17.563 17.563c-0.231 0.232-0.55 0.375-0.903 0.375-0.001 0-0.001 0-0.002 0h0z"></path>
<path d="M27.516 17.92c0 0 0 0-0 0-0.707 0-1.28-0.573-1.28-1.28 0 0 0 0 0-0v0-10.876h-10.876c-0.707 0-1.28-0.573-1.28-1.28s0.573-1.28 1.28-1.28v0h12.156c0 0 0 0 0 0 0.707 0 1.28 0.573 1.28 1.28 0 0 0 0 0 0v0 12.156c0 0 0 0 0 0 0 0.707-0.573 1.28-1.28 1.28 0 0 0 0-0 0v0z"></path>
<path d="M23.7 29.116h-19.536c0 0 0 0-0 0-0.707 0-1.28-0.573-1.28-1.28 0 0 0 0 0-0v0-19.536c0 0 0 0 0-0 0-0.707 0.573-1.28 1.28-1.28 0 0 0 0 0 0h12.156c0.707 0 1.28 0.573 1.28 1.28s-0.573 1.28-1.28 1.28v0h-10.876v16.976h16.976v-10.876c0-0.707 0.573-1.28 1.28-1.28s1.28 0.573 1.28 1.28v0 12.156c0 0 0 0 0 0 0 0.707-0.573 1.28-1.28 1.28 0 0 0 0-0 0v0z"></path>
</svg>
