<!-- Generated by IcoMoon.io -->
<svg version="1.1" xmlns="http://www.w3.org/2000/svg" width="32" height="32" viewBox="0 0 32 32">
<title>file</title>
<path d="M24.691 9.31l-5.2-5.2c-0.5-0.5-1.488-0.909-2.196-0.909h-9.608c-0.71 0.002-1.284 0.577-1.286 1.286v23.028c0.002 0.709 0.577 1.284 1.286 1.286h16.628c0.709-0.002 1.284-0.577 1.286-1.286v-16.008c0-0.707-0.409-1.695-0.91-2.196zM23.074 11.476h-4.55c-0.706-0.002-1.278-0.574-1.28-1.28v-4.551c0-0.704 0.407-0.873 0.905-0.375l5.3 5.3c0.498 0.498 0.329 0.905-0.375 0.905z"></path>
</svg>
