<!-- Generated by IcoMoon.io -->
<svg version="1.1" xmlns="http://www.w3.org/2000/svg" width="512" height="512" viewBox="0 0 512 512">
<title></title>
<g id="icomoon-ignore">
</g>
<path fill="#000" d="M397.221 147.285l-84.506-84.505c-8.128-8.129-24.185-14.779-35.681-14.779h-156.133c-11.529 0.035-20.867 9.371-20.9 20.897v374.202c0.035 11.529 9.371 20.867 20.898 20.901h270.202c11.529-0.036 20.867-9.372 20.901-20.897v-260.137c0-11.495-6.651-27.552-14.779-35.681zM370.948 182.489h-73.946c-11.474-0.035-20.765-9.327-20.8-20.797v-73.949c0-11.44 6.618-14.181 14.707-6.093l86.13 86.13c8.089 8.089 5.348 14.708-6.092 14.708z"></path>
</svg>
