<?xml version="1.0" encoding="utf-8"?>
<!-- Generator: Adobe Illustrator 26.5.0, SVG Export Plug-In . SVG Version: 6.00 Build 0)  -->
<svg version="1.1" id="Layer_1" xmlns="http://www.w3.org/2000/svg" xmlns:xlink="http://www.w3.org/1999/xlink" x="0px" y="0px"
	 viewBox="0 0 24 24" style="enable-background:new 0 0 24 24;" xml:space="preserve">
<path d="M2,17.9l2.8,4.5l16.9,0v-4.5L2,17.9L2,17.9z M5.6,21l-1.1-1.7l15.8,0v1.7C20.3,20.9,5.6,21,5.6,21z M21.7,17.8L21.7,17.8
	L21.7,17.8z M11.9,0.4c-4.6,4.6-8.5,15-8.5,15.9h8.5C11.9,16.3,11.9,0.4,11.9,0.4z M10.5,14.9H5.3c1.3-3.6,3-7.1,5.2-10.3
	C10.5,4.6,10.5,14.9,10.5,14.9z M13.3,4.6v11.7h7C19.1,12.1,14.7,6.1,13.3,4.6z M14.7,14.9V8.8c1.3,1.9,2.5,4,3.5,6.1H14.7z"/>
</svg>
