<?xml version="1.0" encoding="UTF-8"?>
<svg id="Layer_1" data-name="Layer 1" xmlns="http://www.w3.org/2000/svg" viewBox="0 0 32 32">
  <path d="m13,9.59c-1.98,3.29-3.67,6.77-5.03,10.41h5.03v-10.41Z"/>
  <polygon points="7.23 28 26 28 26 26 6.23 26 7.23 28"/>
  <path d="m19,20h4.19c-1.06-2.57-2.48-4.96-4.19-7.1v7.1Z"/>
  <path d="m30,0H2C.9,0,0,.9,0,2v28c0,1.1.9,2,2,2h28c1.1,0,2-.9,2-2V2c0-1.1-.9-2-2-2Zm-13,8c.65.58,1.41,1.2,2,1.83,2.73,2.92,4.9,6.37,6.35,10.17.23.62.45,1.25.65,1.89v.11h-9v-14Zm-11.16,12c1.81-5.03,4.23-9.77,7.16-14.14.64-.96,1.31-1.9,2-2.82v18.96H5.16c.22-.67.44-1.34.68-2Zm22.16,10H6l-2-4h0l-1-2h0s2.24,0,2.24,0h22.76v4h0v2Z"/>
</svg>