<!-- Generated by IcoMoon.io -->
<svg version="1.1" xmlns="http://www.w3.org/2000/svg" width="32" height="32" viewBox="0 0 32 32">
<title>fleet</title>
<path d="M4.672 23.447l3.231 5.173 19.425-0.041v-5.173l-22.657 0.041zM8.798 27.002l-1.215-1.945 18.13-0.033v1.942l-16.915 0.036z"></path>
<path d="M27.328 23.406v0h0z"></path>
<path d="M16.021 3.38c-5.244 5.243-9.783 17.209-9.783 18.274h9.783v-18.274zM14.405 20.039h-5.944c1.46-4.18 3.458-8.151 5.944-11.815v11.815z"></path>
<path d="M17.589 8.227v13.427h8.056c-1.405-4.781-6.39-11.664-8.056-13.427zM19.204 20.039v-6.968c1.503 2.215 2.829 4.544 3.965 6.968h-3.965z"></path>
</svg>
