<!-- Generated by IcoMoon.io -->
<svg version="1.1" xmlns="http://www.w3.org/2000/svg" width="512" height="512" viewBox="0 0 512 512">
<title></title>
<g id="icomoon-ignore">
</g>
<path fill="#000" d="M469.334 106.666c0-0.077 0-0.168 0-0.259 0-35.346-28.654-64-64-64s-64 28.654-64 64c0 27.699 17.596 51.288 42.221 60.198l0.445 0.141v67.919h-256v-67.919c25.070-9.052 42.666-32.641 42.666-60.34 0-35.346-28.654-64-64-64s-64 28.654-64 64c0 27.699 17.596 51.288 42.221 60.199l0.445 0.141v67.919c0 23.564 19.103 42.666 42.666 42.666v0h106.667v89.252c-25.070 9.051-42.666 32.641-42.666 60.34 0 35.346 28.654 64 64 64s64-28.654 64-64c0-27.699-17.596-51.288-42.221-60.199l-0.445-0.141v-89.252h106.666c23.564 0 42.666-19.103 42.666-42.666v0-67.919c25.023-8.976 42.61-32.467 42.666-60.074v-0.007z"></path>
</svg>
