<?xml version="1.0" encoding="utf-8"?>
<!-- Generator: Adobe Illustrator 26.5.0, SVG Export Plug-In . SVG Version: 6.00 Build 0)  -->
<svg version="1.1" id="Layer_1" xmlns="http://www.w3.org/2000/svg" xmlns:xlink="http://www.w3.org/1999/xlink" x="0px" y="0px"
	 viewBox="0 0 24 24" style="enable-background:new 0 0 24 24;" xml:space="preserve">
<style type="text/css">
	.st0{display:none;}
</style>
<g id="icomoon-ignore" class="st0">
</g>
<path d="M21.9,4.2C21.9,4.1,21.9,4.1,21.9,4.2c0-1.7-1.4-3.2-3.1-3.2c-1.7,0-3.1,1.4-3.1,3.1c0,1.4,0.9,2.5,2.1,3l0,0v3.3H5.2V7.1
	c1.2-0.4,2.1-1.6,2.1-3C7.3,2.4,5.9,1,4.1,1S1,2.4,1,4.1c0,1.4,0.9,2.5,2.1,3l0,0v3.3c0,1.2,0.9,2.1,2.1,2.1l0,0h5.2v4.4
	c-1.2,0.4-2.1,1.6-2.1,3c0,1.7,1.4,3.1,3.1,3.1s3.1-1.4,3.1-3.1c0-1.4-0.9-2.5-2.1-3l0,0v-4.4h5.2c1.2,0,2.1-0.9,2.1-2.1l0,0V7.1
	C21.1,6.7,21.9,5.5,21.9,4.2L21.9,4.2L21.9,4.2z"/>
</svg>
