<!-- Generated by IcoMoon.io -->
<svg version="1.1" xmlns="http://www.w3.org/2000/svg" width="32" height="32" viewBox="0 0 32 32">
<title>gatekeeper</title>
<path d="M17.744 15.074c0 0.984-0.798 1.782-1.782 1.782s-1.782-0.798-1.782-1.782c0-0.984 0.798-1.782 1.782-1.782s1.782 0.798 1.782 1.782z"></path>
<path d="M28.479 10.419c0-0.548-0.221-1.215-0.716-2.162-0.344-0.659-0.813-1.436-1.394-2.31-0.972-1.462-2.162-3.035-2.708-3.581-0.39-0.39-0.99-0.478-1.476-0.217s-0.743 0.811-0.632 1.352c0.223 1.090 0.492 2.001 0.729 2.805 0.289 0.983 0.518 1.759 0.518 2.379 0 0.276-0.265 0.671-0.591 1.028-1.691-1.421-3.87-2.278-6.246-2.278s-4.555 0.857-6.246 2.278c-0.326-0.358-0.591-0.753-0.591-1.028 0-0.62 0.229-1.396 0.518-2.379 0.237-0.804 0.505-1.715 0.729-2.805 0.111-0.541-0.146-1.090-0.632-1.352s-1.086-0.173-1.476 0.217c-0.546 0.546-1.736 2.12-2.708 3.581-0.581 0.873-1.050 1.651-1.394 2.31-0.495 0.948-0.716 1.615-0.716 2.162 0 1.499 1.105 3.063 2.274 4.719 0.196 0.278 0.397 0.562 0.593 0.847-0.046 0.384-0.071 0.775-0.071 1.171v4.323c0 0.608 0.438 1.128 1.037 1.232 3.080 0.534 6.249 3.114 7.534 6.135 0.196 0.461 0.649 0.761 1.15 0.761s0.954-0.299 1.15-0.761c1.285-3.021 4.454-5.601 7.534-6.135 0.599-0.104 1.037-0.624 1.037-1.232v-4.323c0-0.396-0.024-0.787-0.071-1.171 0.196-0.285 0.397-0.569 0.593-0.847 1.169-1.656 2.274-3.22 2.274-4.719zM5.945 10.437c0.026-0.172 0.209-0.65 0.691-1.498 0.095 1.073 0.768 1.995 1.379 2.623-0.302 0.427-0.569 0.879-0.8 1.353-0.648-0.943-1.257-1.924-1.27-2.478zM23.183 20.482c-1.604 0.451-3.18 1.295-4.611 2.475-1.008 0.832-1.896 1.801-2.609 2.836-0.713-1.035-1.601-2.004-2.609-2.836-1.431-1.181-3.007-2.025-4.611-2.475v-3.327c0-3.982 3.239-7.221 7.221-7.221s7.221 3.239 7.221 7.221v3.327zM24.708 12.915c-0.231-0.474-0.499-0.926-0.8-1.353 0.611-0.628 1.284-1.55 1.379-2.623 0.483 0.848 0.666 1.326 0.691 1.498-0.013 0.554-0.622 1.535-1.27 2.478z"></path>
</svg>
