<?xml version="1.0" encoding="utf-8"?>
<!-- Generator: Adobe Illustrator 26.5.0, SVG Export Plug-In . SVG Version: 6.00 Build 0)  -->
<svg version="1.1" id="Layer_1" xmlns="http://www.w3.org/2000/svg" xmlns:xlink="http://www.w3.org/1999/xlink" x="0px" y="0px"
	 viewBox="0 0 24 24" style="enable-background:new 0 0 24 24;" xml:space="preserve">
<path d="M13.4,11.4c0,0.8-0.6,1.4-1.4,1.4s-1.4-0.6-1.4-1.4c0-0.8,0.6-1.4,1.4-1.4S13.4,10.6,13.4,11.4z M21.9,7.7
	c0-0.4-0.2-1-0.6-1.7c-0.3-0.5-0.6-1.1-1.1-1.8c-0.8-1.2-1.7-2.4-2.2-2.9c-0.3-0.3-0.8-0.4-1.2-0.2c-0.4,0.2-0.6,0.6-0.5,1.1
	c0.2,0.9,0.4,1.6,0.6,2.2c0.2,0.8,0.4,1.4,0.4,1.9c0,0.2-0.2,0.5-0.5,0.8c-1.3-1.1-3.1-1.8-5-1.8S8.3,6,7,7.1
	C6.7,6.9,6.5,6.5,6.5,6.3c0-0.5,0.2-1.1,0.4-1.9c0.2-0.6,0.4-1.4,0.6-2.2C7.6,1.8,7.4,1.3,7,1.1C6.6,0.9,6.2,1,5.8,1.3
	C5.4,1.7,4.5,3,3.7,4.1C3.2,4.8,2.8,5.5,2.6,6C2.2,6.7,2,7.3,2,7.7c0,1.2,0.9,2.4,1.8,3.8c0.2,0.2,0.3,0.4,0.5,0.7
	c0,0.3-0.1,0.6-0.1,0.9v3.4c0,0.5,0.3,0.9,0.8,1c2.5,0.4,5,2.5,6,4.9c0.2,0.4,0.5,0.6,0.9,0.6s0.8-0.2,0.9-0.6c1-2.4,3.5-4.5,6-4.9
	c0.5-0.1,0.8-0.5,0.8-1v-3.4c0-0.3,0-0.6-0.1-0.9c0.2-0.2,0.3-0.5,0.5-0.7C21.1,10.2,21.9,8.9,21.9,7.7L21.9,7.7z M4,7.7
	c0-0.1,0.2-0.5,0.6-1.2c0.1,0.9,0.6,1.6,1.1,2.1C5.4,9,5.2,9.3,5,9.7C4.5,8.9,4,8.2,4,7.7z M17.7,15.7c-1.3,0.4-2.5,1-3.7,2
	c-0.8,0.7-1.5,1.4-2.1,2.3c-0.6-0.8-1.3-1.6-2.1-2.3c-1.1-0.9-2.4-1.6-3.7-2v-2.7c0-3.2,2.6-5.8,5.8-5.8s5.8,2.6,5.8,5.8L17.7,15.7
	L17.7,15.7z M18.9,9.7c-0.2-0.4-0.4-0.7-0.6-1.1c0.5-0.5,1-1.2,1.1-2.1c0.4,0.7,0.5,1.1,0.6,1.2C19.9,8.2,19.5,8.9,18.9,9.7z"/>
</svg>
