<?xml version="1.0" encoding="UTF-8"?>
<svg id="Layer_1" data-name="Layer 1" xmlns="http://www.w3.org/2000/svg" viewBox="0 0 32 32">
  <path d="m15.95,9.94c-3.38,0-6.12,2.74-6.12,6.12v2.85c1.42.45,2.75,1.17,3.9,2.11.82.73,1.56,1.54,2.22,2.43.62-.91,1.37-1.72,2.22-2.43,1.14-.96,2.47-1.68,3.9-2.11h0s0-2.85,0-2.85c0-3.38-2.74-6.12-6.12-6.12Zm1.58,4.43c0,.82-.66,1.48-1.48,1.48s-1.48-.66-1.48-1.48.66-1.48,1.48-1.48c.8-.02,1.46.61,1.48,1.41,0,.02,0,.05,0,.07Z"/>
  <path d="m7.61,10.46c0,.53.53,1.27,1.06,2.11.21-.41.46-.8.74-1.16-.63-.58-1.04-1.37-1.16-2.22-.26.4-.47.82-.63,1.27Z"/>
  <path d="m22.7,11.41c.21.42.42.74.63,1.16h0c.52-.62.92-1.34,1.16-2.11-.11-.11-.21-.53-.63-1.27-.12.85-.53,1.63-1.16,2.22Z"/>
  <path d="m30.03,0H2.03C.92,0,.03.9.03,2v28c0,1.1.9,2,2,2h28c1.1,0,2-.9,2-2V2C32.03.9,31.13,0,30.03,0Zm-5.53,14.47c-.21.21-.32.53-.53.74.09.31.12.63.11.95v3.59c.02.51-.34.96-.84,1.06-2.64.42-5.28,2.64-6.33,5.17-.13.4-.53.67-.95.63-.42,0-.79-.25-.95-.63-1.06-2.53-3.69-4.75-6.33-5.17-.51-.09-.87-.54-.84-1.06v-3.59c0-.32.11-.63.11-.95-.15-.26-.33-.51-.53-.74-.95-1.48-1.9-2.74-1.9-4.01.07-.64.28-1.25.63-1.79.31-.71.7-1.38,1.17-2.01.84-1.16,1.79-2.53,2.22-2.95.34-.32.84-.4,1.27-.21.41.23.63.7.53,1.16-.21.84-.42,1.69-.63,2.32-.21.65-.35,1.32-.42,2,.05.34.24.65.53.84,1.4-1.23,3.2-1.9,5.07-1.9,1.93,0,3.79.67,5.28,1.9.26-.22.45-.51.53-.84-.07-.68-.21-1.35-.42-2-.25-.76-.46-1.54-.63-2.32-.13-.46.1-.95.53-1.16.42-.2.93-.12,1.27.21.85.96,1.63,1.98,2.32,3.06.53.74.84,1.37,1.16,1.9.35.54.57,1.15.63,1.79,0,1.27-.84,2.64-2.01,4.01Z"/>
</svg>