<?xml version="1.0" encoding="utf-8"?>
<!-- Generator: Adobe Illustrator 26.5.0, SVG Export Plug-In . SVG Version: 6.00 Build 0)  -->
<svg version="1.1" id="Layer_1" xmlns="http://www.w3.org/2000/svg" xmlns:xlink="http://www.w3.org/1999/xlink" x="0px" y="0px"
	 viewBox="0 0 25 25" style="enable-background:new 0 0 25 25;" xml:space="preserve">
<path d="M22.7,10.2c-0.1-0.3-0.4-0.6-0.7-0.6c-0.1,0-0.1,0-0.2,0l0,0c-0.2,0-0.4,0.1-0.6,0.1c-1.3,0-2.4-1.1-2.4-2.4
	c0-0.7,0.3-1.3,0.7-1.7l0,0c0.1-0.1,0.2-0.3,0.2-0.5c0-0.2-0.1-0.4-0.2-0.6l0,0c-1.1-1-2.5-1.9-4-2.4l-0.1,0c-0.1,0-0.1,0-0.2,0
	c-0.4,0-0.6,0.2-0.7,0.6l0,0c-0.3,1-1.2,1.8-2.3,1.8s-2-0.7-2.3-1.8l0,0C9.6,2.2,9.3,2,8.9,2C8.8,2,8.8,2,8.7,2l0,0
	c-1.6,0.5-3,1.3-4.1,2.4l0,0C4.4,4.6,4.3,4.8,4.3,5c0,0.2,0.1,0.4,0.2,0.5l0,0C5,6,5.2,6.6,5.2,7.2c0,1.3-1.1,2.4-2.4,2.4
	c-0.2,0-0.4,0-0.6-0.1l0,0c-0.1,0-0.1,0-0.2,0c-0.4,0-0.7,0.3-0.7,0.6l0,0C1.1,10.9,1,11.7,1,12.5c0,0.8,0.1,1.7,0.3,2.5l0-0.1
	c0.1,0.3,0.4,0.6,0.7,0.6c0.1,0,0.1,0,0.2,0l0,0c0.2,0,0.4-0.1,0.6-0.1c1.3,0,2.4,1.1,2.4,2.4c0,0.7-0.3,1.3-0.7,1.7l0,0
	c-0.1,0.1-0.2,0.3-0.2,0.5c0,0.2,0.1,0.4,0.2,0.6l0,0c1.1,1,2.5,1.9,4,2.4l0.1,0c0.1,0,0.1,0,0.2,0c0.4,0,0.6-0.2,0.7-0.6l0,0
	c0.3-1,1.2-1.8,2.3-1.8c1.1,0,2,0.7,2.3,1.8l0,0c0.1,0.3,0.4,0.6,0.7,0.6c0.1,0,0.2,0,0.2,0l0,0c1.6-0.5,3-1.3,4.1-2.4l0,0
	c0.2-0.1,0.2-0.3,0.2-0.6c0-0.2-0.1-0.4-0.2-0.5l0,0c-0.4-0.4-0.7-1-0.7-1.7c0-1.3,1.1-2.4,2.4-2.4c0.2,0,0.4,0,0.6,0.1l0,0
	c0.1,0,0.1,0,0.2,0c0.4,0,0.7-0.3,0.7-0.6l0,0c0.2-0.7,0.3-1.5,0.3-2.4S22.9,10.9,22.7,10.2L22.7,10.2L22.7,10.2z M12,16
	c-1.9,0-3.4-1.5-3.4-3.4s1.5-3.4,3.4-3.4s3.4,1.5,3.4,3.4l0,0C15.4,14.4,13.9,16,12,16L12,16z"/>
</svg>
