<!-- Generated by IcoMoon.io -->
<svg version="1.1" xmlns="http://www.w3.org/2000/svg" width="32" height="32" viewBox="0 0 32 32">
<title>gear</title>
<path d="M28.499 13.234c-0.091-0.404-0.447-0.701-0.872-0.701-0.079 0-0.156 0.010-0.23 0.030l0.006-0.001c-0.212 0.057-0.455 0.089-0.706 0.089-1.562 0-2.828-1.266-2.828-2.828 0-0.771 0.308-1.469 0.808-1.979l-0 0c0.158-0.161 0.256-0.382 0.256-0.625 0-0.26-0.111-0.495-0.289-0.658l-0.001-0.001c-1.33-1.22-2.931-2.168-4.7-2.744l-0.091-0.026c-0.080-0.026-0.173-0.041-0.269-0.041-0.408 0-0.753 0.274-0.859 0.648l-0.002 0.006c-0.343 1.204-1.432 2.070-2.724 2.070s-2.382-0.867-2.72-2.050l-0.005-0.020c-0.108-0.38-0.452-0.654-0.861-0.654-0.096 0-0.188 0.015-0.275 0.043l0.006-0.002c-1.86 0.601-3.461 1.55-4.8 2.778l0.010-0.009c-0.178 0.164-0.29 0.398-0.29 0.658 0 0.244 0.098 0.464 0.256 0.626l-0-0c0.5 0.51 0.808 1.208 0.808 1.979 0 1.562-1.266 2.828-2.828 2.828-0.251 0-0.494-0.033-0.725-0.094l0.020 0.004c-0.067-0.018-0.144-0.028-0.223-0.028-0.425 0-0.781 0.297-0.871 0.695l-0.001 0.006c-0.191 0.831-0.301 1.786-0.301 2.766s0.11 1.935 0.317 2.852l-0.016-0.086c0.091 0.404 0.447 0.701 0.872 0.701 0.079 0 0.156-0.010 0.23-0.030l-0.006 0.001c0.212-0.057 0.455-0.089 0.706-0.089 1.562 0 2.828 1.266 2.828 2.828 0 0.771-0.308 1.469-0.808 1.98l0-0c-0.158 0.161-0.256 0.382-0.256 0.625 0 0.26 0.111 0.495 0.289 0.658l0.001 0.001c1.33 1.22 2.931 2.168 4.7 2.744l0.091 0.026c0.080 0.026 0.173 0.041 0.269 0.041 0.408 0 0.753-0.274 0.859-0.648l0.002-0.006c0.343-1.204 1.432-2.070 2.724-2.070s2.382 0.867 2.72 2.050l0.005 0.020c0.108 0.38 0.452 0.654 0.861 0.654 0.096 0 0.188-0.015 0.275-0.043l-0.006 0.002c1.86-0.601 3.461-1.55 4.8-2.778l-0.010 0.009c0.178-0.164 0.29-0.398 0.29-0.658 0-0.244-0.098-0.464-0.256-0.626l0 0c-0.5-0.51-0.808-1.208-0.808-1.979 0-1.562 1.266-2.828 2.828-2.828 0.251 0 0.494 0.033 0.725 0.094l-0.020-0.004c0.067 0.018 0.144 0.028 0.223 0.028 0.425 0 0.781-0.297 0.871-0.695l0.001-0.006c0.191-0.831 0.301-1.786 0.301-2.766s-0.11-1.935-0.317-2.852l0.016 0.086zM16 20c-2.209 0-4-1.791-4-4s1.791-4 4-4c2.209 0 4 1.791 4 4v0c0 2.209-1.791 4-4 4v0z"></path>
</svg>
