<!-- Generated by IcoMoon.io -->
<svg version="1.1" xmlns="http://www.w3.org/2000/svg" width="32" height="32" viewBox="0 0 32 32">
<title>github</title>
<path d="M16 0c-8.838 0-16 7.162-16 16s7.162 16 16 16 16-7.163 16-16-7.163-16-16-16zM29.356 15.95c0 1.825-0.363 3.594-1.050 5.238-0.669 1.594-1.644 3.031-2.875 4.262s-2.619 2.206-4.212 2.875c-0.413 0.181-0.925 0.331-1.181 0.462v-2.387c0-1.256-0.488-2.181-1.363-2.775 0.538-0.075 1-0.131 1.462-0.231 0.438-0.1 0.9-0.231 1.413-0.413s0.95-0.387 1.363-0.644c0.413-0.231 0.794-0.563 1.156-0.95s0.669-0.85 0.925-1.337c0.256-0.488 0.438-1.081 0.594-1.775s0.231-1.462 0.231-2.287c0-1.619-0.512-3.006-1.569-4.138 0.488-1.256 0.438-2.619-0.156-4.081l-0.387-0.050c-0.025 0-0.075 0-0.1 0-0.281 0-0.744 0.131-1.363 0.363-0.694 0.256-1.488 0.694-2.363 1.281-1.231-0.331-2.519-0.512-3.85-0.512-1.363 0-2.644 0.181-3.85 0.512-0.537-0.363-1.081-0.669-1.569-0.925-0.488-0.231-0.9-0.412-1.181-0.487s-0.563-0.131-0.819-0.156c-0.156-0.025-0.306-0.025-0.387-0.025-0.050 0-0.075 0-0.1 0-0.075 0-0.131 0.025-0.156 0.025-0.594 1.487-0.644 2.85-0.156 4.081-1.050 1.156-1.569 2.519-1.569 4.138 0 0.819 0.075 1.594 0.231 2.288s0.331 1.281 0.594 1.775c0.256 0.512 0.563 0.95 0.925 1.337s0.744 0.694 1.156 0.95c0.412 0.256 0.85 0.462 1.363 0.644s0.975 0.306 1.438 0.413 0.95 0.181 1.488 0.231c-0.85 0.563-1.281 1.512-1.281 2.775v2.438c-0.512-0.131-0.925-0.306-1.463-0.538-1.594-0.669-3.031-1.644-4.263-2.875s-2.206-2.669-2.875-4.262c-0.694-1.669-1.050-3.419-1.050-5.238s0.362-3.594 1.050-5.238c0.669-1.594 1.644-3.031 2.875-4.263s2.669-2.206 4.263-2.875c1.669-0.694 3.419-1.050 5.237-1.050s3.594 0.362 5.238 1.050c1.594 0.669 3.031 1.644 4.262 2.875s2.206 2.669 2.875 4.263c0.688 1.669 1.050 3.412 1.050 5.238z"></path>
</svg>
