<?xml version="1.0" encoding="utf-8"?>
<!-- Generator: Adobe Illustrator 26.5.0, SVG Export Plug-In . SVG Version: 6.00 Build 0)  -->
<svg version="1.1" id="Layer_1" xmlns="http://www.w3.org/2000/svg" xmlns:xlink="http://www.w3.org/1999/xlink" x="0px" y="0px"
	 viewBox="0 0 24 24" style="enable-background:new 0 0 24 24;" xml:space="preserve">
<path d="M12,1.3c-6.1,0-11,4.9-11,11s4.9,11,11,11s11-4.9,11-11S18.1,1.3,12,1.3z M21.2,12.3c0,1.3-0.2,2.5-0.7,3.6
	c-0.5,1.1-1.1,2.1-2,2.9s-1.8,1.5-2.9,2c-0.3,0.1-0.6,0.2-0.8,0.3v-1.6c0-0.9-0.3-1.5-0.9-1.9c0.4-0.1,0.7-0.1,1-0.2
	c0.3-0.1,0.6-0.2,1-0.3s0.7-0.3,0.9-0.4c0.3-0.2,0.5-0.4,0.8-0.7c0.2-0.3,0.5-0.6,0.6-0.9c0.2-0.3,0.3-0.7,0.4-1.2s0.2-1,0.2-1.6
	c0-1.1-0.4-2.1-1.1-2.8C18,8.6,18,7.7,17.6,6.7l-0.3,0c0,0-0.1,0-0.1,0c-0.2,0-0.5,0.1-0.9,0.2c-0.5,0.2-1,0.5-1.6,0.9
	c-0.8-0.2-1.7-0.4-2.6-0.4c-0.9,0-1.8,0.1-2.6,0.4C9,7.5,8.6,7.3,8.3,7.1C8,7,7.7,6.8,7.5,6.8C7.3,6.7,7.1,6.7,6.9,6.7
	c-0.1,0-0.2,0-0.3,0c0,0-0.1,0-0.1,0c-0.1,0-0.1,0-0.1,0c-0.4,1-0.4,2-0.1,2.8c-0.7,0.8-1.1,1.7-1.1,2.8c0,0.6,0.1,1.1,0.2,1.6
	s0.2,0.9,0.4,1.2C6,15.5,6.2,15.8,6.5,16c0.2,0.3,0.5,0.5,0.8,0.7s0.6,0.3,0.9,0.4c0.4,0.1,0.7,0.2,1,0.3c0.3,0.1,0.7,0.1,1,0.2
	c-0.6,0.4-0.9,1-0.9,1.9v1.7c-0.4-0.1-0.6-0.2-1-0.4c-1.1-0.5-2.1-1.1-2.9-2c-0.8-0.8-1.5-1.8-2-2.9c-0.5-1.1-0.7-2.4-0.7-3.6
	S3,9.8,3.4,8.7c0.5-1.1,1.1-2.1,2-2.9s1.8-1.5,2.9-2c1.1-0.5,2.4-0.7,3.6-0.7s2.5,0.2,3.6,0.7c1.1,0.5,2.1,1.1,2.9,2s1.5,1.8,2,2.9
	C20.9,9.8,21.2,11,21.2,12.3L21.2,12.3z"/>
</svg>
