<?xml version="1.0" encoding="utf-8"?>
<!-- Generator: Adobe Illustrator 26.5.0, SVG Export Plug-In . SVG Version: 6.00 Build 0)  -->
<svg version="1.1" id="Layer_1" xmlns="http://www.w3.org/2000/svg" xmlns:xlink="http://www.w3.org/1999/xlink" x="0px" y="0px"
	 viewBox="0 0 24 24" style="enable-background:new 0 0 24 24;" xml:space="preserve">
<path d="M23,12c0-5.8-4.5-10.6-10.3-11v0H12h0l0,0h0h-0.9v0C5.5,1.5,1,6.2,1,12s4.5,10.5,10.1,11v0H12h0h0h0.7v0
	C18.5,22.6,23,17.8,23,12z M12.7,15.6v-2.8H17c0,0.7-0.2,1.7-0.4,2.8C16.5,15.6,12.7,15.6,12.7,15.6z M11.1,8.4v2.8H6.9
	c0-0.7,0.2-1.7,0.4-2.8H11.1z M20.2,11.2h-1.6c0-0.7-0.1-1.7-0.4-2.8h1.2C19.8,9.3,20.1,10.2,20.2,11.2L20.2,11.2z M17,11.2h-4.2
	V8.4h3.8C16.8,9.5,16.9,10.5,17,11.2z M5.3,11.2H3.8c0.1-1,0.4-1.9,0.8-2.8h1.1C5.4,9.5,5.3,10.5,5.3,11.2L5.3,11.2z M3.8,12.8h1.5
	c0,0.7,0.1,1.7,0.4,2.8H4.6C4.2,14.7,3.9,13.8,3.8,12.8L3.8,12.8z M6.9,12.8h4.2v2.8H7.3C7.1,14.5,7,13.5,6.9,12.8z M18.6,12.8h1.6
	c-0.1,1-0.4,1.9-0.8,2.8h-1.2C18.4,14.5,18.5,13.5,18.6,12.8L18.6,12.8z M18.4,6.8h-0.6c-0.1-0.4-0.3-0.7-0.4-1.1
	C17.7,6,18.1,6.4,18.4,6.8z M14.4,4.1c0.7,0.8,1.3,1.7,1.7,2.7h-3.3v-3C13.3,3.8,13.9,3.9,14.4,4.1z M11.1,6.8H7.8
	c0.4-1.1,0.9-1.9,1.6-2.6C10,4,10.5,3.9,11.1,3.8V6.8z M6.5,5.9C6.3,6.2,6.2,6.5,6.1,6.8H5.6C5.9,6.5,6.2,6.2,6.5,5.9z M5.6,17.2
	h0.5c0.1,0.3,0.2,0.6,0.3,0.9C6.2,17.8,5.9,17.5,5.6,17.2z M9.4,19.8c-0.7-0.8-1.2-1.7-1.6-2.6h3.3v3C10.5,20.1,10,20,9.4,19.8z
	 M12.7,17.2H16c-0.4,1.1-1,2-1.6,2.7c-0.5,0.2-1.1,0.3-1.7,0.3V17.2z M17.3,18.3c0.2-0.3,0.3-0.7,0.4-1.1h0.6
	C18.1,17.6,17.7,18,17.3,18.3z"/>
</svg>
