<?xml version="1.0" encoding="utf-8"?>
<!-- Generator: Adobe Illustrator 26.0.0, SVG Export Plug-In . SVG Version: 6.00 Build 0)  -->
<svg version="1.1" id="Layer_1" xmlns="http://www.w3.org/2000/svg" xmlns:xlink="http://www.w3.org/1999/xlink" x="0px" y="0px"
	 viewBox="0 0 512 512" style="enable-background:new 0 0 512 512;" xml:space="preserve">
<g id="icomoon-ignore">
</g>
<path d="M478.9949951,261.1400146c0.2879944-0.7049866,0.5140076-1.4349976,0.6759949-2.1789856
	c0.0440063-0.1929932,0.07901-0.3859863,0.1149902-0.5820007c0.2860107-1.5740051,0.2860107-3.1860046,0-4.7610016
	c-0.0360107-0.1959991-0.0710144-0.3890076-0.1149902-0.5820007c-0.1629944-0.7440033-0.3890076-1.4730072-0.6759949-2.1790009
	c-0.0429993-0.102005-0.1000061-0.1950073-0.1459961-0.2949982c-0.1830139-0.427002-0.3890076-0.8450012-0.6149902-1.25
	l-52.8670044-91.5690002c-0.2359924-0.3959961-0.4930115-0.779007-0.7690125-1.147995
	c-0.0669861-0.0939941-0.1220093-0.1940002-0.1919861-0.2859955c-0.4649963-0.598999-0.9809875-1.1560059-1.5409851-1.6670074
	c-0.1489868-0.1380005-0.303009-0.2700043-0.4599915-0.4019928c-0.598999-0.5180054-1.243988-0.9819946-1.9249878-1.3869934
	l-0.0079956-0.0059967l-0.0069885-0.0039978c-0.6919861-0.3880005-1.4159851-0.7149963-2.1650085-0.9759979
	c-0.1950073-0.0700073-0.3869934-0.1380005-0.5830078-0.1990051c-0.7200012-0.2290039-1.4580078-0.3959961-2.2059937-0.5
	c-0.125-0.0169983-0.25-0.0119934-0.375-0.0249939c-0.447998-0.0529938-0.8989868-0.0829926-1.348999-0.0890045H308.0510559
	c-0.4500122,0.0070038-0.901001,0.0370026-1.3479919,0.0890045c-0.1270142,0.0130005-0.2529907,0.0090027-0.3800049,0.0249939
	c-0.7460022,0.1029968-1.4809875,0.2700043-2.1990051,0.4980011c-0.1990051,0.0610046-0.3940125,0.1309967-0.5920105,0.2019958
	c-0.7470093,0.2599945-1.4689941,0.5850067-2.1589966,0.9730072l-0.0069885,0.0039978l-0.0079956,0.0059967
	c-0.6820068,0.4049988-1.3259888,0.8690033-1.9249878,1.3869934c-0.1560059,0.1320038-0.3099976,0.2630005-0.4599915,0.4019928
	c-0.5599976,0.5110016-1.0759888,1.0690002-1.5409851,1.6670074c-0.0700073,0.0910034-0.1229858,0.1900024-0.1900024,0.2830048
	c-0.276001,0.3699951-0.5339966,0.7539978-0.769989,1.1499939l-49.0050049,84.8820038h-39.0549927l37.4250031-64.822998h17.3730011
	c7.3850098,0,13.3729858-5.9869995,13.3729858-13.3730011s-5.9869995-13.3730011-13.3729858-13.3730011h-25.0939941
	c-4.7779999,0-9.1920013,2.548996-11.5809937,6.6860046L177.529129,242.621048h-39.0529938l37.4250031-64.822998h17.3730011
	c7.3860016,0,13.3730011-5.9869995,13.3730011-13.3730011s-5.9869995-13.3730011-13.3730011-13.3730011h-25.0939941
	c-4.7779999,0-9.1920013,2.548996-11.5809937,6.6860046l-49.0059967,84.8820038H68.5381546l37.4269943-64.822998H123.33815
	c7.3849945,0,13.371994-5.9869995,13.371994-13.3730011s-5.9869995-13.3730011-13.3730011-13.3730011H98.2431412
	c-4.7779999,0-9.1920013,2.548996-11.5810013,6.6860046l-52.868,91.5690002
	c-0.2260017,0.4049988-0.4309998,0.8209991-0.612999,1.2460022c-0.0460014,0.102005-0.1049995,0.1959991-0.1479988,0.3000031
	c-0.2859993,0.7019958-0.5110016,1.4290009-0.6730003,2.1699982c-0.0449982,0.197998-0.0820007,0.3970032-0.118,0.598999
	c-0.1489983,0.779007-0.2290001,1.5690002-0.237999,2.3619995l-0.0009995,0.0090027l0.0009995,0.0090027
	c0.0089989,0.7929993,0.0890007,1.5830078,0.237999,2.3619995c0.0359993,0.2019958,0.0730019,0.401001,0.118,0.598999
	c0.1619987,0.7409973,0.3880005,1.4670105,0.6730003,2.1700134c0.0439987,0.1040039,0.1020012,0.197998,0.1479988,0.2999878
	c0.1819992,0.4259949,0.387001,0.8410034,0.612999,1.2460022l52.868,91.5669861
	c2.3889999,4.1369934,6.8030014,6.6860046,11.5810013,6.6870117h25.0940018c7.3860016,0,13.3730011-5.9869995,13.3730011-13.3729858
	s-5.9869995-13.3729858-13.3730011-13.3729858h-17.3730011l-37.4259949-64.821991h39.0540009l49.0059967,84.8819885
	c2.3890076,4.1369934,6.8029938,6.6860046,11.5809937,6.6870117h25.0939941c7.3860016,0,13.3730011-5.9869995,13.3730011-13.3729858
	s-5.9869995-13.3729858-13.3730011-13.3729858h-17.3730011l-37.4250031-64.821991h39.053009l49.0059967,84.8819885
	c2.3889923,4.1369934,6.8040009,6.6860046,11.5809937,6.6870117h25.0940094c7.3850098,0,13.3729858-5.9869995,13.3729858-13.3729858
	s-5.9869995-13.3729858-13.3729858-13.3729858h-17.3730011l-37.4250031-64.821991h39.0549927l49.0050049,84.8819885
	c0.2359924,0.3959961,0.4930115,0.7789917,0.7690125,1.1489868c0.0669861,0.0929871,0.1210022,0.1929932,0.1910095,0.2850037
	c0.4649963,0.598999,0.9809875,1.1560059,1.5409851,1.6659851c0.1489868,0.1390076,0.3039856,0.269989,0.4609985,0.4020081
	c0.598999,0.5180054,1.2430115,0.9819946,1.9249878,1.3859863l0.0079956,0.006012
	c0.0549927,0.0320129,0.1140137,0.052002,0.1700134,0.0830078c0.4530029,0.2569885,0.92099,0.4880066,1.401001,0.6900024
	c0.4070129,0.1700134,0.821991,0.29599,1.2380066,0.4230042c0.1369934,0.0409851,0.2669983,0.098999,0.4039917,0.1359863
	c1.1279907,0.3049927,2.2919922,0.4609985,3.4609985,0.4620056l0.0409851-0.0020142l105.7210083,0.0020142
	c1.1690063-0.0020142,2.3320007-0.1570129,3.4609985-0.4620056c0.1380005-0.0369873,0.2680054-0.0939941,0.4039917-0.1359863
	c0.4159851-0.1270142,0.8299866-0.2529907,1.2380066-0.4230042c0.480011-0.2019958,0.947998-0.4330139,1.401001-0.6900024
	c0.0549927-0.0310059,0.1140137-0.0509949,0.1700134-0.0830078l0.0090027-0.006012
	c0.6799927-0.4039917,1.3240051-0.8659973,1.9219971-1.3840027c0.1589966-0.1340027,0.3150024-0.2669983,0.4660034-0.4079895
	c0.5580139-0.5100098,1.071991-1.0650024,1.5360107-1.6619873c0.071991-0.0950012,0.1270142-0.1990051,0.196991-0.2950134
	c0.2739868-0.3670044,0.5289917-0.7479858,0.7640076-1.1409912l52.8659973-91.5670166
	c0.2269897-0.4060059,0.4330139-0.822998,0.6149902-1.25c0.0450134-0.1010132,0.1029968-0.1929932,0.1459961-0.2950134
	L478.9949951,261.1400146z M413.7860107,320.821991l-15.4419861-26.7460022l14.2630005-24.7030029h30.8819885l-29.70401,51.4500122
	L413.7860107,320.821991z M278.3479919,269.3720093h30.8829956l14.2630005,24.7030029l-15.4429932,26.7470093
	L278.3479919,269.3720093z M308.0509949,191.1750031l15.4429932,26.7460022l-14.2630005,24.7050018h-30.8829956
	l29.7030029-51.4519958V191.1750031z M346.6560059,280.7019958l-14.2640076-24.7030029l14.2640076-24.7059937h28.526001
	l14.2640076,24.7059937l-14.2640076,24.7030029H346.6560059z M375.1830139,204.5480042h-28.5270081l-15.4419861-26.7449951
	h59.4110107l-15.4419861,26.7449951H375.1830139z M346.6560059,307.446991h28.526001l15.4419861,26.7470093h-59.4110107
	l15.4429932-26.7470093H346.6560059z M412.6080017,242.6260071l-14.2640076-24.7059937l15.4419861-26.7449951l29.70401,51.451004
	h-30.8819885V242.6260071z"/>
</svg>
