<?xml version="1.0" encoding="UTF-8"?>
<svg id="Layer_1" data-name="Layer 1" xmlns="http://www.w3.org/2000/svg" viewBox="0 0 32 32">
  <defs>
    <style>
      .cls-1 {
        fill: none;
      }
    </style>
  </defs>
  <g>
    <polygon points="15.36 23.2 14.41 24.84 21.72 24.84 20.77 23.2 15.36 23.2"/>
    <polygon points="20.49 14.29 19.91 13.28 19.78 13.04 18.9 13.04 17.24 13.04 15.73 13.04 15.33 13.74 14.34 15.47 14.14 15.82 13.7 16.6 14.14 17.37 14.22 17.5 15.27 19.34 15.73 20.15 15.96 20.15 17.11 20.15 19.02 20.15 19.78 20.15 19.98 19.8 20.55 18.79 21.28 17.5 21.8 16.6 21.16 15.47 20.49 14.29"/>
    <polygon points="8.73 15.47 10.88 15.47 13.58 10.72 12.53 8.89 8.73 15.47"/>
    <polygon points="8.86 17.5 12.6 23.97 13.52 22.37 10.75 17.5 8.86 17.5"/>
    <path d="m30,0H2C.9,0,0,.9,0,2v28c0,1.1.9,2,2,2h28c1.1,0,2-.9,2-2V2c0-1.1-.9-2-2-2Zm-5.92,26.87h-12.12l-5.41-9.37h-1.72l3.89,7.36h1.38v2.01h-2.18l-1.06-1.84-.67-1.16-4.33-7.5,4.33-7.5.67-1.16,1.06-1.84h2.18v2.03h-1.6l-3.81,7.57h1.72l5.54-9.6h12.12l6.06,10.5-6.06,10.5Z"/>
    <polygon points="15.44 9.92 15.48 9.99 20.65 9.99 20.69 9.92 21.86 7.9 14.28 7.9 15.44 9.92"/>
    <polygon points="22.39 11 22.23 11.27 24.63 15.47 24.93 15.47 27.3 15.47 23.55 8.98 22.39 11"/>
    <polygon points="24.75 17.5 22.29 21.81 22.41 22.01 23.49 23.88 27.17 17.5 24.97 17.5 24.75 17.5"/>
  </g>
  <path class="cls-1" d="m14.14,5.87h-2.19l-5.54,9.6h-1.72l3.81-7.57h1.6v-2.03h-2.18l-1.06,1.84-.67,1.16-4.33,7.5,4.33,7.5.67,1.16,1.06,1.84h2.18v-2.01h-1.38l-3.89-7.36h1.72l5.41,9.37h12.12l6.06-10.5-6.06-10.5h-9.94Zm-1.54,18.1l-3.73-6.47h1.89l2.77,4.86-.92,1.6Zm-1.72-8.5h-2.15l3.8-6.58,1.05,1.83-2.71,4.76Zm3.54,9.37l.95-1.64h5.41l.95,1.64h-7.31Zm6.87-7.34l-.73,1.29-.58,1.01-.2.35h-4.05l-.46-.81-1.05-1.84-.08-.14-.44-.77.44-.77.2-.35.99-1.73.4-.7h4.05l.14.24.58,1.01.67,1.18.64,1.12-.52.91Zm-.59-7.58l-.04.07h-5.17l-.04-.07-1.17-2.02h7.58l-1.17,2.02Zm2.8,13.96l-1.08-1.87-.11-.2,2.45-4.31h2.42l-3.68,6.38Zm1.44-8.41h-.3l-2.39-4.21.15-.27,1.17-2.03,3.75,6.5h-2.38Z"/>
</svg>