<!-- Generated by IcoMoon.io -->
<svg version="1.1" xmlns="http://www.w3.org/2000/svg" width="32" height="32" viewBox="0 0 32 32">
<title>hide</title>
<path d="M16 10.5c1.392 0 2.864 0.339 4.373 1.008 1.282 0.568 2.591 1.371 3.89 2.386 0.944 0.738 1.746 1.483 2.366 2.106-0.619 0.623-1.422 1.369-2.366 2.106-1.299 1.016-2.608 1.818-3.89 2.386-1.51 0.669-2.981 1.008-4.373 1.008s-2.864-0.339-4.373-1.008c-1.282-0.568-2.591-1.371-3.89-2.386-0.944-0.738-1.746-1.483-2.366-2.106 0.619-0.623 1.422-1.369 2.366-2.106 1.299-1.016 2.608-1.818 3.89-2.386 1.51-0.669 2.981-1.008 4.373-1.008zM16 8c-7.732 0-14 8-14 8s6.268 8 14 8 14-8 14-8-6.268-8-14-8v0z"></path>
<path d="M20 16c0 2.209-1.791 4-4 4s-4-1.791-4-4c0-2.209 1.791-4 4-4s4 1.791 4 4z"></path>
<path d="M5.029 6.796l1.768-1.768 20.087 20.087-1.768 1.768-20.087-20.087z"></path>
</svg>
