<?xml version="1.0" encoding="utf-8"?>
<!-- Generator: Adobe Illustrator 26.5.0, SVG Export Plug-In . SVG Version: 6.00 Build 0)  -->
<svg version="1.1" id="Layer_1" xmlns="http://www.w3.org/2000/svg" xmlns:xlink="http://www.w3.org/1999/xlink" x="0px" y="0px"
	 viewBox="0 0 24 24" style="enable-background:new 0 0 24 24;" xml:space="preserve">
<path d="M23,11.6c0,0-4.9-6.3-11-6.3c-1.4,0-2.8,0.4-4,0.9L4.8,3L3.4,4.4c0,0,2,2,2.8,2.8C3.1,9,1,11.6,1,11.6s4.9,6.3,11,6.3
	c1.4,0,2.8-0.4,4-0.9c1,1,3.1,3.1,3.1,3.1l1.4-1.4l-2.7-2.7C20.9,14.2,23,11.6,23,11.6z M12,15.9c-1.1,0-2.3-0.3-3.4-0.8
	c-1-0.4-2-1.1-3.1-1.9c-0.7-0.6-1.4-1.2-1.9-1.7c0.5-0.5,1.1-1.1,1.9-1.7c0.7-0.5,1.4-1,2.1-1.4c0.6,0.6,0.9,0.9,1.6,1.6
	c-0.2,0.4-0.3,0.9-0.3,1.4c0,1.7,1.4,3.1,3.1,3.1c0.5,0,1-0.1,1.4-0.3c0.5,0.5,0.6,0.6,1.1,1.1C13.6,15.8,12.8,15.9,12,15.9z
	 M18.5,13.3c-0.7,0.5-1.4,1-2.1,1.4L14.8,13c0.2-0.4,0.3-0.9,0.3-1.4c0-1.7-1.4-3.1-3.1-3.1c-0.5,0-1,0.1-1.4,0.3L9.5,7.7
	c0.9-0.3,1.7-0.4,2.5-0.4c1.1,0,2.3,0.3,3.4,0.8c1,0.4,2,1.1,3.1,1.9c0.7,0.6,1.4,1.2,1.9,1.7C19.9,12.1,19.2,12.7,18.5,13.3z"/>
</svg>
