<?xml version="1.0" encoding="utf-8"?>
<!-- Generator: Adobe Illustrator 26.5.0, SVG Export Plug-In . SVG Version: 6.00 Build 0)  -->
<svg version="1.1" id="Layer_1" xmlns="http://www.w3.org/2000/svg" xmlns:xlink="http://www.w3.org/1999/xlink" x="0px" y="0px"
	 viewBox="0 0 24 24" style="enable-background:new 0 0 24 24;" xml:space="preserve">
<style type="text/css">
	.st0{display:none;}
</style>
<g id="icomoon-ignore" class="st0">
</g>
<path d="M14.1,11.7V7.3h-1.6v5.2l4.5,2.7l0.8-1.3L14.1,11.7z M23,11.4c0,2.6-0.9,4.8-2.8,6.7c-1.8,1.8-4.1,2.8-6.7,2.8
	c-1.1,0-2.3-0.3-3.6-0.8s-2.3-1.2-3.1-1.9l1.5-1.5c1.4,1.4,3.2,2.2,5.2,2.2c2,0,3.8-0.7,5.2-2.1c1.4-1.4,2.2-3.2,2.2-5.2
	s-0.7-3.8-2.2-5.2c-1.4-1.4-3.2-2.1-5.2-2.1S9.8,4.8,8.4,6.2s-2.1,3.2-2.1,5.2h3.1l-4.2,4.2l-0.1-0.1L1,11.4h3.1
	c0-2.6,0.9-4.8,2.8-6.7S11,2,13.6,2s4.8,0.9,6.7,2.8S23,8.8,23,11.4z"/>
</svg>
