<!-- Generated by IcoMoon.io -->
<svg version="1.1" xmlns="http://www.w3.org/2000/svg" width="768" height="768" viewBox="0 0 768 768">
<title></title>
<g id="icomoon-ignore">
</g>
<path fill="#000" d="M384 256.5h48v135l112.5 67.5-24 39-136.5-82.5v-159zM415.5 96q118.5 0 203.25 84t84.75 204-84.75 204-203.25 84q-49.5 0-108.75-24.75t-93.75-59.25l45-46.5q66 66 157.5 66 93 0 159-65.25t66-158.25-66-158.25-159-65.25-158.25 65.25-65.25 158.25h96l-129 129-3-4.5-124.5-124.5h96q0-120 84.75-204t203.25-84z"></path>
</svg>
