<?xml version="1.0" encoding="UTF-8"?><svg id="a" xmlns="http://www.w3.org/2000/svg" viewBox="0 0 24 24"><path d="M20.98999,.03998c-.20001-.02997-.40997-.03998-.60999-.03998H3.67999C1.78998,.01001,.40002,1.19,.09003,3.01996c-.04004,.25-.03003,.5-.04004,.76001V13.03998C.04999,16.22998,.06,19.41998,.04999,22.60999c0,.51001,.16003,.89001,.60004,1.15002,.46997,.28998,.97998,.25,1.38995-.13,.30005-.28003,.58002-.58002,.87-.87,1.13-1.13,2.27002-2.26001,3.39001-3.40002,.16003-.15002,.31-.20001,.52002-.20001h13.56c1.72998,0,3.12-1.06,3.51001-2.70001,.07001-.28998,.09998-.58997,.09998-.88995,.01001-3.99005,.01001-7.99005,0-11.98004,0-1.84998-1.17999-3.22998-3-3.54999Zm-8.72681,1.96027c1.0575,.01703,1.90216,.86493,1.90594,1.91321,.00391,1.0752-.87183,1.93799-1.95752,1.92859-1.05121-.00916-1.8996-.86176-1.90399-1.91333-.00446-1.07819,.87543-1.94586,1.95557-1.92847Zm2.72845,13.57794c-.23413,.42328-.59766,.71503-1.01788,.93408-1.08258,.56421-2.21808,.61292-3.37042,.2796-1.17078-.33868-1.66742-1.03406-1.48669-2.24127,.27649-1.84625,.63019-3.68109,.9621-5.5188,.15137-.83813,.02197-1.03448-.81427-1.14203-.11029-.01416-.22089-.0274-.33032-.047-.3053-.05463-.48627-.24347-.47485-.54852,.01202-.31915,.22913-.46704,.53802-.46887,.66754-.00403,1.33514-.00128,2.00269-.00128v-.00342c.55634,0,1.11273-.00458,1.66901,.00098,1.04987,.01044,1.41522,.44952,1.21533,1.47717-.36511,1.87659-.74011,3.75122-1.1095,5.62695-.04291,.21814-.09546,.43689-.11066,.65765-.04315,.6283,.41156,1.01715,1.01874,.85046,.29626-.08136,.57214-.23822,.85571-.36432,.16876-.07507,.34589-.14343,.49188,.01654,.14923,.16357,.04584,.33887-.03888,.49207Z" fill="#3d98d3"/></svg>