<?xml version="1.0" encoding="utf-8"?>
<!-- Generator: Adobe Illustrator 27.0.0, SVG Export Plug-In . SVG Version: 6.00 Build 0)  -->
<svg version="1.1" id="Layer_1" xmlns="http://www.w3.org/2000/svg" xmlns:xlink="http://www.w3.org/1999/xlink" x="0px" y="0px"
	 viewBox="0 0 24 24" style="enable-background:new 0 0 24 24;" xml:space="preserve">
<style type="text/css">
	.st0{fill:#FFFFFF;}
	.st1{fill:none;}
	.st2{fill:#020202;}
</style>
<g>
	<circle cx="40.1" cy="-13.8" r="11"/>
</g>
<g>
	<circle cx="41" cy="-42" r="11"/>
	<path class="st0" d="M41-43.9c-0.6,0-1.1,0.4-1.1,1.1v4.7c0,0.6,0.5,1.1,1.1,1.1c0.6,0,1.1-0.5,1.1-1.1v-4.7
		C42.1-43.4,41.6-43.9,41-43.9z"/>
	<path class="st0" d="M42-46.4c-0.1,0-0.1-0.1-0.1-0.1c-0.1,0-0.1-0.1-0.1-0.1c0-0.1-0.1-0.1-0.1-0.1c0-0.1-0.1-0.1-0.1-0.1
		c0-0.1-0.1-0.1-0.1-0.1h-0.1h-0.1h-0.1h-0.1H41h-0.1h-0.1h-0.1h-0.1h-0.1c0,0.1-0.1,0-0.1,0.1c0,0.1-0.1,0.1-0.1,0.1
		c0,0.1-0.1,0.1-0.1,0.1c-0.1,0-0.1,0.1-0.1,0.1c-0.1,0-0.1,0.1-0.1,0.1c-0.1,0-0.1,0.1-0.1,0.1v0.1v0.1v0.1v0.1v0.1v0.1v0.1v0.1
		v0.1c0,0-0.1,0.1,0,0.1c0.1,0,0,0.1,0.1,0.1c0.1,0,0.1,0.1,0.1,0.1c0.1,0,0.1,0.1,0.1,0.1c0,0.1,0.1,0.1,0.1,0.1
		c0,0.1,0.1,0.1,0.1,0.1c0,0.1,0.1,0.1,0.1,0.1h0.1h0.1h0.1h0.1c0.1,0,0.1,0,0.2,0h0.1h0.1h0.1h0.1c0-0.1,0.1-0.1,0.1-0.1
		c0-0.1,0.1-0.1,0.1-0.1c0-0.1,0.1-0.1,0.1-0.1c0.1,0,0.1-0.1,0.1-0.1c0.1,0,0.1-0.1,0.1-0.1c0.1,0,0.1-0.1,0.1-0.1v-0.1v-0.1v-0.1
		v-0.1v-0.1v-0.1V-46v-0.1v-0.1L42-46.4C42-46.3,42.1-46.4,42-46.4z"/>
</g>
<path d="M11.7-50.9c2.4,0,4.6,0.9,6.3,2.6c1.7,1.7,2.6,3.9,2.6,6.3c0,2.4-0.9,4.6-2.6,6.3s-3.9,2.6-6.3,2.6S7.1-34,5.4-35.7
	S2.8-39.6,2.8-42c0-2.4,0.9-4.6,2.6-6.3S9.3-50.9,11.7-50.9z M11.7-53c-6.1,0-11,4.9-11,11s4.9,11,11,11s11-4.9,11-11
	S17.8-53,11.7-53L11.7-53z M11.7-43.9c0.6,0,1.1,0.5,1.1,1.1v4.7c0,0.6-0.5,1.1-1.1,1.1s-1.1-0.5-1.1-1.1v-4.7
	C10.6-43.5,11.1-43.9,11.7-43.9z M11.7-46.9h0.1h0.1H12h0.1h0.1c0,0,0.1,0,0.1,0.1c0,0,0.1,0,0.1,0.1c0,0,0.1,0,0.1,0.1
	c0,0,0,0.1,0.1,0.1c0,0,0,0.1,0.1,0.1s0,0.1,0.1,0.1v0.1v0.1v0.1v0.1v0.1v0.1v0.1v0.1v0.1v0.1c0,0,0,0.1-0.1,0.1c0,0,0,0.1-0.1,0.1
	c0,0,0,0.1-0.1,0.1c0,0-0.1,0-0.1,0.1c0,0-0.1,0-0.1,0.1c0,0-0.1,0-0.1,0.1h-0.1H12h-0.1h-0.1c-0.1,0-0.1,0-0.2,0h-0.1h-0.1h-0.1
	h-0.1c0,0-0.1,0-0.1-0.1c0,0-0.1,0-0.1-0.1c0,0-0.1,0-0.1-0.1c0,0,0-0.1-0.1-0.1c0,0,0-0.1-0.1-0.1s0-0.1-0.1-0.1s0-0.1,0-0.1v-0.1
	v-0.1v-0.1v-0.1v-0.1V-46v-0.1v-0.1v-0.1c0,0,0-0.1,0.1-0.1c0,0,0-0.1,0.1-0.1c0,0,0-0.1,0.1-0.1c0,0,0.1,0,0.1-0.1
	c0,0,0.1,0,0.1-0.1c0-0.1,0.1,0,0.1-0.1h0.1h0.1h0.1H11.7C11.6-46.9,11.7-46.9,11.7-46.9z"/>
<g>
	<circle cx="40.7" cy="-68.7" r="11"/>
	<circle class="st0" cx="40.7" cy="-73.6" r="1.1"/>
	<path class="st0" d="M40.7-70.6c-0.6,0-1.1,0.4-1.1,1.1v4.7c0,0.6,0.5,1.1,1.1,1.1c0.6,0,1.1-0.5,1.1-1.1v-4.7
		C41.8-70.1,41.3-70.6,40.7-70.6z"/>
</g>
<g>
	<path class="st1" d="M18.5-74.9c-1.7-1.7-3.9-2.6-6.3-2.6s-4.6,0.9-6.3,2.6c-1.7,1.7-2.6,3.9-2.6,6.3s0.9,4.6,2.6,6.3
		c1.7,1.7,3.9,2.6,6.3,2.6s4.6-0.9,6.3-2.6c1.7-1.7,2.6-3.9,2.6-6.3S20.2-73.2,18.5-74.9z M13.3-64.7c0,0.6-0.5,1.1-1.1,1.1
		c-0.6,0-1.1-0.5-1.1-1.1v-4.7c0-0.7,0.5-1.1,1.1-1.1c0.6,0,1.1,0.5,1.1,1.1V-64.7z M13.3-72.8v0.1v0.1v0.1v0.1v0.1v0.1v0.1v0.1v0.1
		c0,0,0,0.1-0.1,0.1c0,0,0,0.1-0.1,0.1c0,0,0,0.1-0.1,0.1c0,0-0.1,0-0.1,0.1c0,0-0.1,0-0.1,0.1c0,0-0.1,0-0.1,0.1h-0.1h-0.1h-0.1
		h-0.1c-0.1,0-0.1,0-0.2,0H12h-0.1h-0.1h-0.1c0,0-0.1,0-0.1-0.1c0,0-0.1,0-0.1-0.1c0,0-0.1,0-0.1-0.1c0,0,0-0.1-0.1-0.1
		c0,0,0-0.1-0.1-0.1c-0.1,0,0-0.1-0.1-0.1c-0.1,0,0-0.1,0-0.1v-0.1v-0.1v-0.1v-0.1v-0.1v-0.1v-0.1v-0.1v-0.1c0,0,0-0.1,0.1-0.1
		c0,0,0-0.1,0.1-0.1c0,0,0-0.1,0.1-0.1c0,0,0.1,0,0.1-0.1c0,0,0.1,0,0.1-0.1c0-0.1,0.1,0,0.1-0.1h0.1h0.1H12h0.1h0.1h0.1h0.1h0.1
		h0.1h0.1c0,0,0.1,0,0.1,0.1c0,0,0.1,0,0.1,0.1c0,0,0.1,0,0.1,0.1c0,0,0,0.1,0.1,0.1c0,0,0,0.1,0.1,0.1C13.3-73,13.2-72.9,13.3-72.8
		L13.3-72.8z"/>
	<path d="M12.2-70.5c-0.6,0-1.1,0.4-1.1,1.1v4.7c0,0.6,0.5,1.1,1.1,1.1c0.6,0,1.1-0.5,1.1-1.1v-4.7C13.3-70,12.8-70.5,12.2-70.5z"/>
	<path d="M12.2-79.6c-6.1,0-11,4.9-11,11s4.9,11,11,11s11-4.9,11-11S18.3-79.6,12.2-79.6z M18.5-62.3c-1.7,1.7-3.9,2.6-6.3,2.6
		s-4.6-0.9-6.3-2.6c-1.7-1.7-2.6-3.9-2.6-6.3s0.9-4.6,2.6-6.3c1.7-1.7,3.9-2.6,6.3-2.6s4.6,0.9,6.3,2.6c1.7,1.7,2.6,3.9,2.6,6.3
		S20.2-64,18.5-62.3z"/>
</g>
<circle cx="12.2" cy="-73.5" r="1.1"/>
<g id="circle-info-solid">
	<g>
		<path class="st2" d="M41.2,14.7h-0.1v-2.9c0-0.8-0.6-1.4-1.4-1.4h-1.2c-0.8,0-1.3,0.6-1.4,1.4c0,0.4,0.1,0.7,0.4,1
			c0.2,0.2,0.5,0.4,0.8,0.4v1.5h-0.2c-0.8,0-1.4,0.7-1.4,1.5c0,0.4,0.2,0.7,0.5,1s0.7,0.4,1,0.4h3.2c0.4,0,0.7-0.2,1-0.5
			c0.3-0.3,0.4-0.6,0.4-1C42.7,15.3,42,14.6,41.2,14.7z M41.3,16.6h-3.1c-0.1,0-0.2,0-0.3-0.1c-0.1-0.1-0.1-0.2-0.1-0.3
			c0-0.2,0.2-0.4,0.5-0.4h1.1v-3.5h-0.8c-0.1,0-0.2,0-0.3-0.1c-0.1-0.1-0.1-0.2-0.1-0.3c0-0.2,0.2-0.4,0.4-0.4h1.2
			c0.2,0,0.4,0.2,0.4,0.4v3.9h1.1c0.2,0,0.4,0.2,0.4,0.4C41.7,16.3,41.5,16.5,41.3,16.6z"/>
	</g>
	<path d="M41.4,8.4c0,1-0.8,1.7-1.7,1.7c-1,0-1.7-0.8-1.7-1.7c0-1,0.8-1.7,1.7-1.7C40.6,6.7,41.4,7.5,41.4,8.4z"/>
</g>
<path id="circle-info-solid_00000129902264535960339400000011108213210191510931_" d="M11.6,2.1c-5.4,0-9.9,4.4-9.9,9.9
	s4.4,9.9,9.9,9.9s9.9-4.4,9.9-9.9C21.4,6.5,17,2.1,11.6,2.1C11.6,2.1,11.6,2.1,11.6,2.1z M11.6,7.1c0.7,0,1.2,0.6,1.2,1.2
	c0,0.7-0.6,1.2-1.2,1.2c-0.7,0-1.2-0.6-1.2-1.2C10.4,7.6,10.9,7.1,11.6,7.1C11.6,7.1,11.6,7.1,11.6,7.1z M13.1,16.9H10
	c-0.5,0-0.9-0.4-1-0.9s0.4-0.9,0.9-1c0,0,0,0,0.1,0h0.6v-2.5h-0.3c-0.5,0-0.9-0.4-0.9-1c0-0.5,0.4-0.9,0.9-0.9h1.2
	c0.5,0,0.9,0.4,0.9,0.9l0,0v3.4h0.6c0.5,0,0.9,0.4,1,0.9C14.1,16.5,13.7,16.9,13.1,16.9C13.2,16.9,13.1,16.9,13.1,16.9L13.1,16.9z"
	/>
<text transform="matrix(1 0 0 1 36.5963 -9.9685)" class="st0" style="font-family:'Inconsolata-Regular'; font-size:14px;">i</text>
<g>
	<path class="st1" d="M18-20.1c-1.7-1.7-3.9-2.6-6.3-2.6c-2.4,0-4.6,0.9-6.3,2.6c-1.7,1.7-2.6,3.9-2.6,6.3c0,2.4,0.9,4.6,2.6,6.3
		s3.9,2.6,6.3,2.6c2.4,0,4.6-0.9,6.3-2.6c1.7-1.7,2.6-3.9,2.6-6.3C20.6-16.2,19.7-18.4,18-20.1z M12.8-9.9c0,0.6-0.5,1.1-1.1,1.1
		c-0.6,0-1.1-0.5-1.1-1.1v-4.7c0-0.7,0.5-1.1,1.1-1.1c0.6,0,1.1,0.5,1.1,1.1V-9.9z"/>
	<path d="M11.7-24.8c-6.1,0-11,4.9-11,11c0,6.1,4.9,11,11,11c6.1,0,11-4.9,11-11C22.7-19.9,17.8-24.8,11.7-24.8z M18-7.5
		c-1.7,1.7-3.9,2.6-6.3,2.6c-2.4,0-4.6-0.9-6.3-2.6s-2.6-3.9-2.6-6.3c0-2.4,0.9-4.6,2.6-6.3c1.7-1.7,3.9-2.6,6.3-2.6
		c2.4,0,4.6,0.9,6.3,2.6c1.7,1.7,2.6,3.9,2.6,6.3C20.6-11.4,19.7-9.2,18-7.5z"/>
	<path d="M39.5,1.1c-6.1,0-11,4.9-11,11c0,6.1,4.9,11,11,11c6.1,0,11-4.9,11-11C50.5,6,45.6,1.1,39.5,1.1z M45.8,18.4
		c-1.7,1.7-3.9,2.6-6.3,2.6c-2.4,0-4.6-0.9-6.3-2.6c-1.7-1.7-2.6-3.9-2.6-6.3c0-2.4,0.9-4.6,2.6-6.3c1.7-1.7,3.9-2.6,6.3-2.6
		c2.4,0,4.6,0.9,6.3,2.6c1.7,1.7,2.6,3.9,2.6,6.3C48.4,14.5,47.5,16.7,45.8,18.4z"/>
</g>
<text transform="matrix(1 0 0 1 8.1413 -9.9685)" style="font-family:'Inconsolata-Regular'; font-size:14px;">i</text>
</svg>
