<?xml version="1.0" encoding="utf-8"?>
<!-- Generator: Adobe Illustrator 27.0.1, SVG Export Plug-In . SVG Version: 6.00 Build 0)  -->
<svg version="1.1" id="Layer_1" xmlns="http://www.w3.org/2000/svg" xmlns:xlink="http://www.w3.org/1999/xlink" x="0px" y="0px"
	 viewBox="0 0 24 24" style="enable-background:new 0 0 24 24;" xml:space="preserve">
<path d="M12,2.1c-5.4,0-9.9,4.4-9.9,9.9s4.4,9.9,9.9,9.9s9.9-4.4,9.9-9.9C21.8,6.5,17.4,2.1,12,2.1z M11.4,6.9
	c0.7,0,1.2,0.6,1.2,1.2c0,0.7-0.6,1.2-1.2,1.2c-0.7,0-1.2-0.6-1.2-1.2C10.2,7.4,10.8,6.9,11.4,6.9z M13.5,16.9h-3.1
	c-0.5,0-0.9-0.4-1-0.9s0.4-0.9,0.9-1c0,0,0,0,0.1,0H11v-2.5h-0.3c-0.5,0-0.9-0.4-0.9-1c0-0.5,0.4-0.9,0.9-0.9h1.2
	c0.5,0,0.9,0.4,0.9,0.9v3.4h0.6c0.5,0,0.9,0.4,1,0.9C14.5,16.5,14.1,16.9,13.5,16.9z"/>
</svg>
