<!-- Generated by IcoMoon.io -->
<svg version="1.1" xmlns="http://www.w3.org/2000/svg" width="32" height="32" viewBox="0 0 32 32">
<title>info</title>
<path d="M16 5.7c2.751 0 5.338 1.071 7.283 3.017s3.017 4.532 3.017 7.283-1.071 5.338-3.017 7.283c-1.945 1.945-4.532 3.017-7.283 3.017s-5.338-1.071-7.283-3.017c-1.945-1.945-3.017-4.532-3.017-7.283s1.071-5.338 3.017-7.283 4.532-3.017 7.283-3.017zM16 3.2c-7.069 0-12.8 5.731-12.8 12.8s5.731 12.8 12.8 12.8 12.8-5.731 12.8-12.8-5.731-12.8-12.8-12.8v0z"></path>
<path d="M16 13.752c0.69 0 1.25 0.56 1.25 1.25v5.49c0 0.69-0.56 1.25-1.25 1.25s-1.25-0.56-1.25-1.25v-5.49c0-0.69 0.56-1.25 1.25-1.25z"></path>
<path d="M16 10.259c0.041 0 0.082 0.002 0.123 0.006 0.040 0.004 0.081 0.010 0.121 0.018s0.079 0.018 0.119 0.030c0.039 0.012 0.078 0.026 0.115 0.042s0.075 0.032 0.111 0.052c0.036 0.019 0.071 0.040 0.105 0.063s0.067 0.048 0.099 0.073c0.032 0.026 0.063 0.054 0.091 0.082s0.057 0.059 0.082 0.091c0.026 0.031 0.051 0.065 0.073 0.099s0.044 0.069 0.063 0.105c0.019 0.036 0.037 0.073 0.052 0.111s0.029 0.076 0.041 0.116c0.012 0.039 0.022 0.079 0.030 0.118 0.008 0.041 0.014 0.081 0.018 0.122s0.006 0.082 0.006 0.123c0 0.041-0.002 0.082-0.006 0.123s-0.010 0.081-0.018 0.121c-0.008 0.040-0.018 0.080-0.030 0.119s-0.026 0.078-0.041 0.115c-0.016 0.038-0.033 0.075-0.052 0.111s-0.040 0.071-0.063 0.105c-0.023 0.034-0.048 0.068-0.073 0.099s-0.054 0.063-0.082 0.091c-0.029 0.029-0.059 0.057-0.091 0.083s-0.064 0.050-0.099 0.072c-0.034 0.022-0.069 0.044-0.105 0.063s-0.073 0.037-0.111 0.053-0.076 0.029-0.115 0.041c-0.039 0.012-0.079 0.022-0.119 0.030s-0.081 0.014-0.121 0.018c-0.082 0.008-0.164 0.008-0.246 0-0.040-0.004-0.081-0.010-0.121-0.018s-0.079-0.018-0.119-0.030c-0.039-0.012-0.078-0.026-0.115-0.041s-0.075-0.033-0.111-0.053c-0.036-0.019-0.071-0.040-0.105-0.063s-0.068-0.047-0.099-0.072c-0.032-0.026-0.063-0.054-0.091-0.083s-0.057-0.059-0.083-0.091c-0.026-0.031-0.051-0.064-0.073-0.099s-0.044-0.069-0.063-0.105c-0.019-0.036-0.037-0.073-0.053-0.111s-0.029-0.076-0.041-0.115c-0.012-0.039-0.022-0.079-0.030-0.119s-0.014-0.081-0.018-0.121c-0.004-0.041-0.006-0.083-0.006-0.123s0.002-0.082 0.006-0.123c0.004-0.041 0.010-0.081 0.018-0.122 0.008-0.039 0.018-0.079 0.030-0.118s0.026-0.078 0.041-0.116 0.033-0.074 0.053-0.111c0.019-0.036 0.040-0.071 0.063-0.105s0.047-0.068 0.073-0.099c0.026-0.032 0.054-0.063 0.083-0.091s0.059-0.057 0.091-0.082c0.031-0.026 0.064-0.050 0.099-0.073s0.069-0.043 0.105-0.063c0.036-0.019 0.073-0.037 0.111-0.052s0.076-0.030 0.115-0.042c0.039-0.012 0.079-0.022 0.119-0.030s0.081-0.014 0.121-0.018c0.041-0.004 0.082-0.006 0.123-0.006z"></path>
</svg>
