<?xml version="1.0" encoding="UTF-8"?>
<svg id="Layer_1" data-name="Layer 1" xmlns="http://www.w3.org/2000/svg" viewBox="0 0 32 32">
  <path d="m30.03,0H2.03C.92,0,.03.9.03,2v28c0,1.1.9,2,2,2h28c1.1,0,2-.9,2-2V2c0-1.1-.9-2-2-2ZM13.78,21.55l-6.06,3.5c-.72.41-1.63.17-2.05-.55-.41-.72-.17-1.63.55-2.05l6.06-3.5c.72-.41,1.63-.17,2.05.55.41.72.17,1.63-.55,2.05Zm2.75-4.8h-1c-.55,0-1-.45-1-1V7.75c0-.55.45-1,1-1h1c.55,0,1,.45,1,1v8c0,.55-.45,1-1,1Zm9.8,7.75c-.41.72-1.33.96-2.05.55l-6.06-3.5c-.72-.41-.96-1.33-.55-2.05.41-.72,1.33-.96,2.05-.55l6.06,3.5c.72.41.96,1.33.55,2.05Z"/>
</svg>