<?xml version="1.0" encoding="UTF-8" standalone="no"?>
<svg
   xmlns="http://www.w3.org/2000/svg"
   viewBox="0 0 24 24"
   y="0px"
   x="0px"
   version="1.1">
  <path
   style="stroke-width:0.025"
   d="m 4.0952375,19.357143 q -0.825,0 -1.4125,-0.5875 -0.5875,-0.5875 -0.5875,-1.4125 V 7.3571429 q 0,-0.825 0.5875,-1.4125 0.5875,-0.5875 1.4125,-0.5875 H 20.095239 q 0.825,0 1.4125,0.5875 0.5875,0.5875 0.5875,1.4125 V 17.357143 q 0,0.825 -0.5875,1.4125 -0.5875,0.5875 -1.4125,0.5875 z m 0,-2 H 20.095239 V 7.3571429 H 4.0952375 Z m 4,-1 h 8.0000015 v -2 H 8.0952375 Z m -3,-3 h 2 v -2 h -2 z m 3,0 H 10.09524 v -2 H 8.0952375 Z m 3.0000015,0 h 2 v -2 h -2 z m 3,0 h 2 v -2 h -2 z m 3,0 h 2 v -2 h -2 z m -12.0000015,-3 h 2 V 8.3571429 h -2 z m 3,0 H 10.09524 V 8.3571429 H 8.0952375 Z m 3.0000015,0 h 2 V 8.3571429 h -2 z m 3,0 h 2 V 8.3571429 h -2 z m 3,0 h 2 V 8.3571429 h -2 z m -13.0000015,7 V 7.3571429 Z"
   id="path833" />
  </svg>
