<?xml version="1.0" encoding="UTF-8"?>
<svg id="Layer_1" data-name="Layer 1" xmlns="http://www.w3.org/2000/svg" viewBox="0 0 32 32">
  <path d="m8.48,9.58v9.06c0,4.13,7.47,7.47,7.47,7.47,0,0,7.47-3.35,7.47-7.47v-9.06l-7.47-3.63-7.47,3.63Zm8.26,1.54l2.7,1.3.78.38.19.85.67,2.92.19.85-.54.68-1.87,2.35-.54.68h-4.74l-.54-.68-1.87-2.34-.54-.68.19-.85.67-2.92.19-.85.78-.38,2.7-1.3.78-.38h0s.78.38.78.38Z"/>
  <polygon points="13.25 14.05 12.58 16.97 14.45 19.31 17.45 19.31 19.32 16.97 18.65 14.04 15.95 12.74 15.95 12.74 13.25 14.05"/>
  <path d="m30,0H2C.9,0,0,.9,0,2v28c0,1.1.9,2,2,2h28c1.1,0,2-.9,2-2V2c0-1.1-.9-2-2-2Zm-3.03,18.64c0,2.91-1.75,5.66-5.21,8.16-1.37.99-2.83,1.84-4.37,2.55l-1.45.65-1.45-.65c-1.53-.71-3-1.57-4.37-2.55-3.45-2.5-5.21-5.25-5.21-8.16V7.35l2-.97,7.47-3.63,1.55-.75,1.55.75,7.47,3.63,2,.97v11.29Z"/>
</svg>