<?xml version="1.0" encoding="UTF-8"?>
<svg id="Layer_1" data-name="Layer 1" xmlns="http://www.w3.org/2000/svg" viewBox="0 0 32 32">
  <defs>
    <style>
      .cls-1 {
        fill: #171321;
      }
    </style>
  </defs>
  <path class="cls-1" d="m14.45,13.88c.29,0,.54-.22.54-.51l.16-3.2-.64.13c-1.12.26-2.14.83-2.98,1.63l2.66,1.89c.1.03.16.06.26.06Z"/>
  <path class="cls-1" d="m13.04,15.96c.19-.22.16-.54-.06-.74l-2.37-2.11c-.7,1.18-1.02,2.56-.93,3.91l3.1-.9c.13-.03.19-.06.26-.16Z"/>
  <path class="cls-1" d="m13.23,17.97l-3.17.54c.45,1.28,1.34,2.4,2.46,3.14l1.22-2.94c.06-.1.06-.22.03-.32-.03-.26-.29-.42-.54-.42Z"/>
  <polygon class="cls-1" points="15.09 17.08 15.95 17.49 16.81 17.08 17.04 16.15 16.43 15.38 15.47 15.38 14.86 16.15 15.09 17.08"/>
  <path class="cls-1" d="m16.97,13.65c.16.22.48.26.7.13l2.62-1.86c-.96-.96-2.21-1.57-3.62-1.73l.19,3.23c0,.1.03.16.1.22Z"/>
  <path class="cls-1" d="m21.26,13.11l-2.4,2.18c-.06.06-.1.13-.13.22-.06.29.1.58.38.64l3.04.86c.06-.67.03-1.34-.13-2.02s-.42-1.31-.77-1.89Z"/>
  <path class="cls-1" d="m30,18.49l-2.43-10.47c-.16-.51-.54-.93-1.02-1.18l-9.76-4.67c-.26-.13-.54-.16-.8-.16s-.54,0-.8.06L5.42,6.77c-.48.22-.83.64-.96,1.18l-2.4,10.53c-.1.54.03,1.09.35,1.54l6.75,8.35c.38.38.93.64,1.47.67h10.76c.58.06,1.12-.19,1.47-.67l6.75-8.35c.32-.45.45-.99.38-1.54Zm-4,.7c-.06,0-.1,0-.16-.03t-.06-.03c-.06,0-.1-.03-.13-.03-.13-.03-.22-.1-.35-.16-.06,0-.13-.03-.19-.06h-.03c-.32-.13-.67-.22-1.02-.29h-.03c-.1,0-.19.03-.26.1,0,0,0,.03-.03.03l-.26-.03c-.58,1.82-1.82,3.36-3.46,4.35l.1.26s-.03,0-.03.03c-.06.1-.06.22-.03.32.13.32.29.64.51.93v.06c.06.06.1.1.13.16.1.1.16.19.22.32.03.03.06.06.06.1,0,0,.03,0,.03.03.06.16.06.32.03.48-.03.16-.16.29-.29.35-.1.03-.16.06-.26.06-.26,0-.48-.16-.61-.38-.03,0-.03-.03-.03-.03-.03-.03-.03-.06-.06-.1-.06-.1-.1-.22-.13-.35l-.06-.19v-.03c-.1-.35-.26-.67-.42-.99-.06-.1-.16-.16-.26-.19t-.03-.03l-.13-.22c-.32.1-.67.22-1.02.29-.58.16-1.15.22-1.73.22-.96,0-1.89-.16-2.78-.51l-.13.26s0,.03-.03.03c-.1.03-.19.1-.26.19-.16.32-.32.64-.42.99l-.06.19c-.03.13-.1.22-.13.35-.03.03-.06.06-.06.1-.03,0-.03.03-.03.03-.13.22-.35.38-.61.38-.06,0-.16-.03-.22-.06-.29-.16-.42-.54-.26-.86.03,0,.03-.03.03-.03.03-.03.03-.06.06-.1.1-.13.16-.26.22-.32s.1-.1.13-.16v-.03c.19-.29.38-.61.51-.93.03-.1.03-.22-.03-.32,0,0-.03,0-.03-.03l.16-.22c-.32-.16-.58-.35-.86-.58-1.25-.96-2.14-2.27-2.62-3.75l-.29.03s0-.03-.03-.03c-.06-.06-.16-.1-.26-.1h-.03c-.38.06-.7.16-1.06.29h-.03c-.06,0-.13.03-.19.06-.1.03-.22.1-.35.13-.03,0-.13-.03-.13,0s0,.03-.03.03c-.06.03-.1.03-.16.03-.29.03-.58-.16-.64-.45-.06-.35.16-.67.51-.74t.06-.03c.06,0,.1-.03.13-.03.13,0,.26-.03.38-.03.06-.03.13-.03.19-.03.38-.03.74-.1,1.09-.19.1-.06.19-.13.22-.22,0,0,.03,0,.03-.03l.26-.06c-.29-1.82.13-3.68,1.12-5.25.03-.06.06-.1.1-.16l-.19-.19v.03c.03-.1-.03-.22-.1-.29-.26-.26-.58-.45-.9-.64-.06-.03-.13-.06-.19-.1-.13-.06-.26-.13-.35-.19-.03,0-.1-.06-.1-.06,0,0,0-.03-.03-.03-.26-.22-.32-.61-.13-.9.1-.16.26-.22.45-.22.16,0,.32.06.45.16l.03.03s.06.03.1.06c.1.1.16.19.26.29.03.03.1.06.13.13.22.26.51.51.8.74.06.03.13.06.19.06s.1-.03.13-.03h.03l.19.13c1.06-1.12,2.43-1.92,3.94-2.24.38-.06.74-.13,1.09-.16l.03-.26v-.06c.1-.06.13-.16.16-.26,0-.38,0-.74-.06-1.09v-.03c0-.06,0-.13-.03-.19-.03-.13-.06-.26-.06-.38v-.16c0-.16.06-.32.19-.45.16-.16.35-.26.54-.22.32.03.58.35.54.67v.19c-.03.13-.03.26-.06.38,0,.06-.03.13-.03.19v.03c-.06.38-.06.74-.06,1.09.03.1.06.19.16.26v-.03l.03.26c1.5.16,2.98.74,4.16,1.66.26.26.54.51.8.77l.26-.16h.03s.1.03.13.03c.06,0,.13-.03.19-.06.29-.19.58-.45.8-.7.03-.03.1-.06.13-.13.06-.1.16-.19.26-.29.03,0,.06-.03.1-.06l.03-.03c.13-.1.29-.16.45-.16s.35.1.45.22c.22.29.16.67-.13.9,0,.03.03.03,0,.06s-.06.03-.1.06c-.13.06-.22.13-.35.19-.06.03-.13.06-.19.1-.32.19-.61.38-.9.64-.06.06-.1.19-.1.29v.03l-.19.19c.51.8.9,1.7,1.12,2.62.19.93.26,1.89.13,2.82l.26.06c.03.1.13.19.22.22.35.1.74.16,1.09.19h.03c.06.03.13.03.19.03.13,0,.26,0,.38.03.06,0,.13,0,.13.03s.03.03.06.03c.29.06.54.32.58.67-.1.26-.35.45-.64.45Z"/>
  <path class="cls-1" d="m18.35,18.01c-.22.1-.35.35-.29.61l1.25,3.01c.77-.48,1.44-1.15,1.92-1.92.26-.35.45-.77.61-1.22l-3.2-.54c-.1,0-.19.03-.29.06Z"/>
  <path class="cls-1" d="m16.14,19.35c-.22-.13-.48-.06-.64.13l-1.57,2.85c.64.19,1.34.32,2.02.32.48,0,.93-.06,1.38-.16.22-.06.42-.1.61-.13l-1.54-2.78c-.1-.1-.16-.16-.26-.22Z"/>
</svg>