<!-- Generated by IcoMoon.io -->
<svg version="1.1" xmlns="http://www.w3.org/2000/svg" width="512" height="512" viewBox="0 0 512 512">
<title></title>
<g id="icomoon-ignore">
</g>
<path fill="#000" d="M213.495 168.563c0.488 0.376 1.154 0.996 1.958 1.75 1.608 1.506 3.784 3.58 6.416 5.666 5.264 4.171 12.569 8.415 21.829 8.415 9.273 0 18.020-4.316 25.412-8.582 3.696-2.133 7.060-4.238 9.914-5.833s5.275-2.625 6.666-2.708l-0.166-3.041h-0c-2.44 0.146-5.024 1.381-7.998 3.041s-6.332 3.782-9.957 5.874c-7.251 4.185-15.576 8.207-23.871 8.207-8.308 0-14.934-3.845-19.913-7.791-2.489-1.972-4.566-3.962-6.207-5.499-0.821-0.768-1.544-1.446-2.208-1.958s-1.18-1-2.291-1l-0.083 2.333c-0.081 0.781-0.157 0.77-0.125 0.792 0.052 0.034 0.324 0.101 0.625 0.333z"></path>
<path fill="#000" d="M412.668 374.151c-2.892-3.267-4.267-9.298-5.749-15.747-1.481-6.445-3.166-13.408-8.457-17.913-0.012-0.011-0.029 0.011-0.043 0-2.106-1.835-4.253-3.121-6.457-3.957 7.356-21.818 4.426-43.524-3-63.156-9.114-24.094-25.008-45.127-37.16-59.489-13.601-17.157-26.882-33.39-26.62-57.448 0.406-36.719 3.999-104.852-60.614-104.939l0-0.001c-2.627 0-5.35 0.105-8.207 0.334-72.206 5.816-53.043 82.104-54.115 107.647-1.319 18.68-5.108 33.395-17.955 51.657-15.094 17.95-36.383 46.995-46.45 77.237-4.751 14.272-7.004 28.849-4.916 42.618-0.654 0.586-1.241 1.201-1.833 1.833-4.431 4.731-7.725 10.471-11.373 14.331-3.409 3.4-8.244 4.709-13.581 6.624-5.339 1.916-11.231 4.712-14.789 11.539 0 0.012 0 0.031 0 0.041-3.221 6.016-2.275 12.952-1.291 19.372s1.989 12.466 0.666 16.581c-4.225 11.55-4.766 19.534-1.791 25.329 2.981 5.807 9.112 8.385 16.039 9.832 13.855 2.894 32.622 2.161 47.408 9.998v0.042c15.83 8.277 31.897 11.173 44.701 8.248 9.283-2.12 16.793-7.616 20.663-16.122 10.015-0.049 21.014-4.322 38.618-5.291 11.942-0.962 26.833 4.244 43.993 3.291 0.449 1.861 1.152 3.63 2.041 5.332 0.014 0.019-0.014 0.065 0 0.083 6.652 13.302 19.031 19.369 32.202 18.33 13.189-1.041 27.2-8.798 38.535-22.288l-2.083-1.75 2.083 1.708c10.804-13.101 28.769-18.532 40.659-25.704 5.945-3.586 10.75-8.059 11.123-14.58 0.373-6.519-3.447-13.81-12.248-23.579v-0.041zM253.113 134.402c-0.052-4.796 0.738-8.9 2.583-13.081s4.158-7.181 7.374-9.623c3.215-2.442 6.339-3.59 10.082-3.624h0.207c3.666 0 6.782 1.082 9.998 3.416 3.267 2.371 5.643 5.353 7.541 9.498 1.862 4.040 2.745 7.974 2.833 12.665 0 0.123 0.009 0.251 0.043 0.375 0.035 4.814-0.798 8.899-2.625 13.081-1.043 2.386-2.233 4.39-3.666 6.124-0.486-0.233-1.017-0.451-1.541-0.667-3.632-1.555-6.426-2.569-8.748-3.375 0.842-1.012 1.55-2.208 2.166-3.708 0.931-2.266 1.411-4.488 1.5-7.124 0-0.105 0.042-0.169 0.042-0.292 0.053-2.53-0.303-4.702-1.041-6.916-0.773-2.319-1.784-3.986-3.207-5.374s-2.837-2.030-4.541-2.083c-0.079-0.011-0.171 0-0.25 0-1.603 0.010-2.976 0.544-4.416 1.749-1.511 1.265-2.651 2.876-3.583 5.124s-1.37 4.512-1.458 7.166c-0.019 0.105-0.042 0.186-0.042 0.292-0.030 1.458 0.067 2.786 0.291 4.083-3.279-1.635-6.348-2.768-9.249-3.458-0.165-1.255-0.261-2.521-0.292-3.875v-0.375zM210.537 124.071c1.142-3.689 2.661-6.344 4.875-8.54s4.435-3.317 7.124-3.458h0c0.21-0.011 0.419 0 0.625 0 2.433 0 4.581 0.826 6.832 2.624 2.442 1.95 4.328 4.444 5.874 7.957s2.355 7.019 2.583 11.164c0.11 1.742 0.095 3.411-0.042 4.999-0.481 0.137-0.954 0.299-1.417 0.458-2.623 0.903-4.943 2.086-6.957 3.416 0.197-1.392 0.234-2.8 0.083-4.374-0.020-0.088 0-0.162 0-0.25-0.211-2.090-0.679-3.85-1.417-5.624-0.791-1.845-1.673-3.123-2.833-4.125-1.050-0.907-2.032-1.302-3.125-1.291-0.113 0-0.218-0.011-0.333 0-1.23 0.105-2.284 0.698-3.25 1.874s-1.584 2.65-2.042 4.583c-0.457 1.933-0.568 3.821-0.375 5.999v0.25c0.21 2.108 0.661 3.85 1.417 5.624 0.773 1.827 1.631 3.123 2.791 4.125 0.194 0.168 0.392 0.323 0.583 0.458-1.206 0.928-1.761 1.357-2.75 2.083-0.634 0.465-1.372 1.020-2.25 1.667-1.913-1.792-3.444-4.032-4.749-6.999-1.546-3.513-2.379-7.018-2.625-11.165v-0.042c-0.228-4.146 0.233-7.725 1.375-11.415zM212.37 160.606c3.815-2.859 6.483-4.786 8.249-6.082 1.754-1.287 2.482-1.797 3.041-2.333 2.867-2.714 7.442-7.668 14.331-10.040 2.371-0.816 4.996-1.363 7.957-1.375v0h0c-0 0-0 0-0 0l0.042 0.042c5.653-0.023 12.427 1.828 20.663 7.124 5.058 3.29 9.016 3.575 18.080 7.457 4.361 1.79 6.956 4.126 8.207 6.582s1.255 5.113 0.208 7.916c-2.094 5.603-8.786 11.486-18.163 14.414v0.042c-4.572 1.486-8.589 4.769-13.289 7.457s-10.015 4.834-17.247 4.416c-6.156-0.359-9.837-2.45-13.164-5.124s-6.21-6.005-10.457-8.499v-0.042c-6.84-3.866-10.617-8.33-11.79-12.206s-0.060-7.205 3.333-9.749zM215.077 427.226v0.084c-0.969 12.75-8.165 19.683-19.205 22.204-11.037 2.521-26.006-0.014-40.951-7.832-16.535-8.757-36.207-7.904-48.825-10.539-6.311-1.318-10.442-3.276-12.331-6.957s-1.891-10.086 2.124-21.038v-0.125c1.986-6.127 0.548-12.829-0.416-19.122s-1.482-12.008 0.666-15.997l0.041-0.041c2.751-5.303 6.782-7.202 11.79-8.998s10.933-3.216 15.622-7.915h0.042v-0.041c4.335-4.573 7.604-10.304 11.415-14.373 3.215-3.433 6.44-5.715 11.29-5.749h0.166c0.839 0.002 1.763 0.107 2.708 0.25 6.435 0.975 12.006 5.455 17.413 12.789s10.492 17.349 15.664 28.454v0.041c4.156 8.675 12.898 18.181 20.33 27.911s13.205 19.52 12.456 26.995zM213.745 406.563c-2.048-3.24-4.373-6.457-6.791-9.623-1.544-2.022-3.131-4.018-4.708-5.999 3.102 0 5.743-0.534 7.874-1.5 2.65-1.202 4.494-3.104 5.416-5.582 1.843-4.955-0.020-11.93-5.916-19.913-5.897-7.982-15.86-16.995-30.536-25.995-10.782-6.708-16.841-14.944-19.663-23.87-2.822-8.928-2.384-18.589-0.208-28.12 4.175-18.295 14.859-36.075 21.704-47.242 1.843-1.356 0.673 2.488-6.916 16.581-6.801 12.884-19.534 42.654-2.125 65.863 0.465-16.517 4.459-33.359 11.082-49.117 9.645-21.864 29.809-59.807 31.411-90.025 0.826 0.6 3.65 2.53 4.916 3.25 3.701 2.179 6.481 5.355 10.082 8.249 3.607 2.899 8.106 5.436 14.914 5.833 7.947 0.46 14.035-2.036 18.997-4.874 4.954-2.833 8.914-5.983 12.664-7.207 7.924-2.478 14.245-6.84 17.83-11.956v0c6.159 24.279 20.454 59.331 29.661 76.445 4.894 9.080 14.623 28.374 18.83 51.616 2.666-0.082 5.606 0.321 8.748 1.125 10.998-28.513-9.327-59.226-18.622-67.779-3.752-3.641-3.943-5.284-2.083-5.208 10.084 8.917 23.346 26.872 28.161 47.117 2.196 9.231 2.69 18.918 0.334 28.495 1.153 0.479 2.313 0.98 3.5 1.541 17.655 8.597 24.177 16.084 21.038 26.287-1.034-0.038-2.049-0.021-3.041 0-0.092 0-0.2-0.011-0.291 0 2.557-8.087-3.113-14.043-18.205-20.872-15.653-6.887-28.136-6.218-30.245 7.748-0.135 0.731-0.252 1.493-0.334 2.25-1.17 0.406-2.32 0.938-3.5 1.583-7.35 4.022-11.349 11.296-13.581 20.247-2.229 8.943-2.884 19.757-3.5 31.911-0.376 6.111-2.909 14.408-5.457 23.163-25.642 18.291-61.226 26.204-91.442 5.582zM367.342 333.742c-2.635 5.024-13.933 13.023-21.663 10.914-7.888-2.038-11.739-13.405-10.457-21.996 0.687-5.834 4.027-8.351 8.873-8.373 3.209-0.015 7.075 1.054 11.332 2.958 11.454 5.288 15.042 9.839 11.914 16.497zM419.5 397.481c-0.23 4.026-3.159 7.002-8.541 10.248-10.759 6.489-29.817 12.122-41.993 26.87-10.572 12.582-23.474 19.517-34.827 20.413s-21.137-3.823-26.912-15.414v-0.041l-0.043-0.041c-3.582-6.815-2.060-17.567 0.959-28.911s7.334-22.943 7.916-32.411v-0.041c0.614-12.131 1.295-22.737 3.332-30.911s5.229-13.719 10.914-16.83c0.265-0.144 0.53-0.287 0.791-0.416v0 0c0.647 10.505 5.889 21.219 15.081 23.538 10.059 2.651 24.538-6 30.661-13.039 1.221-0.049 2.423-0.098 3.583-0.125 5.372-0.13 9.853 0.224 14.456 4.249h0.042c3.538 2.997 5.207 8.653 6.666 14.998s2.625 13.241 6.998 18.163v0.041c8.408 9.33 11.145 15.638 10.915 19.663z"></path>
</svg>
