<?xml version="1.0" encoding="utf-8"?>
<!-- Generator: Adobe Illustrator 26.5.0, SVG Export Plug-In . SVG Version: 6.00 Build 0)  -->
<svg version="1.1" id="Layer_1" xmlns="http://www.w3.org/2000/svg" xmlns:xlink="http://www.w3.org/1999/xlink" x="0px" y="0px"
	 viewBox="0 0 24 24" style="enable-background:new 0 0 24 24;" xml:space="preserve">
<g id="icomoon-ignore">
</g>
<path d="M9.8,7.3c0,0,0.1,0.1,0.1,0.1c0.1,0.1,0.2,0.2,0.3,0.3c0.3,0.2,0.7,0.5,1.2,0.5c0.5,0,1-0.2,1.4-0.5
	c0.2-0.1,0.4-0.2,0.5-0.3c0.2-0.1,0.3-0.1,0.4-0.1l0-0.2l0,0c-0.1,0-0.3,0.1-0.4,0.2c-0.2,0.1-0.3,0.2-0.5,0.3
	C12.3,7.8,11.9,8,11.4,8c-0.4,0-0.8-0.2-1.1-0.4c-0.1-0.1-0.2-0.2-0.3-0.3c0,0-0.1-0.1-0.1-0.1c0,0-0.1-0.1-0.1-0.1L9.8,7.3
	C9.8,7.3,9.8,7.3,9.8,7.3C9.8,7.3,9.8,7.3,9.8,7.3L9.8,7.3z M20.5,18.4c-0.2-0.2-0.2-0.5-0.3-0.8c-0.1-0.3-0.2-0.7-0.5-1
	c0,0,0,0,0,0c-0.1-0.1-0.2-0.2-0.3-0.2c0.4-1.2,0.2-2.3-0.2-3.4c-0.5-1.3-1.3-2.4-2-3.2c-0.7-0.9-1.4-1.8-1.4-3.1
	c0-2,0.2-5.6-3.3-5.6v0c-0.1,0-0.3,0-0.4,0C8.2,1.3,9.3,5.4,9.2,6.8c-0.1,1-0.3,1.8-1,2.8c-0.8,1-2,2.5-2.5,4.2
	c-0.3,0.8-0.4,1.6-0.3,2.3c0,0-0.1,0.1-0.1,0.1c-0.2,0.3-0.4,0.6-0.6,0.8c-0.2,0.2-0.4,0.3-0.7,0.4c-0.3,0.1-0.6,0.3-0.8,0.6
	c0,0,0,0,0,0c-0.2,0.3-0.1,0.7-0.1,1s0.1,0.7,0,0.9c-0.2,0.6-0.3,1.1-0.1,1.4c0.2,0.3,0.5,0.5,0.9,0.5c0.7,0.2,1.8,0.1,2.6,0.5v0
	c0.9,0.4,1.7,0.6,2.4,0.4c0.5-0.1,0.9-0.4,1.1-0.9c0.5,0,1.1-0.2,2.1-0.3c0.6-0.1,1.4,0.2,2.4,0.2c0,0.1,0.1,0.2,0.1,0.3
	c0,0,0,0,0,0c0.4,0.7,1,1,1.7,1c0.7-0.1,1.5-0.5,2.1-1.2l-0.1-0.1l0.1,0.1c0.6-0.7,1.5-1,2.2-1.4c0.3-0.2,0.6-0.4,0.6-0.8
	C21.2,19.3,21,18.9,20.5,18.4L20.5,18.4L20.5,18.4z M11.9,5.5c0-0.3,0-0.5,0.1-0.7s0.2-0.4,0.4-0.5C12.6,4.1,12.8,4,13,4h0
	c0.2,0,0.4,0.1,0.5,0.2c0.2,0.1,0.3,0.3,0.4,0.5c0.1,0.2,0.1,0.4,0.2,0.7c0,0,0,0,0,0c0,0.3,0,0.5-0.1,0.7c-0.1,0.1-0.1,0.2-0.2,0.3
	c0,0-0.1,0-0.1,0c-0.2-0.1-0.3-0.1-0.5-0.2c0-0.1,0.1-0.1,0.1-0.2c0.1-0.1,0.1-0.2,0.1-0.4c0,0,0,0,0,0c0-0.1,0-0.3-0.1-0.4
	c0-0.1-0.1-0.2-0.2-0.3S13,4.9,13,4.9c0,0,0,0,0,0c-0.1,0-0.2,0-0.2,0.1c-0.1,0.1-0.1,0.2-0.2,0.3c-0.1,0.1-0.1,0.2-0.1,0.4
	c0,0,0,0,0,0c0,0.1,0,0.1,0,0.2c-0.2-0.1-0.3-0.1-0.5-0.2C11.9,5.6,11.9,5.6,11.9,5.5L11.9,5.5L11.9,5.5z M9.6,4.9
	c0.1-0.2,0.1-0.3,0.3-0.5c0.1-0.1,0.2-0.2,0.4-0.2l0,0c0,0,0,0,0,0c0.1,0,0.2,0,0.4,0.1c0.1,0.1,0.2,0.2,0.3,0.4
	c0.1,0.2,0.1,0.4,0.1,0.6c0,0.1,0,0.2,0,0.3c0,0-0.1,0-0.1,0c-0.1,0-0.3,0.1-0.4,0.2c0-0.1,0-0.2,0-0.2c0,0,0,0,0,0
	c0-0.1,0-0.2-0.1-0.3c0-0.1-0.1-0.2-0.2-0.2c-0.1,0-0.1-0.1-0.2-0.1c0,0,0,0,0,0c-0.1,0-0.1,0-0.2,0.1C10.1,5.2,10,5.3,10,5.4
	c0,0.1,0,0.2,0,0.3v0C10,5.9,10,6,10.1,6c0,0.1,0.1,0.2,0.2,0.2c0,0,0,0,0,0c-0.1,0-0.1,0.1-0.1,0.1c0,0-0.1,0.1-0.1,0.1
	C9.9,6.4,9.8,6.3,9.7,6.1C9.6,5.9,9.6,5.7,9.6,5.5v0C9.6,5.3,9.6,5.1,9.6,4.9L9.6,4.9z M9.7,6.9c0.2-0.2,0.3-0.3,0.4-0.3
	c0.1-0.1,0.1-0.1,0.2-0.1c0.2-0.1,0.4-0.4,0.8-0.5c0.1,0,0.3-0.1,0.4-0.1l0,0l0,0l0,0l0,0c0.3,0,0.7,0.1,1.1,0.4
	c0.3,0.2,0.5,0.2,1,0.4c0.2,0.1,0.4,0.2,0.4,0.4s0.1,0.3,0,0.4c-0.1,0.3-0.5,0.6-1,0.8v0c-0.2,0.1-0.5,0.3-0.7,0.4
	c-0.3,0.1-0.5,0.3-0.9,0.2c-0.3,0-0.5-0.1-0.7-0.3c-0.2-0.1-0.3-0.3-0.6-0.5v0C9.8,7.8,9.6,7.6,9.6,7.4C9.5,7.2,9.6,7,9.7,6.9
	L9.7,6.9z M9.9,21.2L9.9,21.2c-0.1,0.7-0.4,1.1-1,1.2c-0.6,0.1-1.4,0-2.2-0.4c-0.9-0.5-1.9-0.4-2.6-0.6c-0.3-0.1-0.6-0.2-0.7-0.4
	c-0.1-0.2-0.1-0.5,0.1-1.1v0c0.1-0.3,0-0.7,0-1s-0.1-0.6,0-0.9l0,0c0.1-0.3,0.4-0.4,0.6-0.5c0.3-0.1,0.6-0.2,0.8-0.4h0v0
	c0.2-0.2,0.4-0.6,0.6-0.8C5.8,16.1,5.9,16,6.2,16h0c0,0,0.1,0,0.1,0c0.3,0.1,0.6,0.3,0.9,0.7s0.6,0.9,0.8,1.5v0
	c0.2,0.5,0.7,1,1.1,1.5S9.9,20.8,9.9,21.2L9.9,21.2z M9.8,20.1c-0.1-0.2-0.2-0.3-0.4-0.5c-0.1-0.1-0.2-0.2-0.3-0.3
	c0.2,0,0.3,0,0.4-0.1c0.1-0.1,0.2-0.2,0.3-0.3c0.1-0.3,0-0.6-0.3-1.1c-0.3-0.4-0.9-0.9-1.6-1.4C7.4,16,7,15.6,6.9,15.1
	c-0.2-0.5-0.1-1,0-1.5c0.2-1,0.8-1.9,1.2-2.5c0.1-0.1,0,0.1-0.4,0.9c-0.4,0.7-1.1,2.3-0.1,3.5c0-0.9,0.2-1.8,0.6-2.6
	C8.7,11.7,9.8,9.6,9.8,8c0,0,0.2,0.1,0.3,0.2c0.2,0.1,0.3,0.3,0.5,0.4c0.2,0.2,0.4,0.3,0.8,0.3c0.4,0,0.8-0.1,1-0.3
	c0.3-0.2,0.5-0.3,0.7-0.4c0.4-0.1,0.8-0.4,1-0.6l0,0c0.3,1.3,1.1,3.2,1.6,4.1c0.3,0.5,0.8,1.5,1,2.8c0.1,0,0.3,0,0.5,0.1
	c0.6-1.5-0.5-3.2-1-3.6c-0.2-0.2-0.2-0.3-0.1-0.3c0.5,0.5,1.3,1.4,1.5,2.5c0.1,0.5,0.1,1,0,1.5c0.1,0,0.1,0.1,0.2,0.1
	c0.9,0.5,1.3,0.9,1.1,1.4c-0.1,0-0.1,0-0.2,0c0,0,0,0,0,0c0.1-0.4-0.2-0.8-1-1.1c-0.8-0.4-1.5-0.3-1.6,0.4c0,0,0,0.1,0,0.1
	c-0.1,0-0.1,0.1-0.2,0.1c-0.4,0.2-0.6,0.6-0.7,1.1c-0.1,0.5-0.2,1.1-0.2,1.7c0,0.3-0.2,0.8-0.3,1.2C13.4,20.8,11.4,21.2,9.8,20.1
	L9.8,20.1z M18.1,16.2c-0.1,0.3-0.7,0.7-1.2,0.6c-0.4-0.1-0.6-0.7-0.6-1.2c0-0.3,0.2-0.4,0.5-0.5c0.2,0,0.4,0.1,0.6,0.2
	C18.1,15.6,18.2,15.8,18.1,16.2L18.1,16.2z M20.9,19.6c0,0.2-0.2,0.4-0.5,0.6c-0.6,0.3-1.6,0.7-2.3,1.4c-0.6,0.7-1.3,1-1.9,1.1
	c-0.6,0-1.1-0.2-1.4-0.8v0l0,0c-0.2-0.4-0.1-0.9,0.1-1.6c0.2-0.6,0.4-1.2,0.4-1.7v0c0-0.7,0.1-1.2,0.2-1.7c0.1-0.4,0.3-0.7,0.6-0.9
	c0,0,0,0,0,0l0,0l0,0c0,0.6,0.3,1.1,0.8,1.3c0.5,0.1,1.3-0.3,1.6-0.7c0.1,0,0.1,0,0.2,0c0.3,0,0.5,0,0.8,0.2h0
	c0.2,0.2,0.3,0.5,0.4,0.8c0.1,0.3,0.1,0.7,0.4,1v0C20.7,19.1,20.9,19.4,20.9,19.6L20.9,19.6z"/>
</svg>
