<?xml version="1.0" encoding="utf-8"?>
<!-- Generator: Adobe Illustrator 26.5.0, SVG Export Plug-In . SVG Version: 6.00 Build 0)  -->
<svg version="1.1" id="Layer_1" xmlns="http://www.w3.org/2000/svg" xmlns:xlink="http://www.w3.org/1999/xlink" x="0px" y="0px"
	 viewBox="0 0 24 24" style="enable-background:new 0 0 24 24;" xml:space="preserve">
<path d="M7.8,10.3h14.7c0.3,0,0.5,0.2,0.5,0.5v2.1c0,0.3-0.2,0.5-0.5,0.5H7.8c-0.3,0-0.5-0.2-0.5-0.5v-2.1
	C7.3,10.5,7.5,10.3,7.8,10.3z"/>
<path d="M5.6,11.9c0,1.3-1,2.3-2.3,2.3S1,13.1,1,11.9c0-1.3,1-2.3,2.3-2.3S5.6,10.6,5.6,11.9z"/>
<path d="M7.8,4h14.7C22.8,4,23,4.2,23,4.5v2.1c0,0.3-0.2,0.5-0.5,0.5H7.8c-0.3,0-0.5-0.2-0.5-0.5V4.5C7.3,4.2,7.5,4,7.8,4z"/>
<path d="M5.6,5.6c0,1.3-1,2.3-2.3,2.3S1,6.8,1,5.6c0-1.3,1-2.3,2.3-2.3S5.6,4.3,5.6,5.6z"/>
<path d="M7.8,16.6h14.7c0.3,0,0.5,0.2,0.5,0.5v2.1c0,0.3-0.2,0.5-0.5,0.5H7.8c-0.3,0-0.5-0.2-0.5-0.5v-2.1
	C7.3,16.8,7.5,16.6,7.8,16.6z"/>
<path d="M5.6,18.1c0,1.3-1,2.3-2.3,2.3S1,19.4,1,18.1c0-1.3,1-2.3,2.3-2.3S5.6,16.9,5.6,18.1z"/>
</svg>
