<!-- Generated by IcoMoon.io -->
<svg version="1.1" xmlns="http://www.w3.org/2000/svg" width="32" height="32" viewBox="0 0 32 32">
<title>list-flat</title>
<path d="M11.728 14.4h14.944c0.283 0 0.512 0.229 0.512 0.512v2.176c0 0.283-0.229 0.512-0.512 0.512h-14.944c-0.283 0-0.512-0.229-0.512-0.512v-2.176c0-0.283 0.229-0.512 0.512-0.512z"></path>
<path d="M9.529 16c0 1.301-1.055 2.357-2.357 2.357s-2.357-1.055-2.357-2.357c0-1.301 1.055-2.357 2.357-2.357s2.357 1.055 2.357 2.357z"></path>
<path d="M11.728 8h14.944c0.283 0 0.512 0.229 0.512 0.512v2.176c0 0.283-0.229 0.512-0.512 0.512h-14.944c-0.283 0-0.512-0.229-0.512-0.512v-2.176c0-0.283 0.229-0.512 0.512-0.512z"></path>
<path d="M9.529 9.6c0 1.301-1.055 2.357-2.357 2.357s-2.357-1.055-2.357-2.357c0-1.301 1.055-2.357 2.357-2.357s2.357 1.055 2.357 2.357z"></path>
<path d="M11.728 20.8h14.944c0.283 0 0.512 0.229 0.512 0.512v2.176c0 0.283-0.229 0.512-0.512 0.512h-14.944c-0.283 0-0.512-0.229-0.512-0.512v-2.176c0-0.283 0.229-0.512 0.512-0.512z"></path>
<path d="M9.529 22.4c0 1.301-1.055 2.357-2.357 2.357s-2.357-1.055-2.357-2.357c0-1.301 1.055-2.357 2.357-2.357s2.357 1.055 2.357 2.357z"></path>
</svg>
