<?xml version="1.0" encoding="utf-8"?>
<!-- Generator: Adobe Illustrator 26.0.0, SVG Export Plug-In . SVG Version: 6.00 Build 0)  -->
<svg version="1.1" id="Layer_1" xmlns="http://www.w3.org/2000/svg" xmlns:xlink="http://www.w3.org/1999/xlink" x="0px" y="0px"
	 viewBox="0 0 24 24" style="enable-background:new 0 0 24 24;" xml:space="preserve">
<path d="M7,13h2v-2H7V13z M7,17h2v-2H7V17z M3,9h2V7H3V9z M11,13h10v-2H11V13z M11,17h10v-2H11V17z M7,7v2h14V7H7z M7,13h2v-2H7V13z
	 M7,17h2v-2H7V17z M3,9h2V7H3V9z M11,13h10v-2H11V13z M11,17h10v-2H11V17z M7,7v2h14V7H7z"/>
</svg>
