<?xml version="1.0" encoding="utf-8"?>
<!-- Generator: Adobe Illustrator 26.5.0, SVG Export Plug-In . SVG Version: 6.00 Build 0)  -->
<svg version="1.1" id="Layer_1" xmlns="http://www.w3.org/2000/svg" xmlns:xlink="http://www.w3.org/1999/xlink" x="0px" y="0px"
	 viewBox="0 0 24 24" style="enable-background:new 0 0 24 24;" xml:space="preserve">
<path d="M18.8,9.8h-1.1V6.2c0-2.9-2.4-5.3-5.3-5.3S7,3.3,7,6.2v3.6H5.9c-0.6,0-1.1,0.5-1.1,1.1v10.8c0,0.6,0.5,1.1,1.1,1.1h12.8
	c0.6,0,1.1-0.5,1.1-1.1V10.9C19.9,10.3,19.4,9.8,18.8,9.8z M9.2,6.2c0-1.8,1.4-3.2,3.2-3.2s3.2,1.4,3.2,3.2v3.6H9.2V6.2z M13.1,16.6
	v2.2c0,0.4-0.3,0.7-0.7,0.7c-0.4,0-0.7-0.3-0.7-0.7v-2.2c-0.6-0.3-1.1-0.9-1.1-1.6c0-1,0.8-1.8,1.8-1.8s1.8,0.8,1.8,1.8
	C14.1,15.7,13.7,16.3,13.1,16.6z"/>
</svg>
