<!-- Generated by IcoMoon.io -->
<svg version="1.1" xmlns="http://www.w3.org/2000/svg" width="32" height="32" viewBox="0 0 32 32">
<title>logging</title>
<path d="M13.398 20.623l-0.124 0.934h-2.649v-4.115h1.218v3.181h1.555z"></path>
<path d="M17.478 19.494c0 1.336-0.686 2.182-1.922 2.182s-1.922-0.816-1.922-2.182c0-1.336 0.686-2.17 1.922-2.17s1.922 0.804 1.922 2.17zM14.9 19.494c0 0.952 0.195 1.319 0.656 1.319 0.473 0 0.656-0.367 0.656-1.319s-0.195-1.307-0.656-1.307-0.656 0.355-0.656 1.307z"></path>
<path d="M21.375 17.862l-0.615 0.633c-0.248-0.213-0.461-0.319-0.775-0.319-0.568 0-0.893 0.42-0.893 1.324 0 1.017 0.213 1.313 0.692 1.313 0.16 0 0.29-0.035 0.42-0.101v-0.751h-0.414l-0.112-0.822h1.697v2.064c-0.443 0.302-1.041 0.473-1.555 0.473-1.378 0-1.981-0.78-1.981-2.182 0-1.395 0.887-2.17 2.075-2.17 0.621 0 1.129 0.237 1.46 0.538z"></path>
<path d="M25.6 11.476c0-0.022-0.002-0.043-0.003-0.065-0.001-0.018-0.001-0.037-0.003-0.055-0-0.005-0.001-0.010-0.001-0.014-0.055-0.689-0.439-1.569-0.902-2.032h0l-5.2-5.2c-0.5-0.5-1.488-0.909-2.196-0.909h-9.608c-0.71 0.002-1.284 0.577-1.286 1.286v23.028c0.002 0.709 0.577 1.284 1.286 1.286h16.628c0.709-0.002 1.284-0.577 1.286-1.286v-16.008c0-0.006-0.001-0.012-0.001-0.017 0-0.004 0.001-0.008 0.001-0.012zM22.071 10.226h-3.527v-3.527l3.527 3.527zM8.9 26.3v-20.6h7.144v5.776c0 0.69 0.56 1.25 1.25 1.25h5.806v13.574h-14.2z"></path>
</svg>
