<?xml version="1.0" encoding="utf-8"?>
<!-- Generator: Adobe Illustrator 26.5.0, SVG Export Plug-In . SVG Version: 6.00 Build 0)  -->
<svg version="1.1" id="Layer_1" xmlns="http://www.w3.org/2000/svg" xmlns:xlink="http://www.w3.org/1999/xlink" x="0px" y="0px"
	 viewBox="0 0 24 24" style="enable-background:new 0 0 24 24;" xml:space="preserve">
<path d="M10,16l-0.1,0.8H7.6v-3.5h1V16C8.7,16,10,16,10,16z"/>
<path d="M13.5,15c0,1.1-0.6,1.9-1.7,1.9s-1.7-0.7-1.7-1.9c0-1.1,0.6-1.9,1.7-1.9C12.9,13.1,13.5,13.8,13.5,15z M11.3,15
	c0,0.8,0.2,1.1,0.6,1.1c0.4,0,0.6-0.3,0.6-1.1s-0.2-1.1-0.6-1.1S11.3,14.2,11.3,15z"/>
<path d="M16.9,13.6l-0.5,0.5c-0.2-0.2-0.4-0.3-0.7-0.3c-0.5,0-0.8,0.4-0.8,1.1c0,0.9,0.2,1.1,0.6,1.1c0.1,0,0.2,0,0.4-0.1v-0.6h-0.4
	l-0.1-0.7h1.5v1.8c-0.4,0.3-0.9,0.4-1.3,0.4c-1.2,0-1.7-0.7-1.7-1.9c0-1.2,0.8-1.9,1.8-1.9C16.1,13.1,16.6,13.3,16.9,13.6L16.9,13.6
	z"/>
<path d="M20.5,8.1C20.5,8.1,20.5,8.1,20.5,8.1c0-0.1,0-0.1,0-0.1c0,0,0,0,0,0c0-0.6-0.4-1.3-0.8-1.7l0,0l-4.5-4.5
	C14.8,1.4,14,1,13.4,1H5.1C4.5,1,4,1.5,4,2.1v19.8C4,22.5,4.5,23,5.1,23h14.3c0.6,0,1.1-0.5,1.1-1.1L20.5,8.1
	C20.5,8.1,20.5,8.1,20.5,8.1C20.5,8.1,20.5,8.1,20.5,8.1L20.5,8.1z M17.5,7h-3V4L17.5,7z M6.1,20.9V3.1h6.1v5c0,0.6,0.5,1.1,1.1,1.1
	h5v11.7C18.4,20.9,6.1,20.9,6.1,20.9z"/>
</svg>
