<?xml version="1.0" encoding="UTF-8"?>
<svg id="Layer_1" data-name="Layer 1" xmlns="http://www.w3.org/2000/svg" viewBox="0 0 32 32">
  <path d="m30,0H2C.9,0,0,.9,0,2v28c0,1.1.9,2,2,2h28c1.1,0,2-.9,2-2V2c0-1.1-.9-2-2-2Zm-2.01,10.34l-.44,2.51c-.12.61-.59,1.08-1.2,1.2l-6.1,1.2-.98,5.23s0,.07,0,.1c-.06,1.57-1.37,2.79-2.94,2.74h-.76c-1.58-.02-2.87-1.26-2.94-2.83l-.87-5.23-6.21-1.2c-.63-.08-1.12-.57-1.2-1.2l-.33-2.51c-.06-.8.51-1.51,1.31-1.64.78-.11,1.5.42,1.64,1.2l.22,1.53,8.83,1.74,8.72-1.64.22-1.53c.13-.83.9-1.41,1.74-1.31h0s.02,0,.03,0c.8.1,1.37.83,1.27,1.63Z"/>
  <polygon points="15.67 16.11 14.9 16.01 15.67 20.15 15.67 20.37 16.43 20.37 16.43 20.15 17.19 15.9 16.32 16.11 15.67 16.11"/>
</svg>