<?xml version="1.0" encoding="utf-8"?>
<!-- Generator: Adobe Illustrator 26.5.0, SVG Export Plug-In . SVG Version: 6.00 Build 0)  -->
<svg version="1.1" id="Layer_1" xmlns="http://www.w3.org/2000/svg" xmlns:xlink="http://www.w3.org/1999/xlink" x="0px" y="0px"
	 viewBox="0 0 24 24" style="enable-background:new 0 0 24 24;" xml:space="preserve">
<path d="M21.8,6.4c-0.8-0.1-1.4,0.4-1.6,1.2l-0.2,1.4L12,10.5L3.9,8.9L3.7,7.5C3.6,6.8,2.9,6.3,2.2,6.4S0.9,7.2,1,7.9l0.3,2.3
	c0.1,0.6,0.5,1,1.1,1.1l5.7,1.1l0.8,4.8c0.1,1.5,1.3,2.6,2.7,2.6h0.7c1.5,0,2.7-1.1,2.7-2.6l0.9-4.8c0,0,0,0,0,0l5.6-1.1
	c0.6-0.1,1-0.6,1.1-1.1L23,7.9C23.1,7.2,22.6,6.5,21.8,6.4L21.8,6.4z M12.4,16.9c0,0.1,0,0.2,0,0.2h-0.7c0-0.1,0-0.1,0-0.2L11,13.1
	l0.7,0.1c0.1,0,0.2,0,0.3,0s0.2,0,0.3,0l0.8-0.2L12.4,16.9L12.4,16.9z"/>
</svg>
