<!-- Generated by IcoMoon.io -->
<svg version="1.1" xmlns="http://www.w3.org/2000/svg" width="32" height="32" viewBox="0 0 32 32">
<title>longhorn</title>
<path d="M28.508 7.385c-0.955-0.141-1.843 0.518-1.984 1.473l-0.258 1.752-10.266 2.050-10.266-2.050-0.258-1.752c-0.141-0.954-1.028-1.613-1.982-1.473s-1.615 1.027-1.476 1.982l0.437 2.97c0.107 0.73 0.663 1.314 1.386 1.459l7.234 1.444 0.986 6.065c0.090 1.863 1.626 3.328 3.491 3.33h0.896c1.857-0.002 3.389-1.455 3.49-3.31l1.112-6.089c0.001-0.007 0.002-0.014 0.003-0.021l7.105-1.419c0.724-0.145 1.279-0.729 1.387-1.459l0.437-2.97c0.14-0.954-0.52-1.84-1.473-1.981zM16.476 20.826c-0.019 0.104-0.028 0.209-0.029 0.314h-0.896c0-0.094-0.008-0.188-0.023-0.28l-0.795-4.889 0.923 0.184c0.113 0.022 0.227 0.034 0.342 0.034s0.229-0.011 0.342-0.034l1.025-0.205-0.891 4.876z"></path>
</svg>
