<!-- Generated by IcoMoon.io -->
<svg version="1.1" xmlns="http://www.w3.org/2000/svg" width="32" height="32" viewBox="0 0 32 32">
<title>marketplace</title>
<path d="M28.67 12.524l-2.5-7.48c-0.101-0.603-0.622-1.044-1.233-1.044h-17.875c-0.61 0-1.132 0.441-1.233 1.043l-2.5 7.438c-0.011 0.068-0.017 0.138-0.017 0.207v2.938c0 0.026 0.001 0.052 0.002 0.078 0.063 2.241 1.893 4.054 4.107 4.054 1.107 0 2.117-0.453 2.859-1.186 0.742 0.733 1.753 1.186 2.859 1.186s2.117-0.453 2.859-1.186c0.742 0.733 1.753 1.186 2.859 1.186s2.117-0.453 2.859-1.186c0.742 0.733 1.753 1.186 2.859 1.186 1.088 0 2.113-0.421 2.887-1.185 0.758-0.749 1.19-1.743 1.22-2.805 0.002-0.026 0.002-0.053 0.002-0.079v-2.958c0-0.069-0.006-0.138-0.017-0.206zM26.188 15.656c-0.001 0.013-0.001 0.026-0.001 0.039-0.012 0.421-0.177 0.801-0.478 1.097-0.307 0.303-0.698 0.464-1.13 0.464-0.408 0-0.799-0.165-1.103-0.465-0.487-0.481-1.122-0.721-1.757-0.721s-1.27 0.24-1.757 0.721c-0.303 0.3-0.695 0.465-1.103 0.465s-0.799-0.165-1.103-0.465c-0.487-0.481-1.122-0.721-1.757-0.721s-1.27 0.24-1.757 0.721c-0.303 0.3-0.695 0.465-1.103 0.465s-0.799-0.165-1.103-0.465c-0.487-0.481-1.122-0.721-1.757-0.721s-1.27 0.24-1.757 0.721c-0.303 0.3-0.695 0.465-1.103 0.465-0.861 0-1.583-0.729-1.608-1.624-0-0.013-0.001-0.026-0.001-0.039v-2.802l2.307-6.292h15.759l2.308 6.334v2.823z"></path>
<path d="M24.188 14.625h-16.375c-0.345 0-0.625-0.28-0.625-0.625s0.28-0.625 0.625-0.625h16.375c0.345 0 0.625 0.28 0.625 0.625s-0.28 0.625-0.625 0.625z"></path>
<path d="M24.578 20.382c-0.173 0-0.345-0.010-0.516-0.029v4.898c0 0.136-0.114 0.25-0.25 0.25h-15.625c-0.136 0-0.25-0.114-0.25-0.25v-4.898c-0.17 0.019-0.342 0.029-0.516 0.029-0.694 0-1.369-0.153-1.984-0.444v5.313c0 1.516 1.234 2.75 2.75 2.75h15.625c1.516 0 2.75-1.234 2.75-2.75v-5.302c-0.614 0.284-1.288 0.434-1.984 0.434z"></path>
</svg>
