<?xml version="1.0" encoding="utf-8"?>
<!-- Generator: Adobe Illustrator 26.5.0, SVG Export Plug-In . SVG Version: 6.00 Build 0)  -->
<svg version="1.1" id="Layer_1" xmlns="http://www.w3.org/2000/svg" xmlns:xlink="http://www.w3.org/1999/xlink" x="0px" y="0px"
	 viewBox="0 0 24 24" style="enable-background:new 0 0 24 24;" xml:space="preserve">
<path d="M23,8.4l-2.2-6.5C20.7,1.4,20.3,1,19.8,1H4.3c-0.5,0-1,0.4-1.1,0.9L1,8.4c0,0.1,0,0.1,0,0.2v2.5c0,0,0,0,0,0.1
	c0.1,1.9,1.6,3.5,3.6,3.5c1,0,1.8-0.4,2.5-1c0.6,0.6,1.5,1,2.5,1s1.8-0.4,2.5-1c0.6,0.6,1.5,1,2.5,1s1.8-0.4,2.5-1
	c0.6,0.6,1.5,1,2.5,1c0.9,0,1.8-0.4,2.5-1c0.7-0.6,1-1.5,1.1-2.4c0,0,0,0,0-0.1V8.6C23,8.5,23,8.5,23,8.4L23,8.4z M20.8,11.1
	C20.8,11.1,20.8,11.1,20.8,11.1c0,0.4-0.2,0.7-0.4,1c-0.3,0.3-0.6,0.4-1,0.4c-0.4,0-0.7-0.1-1-0.4c-0.4-0.4-1-0.6-1.5-0.6
	s-1.1,0.2-1.5,0.6c-0.3,0.3-0.6,0.4-1,0.4s-0.7-0.1-1-0.4c-0.4-0.4-1-0.6-1.5-0.6c-0.6,0-1.1,0.2-1.5,0.6c-0.3,0.3-0.6,0.4-1,0.4
	s-0.7-0.1-1-0.4c-0.4-0.4-1-0.6-1.5-0.6s-1.1,0.2-1.5,0.6c-0.3,0.3-0.6,0.4-1,0.4c-0.7,0-1.4-0.6-1.4-1.4c0,0,0,0,0,0V8.6l2-5.5
	h13.7l2,5.5L20.8,11.1L20.8,11.1z"/>
<path d="M19.1,10.2H4.9c-0.3,0-0.5-0.2-0.5-0.5s0.2-0.5,0.5-0.5h14.2c0.3,0,0.5,0.2,0.5,0.5S19.4,10.2,19.1,10.2z"/>
<path d="M19.4,15.2c-0.2,0-0.3,0-0.4,0v4.2c0,0.1-0.1,0.2-0.2,0.2H5.2c-0.1,0-0.2-0.1-0.2-0.2v-4.2c-0.1,0-0.3,0-0.4,0
	c-0.6,0-1.2-0.1-1.7-0.4v4.6c0,1.3,1.1,2.4,2.4,2.4h13.5c1.3,0,2.4-1.1,2.4-2.4v-4.6C20.6,15.1,20,15.2,19.4,15.2L19.4,15.2z"/>
</svg>
