<!-- Generated by IcoMoon.io -->
<svg version="1.1" xmlns="http://www.w3.org/2000/svg" width="32" height="32" viewBox="0 0 32 32">
<title>monitoring</title>
<path d="M13.985 23.118c-0.009 0-0.018-0-0.028-0-0.552-0.012-1.031-0.385-1.178-0.918l-2.236-8.119-1.9 2.934c-0.23 0.356-0.625 0.57-1.049 0.57h-4.343c-0.69 0-1.25-0.56-1.25-1.25s0.56-1.25 1.25-1.25h3.664l3.045-4.702c0.268-0.413 0.753-0.631 1.24-0.556s0.884 0.429 1.015 0.903l1.866 6.775 2.871-8.886c0.172-0.533 0.676-0.886 1.236-0.865s1.036 0.411 1.168 0.955l2.027 8.388 0.535-1.254c0.197-0.461 0.649-0.759 1.15-0.759h5.711c0.69 0 1.25 0.56 1.25 1.25s-0.56 1.25-1.25 1.25h-4.886l-1.69 3.961c-0.211 0.496-0.717 0.8-1.253 0.755s-0.985-0.428-1.111-0.952l-1.871-7.742-2.793 8.645c-0.167 0.517-0.648 0.866-1.189 0.866z"></path>
</svg>
