<?xml version="1.0" encoding="utf-8"?>
<!-- Generator: Adobe Illustrator 26.5.0, SVG Export Plug-In . SVG Version: 6.00 Build 0)  -->
<svg version="1.1" id="Layer_1" xmlns="http://www.w3.org/2000/svg" xmlns:xlink="http://www.w3.org/1999/xlink" x="0px" y="0px"
	 viewBox="0 0 24 24" style="enable-background:new 0 0 24 24;" xml:space="preserve">
<path d="M10.4,18.1C10.4,18.1,10.4,18.1,10.4,18.1c-0.5,0-0.8-0.3-0.9-0.7L7.7,11l-1.5,2.3c-0.2,0.3-0.5,0.4-0.8,0.4H2
	c-0.5,0-1-0.4-1-1c0-0.5,0.4-1,1-1h2.9l2.4-3.7c0.2-0.3,0.6-0.5,1-0.4C8.6,7.7,8.9,8,9,8.4l1.5,5.3l2.3-7c0.1-0.4,0.5-0.7,1-0.7
	c0.4,0,0.8,0.3,0.9,0.7l1.6,6.6l0.4-1c0.2-0.4,0.5-0.6,0.9-0.6H22c0.5,0,1,0.4,1,1s-0.4,1-1,1h-3.8l-1.3,3.1c-0.2,0.4-0.6,0.6-1,0.6
	c-0.4,0-0.8-0.3-0.9-0.7l-1.5-6.1l-2.2,6.8C11.2,17.8,10.8,18.1,10.4,18.1L10.4,18.1z"/>
</svg>
