<?xml version="1.0" encoding="UTF-8" standalone="no"?>
<svg
   width="24"
   height="24"
   viewBox="0 0 24 24"
   fill="none"
   version="1.1"
   id="svg2"
   xmlns="http://www.w3.org/2000/svg"
   xmlns:svg="http://www.w3.org/2000/svg">
  <defs
     id="defs2" />
  <path
     id="path5"
     style="baseline-shift:baseline;display:inline;overflow:visible;vector-effect:none;fill:#1a1a1a;stroke-width:1;stroke-linecap:round;stroke-linejoin:round;enable-background:accumulate;stop-color:#000000"
     d="m 12.001331,7.4547878 a 0.90912902,0.90912902 0 0 0 -0.910905,0.9082434 v 3.6382998 a 0.90912902,0.90912902 0 0 0 0.910905,0.908244 0.90912902,0.90912902 0 0 0 0.908244,-0.908244 V 8.3630312 A 0.90912902,0.90912902 0 0 0 12.001331,7.4547878 Z M 6.5465444,11.090426 c -0.4818905,0 -0.9457157,0.191952 -1.2864563,0.532694 -0.3407105,0.340737 -0.5326941,0.804564 -0.5326941,1.286455 v 2.727394 a 0.90912902,0.90912902 0 0 0 0.9082434,0.908244 0.90912902,0.90912902 0 0 0 0.910907,-0.908244 V 12.909575 H 17.456119 v 2.727394 a 0.90912902,0.90912902 0 0 0 0.908244,0.908244 0.90912902,0.90912902 0 0 0 0.908244,-0.908244 v -2.727394 c 0,-0.481753 -0.191976,-0.945655 -0.532694,-1.286455 -0.340598,-0.340382 -0.801903,-0.532694 -1.283794,-0.532694 z M 10.182182,2.0000002 c -0.9934304,0 -1.8191508,0.8257327 -1.8191508,1.8191504 v 3.6356372 c 0,0.9934179 0.8257163,1.8191499 1.8191508,1.8191499 h 3.635637 c 0.993434,0 1.81915,-0.8257155 1.81915,-1.8191499 V 3.8191506 c 0,-0.9934342 -0.825721,-1.8191504 -1.81915,-1.8191504 z m 0,1.8191504 h 3.635637 V 7.4547878 H 10.182182 Z M 3.8191506,14.728725 c -0.9933684,0 -1.8191504,0.823058 -1.8191504,1.816488 v 3.6383 c 0,0.99343 0.8256832,1.816488 1.8191504,1.816488 h 3.6356372 c 0.9934673,0 1.8191499,-0.823053 1.8191499,-1.816488 v -3.6383 c 0,-0.993435 -0.8257814,-1.816488 -1.8191499,-1.816488 z m 0,1.816488 h 3.6356372 v 3.6383 H 3.8191506 Z M 16.545213,14.728725 c -0.993366,0 -1.816488,0.82302 -1.816488,1.816488 v 3.6383 c 0,0.993468 0.823023,1.816488 1.816488,1.816488 h 3.6383 c 0.993468,0 1.816488,-0.82302 1.816488,-1.816488 v -3.6383 c 0,-0.993468 -0.823119,-1.816488 -1.816488,-1.816488 z m 0,1.816488 h 3.6383 v 3.6383 h -3.6383 z" />
</svg>
