<svg width="20" height="20" viewBox="0 0 20 20" fill="none" xmlns="http://www.w3.org/2000/svg">
<g id="Confirmation icon">
<path d="M14.1733 6.45089H13.1264C12.8987 6.45089 12.6822 6.56027 12.5483 6.74777L9.03931 11.6138L7.45002 9.40848C7.31609 9.22321 7.1018 9.11161 6.87189 9.11161H5.82501C5.67992 9.11161 5.5951 9.27679 5.67992 9.39509L8.46118 13.2522C8.52689 13.3439 8.6135 13.4187 8.71385 13.4702C8.81419 13.5218 8.92538 13.5486 9.03819 13.5486C9.15101 13.5486 9.26219 13.5218 9.36254 13.4702C9.46289 13.4187 9.5495 13.3439 9.6152 13.2522L14.3161 6.73438C14.4032 6.61607 14.3183 6.45089 14.1733 6.45089Z" fill="#30BA78"/>
<path d="M10 0C4.47768 0 0 4.47768 0 10C0 15.5223 4.47768 20 10 20C15.5223 20 20 15.5223 20 10C20 4.47768 15.5223 0 10 0ZM10 18.3036C5.41518 18.3036 1.69643 14.5848 1.69643 10C1.69643 5.41518 5.41518 1.69643 10 1.69643C14.5848 1.69643 18.3036 5.41518 18.3036 10C18.3036 14.5848 14.5848 18.3036 10 18.3036Z" fill="#30BA78"/>
</g>
</svg>
