<?xml version="1.0" encoding="UTF-8" standalone="no"?>
<svg
   xmlns:dc="http://purl.org/dc/elements/1.1/"
   xmlns:cc="http://creativecommons.org/ns#"
   xmlns:rdf="http://www.w3.org/1999/02/22-rdf-syntax-ns#"
   xmlns:svg="http://www.w3.org/2000/svg"
   xmlns="http://www.w3.org/2000/svg"
   xmlns:sodipodi="http://sodipodi.sourceforge.net/DTD/sodipodi-0.dtd"
   xmlns:inkscape="http://www.inkscape.org/namespaces/inkscape"
   inkscape:version="1.0 (4035a4f, 2020-05-01)"
   sodipodi:docname="notify-bell.svg"
   id="svg834"
   version="1.1"
   fill="none"
   viewBox="0 0 16 18"
   height="18"
   width="16">
  <metadata
     id="metadata840">
    <rdf:RDF>
      <cc:Work
         rdf:about="">
        <dc:format>image/svg+xml</dc:format>
        <dc:type
           rdf:resource="http://purl.org/dc/dcmitype/StillImage" />
      </cc:Work>
    </rdf:RDF>
  </metadata>
  <defs
     id="defs838" />
  <sodipodi:namedview
     inkscape:current-layer="svg834"
     inkscape:window-maximized="0"
     inkscape:window-y="25"
     inkscape:window-x="0"
     inkscape:cy="9"
     inkscape:cx="8"
     inkscape:zoom="41.75"
     showgrid="false"
     id="namedview836"
     inkscape:window-height="1122"
     inkscape:window-width="2056"
     inkscape:pageshadow="2"
     inkscape:pageopacity="0"
     guidetolerance="10"
     gridtolerance="10"
     objecttolerance="10"
     borderopacity="1"
     bordercolor="#666666"
     pagecolor="#ffffff" />
  <path
     id="path844"
     d="M 8 0.25 C 7.3298786 0.25 6.6867364 0.51638863 6.2128906 0.99023438 C 5.8836088 1.3195162 5.8084004 1.7873017 5.6992188 2.2324219 C 4.649987 2.7743802 3.7366176 3.5503576 3.0800781 4.5351562 C 2.3782552 5.5878963 1.9772989 6.8123336 1.9179688 8.0761719 A 0.750075 0.750075 0 0 0 1.9160156 8.1113281 L 1.9160156 10.703125 C 1.8613369 11.133101 1.7112501 11.545418 1.4707031 11.90625 C 1.2270353 12.271696 0.90176563 12.574566 0.51953125 12.791016 A 0.750075 0.750075 0 0 0 0.88867188 14.195312 L 4.5839844 14.195312 L 4.5839844 14.333984 C 4.5839844 15.239892 4.943428 16.109444 5.5839844 16.75 C 6.2245066 17.390394 7.0940932 17.75 8 17.75 C 8.9058996 17.75 9.7754898 17.390398 10.416016 16.75 C 11.056487 16.109464 11.416016 15.239927 11.416016 14.333984 L 11.416016 14.195312 L 15.111328 14.195312 A 0.750075 0.750075 0 0 0 15.480469 12.791016 C 15.098234 12.574568 14.772995 12.271719 14.529297 11.90625 C 14.288799 11.545387 14.138673 11.13312 14.083984 10.703125 L 14.083984 8.1113281 A 0.750075 0.750075 0 0 0 14.082031 8.0761719 C 14.022646 6.812347 13.621678 5.5878807 12.919922 4.5351562 C 12.263353 3.5503759 11.350004 2.7743808 10.300781 2.2324219 C 10.191601 1.7873039 10.116381 1.3195156 9.7871094 0.99023438 C 9.3132583 0.51638333 8.6701156 0.25 8 0.25 z M 8 1.75 C 8.2728644 1.75 8.5336135 1.8578323 8.7265625 2.0507812 C 8.9195118 2.2437364 9.0273437 2.5044652 9.0273438 2.7773438 A 0.750075 0.750075 0 0 0 9.4570312 3.4550781 C 10.354825 3.8796039 11.120938 4.5408428 11.671875 5.3671875 C 12.222718 6.1935231 12.53737 7.1544492 12.583984 8.1464844 L 12.583984 10.777344 A 0.750075 0.750075 0 0 0 12.587891 10.867188 C 12.667042 11.520988 12.90655 12.143766 13.265625 12.695312 L 10.679688 12.695312 L 10.666016 12.695312 L 5.3457031 12.695312 L 5.3339844 12.695312 L 2.734375 12.695312 C 3.0935726 12.143734 3.3329673 11.521006 3.4121094 10.867188 A 0.750075 0.750075 0 0 0 3.4160156 10.777344 L 3.4160156 8.1464844 C 3.4625855 7.1544626 3.777248 6.1935075 4.328125 5.3671875 C 4.8790143 4.5408624 5.6451645 3.8796049 6.5429688 3.4550781 A 0.750075 0.750075 0 0 0 6.9726562 2.7773438 C 6.9726562 2.5044652 7.0804832 2.2437355 7.2734375 2.0507812 C 7.4663918 1.857827 7.7271214 1.75 8 1.75 z M 6.0839844 14.195312 L 9.9160156 14.195312 L 9.9160156 14.333984 C 9.9160156 14.842642 9.715097 15.329789 9.3554688 15.689453 C 8.9957945 16.049055 8.5085804 16.25 8 16.25 C 7.4914068 16.25 7.004209 16.049059 6.6445312 15.689453 C 6.2848876 15.329809 6.0839844 14.842677 6.0839844 14.333984 L 6.0839844 14.195312 z "
     style="color:#000000;font-style:normal;font-variant:normal;font-weight:normal;font-stretch:normal;font-size:medium;line-height:normal;font-family:sans-serif;font-variant-ligatures:normal;font-variant-position:normal;font-variant-caps:normal;font-variant-numeric:normal;font-variant-alternates:normal;font-variant-east-asian:normal;font-feature-settings:normal;font-variation-settings:normal;text-indent:0;text-align:start;text-decoration:none;text-decoration-line:none;text-decoration-style:solid;text-decoration-color:#000000;letter-spacing:normal;word-spacing:normal;text-transform:none;writing-mode:lr-tb;direction:ltr;text-orientation:mixed;dominant-baseline:auto;baseline-shift:baseline;text-anchor:start;white-space:normal;shape-padding:0;shape-margin:0;inline-size:0;clip-rule:nonzero;display:inline;overflow:visible;visibility:visible;isolation:auto;mix-blend-mode:normal;color-interpolation:sRGB;color-interpolation-filters:linearRGB;solid-color:#000000;solid-opacity:1;vector-effect:none;fill:#000000;fill-opacity:1;fill-rule:nonzero;stroke:none;stroke-width:1.5;stroke-linecap:round;stroke-linejoin:round;stroke-miterlimit:4;stroke-dasharray:none;stroke-dashoffset:0;stroke-opacity:1;color-rendering:auto;image-rendering:auto;shape-rendering:auto;text-rendering:auto;enable-background:accumulate;stop-color:#000000;stop-opacity:1;opacity:1" />
</svg>
