<?xml version="1.0" encoding="UTF-8" standalone="no"?>
<svg
   xmlns:dc="http://purl.org/dc/elements/1.1/"
   xmlns:cc="http://creativecommons.org/ns#"
   xmlns:rdf="http://www.w3.org/1999/02/22-rdf-syntax-ns#"
   xmlns:svg="http://www.w3.org/2000/svg"
   xmlns="http://www.w3.org/2000/svg"
   xmlns:sodipodi="http://sodipodi.sourceforge.net/DTD/sodipodi-0.dtd"
   xmlns:inkscape="http://www.inkscape.org/namespaces/inkscape"
   inkscape:version="1.0 (4035a4f, 2020-05-01)"
   sodipodi:docname="loading-svgrepo-com.svg"
   xml:space="preserve"
   viewBox="0 0 330 330"
   id="Layer_1"
   version="1.1"
   width="800px"
   height="800px"
   fill="#000000"><metadata
   id="metadata862"><rdf:RDF><cc:Work
       rdf:about=""><dc:format>image/svg+xml</dc:format><dc:type
         rdf:resource="http://purl.org/dc/dcmitype/StillImage" /></cc:Work></rdf:RDF></metadata><defs
   id="defs860" /><sodipodi:namedview
   inkscape:current-layer="XMLID_2_"
   inkscape:window-maximized="0"
   inkscape:window-y="25"
   inkscape:window-x="586"
   inkscape:cy="400"
   inkscape:cx="400"
   inkscape:zoom="0.84"
   showgrid="false"
   id="namedview858"
   inkscape:window-height="1197"
   inkscape:window-width="2160"
   inkscape:pageshadow="2"
   inkscape:pageopacity="0"
   guidetolerance="10"
   gridtolerance="10"
   objecttolerance="10"
   borderopacity="1"
   bordercolor="#666666"
   pagecolor="#ffffff" />
<g
   transform="translate(-6.6,6.6)"
   id="XMLID_2_">
	<path
   d="m 97.5,159.225 c 0,-8.284 -6.716,-15 -15,-15 h -60 c -8.284,0 -15,6.716 -15,15 0,8.284 6.716,15 15,15 h 60 c 8.284,0 15,-6.716 15,-15 z"
   id="XMLID_4_" />
	
	<path
   d="m 172.5,84.225 c 8.284,0 15,-6.716 15,-15 v -60 c 0,-8.284 -6.716,-15 -15,-15 -8.284,0 -15,6.716 -15,15 v 60 c 0,8.284 6.716,15 15,15 z"
   id="XMLID_6_" />
	<path
   d="m 172.501,234.225 c -8.284,0 -15,6.716 -15,15 v 60 c 0,8.284 6.716,15 15,15 8.284,0 15,-6.716 15,-15 v -60 c 0,-8.284 -6.716,-15 -15,-15 z"
   id="XMLID_7_" />
	<path
   d="m 77.04,42.552 c -5.856,-5.858 -15.354,-5.857 -21.213,0 -5.858,5.858 -5.858,15.355 0,21.213 l 42.427,42.428 c 2.929,2.929 6.768,4.394 10.606,4.394 3.838,0 7.678,-1.465 10.606,-4.393 5.858,-5.858 5.858,-15.355 0,-21.213 z"
   id="XMLID_8_" />
	
	<path
   d="m 98.254,212.259 -42.426,42.426 c -5.858,5.858 -5.858,15.355 0,21.213 2.929,2.929 6.768,4.393 10.607,4.393 3.839,0 7.678,-1.464 10.606,-4.393 l 42.426,-42.426 c 5.858,-5.858 5.858,-15.355 0,-21.213 -5.858,-5.858 -15.356,-5.858 -21.213,0 z"
   id="XMLID_10_" />
<path
   style="stroke-width:0.999999"
   id="XMLID_4_-7"
   d="m 246.20525,158.40006 c 0,-8.284 6.716,-14.99999 15,-14.99999 h 60 c 8.284,0 15,6.71599 15,14.99999 0,8.284 -6.716,15 -15,15 h -60 c -8.284,0 -15,-6.716 -15,-15 z" /><path
   style="stroke-width:0.999999"
   id="XMLID_8_-6"
   d="m 266.66525,41.727065 c 5.856,-5.858 15.354,-5.857 21.213,0 5.858,5.858 5.858,15.355 0,21.213 l -42.427,42.427995 c -2.929,2.92901 -6.768,4.394 -10.606,4.394 -3.838,0 -7.678,-1.46499 -10.606,-4.393 -5.858,-5.857997 -5.858,-15.354997 0,-21.212996 z" /><path
   style="stroke-width:0.999999"
   id="XMLID_10_-0"
   d="m 245.45125,211.43406 42.426,42.426 c 5.858,5.858 5.858,15.355 0,21.213 -2.929,2.929 -6.768,4.393 -10.607,4.393 -3.839,0 -7.678,-1.464 -10.606,-4.393 l -42.426,-42.426 c -5.858,-5.858 -5.858,-15.355 0,-21.213 5.858,-5.858 15.356,-5.858 21.213,0 z" /></g>
</svg>
