<svg width="20" height="20" viewBox="0 0 20 20" fill="none" xmlns="http://www.w3.org/2000/svg">
<g id="Error icon">
<path d="M13.8709 6.46801C13.8709 6.3698 13.7905 6.28944 13.6923 6.28944L12.2191 6.29614L10.0004 8.94123L7.78386 6.29837L6.30842 6.29167C6.21021 6.29167 6.12985 6.3698 6.12985 6.47024C6.12985 6.51265 6.14547 6.55283 6.17226 6.58632L9.07627 10.0461L6.17226 13.5037C6.14529 13.5364 6.13032 13.5774 6.12985 13.6198C6.12985 13.718 6.21021 13.7984 6.30842 13.7984L7.78386 13.7917L10.0004 11.1466L12.2169 13.7894L13.6901 13.7961C13.7883 13.7961 13.8687 13.718 13.8687 13.6176C13.8687 13.5752 13.853 13.535 13.8262 13.5015L10.9267 10.0439L13.8307 6.58408C13.8575 6.55283 13.8709 6.51042 13.8709 6.46801Z" fill="#F64747"/>
<path d="M10 0C4.47768 0 0 4.47768 0 10C0 15.5223 4.47768 20 10 20C15.5223 20 20 15.5223 20 10C20 4.47768 15.5223 0 10 0ZM10 18.3036C5.41518 18.3036 1.69643 14.5848 1.69643 10C1.69643 5.41518 5.41518 1.69643 10 1.69643C14.5848 1.69643 18.3036 5.41518 18.3036 10C18.3036 14.5848 14.5848 18.3036 10 18.3036Z" fill="#F64747"/>
</g>
</svg>
