<svg width="20" height="20" viewBox="0 0 20 20" fill="none" xmlns="http://www.w3.org/2000/svg">
<g id="Information icon">
<path d="M9.24239 6.82904C9.04145 6.62811 8.92857 6.35559 8.92857 6.07143C8.92857 5.78727 9.04145 5.51475 9.24239 5.31381C9.44332 5.11288 9.71584 5 10 5C10.2842 5 10.5567 5.11288 10.7576 5.31381C10.9585 5.51475 11.0714 5.78727 11.0714 6.07143C11.0714 6.35559 10.9585 6.62811 10.7576 6.82904C10.5567 7.02997 10.2842 7.14286 10 7.14286C9.71584 7.14286 9.44332 7.02997 9.24239 6.82904Z" fill="#3D98D3"/>
<path d="M9.28571 8.75C9.28571 8.65179 9.36607 8.57143 9.46429 8.57143H10.5357C10.6339 8.57143 10.7143 8.65179 10.7143 8.75V14.8214C10.7143 14.9196 10.6339 15 10.5357 15H9.46429C9.36607 15 9.28571 14.9196 9.28571 14.8214V8.75Z" fill="#3D98D3"/>
<path fill-rule="evenodd" clip-rule="evenodd" d="M0 10C0 4.47768 4.47768 0 10 0C15.5223 0 20 4.47768 20 10C20 15.5223 15.5223 20 10 20C4.47768 20 0 15.5223 0 10ZM1.69643 10C1.69643 14.5848 5.41518 18.3036 10 18.3036C14.5848 18.3036 18.3036 14.5848 18.3036 10C18.3036 5.41518 14.5848 1.69643 10 1.69643C5.41518 1.69643 1.69643 5.41518 1.69643 10Z" fill="#3D98D3"/>
</g>
</svg>
