<!-- Generated by IcoMoon.io -->
<svg version="1.1" xmlns="http://www.w3.org/2000/svg" width="512" height="512" viewBox="0 0 512 512">
<title></title>
<g id="icomoon-ignore">
</g>
<path fill="#000" d="M342.889 126.222h-50.196c0 17.51-14.246 31.756-31.756 31.756h-52.146v-0.131h-80.342c-41.652 0-75.538 33.886-75.538 75.538s33.886 75.538 75.538 75.538h30.241v76.854h50.196v-76.986h52.051c17.51 0 31.756 14.246 31.756 31.756h50.196v-214.325zM208.792 247.154v-38.98h52.146c11.253 0 21.986-2.28 31.756-6.403v63.227c-9.771-4.123-20.503-6.403-31.756-6.403h-52.051v-11.442h-0.095zM128.45 258.727c-13.974 0-25.342-11.368-25.342-25.341s11.368-25.342 25.342-25.342h30.146v50.684h-30.146z"></path>
<path fill="#000" d="M412.774 137.97l-24.859 31.538c19.712 15.536 31.017 38.819 31.017 63.877s-11.305 48.34-31.017 63.877l24.859 31.537c29.433-23.199 46.315-57.976 46.315-95.414s-16.882-72.215-46.315-95.415v0z"></path>
<path fill="#000" d="M370.51 176.182l-20.024 34.809c8.009 4.607 12.985 13.188 12.985 22.394s-4.976 17.787-12.985 22.394l20.024 34.808c20.428-11.751 33.118-33.669 33.118-57.202s-12.69-45.452-33.118-57.203v0z"></path>
</svg>
