<?xml version="1.0" encoding="utf-8"?>
<!-- Generator: Adobe Illustrator 26.5.0, SVG Export Plug-In . SVG Version: 6.00 Build 0)  -->
<svg version="1.1" id="Layer_1" xmlns="http://www.w3.org/2000/svg" xmlns:xlink="http://www.w3.org/1999/xlink" x="0px" y="0px"
	 viewBox="0 0 24 24" style="enable-background:new 0 0 24 24;" xml:space="preserve">
<path d="M23,10.8c0,2-0.9,3.9-2.5,5.2l-1.3-1.7c1.1-0.8,1.7-2.1,1.7-3.5c0-1.4-0.6-2.6-1.7-3.5l1.3-1.7C22.1,6.9,23,8.8,23,10.8z
	 M18.2,7.7L18.2,7.7l-1.1,1.9c0.4,0.2,0.7,0.7,0.7,1.2c0,0.5-0.3,1-0.7,1.2l1.1,1.9c1.1-0.6,1.8-1.8,1.8-3.1
	C20,9.5,19.3,8.3,18.2,7.7z M14,5h2.7l0,0v11.6H14c0-0.9-0.8-1.7-1.7-1.7H9.4v4.2H6.7v-4.2H5.1c-2.3,0-4.1-1.8-4.1-4.1
	c0-2.3,1.8-4.1,4.1-4.1h4.4v0h2.8C13.2,6.7,14,5.9,14,5z M6.7,9.4H5.1c-0.8,0-1.4,0.6-1.4,1.4c0,0.8,0.6,1.4,1.4,1.4v0h1.6V9.4z
	 M14,9.1c-0.5,0.2-1.1,0.3-1.7,0.3H9.4v2.1l0,0h0v0.6h2.8c0.6,0,1.2,0.1,1.7,0.3V9.1z"/>
</svg>
