<svg width="20" height="20" viewBox="0 0 20 20" fill="none" xmlns="http://www.w3.org/2000/svg">
<g id="Warning icon">
<path d="M10 0C4.47768 0 0 4.47768 0 10C0 15.5223 4.47768 20 10 20C15.5223 20 20 15.5223 20 10C20 4.47768 15.5223 0 10 0ZM10 18.3036C5.41518 18.3036 1.69643 14.5848 1.69643 10C1.69643 5.41518 5.41518 1.69643 10 1.69643C14.5848 1.69643 18.3036 5.41518 18.3036 10C18.3036 14.5848 14.5848 18.3036 10 18.3036Z" fill="#DAC342"/>
<path d="M8.92857 13.9286C8.92857 14.2127 9.04145 14.4853 9.24239 14.6862C9.44332 14.8871 9.71584 15 10 15C10.2842 15 10.5567 14.8871 10.7576 14.6862C10.9585 14.4853 11.0714 14.2127 11.0714 13.9286C11.0714 13.6444 10.9585 13.3719 10.7576 13.171C10.5567 12.97 10.2842 12.8571 10 12.8571C9.71584 12.8571 9.44332 12.97 9.24239 13.171C9.04145 13.3719 8.92857 13.6444 8.92857 13.9286ZM9.46429 11.4286H10.5357C10.6339 11.4286 10.7143 11.3482 10.7143 11.25V5.17857C10.7143 5.08036 10.6339 5 10.5357 5H9.46429C9.36607 5 9.28571 5.08036 9.28571 5.17857V11.25C9.28571 11.3482 9.36607 11.4286 9.46429 11.4286Z" fill="#DAC342"/>
</g>
</svg>
