<?xml version="1.0" encoding="UTF-8" standalone="no"?>
<svg
   height="24px"
   viewBox="0 -960 960 960"
   width="24px"
   fill="#000"
   version="1.1"
   id="svg20349"
   xmlns="http://www.w3.org/2000/svg"
   xmlns:svg="http://www.w3.org/2000/svg">
  <defs
     id="defs20353" />
  <path
     id="path20347"
     d="M 184.60938 -800 C 166.19606 -800 150.84895 -793.8177 138.51562 -781.48438 C 126.1823 -769.15105 120 -753.80394 120 -735.39062 L 120 -304.60938 C 120 -286.19606 126.1823 -270.84895 138.51562 -258.51562 C 150.84895 -246.1823 166.19606 -240 184.60938 -240 L 40 -240 C 40 -226.20668 45.051468 -214.32353 55.078125 -204.29688 C 65.104782 -194.27022 76.98793 -189.21875 90.78125 -189.21875 L 869.21875 -189.21875 C 883.01207 -189.21875 894.89522 -194.27022 904.92188 -204.29688 C 914.94853 -214.32353 920 -226.20668 920 -240 L 775.39062 -240 C 793.80394 -240 809.15105 -246.1823 821.48438 -258.51562 C 833.8177 -270.84895 840 -286.19606 840 -304.60938 L 840 -735.39062 C 840 -753.80394 833.8177 -769.15105 821.48438 -781.48438 C 809.15105 -793.8177 793.80394 -800 775.39062 -800 L 184.60938 -800 z M 184.60938 -760 L 775.39062 -760 C 781.55062 -760 787.21709 -757.47041 792.34375 -752.34375 C 797.47041 -747.21709 800 -741.55062 800 -735.39062 L 800 -304.60938 C 800 -298.44938 797.47041 -292.78291 792.34375 -287.65625 C 787.21709 -282.52959 781.55062 -280 775.39062 -280 L 634.0625 -280 L 634.14062 -280.3125 C 634.29799 -280.9148 634.57713 -281.90112 634.76562 -282.65625 C 635.24323 -284.56526 635.85426 -288.27796 636.40625 -292.10938 C 637.09214 -297.19371 637.04541 -309.81184 636.40625 -315.07812 L 636.40625 -315.15625 C 634.4451 -330.72398 631.07081 -343.28485 625.625 -355.15625 L 625.625 -355.23438 C 625.88012 -355.60541 626.12849 -356.06769 626.40625 -356.48438 C 633.40685 -367.08113 637.59051 -380.21228 639.6875 -397.10938 C 640.38873 -402.99448 640.4087 -420.74778 639.6875 -426.5625 C 638.21904 -438.00318 636.36833 -446.08572 633.35938 -454.14062 C 632.07955 -457.56412 629.47747 -463.26291 627.65625 -466.40625 L 627.96875 -465.9375 L 628.82812 -467.26562 C 636.18978 -478.32434 640.52845 -490.55149 642.1875 -504.6875 C 643.00083 -511.34356 642.80577 -522.86161 641.79688 -529.45312 C 639.35715 -544.99709 633.58893 -559.36751 624.6875 -572.03125 C 619.97312 -578.75222 613.32919 -585.86428 607.26562 -590.70312 C 606.67281 -591.17729 606.19206 -591.63505 605.70312 -592.03125 C 605.75772 -592.3755 605.78504 -592.74058 605.85938 -593.125 C 609.62259 -612.74821 609.5041 -636.69175 605.54688 -655.85938 C 602.12584 -672.52855 595.95807 -686.08706 587.26562 -694.375 C 580.49285 -700.81901 572.75184 -703.98256 564.14062 -703.4375 C 553.97849 -702.83504 545.04851 -696.62178 538.20312 -686.875 C 531.35517 -677.12457 526.36124 -663.70556 523.51562 -647.5 C 523.05211 -644.88808 522.58214 -642.0777 522.26562 -639.6875 C 522.24763 -639.55146 522.28302 -639.42863 522.26562 -639.29688 C 508.95748 -646.60791 494.27471 -650.54688 479.92188 -650.54688 C 465.57017 -650.54688 450.96354 -646.60679 437.65625 -639.29688 C 437.63395 -639.4658 437.67955 -639.66822 437.65625 -639.84375 C 437.33572 -642.25781 436.85631 -644.9997 436.40625 -647.5 C 431.24488 -676.57525 419.43379 -697.05988 401.79688 -702.5 L 401.71875 -702.5 C 399.21751 -703.25039 396.26376 -703.61068 393.4375 -703.59375 C 392.15283 -703.58575 390.94163 -703.46342 389.76562 -703.28125 L 389.6875 -703.28125 C 384.92938 -702.51262 379.95015 -700.34712 376.01562 -697.34375 C 364.60963 -688.67578 356.82653 -671.65983 353.4375 -650.85938 C 352.15522 -642.94674 351.25 -632.33481 351.25 -623.98438 C 351.25 -614.15487 352.39778 -601.88818 354.0625 -593.125 C 354.1368 -592.74084 354.16412 -592.37529 354.21875 -592.03125 C 353.72998 -591.63516 353.24883 -591.17716 352.65625 -590.70312 C 346.59374 -585.86527 339.94826 -578.75091 335.23438 -572.03125 C 326.32836 -559.39285 320.53487 -544.97628 318.125 -529.45312 C 317.11604 -522.86115 316.92065 -511.34349 317.73438 -504.6875 C 319.39354 -490.55223 323.73234 -478.3239 331.09375 -467.26562 L 331.95312 -465.9375 L 332.57812 -467.03125 C 327.52402 -458.54213 323.43336 -446.83281 321.48438 -435.39062 C 319.99788 -426.65345 319.76562 -423.69822 319.76562 -412.03125 C 319.76562 -400.28095 320.00768 -397.39747 321.40625 -389.21875 C 323.13557 -379.09427 326.53086 -368.60722 330.625 -361.17188 C 331.34047 -359.88065 332.44885 -358.16459 333.4375 -356.64062 C 333.75937 -356.14446 334.0105 -355.73579 334.29688 -355.3125 C 334.28058 -355.2749 334.31357 -355.19418 334.29688 -355.15625 C 329.76971 -345.23953 325.97505 -332.47871 324.375 -321.40625 C 323.28257 -314.06049 323.125 -311.24212 323.125 -303.51562 C 323.125 -293.57994 323.75389 -288.17566 325.85938 -280.15625 L 325.9375 -280 L 184.60938 -280 C 178.44938 -280 172.78291 -282.52959 167.65625 -287.65625 C 162.52959 -292.78291 160 -298.44938 160 -304.60938 L 160 -735.39062 C 160 -741.55062 162.52959 -747.21709 167.65625 -752.34375 C 172.78291 -757.47041 178.44938 -760 184.60938 -760 z M 393.98438 -670.70312 C 395.25478 -669.27942 396.93196 -666.89069 398.4375 -663.82812 C 400.38377 -659.86905 402.19545 -654.84674 403.51562 -649.60938 C 404.01122 -647.68514 404.60563 -645.2193 404.6875 -644.76562 C 404.84075 -643.75475 405.12219 -642.10506 405.39062 -640.70312 C 406.51167 -634.60842 407.04998 -627.93145 407.10938 -619.6875 L 407.10938 -612.65625 L 405.78125 -610.625 L 404.84375 -609.29688 L 402.10938 -609.29688 C 396.1294 -609.29688 390.17524 -608.48103 384.45312 -606.95312 C 384.29707 -606.91413 384.2177 -606.91395 384.0625 -606.875 C 382.57284 -619.41853 382.73293 -633.18898 384.53125 -644.53125 C 385.56981 -651.12405 387.28322 -657.46871 389.29688 -662.42188 C 390.81702 -666.16112 392.64451 -669.0766 393.98438 -670.70312 z M 565.9375 -670.70312 C 567.63945 -668.55409 570.26905 -663.91627 572.10938 -658.28125 C 576.60538 -644.60011 578.06316 -625.31795 575.85938 -606.875 C 575.70344 -606.9142 575.62556 -606.91395 575.46875 -606.95312 C 569.74681 -608.48092 563.79228 -609.29688 557.8125 -609.29688 L 555.07812 -609.29688 L 554.21875 -610.625 L 552.8125 -612.65625 L 552.8125 -619.6875 C 552.8717 -631.13668 553.8924 -639.83501 556.40625 -649.6875 C 557.71002 -654.87336 559.5377 -659.8787 561.48438 -663.82812 C 562.97975 -666.86195 564.67243 -669.27225 565.9375 -670.70312 z M 479.92188 -618.59375 C 485.44948 -618.59375 486.32039 -618.53847 489.14062 -617.96875 C 500.3657 -615.68922 511.64345 -609.86051 520.625 -601.5625 C 521.88241 -600.39668 527.31187 -593.68338 528.4375 -591.875 C 528.81918 -591.24063 529.97996 -589.07471 530.54688 -587.73438 L 530.54688 -587.65625 C 532.54408 -583.07213 535.16639 -579.92805 538.98438 -578.125 C 542.21267 -576.57593 545.91822 -576.32455 550.15625 -577.03125 L 550.23438 -577.03125 C 555.85396 -577.99127 559.72603 -577.92674 565.23438 -576.79688 C 583.60411 -573.08989 600.04672 -557.68761 607.34375 -536.79688 C 613.69831 -518.46952 611.83818 -499.49221 602.57812 -485.15625 C 601.01987 -482.73511 599.51512 -480.90905 597.1875 -478.4375 C 593.98813 -475.01894 592.19255 -470.84027 592.1875 -466.5625 C 592.1825 -462.28473 593.95059 -458.09478 597.10938 -454.60938 C 600.01141 -451.4334 602.57294 -444.55604 604.6875 -437.42188 C 605.54971 -434.77547 606.00617 -432.31421 606.64062 -429.375 C 608.10173 -421.34856 609.17027 -412.76092 608.51562 -404.53125 C 607.47098 -391.53121 603.93704 -379.8344 599.92188 -374.0625 C 599.34378 -373.23746 597.51876 -371.14349 596.48438 -370.15625 C 594.60534 -368.31001 593.21711 -366.58984 592.26562 -364.6875 C 591.28094 -362.68599 590.85937 -360.75963 590.85938 -357.8125 L 590.85938 -353.75 L 593.90625 -347.8125 C 598.14748 -339.65434 600.2777 -334.02693 602.26562 -326.01562 C 606.52693 -309.0588 605.8038 -292.02804 601.5625 -283.67188 C 601.33477 -283.21642 601.10882 -282.79597 600.9375 -282.42188 C 600.8519 -282.23484 600.78069 -282.06527 600.70312 -281.875 C 600.66433 -281.7799 600.60157 -281.64641 600.54688 -281.48438 C 600.49218 -281.32234 600.3125 -281.50086 600.3125 -280.15625 C 600.3125 -280.08038 600.38625 -280.07385 600.39062 -280 L 360.3125 -280 L 358.51562 -283.51562 C 354.24103 -291.42233 353.33902 -308.83373 357.65625 -326.01562 C 359.64441 -334.02696 361.7747 -339.65426 366.01562 -347.8125 L 369.0625 -353.75 L 369.0625 -357.8125 C 369.0625 -360.75945 368.6412 -362.68577 367.65625 -364.6875 C 366.70476 -366.59075 365.31651 -368.31015 363.4375 -370.15625 C 360.83343 -372.67965 359.07983 -375.16585 357.57812 -378.4375 C 350.71566 -393.33361 349.1605 -416.63365 354.14062 -436.09375 C 356.18854 -444.11475 359.83537 -451.34653 362.8125 -454.60938 C 365.9056 -458.03039 367.73437 -462.20312 367.73438 -466.5625 C 367.73438 -470.90979 365.91018 -474.93668 362.73438 -478.35938 L 362.73438 -478.4375 C 355.51032 -486.1655 351.06406 -495.43617 349.45312 -506.48438 C 347.17233 -522.16875 351.38561 -539.48199 360.85938 -553.125 C 370.16656 -566.55961 383.04771 -575.00857 397.34375 -577.26562 C 399.94878 -577.69615 406.68746 -577.63089 409.53125 -577.10938 C 413.88969 -576.34417 417.58302 -576.56764 420.85938 -578.125 C 424.68116 -579.92748 427.37655 -583.06928 429.375 -587.65625 L 429.375 -587.73438 C 430.91066 -591.28912 431.84596 -592.66629 435.15625 -596.79688 C 439.01918 -601.59684 442.48338 -604.70467 448.59375 -608.75 C 455.39937 -613.19985 463.13574 -616.42249 470.78125 -617.96875 C 473.60227 -618.53871 474.39363 -618.59375 479.92188 -618.59375 z M 477.26562 -527.57812 C 476.39579 -527.57038 475.5407 -527.492 474.84375 -527.42188 C 468.3802 -526.79504 466.25334 -526.50711 463.04688 -525.85938 C 457.495 -524.70988 450.60058 -522.36037 445.46875 -519.84375 C 428.10224 -511.35069 415.87127 -496.99629 412.10938 -480.15625 C 411.39198 -476.97377 411.17188 -475.22444 411.17188 -470 C 411.17188 -464.83292 411.33727 -463.05886 412.03125 -460 C 417.06275 -437.86762 437.42202 -421.80471 462.96875 -418.90625 C 469.44579 -418.19879 490.47607 -418.19879 496.95312 -418.90625 C 517.51189 -421.23667 535.4344 -432.30512 543.67188 -448.51562 C 545.73794 -452.61713 546.93331 -455.75643 547.89062 -460 C 548.58399 -463.05696 548.75 -464.83469 548.75 -470 C 548.75 -475.2244 548.52989 -476.97383 547.8125 -480.15625 C 542.34099 -504.65297 518.96322 -523.31853 490.70312 -526.875 C 488.67874 -527.11926 485.57992 -527.30632 482.5 -527.42188 C 480.57505 -527.49407 478.76347 -527.59095 477.26562 -527.57812 z M 560.3125 -524.76562 C 558.5744 -524.76163 556.83708 -524.44425 555.15625 -523.98438 C 549.82422 -522.54199 545.27919 -518.75688 542.8125 -513.67188 L 541.17188 -510.23438 L 541.17188 -505.70312 C 541.17188 -502.29206 541.50367 -500.51287 542.5 -498.04688 C 543.94913 -494.36455 545.77382 -491.58458 548.51562 -488.90625 C 553.52304 -483.94251 560.37147 -482.40985 567.57812 -484.29688 C 572.61339 -485.62884 576.90535 -489.24404 579.21875 -493.98438 C 580.94637 -497.4805 581.48757 -501.04284 580.9375 -505 C 579.64758 -514.16934 573.86311 -521.52424 565.46875 -523.98438 C 563.78395 -524.48603 562.04894 -524.77011 560.3125 -524.76562 z M 399.375 -524.6875 C 397.61201 -524.6726 395.84844 -524.46997 394.14062 -523.90625 C 387.66986 -521.85309 382.65079 -516.87679 380.23438 -510.3125 C 378.90747 -506.76826 378.3008 -502.73226 378.98438 -499.0625 C 380.28476 -492.01568 385.54123 -486.13005 392.34375 -484.29688 C 399.55002 -482.40981 406.39883 -483.9425 411.40625 -488.90625 C 414.14774 -491.58427 415.9731 -494.36425 417.42188 -498.04688 C 418.4182 -500.51287 418.75 -502.29206 418.75 -505.70312 L 418.75 -510.23438 L 417.10938 -513.67188 C 414.59439 -518.77591 410.01417 -522.63415 404.60938 -524.0625 C 402.90981 -524.49275 401.15207 -524.70256 399.375 -524.6875 z M 479.76562 -503.28125 C 482.25665 -503.28525 484.809 -503.26159 486.17188 -503.125 C 494.46082 -502.22894 502.90487 -499.18322 509.53125 -494.76562 C 512.71683 -492.64192 518.27355 -487.10319 520.07812 -484.375 C 522.66472 -480.44048 524.08026 -476.59293 524.76562 -471.64062 C 525.03459 -469.60274 525.00315 -468.54134 524.14062 -464.6875 C 523.0023 -459.86412 519.11792 -454.18142 513.90625 -450.3125 C 511.77292 -448.76258 505.80429 -445.68766 502.96875 -444.76562 C 496.63716 -442.74192 493.09252 -442.4585 477.57812 -442.57812 C 467.42132 -442.66832 466.06649 -442.70108 463.35938 -443.20312 C 454.02717 -444.95209 447.01423 -448.55228 441.95312 -453.90625 L 441.95312 -453.98438 C 437.73935 -458.41685 436.22106 -461.67218 435.15625 -468.35938 C 434.8602 -470.31141 435.56489 -475.71033 437.26562 -479.76562 C 439.15499 -484.28559 445.05544 -491.19945 450.39062 -494.76562 C 456.81849 -499.05032 465.6411 -502.22041 473.4375 -503.04688 C 474.77335 -503.19401 477.26888 -503.27707 479.76562 -503.28125 z M 471.79688 -489.6875 C 469.90758 -489.6855 468.17789 -489.46976 466.64062 -488.67188 L 466.5625 -488.67188 L 466.5625 -488.59375 C 464.51606 -487.48993 463.13771 -485.85032 462.1875 -483.98438 C 461.2373 -482.11843 460.67885 -479.95029 461.17188 -477.57812 C 462.06998 -473.43524 465.12409 -470.32193 469.14062 -467.89062 L 469.21875 -467.89062 C 469.21375 -467.83273 469.22585 -467.71396 469.21875 -467.65625 C 469.13885 -467.00416 468.9735 -466.21077 468.82812 -465.46875 C 468.63601 -464.58198 468.48174 -463.73116 468.35938 -462.96875 C 468.23372 -462.18579 468.125 -461.77249 468.125 -460.78125 L 468.125 -460.70312 C 468.1682 -458.86735 468.77871 -457.67417 469.45312 -456.48438 C 470.12738 -455.29486 470.9168 -454.24702 472.10938 -453.28125 C 472.74595 -452.76544 473.97874 -451.92407 475.23438 -451.64062 C 476.49006 -451.35717 477.40907 -451.37355 478.98438 -451.32812 C 480.44552 -451.28193 481.43887 -451.28965 482.5 -451.40625 C 483.56397 -451.52313 484.62509 -451.90308 485.39062 -452.26562 L 485.46875 -452.26562 C 487.69103 -453.3542 489.67924 -455.47228 490.39062 -457.96875 C 491.10194 -460.46494 490.84515 -462.99193 490.23438 -465.85938 C 490.05027 -466.72488 489.96895 -467.38061 489.92188 -467.8125 C 492.97717 -469.59779 495.65792 -471.71493 497.1875 -475.07812 C 499.4901 -480.11978 497.1485 -486.13798 492.26562 -488.67188 L 492.26562 -488.75 C 490.74705 -489.50977 489.0208 -489.6875 487.26562 -489.6875 C 484.66394 -489.6875 482.20626 -488.89642 479.60938 -487.34375 L 480.70312 -486.64062 C 480.28604 -486.88696 479.89283 -487.05507 479.53125 -487.26562 C 479.32221 -487.1403 479.11657 -487.00948 478.90625 -486.875 L 478.90625 -486.95312 L 479.53125 -487.26562 C 478.21187 -488.03377 477.22973 -488.64453 476.09375 -489.0625 C 474.65465 -489.592 473.11087 -489.70252 471.79688 -489.6875 z M 627.26562 -467.03125 L 627.34375 -467.03125 L 627.42188 -466.79688 C 627.37458 -466.87567 627.31161 -466.95664 627.26562 -467.03125 z M 480 -258.4375 C 486.71999 -258.4375 492.49709 -256.01854 497.34375 -251.17188 C 502.19041 -246.32521 504.60938 -240.54145 504.60938 -233.82812 C 504.60937 -227.10813 502.19041 -221.33104 497.34375 -216.48438 C 492.49709 -211.63771 486.71999 -209.21875 480 -209.21875 C 473.28001 -209.21875 467.50291 -211.63771 462.65625 -216.48438 C 457.80959 -221.33104 455.39063 -227.10813 455.39062 -233.82812 C 455.39063 -240.54145 457.80959 -246.32521 462.65625 -251.17188 C 467.50291 -256.01854 473.28001 -258.4375 480 -258.4375 z " />
</svg>
