<?xml version="1.0" encoding="UTF-8"?>
<svg width="24" height="24" fill="#000000" version="1.1" viewBox="0 0 24 24" xmlns="http://www.w3.org/2000/svg"><path d="m4.615 4.365c-0.46034 0-0.84404 0.15457-1.1524 0.46291-0.30834 0.30834-0.4629 0.69203-0.4629 1.1524v10.77c0 0.46034 0.15457 0.84403 0.4629 1.1524 0.30834 0.30834 0.69203 0.46291 1.1524 0.46291h-3.6153c0 0.34484 0.12629 0.64193 0.37696 0.8926 0.25067 0.25067 0.54776 0.37696 0.89261 0.37696h19.462c0.34484 0 0.64193-0.12629 0.89261-0.37696 0.25067-0.25067 0.37696-0.54776 0.37696-0.8926h-3.6153c0.46035 0 0.84404-0.15457 1.1524-0.46291 0.30834-0.30834 0.4629-0.69203 0.4629-1.1524v-10.77c0-0.46034-0.15457-0.84403-0.4629-1.1524-0.30834-0.30834-0.69203-0.46291-1.1524-0.46291zm0 1h14.77c0.154 0 0.29567 0.0632 0.42384 0.19142 0.12817 0.12816 0.19141 0.26983 0.19141 0.42383v10.77c0 0.154-0.06324 0.29566-0.19141 0.42383-0.12817 0.12817-0.26984 0.19141-0.42384 0.19141h-3.5333l2e-3 -8e-3c0.0039-0.0151 0.01091-0.0397 0.01563-0.0586 0.01194-0.0477 0.02722-0.14054 0.04102-0.23632 0.01715-0.12712 0.01598-0.44259 0-0.57424v-2e-3c-0.04903-0.3892-0.13339-0.70323-0.26954-1v-2e-3c0.0064-9e-3 0.01259-0.0208 0.01953-0.0312 0.17502-0.26492 0.27962-0.59322 0.33204-1.0157 0.01753-0.14713 0.01803-0.59097 0-0.73635-0.03671-0.28603-0.08298-0.48809-0.15821-0.68947-0.032-0.0856-0.09705-0.22807-0.14258-0.30665l0.0078 0.0117 0.02148-0.0332c0.18405-0.27648 0.29252-0.58217 0.33399-0.93558 0.02033-0.1664 0.01545-0.45436-0.0098-0.61916-0.06099-0.3886-0.2052-0.74788-0.42775-1.0645-0.11786-0.16803-0.28397-0.34584-0.43556-0.46681-0.01482-0.0119-0.02684-0.0233-0.03906-0.0332 0.0014-9e-3 2e-3 -0.0177 0.0039-0.0273 0.09408-0.49059 0.09112-1.0892-0.0078-1.5684-0.08553-0.41675-0.23973-0.75573-0.45704-0.96292-0.16932-0.16111-0.36286-0.2402-0.57814-0.22658-0.25406 0.0151-0.47732 0.1704-0.64846 0.41408-0.1712 0.24377-0.29606 0.57925-0.3672 0.9844-0.01159 0.0653-0.02334 0.13557-0.03125 0.19532-4.5e-4 3e-3 4.35e-4 6e-3 0 0.01-0.33271-0.18279-0.6998-0.28126-1.0586-0.28126-0.3588 0-0.72398 0.0985-1.0567 0.28126-5.58e-4 -4e-3 5.82e-4 -9e-3 0-0.0137-8e-3 -0.0603-0.02-0.12891-0.03125-0.19142-0.12904-0.7269-0.42433-1.239-0.86526-1.375h-2e-3c-0.062531-0.0188-0.13638-0.0278-0.20704-0.0273-0.03212 2.5e-4 -0.0624 3e-3 -0.0918 8e-3h-2e-3c-0.11896 0.0192-0.24344 0.0734-0.34181 0.14844-0.28516 0.21671-0.47974 0.64212-0.56447 1.1622-0.03206 0.19782-0.05469 0.46312-0.05469 0.67189 0 0.24575 0.02869 0.55243 0.07031 0.77151 0.0019 0.01 0.0025 0.0187 0.0039 0.0273-0.01222 0.01-0.02425 0.0213-0.03906 0.0332-0.15157 0.12095-0.31771 0.29881-0.43556 0.46681-0.22266 0.31597-0.3675 0.6764-0.42775 1.0645-0.02522 0.16481-0.03011 0.45277-0.0098 0.61916 0.04148 0.35339 0.14996 0.65912 0.33399 0.93558l0.02148 0.0332 0.01563-0.0273c-0.12636 0.21224-0.22863 0.50498-0.27735 0.79104-0.03716 0.21843-0.04297 0.29232-0.04297 0.584 0 0.29377 0.0061 0.36586 0.04102 0.57033 0.04323 0.25312 0.12812 0.51531 0.23048 0.70119 0.01789 0.0323 0.0456 0.0752 0.07031 0.1133 8e-3 0.0124 0.01432 0.0226 0.02148 0.0332-4.08e-4 9.4e-4 4.171e-4 3e-3 0 4e-3 -0.11318 0.24791-0.20805 0.56695-0.24805 0.84377-0.02731 0.18365-0.03125 0.25411-0.03125 0.44728 0 0.24839 0.01572 0.38351 0.06836 0.584l2e-3 4e-3h-3.5333c-0.154 0-0.29567-0.0632-0.42384-0.19141-0.12809-0.12859-0.19133-0.27025-0.19133-0.42425v-10.77c0-0.154 0.06324-0.29567 0.19141-0.42383 0.12817-0.12817 0.26984-0.19142 0.42384-0.19142zm5.2345 2.2325c0.03176 0.0356 0.07369 0.0953 0.11133 0.17189 0.048661 0.099 0.093951 0.22454 0.12696 0.35548 0.01239 0.0481 0.02725 0.10975 0.0293 0.12109 0.0038 0.0253 0.01087 0.0665 0.01758 0.10157 0.02803 0.15237 0.04148 0.31931 0.04297 0.5254v0.17579l-0.0332 0.0508-0.02344 0.0332h-0.06836c-0.1495 0-0.29836 0.0204-0.44142 0.0586-0.0039 9.8e-4 -0.0059 9.8e-4 -0.0098 2e-3 -0.03724-0.31359-0.03324-0.65786 0.01172-0.94143 0.02596-0.16482 0.0688-0.32345 0.11914-0.44728 0.038-0.0935 0.08369-0.16637 0.11719-0.20704zm4.299 0c0.04255 0.0537 0.10829 0.16968 0.1543 0.31056 0.1124 0.34204 0.14885 0.82411 0.09375 1.2852-0.0039-9.8e-4 -0.0058-9.8e-4 -0.0098-2e-3 -0.14305-0.0382-0.29192-0.0586-0.44142-0.0586h-0.06836l-0.02148-0.0332-0.03516-0.0508v-0.17579c0.0015-0.28624 0.027-0.50369 0.08984-0.75002 0.0326-0.12964 0.07829-0.25479 0.12696-0.35352 0.03738-0.0759 0.0797-0.13612 0.11133-0.17189zm-2.1505 1.3028c0.13819 0 0.15997 1e-3 0.23048 0.0156 0.28063 0.057 0.56259 0.20272 0.78713 0.41018 0.03144 0.0291 0.16718 0.19698 0.19532 0.24219 0.0095 0.0159 0.03856 0.07 0.05273 0.10352v2e-3c0.04993 0.11461 0.11549 0.19321 0.21094 0.23829 0.08071 0.0387 0.17335 0.045 0.27931 0.0273h2e-3c0.14049-0.024 0.2373-0.0224 0.37501 6e-3 0.45925 0.0927 0.87034 0.47774 1.0528 1 0.15887 0.45819 0.11236 0.93265-0.11914 1.291-0.03896 0.0605-0.07658 0.10618-0.13477 0.16797-0.07999 0.0855-0.12488 0.18994-0.125 0.29689-1.25e-4 0.10694 0.04408 0.2117 0.12305 0.29883 0.07255 0.0794 0.13659 0.25135 0.18946 0.4297 0.02155 0.0662 0.03297 0.1277 0.04883 0.20118 0.03653 0.20067 0.06324 0.41537 0.04687 0.62112-0.02612 0.32501-0.11447 0.61744-0.21485 0.76174-0.01445 0.0206-0.06008 0.073-0.08594 0.0976-0.04698 0.0462-0.08168 0.0892-0.10547 0.13672-0.02462 0.05-0.03516 0.0982-0.03516 0.17188v0.10157l0.07617 0.14844c0.10603 0.20396 0.15929 0.34465 0.20899 0.54494 0.10654 0.42393 0.08845 0.84972-0.01758 1.0586-0.0057 0.0114-0.01134 0.0219-0.01563 0.0312-0.0021 5e-3 -0.0039 9e-3 -0.0059 0.0137-9.7e-4 2e-3 -0.0025 6e-3 -0.0039 0.01s-0.0059-4.1e-4 -0.0059 0.0332c0 2e-3 0.0018 2e-3 2e-3 4e-3h-6.0021l-0.04492-0.0879c-0.10687-0.19767-0.12942-0.63298-0.02148-1.0625 0.0497-0.20029 0.10297-0.34098 0.20899-0.54494l0.07617-0.14844v-0.10157c0-0.0737-0.01053-0.12183-0.03516-0.17188-0.02379-0.0476-0.05849-0.0906-0.10547-0.13672-0.0651-0.0631-0.10894-0.12525-0.14649-0.20704-0.17156-0.37241-0.21044-0.95493-0.08594-1.4414 0.0512-0.20053 0.14237-0.38133 0.2168-0.46291 0.07733-0.0855 0.12305-0.18985 0.12305-0.29883 0-0.10869-0.04561-0.20937-0.125-0.29494v-2e-3c-0.18061-0.1932-0.29177-0.42498-0.33204-0.70119-0.05702-0.39212 0.04831-0.82497 0.28516-1.1661 0.23269-0.33587 0.55473-0.5471 0.91214-0.60352 0.06513-0.0108 0.2336-9e-3 0.3047 4e-3 0.10896 0.0191 0.2013 0.0135 0.28321-0.0254 0.09554-0.0451 0.16294-0.12361 0.2129-0.23829v-2e-3c0.03839-0.0889 0.06177-0.12331 0.14454-0.22657 0.09657-0.12 0.18319-0.19771 0.33595-0.29884 0.17014-0.11124 0.36356-0.19181 0.5547-0.23048 0.07053-0.0143 0.09031-0.0156 0.22852-0.0156zm-0.06641 2.2755c-0.02175 2e-4 -0.04312 2e-3 -0.06055 4e-3 -0.16159 0.0157-0.21477 0.0229-0.29493 0.0391-0.1388 0.0287-0.31117 0.0875-0.43947 0.15039-0.43418 0.21233-0.73996 0.5712-0.83401 0.99221-0.01794 0.0796-0.02344 0.1233-0.02344 0.25392 0 0.12918 0.0041 0.17353 0.02148 0.25001 0.12579 0.55332 0.63479 0.95491 1.2735 1.0274 0.16193 0.0177 0.6877 0.0177 0.84964 0 0.51398-0.0583 0.96206-0.33498 1.168-0.74026 0.05165-0.10254 0.08154-0.18102 0.10547-0.28711 0.01733-0.0764 0.02148-0.12088 0.02148-0.25001 0-0.13062-0.0055-0.17436-0.02344-0.25392-0.13679-0.61243-0.72125-1.0791-1.4278-1.168-0.05061-6e-3 -0.12808-0.0108-0.20508-0.0137-0.04812-2e-3 -0.09341-4e-3 -0.13086-4e-3zm2.0762 0.0703c-0.04345 1e-4 -0.08689 8e-3 -0.12891 0.0195-0.1333 0.0361-0.24693 0.13069-0.3086 0.25781l-0.04102 0.0859v0.11328c0 0.0853 0.0083 0.12976 0.0332 0.19142 0.03623 0.0921 0.08185 0.16156 0.15039 0.22851 0.12519 0.12411 0.29641 0.16242 0.47658 0.11525 0.12589-0.0333 0.23319-0.12369 0.29102-0.2422 0.04319-0.0874 0.05672-0.17647 0.04297-0.2754-0.03225-0.22924-0.17686-0.41312-0.38673-0.47462-0.04212-0.0125-0.0855-0.0196-0.12891-0.0195zm-4.0236 2e-3c-0.04407 3.7e-4 -0.08816 5e-3 -0.13086 0.0195-0.16177 0.0513-0.28725 0.17574-0.34767 0.33986-0.03317 0.0886-0.04834 0.1895-0.03125 0.28126 0.03251 0.17617 0.16393 0.32332 0.334 0.36915 0.18016 0.0472 0.35139 9e-3 0.47658-0.11525 0.06854-0.067 0.11417-0.13645 0.1504-0.22851 0.02491-0.0616 0.0332-0.10614 0.0332-0.19142v-0.11328l-0.04102-0.0859c-0.06287-0.1276-0.17738-0.22405-0.31251-0.25976-0.04249-0.0108-0.08643-0.016-0.13086-0.0156zm2.0098 0.53517c0.06228-1e-4 0.12609 4.9e-4 0.16016 4e-3 0.20723 0.0224 0.41834 0.0985 0.584 0.209 0.07964 0.0531 0.21856 0.19157 0.26368 0.25977 0.06466 0.0984 0.10006 0.19456 0.11719 0.31837 0.0067 0.051 0.0059 0.0775-0.01563 0.17383-0.02846 0.1206-0.12557 0.26266-0.25587 0.35939-0.05333 0.0387-0.20256 0.11563-0.27345 0.13868-0.15829 0.0506-0.24691 0.0577-0.63478 0.0547-0.25393-2e-3 -0.2878-3e-3 -0.35548-0.0156-0.23331-0.0437-0.40864-0.13374-0.53517-0.26759v-2e-3c-0.10535-0.11081-0.14331-0.1922-0.16993-0.35938-0.0074-0.0488 0.01022-0.18379 0.05273-0.28517 0.04724-0.113 0.19475-0.28586 0.32814-0.37501 0.1607-0.10712 0.38128-0.18638 0.57619-0.20704 0.0334-4e-3 0.09578-6e-3 0.15821-6e-3zm-0.19922 0.33985c-0.04723 5e-5 -0.09047 5e-3 -0.12891 0.0254h-2e-3v2e-3c-0.05116 0.0276-0.08562 0.0686-0.10938 0.11524-0.02376 0.0466-0.03772 0.10085-0.02539 0.16016 0.02245 0.10358 0.09881 0.18141 0.19922 0.24219h2e-3c-1.24e-4 1e-3 1.75e-4 4e-3 0 6e-3 -2e-3 0.0163-0.0061 0.0361-0.0098 0.0547-0.0048 0.0222-0.0087 0.0434-0.01172 0.0625-0.0031 0.0196-0.0059 0.0299-0.0059 0.0547v2e-3c0.0011 0.0459 0.01634 0.0757 0.0332 0.10547 0.01686 0.0297 0.03659 0.0559 0.06641 0.0801 0.01591 0.0129 0.04673 0.0339 0.07813 0.041 0.03139 7e-3 0.05437 7e-3 0.09375 8e-3 0.03653 1e-3 0.06136 9.6e-4 0.08789-2e-3 0.0266-3e-3 0.05313-0.0124 0.07227-0.0215h2e-3c0.05556-0.0272 0.10526-0.0802 0.12305-0.14258 0.01778-0.0624 0.01136-0.12559-0.0039-0.19728-0.0046-0.0216-0.0066-0.038-0.0078-0.0488 0.07638-0.0446 0.14341-0.0976 0.18165-0.18165 0.05756-0.12605-9.75e-4 -0.2765-0.12305-0.33986v-2e-3c-0.03796-0.019-0.08112-0.0234-0.125-0.0234-0.06504 0-0.12649 0.0198-0.19141 0.0586l0.02734 0.0176c-0.01043-6e-3 -0.02026-0.0104-0.0293-0.0156-0.0052 3e-3 -0.01037 6e-3 -0.01563 0.01v-2e-3l0.01563-8e-3c-0.03298-0.0192-0.05754-0.0345-0.08594-0.0449-0.03598-0.0132-0.07457-0.016-0.10743-0.0156zm0.20509 5.7814c0.168 0 0.31244 0.0605 0.43361 0.18165 0.12117 0.12117 0.18165 0.26576 0.18165 0.43361 0 0.16801-0.06047 0.31243-0.18165 0.4336-0.12117 0.12118-0.2656 0.18165-0.43361 0.18165s-0.31244-0.0605-0.43361-0.18165c-0.12117-0.12117-0.18164-0.26559-0.18165-0.4336 1e-6 -0.16785 0.06047-0.31244 0.18165-0.43361 0.12117-0.12117 0.2656-0.18165 0.43361-0.18165z" fill="#000"/><path d="m11.998 11.997h2e-3l2e-3 6e-3c-0.0012-2e-3 -0.0028-4e-3 -0.0039-6e-3z"/></svg>
