<?xml version="1.0" encoding="UTF-8" standalone="no"?>
<svg
   height="24px"
   viewBox="0 -960 960 960"
   width="24px"
   fill="#000"
   version="1.1"
   id="svg20349"
   xmlns="http://www.w3.org/2000/svg"
   xmlns:svg="http://www.w3.org/2000/svg">
  <defs
     id="defs20353" />
  <path
     d="m 480,-258.4375 c 6.71999,0 12.49709,2.41896 17.34375,7.26562 4.84666,4.84667 7.26563,10.63043 7.26563,17.34376 -10e-6,6.71999 -2.41897,12.49708 -7.26563,17.34374 -4.84666,4.84667 -10.62376,7.26563 -17.34375,7.26563 -6.71999,0 -12.49709,-2.41896 -17.34375,-7.26563 -4.84666,-4.84666 -7.26562,-10.62375 -7.26563,-17.34374 10e-6,-6.71333 2.41897,-12.49709 7.26563,-17.34376 4.84666,-4.84666 10.62376,-7.26562 17.34375,-7.26562 z"
     id="path29886" />
  <path
     d="m 627.26562,-467.03125 h 0.0781 l 0.0781,0.23437 c -0.0473,-0.0788 -0.11027,-0.15976 -0.15626,-0.23437 z"
     id="path29884" />
  <g
     id="g31351">
    <path
       id="path29874"
       d="M 477.26562 -527.57812 C 476.3958 -527.57013 475.5407 -527.49201 474.84375 -527.42188 C 468.38021 -526.79504 466.25333 -526.5071 463.04688 -525.85938 C 457.495 -524.70988 450.60057 -522.36037 445.46875 -519.84375 C 428.10226 -511.3507 415.87126 -496.99627 412.10938 -480.15625 C 411.39198 -476.97377 411.17188 -475.22443 411.17188 -470 C 411.17188 -464.83293 411.33727 -463.05886 412.03125 -460 C 417.06274 -437.86764 437.42205 -421.80471 462.96875 -418.90625 C 469.44578 -418.19879 490.47608 -418.19879 496.95312 -418.90625 C 517.51187 -421.23667 535.4344 -432.30514 543.67188 -448.51562 C 545.73793 -452.61713 546.93332 -455.75643 547.89062 -460 C 548.58399 -463.05696 548.75 -464.8347 548.75 -470 C 548.75 -475.22439 548.52989 -476.97383 547.8125 -480.15625 C 542.341 -504.65295 518.9632 -523.31853 490.70312 -526.875 C 488.67875 -527.11926 485.57992 -527.30632 482.5 -527.42188 C 480.57505 -527.49407 478.76347 -527.59095 477.26562 -527.57812 z M 479.76562 -503.28125 C 482.25665 -503.28525 484.809 -503.26155 486.17188 -503.125 C 494.46081 -502.22894 502.90488 -499.18322 509.53125 -494.76562 C 512.71683 -492.64193 518.27356 -487.10319 520.07812 -484.375 C 522.66472 -480.44048 524.08027 -476.59293 524.76562 -471.64062 C 525.03459 -469.60275 525.00315 -468.54134 524.14062 -464.6875 C 523.00231 -459.86412 519.11791 -454.18142 513.90625 -450.3125 C 511.77292 -448.76258 505.80429 -445.68766 502.96875 -444.76562 C 496.63717 -442.74193 493.09251 -442.45851 477.57812 -442.57812 C 467.42134 -442.66832 466.06648 -442.70109 463.35938 -443.20312 C 454.02717 -444.95209 447.01423 -448.55229 441.95312 -453.90625 L 441.95312 -453.98438 C 437.73936 -458.41684 436.22106 -461.67218 435.15625 -468.35938 C 434.8602 -470.3114 435.5649 -475.71034 437.26562 -479.76562 C 439.15499 -484.28559 445.05545 -491.19946 450.39062 -494.76562 C 456.81849 -499.05032 465.64111 -502.22041 473.4375 -503.04688 C 474.77335 -503.194 477.26889 -503.27707 479.76562 -503.28125 z "
       style="fill:#000000;fill-opacity:1" />
    <path
       id="path20347"
       d="M 184.60938 -800 C 166.1961 -800 150.84891 -793.81762 138.51562 -781.48438 C 126.18238 -769.15109 120 -753.8039 120 -735.39062 L 120 -304.60938 C 120 -286.1961 126.18238 -270.84891 138.51562 -258.51562 C 150.84891 -246.18238 166.1961 -240 184.60938 -240 L 40 -240 C 40 -226.20672 45.051508 -214.32345 55.078125 -204.29688 C 65.104742 -194.27026 76.987986 -189.21875 90.78125 -189.21875 L 869.21875 -189.21875 C 883.01203 -189.21875 894.89526 -194.27026 904.92188 -204.29688 C 914.94845 -214.32345 920 -226.20672 920 -240 L 775.39062 -240 C 793.8039 -240 809.15109 -246.18238 821.48438 -258.51562 C 833.81762 -270.84891 840 -286.1961 840 -304.60938 L 840 -735.39062 C 840 -753.8039 833.81762 -769.15109 821.48438 -781.48438 C 809.15109 -793.81762 793.8039 -800 775.39062 -800 L 184.60938 -800 z M 184.60938 -760 L 775.39062 -760 C 781.55062 -760 787.21713 -757.47037 792.34375 -752.34375 C 797.47037 -747.21713 800 -741.55062 800 -735.39062 L 800 -304.60938 C 800 -298.44938 797.47037 -292.78287 792.34375 -287.65625 C 787.21713 -282.52963 781.55062 -280 775.39062 -280 L 634.0625 -280 L 634.14062 -280.3125 C 634.29799 -280.9148 634.57717 -281.90112 634.76562 -282.65625 C 635.24323 -284.56526 635.85426 -288.27796 636.40625 -292.10938 C 637.09214 -297.19367 637.04541 -309.81188 636.40625 -315.07812 L 636.40625 -315.15625 C 634.4451 -330.7239 631.07077 -343.28489 625.625 -355.15625 L 625.625 -355.23438 C 625.88012 -355.60537 626.12849 -356.06769 626.40625 -356.48438 C 633.40681 -367.08105 637.59051 -380.21232 639.6875 -397.10938 C 640.38873 -402.99444 640.4087 -420.74782 639.6875 -426.5625 C 638.21904 -438.00314 636.36829 -446.08576 633.35938 -454.14062 C 632.07955 -457.56412 629.47747 -463.26291 627.65625 -466.40625 L 627.96875 -465.9375 L 628.82812 -467.26562 C 636.18978 -478.3243 640.52845 -490.55153 642.1875 -504.6875 C 643.00083 -511.34352 642.80573 -522.86165 641.79688 -529.45312 C 639.35715 -544.99705 633.58889 -559.36755 624.6875 -572.03125 C 619.97312 -578.75218 613.32919 -585.86432 607.26562 -590.70312 C 606.67285 -591.17729 606.19206 -591.63505 605.70312 -592.03125 C 605.75772 -592.3755 605.78502 -592.74058 605.85938 -593.125 C 609.62255 -612.74813 609.50406 -636.69179 605.54688 -655.85938 C 602.12584 -672.52847 595.95807 -686.0871 587.26562 -694.375 C 580.49289 -700.81897 572.75184 -703.98256 564.14062 -703.4375 C 553.97857 -702.83504 545.04851 -696.62174 538.20312 -686.875 C 531.35521 -677.12461 526.36124 -663.70548 523.51562 -647.5 C 523.05215 -644.88808 522.58214 -642.0777 522.26562 -639.6875 C 522.24766 -639.55146 522.28302 -639.42859 522.26562 -639.29688 C 508.95756 -646.60787 494.27463 -650.54688 479.92188 -650.54688 C 465.57021 -650.54688 450.9635 -646.60675 437.65625 -639.29688 C 437.63395 -639.46576 437.67955 -639.66822 437.65625 -639.84375 C 437.33572 -642.25781 436.85631 -644.9997 436.40625 -647.5 C 431.24492 -676.57513 419.43371 -697.05992 401.79688 -702.5 L 401.71875 -702.5 C 399.21751 -703.25039 396.26376 -703.61068 393.4375 -703.59375 C 392.15283 -703.58575 390.94163 -703.46342 389.76562 -703.28125 L 389.6875 -703.28125 C 384.92938 -702.51262 379.95015 -700.34712 376.01562 -697.34375 C 364.60971 -688.67582 356.82653 -671.65971 353.4375 -650.85938 C 352.15522 -642.94674 351.25 -632.33477 351.25 -623.98438 C 351.25 -614.15487 352.39778 -601.88814 354.0625 -593.125 C 354.1368 -592.74084 354.16412 -592.37529 354.21875 -592.03125 C 353.72998 -591.63516 353.24883 -591.17716 352.65625 -590.70312 C 346.59378 -585.86531 339.94822 -578.75087 335.23438 -572.03125 C 326.32836 -559.39289 320.53487 -544.97624 318.125 -529.45312 C 317.11604 -522.86119 316.92065 -511.34345 317.73438 -504.6875 C 319.3935 -490.55227 323.73238 -478.32386 331.09375 -467.26562 L 331.95312 -465.9375 L 332.57812 -467.03125 C 327.52406 -458.54217 323.43332 -446.83277 321.48438 -435.39062 C 319.99788 -426.65349 319.76562 -423.69818 319.76562 -412.03125 C 319.76562 -400.28099 320.00768 -397.39743 321.40625 -389.21875 C 323.13557 -379.09431 326.53086 -368.60718 330.625 -361.17188 C 331.34047 -359.88065 332.44885 -358.16459 333.4375 -356.64062 C 333.75937 -356.1445 334.0105 -355.73579 334.29688 -355.3125 C 334.28058 -355.2749 334.31354 -355.19418 334.29688 -355.15625 C 329.76971 -345.23957 325.97505 -332.47867 324.375 -321.40625 C 323.28257 -314.06053 323.125 -311.24212 323.125 -303.51562 C 323.125 -293.57998 323.75389 -288.17562 325.85938 -280.15625 L 325.9375 -280 L 184.60938 -280 C 178.44938 -280 172.78287 -282.52963 167.65625 -287.65625 C 162.52963 -292.78287 160 -298.44938 160 -304.60938 L 160 -735.39062 C 160 -741.55062 162.52963 -747.21713 167.65625 -752.34375 C 172.78287 -757.47037 178.44938 -760 184.60938 -760 z M 393.98438 -670.70312 C 395.25476 -669.27944 396.93196 -666.89069 398.4375 -663.82812 C 400.38377 -659.86907 402.19547 -654.84672 403.51562 -649.60938 C 404.01122 -647.68514 404.60563 -645.2193 404.6875 -644.76562 C 404.84075 -643.75477 405.12221 -642.10506 405.39062 -640.70312 C 406.51167 -634.60844 407.04998 -627.93143 407.10938 -619.6875 L 407.10938 -612.65625 L 405.78125 -610.625 L 404.84375 -609.29688 L 402.10938 -609.29688 C 396.1294 -609.29688 390.17524 -608.48103 384.45312 -606.95312 C 384.29709 -606.91414 384.2177 -606.9139 384.0625 -606.875 C 382.57284 -619.41851 382.73293 -633.189 384.53125 -644.53125 C 385.56981 -651.12403 387.28322 -657.46871 389.29688 -662.42188 C 390.817 -666.1611 392.64451 -669.07662 393.98438 -670.70312 z M 565.9375 -670.70312 C 567.63945 -668.5541 570.26905 -663.91626 572.10938 -658.28125 C 576.60537 -644.60012 578.06315 -625.31793 575.85938 -606.875 C 575.70344 -606.9142 575.62556 -606.91393 575.46875 -606.95312 C 569.74682 -608.48092 563.79227 -609.29688 557.8125 -609.29688 L 555.07812 -609.29688 L 554.21875 -610.625 L 552.8125 -612.65625 L 552.8125 -619.6875 C 552.8717 -631.13667 553.8924 -639.83502 556.40625 -649.6875 C 557.71002 -654.87335 559.5377 -659.87871 561.48438 -663.82812 C 562.97974 -666.86195 564.67243 -669.27226 565.9375 -670.70312 z M 479.92188 -618.59375 C 485.44945 -618.59375 486.32042 -618.53845 489.14062 -617.96875 C 500.36567 -615.68922 511.64348 -609.86048 520.625 -601.5625 C 521.88241 -600.39668 527.31187 -593.68338 528.4375 -591.875 C 528.81918 -591.24063 529.97996 -589.07468 530.54688 -587.73438 L 530.54688 -587.65625 C 532.54405 -583.07213 535.16639 -579.92805 538.98438 -578.125 C 542.21264 -576.57593 545.91822 -576.32455 550.15625 -577.03125 L 550.23438 -577.03125 C 555.85393 -577.99127 559.72603 -577.92671 565.23438 -576.79688 C 583.60405 -573.08989 600.04675 -557.68752 607.34375 -536.79688 C 613.69828 -518.46955 611.83818 -499.49218 602.57812 -485.15625 C 601.0199 -482.73511 599.51512 -480.90905 597.1875 -478.4375 C 593.98813 -475.01894 592.19255 -470.84027 592.1875 -466.5625 C 592.1825 -462.28473 593.95059 -458.09475 597.10938 -454.60938 C 600.01138 -451.4334 602.57294 -444.55601 604.6875 -437.42188 C 605.54971 -434.77547 606.0062 -432.31421 606.64062 -429.375 C 608.10173 -421.34859 609.17027 -412.76089 608.51562 -404.53125 C 607.47101 -391.53124 603.93701 -379.83437 599.92188 -374.0625 C 599.34378 -373.23746 597.51873 -371.14349 596.48438 -370.15625 C 594.60534 -368.31001 593.21711 -366.58984 592.26562 -364.6875 C 591.28097 -362.68599 590.85937 -360.75963 590.85938 -357.8125 L 590.85938 -353.75 L 593.90625 -347.8125 C 598.14748 -339.65437 600.27773 -334.02693 602.26562 -326.01562 C 606.52693 -309.05886 605.8038 -292.02801 601.5625 -283.67188 C 601.33477 -283.21642 601.10882 -282.79594 600.9375 -282.42188 C 600.8519 -282.23484 600.78069 -282.06527 600.70312 -281.875 C 600.66435 -281.7799 600.60154 -281.64638 600.54688 -281.48438 C 600.49218 -281.32234 600.3125 -281.50088 600.3125 -280.15625 C 600.3125 -280.08035 600.38635 -280.07385 600.39062 -280 L 360.3125 -280 L 358.51562 -283.51562 C 354.24106 -291.42233 353.33902 -308.83379 357.65625 -326.01562 C 359.64441 -334.02696 361.77473 -339.65429 366.01562 -347.8125 L 369.0625 -353.75 L 369.0625 -357.8125 C 369.0625 -360.75945 368.6412 -362.68577 367.65625 -364.6875 C 366.70476 -366.59075 365.31651 -368.31015 363.4375 -370.15625 C 360.83343 -372.67965 359.07983 -375.16585 357.57812 -378.4375 C 350.71569 -393.33358 349.16053 -416.63371 354.14062 -436.09375 C 356.18854 -444.11472 359.83537 -451.34653 362.8125 -454.60938 C 365.9056 -458.03036 367.73437 -462.20312 367.73438 -466.5625 C 367.73438 -470.90979 365.91015 -474.93668 362.73438 -478.35938 L 362.73438 -478.4375 C 355.51032 -486.16547 351.06406 -495.4362 349.45312 -506.48438 C 347.17236 -522.16869 351.38561 -539.48202 360.85938 -553.125 C 370.16653 -566.55958 383.04774 -575.0086 397.34375 -577.26562 C 399.94878 -577.69615 406.68746 -577.63086 409.53125 -577.10938 C 413.88969 -576.34417 417.58302 -576.56764 420.85938 -578.125 C 424.68113 -579.92748 427.37655 -583.06928 429.375 -587.65625 L 429.375 -587.73438 C 430.91066 -591.28909 431.84596 -592.66629 435.15625 -596.79688 C 439.01918 -601.59681 442.48341 -604.70467 448.59375 -608.75 C 455.39934 -613.19985 463.13577 -616.42249 470.78125 -617.96875 C 473.60227 -618.53871 474.39363 -618.59375 479.92188 -618.59375 z "
       style="fill:#000000;fill-opacity:1" />
    <path
       d="m 471.79688,-489.6875 c -1.8893,0.002 -3.61899,0.21774 -5.15626,1.01562 h -0.0781 v 0.0781 c -2.04644,1.10382 -3.42479,2.74343 -4.375,4.60937 -0.9502,1.86595 -1.50865,4.03409 -1.01562,6.40626 0.8981,4.14288 3.95221,7.25619 7.96874,9.6875 h 0.0781 c -0.005,0.0579 0.007,0.17666 0,0.23437 -0.0799,0.65209 -0.24525,1.44548 -0.39063,2.1875 -0.19211,0.88677 -0.34638,1.73759 -0.46874,2.5 -0.12566,0.78296 -0.23438,1.19626 -0.23438,2.1875 v 0.0781 c 0.0432,1.83577 0.65371,3.02895 1.32812,4.21874 0.67426,1.18952 1.46368,2.23736 2.65626,3.20313 0.63657,0.51581 1.86936,1.35718 3.125,1.64063 1.25568,0.28345 2.17469,0.26707 3.75,0.3125 1.46114,0.0462 2.45449,0.0385 3.51562,-0.0781 1.06397,-0.11688 2.12509,-0.49683 2.89062,-0.85937 h 0.0781 c 2.22228,-1.08858 4.21049,-3.20666 4.92187,-5.70313 0.71132,-2.49619 0.45453,-5.02318 -0.15624,-7.89063 -0.18411,-0.8655 -0.26543,-1.52123 -0.3125,-1.95312 3.05529,-1.78529 5.73604,-3.90243 7.26562,-7.26562 2.3026,-5.04166 -0.039,-11.05986 -4.92188,-13.59376 v -0.0781 c -1.51857,-0.75977 -3.24482,-0.9375 -5,-0.9375 -2.60168,0 -5.05936,0.79108 -7.65624,2.34375 l 1.09374,0.70313 c -0.41708,-0.24634 -0.81029,-0.41445 -1.17187,-0.625 -0.20904,0.12532 -0.41468,0.25614 -0.625,0.39062 v -0.0781 l 0.625,-0.3125 c -1.31938,-0.76815 -2.30152,-1.37891 -3.4375,-1.79688 -1.4391,-0.5295 -2.98288,-0.64002 -4.29687,-0.625 z"
       id="path29882"
       style="fill:#000000;fill-opacity:1" />
    <path
       d="m 399.375,-524.6875 c -1.76299,0.0149 -3.52656,0.21753 -5.23438,0.78125 -6.47076,2.05316 -11.48983,7.02946 -13.90624,13.59375 -1.32691,3.54424 -1.93358,7.58024 -1.25,11.25 1.30038,7.04682 6.55685,12.93245 13.35937,14.76562 7.20627,1.88707 14.05508,0.35438 19.0625,-4.60937 2.74149,-2.67802 4.56685,-5.458 6.01563,-9.14063 0.99632,-2.46599 1.32812,-4.24518 1.32812,-7.65624 v -4.53126 l -1.64062,-3.4375 c -2.51499,-5.10403 -7.09521,-8.96227 -12.5,-10.39062 -1.69957,-0.43025 -3.45731,-0.64006 -5.23438,-0.625 z"
       id="path29878"
       style="fill:#000000;fill-opacity:1" />
    <path
       d="m 560.3125,-524.76562 c -1.7381,0.004 -3.47542,0.32137 -5.15625,0.78124 -5.33203,1.44239 -9.87706,5.2275 -12.34375,10.3125 l -1.64062,3.4375 v 4.53126 c 0,3.41106 0.33179,5.19025 1.32812,7.65624 1.44913,3.68233 3.27382,6.4623 6.01562,9.14063 5.00742,4.96374 11.85585,6.4964 19.0625,4.60937 5.03527,-1.33196 9.32723,-4.94716 11.64063,-9.6875 1.72762,-3.49612 2.26882,-7.05846 1.71875,-11.01562 -1.28992,-9.16934 -7.07439,-16.52424 -15.46875,-18.98438 -1.6848,-0.50165 -3.41981,-0.78573 -5.15625,-0.78124 z"
       id="path29876"
       style="fill:#000000;fill-opacity:1" />
  </g>
</svg>
