<?xml version="1.0" encoding="UTF-8" standalone="no"?>
<svg
   width="24"
   height="24"
   fill="none"
   version="1.1"
   viewBox="0 0 24 24"
   id="svg623"
   xmlns="http://www.w3.org/2000/svg"
   xmlns:svg="http://www.w3.org/2000/svg">
  <defs
     id="defs351" />
  <path
     d="M 9.4383384,9.0349407 V 6.963604 c 0,-0.1744508 0.06545,-0.3053233 0.2180291,-0.3924341 L 13.820931,4.1728032 c 0.566876,-0.3270392 1.242817,-0.4795817 1.940418,-0.4795817 2.616359,0 4.273546,2.0277492 4.273546,4.1861967 0,0.1525883 0,0.3270392 -0.02182,0.50149 L 15.695963,5.8516598 c -0.261598,-0.1525425 -0.523343,-0.1525425 -0.784941,0 z m 9.7243576,8.0671253 v -4.949423 c 0,-0.305323 -0.130909,-0.523343 -0.392471,-0.675941 L 13.297771,8.2934307 15.085647,7.2685974 c 0.152588,-0.087083 0.283461,-0.087083 0.436049,0 l 4.164527,2.3983758 c 1.199275,0.6977938 2.005895,2.1803468 2.005895,3.6192838 0,1.657004 -0.981062,3.183318 -2.529239,3.815671 z M 8.1519067,12.741418 6.3640309,11.694915 C 6.2114884,11.607832 6.1460017,11.476886 6.1460017,11.302435 V 6.5056924 c 0,-2.3328892 1.7878758,-4.0990859 4.2081053,-4.0990859 0.915869,0 1.766022,0.3053142 2.485716,0.8503825 L 8.5445609,5.7426498 C 8.2829992,5.8951923 8.1521359,6.1132215 8.1521359,6.4185815 v 6.3231115 z m 3.8483503,2.223879 -2.5619645,-1.438983 v -3.052353 l 2.5619645,-1.4389836 2.561771,1.4389836 v 3.052353 z m 1.646141,6.628472 c -0.915815,0 -1.765977,-0.305323 -2.48567,-0.850337 l 4.295215,-2.485715 c 0.261608,-0.152543 0.392471,-0.370572 0.392471,-0.675932 v -6.323103 l 1.809784,1.046504 c 0.152543,0.08708 0.21802,0.217974 0.21802,0.392471 v 4.796742 c 0,2.332898 -1.809775,4.099095 -4.22982,4.099095 z M 8.4788542,16.731586 4.3142817,14.333256 c -1.199275,-0.697831 -2.0058959,-2.180347 -2.0058959,-3.619321 0,-1.678866 1.0029709,-3.1832718 2.5509184,-3.8156343 V 11.86954 c 0,0.305323 0.1309091,0.523343 0.3924708,0.675932 l 5.451096,3.161372 -1.787876,1.024833 c -0.1525425,0.08708 -0.2834608,0.08708 -0.4360033,0 z M 8.239155,20.307337 c -2.4638075,0 -4.2735367,-1.853316 -4.2735367,-4.142673 0,-0.174451 0.021817,-0.348892 0.043542,-0.523343 l 4.2952617,2.485661 c 0.2615617,0.152597 0.5233433,0.152597 0.784905,0 l 5.472454,-3.161364 v 2.071328 c 0,0.174451 -0.06545,0.305323 -0.218029,0.392434 l -4.164527,2.398367 c -0.5669213,0.327039 -1.242853,0.47959 -1.9404638,0.47959 z m 5.407013,2.594488 c 2.638259,0 4.840367,-1.875023 5.34204,-4.360693 C 21.430153,17.908778 23,15.619422 23,13.286349 c 0,-1.526323 -0.654023,-3.00883 -1.831445,-4.0772416 0.10901,-0.4579025 0.174442,-0.9158142 0.174442,-1.3734967 0,-3.11784 -2.529239,-5.4510959 -5.451087,-5.4510959 -0.588555,0 -1.155477,0.087083 -1.722398,0.2834609 C 13.188211,1.7085832 11.836393,1.098129 10.353841,1.098129 7.7156284,1.098129 5.513465,2.9731157 5.0118008,5.4587765 2.5698467,6.091139 1,8.3804957 1,10.713568 c 0,1.526314 0.6540325,3.00883 1.8314542,4.077233 -0.10901,0.457911 -0.1744509,0.915823 -0.1744509,1.373542 0,3.11784 2.5292484,5.451096 5.4510959,5.451096 0.5886008,0 1.1555225,-0.08708 1.7224442,-0.283461 0.9810626,0.959393 2.3328896,1.569893 3.8156246,1.569893 z"
     fill="#000000"
     stroke-width="484.28"
     id="path616" />
</svg>
