<?xml version="1.0" encoding="utf-8"?>
<!-- Generator: Adobe Illustrator 26.5.0, SVG Export Plug-In . SVG Version: 6.00 Build 0)  -->
<svg version="1.1" id="Layer_1" xmlns="http://www.w3.org/2000/svg" xmlns:xlink="http://www.w3.org/1999/xlink" x="0px" y="0px"
	 viewBox="0 0 24 24" style="enable-background:new 0 0 24 24;" xml:space="preserve">
<path d="M5,21.5V2.5C5,1.7,5.7,1,6.5,1s1.5,0.7,1.5,1.5l0,0v19.1c0,0.8-0.7,1.5-1.5,1.5S5,22.3,5,21.5L5,21.5z M17.1,21.5V2.5
	c0-0.8,0.7-1.5,1.5-1.5C19.4,1,20,1.7,20,2.5l0,0v19.1c0,0.8-0.7,1.5-1.5,1.5C17.8,23,17.1,22.3,17.1,21.5L17.1,21.5z"/>
</svg>
