<?xml version="1.0" encoding="UTF-8"?>
<svg id="Layer_1" data-name="Layer 1" xmlns="http://www.w3.org/2000/svg" viewBox="0 0 32 32">
  <path d="m13.52,2.44c.29-.29.66-.44,1.09-.44s.8.15,1.09.44c.29.29.44.66.44,1.09s-.15.8-.44,1.09l-1.09,1.17,5.47,5.47c.92.92,2.03,1.38,3.32,1.38s2.39-.46,3.32-1.38l2.19,2.19-6.64,6.63,7.73,7.73v2.19h-2.19l-7.73-7.73-6.56,6.56-2.26-2.19c.92-.88,1.39-1.97,1.39-3.28s-.46-2.41-1.39-3.28l-5.47-5.54-1.09,1.09c-.34.34-.72.51-1.13.51s-.78-.16-1.09-.47c-.32-.32-.47-.69-.47-1.13s.15-.8.44-1.09L13.52,2.44Zm-1.17,5.54l-4.38,4.38,5.54,5.54c1.21,1.22,1.94,2.67,2.19,4.38l6.64-6.63c-1.75-.24-3.23-.97-4.45-2.19l-5.54-5.47Z"/>
</svg>