<?xml version="1.0" encoding="UTF-8"?>
<svg id="Layer_1" data-name="Layer 1" xmlns="http://www.w3.org/2000/svg" viewBox="0 0 32 32">
  <path d="m30,27.82v2.18h-2.18l-7.72-7.72-6.56,6.56-2.27-2.21c.93-.87,1.37-1.96,1.37-3.27s-.44-2.4-1.37-3.3l-5.48-5.54-1.09,1.09c-.34.34-.72.53-1.12.53-.44,0-.78-.16-1.09-.47-.34-.34-.5-.72-.5-1.15s.16-.78.44-1.09L13.54,2.44c.28-.28.65-.44,1.09-.44s.81.16,1.09.44c.28.31.44.65.44,1.09s-.16.81-.44,1.12l-1.09,1.15,5.48,5.48c.9.93,2.02,1.37,3.3,1.37s2.4-.44,3.33-1.37l2.18,2.18-6.63,6.63,7.72,7.75Z"/>
</svg>