<!-- Generated by IcoMoon.io -->
<svg version="1.1" xmlns="http://www.w3.org/2000/svg" width="512" height="512" viewBox="0 0 512 512">
<title></title>
<g id="icomoon-ignore">
</g>
<path fill="#000" d="M369.007 164.266c-44.608 0-87.202 35.544-113.007 62.382-25.805-26.839-68.399-62.382-113.007-62.382-50.772 0-91.93 40.963-91.93 91.734s41.158 91.735 91.93 91.735c44.608 0 87.202-35.544 113.007-62.382 25.805 26.839 68.399 62.382 113.007 62.382 50.772 0 91.93-40.963 91.93-91.735s-41.159-91.734-91.93-91.734zM204.285 265.77c-23.313 20.613-45.080 31.964-61.292 31.964-23.12 0-41.929-18.722-41.929-41.734s18.809-41.734 41.929-41.734c16.212 0 37.98 11.352 61.292 31.964 3.696 3.268 7.189 6.559 10.441 9.77-3.252 3.211-6.744 6.501-10.44 9.77zM369.007 297.735c-16.212 0-37.979-11.352-61.292-31.964-3.697-3.269-7.188-6.558-10.44-9.77 3.252-3.212 6.744-6.501 10.44-9.77 23.313-20.613 45.080-31.965 61.292-31.965 23.12 0 41.93 18.722 41.93 41.734s-18.81 41.735-41.93 41.735z"></path>
</svg>
