<?xml version="1.0" encoding="utf-8"?>
<!-- Generator: Adobe Illustrator 26.5.0, SVG Export Plug-In . SVG Version: 6.00 Build 0)  -->
<svg version="1.1" id="Layer_1" xmlns="http://www.w3.org/2000/svg" xmlns:xlink="http://www.w3.org/1999/xlink" x="0px" y="0px"
	 viewBox="0 0 24 24" style="enable-background:new 0 0 24 24;" xml:space="preserve">
<g id="icomoon-ignore">
</g>
<path d="M18.1,7c-2.4,0-4.7,1.9-6.1,3.3C10.6,8.9,8.3,7,5.9,7C3.2,7,1,9.2,1,11.9s2.2,4.9,4.9,4.9c2.4,0,4.7-1.9,6.1-3.3
	c1.4,1.4,3.7,3.3,6.1,3.3c2.7,0,4.9-2.2,4.9-4.9S20.8,7,18.1,7L18.1,7z M9.2,12.4c-1.3,1.1-2.4,1.7-3.3,1.7c-1.2,0-2.3-1-2.3-2.2
	s1-2.2,2.3-2.2c0.9,0,2,0.6,3.3,1.7c0.2,0.2,0.4,0.4,0.6,0.5C9.6,12.1,9.4,12.3,9.2,12.4L9.2,12.4z M18.1,14.2c-0.9,0-2-0.6-3.3-1.7
	c-0.2-0.2-0.4-0.4-0.6-0.5c0.2-0.2,0.4-0.3,0.6-0.5c1.3-1.1,2.4-1.7,3.3-1.7c1.2,0,2.3,1,2.3,2.2S19.3,14.2,18.1,14.2z"/>
</svg>
