<?xml version="1.0" encoding="utf-8"?>
<!-- Generator: Adobe Illustrator 26.5.0, SVG Export Plug-In . SVG Version: 6.00 Build 0)  -->
<svg version="1.1" id="Layer_1" xmlns="http://www.w3.org/2000/svg" xmlns:xlink="http://www.w3.org/1999/xlink" x="0px" y="0px"
	 viewBox="0 0 24 24" style="enable-background:new 0 0 24 24;" xml:space="preserve">
<path d="M21.5,10.5h-8.1V2.5C13.5,1.7,12.8,1,12,1c-0.8,0-1.5,0.7-1.5,1.5l0,0v8.1H2.5C1.7,10.5,1,11.2,1,12s0.7,1.5,1.5,1.5l0,0
	h8.1v8.1c0,0.8,0.7,1.5,1.5,1.5c0.8,0,1.5-0.7,1.5-1.5l0,0v-8.1h8.1c0.8,0,1.5-0.7,1.5-1.5C23,11.2,22.3,10.5,21.5,10.5
	C21.5,10.5,21.5,10.5,21.5,10.5z"/>
</svg>
