<?xml version="1.0" encoding="UTF-8"?><svg id="a" xmlns="http://www.w3.org/2000/svg" viewBox="0 0 250 250"><path d="M125,0C56,0,0,56,0,125s56,125,125,125,125-56,125-125S194,0,125,0Zm0,220c-9.9411,0-18-8.05884-18-18s8.0589-18,18-18,18,8.05884,18,18-8.0589,18-18,18Zm38.37-104.38l-11.23999,11.51001c-9.01001,9.12-14.63,16.62-14.63,35.37h-25v-6.25c0-13.75,5.62-26.25,14.63-35.37l15.48999-15.76001c4.63-4.48999,7.38-10.73999,7.38-17.62,0-13.75-11.25-25-25-25s-25,11.25-25,25h-25c0-27.63,22.37-50,50-50s50,22.37,50,50c0,11-4.5,21-11.63,28.12Z"/></svg>