<svg xmlns="http://www.w3.org/2000/svg" viewBox="0 0 250 250">
  <path d="M125 0A125 125 0 0 0 0 125a125 125 0 0 0 125 125 125 125 0 0 0 125-125A125 125 0 0 0 125 0zm-.307 18.967a106.032 106.032 0 0 1 .307 0A106.032 106.032 0 0 1 231.033 125 106.032 106.032 0 0 1 125 231.033 106.032 106.032 0 0 1 18.967 125 106.032 106.032 0 0 1 124.693 18.967zM125 33.75c-27.63 0-50 22.37-50 50h25c0-13.75 11.25-25 25-25s25 11.25 25 25c0 6.88-2.75 13.13-7.38 17.62l-15.49 15.76c-9.01 9.12-14.63 21.62-14.63 35.37v6.25h25c0-18.75 5.62-26.25 14.63-35.37l11.24-11.51A39.737 39.737 0 0 0 175 83.75c0-27.63-22.37-50-50-50zm0 146.5c-9.941 0-18 8.059-18 18s8.059 18 18 18 18-8.059 18-18-8.059-18-18-18z"/>
</svg>
