<svg width="21" height="23" viewBox="0 0 21 23" style="enable-background:new 0 0 24 24;" xmlns="http://www.w3.org/2000/svg">
<path d="M5.4781 7.77947H1.80947C0.637287 7.77947 -0.164094 6.81693 0.0286126 5.67114L0.628875 2.08953C0.821581 0.94374 1.28904 0 1.64681 0C2.00459 0 2.31437 0.944142 2.31437 2.10573V3.03882C2.31437 4.2004 3.23931 5.02432 4.41149 5.02432H5.4781V4.84334C5.4781 3.57908 6.51232 2.55419 7.7881 2.55419H13.2345C14.5103 2.55419 15.5445 3.57908 15.5445 4.84334V5.02432H16.5885C17.7607 5.02432 18.6856 4.2004 18.6856 3.03882V2.10573C18.6856 0.944142 18.9954 0 19.3532 0C19.711 0 20.1784 0.94374 20.3711 2.08953L20.9714 5.67114C21.1641 6.81693 20.3627 7.77947 19.1905 7.77947H15.5445V10.0906C15.2053 10.0311 14.8563 10 14.5 10C11.1863 10 8.5 12.6863 8.5 16C8.5 16.6456 8.60195 17.2673 8.79063 17.85H7.7881C6.51232 17.85 5.4781 16.8251 5.4781 15.5609V7.77947Z" fill="currentColor"/>
<path d="M20 21.5L17 18.5M11 16C11 16.4596 11.0905 16.9148 11.2664 17.3394C11.4423 17.764 11.7001 18.1499 12.0251 18.4749C12.3501 18.7999 12.736 19.0577 13.1606 19.2336C13.5852 19.4095 14.0404 19.5 14.5 19.5C14.9596 19.5 15.4148 19.4095 15.8394 19.2336C16.264 19.0577 16.6499 18.7999 16.9749 18.4749C17.2999 18.1499 17.5577 17.764 17.7336 17.3394C17.9095 16.9148 18 16.4596 18 16C18 15.5404 17.9095 15.0852 17.7336 14.6606C17.5577 14.236 17.2999 13.8501 16.9749 13.5251C16.6499 13.2001 16.264 12.9423 15.8394 12.7664C15.4148 12.5905 14.9596 12.5 14.5 12.5C14.0404 12.5 13.5852 12.5905 13.1606 12.7664C12.736 12.9423 12.3501 13.2001 12.0251 13.5251C11.7001 13.8501 11.4423 14.236 11.2664 14.6606C11.0905 15.0852 11 15.5404 11 16Z" stroke="currentColor" stroke-width="1.55639" stroke-linecap="round" stroke-linejoin="round" fill="none"/>
</svg>
