<?xml version="1.0" encoding="UTF-8"?>
<!-- Created with Inkscape (http://www.inkscape.org/) -->
<svg data-name="Layer 1" version="1.1" viewBox="0 0 24 24" xmlns="http://www.w3.org/2000/svg">
 <rect x="3.4" y="16.2" width="17.2" height="2.12"/>
 <path d="M18,8.2a2.5,2.5,0,0,0-2.5-2.5H8.6A2.5,2.5,0,0,0,6.1,8.2v6.6H18Zm-2.2,4.5H8.2V8.2c0-.2.2-.3.4-.3h6.9a.3.3,0,0,1,.3.3Z"/>
 <path d="M4.7,10.8V8.7H3.4l-.2-.2V5.7H1.1V8.5a2.3,2.3,0,0,0,2.3,2.3Z"/>
 <path d="M20.8,5.7V8.5l-.2.2H19.4v2.1h1.2a2.3,2.3,0,0,0,2.3-2.3V5.7Z"/>
</svg>
