<?xml version="1.0" encoding="UTF-8"?>
<!-- Created with Inkscape (http://www.inkscape.org/) -->
<svg width="7.408mm" height="4.2802mm" version="1.1" viewBox="0 0 7.408 4.2802" xml:space="preserve" xmlns="http://www.w3.org/2000/svg"><g transform="translate(-1.4431 -2.1401)"><g transform="matrix(.26458 0 0 .26458 6.7065 31.791)">
	<g transform="matrix(.18145 0 0 .18145 -24.039 -118.95)">
		
			
				<rect class="st1" x="39.381" y="112.08" width="121.24" height="15"/>
				<path class="st1" d="m142.15 55.706c0-9.6494-7.8506-17.5-17.5-17.5h-48.745c-9.6494 0-17.5 7.8506-17.5 17.5v46.885h83.745zm-15 31.885h-53.745v-31.885c0-1.3555 1.145-2.5 2.5-2.5h48.745c1.355 0 2.5 1.1445 2.5 2.5z"/>
				<path class="st1" d="m48.411 74.142v-15h-9.0303c-0.83154 0-1.5342-0.70215-1.5342-1.5342v-19.686h-15v19.686c0 9.1172 7.417 16.534 16.534 16.534z"/>
				<path class="st1" d="m162.15 37.922v19.686c0 0.83203-0.70264 1.5342-1.5342 1.5342h-8.4854v15h8.4854c9.1172 0 16.534-7.417 16.534-16.534v-19.686z"/>
			
		
	</g>
	
</g></g><style type="text/css">
	.st0{fill:black;}
	.st1{fill:black;}
	.st2{fill:black;}
	.st3{fill:black;}
	.st4{fill:black;}
	.st5{fill:black;}
	.st6{fill:black;}
	.st7{fill:black;}
	.st8{fill:black;}
	.st9{fill:black;}
	.st10{fill:black;}
	.st11{fill:black;}
	.st12{fill:black;}
	.st13{fill:black;}
	.st14{fill:black;}
	.st15{fill:black;}
  @media screen and (prefers-color-scheme: dark) {
    .st2{fill:white;}
  }
</style></svg>
