<?xml version="1.0" encoding="UTF-8"?>
<svg id="Layer_1" data-name="Layer 1" xmlns="http://www.w3.org/2000/svg" viewBox="0 0 32 32">
  <path d="m30.03,0H2.03C.92,0,.03.9.03,2v28c0,1.1.9,2,2,2h28c1.1,0,2-.9,2-2V2c0-1.1-.9-2-2-2Zm-3.26,17.89c0,.59-.48,1.08-1.08,1.08h-2.91c-.59,0-1.08-.48-1.08-1.08v-2.2c-.27.2-.43.52-.43.86v1.85c0,.59.48,1.08,1.08,1.08h1.89v2.87c0,.36-.29.66-.66.66h-3.55c-.36,0-.66-.29-.66-.66v-2.67c0-.36-.29-.66-.66-.66h-8.86c-.36,0-.66.29-.66.66v2.67c0,.36-.29.66-.66.66h-3.55c-.36,0-.66-.29-.66-.66v-7.66l-1.6,1.26c-.07.06-.17.05-.23-.02l-.46-.54c-.05-.06-.05-.13-.01-.2l2.36-3.58c.11-.24.34-.39.6-.39h12.5s.07,0,.11,0c.36.06.6.4.54.76l-.25,1.53s0,.07,0,.1c0,.36.29.66.66.66h2.51c.32,0,.59-.23.65-.54-.17.05-.34.08-.51.08h-1.79c-.07,0-.14,0-.21-.02-.48-.1-.79-.57-.69-1.05l.3-1.82c.1-.58.33-1.06.51-1.06s.33.48.33,1.08v.28s.07-.01.1,0h2.98s.05,0,.07,0h2.91c.59,0,1.07.48,1.08,1.08v5.61Zm2.32-4.08h-1.79s-.07,0-.1,0v-1.31s.07,0,.1,0h.48c.59,0,1.08-.48,1.08-1.08v-.48c0-.59.15-1.08.33-1.08s.41.48.51,1.06l.3,1.82c.01.07.02.14.02.21-.02.49-.43.87-.92.85Z"/>
</svg>