<?xml version="1.0" encoding="utf-8"?>
<!-- Generator: Adobe Illustrator 26.5.0, SVG Export Plug-In . SVG Version: 6.00 Build 0)  -->
<svg version="1.1" id="Layer_1" xmlns="http://www.w3.org/2000/svg" xmlns:xlink="http://www.w3.org/1999/xlink" x="0px" y="0px"
	 viewBox="0 0 24 24" style="enable-background:new 0 0 24 24;" xml:space="preserve">
<path d="M20.2,12.2c-0.1,4.5-3.8,8.1-8.2,8.1c-2.8,0-5.2-1.4-6.7-3.4l1.9-1.9h-6v6l2.1-2.1c2,2.6,5.1,4.2,8.7,4.2
	c6,0,10.9-4.8,11-10.8L20.2,12.2L20.2,12.2z"/>
<path d="M3.8,12c0-4.6,3.7-8.3,8.3-8.3c2.9,0,5.4,1.5,6.9,3.7l-2.1,2.1h6v-6l-2,2C18.8,2.7,15.6,1,12,1l0,0C5.9,1,1,5.9,1,12
	c0,0.1,0,0.1,0,0.2h2.8C3.8,12.1,3.8,12.1,3.8,12L3.8,12z"/>
</svg>
