<!-- Generated by IcoMoon.io -->
<svg version="1.1" xmlns="http://www.w3.org/2000/svg" width="32" height="32" viewBox="0 0 32 32">
<title>refresh</title>
<path d="M25.597 16.221c-0.118 5.2-4.369 9.379-9.597 9.379-3.206 0-6.045-1.572-7.788-3.987l2.238-2.238h-7v7l2.478-2.478c2.343 2.985 5.983 4.903 10.072 4.903 6.995 0 12.679-5.612 12.797-12.578h-3.2z"></path>
<path d="M6.4 16c0-5.302 4.298-9.6 9.6-9.6 3.322 0 6.249 1.688 7.973 4.252l-2.41 2.41h7v-7l-2.295 2.295c-2.333-3.13-6.064-5.157-10.268-5.157v0c-7.069 0-12.8 5.731-12.8 12.8 0 0.074 0.002 0.148 0.003 0.221h3.2c-0.002-0.074-0.003-0.147-0.003-0.222z"></path>
</svg>
