<svg viewBox="0 0 24 24" fill="none" xmlns="http://www.w3.org/2000/svg">
<path d="M19.6505 19.4513V17.4757C18.8803 18.5285 17.8973 19.4181 16.755 20.0793C14.959 21.1187 12.8718 21.5385 10.8145 21.2726C8.75704 21.0066 6.84391 20.0697 5.37021 18.6076C3.9887 17.2369 3.06509 15.4757 2.71981 13.5656L2.65829 13.1818L2.65048 13.0949C2.63464 12.6644 2.94714 12.2835 3.3829 12.2228C3.81882 12.1623 4.22327 12.4439 4.32528 12.8625L4.34188 12.9474L4.39267 13.2629C4.67602 14.8308 5.4341 16.276 6.56747 17.4005C7.77643 18.6 9.34538 19.368 11.0323 19.5861C12.719 19.8041 14.4306 19.4609 15.9034 18.6086C16.9915 17.9788 17.9046 17.0963 18.5714 16.0441H16.2501C15.7806 16.0441 15.4005 15.663 15.4005 15.1935C15.4005 14.7241 15.7807 14.3439 16.2501 14.3439H19.9474C19.9597 14.3436 19.9721 14.3437 19.9845 14.3439H20.5001C20.9695 14.3439 21.3496 14.7241 21.3497 15.1935V19.4513C21.3497 19.9208 20.9695 20.3019 20.5001 20.3019C20.0306 20.3019 19.6505 19.9208 19.6505 19.4513ZM7.2452 3.92106C9.04114 2.88164 11.1284 2.46186 13.1856 2.7277C15.2431 2.99368 17.1563 3.93062 18.63 5.39274C20.0115 6.76338 20.9351 8.52462 21.2804 10.4347L21.3419 10.8185L21.3497 10.9054C21.3655 11.3359 21.053 11.7168 20.6173 11.7775C20.1814 11.838 19.7769 11.5564 19.6749 11.1379L19.6583 11.0529L19.6075 10.7375C19.3242 9.16953 18.5661 7.72429 17.4327 6.59977C16.2237 5.40031 14.6548 4.6323 12.9679 4.41422C11.2812 4.19623 9.56962 4.53942 8.09677 5.39176C7.00869 6.02153 6.09561 6.90404 5.4288 7.95621H7.75009C8.21953 7.95621 8.5997 8.33736 8.5997 8.8068C8.59964 9.27619 8.2195 9.65641 7.75009 9.65641H4.05282C4.04047 9.65673 4.02811 9.65663 4.01571 9.65641H3.50009C3.03068 9.65641 2.65053 9.27619 2.65048 8.8068V4.54899C2.65048 4.07954 3.03065 3.6984 3.50009 3.6984C3.96953 3.6984 4.3497 4.07954 4.3497 4.54899V6.5236C5.11981 5.47111 6.10311 4.58209 7.2452 3.92106Z" fill="black"/>
</svg>
