<svg viewBox="0 0 24 24" fill="none" xmlns="http://www.w3.org/2000/svg">
<path d="M20.5 10.9355C20.2402 9.06225 19.3728 7.32654 18.0314 5.99575C16.6901 4.66497 14.9492 3.81293 13.077 3.57091C11.2048 3.32888 9.3051 3.71028 7.67053 4.65636C6.03595 5.60244 4.7572 7.06071 4.03125 8.80654M3.5 4.54858V8.80654H7.75M3.5 13.0645C3.75984 14.9378 4.62724 16.6735 5.96857 18.0042C7.3099 19.335 9.05076 20.1871 10.923 20.4291C12.7952 20.6711 14.6949 20.2897 16.3295 19.3436C17.964 18.3976 19.2428 16.9393 19.9688 15.1935M20.5 19.4514V15.1935H16.25" stroke="black" stroke-width="1.7" stroke-linecap="round" stroke-linejoin="round"/>
</svg>
