<svg viewBox="0 0 24 24" fill="none" xmlns="http://www.w3.org/2000/svg">
<path d="M12 22C11.6492 22 11.3046 21.9085 11 21.7345L4 17.7265C3.381 17.3725 3 16.7185 3 16.0095V7.9915C3 7.2835 3.381 6.6285 4 6.2735L11 2.2655C11.3046 2.09151 11.6492 2 12 2C12.3508 2 12.6954 2.09151 13 2.2655L20 6.2735C20.3032 6.4462 20.5554 6.69596 20.731 6.99748C20.9066 7.299 20.9994 7.64157 21 7.9905V16.0085C21 16.7165 20.619 17.3715 20 17.7265L13 21.7345C12.6954 21.9085 12.3508 22 12 22ZM12 22V12.0005M12 12.0005L20.73 6.96045M12 12.0005L3.26953 6.96045" stroke="black" stroke-width="1.5" stroke-linecap="round" stroke-linejoin="round"/>
</svg>
