<svg viewBox="0 0 20 20" fill="none" xmlns="http://www.w3.org/2000/svg">
<path d="M9.99976 18.3337C9.70746 18.3337 9.42022 18.2574 9.16642 18.1124L3.33309 14.7724C2.81726 14.4774 2.49976 13.9324 2.49976 13.3416V6.65991C2.49976 6.06991 2.81726 5.52407 3.33309 5.22824L9.16642 1.88824C9.42022 1.74325 9.70746 1.66699 9.99976 1.66699C10.2921 1.66699 10.5793 1.74325 10.8331 1.88824L16.6664 5.22824C16.9191 5.37216 17.1292 5.58029 17.2756 5.83156C17.4219 6.08282 17.4992 6.3683 17.4998 6.65907V13.3407C17.4998 13.9307 17.1823 14.4766 16.6664 14.7724L10.8331 18.1124C10.5793 18.2574 10.2921 18.3337 9.99976 18.3337ZM9.99976 18.3337V10.0007M9.99976 10.0007L17.2748 5.8007M9.99976 10.0007L2.72437 5.8007" stroke="black" stroke-width="1.1" stroke-linecap="round" stroke-linejoin="round"/>
</svg>
