<svg viewBox="0 0 24 24" fill="none" xmlns="http://www.w3.org/2000/svg">
<path d="M20.25 8.07315L12.75 12.4368V21.0824L19.627 17.1144C20.0146 16.8902 20.2499 16.4798 20.25 16.0397V8.07315ZM12 2.67813C11.7797 2.67813 11.5633 2.73631 11.3721 2.84642L11.3711 2.84543L4.54102 6.78787L12 11.1269L19.458 6.78787L12.6279 2.84543V2.84642C12.4367 2.73631 12.2203 2.67813 12 2.67813ZM19.792 6.59301L19.7939 6.59203L20 6.22888L19.792 6.59301ZM3.75 16.0407C3.75009 16.4818 3.98511 16.8912 4.37207 17.1144H4.37305L11.25 21.0824V12.4368L3.75 8.07315V16.0407ZM21.75 16.0397C21.7499 16.9647 21.2868 17.8216 20.5283 18.3298L20.373 18.4262L13.373 22.4661H13.3721C12.9542 22.7066 12.4812 22.8332 12 22.8332C11.5188 22.8332 11.0458 22.7066 10.6279 22.4661H10.627L3.62793 18.4262V18.4272C2.77723 17.9369 2.25009 17.0283 2.25 16.0407V7.95997C2.25005 7.51581 2.35774 7.08785 2.55273 6.70619C2.56914 6.65084 2.59023 6.59602 2.62012 6.5438C2.65484 6.48318 2.69887 6.43118 2.74609 6.38438C2.9736 6.05782 3.27156 5.77885 3.62695 5.57345L10.627 1.53359H10.6279L10.7871 1.44895C11.1642 1.26353 11.5789 1.1665 12 1.1665C12.4812 1.1665 12.9542 1.29302 13.3721 1.53359H13.373L20.3711 5.57247L20.5244 5.66694C20.811 5.85768 21.058 6.10208 21.2549 6.38536C21.3016 6.43188 21.3455 6.48371 21.3799 6.5438C21.4096 6.59572 21.4309 6.65019 21.4473 6.7052C21.6447 7.09226 21.7492 7.52141 21.75 7.958V16.0397Z" fill="black"/>
</svg>
