<?xml version="1.0" encoding="UTF-8" standalone="no"?>
<svg
   viewBox="0 0 24 24"
   fill="none"
   version="1.1"
   id="svg1"
   xmlns="http://www.w3.org/2000/svg"
   xmlns:svg="http://www.w3.org/2000/svg">
  <defs
     id="defs1" />
  <path
     d="m 12.45409,21.1387 c 2.2614,-0.1123 4.40701,-1.0604 6.01563,-2.669 1.60862,-1.6086 2.55666,-3.7542 2.66894,-6.0156 L 21.15038,12 c 0,-2.42673 -0.96471,-4.75377 -2.68066,-6.46973 -1.71596,-1.71595 -4.043,-2.68066 -6.46973,-2.68066 l -0.4502,0.01172 C 10.50199,2.91294 9.46929,3.14456 8.49799,3.54688 7.38809,4.0067 6.37979,4.68074 5.53029,5.53027 4.68069,6.37981 4.00669,7.38811 3.54689,8.49805 3.08699,9.60818 2.84959,10.7984 2.84959,12 l 0.0117,0.4502 c 0.0516,1.0478 0.2833,2.0805 0.6856,3.0518 0.4598,1.1099 1.1338,2.1182 1.9834,2.9677 0.8495,0.8496 1.8578,1.5236 2.9677,1.9834 1.1102,0.4599 2.3004,0.6973 3.502,0.6973 z m -4.8984,-9.9883 h 6.83785 l -2.99415,-2.99415 1.2012,-1.20215 4.4453,4.4453 0.05762,0.0645 c 0.27212,0.3337 0.25314,0.8255 -0.05762,1.1367 l -4.4453,4.4453 c -0.3318,0.3314 -0.8693,0.3314 -1.2012,0 -0.3319,-0.3319 -0.3319,-0.8702 0,-1.2021 l 2.99415,-2.9942 H 7.55569 c -0.4695,0 -0.8506,-0.3802 -0.8506,-0.8496 0,-0.4694 0.3811,-0.8496 0.8506,-0.8496 z m 3.8437,-2.99415 c -0.3319,-0.33195 -0.3319,-0.8702 0,-1.20215 0.3318,-0.33137 0.8694,-0.33137 1.2012,0 z m 0.0674,14.68065 c -1.2427,-0.0611 -2.4672,-0.3353 -3.6191,-0.8125 -1.3164,-0.5452 -2.5121,-1.345 -3.5196,-2.3525 -1.0075,-1.0075 -1.8073,-2.2032 -2.3525,-3.5196 -0.4772,-1.1519 -0.7514,-2.3764 -0.8125,-3.6191 L 1.15039,12 c 0,-1.4248 0.2799,-2.83596 0.8252,-4.15234 0.5452,-1.31635 1.345,-2.51204 2.3525,-3.51954 1.0075,-1.00749 2.2032,-1.80727 3.5196,-2.35253 1.1519,-0.47715 2.3764,-0.75136 3.6191,-0.8125 l 0.5332,-0.0127 c 2.8776,0 5.63711,1.14297 7.67188,3.17773 C 21.70663,6.36289 22.8496,9.1224 22.8496,12 l -0.0127,0.5381 c -0.13305,2.6817 -1.25745,5.2262 -3.16503,7.1338 -2.03477,2.0347 -4.79428,3.1777 -7.67188,3.1777 z"
     fill="#000000"
     id="path1" />
</svg>
