<?xml version="1.0" encoding="UTF-8"?>
<svg id="Layer_1" data-name="Layer 1" xmlns="http://www.w3.org/2000/svg" viewBox="0 0 32 32">
  <path d="m30,0H2C.9,0,0,.9,0,2v28C0,31.1.9,32,2,32h28c1.1,0,2-.9,2-2V2c0-1.1-.9-2-2-2Zm-2,20.04v1.93s0,.07,0,.1c-.02,1.65-1.15,2.96-2.52,2.93H6.52s-.05,0-.08,0c-1.37-.03-2.46-1.38-2.44-3.03v-3.99c1.41-.03,2.79-.44,4.05-1.19.88.4,2.41,1.19,4.05,1.19,1.41-.03,2.79-.44,4.05-1.19.88.4,2.41,1.19,4.05,1.19,1.41-.03,2.79-.44,4.05-1.19,1.16.7,2.43,1.11,3.73,1.19v2.06Zm0-9.32v5.15c-1.15-.05-2.26-.46-3.24-1.19l-.76-.53-.76.53c-.54.26-1.95,1.19-3.24,1.19-1.15-.05-2.26-.46-3.24-1.19l-.76-.53-.76.53c-.11,0-1.73,1.19-3.24,1.19-1.15-.05-2.26-.46-3.24-1.19l-.76-.53-.76.53c-.54.26-1.95,1.19-3.24,1.19v-5.84s0-.07,0-.1c.02-1.65,1.14-2.96,2.49-2.93h19.03s.05,0,.08,0c1.35.03,2.43,1.38,2.41,3.03v.69Z"/>
</svg>