<!-- Generated by IcoMoon.io -->
<svg version="1.1" xmlns="http://www.w3.org/2000/svg" width="32" height="32" viewBox="0 0 32 32">
<title>rio</title>
<path d="M24 17.195c-0.887 0.434-2.405 1.034-4 1.034s-3.113-0.601-4-1.034c-0.887 0.434-2.405 1.034-4 1.034s-3.113-0.601-4-1.034c-0.887 0.434-2.405 1.034-4 1.034v5.058c0 1.397 1.143 2.54 2.54 2.54h18.92c1.397 0 2.54-1.143 2.54-2.54v-5.058c-1.595-0-3.113-0.601-4-1.034z"></path>
<path d="M7.224 14.249l0.777-0.474 0.777 0.476c0.46 0.281 1.943 1.014 3.222 1.014 1.536 0 3.205-1.004 3.221-1.014l0.779-0.481 0.779 0.481c0.46 0.281 1.943 1.014 3.221 1.014s2.761-0.734 3.225-1.016l0.777-0.474 0.777 0.476c0.46 0.281 1.943 1.014 3.222 1.014v-6.553c0-1.397-1.143-2.54-2.54-2.54h-18.92c-1.397 0-2.54 1.143-2.54 2.54v6.553c1.278-0 2.761-0.734 3.224-1.016z"></path>
</svg>
