<?xml version="1.0" encoding="utf-8"?>
<!-- Generator: Adobe Illustrator 26.0.0, SVG Export Plug-In . SVG Version: 6.00 Build 0)  -->
<svg version="1.1" id="Layer_1" xmlns="http://www.w3.org/2000/svg" xmlns:xlink="http://www.w3.org/1999/xlink" x="0px" y="0px"
	 viewBox="0 0 24 24" style="enable-background:new 0 0 24 24;" xml:space="preserve">
<path d="M19.9,3.8H4.1C3,3.8,2,4.8,2,5.9l0,12.1c0,1.2,1,2.1,2.1,2.1h15.8c1.2,0,2.1-1,2.1-2.1l0-12.1C22,4.8,21,3.8,19.9,3.8z
	 M4.1,5.8h15.8c0.1,0,0.1,0.1,0.1,0.1l0,5.6c-0.8,0-1.8-0.5-2.1-0.7l-0.5-0.3l-0.5,0.3c-0.3,0.2-1.3,0.7-2.2,0.7
	c-0.9,0-1.9-0.5-2.2-0.7L12,10.5l-0.5,0.3c0,0-1.1,0.7-2.2,0.7c-0.9,0-1.9-0.5-2.2-0.7l-0.5-0.3l-0.5,0.3h0C5.8,11,4.8,11.5,4,11.5
	l0-5.6C4,5.9,4.1,5.8,4.1,5.8z M19.9,18.2H4.1c-0.1,0-0.1-0.1-0.1-0.1l0-4.6c1,0,2-0.4,2.6-0.7c0.6,0.3,1.6,0.7,2.7,0.7
	s2.1-0.4,2.7-0.7c0.6,0.3,1.6,0.7,2.7,0.7s2.1-0.4,2.7-0.7c0.6,0.3,1.6,0.7,2.6,0.7l0,4.6C20,18.1,19.9,18.2,19.9,18.2z"/>
</svg>
