<?xml version="1.0" encoding="UTF-8"?>
<svg id="Layer_1" data-name="Layer 1" xmlns="http://www.w3.org/2000/svg" viewBox="0 0 32 32">
  <path d="m30.03,0H2.03C.92,0,.03.9.03,2h32c0-1.1-.9-2-2-2Z"/>
  <path d="m2.03,32h28c1.1,0,2-.9,2-2H.03c0,1.1.9,2,2,2Z"/>
  <path d="m.03,2v28h32V2H.03Zm12.91,20.27c-.14.97-.52,1.85-1.09,2.59-1.01,1.3-2.58,2.14-4.35,2.14-3.04,0-5.5-2.46-5.5-5.5,0-.17.01-.34.03-.5.14-1.57.94-2.94,2.12-3.85.74-.57,1.62-.95,2.59-1.09.25-.04.51-.06.77-.06,2.87,0,5.22,2.2,5.47,5,.01.16.03.33.03.5,0,.26-.02.52-.06.77Zm12.56,4.73c-2.31,0-4.2-1.75-4.45-4h-5.05c-.12,0-.23-.03-.34-.07-.17-.06-.31-.17-.42-.31-.05-.06-.1-.13-.13-.2-.02-.03-.03-.07-.04-.1-.04-.1-.07-.21-.07-.33v-3.5c0-2.48-2.02-4.5-4.5-4.5h-5.5c-.55,0-1-.45-1-1s.45-1,1-1v-4c-.55,0-1-.45-1-1s.45-1,1-1h12c.55,0,1,.45,1,1,0,.14-.03.27-.08.39l1.82,6.61h6.26c.55,0,1,.45,1,1v3.28c1.27.45,2.27,1.45,2.72,2.72.17.47.28.97.28,1.5,0,2.49-2.01,4.5-4.5,4.5Z"/>
  <path d="m25,16h-6c-.49,0-.88-.36-.96-.82h-.04s-.33-1.18-.33-1.18l-1.65-6H7v4h4v.03c1.55.12,2.94.78,4,1.79.06.06.12.12.18.18,1.12,1.17,1.82,2.75,1.82,4.5,0,.89-.18,1.73-.5,2.5h4.78c.57-1.59,1.99-2.76,3.72-2.95v-2.05Z"/>
  <path d="m7.5,18c-.53,0-1.03.13-1.48.34-.81.38-1.45,1.06-1.77,1.9-.09.24-.15.49-.19.76-.02.16-.05.33-.05.5,0,1.93,1.57,3.5,3.5,3.5.44,0,.87-.09,1.26-.24.84-.33,1.52-.96,1.9-1.77.21-.45.34-.95.34-1.48,0-.17-.03-.34-.05-.5-.25-1.69-1.69-3-3.45-3Z"/>
  <path d="m25.5,20c-.81,0-1.53.4-1.99,1-.32.42-.51.93-.51,1.5,0,1.38,1.12,2.5,2.5,2.5s2.5-1.12,2.5-2.5c0-.57-.2-1.08-.51-1.5-.46-.6-1.17-1-1.99-1Z"/>
</svg>