<?xml version="1.0" encoding="utf-8"?>
<!-- Generator: Adobe Illustrator 26.5.0, SVG Export Plug-In . SVG Version: 6.00 Build 0)  -->
<svg version="1.1" id="Layer_1" xmlns="http://www.w3.org/2000/svg" xmlns:xlink="http://www.w3.org/1999/xlink" x="0px" y="0px"
	 viewBox="0 0 24 24" style="enable-background:new 0 0 24 24;" xml:space="preserve">
<g>
	<path d="M17.6,1.7L17.6,1.7C16.5,1.3,15.3,1,14.1,1c0,0,0,0,0,0c-2.5,0-4.7,1-6.3,2.6C6.2,5.2,5.2,7.5,5.2,9.9c0,2.1,0.7,4,1.9,5.5
		l-5.7,5.7C1.1,21.4,1,21.6,1,21.9C1,22.5,1.5,23,2.1,23c0.3,0,0.6-0.1,0.8-0.3L8.6,17c1.5,1.2,3.4,1.9,5.5,1.9c4.9,0,8.9-4,8.9-8.9
		C23,6.2,20.8,3.1,17.6,1.7z M14.1,16.7c-3.7,0-6.8-3-6.8-6.8c0-3.7,3-6.8,6.8-6.8c3.7,0,6.8,3,6.8,6.8
		C20.8,13.7,17.8,16.7,14.1,16.7z"/>
</g>
</svg>
