<!-- Generated by IcoMoon.io -->
<svg version="1.1" xmlns="http://www.w3.org/2000/svg" width="32" height="32" viewBox="0 0 32 32">
<title>search</title>
<path d="M18.366 5.635c4.418 0 8 3.582 8 8s-3.582 8-8 8c-4.418 0-8-3.582-8-8v0c0-4.418 3.582-8 8-8v0zM18.366 3.075c-5.814 0.006-10.524 4.72-10.524 10.535 0 5.818 4.717 10.535 10.535 10.535s10.535-4.717 10.535-10.535c0-4.337-2.621-8.062-6.366-9.678l-0.068-0.026c-1.208-0.525-2.615-0.831-4.093-0.831-0.006 0-0.013 0-0.019 0h0.001z"></path>
<path d="M4.218 29.062c0 0-0 0-0 0-0.707 0-1.28-0.573-1.28-1.28 0-0.353 0.143-0.673 0.375-0.905l7.257-7.257c0.232-0.232 0.552-0.375 0.905-0.375 0.707 0 1.28 0.573 1.28 1.28 0 0.354-0.143 0.674-0.375 0.905l-7.257 7.257c-0.231 0.232-0.551 0.375-0.903 0.375-0.001 0-0.001 0-0.002 0h0z"></path>
</svg>
