<svg viewBox="0 0 24 24" fill="none" xmlns="http://www.w3.org/2000/svg">
<path d="M3.47964 2.20409C3.68043 2.18891 3.8829 2.21818 4.07241 2.291C4.09422 2.29938 4.11588 2.30906 4.13687 2.31932L22.4767 11.2803C22.7512 11.4144 22.9248 11.6935 22.925 11.999C22.925 12.3046 22.7512 12.5835 22.4767 12.7178L4.13687 21.6797C4.11588 21.6899 4.09422 21.6996 4.07241 21.708C3.81987 21.805 3.54426 21.8245 3.28042 21.7646C3.01644 21.7047 2.77594 21.5678 2.58999 21.3711L2.59097 21.3701C2.41051 21.1794 2.2849 20.9434 2.23062 20.6865C2.17712 20.4332 2.19467 20.1703 2.27945 19.9258H2.27847L4.96695 11.999L2.27847 4.07323L2.27945 4.07225C2.1949 3.828 2.17721 3.56554 2.23062 3.31249L2.28433 3.12303C2.35077 2.93892 2.45536 2.77002 2.59097 2.62694C2.7768 2.43067 3.01683 2.29422 3.28042 2.23436L3.47964 2.20409ZM3.94546 19.9922L18.6652 12.7998H6.38589L3.94546 19.9922ZM6.38589 11.1992H18.6662L3.94546 4.00584L6.38589 11.1992Z" fill="black"/>
</svg>
