<?xml version="1.0" encoding="utf-8"?>
<!-- Generator: Adobe Illustrator 26.5.0, SVG Export Plug-In . SVG Version: 6.00 Build 0)  -->
<svg version="1.1" id="Layer_1" xmlns="http://www.w3.org/2000/svg" xmlns:xlink="http://www.w3.org/1999/xlink" x="0px" y="0px"
	 viewBox="0 0 24 24" style="enable-background:new 0 0 24 24;" xml:space="preserve">
<path d="M12,8c1.1,0,2.3,0.3,3.4,0.8c1,0.4,2,1.1,3.1,1.9c0.7,0.6,1.4,1.2,1.9,1.7c-0.5,0.5-1.1,1.1-1.9,1.7c-1,0.8-2,1.4-3.1,1.9
	c-1.2,0.5-2.3,0.8-3.4,0.8s-2.3-0.3-3.4-0.8c-1-0.4-2-1.1-3.1-1.9c-0.7-0.6-1.4-1.2-1.9-1.7c0.5-0.5,1.1-1.1,1.9-1.7
	c1-0.8,2-1.4,3.1-1.9C9.8,8.2,10.9,8,12,8z M12,6C5.9,6,1,12.3,1,12.3s4.9,6.3,11,6.3s11-6.3,11-6.3S18.1,6,12,6L12,6z M15.1,12.3
	c0,1.7-1.4,3.1-3.1,3.1S8.9,14,8.9,12.3s1.4-3.1,3.1-3.1S15.1,10.6,15.1,12.3z"/>
</svg>
