<!-- Generated by IcoMoon.io -->
<svg version="1.1" xmlns="http://www.w3.org/2000/svg" width="32" height="32" viewBox="0 0 32 32">
<title>snapshot</title>
<path d="M26.491 8.668l-2.062-3.244c-0.453-0.746-1.263-1.202-2.137-1.202h-3.605c-0.873 0-1.683 0.456-2.137 1.202l-1.927 3.243h-9.077c-1.439 0-2.61 1.171-2.61 2.61v13.891c0 1.439 1.171 2.61 2.61 2.61h20.905c1.439 0 2.61-1.171 2.61-2.61v-13.891c0-1.426-1.15-2.588-2.571-2.609zM18.688 6.722h3.605l1.181 1.945h-5.968l1.181-1.945zM26.563 25.168c0 0.061-0.049 0.11-0.11 0.11h-20.905c-0.061 0-0.11-0.049-0.11-0.11v-13.891c0-0.061 0.050-0.11 0.11-0.11h20.905c0.061 0 0.11 0.050 0.11 0.11v13.891z"></path>
<path d="M16 12.661c-3.067 0-5.561 2.495-5.561 5.561s2.495 5.561 5.561 5.561 5.561-2.495 5.561-5.561-2.495-5.561-5.561-5.561zM16 21.284c-1.691 0-3.061-1.371-3.061-3.061s1.371-3.061 3.061-3.061 3.061 1.371 3.061 3.061-1.371 3.061-3.061 3.061z"></path>
<path d="M5 7.847h4c0.69 0 1.25-0.56 1.25-1.25s-0.56-1.25-1.25-1.25h-4c-0.69 0-1.25 0.56-1.25 1.25s0.56 1.25 1.25 1.25z"></path>
</svg>
