<?xml version="1.0" encoding="utf-8"?>
<!-- Generator: Adobe Illustrator 26.5.0, SVG Export Plug-In . SVG Version: 6.00 Build 0)  -->
<svg version="1.1" id="Layer_1" xmlns="http://www.w3.org/2000/svg" xmlns:xlink="http://www.w3.org/1999/xlink" x="0px" y="0px"
	 viewBox="0 0 24 24" style="enable-background:new 0 0 24 24;" xml:space="preserve">
<path d="M20.8,6.2l-1.7-2.7c-0.4-0.6-1.1-1-1.8-1h-3c-0.7,0-1.4,0.4-1.8,1l-1.6,2.7H3.2C2,6.2,1,7.2,1,8.4v11.7c0,1.2,1,2.2,2.2,2.2
	h17.6c1.2,0,2.2-1,2.2-2.2V8.4C23,7.2,22,6.2,20.8,6.2L20.8,6.2z M14.3,4.6h3l1,1.6h-5L14.3,4.6L14.3,4.6z M20.9,20.1
	C20.9,20.2,20.9,20.2,20.9,20.1L3.2,20.2c-0.1,0-0.1,0-0.1-0.1V8.4c0-0.1,0-0.1,0.1-0.1h17.6c0.1,0,0.1,0,0.1,0.1V20.1z"/>
<path d="M12,9.6c-2.6,0-4.7,2.1-4.7,4.7s2.1,4.7,4.7,4.7s4.7-2.1,4.7-4.7S14.6,9.6,12,9.6z M12,16.8c-1.4,0-2.6-1.2-2.6-2.6
	s1.2-2.6,2.6-2.6s2.6,1.2,2.6,2.6S13.4,16.8,12,16.8z"/>
<path d="M2.7,5.5h3.4c0.6,0,1.1-0.5,1.1-1.1S6.7,3.4,6.1,3.4H2.7c-0.6,0-1.1,0.5-1.1,1.1S2.2,5.5,2.7,5.5z"/>
</svg>
