<?xml version="1.0" encoding="utf-8"?>
<!-- Generator: Adobe Illustrator 26.5.0, SVG Export Plug-In . SVG Version: 6.00 Build 0)  -->
<svg version="1.1" id="Layer_1" xmlns="http://www.w3.org/2000/svg" xmlns:xlink="http://www.w3.org/1999/xlink" x="0px" y="0px"
	 viewBox="0 0 24 24" style="enable-background:new 0 0 24 24;" xml:space="preserve">
<path d="M12.3,23.4C12.3,23.4,12.3,23.4,12.3,23.4c-0.3,0-0.6-0.1-0.8-0.3l-6.2-6.2C5.1,16.7,5,16.4,5,16.1C5,15.5,5.5,15,6.1,15
	c0.3,0,0.6,0.1,0.8,0.3l5.4,5.4l5.4-5.4c0.2-0.2,0.5-0.3,0.8-0.3c0.6,0,1.1,0.5,1.1,1.1c0,0.3-0.1,0.6-0.3,0.8l-6.2,6.2
	C12.9,23.3,12.6,23.4,12.3,23.4C12.3,23.4,12.3,23.4,12.3,23.4C12.3,23.4,12.3,23.4,12.3,23.4z"/>
</svg>
