<!-- Generated by IcoMoon.io -->
<svg version="1.1" xmlns="http://www.w3.org/2000/svg" width="32" height="32" viewBox="0 0 32 32">
<title>sort-down</title>
<path d="M16 28.8c-0.001 0-0.001 0-0.002 0-0.353 0-0.672-0.143-0.903-0.375l-7.182-7.182c-0.232-0.232-0.375-0.552-0.375-0.905 0-0.707 0.573-1.28 1.28-1.28 0.353 0 0.673 0.143 0.905 0.375l6.277 6.277 6.277-6.277c0.232-0.232 0.552-0.375 0.905-0.375 0.707 0 1.28 0.573 1.28 1.28 0 0.353-0.143 0.673-0.375 0.905l-7.182 7.182c-0.231 0.232-0.55 0.375-0.903 0.375-0.001 0-0.001 0-0.002 0h0z"></path>
</svg>
