<?xml version="1.0" encoding="utf-8"?>
<!-- Generator: Adobe Illustrator 26.5.0, SVG Export Plug-In . SVG Version: 6.00 Build 0)  -->
<svg version="1.1" id="Layer_1" xmlns="http://www.w3.org/2000/svg" xmlns:xlink="http://www.w3.org/1999/xlink" x="0px" y="0px"
	 viewBox="0 0 24 24" style="enable-background:new 0 0 24 24;" xml:space="preserve">
<path d="M18.5,9.4C18.5,9.4,18.5,9.4,18.5,9.4c-0.3,0-0.6-0.1-0.8-0.3l-5.4-5.4L6.9,9.1C6.7,9.3,6.4,9.4,6.1,9.4
	C5.5,9.4,5,8.9,5,8.3C5,8,5.1,7.7,5.3,7.5l0,0l6.2-6.2C11.7,1.1,12,1,12.3,1s0.6,0.1,0.8,0.3l6.2,6.2c0.2,0.2,0.3,0.5,0.3,0.8
	C19.6,8.9,19.1,9.4,18.5,9.4L18.5,9.4L18.5,9.4z"/>
</svg>
