<?xml version="1.0" encoding="UTF-8" standalone="no"?>
<svg
   width="24px"
   height="24px"
   version="1.1"
   id="svg336"
   xmlns="http://www.w3.org/2000/svg"
   xmlns:svg="http://www.w3.org/2000/svg">
  <defs
     id="defs340" />
  <path
     d="M 2.264367,13.043101 Q 2.232742,12.790221 2.216975,12.521546 2.201208,12.252871 2.201208,12 q 0,-2.0229909 0.7744271,-3.7931102 Q 3.7500538,6.4367797 5.0776433,5.1091903 6.4052327,3.78161 8.1911461,3.0229862 9.9770137,2.2643715 11.999995,2.2643715 q 2.054598,0 3.84052,0.7586147 1.785923,0.7586238 3.113503,2.0862041 1.32759,1.3275894 2.102017,3.0976995 Q 21.830453,9.9770091 21.830453,12 q 0,0.252871 -0.01577,0.521546 -0.01577,0.268675 -0.04739,0.521555 h -0.88506 q 0.03163,-0.25288 0.04739,-0.521555 0.01586,-0.268675 0.01586,-0.521546 0,-0.474146 -0.04739,-0.948283 -0.04739,-0.474136 -0.142239,-0.916666 h -4.899425 q 0.06325,0.44253 0.07902,0.916666 0.01577,0.474137 0.01577,0.948283 v 0.521546 q 0,0.268675 -0.03163,0.521555 h -0.853453 v -0.821846 q 0,-0.568965 -0.01577,-1.074709 -0.01577,-0.505742 -0.07902,-1.011495 H 9.0288324 q -0.06325,0.505753 -0.079017,1.011495 -0.015767,0.505744 -0.015767,1.074709 v 0.821846 h -0.853453 q -0.031625,-0.25288 -0.031625,-0.521555 V 12 q 0,-0.474146 0.015767,-0.948283 0.015767,-0.474136 0.079017,-0.916666 H 3.2759357 Q 3.1811067,10.577581 3.1336966,11.051717 3.0863046,11.525854 3.0863046,12 q 0,0.252871 0.015767,0.521546 0.015767,0.268675 0.047392,0.521555 z m 1.2643761,-3.7931 H 8.2385103 Q 8.586211,7.0057453 9.2974157,5.5359168 10.00862,4.0660882 11.114945,3.1810378 8.4597752,3.4339093 6.4051777,5.0775836 4.3505803,6.721258 3.5287431,9.250001 Z m 5.6264335,0 H 14.844823 Q 14.591952,7.6063176 13.89655,6.1048824 13.201149,4.6034472 11.999995,3.465516 10.798851,4.6350538 10.119253,6.1206857 9.4396548,7.6063176 9.1551766,9.250001 Z m 6.6063134,0 h 4.741383 Q 19.681035,6.6896513 17.563216,5.0617803 15.445405,3.4339093 12.758619,3.1810378 q 1.169538,0.9166663 1.912359,2.4339048 0.742811,1.5172385 1.090512,3.6350584 z m -4.204015,12.485627 v -0.44253 q 0,-1.770119 -1.248564,-2.987067 Q 9.0603474,17.089074 7.2902282,17.089074 H 1 v -0.88506 h 6.2902282 q 1.5488543,0 2.8132218,0.806034 1.264366,0.806034 1.896545,2.16523 0.632188,-1.359196 1.896555,-2.16523 1.264367,-0.806034 2.781606,-0.806034 H 23 v 0.88506 h -6.321844 q -1.77011,0 -3.002871,1.216957 -1.23276,1.216948 -1.23276,2.987067 v 0.44253 z"
     id="path334"
     style="stroke-width:1" />
</svg>
