<?xml version="1.0" encoding="UTF-8" standalone="no"?>
<svg
   height="24px"
   viewBox="0 -960 960 960"
   width="24px"
   fill="#000"
   version="1.1"
   id="svg978"
   sodipodi:docname="sources.svg"
   inkscape:version="1.2 (dc2aeda, 2022-05-15)"
   xmlns:inkscape="http://www.inkscape.org/namespaces/inkscape"
   xmlns:sodipodi="http://sodipodi.sourceforge.net/DTD/sodipodi-0.dtd"
   xmlns="http://www.w3.org/2000/svg"
   xmlns:svg="http://www.w3.org/2000/svg">
  <defs
     id="defs982" />
  <sodipodi:namedview
     id="namedview980"
     pagecolor="#ffffff"
     bordercolor="#000000"
     borderopacity="0.25"
     inkscape:showpageshadow="2"
     inkscape:pageopacity="0.0"
     inkscape:pagecheckerboard="0"
     inkscape:deskcolor="#d1d1d1"
     showgrid="false"
     inkscape:current-layer="svg978" />
  <path
     d="M172-447q-1-8-1.5-16.5T170-480q0-64 24.5-120t66.5-98q42-42 98.5-66T480-788q65 0 121.5 24t98.5 66q42 42 66.5 98T791-480q0 8-.5 16.5T789-447h-28q1-8 1.5-16.5t.5-16.5q0-15-1.5-30t-4.5-29H602q2 14 2.5 29t.5 30v16.5q0 8.5-1 16.5h-27v-26q0-18-.5-34t-2.5-32H386q-2 16-2.5 32t-.5 34v26h-27q-1-8-1-16.5V-480q0-15 .5-30t2.5-29H204q-3 14-4.5 29t-1.5 30q0 8 .5 16.5T200-447h-28Zm40-120h149q11-71 33.5-117.5T452-759q-84 8-149 60t-91 132Zm178 0h180q-8-52-30-99.5T480-750q-38 37-59.5 84T390-567Zm209 0h150q-26-81-93-132.5T504-759q37 29 60.5 77T599-567ZM466-172v-14q0-56-39.5-94.5T331-319H132v-28h199q49 0 89 25.5t60 68.5q20-43 60-68.5t88-25.5h200v28H628q-56 0-95 38.5T494-186v14h-28Z"
     id="path976"
     style="fill:#000000;fill-opacity:1" />
</svg>
