<?xml version="1.0" encoding="utf-8"?>
<!-- Generator: Adobe Illustrator 26.5.0, SVG Export Plug-In . SVG Version: 6.00 Build 0)  -->
<svg version="1.1" id="Layer_1" xmlns="http://www.w3.org/2000/svg" xmlns:xlink="http://www.w3.org/1999/xlink" x="0px" y="0px"
	 viewBox="0 0 24 24" style="enable-background:new 0 0 24 24;" xml:space="preserve">
<path d="M12,5.2L12,5.2c-0.6,0-1.1-0.5-1.1-1.1l0,0l0,0V2.1C10.9,1.5,11.4,1,12,1s1.1,0.5,1.1,1.1l0,0v2.1l0,0
	C13.1,4.7,12.6,5.2,12,5.2L12,5.2C12,5.2,12,5.2,12,5.2z"/>
<path d="M12,23L12,23c-0.6,0-1.1-0.5-1.1-1.1l0,0l0,0v-2.1c0-0.6,0.5-1.1,1.1-1.1s1.1,0.5,1.1,1.1l0,0v2.1l0,0
	C13.1,22.5,12.6,23,12,23L12,23L12,23z"/>
<path d="M4.1,13.1H2.1C1.5,13.1,1,12.6,1,12c0-0.6,0.5-1.1,1.1-1.1l0,0h2.1c0.6,0,1.1,0.5,1.1,1.1S4.7,13.1,4.1,13.1
	C4.1,13.1,4.1,13.1,4.1,13.1z"/>
<path d="M21.9,13.1h-2.1c-0.6,0-1.1-0.5-1.1-1.1c0-0.6,0.5-1.1,1.1-1.1l0,0h2.1c0.6,0,1.1,0.5,1.1,1.1S22.5,13.1,21.9,13.1
	L21.9,13.1z"/>
<path d="M8,6.3L8,6.3c-0.4,0-0.7-0.2-0.9-0.5l0,0L6.1,4C6,3.8,5.9,3.6,5.9,3.4c0-0.6,0.5-1.1,1.1-1.1c0.4,0,0.7,0.2,0.9,0.5l0,0
	l1,1.8C9.1,4.8,9.1,5,9.1,5.2C9.1,5.8,8.6,6.3,8,6.3L8,6.3L8,6.3z"/>
<path d="M17,21.6L17,21.6c-0.4,0-0.7-0.2-0.9-0.5l0,0l-1-1.8c-0.1-0.2-0.1-0.3-0.1-0.5c0-0.6,0.5-1.1,1.1-1.1c0.4,0,0.7,0.2,0.9,0.5
	l0,0l1,1.8c0.1,0.2,0.1,0.3,0.1,0.5C18.1,21.2,17.6,21.6,17,21.6L17,21.6L17,21.6z"/>
<path d="M3.4,18.1L3.4,18.1c-0.6,0-1.1-0.5-1.1-1.1c0-0.4,0.2-0.7,0.5-0.9l0,0l1.8-1c0.2-0.1,0.3-0.1,0.5-0.1c0.6,0,1.1,0.5,1.1,1.1
	c0,0.4-0.2,0.7-0.5,0.9l0,0l-1.8,1C3.8,18,3.6,18.1,3.4,18.1L3.4,18.1C3.4,18.1,3.4,18.1,3.4,18.1z"/>
<path d="M18.8,9.1L18.8,9.1c-0.6,0-1.1-0.5-1.1-1.1c0-0.4,0.2-0.7,0.5-0.9l0,0l1.8-1c0.2-0.1,0.3-0.1,0.5-0.1c0.6,0,1.1,0.5,1.1,1.1
	c0,0.4-0.2,0.7-0.5,0.9l0,0l-1.8,1C19.2,9.1,19,9.1,18.8,9.1L18.8,9.1C18.8,9.1,18.8,9.1,18.8,9.1z"/>
<path d="M5.2,9.1L5.2,9.1C5,9.1,4.8,9.1,4.6,9l0,0L2.9,8C2.5,7.8,2.3,7.4,2.3,7C2.3,6.4,2.8,6,3.4,6C3.6,6,3.8,6,3.9,6.1l0,0l1.8,1
	c0.3,0.2,0.5,0.5,0.5,0.9C6.3,8.7,5.8,9.1,5.2,9.1L5.2,9.1L5.2,9.1L5.2,9.1z"/>
<path d="M20.6,18L20.6,18c-0.2,0-0.4-0.1-0.5-0.1l0,0l-1.8-1c-0.3-0.2-0.5-0.5-0.5-0.9c0-0.6,0.5-1.1,1.1-1.1c0.2,0,0.4,0.1,0.5,0.1
	l0,0l1.8,1c0.3,0.2,0.5,0.5,0.5,0.9C21.7,17.6,21.2,18,20.6,18L20.6,18L20.6,18z"/>
<path d="M7,21.7c-0.6,0-1.1-0.5-1.1-1.1c0-0.2,0.1-0.4,0.1-0.5l0,0l1-1.8c0.2-0.3,0.5-0.5,0.9-0.5c0.6,0,1.1,0.5,1.1,1.1
	c0,0.2-0.1,0.4-0.1,0.5l0,0l-1,1.8C7.8,21.5,7.4,21.7,7,21.7L7,21.7L7,21.7L7,21.7z"/>
<path d="M15.9,6.3c-0.6,0-1.1-0.5-1.1-1.1c0-0.2,0.1-0.4,0.1-0.5l0,0l1-1.8c0.2-0.3,0.5-0.5,0.9-0.5c0.6,0,1.1,0.5,1.1,1.1
	c0,0.2-0.1,0.4-0.1,0.5l0,0l-1,1.8C16.7,6.1,16.3,6.3,15.9,6.3L15.9,6.3C15.9,6.3,15.9,6.3,15.9,6.3z"/>
</svg>
