<svg width="111" height="111" viewBox="0 0 111 111" style="enable-background:new 0 0 24 24;" xmlns="http://www.w3.org/2000/svg">
    <path d="M53.2793 81.6745L30.3656 68.4745L20.3157 74.1745L53.2793 93.0745C54.5858 93.8745 56.2943 93.8745 57.6007 93.0745L90.5643 74.1745L80.6149 68.4745L57.7012 81.6745C56.2943 82.4745 54.6863 82.4745 53.2793 81.6745Z"/>
    <path d="M53.2793 61.3745L30.3656 48.1745L20.3157 53.9745L53.2793 72.8745C54.5858 73.6745 56.2943 73.6745 57.6007 72.8745L90.5643 53.9745L80.6149 48.1745L57.7012 61.3745C56.2943 62.1745 54.6863 62.1745 53.2793 61.3745Z"/>
    <path d="M20.3157 34.0745L55.4903 13.8745L90.6648 34.0745L57.7012 52.9745C56.3948 53.7745 54.6863 53.7745 53.3798 52.9745L20.3157 34.0745Z"/>
    <path d="M13.0798 72.8745C13.0798 71.3745 13.8838 69.8745 15.2907 69.1745L23.1296 64.6745L15.4917 60.2745C14.1853 59.4745 13.2808 58.0745 13.2808 56.5745V52.5745C13.2808 51.0745 14.0848 49.5745 15.4917 48.8745L23.0291 44.4745L15.4917 40.1745C14.1853 39.3745 13.2808 37.9745 13.2808 36.4745V33.0745C13.2808 31.4745 14.0848 30.0745 15.4917 29.2745L51.4703 8.57451V0.574509C22.8281 2.57451 0.215942 26.2745 0.215942 55.2745C0.215942 64.9745 2.72841 74.0745 7.15035 81.9745L13.0798 78.5745V72.8745Z"/>
    <path d="M95.0867 28.9745C96.3932 29.7745 97.2977 31.1745 97.2977 32.7745V36.1745C97.2977 37.6745 96.4937 39.1745 95.0867 39.8745L87.5493 44.1745L95.0867 48.5745C96.4937 49.2745 97.2977 50.7745 97.2977 52.2745V56.1745C97.2977 57.6745 96.4937 59.1745 95.0867 59.8745L87.4488 64.2745L95.2877 68.7745C96.5942 69.5745 97.4987 70.9745 97.4987 72.4745V78.1745L103.529 81.6745C107.951 73.7745 110.463 64.6745 110.463 55.0745C110.463 26.0745 87.8508 2.57451 59.2087 0.574509V8.27451L95.0867 28.9745Z"/>
    <path d="M57.7013 101.275C56.3948 102.075 54.6863 102.075 53.3798 101.275L20.4163 82.4745L14.3864 85.8745L13.6829 86.2745L10.9694 87.8745C21.0193 101.375 37.1996 110.175 55.3898 110.175C73.5801 110.175 89.6599 101.475 99.7097 87.9745L90.3634 82.6745L57.7013 101.275Z"/>
    </svg>
