<?xml version="1.0" encoding="utf-8"?>
<!-- Generator: Adobe Illustrator 26.5.0, SVG Export Plug-In . SVG Version: 6.00 Build 0)  -->
<svg version="1.1" id="Layer_1" xmlns="http://www.w3.org/2000/svg" xmlns:xlink="http://www.w3.org/1999/xlink" x="0px" y="0px"
	 viewBox="0 0 24 24" style="enable-background:new 0 0 24 24;" xml:space="preserve">
<path d="M22.4,8.6l-6.9-1l-3.1-6.2c-0.3-0.6-0.7-0.6-1,0L8.4,7.6l-6.9,1C1,8.7,0.8,9.2,1.3,9.6l5,4.8l-1.2,6.8
	c-0.1,0.6,0.3,0.9,0.8,0.6l6.1-3.2l6.1,3.2c0.6,0.3,0.9,0,0.8-0.6l-1.2-6.8l5-4.8C23.2,9.1,23,8.7,22.4,8.6L22.4,8.6z M18.6,10.7
	l-3.1,3l0.7,4.2c0,0.3-0.1,0.4-0.4,0.3l-3.8-2l-3.8,2c-0.3,0.1-0.4,0-0.4-0.3l0.7-4.2l-3.1-3c-0.2-0.2-0.1-0.4,0.1-0.5l4.3-0.6
	l1.9-3.9c0.1-0.3,0.3-0.3,0.5,0l1.9,3.9l4.3,0.6C18.7,10.3,18.8,10.5,18.6,10.7L18.6,10.7z"/>
</svg>
