<!-- Generated by IcoMoon.io -->
<svg version="1.1" xmlns="http://www.w3.org/2000/svg" width="32" height="32" viewBox="0 0 32 32">
<title>star-open</title>
<path d="M28.149 12.684l-7.994-1.162-3.575-7.244c-0.321-0.65-0.841-0.65-1.161 0l-3.575 7.244-7.994 1.162c-0.717 0.104-0.878 0.599-0.359 1.104l5.784 5.638-1.365 7.961c-0.122 0.714 0.298 1.020 0.939 0.683l7.15-3.759 7.15 3.759c0.641 0.337 1.062 0.032 0.939-0.683l-1.366-7.961 5.784-5.638c0.519-0.506 0.358-1-0.359-1.104zM23.628 15.055l-3.59 3.499 0.848 4.941c0.058 0.34-0.142 0.486-0.448 0.325l-4.438-2.333-4.438 2.333c-0.306 0.161-0.506 0.015-0.448-0.325l0.848-4.941-3.59-3.499c-0.247-0.241-0.171-0.476 0.171-0.526l4.961-0.721 2.219-4.496c0.153-0.31 0.4-0.31 0.553 0l2.219 4.496 4.961 0.721c0.342 0.050 0.418 0.285 0.171 0.526z"></path>
</svg>
