<?xml version="1.0" encoding="UTF-8"?>
<svg id="Layer_1" data-name="Layer 1" xmlns="http://www.w3.org/2000/svg" viewBox="0 0 32 32">
  <path d="m30.03,0H2.03C.92,0,.03.9.03,2v28c0,1.1.9,2,2,2h28c1.1,0,2-.9,2-2V2c0-1.1-.9-2-2-2Zm-4.03,21.88c0,1.23-1,2.22-2.22,2.22H7.22c-1.23,0-2.22-1-2.22-2.22v-.86h16c1.06,0,1.91-.86,1.91-1.91v-2.76c0-1.06-.86-1.91-1.91-1.91h-10.75v-2.27h15.75v9.73Zm0-11.89h-16c-1.06,0-1.91.86-1.91,1.91v2.76c0,1.06.86,1.91,1.91,1.91h10.75v2.27H5v-9.73c0-1.23,1-2.22,2.22-2.22h16.55c1.23,0,2.22,1,2.22,2.22v.86Z"/>
</svg>