<svg viewBox="0 0 24 24" fill="none" xmlns="http://www.w3.org/2000/svg">
<path d="M1.65039 11.125V5.66602C1.65048 4.60093 2.07304 3.5793 2.82617 2.82617C3.5793 2.07304 4.60093 1.65048 5.66602 1.65039H11.125L11.418 1.66406C12.0957 1.73149 12.733 2.03167 13.2188 2.51758L21.3564 10.6553L21.4727 10.7773C22.036 11.3998 22.3496 12.2112 22.3496 13.0547C22.3496 13.8982 22.0361 14.7096 21.4727 15.332L21.3564 15.4541L15.4541 21.3564C14.8177 21.9927 13.9546 22.3496 13.0547 22.3496C12.2112 22.3496 11.3998 22.036 10.7773 21.4727L10.6553 21.3564L2.51758 13.2188C2.03167 12.733 1.73149 12.0957 1.66406 11.418L1.65039 11.125ZM7.45508 7.25C7.45508 7.19551 7.43306 7.14302 7.39453 7.10449C7.35611 7.06609 7.30431 7.04407 7.25 7.04395C7.19551 7.04395 7.14302 7.06596 7.10449 7.10449C7.06596 7.14302 7.04395 7.19551 7.04395 7.25C7.04407 7.30431 7.06609 7.35611 7.10449 7.39453C7.14302 7.43306 7.19551 7.45508 7.25 7.45508C7.30432 7.45496 7.35611 7.43295 7.39453 7.39453C7.43295 7.35611 7.45496 7.30432 7.45508 7.25ZM9.15527 7.25C9.15515 7.75519 8.95391 8.23945 8.59668 8.59668C8.23945 8.95391 7.75519 9.15515 7.25 9.15527C6.74464 9.15527 6.25969 8.95402 5.90234 8.59668C5.54513 8.23945 5.34387 7.75518 5.34375 7.25C5.34375 6.74464 5.545 6.25969 5.90234 5.90234C6.25969 5.545 6.74464 5.34375 7.25 5.34375C7.75518 5.34387 8.23945 5.54513 8.59668 5.90234C8.95402 6.25969 9.15527 6.74464 9.15527 7.25ZM3.34961 11.125L3.35645 11.25C3.38525 11.5385 3.51291 11.8098 3.71973 12.0166L11.8574 20.1543L11.9814 20.2666C12.2828 20.5134 12.6618 20.6504 13.0547 20.6504C13.5037 20.6503 13.9344 20.4717 14.252 20.1543L20.1543 14.252L20.2666 14.1279C20.5135 13.8266 20.6504 13.4476 20.6504 13.0547C20.6504 12.6618 20.5134 12.2828 20.2666 11.9814L20.1543 11.8574L12.0166 3.71973C11.8098 3.51291 11.5385 3.38525 11.25 3.35645L11.125 3.34961H5.66602C5.0518 3.3497 4.46264 3.594 4.02832 4.02832C3.594 4.46264 3.3497 5.0518 3.34961 5.66602V11.125Z" fill="black"/>
</svg>
