<svg viewBox="0 0 24 24" fill="none" xmlns="http://www.w3.org/2000/svg">
<path d="M6.19409 7.24954C6.19409 7.52946 6.30529 7.79792 6.50322 7.99586C6.70116 8.19379 6.96962 8.30499 7.24954 8.30499C7.52946 8.30499 7.79792 8.19379 7.99586 7.99586C8.19379 7.79792 8.30499 7.52946 8.30499 7.24954C8.30499 6.96962 8.19379 6.70116 7.99586 6.50322C7.79792 6.30529 7.52946 6.19409 7.24954 6.19409C6.96962 6.19409 6.70116 6.30529 6.50322 6.50322C6.30529 6.70116 6.19409 6.96962 6.19409 7.24954Z" stroke="black" stroke-width="1.7" stroke-linecap="round" stroke-linejoin="round"/>
<path d="M2.5 5.66636V11.1252C2.50012 11.685 2.7226 12.2218 3.1185 12.6176L11.256 20.7551C11.7331 21.2321 12.38 21.5 13.0545 21.5C13.7291 21.5 14.376 21.2321 14.853 20.7551L20.7551 14.853C21.2321 14.376 21.5 13.7291 21.5 13.0545C21.5 12.38 21.2321 11.7331 20.7551 11.256L12.6176 3.1185C12.2218 2.7226 11.685 2.50012 11.1252 2.5H5.66636C4.82659 2.5 4.02121 2.8336 3.42741 3.42741C2.8336 4.02121 2.5 4.82659 2.5 5.66636Z" stroke="black" stroke-width="1.7" stroke-linecap="round" stroke-linejoin="round"/>
</svg>
