<svg viewBox="0 0 20 20" fill="none" xmlns="http://www.w3.org/2000/svg">
<path d="M5.41638 6.24964C5.41638 6.47063 5.50417 6.68257 5.66044 6.83883C5.8167 6.9951 6.02864 7.08289 6.24964 7.08289C6.47063 7.08289 6.68257 6.9951 6.83883 6.83883C6.9951 6.68257 7.08289 6.47063 7.08289 6.24964C7.08289 6.02864 6.9951 5.8167 6.83883 5.66044C6.68257 5.50417 6.47063 5.41638 6.24964 5.41638C6.02864 5.41638 5.8167 5.50417 5.66044 5.66044C5.50417 5.8167 5.41638 6.02864 5.41638 6.24964Z" stroke="black" stroke-width="1.25" stroke-linecap="round" stroke-linejoin="round"/>
<path d="M2.5 4.99976V9.30934C2.50009 9.75129 2.67573 10.1751 2.98829 10.4876L9.41266 16.9119C9.78925 17.2885 10.3 17.5 10.8325 17.5C11.3651 17.5 11.8758 17.2885 12.2524 16.9119L16.9119 12.2524C17.2885 11.8758 17.5 11.3651 17.5 10.8325C17.5 10.3 17.2885 9.78925 16.9119 9.41266L10.4876 2.98829C10.1751 2.67573 9.75129 2.50009 9.30934 2.5H4.99976C4.33678 2.5 3.70096 2.76337 3.23216 3.23216C2.76337 3.70096 2.5 4.33678 2.5 4.99976Z" stroke="black" stroke-width="1.25" stroke-linecap="round" stroke-linejoin="round"/>
</svg>
