<?xml version="1.0" encoding="utf-8"?>
<!-- Generator: Adobe Illustrator 26.5.0, SVG Export Plug-In . SVG Version: 6.00 Build 0)  -->
<svg version="1.1" id="Layer_1" xmlns="http://www.w3.org/2000/svg" xmlns:xlink="http://www.w3.org/1999/xlink" x="0px" y="0px"
	 viewBox="0 0 32 32" style="enable-background:new 0 0 32 32;" xml:space="preserve">
<path d="M6,24.2L6,24.2c-0.8,0-1.5-0.7-1.5-1.5c0-0.4,0.2-0.8,0.4-1l6.8-6.8L4.9,8.1C4.6,7.8,4.5,7.4,4.5,7c0-0.8,0.7-1.5,1.5-1.5
	c0.4,0,0.8,0.2,1,0.4l7.8,7.8c0.3,0.3,0.4,0.6,0.4,1c0,0.4-0.2,0.8-0.4,1L7,23.8C6.7,24,6.4,24.2,6,24.2C6,24.2,6,24.2,6,24.2
	L6,24.2L6,24.2z M25,27.4c0.4,0,0.8-0.1,1-0.4c0.6-0.6,0.6-1.5,0-2.1l0,0l0,0l0,0c-0.3-0.3-0.7-0.4-1-0.4H8.3c-0.4,0-0.8,0.1-1,0.4
	c-0.6,0.6-0.6,1.5,0,2.1l0,0l0,0l0,0c0.3,0.3,0.7,0.4,1,0.4C8.3,27.4,25,27.4,25,27.4z"/>
</svg>
