<?xml version="1.0" encoding="UTF-8" standalone="no"?>
<svg
   width="24px"
   height="24px"
   version="1.1"
   id="svg489"
   xmlns="http://www.w3.org/2000/svg"
   xmlns:svg="http://www.w3.org/2000/svg">
  <defs
     id="defs493" />
  <path
     d="m 8.896575,23 q -1.48276,0 -2.53449,-1.01724 -1.05172,-1.01724 -1.0862,-2.5 -1.62069,-0.31034 -2.68966,-1.58621 -1.06896,-1.27586 -1.06896,-2.96551 0,-0.60655 0.15517,-1.19862 0.15517,-0.59173 0.46552,-1.11173 -0.48276,-0.5862 -0.72414,-1.32034 -0.24138,-0.73414 -0.24138,-1.54173 0,-1.79482 1.18965,-3.10448 1.18966,-1.30931 2.94828,-1.48172 -0.0345,-0.13794 -0.0345,-0.27587 V 4.58621 q 0,-1.51724 1.05172,-2.55173 Q 7.379305,1 8.896555,1 q 1.03448,0 1.72413,0.4138 0.68966,0.41379 1.37931,1.24137 0.72414,-0.82758 1.37932,-1.24137 Q 14.034485,1 15.103445,1 q 1.46828,0 2.52724,1.05173 1.05897,1.05172 1.05897,2.53448 v 0.31034 q 0,0.13793 -0.0345,0.27587 1.75862,0.17241 2.96551,1.46551 1.2069,1.29311 1.2069,3.12069 0,0.80759 -0.25862,1.54173 -0.25862,0.73414 -0.74138,1.32034 0.31035,0.51724 0.48276,1.11 0.17241,0.59311 0.17241,1.20035 0,1.72414 -1.06896,3 -1.06897,1.27586 -2.72414,1.55172 -0.0345,1.48276 -1.06897,2.5 Q 16.586185,23 15.103425,23 q -1.10345,0 -1.74138,-0.41379 -0.63793,-0.41379 -1.36207,-1.27586 -0.72413,0.86207 -1.37931,1.27586 Q 9.965535,23 8.896575,23 Z m 3.5862,-18.41379 V 19.4138 q 0,1.10069 0.76414,1.86069 0.76448,0.76 1.87138,0.76 1.05414,0 1.79552,-0.72414 0.74138,-0.72414 0.81034,-1.75862 -1.10345,-0.0345 -2.05172,-0.53449 -0.94828,-0.5 -1.56897,-1.39655 -0.13793,-0.17241 -0.1062,-0.3562 0.0317,-0.18414 0.20965,-0.29897 0.17242,-0.13793 0.36931,-0.10621 0.19724,0.0317 0.32035,0.20966 0.50586,0.73552 1.28724,1.12655 0.78172,0.39069 1.67827,0.39069 1.55173,0 2.60345,-1.05172 1.05173,-1.05173 1.05173,-2.60345 0,-0.40242 -0.10345,-0.80449 -0.10345,-0.40241 -0.27586,-0.78172 -0.58621,0.48276 -1.34828,0.75862 -0.76207,0.27586 -1.58276,0.27586 -0.20517,0 -0.34379,-0.13931 -0.13897,-0.13896 -0.13897,-0.34483 0,-0.20551 0.13897,-0.34344 0.13862,-0.13793 0.34379,-0.13793 1.55173,0 2.60345,-1.05173 1.05172,-1.05172 1.05172,-2.60345 0,-1.49793 -1.01724,-2.54207 -1.01724,-1.04413 -2.5,-1.1131 -0.31034,0.65517 -0.84482,1.13793 -0.53449,0.48276 -1.22414,0.75862 -0.17242,0.069 -0.34966,-0.0114 -0.17758,-0.0807 -0.23655,-0.26448 -0.069,-0.17241 0,-0.36207 0.069,-0.18965 0.27586,-0.25862 0.79311,-0.27586 1.27586,-0.96552 0.48276,-0.68965 0.48276,-1.56896 0,-1.08621 -0.76069,-1.84483 -0.76034,-0.75862 -1.86207,-0.75862 -1.10138,0 -1.86,0.76 -0.75862,0.76 -0.75862,1.86069 z M 11.517265,19.4138 V 4.58621 q 0,-1.10069 -0.76069,-1.86069 -0.76035,-0.76 -1.86207,-0.76 -1.10138,0 -1.86,0.76 -0.75862,0.76 -0.75862,1.86069 0,0.86207 0.48276,1.55172 0.48275,0.68966 1.27586,0.96552 0.17241,0.069 0.27586,0.24138 0.10345,0.17241 0.0403,0.35241 -0.0755,0.17966 -0.26482,0.25862 -0.18931,0.0786 -0.39621,0.01 Q 6.999975,7.69 6.465495,7.22448 5.931015,6.75896 5.620665,6.10379 4.172395,6.17279 3.155155,7.22448 2.137915,8.2762 2.137915,9.77 q 0,1.54069 1.05172,2.59241 1.05172,1.05173 2.60345,1.05173 0.20517,0 0.34414,0.13931 0.13862,0.13896 0.13862,0.34482 0,0.20552 -0.13862,0.34345 -0.13897,0.13793 -0.34414,0.13793 -0.82069,0 -1.58276,-0.27586 -0.76207,-0.27586 -1.34828,-0.75862 -0.17241,0.37931 -0.27586,0.78172 -0.10345,0.40207 -0.10345,0.80449 0,1.55172 1.05173,2.60345 1.05172,1.05172 2.60345,1.05172 0.90689,0 1.67758,-0.39655 0.77069,-0.39655 1.28793,-1.12069 0.12311,-0.17793 0.32035,-0.20966 0.19689,-0.0317 0.36931,0.089 0.17241,0.12069 0.20689,0.31034 0.0345,0.18966 -0.10344,0.36207 -0.65518,0.89655 -1.60345,1.39655 -0.94828,0.5 -2.05173,0.53449 0.069,1.03448 0.82759,1.75862 0.75862,0.72414 1.81276,0.72414 1.1069,0 1.87138,-0.76 0.76414,-0.76 0.76414,-1.86069 z M 12.000015,12 Z"
     id="path487"
     style="stroke-width:1" />
</svg>
