<!-- Generated by IcoMoon.io -->
<svg version="1.1" xmlns="http://www.w3.org/2000/svg" width="32" height="32" viewBox="0 0 32 32">
<title>trash</title>
<path d="M8.019 10.28v15.625c0.002 0.68 0.553 1.23 1.232 1.232h13.433c0.68-0.002 1.23-0.553 1.232-1.232v-15.625zM12.415 24.085c0 0.353-0.287 0.64-0.64 0.64s-0.64-0.287-0.64-0.64v0-10.312c0-0.353 0.287-0.64 0.64-0.64s0.64 0.287 0.64 0.64v0zM16.398 24.085c0 0.353-0.287 0.64-0.64 0.64s-0.64-0.287-0.64-0.64v0-10.312c0-0.353 0.287-0.64 0.64-0.64s0.64 0.287 0.64 0.64v0zM20.604 24.085c0 0.353-0.287 0.64-0.64 0.64s-0.64-0.287-0.64-0.64v0-10.312c0-0.353 0.287-0.64 0.64-0.64s0.64 0.287 0.64 0.64v0z"></path>
<path d="M24.34 6.76h-4.749l-0.57-1.221c-0.209-0.44-0.649-0.739-1.16-0.739h-3.786c-0.511 0-0.951 0.299-1.157 0.731l-0.003 0.008-0.57 1.221h-4.685c-0.707 0-1.28 0.573-1.28 1.28s0.573 1.28 1.28 1.28h16.68c0.707 0 1.28-0.573 1.28-1.28s-0.573-1.28-1.28-1.28v0z"></path>
</svg>
