<svg viewBox="0 0 24 24" fill="none" xmlns="http://www.w3.org/2000/svg">
<path d="M14.1857 4.22858C14.1857 4.16417 14.1601 4.10242 14.1146 4.05687C14.069 4.01133 14.0073 3.98572 13.9429 3.98572H10.0571C9.99273 3.98572 9.93098 4.01133 9.88543 4.05687C9.83989 4.10242 9.81429 4.16417 9.81429 4.22858V6.41429H14.1857V4.22858ZM6.89715 18.7393C6.89883 18.7594 6.9 18.7798 6.9 18.8C6.9 19.1221 7.02802 19.4308 7.25575 19.6585C7.48347 19.8863 7.79224 20.0143 8.11429 20.0143H15.8857C16.2078 20.0143 16.5165 19.8863 16.7443 19.6585C16.972 19.4308 17.1 19.1221 17.1 18.8C17.1 18.7798 17.1012 18.7594 17.1028 18.7393L18.0088 7.87144H5.99118L6.89715 18.7393ZM9.32857 16.8572V11.0286C9.32857 10.6262 9.65476 10.3 10.0571 10.3C10.4595 10.3 10.7857 10.6262 10.7857 11.0286V16.8572C10.7857 17.2595 10.4595 17.5857 10.0571 17.5857C9.65476 17.5857 9.32857 17.2595 9.32857 16.8572ZM13.2143 16.8572V11.0286C13.2143 10.6262 13.5405 10.3 13.9429 10.3C14.3452 10.3 14.6714 10.6262 14.6714 11.0286V16.8572C14.6714 17.2595 14.3452 17.5857 13.9429 17.5857C13.5405 17.5857 13.2143 17.2595 13.2143 16.8572ZM15.6429 6.41429H19.7714C20.1738 6.41429 20.5 6.74049 20.5 7.14287C20.5 7.54524 20.1738 7.87144 19.7714 7.87144H19.4698L18.5543 18.8607C18.5387 19.5472 18.2611 20.2021 17.7745 20.6888C17.2735 21.1898 16.5942 21.4714 15.8857 21.4714H8.11429C7.40578 21.4714 6.72649 21.1898 6.2255 20.6888C5.73885 20.2021 5.4613 19.5472 5.4457 18.8607L4.53025 7.87144H4.22857C3.82619 7.87144 3.5 7.54524 3.5 7.14287C3.5 6.74049 3.82619 6.41429 4.22857 6.41429H8.35714V4.22858C8.35714 3.77771 8.53638 3.34544 8.85519 3.02663C9.174 2.70781 9.60627 2.52858 10.0571 2.52858H13.9429C14.3937 2.52858 14.826 2.70781 15.1448 3.02663C15.4636 3.34544 15.6429 3.77771 15.6429 4.22858V6.41429Z" fill="#141419"/>
</svg>
