<?xml version="1.0" encoding="utf-8"?>
<!-- Generator: Adobe Illustrator 26.5.0, SVG Export Plug-In . SVG Version: 6.00 Build 0)  -->
<svg version="1.1" id="Layer_1" xmlns="http://www.w3.org/2000/svg" xmlns:xlink="http://www.w3.org/1999/xlink" x="0px" y="0px"
	 viewBox="0 0 32 32" style="enable-background:new 0 0 32 32;" xml:space="preserve">
<path d="M8,10.3v15.6c0,0.7,0.6,1.2,1.2,1.2h13.4c0.7,0,1.2-0.6,1.2-1.2V10.3L8,10.3z M12.4,24.1c0,0.4-0.3,0.6-0.6,0.6
	s-0.6-0.3-0.6-0.6l0,0V13.8c0-0.4,0.3-0.6,0.6-0.6s0.6,0.3,0.6,0.6l0,0V24.1z M16.4,24.1c0,0.4-0.3,0.6-0.6,0.6s-0.6-0.3-0.6-0.6
	l0,0V13.8c0-0.4,0.3-0.6,0.6-0.6c0.4,0,0.6,0.3,0.6,0.6l0,0V24.1z M20.6,24.1c0,0.4-0.3,0.6-0.6,0.6s-0.6-0.3-0.6-0.6l0,0V13.8
	c0-0.4,0.3-0.6,0.6-0.6s0.6,0.3,0.6,0.6l0,0V24.1z M24.3,6.8h-4.7L19,5.5c-0.2-0.4-0.6-0.7-1.2-0.7h-3.8c-0.5,0-1,0.3-1.2,0.7l0,0
	l-0.6,1.2H7.7C7,6.8,6.4,7.3,6.4,8S7,9.3,7.7,9.3h16.7c0.7,0,1.3-0.6,1.3-1.3S25,6.8,24.3,6.8L24.3,6.8z"/>
</svg>
