<?xml version="1.0" encoding="utf-8"?>
<!-- Generator: Adobe Illustrator 26.5.0, SVG Export Plug-In . SVG Version: 6.00 Build 0)  -->
<svg version="1.1" id="Layer_1" xmlns="http://www.w3.org/2000/svg" xmlns:xlink="http://www.w3.org/1999/xlink" x="0px" y="0px"
	 viewBox="0 0 32 32" style="enable-background:new 0 0 32 32;" xml:space="preserve">
<path d="M23.6,13.5H12.2V9.2c0-2.1,1.7-3.8,3.8-3.8s3.8,1.7,3.8,3.8c0,0.7,0.6,1.2,1.2,1.2s1.2-0.6,1.2-1.2C22.2,5.8,19.4,3,16,3
	S9.8,5.8,9.8,9.2v4.3H8.4c-0.7,0-1.3,0.6-1.3,1.3v12.8c0,0.7,0.6,1.3,1.3,1.3h15.1c0.7,0,1.3-0.6,1.3-1.3V14.9
	C24.9,14.1,24.3,13.5,23.6,13.5z M16.9,21.5v2.6c0,0.5-0.4,0.9-0.9,0.9s-0.9-0.4-0.9-0.9v-2.6c-0.7-0.3-1.3-1.1-1.3-1.9
	c0-1.2,0.9-2.1,2.1-2.1s2.1,0.9,2.1,2.1C18.1,20.5,17.6,21.2,16.9,21.5z"/>
</svg>
