<!-- Generated by IcoMoon.io -->
<svg version="1.1" xmlns="http://www.w3.org/2000/svg" width="32" height="32" viewBox="0 0 32 32">
<title>unlock</title>
<path d="M23.572 13.53l-0 0-15.144-0c-0.731 0-1.324 0.593-1.324 1.324v12.76c0 0.731 0.593 1.324 1.324 1.324l0-0 15.144 0c0.731 0 1.324-0.593 1.324-1.324v-12.76c0-0.731-0.593-1.324-1.324-1.324zM16.851 21.549v2.561c0 0.47-0.381 0.851-0.851 0.851s-0.851-0.381-0.851-0.851v-2.561c-0.742-0.327-1.26-1.069-1.26-1.932 0-1.166 0.945-2.111 2.111-2.111s2.111 0.945 2.111 2.111c0 0.863-0.518 1.605-1.26 1.932z"></path>
<path d="M16 3c-3.446 0-6.25 2.804-6.25 6.25v7.875h2.5v-7.875c0-2.068 1.682-3.75 3.75-3.75s3.75 1.682 3.75 3.75c0 0.69 0.56 1.25 1.25 1.25s1.25-0.56 1.25-1.25c0-3.446-2.804-6.25-6.25-6.25z"></path>
</svg>
