<svg viewBox="0 0 24 24" fill="none" xmlns="http://www.w3.org/2000/svg">
<path d="M21.1387 11.5459C21.0264 9.2845 20.0783 7.13889 18.4697 5.53027C16.8611 3.92165 14.7155 2.97361 12.4541 2.86133L12 2.84961C9.57327 2.84961 7.24623 3.81432 5.53027 5.53027C3.81432 7.24623 2.84961 9.57327 2.84961 12L2.86133 12.4502C2.91294 13.498 3.14456 14.5307 3.54688 15.502C4.0067 16.6119 4.68074 17.6202 5.53027 18.4697C6.37981 19.3193 7.38811 19.9933 8.49805 20.4531C9.60818 20.913 10.7984 21.1504 12 21.1504L12.4502 21.1387C13.498 21.0871 14.5307 20.8554 15.502 20.4531C16.6119 19.9933 17.6202 19.3193 18.4697 18.4697C19.3193 17.6202 19.9933 16.6119 20.4531 15.502C20.913 14.3918 21.1504 13.2016 21.1504 12L21.1387 11.5459ZM11.1504 16.4443V9.60645L8.15625 12.6006L6.9541 11.3994L11.3994 6.9541L11.4639 6.89648C11.7976 6.62436 12.2894 6.64334 12.6006 6.9541L17.0459 11.3994C17.3773 11.7312 17.3773 12.2687 17.0459 12.6006C16.714 12.9325 16.1757 12.9325 15.8438 12.6006L12.8496 9.60645V16.4443C12.8496 16.9138 12.4694 17.2949 12 17.2949C11.5306 17.2949 11.1504 16.9138 11.1504 16.4443ZM8.15625 12.6006C7.8243 12.9325 7.28605 12.9325 6.9541 12.6006C6.62273 12.2688 6.62273 11.7312 6.9541 11.3994L8.15625 12.6006ZM22.8369 12.5332C22.7758 13.7759 22.5016 15.0004 22.0244 16.1523C21.4792 17.4687 20.6794 18.6644 19.6719 19.6719C18.6644 20.6794 17.4687 21.4792 16.1523 22.0244C15.0004 22.5016 13.7759 22.7758 12.5332 22.8369L12 22.8496C10.5752 22.8496 9.16404 22.5697 7.84766 22.0244C6.53131 21.4792 5.33562 20.6794 4.32812 19.6719C3.32063 18.6644 2.52085 17.4687 1.97559 16.1523C1.49844 15.0004 1.22423 13.7759 1.16309 12.5332L1.15039 12C1.15039 9.1224 2.29336 6.36289 4.32812 4.32812C6.36289 2.29336 9.1224 1.15039 12 1.15039L12.5381 1.16309C15.2198 1.29614 17.7643 2.42054 19.6719 4.32812C21.7066 6.36289 22.8496 9.1224 22.8496 12L22.8369 12.5332Z" fill="black"/>
</svg>
