<?xml version="1.0" encoding="utf-8"?>
<!-- Generator: Adobe Illustrator 26.5.0, SVG Export Plug-In . SVG Version: 6.00 Build 0)  -->
<svg version="1.1" id="Layer_1" xmlns="http://www.w3.org/2000/svg" xmlns:xlink="http://www.w3.org/1999/xlink" x="0px" y="0px"
	 viewBox="0 0 32 32" style="enable-background:new 0 0 32 32;" xml:space="preserve">
<g>
	<path d="M8.8,13c0.4,0,0.7-0.1,0.9-0.4l5-5v15.1c0,0.7,0.6,1.3,1.3,1.3s1.3-0.6,1.3-1.3V7.6l5,5c0.2,0.2,0.5,0.4,0.9,0.4
		c0.7,0,1.3-0.6,1.3-1.3c0-0.4-0.1-0.7-0.4-0.9l-7.2-7.2c-0.2-0.2-0.5-0.4-0.9-0.4s-0.7,0.1-0.9,0.4l-7.2,7.2
		c-0.2,0.2-0.4,0.5-0.4,0.9C7.5,12.4,8.1,13,8.8,13z"/>
	<path d="M25.9,23.5c-0.7,0-1.3,0.6-1.3,1.3v1.4H7.4v-1.4c0-0.7-0.6-1.3-1.3-1.3s-1.3,0.6-1.3,1.3v2.7c0,0.7,0.6,1.3,1.3,1.3h19.8
		c0.7,0,1.3-0.6,1.3-1.3v-2.7C27.2,24.1,26.6,23.5,25.9,23.5z"/>
</g>
</svg>
