<!-- Generated by IcoMoon.io -->
<svg version="1.1" xmlns="http://www.w3.org/2000/svg" width="32" height="32" viewBox="0 0 32 32">
<title>upload</title>
<path d="M16 3.2v0c0.706 0 1.281 0.575 1.281 1.281v0 0 18.194c0 0.706-0.575 1.281-1.281 1.281s-1.281-0.575-1.281-1.281v0-18.194c0-0.706 0.575-1.281 1.281-1.281v0 0 0z"></path>
<path d="M16 3.2c0 0 0 0 0 0 0.356 0 0.675 0.144 0.906 0.375l7.219 7.225c0.231 0.231 0.375 0.55 0.375 0.906 0 0.706-0.575 1.281-1.281 1.281-0.356 0-0.675-0.144-0.906-0.375l-6.313-6.319-6.319 6.313c-0.231 0.231-0.55 0.375-0.906 0.375-0.706 0-1.281-0.575-1.281-1.281 0-0.356 0.144-0.675 0.375-0.906l7.225-7.219c0.231-0.231 0.55-0.375 0.906-0.375 0 0 0 0 0 0v0 0z"></path>
<path d="M25.894 28.8h-19.788c0 0 0 0 0 0-0.706 0-1.281-0.575-1.281-1.281v0 0-2.725c0-0.706 0.575-1.281 1.281-1.281s1.281 0.575 1.281 1.281v0 1.444h17.225v-1.444c0-0.706 0.575-1.281 1.281-1.281s1.281 0.575 1.281 1.281v0 2.725c-0.006 0.712-0.575 1.281-1.281 1.281v0 0 0z"></path>
</svg>
