<svg xmlns="http://www.w3.org/2000/svg" viewBox="0 0 46 46">
  <path d="m17.79,17.78c-4.91,0-8.89-3.98-8.89-8.89S12.88,0,17.79,0s8.89,3.98,8.89,8.89c0,4.91-3.98,8.88-8.89,8.89h0Z"/>
  <path d="m15.7,35.57H0v-4.45c0-1.82,1.15-4.46,6.66-6.66,3.55-1.38,7.31-2.13,11.12-2.23,1.46.02,2.92.15,4.36.39-3.67,3.37-5.97,7.98-6.46,12.94h.02Z"/>
  <polygon points="45.91 28.04 40.71 22.89 34.28 29.25 27.85 22.89 22.65 28.04 29.08 34.4 22.65 40.76 27.86 45.92 34.28 39.56 40.7 45.92 45.91 40.76 39.48 34.4 45.91 28.04"/>
</svg>
