<svg viewBox="0 0 20 20" fill="none" xmlns="http://www.w3.org/2000/svg">
<path d="M5.71425 5.71429V14.2857M3.14282 6.57143V13.4286M8.28568 5.71429C8.28568 5.25963 8.46629 4.82359 8.78778 4.5021C9.10927 4.18061 9.54531 4 9.99997 4H15.1428C15.5975 4 16.0335 4.18061 16.355 4.5021C16.6765 4.82359 16.8571 5.25963 16.8571 5.71429V14.2857C16.8571 14.7404 16.6765 15.1764 16.355 15.4979C16.0335 15.8194 15.5975 16 15.1428 16H9.99997C9.54531 16 9.10927 15.8194 8.78778 15.4979C8.46629 15.1764 8.28568 14.7404 8.28568 14.2857V5.71429Z" stroke="black" stroke-width="1.25" stroke-linecap="round" stroke-linejoin="round"/>
</svg>
