<svg viewBox="0 0 24 24" fill="none" xmlns="http://www.w3.org/2000/svg">
<path d="M21.1504 5.83558C21.1504 5.41881 20.9824 5.01374 20.6758 4.71112C20.3681 4.40765 19.9454 4.23219 19.5 4.23219H12C11.5546 4.23219 11.1319 4.40765 10.8242 4.71112C10.5176 5.01374 10.3496 5.41881 10.3496 5.83558V18.1649C10.3496 18.5817 10.5176 18.9867 10.8242 19.2894C11.1319 19.5928 11.5546 19.7683 12 19.7683H19.5C19.9454 19.7683 20.3681 19.5928 20.6758 19.2894C20.9824 18.9867 21.1504 18.5817 21.1504 18.1649V5.83558ZM4.90039 18.1649V5.83558C4.90039 5.35892 5.28056 4.97191 5.75 4.97191C6.21944 4.97191 6.59961 5.35892 6.59961 5.83558V18.1649C6.59961 18.6416 6.21944 19.0286 5.75 19.0286C5.28056 19.0286 4.90039 18.6416 4.90039 18.1649ZM1.15039 16.9324V7.06811C1.15054 6.59158 1.53065 6.20544 2 6.20544C2.44001 6.20544 2.80205 6.54479 2.8457 6.97986L2.84961 7.06811V16.9324L2.8457 17.0206C2.80205 17.4557 2.44001 17.795 2 17.795C1.55999 17.795 1.19795 17.4557 1.1543 17.0206L1.15039 16.9324ZM22.8496 18.1649C22.8496 19.056 22.4911 19.9056 21.8604 20.5279C21.2303 21.1493 20.3807 21.4937 19.5 21.4937H12C11.1193 21.4937 10.2697 21.1493 9.63965 20.5279C9.00888 19.9056 8.65039 19.056 8.65039 18.1649V5.83558C8.65039 4.94453 9.00888 4.09488 9.63965 3.47264C10.2697 2.85121 11.1193 2.50684 12 2.50684H19.5C20.3807 2.50684 21.2303 2.85121 21.8604 3.47264C22.4911 4.09488 22.8496 4.94453 22.8496 5.83558V18.1649Z" fill="black"/>
</svg>
