<svg viewBox="0 0 24 24" fill="none" xmlns="http://www.w3.org/2000/svg">
<path d="M5.75 5.92857V18.0714M2 7.14286V16.8571M9.5 5.92857C9.5 5.28447 9.76339 4.66676 10.2322 4.21131C10.7011 3.75587 11.337 3.5 12 3.5H19.5C20.163 3.5 20.7989 3.75587 21.2678 4.21131C21.7366 4.66676 22 5.28447 22 5.92857V18.0714C22 18.7155 21.7366 19.3332 21.2678 19.7887C20.7989 20.2441 20.163 20.5 19.5 20.5H12C11.337 20.5 10.7011 20.2441 10.2322 19.7887C9.76339 19.3332 9.5 18.7155 9.5 18.0714V5.92857Z" stroke="black" stroke-width="1.7" stroke-linecap="round" stroke-linejoin="round"/>
</svg>
