<?xml version="1.0" encoding="utf-8"?>
<!-- Generator: $$$/GeneralStr/196=Adobe Illustrator 27.6.0, SVG Export Plug-In . SVG Version: 6.00 Build 0)  -->
<svg version="1.1" xmlns="http://www.w3.org/2000/svg" xmlns:xlink="http://www.w3.org/1999/xlink" x="0px" y="0px"
	 viewBox="0 0 60 60" style="enable-background:new 0 0 60 60;" xml:space="preserve">
<g id="Layer_1">
</g>
<g id="Layer_2">
	<path class="st0" d="M44.7,4.5H15.3L0.5,30l14.7,25.5h29.5L59.5,30L44.7,4.5z M42.4,51.5H17.6L5.1,30L17.6,8.5h24.9L54.9,30
		L42.4,51.5z"/>
	<g>
		<polygon class="st1" points="40.1,31.9 31.1,31.9 26.6,39.7 31.1,47.5 40.1,47.5 44.6,39.7 		"/>
	</g>
	<g>
		<polygon class="st1" points="23.5,22.2 14.5,22.2 10,30 14.5,37.8 23.5,37.8 28,30 		"/>
	</g>
	<g>
		<polygon class="st1" points="40.1,12.5 31.1,12.5 26.6,20.3 31.1,28.1 40.1,28.1 44.6,20.3 		"/>
	</g>
</g>
</svg>
