<!-- Generated by IcoMoon.io -->
<svg version="1.1" xmlns="http://www.w3.org/2000/svg" width="32" height="32" viewBox="0 0 32 32">
<title>warning</title>
<path d="M16 7.764l9.51 16.472h-19.020l9.51-16.472zM16 5.264c-0.893 0-1.718 0.476-2.165 1.25l-9.51 16.472c-0.447 0.773-0.447 1.727 0 2.5s1.272 1.25 2.165 1.25h19.020c0.893 0 1.718-0.477 2.165-1.25s0.447-1.727 0-2.5l-9.51-16.472c-0.447-0.774-1.272-1.25-2.165-1.25v0z"></path>
<path d="M16 19.498c-0.69 0-1.25-0.56-1.25-1.25v-5.49c0-0.69 0.56-1.25 1.25-1.25s1.25 0.56 1.25 1.25v5.49c0 0.69-0.56 1.25-1.25 1.25z"></path>
<path d="M16 22.991c-0.041 0-0.082-0.003-0.123-0.006-0.040-0.004-0.081-0.010-0.121-0.018s-0.079-0.018-0.119-0.030c-0.039-0.012-0.078-0.026-0.115-0.042s-0.075-0.032-0.111-0.052c-0.036-0.019-0.071-0.040-0.105-0.063s-0.068-0.048-0.099-0.073c-0.032-0.026-0.063-0.054-0.091-0.082s-0.057-0.059-0.082-0.091c-0.026-0.031-0.051-0.065-0.073-0.099s-0.044-0.069-0.063-0.105c-0.019-0.036-0.037-0.073-0.053-0.111s-0.029-0.076-0.041-0.116c-0.012-0.039-0.022-0.079-0.030-0.118-0.008-0.041-0.014-0.081-0.018-0.122s-0.006-0.082-0.006-0.122c0-0.041 0.002-0.082 0.006-0.123s0.010-0.081 0.018-0.121c0.008-0.040 0.018-0.080 0.030-0.119s0.026-0.078 0.041-0.115c0.016-0.038 0.033-0.075 0.053-0.111s0.040-0.071 0.063-0.105c0.023-0.034 0.048-0.067 0.073-0.099s0.054-0.063 0.082-0.091c0.029-0.029 0.059-0.057 0.091-0.083s0.064-0.050 0.099-0.073c0.034-0.022 0.069-0.044 0.105-0.063s0.073-0.037 0.111-0.052 0.076-0.029 0.115-0.041c0.039-0.012 0.079-0.022 0.119-0.030s0.081-0.014 0.121-0.018c0.082-0.008 0.164-0.008 0.246 0 0.040 0.004 0.081 0.010 0.121 0.018s0.079 0.018 0.119 0.030c0.039 0.012 0.078 0.026 0.115 0.041s0.075 0.033 0.111 0.052c0.036 0.019 0.071 0.040 0.105 0.063s0.067 0.047 0.099 0.073c0.032 0.026 0.063 0.054 0.091 0.083s0.057 0.059 0.083 0.091c0.026 0.031 0.051 0.064 0.073 0.099s0.044 0.069 0.063 0.105c0.019 0.036 0.037 0.073 0.052 0.111s0.029 0.076 0.041 0.115c0.012 0.039 0.022 0.079 0.030 0.119s0.014 0.081 0.018 0.121c0.004 0.041 0.006 0.083 0.006 0.123s-0.002 0.082-0.006 0.122c-0.004 0.041-0.010 0.081-0.018 0.122-0.008 0.039-0.018 0.079-0.030 0.118s-0.026 0.078-0.041 0.116-0.033 0.074-0.052 0.111c-0.019 0.036-0.040 0.071-0.063 0.105s-0.047 0.067-0.073 0.099c-0.026 0.032-0.054 0.063-0.083 0.091s-0.059 0.057-0.091 0.082c-0.031 0.026-0.064 0.050-0.099 0.073s-0.069 0.043-0.105 0.063c-0.036 0.019-0.073 0.037-0.111 0.052s-0.076 0.030-0.115 0.042c-0.039 0.012-0.079 0.022-0.119 0.030s-0.081 0.014-0.121 0.018c-0.041 0.004-0.082 0.006-0.123 0.006z"></path>
</svg>
