<?xml version="1.0" encoding="utf-8"?>
<!-- Generator: Adobe Illustrator 26.0.0, SVG Export Plug-In . SVG Version: 6.00 Build 0)  -->
<svg version="1.1" id="Layer_1" xmlns="http://www.w3.org/2000/svg" xmlns:xlink="http://www.w3.org/1999/xlink" x="0px" y="0px"
	 viewBox="0 0 24 24" style="enable-background:new 0 0 24 24;" xml:space="preserve">
<path d="M11,11.1c-3.1,0.3-5.7,2.3-7,4.9c-1.6,0-3,1.4-3,3c0,1.7,1.3,3,3,3s3-1.3,3-3c0-1-0.5-1.8-1.1-2.3c1-1.9,2.9-3.3,5.1-3.6
	v3.1c-1.2,0.4-2,1.5-2,2.8c0,1.7,1.3,3,3,3s3-1.3,3-3c0-1.3-0.8-2.4-2-2.8v-3.1c2.2,0.3,4.1,1.7,5.1,3.6C17.5,17.2,17,18,17,19
	c0,1.7,1.3,3,3,3s3-1.3,3-3c0-1.6-1.3-3-3-3c-1.3-2.7-4-4.6-7-4.9V7.8c1.2-0.4,2-1.5,2-2.8c0-1.7-1.3-3-3-3S9,3.3,9,5
	c0,1.3,0.8,2.4,2,2.8V11.1z"/>
</svg>
