<?xml version="1.0" encoding="UTF-8"?>
<svg id="Layer_1" data-name="Layer 1" xmlns="http://www.w3.org/2000/svg" viewBox="0 0 32 32">
  <defs>
    <style>
      .cls-1 {
        fill: #171321;
      }
    </style>
  </defs>
  <g id="LOGO">
    <path class="cls-1" d="m29.3,13.5l-.04-.1-3.78-9.86c-.08-.19-.21-.36-.39-.47-.36-.22-.82-.2-1.16.06-.16.13-.28.31-.34.51l-2.55,7.81h-10.33l-2.55-7.81c-.06-.2-.17-.38-.34-.51-.33-.26-.8-.29-1.16-.06-.18.11-.31.28-.39.47l-3.79,9.86-.04.1c-1.12,2.92-.17,6.23,2.33,8.11h.01s.03.03.03.03l5.76,4.31,2.85,2.16,1.73,1.31c.42.32.99.32,1.41,0l1.73-1.31,2.85-2.16,5.79-4.34h.01c2.49-1.89,3.44-5.2,2.32-8.11Z"/>
  </g>
</svg>