<?xml version="1.0" encoding="UTF-8"?>
<svg id="a" xmlns="http://www.w3.org/2000/svg" viewBox="0 0 250 250">
  <defs>
    <style>
      .cls-1 {
        stroke-width: 0px;
      }
    </style>
  </defs>
  <path class="cls-1" d="m175,95.5c0,11-4.5,21-11.63,28.12l-11.24,11.51c-9.01,9.12-14.63,16.62-14.63,35.37h-25v-6.25c0-13.75,5.62-26.25,14.63-35.37l15.49-15.76c4.63-4.49,7.38-10.74,7.38-17.62,0-13.75-11.25-25-25-25s-25,11.25-25,25h-25c0-27.63,22.37-50,50-50s50,22.37,50,50ZM125,14c-29.65,0-57.52,11.55-78.49,32.51C25.55,67.48,14,95.35,14,125s11.55,57.52,32.51,78.49c20.97,20.97,48.84,32.51,78.49,32.51s57.52-11.55,78.49-32.51c20.97-20.97,32.51-48.84,32.51-78.49s-11.55-57.52-32.51-78.49S154.65,14,125,14m0-14c69.04,0,125,55.96,125,125s-55.96,125-125,125S0,194.04,0,125,55.96,0,125,0h0Zm-.01,180.49c-6.9,0-12.5,5.6-12.5,12.5s5.6,12.5,12.5,12.5,12.5-5.6,12.5-12.5-5.6-12.5-12.5-12.5Z"/>
</svg>