<svg xmlns="http://www.w3.org/2000/svg"><defs><font id="icons" horiz-adv-x="250"><font-face font-family="icons" units-per-em="250" ascent="250" descent="0"/><glyph glyph-name="actions" unicode="" horiz-adv-x="250" d="M147.917 216.667c0-12.5-10.417-22.917-22.917-22.917s-22.917 10.417-22.917 22.917S112.5 239.583 125 239.583s22.917-10.416 22.917-22.916zm0-91.667c0-12.5-10.417-22.917-22.917-22.917S102.083 112.5 102.083 125 112.5 147.917 125 147.917 147.917 137.5 147.917 125zm0-91.667c0-12.5-10.417-22.916-22.917-22.916s-22.917 10.416-22.917 22.916S112.5 56.25 125 56.25s22.917-10.417 22.917-22.917z"/><glyph glyph-name="alert" unicode="" horiz-adv-x="250" d="M201.042 76.042v71.875c0 35.416-25 65.625-57.292 72.916-1.042 9.375-8.333 16.667-17.708 16.667-9.375 0-17.709-7.292-17.709-16.667-32.291-8.333-57.291-37.5-57.291-72.916V76.042L20.833 40.625H237.5l-36.458 35.417zm-28.125-8.334H78.125v80.209c0 26.041 20.833 47.916 47.917 47.916 26.041 0 47.916-20.833 47.916-47.916V67.708zm-62.5-39.583h36.458c0-10.417-8.333-18.75-18.75-18.75s-17.708 8.333-17.708 18.75z"/><glyph glyph-name="anchor" unicode="" horiz-adv-x="250" d="M125 20.833c-10.417 0-21.875 2.084-32.292 5.209C81.25 30.208 71.875 35.417 62.5 41.667S45.833 56.25 40.625 64.583 31.25 83.333 31.25 93.75V125l41.667-31.25-15.625-15.625c5.208-9.375 12.5-16.667 23.958-22.917s21.875-10.416 33.333-12.5v92.709h-31.25v20.833h31.25v12.5c-6.25 2.083-11.458 6.25-14.583 11.458s-6.25 11.459-6.25 17.709c0 8.333 3.125 15.625 9.375 21.875s13.542 9.375 21.875 9.375 15.625-3.125 21.875-9.375 9.375-13.542 9.375-21.875c0-7.292-2.083-12.5-6.25-17.709s-8.333-9.375-14.583-11.458v-12.5h31.25v-20.833h-31.25V42.708c11.458 2.084 22.916 6.25 33.333 12.5s18.75 14.584 23.958 22.917L177.083 93.75 218.75 125V93.75c0-10.417-3.125-19.792-8.333-28.125S196.875 48.958 187.5 41.667c-9.375-6.25-18.75-11.459-30.208-15.625-10.417-3.125-21.875-5.209-32.292-5.209zm0 166.667c3.125 0 5.208 1.042 7.292 3.125s3.125 4.167 3.125 7.292-1.042 5.208-3.125 7.291c-2.084 2.084-4.167 3.125-7.292 3.125s-5.208-1.041-7.292-3.125c-2.083-2.083-3.125-4.166-3.125-7.291s1.042-5.209 3.125-7.292 4.167-3.125 7.292-3.125z"/><glyph glyph-name="apple" unicode="" horiz-adv-x="250" d="M187.5 117.708c0-34.375 30.208-45.833 31.25-46.875 0-1.041-5.208-16.666-15.625-32.291C193.75 25 183.333 10.417 167.708 10.417s-19.791 9.375-37.5 9.375c-17.708 0-22.916-8.334-37.5-9.375C78.125 9.375 66.667 25 56.25 39.583c-20.833 28.125-35.417 80.209-15.625 115.625 10.417 17.709 28.125 28.125 47.917 29.167 14.583 0 29.166-10.417 37.5-10.417 9.375 0 26.041 12.5 43.75 10.417 7.291 0 28.125-3.125 41.666-22.917-1.041-1.041-25-14.583-23.958-43.75zm-29.167 85.417c8.334 9.375 13.542 22.917 11.459 36.458-11.459 0-25-7.291-33.334-17.708-7.291-8.333-13.541-21.875-12.5-35.417 13.542-1.041 26.042 7.292 34.375 16.667z"/><glyph glyph-name="application" unicode="" horiz-adv-x="250" d="m10.418 218.75-.001-20.833h229.166v20.833a20.833 20.833 0 0 1-20.833 20.833H31.25a20.833 20.833 0 0 1-20.832-20.833zm31.249-10.426a10.417 10.417 0 1 0 10.416 10.416 10.417 10.417 0 0 0-10.416-10.416zm31.25.01a10.417 10.417 0 1 0 10.417 10.416 10.448 10.448 0 0 0-10.416-10.417zm-62.5-20.834V41.667A20.828 20.828 0 0 1 31.25 20.833h187.5a20.827 20.827 0 0 1 20.833 20.834V187.5zm84.375-96.875 13.541-13.542-7.291-7.291L93.75 62.5 72.917 83.333l-20.834 20.834L72.917 125l20.833 20.833 7.292-7.291 7.291-7.292-13.541-13.542-13.542-13.541zm82.291-7.292L156.25 62.5l-7.292 7.292-7.291 7.291 13.541 13.542 13.542 13.542-13.542 13.541-13.541 13.542 7.291 7.292 7.292 7.291L177.083 125l20.834-20.833z"/><glyph glyph-name="apps" unicode="" horiz-adv-x="250" d="M10.417 182.292h57.291v57.291H10.417v-57.291zM95.833 10.417h57.292v57.291H95.833V10.417zm-85.416 0h57.291v57.291H10.417V10.417zm0 85.416h57.291v58.334H10.417V95.833zm85.416 0h57.292v58.334H95.833V95.833zm86.459 143.75v-57.291h57.291v57.291h-57.291zm-86.459-57.291h57.292v57.291H95.833v-57.291zm86.459-86.459h57.291v58.334h-57.291V95.833zm0-85.416h57.291v57.291h-57.291V10.417z"/><glyph glyph-name="archive" unicode="" horiz-adv-x="250" d="m213.958 195.52-14.479 17.5c-2.812 3.542-7.083 5.73-11.979 5.73h-125c-4.896 0-9.167-2.188-12.083-5.73l-14.375-17.5c-3.021-3.54-4.792-8.228-4.792-13.228V52.083c0-11.458 9.375-20.833 20.833-20.833h145.834c11.458 0 20.833 9.375 20.833 20.833v130.209c0 5-1.77 9.687-4.792 13.229zM125 67.709 67.708 125h36.459v20.833h41.666V125h36.459L125 67.708zM53.333 197.917l8.438 10.416h125l9.792-10.416H53.333z"/><glyph glyph-name="backup-restore" unicode="" horiz-adv-x="250" d="M112.5 94.792c0-13.542-10.417-23.959-23.958-23.959S64.583 81.25 64.583 94.792c0 13.541 10.417 23.958 23.959 23.958S112.5 108.333 112.5 94.792zm72.917 0c0-13.542-10.417-23.959-23.959-23.959S137.5 81.25 137.5 94.792c0 13.541 10.417 23.958 23.958 23.958s23.959-10.417 23.959-23.958zm-37.5 60.416c0-12.5-10.417-22.916-22.917-22.916s-22.917 10.416-22.917 22.916S112.5 178.125 125 178.125s22.917-9.375 22.917-22.917zM125 239.583c-37.5 0-70.833-17.708-91.667-45.833l-16.666 16.667c-2.084 2.083-4.167 1.041-4.167-2.084v-51.041c0-3.125 2.083-5.209 5.208-5.209H68.75c4.167-1.041 4.167 1.042 2.083 3.125l-17.708 17.709C68.75 195.833 94.792 211.458 125 211.458c47.917 0 86.458-38.541 86.458-86.458S172.917 38.542 125 38.542c-46.875 0-84.375 37.5-85.417 84.375H10.417C11.458 60.417 62.5 10.417 125 10.417c63.542 0 114.583 51.041 114.583 114.583S188.542 239.583 125 239.583z"/><glyph glyph-name="backup" unicode="" horiz-adv-x="250" d="M125 239.583c-37.5 0-70.833-17.708-91.667-45.833l-16.666 16.667c-2.084 2.083-4.167 1.041-4.167-2.084v-51.041c0-3.125 2.083-5.209 5.208-5.209H68.75c4.167-1.041 4.167 1.042 2.083 3.125l-17.708 17.709C68.75 195.833 94.792 211.458 125 211.458c47.917 0 86.458-38.541 86.458-86.458S172.917 38.542 125 38.542c-46.875 0-84.375 37.5-85.417 84.375H10.417C11.458 60.417 62.5 10.417 125 10.417c63.542 0 114.583 51.041 114.583 114.583S188.542 239.583 125 239.583z"/><glyph glyph-name="brush-icon" unicode="" horiz-adv-x="250" d="m89.583 184.375 75-82.292-26.041-28.125s-14.584 27.084-26.042 29.167-25-35.417-36.458-47.917c-11.459-13.541-28.125-28.125-42.709-12.5S32.292 77.083 43.75 89.583s45.833 28.125 44.792 40.625-25 26.042-25 26.042l26.041 28.125zm7.292 8.333 75-82.291s48.958 47.916 52.083 62.5c2.084 14.583-12.5-9.375-36.458 1.041s-31.25 39.584-55.208 39.584c-14.584 0-28.125-7.292-35.417-20.834z"/><glyph glyph-name="checkmark" unicode="" horiz-adv-x="250" d="M84.375 34.375c-4.167 0-7.292 1.042-9.375 4.167L4.167 109.375C1.042 111.458 0 114.583 0 118.75c0 7.292 6.25 13.542 13.542 13.542 4.166 0 7.291-1.042 9.375-4.167l61.458-61.458 143.75 144.791c2.083 2.084 6.25 4.167 9.375 4.167 7.292 0 13.542-6.25 13.542-13.542 0-4.166-1.042-7.291-4.167-9.375L93.75 38.542c-3.125-2.084-6.25-4.167-9.375-4.167z"/><glyph glyph-name="chevron-beginning" unicode="" horiz-adv-x="250" d="M196.875 63.542 135.417 125l61.458 61.458c2.083 2.084 4.167 6.25 4.167 9.375 0 7.292-6.25 13.542-13.542 13.542-4.167 0-7.292-1.042-9.375-4.167l-70.833-70.833c-2.084-2.083-4.167-6.25-4.167-9.375s1.042-7.292 4.167-9.375l70.833-70.833c2.083-2.084 6.25-4.167 9.375-4.167 7.292 0 13.542 6.25 13.542 13.542 0 4.166-2.084 7.291-4.167 9.375zM62.5 208.333c-7.292 0-13.542-6.25-13.542-13.541V54.167c0-6.25 6.25-12.5 13.542-12.5s13.542 6.25 13.542 13.541v139.584c0 7.291-6.25 13.541-13.542 13.541z"/><glyph glyph-name="chevron-down" unicode="" horiz-adv-x="250" d="M125 76.042c-4.167 0-7.292 1.041-9.375 4.166l-70.833 70.834c-2.084 2.083-4.167 5.208-4.167 9.375 0 7.291 6.25 13.541 13.542 13.541 4.166 0 7.291-1.041 9.375-4.166L125 108.333l61.458 61.459c2.084 2.083 6.25 4.166 9.375 4.166 7.292 0 13.542-6.25 13.542-13.541 0-4.167-1.042-7.292-4.167-9.375l-70.833-70.834c-2.083-2.083-5.208-4.166-9.375-4.166z"/><glyph glyph-name="chevron-end" unicode="" horiz-adv-x="250" d="M53.125 186.458 114.583 125 53.125 63.542c-2.083-2.084-4.167-6.25-4.167-9.375 0-7.292 6.25-13.542 13.542-13.542 4.167 0 7.292 1.042 9.375 4.167l70.833 70.833c2.084 2.083 4.167 6.25 4.167 9.375s-1.042 7.292-4.167 9.375l-70.833 70.833c-2.083 2.084-5.208 4.167-9.375 4.167-7.292 0-13.542-6.25-13.542-13.542 0-4.166 2.084-7.291 4.167-9.375zM187.5 41.667c7.292 0 13.542 6.25 13.542 13.541v139.584c0 7.291-6.25 13.541-13.542 13.541s-13.542-6.25-13.542-13.541V54.167c0-6.25 6.25-12.5 13.542-12.5z"/><glyph glyph-name="chevron-left" unicode="" horiz-adv-x="250" d="M160.417 40.625c-4.167 0-7.292 1.042-9.375 4.167l-70.834 70.833c-2.083 2.083-4.166 6.25-4.166 9.375s1.041 7.292 4.166 9.375l70.834 70.833c2.083 2.084 6.25 4.167 9.375 4.167 7.291 0 13.541-6.25 13.541-13.542 0-4.166-1.041-7.291-4.166-9.375L108.333 125l61.459-61.458c2.083-2.084 4.166-6.25 4.166-9.375 0-7.292-6.25-13.542-13.541-13.542z"/><glyph glyph-name="chevron-right" unicode="" horiz-adv-x="250" d="M89.583 40.625c-7.291 0-13.541 6.25-13.541 13.542 0 4.166 1.041 7.291 4.166 9.375L141.667 125l-61.459 61.458c-2.083 2.084-4.166 5.209-4.166 9.375 0 7.292 6.25 13.542 13.541 13.542 4.167 0 7.292-1.042 9.375-4.167l70.834-70.833c2.083-2.083 4.166-6.25 4.166-9.375s-1.041-7.292-4.166-9.375L98.958 44.792c-2.083-2.084-5.208-4.167-9.375-4.167z"/><glyph glyph-name="chevron-up" unicode="" horiz-adv-x="250" d="M195.833 76.042c-4.166 0-7.291 1.041-9.375 4.166L125 141.667 63.542 80.208c-2.084-2.083-6.25-4.166-9.375-4.166-7.292 0-13.542 6.25-13.542 13.541 0 4.167 1.042 7.292 4.167 9.375l70.833 70.834c2.083 2.083 6.25 4.166 9.375 4.166s7.292-1.041 9.375-4.166l70.833-70.834c2.084-2.083 4.167-6.25 4.167-9.375 0-7.291-6.25-13.541-13.542-13.541z"/><glyph glyph-name="circle-plus" unicode="" horiz-adv-x="250" d="M125 229.167C67.5 229.167 20.833 182.5 20.833 125S67.5 20.833 125 20.833 229.167 67.5 229.167 125 182.5 229.167 125 229.167zm52.083-114.584h-41.666V72.917h-20.834v41.666H72.917v20.834h41.666v41.666h20.834v-41.666h41.666v-20.834z"/><glyph glyph-name="cis" unicode="" horiz-adv-x="250" d="M238.542 96.875c1.041 3.125 1.041 7.292 0 11.458l-17.709 78.125c-1.041 3.125-2.083 7.292-5.208 9.375-2.083 3.125-5.208 5.209-8.333 6.25l-72.917 34.375c-2.083 2.084-6.25 3.125-9.375 3.125h-1.042c-3.125 0-6.25-1.041-8.333-2.083l-73.958-35.417c-3.125-1.041-5.209-3.125-7.292-5.208-3.125-3.125-4.167-7.292-5.208-10.417l-17.709-78.125c-1.041-3.125-1.041-6.25-1.041-9.375v-1.041c1.041-3.125 2.083-5.209 3.125-7.292 0-1.042 1.041-1.042 1.041-2.083l50-62.5c2.084-3.125 6.25-5.209 9.375-7.292 3.125-1.042 6.25-2.083 9.375-2.083h80.209c3.125 0 6.25 1.041 9.375 2.083 3.125 1.042 6.25 4.167 9.375 7.292l50 62.5c1.041 2.083 3.125 4.166 3.125 6.25 3.125 0 3.125 1.041 3.125 2.083zm-37.5 44.792 6.25 15.625 6.25-28.125-12.5 12.5zm-4.167 44.791-9.375-26.041-33.333 45.833 42.708-19.792zm-87.5 4.167L125 212.5l53.125-72.917L125 72.917l-53.125 67.708 37.5 50c-1.042 0 0 0 0 0zM36.458 131.25l6.25 27.083 5.209-14.583-11.459-12.5zm58.334 75-1.042-3.125-31.25-41.667-9.375 25 41.667 19.792zM33.333 97.917l25 27.083 52.084-65.625-30.209-19.792-46.875 58.334zM125 44.792l13.542-8.334h-27.084L125 44.792zm44.792-5.209-30.209 19.792 51.042 64.583 26.042-26.041-46.875-58.334z"/><glyph glyph-name="close" unicode="" horiz-adv-x="250" d="M153.125 122.917 225 194.792c4.167 4.166 6.25 8.333 6.25 13.541a18.672 18.672 0 0 1-18.75 18.75c-5.208 0-9.375-2.083-13.542-5.208L127.083 150l-72.916 71.875c-3.125 3.125-7.292 5.208-12.5 5.208a18.672 18.672 0 0 1-18.75-18.75c0-5.208 2.083-9.375 5.208-13.541L100 122.917 28.125 51.042C25 47.917 22.917 42.708 22.917 37.5a18.672 18.672 0 0 1 18.75-18.75c5.208 0 9.375 2.083 13.541 5.208l71.875 71.875 71.875-71.875c3.125-3.125 8.334-5.208 13.542-5.208a18.672 18.672 0 0 1 18.75 18.75c0 5.208-2.083 9.375-5.208 13.542l-72.917 71.875z"/><glyph glyph-name="cluster-management" unicode="" horiz-adv-x="250" d="M239.583 184.375c-2.083 23.958-21.875 42.708-45.833 42.708-22.917 0-41.667-16.666-45.833-38.541l-30.209 14.583c-3.125 1.042-6.25 1.042-8.333 0L41.667 168.75c-2.084-1.042-4.167-2.083-5.209-4.167l-25-51.041c-2.083-5.209 0-10.417 4.167-12.5 5.208-2.084 10.417 0 12.5 4.166l23.958 47.917 62.5 30.208 61.459-30.208L200 105.208c2.083-3.125 5.208-5.208 8.333-5.208 1.042 0 3.125 0 4.167 1.042 5.208 2.083 6.25 8.333 4.167 12.5l-25 51.041c-1.042 2.084-3.125 3.125-4.167 4.167l-19.792 10.417v3.125c1.042 14.583 12.5 25 26.042 25s26.042-11.459 26.042-25V46.875h-27.084v56.25c0 1.042 0 3.125-1.041 4.167l-18.75 38.541c-1.042 2.084-2.084 3.125-4.167 4.167l-50 25c-3.125 1.042-6.25 1.042-8.333 0l-51.042-23.958c-2.083-1.042-3.125-3.125-4.167-5.209l-18.75-38.541c-1.041-1.042-1.041-3.125-1.041-4.167V37.5a9.336 9.336 0 0 1 9.375-9.375h185.416a9.336 9.336 0 0 1 9.375 9.375v146.875zm-65.625-137.5H54.167v54.167l16.666 33.333 43.75 21.875 43.75-21.875L175 101.042l-1.042-54.167z"/><glyph glyph-name="cluster" unicode="" horiz-adv-x="250" d="M10.417 114.583V10.417h229.166v104.166zm125-62.5h-93.75v20.834h93.75zm31.25 0A10.417 10.417 0 1 0 177.083 62.5a10.417 10.417 0 0 0-10.416-10.417zm31.25 0A10.417 10.417 0 1 0 208.333 62.5a10.417 10.417 0 0 0-10.416-10.417zm-187.5 187.5V135.417h229.166v104.166zm125-62.5h-93.75v20.834h93.75zm31.25 0a10.417 10.417 0 1 0 10.416 10.417 10.417 10.417 0 0 0-10.416-10.417zm31.25 0a10.417 10.417 0 1 0 10.416 10.417 10.417 10.417 0 0 0-10.416-10.417z"/><glyph glyph-name="code" unicode="" horiz-adv-x="250" d="M97.917 77.083 50 125l47.917 47.917L83.333 187.5l-62.5-62.5 62.5-62.5 14.584 14.583zm54.166 0L200 125l-47.917 47.917 14.584 14.583 62.5-62.5-62.5-62.5-14.584 14.583z"/><glyph glyph-name="comment" unicode="" horiz-adv-x="250" d="M229.063 208.333c0 11.459-9.271 20.834-20.73 20.834H41.667c-11.459 0-20.834-9.375-20.834-20.834v-125c0-11.458 9.375-20.833 20.834-20.833H187.5l41.667-41.667-.105 187.5zM187.5 104.167h-125V125h125v-20.833zm0 31.25h-125v20.833h125v-20.833zm0 31.25h-125V187.5h125v-20.833z"/><glyph glyph-name="commit" unicode="" horiz-adv-x="250" d="M239.583 132.292H168.75c-6.25 23.958-31.25 39.583-55.208 33.333-16.667-4.167-29.167-16.667-33.334-33.333H10.417v-22.917H81.25c6.25-23.958 31.25-39.583 55.208-33.333 16.667 4.166 29.167 16.666 33.334 33.333h69.791v22.917z"/><glyph glyph-name="compass" unicode="" horiz-adv-x="250" d="M125 239.583c-63.542 0-114.583-51.041-114.583-114.583S61.458 10.417 125 10.417 239.583 61.458 239.583 125 188.542 239.583 125 239.583zm0-201.041c-47.917 0-85.417 38.541-85.417 86.458s37.5 85.417 85.417 85.417 85.417-38.542 85.417-85.417c0-47.917-37.5-86.458-85.417-86.458zM196.875 125l-56.25 12.5 8.333 12.5-12.5-8.333L125 196.875l-12.5-56.25L100 150l8.333-12.5-56.25-12.5 56.25-12.5L100 100l12.5 8.333 12.5-56.25 12.5 56.25L150 100l-8.333 12.5 55.208 12.5zM125 117.708c-4.167 0-7.292 3.125-7.292 7.292s3.125 7.292 7.292 7.292 7.292-3.125 7.292-7.292-3.125-7.292-7.292-7.292z"/><glyph glyph-name="copy" unicode="" horiz-adv-x="250" d="M228.125 183.333H77.083c-6.25 0-11.458-5.208-11.458-11.458V20.833c0-6.25 5.208-11.458 11.458-11.458h151.042c6.25 0 11.458 5.208 11.458 11.458v151.042c0 6.25-5.208 11.458-11.458 11.458zM216.667 32.292H88.542v128.125h127.083V32.292zM88.542 221.875H66.667v17.708h21.875v-17.708zm-60.417-100H10.417v21.875h17.708v-21.875zm144.792-56.25h-27.084v17.708h20.834v21.875h17.708V78.125c0-7.292-5.208-12.5-11.458-12.5zm-6.25 156.25h-21.875v17.708h27.083c6.25 0 11.458-5.208 11.458-11.458v-27.083h-16.666v20.833zm-38.542-156.25H106.25v17.708h21.875V65.625zm-100 95.833H10.417v21.875h17.708v-21.875zm-6.25 78.125h27.083v-17.708H28.125V200H10.417v28.125c0 6.25 5.208 11.458 11.458 11.458zm6.25-156.25H50V65.625H21.875c-6.25 0-11.458 5.208-11.458 11.458v27.084h17.708V83.333zm156.25 38.542h-17.708v21.875h17.708v-21.875zm-56.25 100H106.25v17.708h21.875v-17.708z"/><glyph glyph-name="dashboard" unicode="" horiz-adv-x="250" d="M132.813 148.438v70.312h85.937v-70.313zM31.25 117.188V218.75h85.938V117.187zM132.813 31.25v101.563h85.937V31.25zm-101.563 0v70.313h85.938V31.25zm15.625 101.563h54.688v70.312H46.874zm101.563-85.938h54.687v70.313h-54.688zm0 117.188h54.687v39.062h-54.688zM46.874 46.874h54.688v39.063H46.874zm54.688 85.938zm46.874 31.25zm0-46.875zm-46.875-31.25z"/><glyph glyph-name="dock" unicode="" horiz-adv-x="250" d="M226.042 229.167H23.958c-7.291 0-13.541-6.25-13.541-13.542V36.458c0-7.291 6.25-13.541 13.541-13.541H225c7.292 0 13.542 6.25 13.542 13.541v179.167c1.041 7.292-5.209 13.542-12.5 13.542zM211.458 50H38.542v46.875h172.916V50zM38.542 125v76.042h172.916V125H38.542z"/><glyph glyph-name="docker" unicode="" horiz-adv-x="250" d="M112.5 177.083h22.917v-21.875h-23.959v21.875zm0-26.041h22.917v-20.834h-23.959v20.834zm-28.125 26.041h23.958v-21.875H84.375v21.875zm55.208-26.041h23.959v-20.834h-23.959v20.834zM112.5 203.125h22.917V181.25h-23.959c1.042 0 1.042 21.875 1.042 21.875zm-56.25-26.042h23.958v-21.875H56.25v21.875zm28.125-26.041h23.958v-20.834H84.375v20.834zm150-10.417c-5.208 4.167-16.667 5.208-26.042 3.125-1.041 8.333-6.25 15.625-14.583 22.917l-5.208 3.125-3.125-5.209c-6.25-10.416-8.334-26.041-1.042-37.5-3.125-2.083-9.375-4.166-17.708-4.166H11.458c-3.125-17.709 2.084-41.667 15.625-58.334 13.542-15.625 33.334-23.958 59.375-23.958 56.25 0 97.917 26.042 117.709 72.917 7.291 0 23.958 0 32.291 16.666 1.042 1.042 2.084 5.209 3.125 6.25 0 1.042-5.208 4.167-5.208 4.167zM52.083 151.042H28.125v-20.834h23.958v20.834zm4.167 0h23.958v-20.834H56.25v20.834z"/><glyph glyph-name="dot-half" unicode="" horiz-adv-x="250" d="M43.75 206.25c-44.792-44.792-44.792-117.708 0-162.5s117.708-44.792 162.5 0 44.792 117.708 0 162.5-117.708 44.792-162.5 0zm20.833-20.833c15.625 15.625 36.459 25 60.417 25 47.917 0 85.417-38.542 85.417-85.417 0-23.958-9.375-44.792-25-60.417L64.583 185.417z"/><glyph glyph-name="dot-open" unicode="" horiz-adv-x="250" d="M125 239.583c-63.542 0-114.583-51.041-114.583-114.583S61.458 10.417 125 10.417 239.583 61.458 239.583 125 188.542 239.583 125 239.583zm0-200c-47.917 0-85.417 38.542-85.417 85.417s37.5 86.458 85.417 86.458 85.417-38.541 85.417-85.416c0-48.959-37.5-86.459-85.417-86.459z"/><glyph glyph-name="dot" unicode="" horiz-adv-x="250" d="M239.583 125c0-63.542-51.041-114.583-114.583-114.583S10.417 61.458 10.417 125 61.458 239.583 125 239.583 239.583 188.542 239.583 125z"/><glyph glyph-name="download" unicode="" horiz-adv-x="250" d="M121.875 55.208c3.125-2.083 5.208-3.125 8.333-3.125s5.209 1.042 7.292 3.125h1.042l64.583 64.584c2.083 2.083 3.125 5.208 3.125 8.333 0 6.25-5.208 11.458-11.458 11.458-3.125 0-6.25-1.041-8.334-3.125l-44.791-44.791v135.416c0 6.25-5.209 11.459-11.459 11.459s-11.458-5.209-11.458-11.459V91.667l-45.833 43.75c-2.084 2.083-5.209 3.125-8.334 3.125-6.25 0-11.458-5.209-11.458-11.459 0-3.125 1.042-6.25 3.125-8.333l65.625-63.542zm95.833 0c-6.25 0-11.458-5.208-11.458-11.458v-12.5H52.083v12.5c0 6.25-5.208 11.458-11.458 11.458S29.167 50 29.167 43.75V19.792c0-6.25 5.208-11.459 11.458-11.459h177.083c6.25 0 11.459 5.209 11.459 11.459V43.75c0 6.25-5.209 11.458-11.459 11.458z"/><glyph glyph-name="edit" unicode="" horiz-adv-x="250" d="m233.333 70.833-162.5 162.5c-1.041 1.042-3.125 2.084-6.25 2.084-2.083 0-4.166-1.042-6.25-2.084L12.5 187.5c-1.042-2.083-2.083-4.167-2.083-6.25s1.041-4.167 2.083-6.25L175 12.5c3.125-3.125 10.417-6.25 14.583-6.25h40.625c5.209 0 8.334 4.167 8.334 8.333v40.625c1.041 5.209-2.084 12.5-5.209 15.625zM100 179.167l-33.333-33.334c-1.042-1.041-2.084-2.083-4.167-2.083-3.125 0-6.25 3.125-6.25 6.25 0 2.083 1.042 3.125 2.083 4.167L91.667 187.5c1.041 1.042 2.083 2.083 4.166 2.083 3.125 0 6.25-3.125 6.25-6.25 0-2.083-1.041-3.125-2.083-4.166z"/><glyph glyph-name="elemental" unicode="" horiz-adv-x="250" d="M154.805 236.484c-20.157-17.085-40.668-34.45-55.56-56.491-12.048 5.366-18.782 11.23-30.93 17.626.825-19.674-8.192-63.646-8.192-63.646s-21.378 8.926-26.988 13.67C21.343 88.5 45.185 34.238 66.084 26.457c-19.02 31.957-15.26 65.492-17.8 93.14 5.534-1.547 25.13-10.587 25.13-10.587s11.992 41.175 13.795 55.84c2.78 1.38 17.646-12.265 17.646-12.265s35.111 49.832 38.793 45.742c1.95-23.858 19.249-46.446 21.743-68.571 8.772 3.42 17.586 8.586 26.358 12.007 10.046-15.84 12.446-36.6 6.869-118.164 13.339 30.972 19.523 56.011 21.245 84.93 1.19 19.96-5.378 43.053-9.747 63.25-8.225-3.206-20.938-7.75-29.163-10.957-10.859 27.77-22.038 49.545-26.15 75.667zm-28.508-85.78s-2.387-11.084-8.37-21.14c-12.005-20.176-15.358-24.473-21.499-36.026-7.119-13.392-16.331-27.702-13.855-42.346 2.29-13.553 12.304-27.519 24.995-32.801 18.712-7.79 46.587-7.01 60.29 7.926 11.15 12.155 11.746 35.977 2.21 49.434-7.325 10.336-16.346 24.147-23.69 36.729-7.253 12.43-20.08 38.223-20.08 38.223zm-20.388-87.868c2.52-7.441 4.763-11.363 9.125-15.459 5.455-5.123 10.173-8.093 20.013-10.175l-.372-11.007c-6.604.773-21.097 3.017-28.486 9.82-6.907 6.358-11.668 15.817-11.343 25.774z"/><glyph glyph-name="endpoints_connected" unicode="" horiz-adv-x="250" d="M227.083 113.542v22.916H181.25v57.292h11.458v45.833h-45.833V193.75h11.458v-57.292h-137.5v-22.916h45.834V56.25H55.208V10.417h45.834V56.25H89.583v57.292h137.5z"/><glyph glyph-name="epinio" unicode="" horiz-adv-x="250" d="M41.667 84.375v42.708h143.75c-5.209-9.375-7.292-18.75-7.292-29.166V77.083c4.167 1.042 8.333 3.125 12.5 5.209l10.417 5.208 8.333-4.167v14.584c0 15.625 12.5 29.166 29.167 29.166v31.25H127.083v19.792h15.625v31.25H10.417v-31.25h15.625v-18.75H10.417V75c10.416 0 21.875 4.167 28.125 7.292l3.125 2.083zm16.666 93.75h37.5v-18.75h-37.5v18.75zm150-102.083-7.291 3.125-7.292-3.125c-6.25-3.125-18.75-8.334-31.25-8.334s-25 5.209-31.25 8.334L125 79.167l-7.292-3.125c-6.25-3.125-18.75-8.334-31.25-8.334s-25 5.209-31.25 8.334l-7.291 3.125-6.25-3.125c-6.25-3.125-18.75-8.334-31.25-8.334v-31.25c13.541 0 26.041 3.125 38.541 8.334 12.5-5.209 25-8.334 38.542-8.334 13.542 0 26.042 3.125 38.542 8.334 12.5-5.209 25-8.334 38.541-8.334 13.542 0 26.042 3.125 38.542 8.334 12.5-5.209 25-8.334 38.542-8.334v31.25c-14.584 0-27.084 5.209-33.334 8.334z"/><glyph glyph-name="error" unicode="" horiz-adv-x="250" d="M113.542 90.625h22.916V67.708h-22.916v22.917zm0 91.667h22.916v-68.75h-22.916v68.75zM125 239.583c-63.542 0-114.583-51.041-114.583-114.583S61.458 10.417 125 10.417 239.583 61.458 239.583 125 188.542 239.583 125 239.583zm0-206.25c-51.042 0-91.667 40.625-91.667 91.667S73.958 216.667 125 216.667s91.667-40.625 91.667-91.667S176.042 33.333 125 33.333z"/><glyph glyph-name="explore" unicode="" horiz-adv-x="250" d="M125 136.458c-6.354 0-11.458-5.104-11.458-11.458s5.104-11.458 11.458-11.458 11.458 5.104 11.458 11.458-5.104 11.458-11.458 11.458zm0 92.709C67.5 229.167 20.833 182.5 20.833 125S67.5 20.833 125 20.833 229.167 67.5 229.167 125 182.5 229.167 125 229.167zm22.813-126.98L62.5 62.5l39.688 85.313L187.5 187.5l-39.688-85.313z"/><glyph glyph-name="extension" unicode="" horiz-adv-x="250" d="M213.542 135.417h-15.625v41.666c0 11.459-9.375 20.834-20.834 20.834h-41.666v15.625c0 14.375-11.667 26.041-26.042 26.041s-26.042-11.666-26.042-26.041v-15.625H41.667c-11.459 0-20.73-9.375-20.73-20.834V137.5h15.521c15.521 0 28.125-12.604 28.125-28.125S51.98 81.25 36.458 81.25H20.833V41.667c0-11.459 9.375-20.834 20.834-20.834H81.25v15.625c0 15.521 12.604 28.125 28.125 28.125 15.52 0 28.125-12.604 28.125-28.125V20.833h39.583c11.459 0 20.834 9.375 20.834 20.834v41.666h15.625c14.375 0 26.041 11.667 26.041 26.042s-11.666 26.042-26.041 26.042z"/><glyph glyph-name="external-link" unicode="" horiz-adv-x="250" d="M194.792 138.542c-6.25 0-11.459-5.209-11.459-11.459V31.25h-150v150h95.834c6.25 0 11.458 5.208 11.458 11.458s-5.208 11.459-11.458 11.459H21.875c-6.25 0-11.458-5.209-11.458-11.459V19.792c0-6.25 5.208-11.459 11.458-11.459h172.917c6.25 0 11.458 5.209 11.458 11.459v107.291c0 6.25-5.208 11.459-11.458 11.459zm33.333 98.958H120.833c-6.25 0-11.458-5.208-11.458-11.458s5.208-11.459 11.458-11.459h80.209L64.583 79.167c-2.083-2.084-3.125-5.209-3.125-8.334 0-6.25 5.209-11.458 11.459-11.458 3.125 0 6.25 1.042 8.333 3.125l135.417 136.458V118.75c0-6.25 5.208-11.458 11.458-11.458s11.458 5.208 11.458 11.458v107.292c0 6.25-5.208 11.458-11.458 11.458z"/><glyph glyph-name="file" unicode="" horiz-adv-x="250" d="M62.5 229.167c-11.458 0-20.73-9.375-20.73-20.834l-.103-166.666c0-11.459 9.27-20.834 20.729-20.834H187.5c11.458 0 20.833 9.375 20.833 20.834v125l-62.5 62.5H62.5zm72.917-72.917v57.292l57.291-57.292h-57.291z"/><glyph glyph-name="filter_alt" unicode="" horiz-adv-x="250" d="M44.27 191.563c21.042-26.98 59.897-76.98 59.897-76.98v-62.5c0-5.729 4.687-10.416 10.416-10.416h20.834c5.729 0 10.416 4.687 10.416 10.416v62.5s38.75 50 59.792 76.98c5.313 6.875.417 16.77-8.23 16.77H52.5c-8.646 0-13.542-9.895-8.23-16.77z"/><glyph glyph-name="flask" unicode="" horiz-adv-x="250" d="m215.02 57.79-9.49 15.127h-.013l-49.262 78.52v67.313h20.835v20.833H72.91V218.75h20.836v-67.313l-49.262-78.52h-.013L34.979 57.79a24.132 24.132 0 0 1 20.445-36.958h139.152a24.132 24.132 0 0 1 20.445 36.958zm-79.6 160.96v-72.917l45.559-72.916H69.023l45.56 72.916v72.917z"/><glyph glyph-name="fleet" unicode="" horiz-adv-x="250" d="M20.833 63.542 50 16.667h176.042v46.875H20.833zm37.5-32.292L46.875 48.958h164.583V31.25c0 1.042-153.125 0-153.125 0zm167.709 33.333zm-102.084 181.25C76.042 197.917 35.417 89.583 35.417 80.208h88.541v165.625zM109.375 94.792H55.208c13.542 37.5 31.25 73.958 54.167 107.291V94.792zm29.167 107.291V80.208h72.916c-12.5 43.75-58.333 106.25-72.916 121.875zm14.583-107.291v63.541c13.542-19.791 26.042-41.666 36.458-63.541h-36.458z"/><glyph glyph-name="folder" unicode="" horiz-adv-x="250" d="M104.167 208.333h-62.5c-11.459 0-20.73-9.375-20.73-20.833l-.104-125c0-11.458 9.375-20.833 20.834-20.833h166.666c11.459 0 20.834 9.375 20.834 20.833v104.167c0 11.458-9.375 20.833-20.834 20.833H125l-20.833 20.833z"/><glyph glyph-name="fork" unicode="" horiz-adv-x="250" d="M228.125 206.25c0 1.042 0 1.042 0 0 0 17.708-14.583 33.333-32.292 33.333-17.708 0-32.291-14.583-32.291-32.291 0-14.584 9.375-26.042 21.875-31.25v-34.375H54.167v34.375c12.5 4.166 21.875 16.666 21.875 31.25 0 17.708-14.584 32.291-33.334 32.291S10.417 225 10.417 207.292c0-14.584 9.375-26.042 21.875-31.25v-34.375c0-12.5 9.375-21.875 21.875-21.875h54.166V73.958c-12.5-4.166-21.875-16.666-21.875-31.25 0-17.708 14.584-32.291 32.292-32.291S151.042 25 151.042 42.708c0 14.584-9.375 26.042-21.875 31.25v45.834h54.166c12.5 0 21.875 9.375 21.875 21.875v34.375c14.584 4.166 22.917 16.666 22.917 30.208z"/><glyph glyph-name="gatekeeper" unicode="" horiz-adv-x="250" d="M139.583 131.25c0-8.333-6.25-14.583-14.583-14.583s-14.583 6.25-14.583 14.583 6.25 14.583 14.583 14.583 14.583-6.25 14.583-14.583zm88.542 38.542c0 4.166-2.083 10.416-6.25 17.708-3.125 5.208-6.25 11.458-11.458 18.75-8.334 12.5-17.709 25-22.917 30.208-3.125 3.125-8.333 4.167-12.5 2.084-4.167-2.084-6.25-6.25-5.208-11.459 2.083-9.375 4.166-16.666 6.25-22.916 2.083-8.334 4.166-14.584 4.166-19.792 0-2.083-2.083-5.208-5.208-8.333-13.542 11.458-32.292 18.75-52.083 18.75s-36.459-7.292-50-18.75c-3.125 2.083-5.209 6.25-5.209 8.333 0 5.208 2.084 11.458 4.167 19.792 2.083 6.25 4.167 14.583 6.25 22.916 1.042 4.167-1.042 9.375-5.208 11.459-4.167 2.083-8.334 1.041-12.5-2.084-4.167-4.166-13.542-17.708-21.875-29.166-5.209-7.292-9.375-14.584-11.459-19.792-4.166-7.292-6.25-13.542-6.25-17.708 0-12.5 9.375-25 18.75-39.584 2.084-2.083 3.125-4.166 5.209-7.291 0-3.125-1.042-6.25-1.042-9.375V78.125c0-5.208 3.125-9.375 8.333-10.417 26.042-4.166 52.084-26.041 62.5-51.041 2.084-4.167 5.209-6.25 9.375-6.25s8.334 2.083 9.375 6.25c10.417 25 36.459 46.875 62.5 51.041 5.209 1.042 8.334 5.209 8.334 10.417v35.417c0 3.125 0 6.25-1.042 9.375 2.083 2.083 3.125 5.208 5.208 7.291 11.459 13.542 19.792 27.084 19.792 39.584zm-186.458 0c0 1.041 2.083 5.208 6.25 12.5 1.041-9.375 6.25-16.667 11.458-21.875-3.125-4.167-5.208-7.292-7.292-11.459-5.208 8.334-10.416 15.625-10.416 20.834zm142.708-83.334c-13.542-4.166-26.042-10.416-38.542-20.833-8.333-7.292-15.625-14.583-21.875-23.958-6.25 8.333-13.541 16.666-21.875 23.958-11.458 9.375-25 16.667-38.541 20.833v28.125c0 33.334 27.083 60.417 60.416 60.417s60.417-27.083 60.417-60.417V86.458zm12.5 62.5c-2.083 4.167-4.167 7.292-6.25 11.459 5.208 5.208 10.417 12.5 11.458 21.875 4.167-7.292 5.209-11.459 6.25-12.5-1.041-5.209-5.208-12.5-11.458-20.834z"/><glyph glyph-name="gear" unicode="" horiz-adv-x="250" d="M227 148c-1 3-4 6-7 6h-2c-2 0-4-1-6-1-13 0-24 11-24 24 0 7 3 13 7 17 1 1 2 3 2 5s-1 4-2 6c-11 10-25 19-40 24h-3c-4 0-6-2-7-6-3-10-12-18-23-18s-20 7-23 18c-3 5-6 7-10 7h-2c-16-5-30-13-41-24-2-2-3-4-3-6s1-4 2-5c5-5 7-11 7-17 0-13-11-24-24-24-2 0-4 0-6 1h-2c-4 0-7-3-7-6-2-8-3-16-3-24s1-17 3-25v1c1-3 4-6 7-6h2c2 0 4 1 6 1 13 0 24-11 24-24 0-7-3-13-7-17-1-1-2-3-2-5s1-4 2-6c11-10 25-19 40-24h3c4 0 6 2 7 6 3 10 12 18 23 18s20-7 23-18c1-3 4-6 7-6h2c16 5 30 13 41 24 2 1 2 3 2 6 0 2-1 4-2 5-4 4-7 10-7 17 0 13 11 24 24 24 2 0 4 0 6-1h2c4 0 7 3 7 6 2 7 3 15 3 24s3 16 1 23zM120 90c-19 0-34 15-34 34s15 34 34 34 34-15 34-34c0-18-15-34-34-34z"/><glyph glyph-name="github" unicode="" horiz-adv-x="250" d="M125 236.458c-63.542 0-114.583-51.041-114.583-114.583S61.458 7.292 125 7.292s114.583 51.041 114.583 114.583S188.542 236.458 125 236.458zm95.833-114.583c0-13.542-2.083-26.042-7.291-37.5-5.209-11.458-11.459-21.875-20.834-30.208s-18.75-15.625-30.208-20.834c-3.125-1.041-6.25-2.083-8.333-3.125v16.667c0 9.375-3.125 15.625-9.375 19.792 4.166 1.041 7.291 1.041 10.416 2.083 3.125 1.042 6.25 2.083 10.417 3.125S172.917 75 175 76.042c3.125 2.083 5.208 4.166 8.333 7.291 2.084 3.125 5.209 6.25 6.25 9.375 2.084 3.125 3.125 7.292 4.167 12.5s2.083 10.417 2.083 16.667c0 11.458-4.166 21.875-11.458 29.167 3.125 9.375 3.125 18.75-1.042 29.166h-4.166c-2.084 0-5.209-1.041-9.375-2.083-5.209-2.083-10.417-5.208-16.667-9.375-8.333 2.083-17.708 4.167-27.083 4.167s-18.75-1.042-27.084-4.167c-5.208 3.125-9.375 5.208-12.5 7.292-3.125 1.041-6.25 3.125-8.333 3.125-2.083 1.041-4.167 1.041-6.25 1.041h-5.208c-4.167-10.416-4.167-20.833-1.042-29.166-7.292-8.334-11.458-17.709-11.458-29.167 0-6.25 1.041-11.458 2.083-16.667s2.083-9.375 4.167-12.5c2.083-4.166 4.166-7.291 7.291-9.375 2.084-3.125 5.209-5.208 8.334-7.291s6.25-3.125 9.375-4.167c4.166-1.042 7.291-2.083 10.416-3.125 3.125-1.042 7.292-1.042 10.417-2.083C100 62.5 96.875 56.25 96.875 46.875V29.167c-4.167 1.041-6.25 2.083-10.417 4.166C75 38.542 64.583 44.792 56.25 54.167c-8.333 8.333-15.625 18.75-20.833 30.208-5.209 11.458-7.292 25-7.292 37.5s3.125 26.042 7.292 37.5c5.208 11.458 11.458 21.875 20.833 30.208S75 205.208 86.458 210.417c11.459 5.208 25 7.291 37.5 7.291s26.042-2.083 37.5-7.291c11.459-5.209 21.875-11.459 30.209-20.834s15.625-18.75 20.833-30.208c5.208-11.458 8.333-23.958 8.333-37.5z"/><glyph glyph-name="gitlab" unicode="" horiz-adv-x="250" d="m228.906 144.531-.312.781-29.531 77.032c-.625 1.484-1.641 2.812-3.047 3.672a8.018 8.018 0 0 1-9.063-.47 8.196 8.196 0 0 1-2.656-3.983l-19.922-61.016H83.672L63.75 221.563c-.469 1.562-1.328 2.968-2.656 3.984-2.578 2.031-6.25 2.266-9.063.469-1.406-.86-2.422-2.188-3.047-3.672l-29.609-77.031-.313-.782c-8.75-22.812-1.328-48.672 18.204-63.36h.078l.234-.234 45-33.671 22.266-16.875 13.515-10.235a9.027 9.027 0 0 1 11.016 0l13.516 10.235 22.265 16.875 45.235 33.906h.078c19.453 14.766 26.875 40.625 18.125 63.36z"/><glyph glyph-name="globe" unicode="" horiz-adv-x="250" d="M239.583 125c0 60.417-46.875 110.417-107.291 114.583h-16.667C57.292 234.375 10.417 185.417 10.417 125S57.292 15.625 115.625 10.417h16.667C192.708 14.583 239.583 64.583 239.583 125zM132.292 87.5v29.167h44.791c0-7.292-2.083-17.709-4.166-29.167h-40.625zm-16.667 75v-29.167h-43.75c0 7.292 2.083 17.709 4.167 29.167h39.583zm94.792-29.167H193.75c0 7.292-1.042 17.709-4.167 29.167h12.5c4.167-9.375 7.292-18.75 8.334-29.167zm-33.334 0h-43.75V162.5h39.584c2.083-11.458 3.125-21.875 4.166-29.167zm-121.875 0H39.583c1.042 10.417 4.167 19.792 8.334 29.167h11.458c-3.125-11.458-4.167-21.875-4.167-29.167zm-15.625-16.666h15.625c0-7.292 1.042-17.709 4.167-29.167H47.917c-4.167 9.375-7.292 18.75-8.334 29.167zm32.292 0h43.75V87.5H76.042c-2.084 11.458-3.125 21.875-4.167 29.167zm121.875 0h16.667c-1.042-10.417-4.167-19.792-8.334-29.167h-12.5c2.084 11.458 3.125 21.875 4.167 29.167zm-2.083 62.5h-6.25c-1.042 4.166-3.125 7.291-4.167 11.458 3.125-3.125 7.292-7.292 10.417-11.458zM150 207.292c7.292-8.334 13.542-17.709 17.708-28.125h-34.375v31.25c5.209 0 11.459-1.042 16.667-3.125zm-34.375-28.125H81.25c4.167 11.458 9.375 19.791 16.667 27.083 6.25 2.083 11.458 3.125 17.708 4.167v-31.25zm-47.917 9.375c-2.083-3.125-3.125-6.25-4.166-9.375h-5.209l9.375 9.375zM58.333 70.833h5.209l3.125-9.375c-2.084 3.125-5.209 6.25-8.334 9.375zM97.917 43.75c-7.292 8.333-12.5 17.708-16.667 27.083h34.375v-31.25c-6.25 1.042-11.458 2.084-17.708 4.167zm34.375 27.083h34.375C162.5 59.375 156.25 50 150 42.708c-5.208-2.083-11.458-3.125-17.708-3.125v31.25zm47.916-11.458c2.084 3.125 3.125 7.292 4.167 11.458h6.25c-2.083-4.166-6.25-8.333-10.417-11.458z"/><glyph glyph-name="groups" unicode="" horiz-adv-x="250" d="M166.667 135.417c17.291 0 31.145 13.958 31.145 31.25s-13.854 31.25-31.145 31.25c-17.292 0-31.25-13.959-31.25-31.25s13.958-31.25 31.25-31.25zm-83.334 0c17.292 0 31.146 13.958 31.146 31.25s-13.854 31.25-31.146 31.25c-17.291 0-31.25-13.959-31.25-31.25s13.959-31.25 31.25-31.25zm0-20.834c-24.27 0-72.916-12.187-72.916-36.458V52.083H156.25v26.042c0 24.27-48.646 36.458-72.917 36.458zm83.334 0c-3.021 0-6.459-.208-10.105-.52 12.084-8.75 20.521-20.521 20.521-35.938V52.083h62.5v26.042c0 24.27-48.645 36.458-72.916 36.458z"/><glyph glyph-name="harvester" unicode="" horiz-adv-x="250" d="M239.583 119.792V125L212.5 171.875v1.042s0 1.041-1.042 1.041c0 0-1.041 0-1.041 1.042H150s-1.042 0-1.042-1.042l-1.041-1.041v-1.042l-25-43.75h-21.875l18.75 33.333h9.375c4.166 0 7.291 3.125 7.291 7.292s-3.125 7.292-7.291 7.292h-12.5c-2.084 0-5.209-1.042-6.25-3.125l-25-43.75H64.583l18.75 33.333h9.375c4.167 0 7.292 3.125 7.292 7.292 0 4.166-3.125 7.291-7.292 7.291h-12.5c-2.083 0-5.208-1.041-6.25-3.125l-25-43.75H29.167l18.75 33.334h9.375c4.166 0 7.291 3.125 7.291 7.291s-4.166 5.209-7.291 5.209h-12.5c-3.125 0-5.209-1.042-6.25-3.125l-27.084-46.875v-6.25l27.084-46.875c1.041-2.084 3.125-3.125 6.25-3.125h12.5c4.166 0 7.291 3.125 7.291 7.291s-3.125 7.292-7.291 7.292h-9.375l-18.75 33.333h19.791l25-43.75c1.042-2.083 3.125-3.125 6.25-3.125h12.5c4.167 0 7.292 3.125 7.292 7.292s-3.125 7.292-7.292 7.292h-8.333l-18.75 33.333h19.792l25-43.75c1.041-2.083 3.125-3.125 6.25-3.125h12.5c4.166 0 7.291 3.125 7.291 7.292 0 4.166-3.125 7.291-7.291 7.291h-9.375l-18.75 33.334h19.791l25-43.75V75s0-1.042 1.042-1.042c0 0 1.042 0 1.042-1.041h62.5s1.041 0 1.041 1.041L212.5 75v1.042l27.083 43.75c-1.041 0-1.041 0 0 0-1.041 0-1.041 0 0 0zm-34.375-30.209-7.291 13.542 7.291 12.5h15.625l-15.625-26.042zm-68.75 26.042h15.625l7.292-12.5-8.333-13.542-14.584 26.042zm15.625 40.625 8.334-13.542-7.292-12.5H137.5l14.583 26.042zm19.792-45.833-7.292 12.5 7.292 12.5h14.583l7.292-12.5-7.292-12.5h-14.583zm14.583 38.541h-14.583l-8.333 13.542h30.208l-7.292-13.542zm-14.583-53.125h14.583l8.334-13.541h-30.209l7.292 13.541zm33.333 33.334-7.291 12.5 7.291 14.583 15.625-26.042-15.625-1.041z"/><glyph glyph-name="hide" unicode="" horiz-adv-x="250" d="M239.583 129.167S188.542 194.792 125 194.792c-14.583 0-29.167-4.167-41.667-9.375L50 218.75l-14.583-14.583L64.583 175c-32.291-18.75-54.166-45.833-54.166-45.833S61.458 63.542 125 63.542c14.583 0 29.167 4.166 41.667 9.375l32.291-32.292 14.584 14.583-28.125 28.125c32.291 18.75 54.166 45.834 54.166 45.834zM125 84.375c-11.458 0-23.958 3.125-35.417 8.333-10.416 4.167-20.833 11.459-32.291 19.792C50 118.75 42.708 125 37.5 130.208c5.208 5.209 11.458 11.459 19.792 17.709 7.291 5.208 14.583 10.416 21.875 14.583l16.666-16.667c-2.083-4.166-3.125-9.375-3.125-14.583 0-17.708 14.584-32.292 32.292-32.292 5.208 0 10.417 1.042 14.583 3.125l11.459-11.458c-9.375-5.208-17.709-6.25-26.042-6.25zm67.708 27.083c-7.291-5.208-14.583-10.416-21.875-14.583l-16.666 17.708c2.083 4.167 3.125 9.375 3.125 14.584 0 17.708-14.584 32.291-32.292 32.291-5.208 0-10.417-1.041-14.583-3.125l-11.459 11.459c9.375 3.125 17.709 4.166 26.042 4.166 11.458 0 23.958-3.125 35.417-8.333 10.416-4.167 20.833-11.458 32.291-19.792 7.292-6.25 14.584-12.5 19.792-17.708-5.208-4.167-12.5-10.417-19.792-16.667z"/><glyph glyph-name="history" unicode="" horiz-adv-x="250" d="M146.875 128.125v45.833h-16.667v-54.166l46.875-28.125 8.334 13.541-38.542 22.917zm92.708 3.125c0-27.083-9.375-50-29.166-69.792-18.75-18.75-42.709-29.166-69.792-29.166-11.458 0-23.958 3.125-37.5 8.333s-23.958 12.5-32.292 19.792l15.625 15.625c14.584-14.584 33.334-22.917 54.167-22.917S180.208 60.417 194.792 75c14.583 14.583 22.916 33.333 22.916 54.167s-7.291 39.583-22.916 54.166c-14.584 14.584-33.334 21.875-54.167 21.875S102.083 200 87.5 185.417s-21.875-33.334-21.875-54.167h32.292L54.167 87.5l-1.042 1.042-42.708 42.708h32.291c0 27.083 9.375 50 29.167 69.792s42.708 28.125 69.792 28.125 50-9.375 69.791-29.167 28.125-41.667 28.125-68.75z"/><glyph glyph-name="home" unicode="" horiz-adv-x="250" d="M102.083 23.958v68.75h45.834v-68.75h57.291v91.667h34.375L125 218.75 10.417 115.625h34.375V23.958h57.291z"/><glyph glyph-name="info-circle" unicode="" horiz-adv-x="250" d="M125 228.125c-56.25 0-103.125-45.833-103.125-103.125S67.708 21.875 125 21.875 228.125 67.708 228.125 125C227.083 182.292 181.25 228.125 125 228.125zm-6.25-50c7.292 0 12.5-6.25 12.5-12.5 0-7.292-6.25-12.5-12.5-12.5-7.292 0-12.5 6.25-12.5 12.5 0 7.292 6.25 12.5 12.5 12.5zm21.875-104.167h-32.292c-5.208 0-9.375 4.167-10.416 9.375s4.166 9.375 9.375 10.417h7.291v26.042h-3.125c-5.208 0-9.375 4.166-9.375 10.416a9.336 9.336 0 0 0 9.375 9.375h12.5a9.336 9.336 0 0 0 9.375-9.375V94.792h6.25c5.209 0 9.375-4.167 10.417-9.375 1.042-7.292-3.125-11.459-9.375-11.459z"/><glyph glyph-name="info" unicode="" horiz-adv-x="250" d="M218.646 249.584c-2.084.312-4.27.416-6.354.416H38.333c-19.687-.104-34.166-12.396-37.395-31.458-.417-2.604-.313-5.208-.417-7.917v-96.458c0-33.23.104-66.458 0-99.688 0-5.312 1.667-9.27 6.25-11.98C11.667-.52 16.98-.103 21.25 3.855c3.125 2.917 6.042 6.042 9.062 9.063 11.771 11.77 23.646 23.541 35.313 35.416 1.667 1.563 3.23 2.084 5.417 2.084h141.25c18.02 0 32.5 11.042 36.562 28.125.73 3.02 1.042 6.145 1.042 9.27.104 41.563.104 83.23 0 124.792 0 19.271-12.292 33.646-31.25 36.98zm-90.905-20.42c11.016-.177 19.815-9.01 19.854-19.93.04-11.2-9.082-20.187-20.39-20.089-10.95.096-19.788 8.977-19.834 19.93-.047 11.232 9.119 20.27 20.37 20.09zm28.422-141.437c-2.439-4.409-6.226-7.448-10.603-9.73-11.277-5.877-23.105-6.384-35.109-2.912-12.195 3.528-17.369 10.771-15.486 23.346 2.88 19.232 6.564 38.345 10.022 57.488 1.577 8.73.229 10.776-8.482 11.896-1.149.147-2.301.285-3.44.49-3.181.569-5.066 2.536-4.947 5.713.125 3.325 2.386 4.865 5.604 4.884 6.954.042 13.908.014 20.861.014v.035c5.796 0 11.591.048 17.386-.01 10.936-.109 14.742-4.682 12.66-15.387-3.804-19.548-7.71-39.075-11.558-58.614-.447-2.272-.994-4.551-1.152-6.85-.45-6.546 4.287-10.596 10.612-8.86 3.086.848 5.96 2.482 8.913 3.795 1.758.782 3.603 1.494 5.124-.172 1.554-1.704.477-3.53-.405-5.126z"/><glyph glyph-name="init_container" unicode="" horiz-adv-x="250" d="m249.11 38.354-11.14 8.644a40.443 40.443 0 0 1 .417 5.102 27.358 27.358 0 0 1-.417 5.103l11.036 8.644a2.705 2.705 0 0 1 .625 3.333L239.22 87.196a2.64 2.64 0 0 1-3.228 1.146l-12.91-5.207a35.602 35.602 0 0 1-8.85 5.104l-1.977 13.746a2.487 2.487 0 0 1-2.5 2.187h-20.822a2.673 2.673 0 0 1-2.603-2.187l-1.978-13.746a41.589 41.589 0 0 1-8.85-5.104l-12.91 5.207a2.727 2.727 0 0 1-3.227-1.146l-10.41-18.016a2.578 2.578 0 0 1 .624-3.333l11.036-8.644a41.792 41.792 0 0 1 0-10.205l-11.036-8.644a2.704 2.704 0 0 1-.625-3.333l10.411-18.017a2.64 2.64 0 0 1 3.228-1.145l12.91 5.207a35.61 35.61 0 0 1 8.849-5.103l1.978-13.747a2.592 2.592 0 0 1 2.603-2.188h20.823a2.673 2.673 0 0 1 2.603 2.188l1.978 13.747a38.464 38.464 0 0 1 8.746 5.103l13.014-5.207a2.726 2.726 0 0 1 3.227 1.145l10.411 18.017a2.705 2.705 0 0 1-.625 3.333zm-49.766-1.875a15.621 15.621 0 1 0 15.617 15.62 15.598 15.598 0 0 0-15.617-15.62zM104.167 218.75a20.424 20.424 0 0 1 8.288-16.264l-55.15-35.68h-15.67a20.798 20.798 0 0 1-20.802-20.795v-83.55a20.798 20.798 0 0 1 20.801-20.794h84.194A73.064 73.064 0 0 0 125 52.083a87.468 87.468 0 0 0 10.417 41.667V125a10.417 10.417 0 0 0 20.833 0v-13.038a71.234 71.234 0 0 0 20.833 10.052v2.963a10.437 10.437 0 0 0 10.417 10.44A10.202 10.202 0 0 0 197.917 125a75.646 75.646 0 0 0 31.25-7.133v28.144a20.798 20.798 0 0 1-20.801 20.795h-15.534l-55.227 35.73a20.422 20.422 0 0 1 8.228 16.214 20.98 20.98 0 0 1-10.274 17.904V250H125v-20.899a10.338 10.338 0 1 0-10.417-10.351M72.917 83.333a10.417 10.417 0 0 0-20.834 0v41.644a10.417 10.417 0 0 0 20.834 0zm41.666 0a10.417 10.417 0 0 0-20.833 0V125a10.417 10.417 0 0 0 20.833 0zm10.59 114.846 48.494-31.373H76.47l48.476 31.362"/><glyph glyph-name="istio" unicode="" horiz-adv-x="250" d="M98.958 163.542V60.417l-58.333-8.334 58.333 111.459zm10.417 76.041V59.375l85.417-8.333-85.417 188.541zm-68.75-200h154.167L98.958 10.417 40.625 39.583z"/><glyph glyph-name="keyboard" unicode="" horiz-adv-x="250" d="M42.659 48.363q-8.594 0-14.714 6.12-6.12 6.12-6.12 14.713v104.167q0 8.594 6.12 14.714 6.12 6.12 14.714 6.12h166.666q8.594 0 14.714-6.12 6.12-6.12 6.12-14.714V69.196q0-8.593-6.12-14.713-6.12-6.12-14.714-6.12zm0 20.833h166.666v104.167H42.66zm41.666 10.417h83.334v20.833H84.325zm-31.25 31.25H73.91v20.833H53.075zm31.25 0h20.834v20.833H84.325zm31.25 0h20.834v20.833h-20.834zm31.25 0h20.834v20.833h-20.834zm31.25 0h20.834v20.833h-20.834zm-125 31.25H73.91v20.833H53.075zm31.25 0h20.834v20.833H84.325zm31.25 0h20.834v20.833h-20.834zm31.25 0h20.834v20.833h-20.834zm31.25 0h20.834v20.833h-20.834zM42.66 69.196v104.167z"/><glyph glyph-name="keyboard_tab" unicode="" horiz-adv-x="250" d="M208.333 62.5v125h20.834v-125h-20.834zM125 62.5l-14.896 14.583 37.5 37.5H20.834v20.834h126.874l-37.291 37.5L125 187.5l62.5-62.5L125 62.5z"/><glyph glyph-name="linux" unicode="" horiz-adv-x="250" d="m102.083 173.958 1.042-1.041 3.125-3.125c3.125-2.084 7.292-5.209 12.5-5.209s10.417 2.084 14.583 5.209c2.084 1.041 4.167 2.083 5.209 3.125 2.083 1.041 3.125 1.041 4.166 1.041v2.084c-1.041 0-3.125-1.042-4.166-2.084-2.084-1.041-3.125-2.083-5.209-3.125-5.208-2.083-9.375-4.166-14.583-4.166-4.167 0-8.333 2.083-11.458 4.166l-3.125 3.125-1.042 1.042-1.042 1.042v-2.084zM213.542 58.333c-2.084 2.084-2.084 5.209-3.125 8.334-1.042 3.125-2.084 7.291-5.209 10.416-1.041 1.042-2.083 2.084-3.125 2.084 4.167 12.5 2.084 23.958-2.083 35.416-5.208 13.542-13.542 25-20.833 33.334-7.292 9.375-14.584 18.75-14.584 32.291 0 20.834 2.084 58.334-34.375 58.334h-4.166c-40.625-2.084-29.167-44.792-30.209-59.375-1.041-10.417-3.125-18.75-10.416-29.167-8.334-10.417-20.834-26.042-26.042-43.75-3.125-8.333-4.167-16.667-3.125-23.958l-1.042-1.042c-2.083-3.125-4.166-6.25-6.25-8.333-2.083-2.084-4.166-3.125-7.291-4.167-3.125-1.042-6.25-3.125-8.334-6.25-2.083-3.125-1.041-7.292-1.041-10.417s1.041-7.291 0-9.375c-2.084-6.25-3.125-11.458-1.042-14.583s5.208-5.208 9.375-5.208c7.292-2.084 18.75-1.042 27.083-5.209 9.375-4.166 17.709-6.25 25-4.166 5.209 1.041 9.375 4.166 11.459 9.375 5.208 0 11.458 2.083 21.875 3.125 6.25 1.041 14.583-2.084 25-2.084 0-1.041 1.041-2.083 1.041-3.125 4.167-7.291 10.417-10.416 17.709-10.416 7.291 1.041 15.625 5.208 21.875 12.5l-1.042 1.041 1.042-1.041c6.25 7.291 15.625 10.416 22.916 14.583 3.125 2.083 6.25 4.167 6.25 8.333 0 3.125-2.083 7.292-7.291 12.5zm-89.584 134.375c0 3.125 0 5.209 1.042 7.292s2.083 4.167 4.167 5.208c2.083 2.084 4.166 3.125 6.25 3.125 2.083 0 4.166-1.041 5.208-2.083 2.083-1.042 3.125-3.125 4.167-5.208 1.041-2.084 1.041-4.167 2.083-7.292 0-3.125 0-5.208-1.042-7.292-1.041-1.041-1.041-2.083-2.083-3.125h-1.042c-2.083 1.042-3.125 1.042-5.208 2.084 0 1.041 1.042 1.041 1.042 2.083 1.041 1.042 1.041 2.083 1.041 4.167 0 1.041 0 3.125-1.041 4.166 0 1.042-1.042 2.084-2.084 3.125s-1.041 0-1.041 0c-1.042 0-2.084 0-2.084-1.041-1.041-1.042-1.041-2.084-2.083-3.125-1.042-1.042-1.042-2.084-1.042-4.167v-2.083c-2.083 1.041-3.125 1.041-5.208 2.083-1.042 1.042-1.042 1.042-1.042 2.083zM100 198.958c1.042 2.084 1.042 3.125 3.125 5.209 1.042 1.041 2.083 2.083 4.167 2.083 1.041 0 2.083 0 4.166-1.042 1.042-1.041 2.084-2.083 3.125-4.166 1.042-2.084 1.042-4.167 1.042-6.25v-3.125h-1.042c-1.041 0-3.125-1.042-4.166-2.084v2.084c0 1.041 0 2.083-1.042 3.125 0 1.041-1.042 2.083-2.083 2.083-1.042 0-1.042 1.042-2.084 1.042-1.041 0-1.041 0-2.083-1.042 2.083-1.042 1.042-2.083 1.042-3.125v-3.125c0-2.083 0-3.125 1.041-3.125 0-1.042 1.042-2.083 2.084-2.083-1.042 0-1.042-1.042-1.042-1.042l-1.042-1.042c-2.083 0-3.125 1.042-4.166 3.125-1.042 2.084-1.042 4.167-1.042 6.25v6.25zm1.042-20.833c2.083 2.083 3.125 3.125 4.166 3.125 1.042 1.042 1.042 1.042 2.084 1.042 2.083 1.041 4.166 4.166 8.333 5.208 1.042 0 3.125 1.042 4.167 1.042 3.125 0 7.291-1.042 11.458-4.167 3.125-2.083 5.208-2.083 10.417-4.167 2.083-1.041 4.166-2.083 4.166-4.166s1.042-3.125 0-4.167c-1.041-3.125-5.208-6.25-10.416-8.333-2.084-1.042-5.209-3.125-7.292-4.167-3.125-1.042-5.208-3.125-9.375-2.083-3.125 0-5.208 1.041-7.292 3.125-2.083 1.041-3.125 3.125-6.25 5.208-3.125 3.125-5.208 5.208-5.208 7.292-1.042 2.083 0 4.166 1.042 5.208zm2.083-148.958c-1.042-7.292-4.167-11.459-10.417-12.5-6.25-1.042-14.583 0-22.916 4.166C60.417 26.042 50 25 42.708 27.083c-3.125 1.042-6.25 2.084-7.291 4.167-1.042 2.083-1.042 5.208 1.041 11.458 1.042 3.125 0 7.292 0 10.417s-1.041 6.25 0 9.375c1.042 3.125 4.167 4.167 6.25 5.208 3.125 1.042 6.25 2.084 8.334 4.167 2.083 2.083 4.166 6.25 6.25 8.333 3.125 2.084 4.166 3.125 7.291 3.125h1.042c3.125-1.041 6.25-3.125 9.375-7.291s6.25-9.375 8.333-15.625C85.417 55.208 90.625 50 94.792 44.792s8.333-11.459 8.333-15.625zm-1.042 11.458c-1.041 2.083-2.083 3.125-4.166 5.208l-3.125 3.125c2.083 0 3.125 0 4.166 1.042l3.125 3.125c1.042 3.125 0 6.25-3.125 11.458-3.125 4.167-9.375 9.375-16.666 14.584-5.209 4.166-9.375 8.333-10.417 13.541-2.083 5.209-1.042 10.417 0 15.625 2.083 10.417 8.333 19.792 12.5 26.042 1.042 1.042 0-1.042-4.167-9.375-4.166-7.292-11.458-23.958-1.041-36.458 0 9.375 2.083 18.75 6.25 27.083 5.208 12.5 16.666 34.375 16.666 51.042 0 0 2.084-1.042 3.125-2.084 2.084-1.041 3.125-3.125 5.209-4.166 2.083-2.084 4.166-3.125 8.333-3.125s8.333 1.041 10.417 3.125c3.125 2.083 5.208 3.125 7.291 4.166 4.167 1.042 8.334 4.167 10.417 6.25 3.125-13.541 11.458-33.333 16.667-42.708 3.125-5.208 8.333-15.625 10.416-29.167 1.042 0 3.125 0 5.209-1.041 6.25 15.625-5.209 33.333-10.417 37.5-2.083 2.083-2.083 3.125-1.042 3.125 5.209-5.209 13.542-14.584 15.625-26.042a39.453 39.453 0 0 0 0-15.625c1.042 0 1.042-1.042 2.084-1.042 9.375-5.208 13.541-9.375 11.458-14.583h-2.083c1.041 4.167-2.084 8.333-10.417 11.458-8.333 4.167-15.625 3.125-16.667-4.166V87.5c-1.041 0-1.041-1.042-2.083-1.042-4.167-2.083-6.25-6.25-7.292-11.458-1.041-5.208-2.083-11.458-2.083-17.708 0-3.125-2.083-8.334-3.125-12.5-13.542-11.459-34.375-15.625-51.042-4.167zm86.459 40.625c-1.042-3.125-7.292-7.292-12.5-6.25-4.167 1.042-6.25 7.292-6.25 12.5 0 3.125 2.083 4.167 5.208 5.208 2.083 0 4.167-1.041 6.25-2.083 7.292-3.125 8.333-5.208 7.292-9.375zm29.166-35.417c0-2.083-2.083-4.166-5.208-6.25-6.25-3.125-16.667-7.291-23.958-14.583-6.25-7.292-13.542-10.417-19.792-11.458-6.25 0-11.458 2.083-14.583 8.333-2.084 4.167-1.042 9.375 1.041 16.667 2.084 6.25 4.167 12.5 4.167 17.708 0 7.292 1.042 12.5 2.083 17.708 1.042 4.167 3.125 7.292 6.25 9.375 0-6.25 3.125-11.458 8.334-13.541 5.208-1.042 13.541 3.125 16.666 7.291h2.084c3.125 0 5.208 0 8.333-2.083 2.083-2.083 3.125-5.208 4.167-8.333 1.041-3.125 1.041-7.292 4.166-10.417 4.167-5.208 6.25-8.333 6.25-10.417z"/><glyph glyph-name="list-flat" unicode="" horiz-adv-x="250" d="M81.25 142.708h153.125c3.125 0 5.208-2.083 5.208-5.208v-21.875c0-3.125-2.083-5.208-5.208-5.208H81.25c-3.125 0-5.208 2.083-5.208 5.208V137.5c0 3.125 2.083 5.208 5.208 5.208zm-22.917-16.666c0-13.542-10.416-23.959-23.958-23.959s-23.958 11.459-23.958 23.959c0 13.541 10.416 23.958 23.958 23.958s23.958-10.417 23.958-23.958zm22.917 82.291h153.125c3.125 0 5.208-2.083 5.208-5.208V181.25c0-3.125-2.083-5.208-5.208-5.208H81.25c-3.125 0-5.208 2.083-5.208 5.208v21.875c0 3.125 2.083 5.208 5.208 5.208zm-22.917-16.666c0-13.542-10.416-23.959-23.958-23.959s-23.958 11.459-23.958 23.959c0 13.541 10.416 23.958 23.958 23.958s23.958-10.417 23.958-23.958zM81.25 77.083h153.125c3.125 0 5.208-2.083 5.208-5.208V50c0-3.125-2.083-5.208-5.208-5.208H81.25c-3.125 0-5.208 2.083-5.208 5.208v21.875c0 3.125 2.083 5.208 5.208 5.208zM58.333 61.458c0-13.541-10.416-23.958-23.958-23.958S10.417 47.917 10.417 61.458c0 13.542 10.416 23.959 23.958 23.959s23.958-11.459 23.958-23.959z"/><glyph glyph-name="list-grouped" unicode="" horiz-adv-x="250" d="M81.25 208.333h153.125c3.125 0 5.208-2.083 5.208-5.208V181.25c0-3.125-2.083-5.208-5.208-5.208H81.25c-3.125 0-5.208 2.083-5.208 5.208v21.875c0 3.125 2.083 5.208 5.208 5.208zm-22.917-16.666c0-13.542-10.416-23.959-23.958-23.959s-23.958 11.459-23.958 23.959c0 13.541 10.416 23.958 23.958 23.958s23.958-10.417 23.958-23.958zm71.875-48.959h104.167c3.125 0 5.208-2.083 5.208-5.208v-21.875c0-3.125-2.083-5.208-5.208-5.208H130.208c-3.125 0-5.208 2.083-5.208 5.208V137.5c0 3.125 2.083 5.208 5.208 5.208zm-21.875-16.666c0-13.542-10.416-23.959-23.958-23.959S60.417 112.5 60.417 126.042c0 13.541 10.416 23.958 23.958 23.958s23.958-10.417 23.958-23.958zm21.875-48.959h104.167c3.125 0 5.208-2.083 5.208-5.208V50c0-3.125-2.083-5.208-5.208-5.208H130.208c-3.125 0-5.208 2.083-5.208 5.208v21.875c0 3.125 2.083 5.208 5.208 5.208zm-21.875-15.625c0-13.541-10.416-23.958-23.958-23.958S60.417 47.917 60.417 61.458c0 13.542 10.416 23.959 23.958 23.959s23.958-11.459 23.958-23.959z"/><glyph glyph-name="lock" unicode="" horiz-adv-x="250" d="M195.833 147.917h-11.458v37.5c0 30.208-25 55.208-55.208 55.208s-56.25-25-56.25-55.208v-37.5H61.458c-6.25 0-11.458-5.209-11.458-11.459v-112.5c0-6.25 5.208-11.458 11.458-11.458h133.334c6.25 0 11.458 5.208 11.458 11.458v112.5c1.042 6.25-4.167 11.459-10.417 11.459zm-100 37.5c0 18.75 14.584 33.333 33.334 33.333s33.333-14.583 33.333-33.333v-37.5H95.833v37.5zm40.625-108.334V54.167c0-4.167-3.125-7.292-7.291-7.292-4.167 0-7.292 3.125-7.292 7.292v22.916c-6.25 3.125-11.458 9.375-11.458 16.667 0 10.417 8.333 18.75 18.75 18.75s18.75-8.333 18.75-18.75c-1.042-7.292-5.209-13.542-11.459-16.667z"/><glyph glyph-name="logging" unicode="" horiz-adv-x="250" d="M104.167 83.333 103.125 75H79.167v36.458h10.416V83.333h14.584zm36.458 10.417c0-11.458-6.25-19.792-17.708-19.792s-17.709 7.292-17.709 19.792c0 11.458 6.25 19.792 17.709 19.792 11.458 0 17.708-7.292 17.708-19.792zm-22.917 0c0-8.333 2.084-11.458 6.25-11.458 4.167 0 6.25 3.125 6.25 11.458s-2.083 11.458-6.25 11.458-6.25-3.125-6.25-11.458zm58.334 14.583-5.209-5.208c-2.083 2.083-4.166 3.125-7.291 3.125-5.209 0-8.334-4.167-8.334-11.458 0-9.375 2.084-11.459 6.25-11.459 1.042 0 2.084 0 4.167 1.042v6.25h-4.167l-1.041 7.292h15.625v-18.75C171.875 76.042 166.667 75 162.5 75c-12.5 0-17.708 7.292-17.708 19.792 0 12.5 8.333 19.791 18.75 19.791 4.166-1.041 9.375-3.125 12.5-6.25zm37.5 57.292v1.042c0 6.25-4.167 13.541-8.334 17.708l-46.875 46.875c-4.166 4.167-12.5 8.333-18.75 8.333H53.125c-6.25 0-11.458-5.208-11.458-11.458V21.875c0-6.25 5.208-11.458 11.458-11.458h148.958c6.25 0 11.459 5.208 11.459 11.458v143.75zm-31.25 11.458h-31.25v31.25l31.25-31.25zM63.542 32.292v185.416h63.541v-52.083c0-6.25 5.209-11.458 11.459-11.458h52.083V32.292H63.542z"/><glyph glyph-name="longhorn" unicode="" horiz-adv-x="250" d="M227.083 183.333c-8.333 1.042-14.583-4.166-16.666-12.5l-2.084-14.583L125 140.625l-84.375 16.667-2.083 14.583c-1.042 7.292-8.334 12.5-15.625 11.458S9.375 175 10.417 167.708l3.125-23.958c1.041-6.25 5.208-10.417 11.458-11.458l59.375-11.459 8.333-50C93.75 55.208 106.25 43.75 120.833 43.75h7.292c15.625 0 28.125 11.458 28.125 27.083l9.375 50 58.333 11.459c6.25 1.041 10.417 6.25 11.459 11.458l4.166 23.958c1.042 7.292-4.166 14.584-12.5 15.625zM129.167 73.958v-2.083h-7.292v2.083l-7.292 39.584 7.292-1.042h6.25l8.333 2.083-7.291-40.625z"/><glyph glyph-name="marketplace" unicode="" horiz-adv-x="250" d="m239.583 162.5-22.916 67.708c-1.042 5.209-5.209 9.375-10.417 9.375H44.792c-5.209 0-10.417-4.166-11.459-9.375L10.417 162.5v-29.167c1.041-19.791 16.666-36.458 37.5-36.458 10.416 0 18.75 4.167 26.041 10.417 6.25-6.25 15.625-10.417 26.042-10.417s18.75 4.167 26.042 10.417c6.25-6.25 15.625-10.417 26.041-10.417s18.75 4.167 26.042 10.417c6.25-6.25 15.625-10.417 26.042-10.417 9.375 0 18.75 4.167 26.041 10.417 7.292 6.25 10.417 15.625 11.459 25v28.125c-2.084 1.041-2.084 1.041-2.084 2.083zm-22.916-28.125c0-4.167-2.084-7.292-4.167-10.417-3.125-3.125-6.25-4.166-10.417-4.166-4.166 0-7.291 1.041-10.416 4.166-4.167 4.167-10.417 6.25-15.625 6.25s-11.459-2.083-15.625-6.25c-3.125-3.125-6.25-4.166-10.417-4.166s-7.292 1.041-10.417 4.166c-4.166 4.167-10.416 6.25-15.625 6.25-6.25 0-11.458-2.083-15.625-6.25-3.125-3.125-6.25-4.166-10.416-4.166s-7.292 1.041-10.417 4.166c-4.167 4.167-10.417 6.25-15.625 6.25s-11.458-2.083-15.625-6.25c-3.125-3.125-6.25-4.166-10.417-4.166-7.291 0-14.583 6.25-14.583 14.583v26.042l20.833 57.291h142.709l20.833-57.291 1.042-26.042zm-17.709 9.375H51.042c-3.125 0-5.209 2.083-5.209 5.208s2.084 5.209 5.209 5.209h147.916c3.125 0 5.209-2.084 5.209-5.209s-2.084-5.208-5.209-5.208zm3.125-52.083h-4.166v-43.75c0-1.042-1.042-2.084-2.084-2.084H54.167c-1.042 0-2.084 1.042-2.084 2.084v43.75h-4.166c-6.25 0-12.5 1.041-17.709 4.166V47.917c0-13.542 11.459-25 25-25h140.625c13.542 0 25 11.458 25 25v47.916c-6.25-3.125-12.5-4.166-18.75-4.166z"/><glyph glyph-name="menu" unicode="" horiz-adv-x="250" d="M10.417 44.792h229.166v25H10.417v-25zm0 63.541h229.166v25H10.417v-25zm0 89.584v-25h229.166v25H10.417z"/><glyph glyph-name="minus" unicode="" horiz-adv-x="250" d="M223.958 107.292H26.042c-8.334 0-15.625 7.291-15.625 15.625s7.291 15.625 15.625 15.625H225c8.333 0 15.625-7.292 15.625-15.625-1.042-8.334-8.333-15.625-16.667-15.625z"/><glyph glyph-name="monitoring" unicode="" horiz-adv-x="250" d="M108.333 61.458c-5.208 0-8.333 3.125-9.375 7.292l-18.75 66.667-15.625-23.959c-2.083-3.125-5.208-4.166-8.333-4.166H20.833c-5.208 0-10.416 4.166-10.416 10.416 0 5.209 4.166 10.417 10.416 10.417h30.209l25 38.542c2.083 3.125 6.25 5.208 10.416 4.166 3.125-1.041 6.25-4.166 7.292-8.333l15.625-55.208 23.958 72.916c1.042 4.167 5.209 7.292 10.417 7.292 4.167 0 8.333-3.125 9.375-7.292l16.667-68.75 4.166 10.417c2.084 4.167 5.209 6.25 9.375 6.25h45.834c5.208 0 10.416-4.167 10.416-10.417s-4.166-10.416-10.416-10.416h-39.584L176.042 75c-2.084-4.167-6.25-6.25-10.417-6.25s-8.333 3.125-9.375 7.292l-15.625 63.541-22.917-70.833c-1.041-4.167-5.208-7.292-9.375-7.292z"/><glyph glyph-name="more" unicode="" horiz-adv-x="250" d="M229.167 218.75H72.917c-7.188 0-12.813-3.646-16.563-9.167L0 125l56.354-84.48c3.75-5.52 10.104-9.27 17.292-9.27h155.52c11.459 0 20.834 9.375 20.834 20.833v145.834c0 11.458-9.375 20.833-20.833 20.833zM93.75 109.375c-8.646 0-15.625 6.98-15.625 15.625s6.98 15.625 15.625 15.625 15.625-6.98 15.625-15.625-6.98-15.625-15.625-15.625zm52.083 0c-8.645 0-15.625 6.98-15.625 15.625s6.98 15.625 15.625 15.625 15.625-6.98 15.625-15.625-6.979-15.625-15.625-15.625zm52.084 0c-8.646 0-15.625 6.98-15.625 15.625s6.979 15.625 15.625 15.625 15.625-6.98 15.625-15.625-6.98-15.625-15.625-15.625z"/><glyph glyph-name="namespace" unicode="" horiz-adv-x="250" d="M239.583 135.417v-20.834c-8.876 0-10.416-3.652-10.416-13.69V54.046c0-26.196-15.207-32.88-41.667-33.214v20.834c14.621.332 20.833-1.602 20.833 14.16v44.765a32.17 32.17 0 0 0 3.066 16.253A17.847 17.847 0 0 0 221.786 125a17.846 17.846 0 0 0-10.387 8.155 32.168 32.168 0 0 0-3.066 16.254v44.765c0 15.76-6.212 13.827-20.833 14.16v20.833c26.46-.333 41.667-7.018 41.667-33.214v-46.845c0-10.039 1.54-13.691 10.416-13.691zm-229.166 0v-20.834c8.876 0 10.416-3.652 10.416-13.69V54.046c0-26.196 15.207-32.88 41.667-33.214v20.834c-14.621.332-20.833-1.602-20.833 14.16v44.765a32.17 32.17 0 0 1-3.066 16.253A17.847 17.847 0 0 1 28.214 125a17.846 17.846 0 0 1 10.387 8.155 32.168 32.168 0 0 1 3.066 16.254v44.765c0 15.76 6.212 13.827 20.833 14.16v20.833c-26.46-.333-41.667-7.018-41.667-33.214v-46.845c0-10.039-1.54-13.691-10.416-13.691zM187.5 156.25h-125v-62.5h125zM83.333 135.417h83.334v-20.834H83.333z"/><glyph glyph-name="notifier" unicode="" horiz-adv-x="250" d="M239.583 137.5c0-20.833-9.375-40.625-26.041-54.167L200 101.042c11.458 8.333 17.708 21.875 17.708 36.458 0 14.583-6.25 27.083-17.708 36.458l13.542 17.709c16.666-13.542 26.041-33.334 26.041-54.167zm-50 32.292L178.125 150c4.167-2.083 7.292-7.292 7.292-12.5s-3.125-10.417-7.292-12.5l11.458-19.792c11.459 6.25 18.75 18.75 18.75 32.292 0 13.542-7.291 26.042-18.75 32.292zm-43.75 28.125h28.125V77.083h-28.125c0 9.375-8.333 17.709-17.708 17.709H97.917v-43.75H69.792v43.75H53.125c-23.958 0-42.708 18.75-42.708 42.708s18.75 42.708 42.708 42.708h75c9.375 0 17.708 8.334 17.708 17.709zm-76.041-45.834H53.125c-8.333 0-14.583-6.25-14.583-14.583s6.25-14.583 14.583-14.583h16.667v29.166zm76.041 3.125c-5.208-2.083-11.458-3.125-17.708-3.125H97.917v-28.125h29.166c6.25 0 12.5-1.041 17.709-3.125v34.375z"/><glyph glyph-name="os-management" unicode="" horiz-adv-x="250" d="M223.958 135.417a15.629 15.629 0 0 1-3.376-.388l-15.69 27.173a15.571 15.571 0 1 1-26.852 14.881h-22.746a15.447 15.447 0 0 1-18.042 10.03l-15.69 27.178a15.571 15.571 0 1 1-26.856 14.876H71.96a15.579 15.579 0 1 1-26.856-14.876l-15.689-27.178a15.63 15.63 0 1 1 .123-30.438l15.653-27.11a15.316 15.316 0 0 1-.088-19.441l-15.69-27.177a15.63 15.63 0 1 1 .127-30.438l15.651-27.11a15.57 15.57 0 1 1 26.77-14.982h22.745A15.579 15.579 0 1 1 121.475 25.4l15.649 27.11a15.397 15.397 0 0 1 18.17 9.99h22.746a15.579 15.579 0 1 1 26.769 14.983l15.65 27.11a15.612 15.612 0 1 1 3.5 30.824zm-31.25-52.084a15.58 15.58 0 0 1-14.668-10.416h-22.746a15.508 15.508 0 0 1-17.924 10.067l-15.724 27.241a15.318 15.318 0 0 1-.171 19.341l15.65 27.11a15.398 15.398 0 0 1 18.169 9.99h22.746a15.447 15.447 0 0 1 18.044-10.028l15.69-27.173a15.319 15.319 0 0 1-.085-19.243l-15.725-27.24a15.656 15.656 0 0 1-3.256.351zM109.375 31.25a15.58 15.58 0 0 1-14.669-10.417H71.96a15.51 15.51 0 0 1-17.916 10.07L38.316 58.144a15.32 15.32 0 0 1-.088 19.233l15.69 27.176a15.448 15.448 0 0 1 18.042 10.03h22.746a15.447 15.447 0 0 1 18.046-10.03l15.69-27.17a15.32 15.32 0 0 1-.091-19.24l-15.728-27.242a15.654 15.654 0 0 1-3.248.348zM38.229 181.543l15.69 27.178A15.447 15.447 0 0 1 71.96 218.75h22.746a15.447 15.447 0 0 1 18.045-10.029l15.69-27.173a15.32 15.32 0 0 1-.09-19.238l-15.728-27.241A15.511 15.511 0 0 1 94.706 125H71.96a15.511 15.511 0 0 1-17.916 10.069l-15.73 27.241a15.319 15.319 0 0 1-.085 19.233z"/><glyph glyph-name="pause" unicode="" horiz-adv-x="250" d="M52.083 26.042v197.916c0 8.334 7.292 15.625 15.625 15.625s15.625-7.291 15.625-15.625V25c0-8.333-7.291-15.625-15.625-15.625s-15.625 8.333-15.625 16.667zm126.042 0v197.916c0 8.334 7.292 15.625 15.625 15.625s14.583-7.291 14.583-15.625V25c0-8.333-7.291-15.625-15.625-15.625-7.291 1.042-14.583 8.333-14.583 16.667z"/><glyph glyph-name="pin-outlined" unicode="" horiz-adv-x="250" d="M105.625 230.938c2.266 2.265 5.156 3.437 8.516 3.437s6.25-1.172 8.515-3.438c2.266-2.265 3.438-5.156 3.438-8.515s-1.172-6.25-3.438-8.516l-8.515-9.14 42.734-42.735c7.188-7.187 15.86-10.781 25.938-10.781s18.671 3.594 25.937 10.781l17.11-17.11-51.876-51.796 60.391-60.39v-17.11h-17.11l-60.39 60.39-51.25-51.25-17.656 17.11c7.187 6.875 10.86 15.39 10.86 25.625s-3.595 18.828-10.86 25.625l-42.735 43.281-8.515-8.515c-2.657-2.657-5.625-3.985-8.828-3.985s-6.094 1.25-8.516 3.672c-2.5 2.5-3.672 5.39-3.672 8.828s1.172 6.25 3.438 8.516l86.484 86.016zm-9.14-43.282-34.22-34.219 43.282-43.28c9.453-9.532 15.156-20.86 17.11-34.22l51.874 51.797c-13.672 1.875-25.234 7.579-34.765 17.11l-43.282 42.734z"/><glyph glyph-name="pin" unicode="" horiz-adv-x="250" d="M234.375 32.656V15.625h-17.031L157.03 75.938l-51.25-51.25-17.734 17.265C95.313 48.75 98.75 57.266 98.75 67.5s-3.438 18.75-10.703 25.781l-42.813 43.281-8.515-8.515c-2.657-2.656-5.625-4.14-8.75-4.14-3.438 0-6.094 1.25-8.516 3.671-2.656 2.656-3.906 5.625-3.906 8.984s1.25 6.094 3.437 8.516l86.797 85.86c2.188 2.187 5.078 3.437 8.516 3.437s6.328-1.25 8.516-3.438c2.187-2.421 3.437-5.078 3.437-8.515s-1.25-6.328-3.438-8.75l-8.515-8.984 42.812-42.813c7.032-7.266 15.782-10.703 25.782-10.703s18.75 3.437 26.015 10.703l17.031-17.031-51.796-51.797L234.453 32.5z"/><glyph glyph-name="pipeline" unicode="" horiz-adv-x="250" d="M188.542 177.083c-25 0-48.959-19.791-63.542-34.375-14.583 14.584-38.542 34.375-63.542 34.375-28.125 0-51.041-22.916-51.041-51.041S33.333 75 61.458 75c25 0 48.959 19.792 63.542 34.375C139.583 94.792 163.542 75 188.542 75c28.125 0 51.041 22.917 51.041 51.042s-22.916 51.041-51.041 51.041zm-92.709-56.25c-13.541-11.458-25-17.708-34.375-17.708-12.5 0-23.958 10.417-23.958 22.917s10.417 22.916 23.958 22.916c9.375 0 20.834-6.25 34.375-17.708 2.084-2.083 4.167-4.167 6.25-5.208-2.083-2.084-4.166-4.167-6.25-5.209zm92.709-18.75c-9.375 0-20.834 6.25-34.375 17.709-2.084 2.083-4.167 4.166-6.25 5.208 2.083 2.083 4.166 3.125 6.25 5.208 13.541 11.459 25 17.709 34.375 17.709 12.5 0 23.958-10.417 23.958-22.917s-11.458-22.917-23.958-22.917z"/><glyph glyph-name="play" unicode="" horiz-adv-x="250" d="m203.125 145.833-156.25 90.625c-4.167 2.084-8.333 3.125-12.5 3.125s-8.333-1.041-11.458-3.125c-8.334-4.166-12.5-12.5-12.5-20.833V35.417c0-8.334 4.166-16.667 12.5-20.834 3.125-3.125 7.291-4.166 11.458-4.166s8.333 1.041 12.5 3.125l156.25 90.625c7.292 4.166 12.5 12.5 12.5 20.833s-5.208 16.667-12.5 20.833z"/><glyph glyph-name="plus" unicode="" horiz-adv-x="250" d="M223.958 140.625h-84.375v83.333c1.042 8.334-6.25 15.625-14.583 15.625s-15.625-7.291-15.625-15.625v-84.375H26.042c-8.334 1.042-15.625-6.25-15.625-14.583s7.291-15.625 15.625-15.625h84.375V25c0-8.333 7.291-15.625 15.625-15.625 8.333 0 15.625 7.292 15.625 15.625v84.375h84.375c8.333 0 15.625 7.292 15.625 15.625-2.084 8.333-9.375 15.625-17.709 15.625z"/><glyph glyph-name="pod_security" unicode="" horiz-adv-x="250" d="M135.347 208.208H72.795v10.566A10.398 10.398 0 0 0 83.2 229.167h41.745a10.398 10.398 0 0 0 10.403-10.393v-10.566zM125 83.398H20.833l26.042 57.245 26.042 57.244h62.431l13.626-29.912 13.625-29.912-18.8-8.355L125 121.353V83.398zm0 62.435a20.833 20.833 0 1 1-6.102-14.73 20.769 20.769 0 0 1 6.102 14.73zm.89-72.864H41.593V62.505A20.847 20.847 0 0 1 62.45 41.667h75.4a79.676 79.676 0 0 0-7.67 14.917 74.907 74.907 0 0 0-4.29 16.384zm103.277 41.614v-31.25a66.717 66.717 0 0 0-13.36-39.629 60.167 60.167 0 0 0-33.515-22.87 60.167 60.167 0 0 0-33.516 22.87 66.717 66.717 0 0 0-13.36 39.63v31.25L158.855 125l23.438 10.417L205.729 125zm-46.875 9.427-18.23-8.099-18.229-8.099V78.126h36.459v-46.51a49.87 49.87 0 0 1 24.46 17.48 60.447 60.447 0 0 1 11.998 29.082h-36.458v45.833z"/><glyph glyph-name="print" unicode="" horiz-adv-x="250" d="M197.917 166.667H187.5v52.083h-125v-52.083H52.083c-17.291 0-31.25-13.959-31.25-31.25v-62.5H62.5V31.25h125v41.667h41.667v62.5c0 17.291-13.959 31.25-31.25 31.25zm-114.584 31.25h83.334v-31.25H83.333v31.25zm83.334-125V52.083H83.333V93.75h83.334V72.917zM187.5 93.75v20.833h-125V93.75H41.667v41.667c0 5.729 4.687 10.416 10.416 10.416h145.834c5.729 0 10.416-4.687 10.416-10.416V93.75H187.5zm-10.417 36.458a10.417 10.417 0 0 1 20.834 0 10.417 10.417 0 0 1-20.834 0"/><glyph glyph-name="question-mark" unicode="" horiz-adv-x="250" d="M175 154.5c0-11-4.5-21-11.63-28.12l-11.24-11.51c-9.01-9.12-14.63-16.62-14.63-35.37h-25v6.25c0 13.75 5.62 26.25 14.63 35.37l15.49 15.76c4.63 4.49 7.38 10.74 7.38 17.62 0 13.75-11.25 25-25 25s-25-11.25-25-25H75c0 27.63 22.37 50 50 50s50-22.37 50-50zM125 236c-29.65 0-57.52-11.55-78.49-32.51C25.55 182.52 14 154.65 14 125s11.55-57.52 32.51-78.49C67.48 25.54 95.35 14 125 14s57.52 11.55 78.49 32.51C224.46 67.48 236 95.35 236 125s-11.55 57.52-32.51 78.49S154.65 236 125 236m0 14c69.04 0 125-55.96 125-125S194.04 0 125 0 0 55.96 0 125s55.96 125 125 125zm-.01-180.49c-6.9 0-12.5-5.6-12.5-12.5s5.6-12.5 12.5-12.5 12.5 5.6 12.5 12.5-5.6 12.5-12.5 12.5z"/><glyph glyph-name="rancher-desktop" unicode="" horiz-adv-x="250" d="M34.375 80.208h181.25V58.333H34.375v21.875zm154.167 84.375c0 14.584-11.459 26.042-26.042 26.042H89.583C75 190.625 62.5 179.167 62.5 164.583V94.792h125v69.791zm-23.959-47.916H85.417v47.916c0 2.084 2.083 3.125 4.166 3.125H162.5c2.083 0 3.125-1.041 3.125-3.125v-47.916zM47.917 137.5v21.875H34.375l-2.083 2.083v29.167H10.417v-29.167c0-13.541 10.416-23.958 23.958-23.958h13.542zm169.791 53.125v-29.167l-2.083-2.083h-12.5V137.5h12.5c13.542 0 23.958 10.417 23.958 23.958v29.167h-21.875z"/><glyph glyph-name="refresh" unicode="" horiz-adv-x="250" d="M210.417 122.917C209.375 76.042 170.833 38.542 125 38.542c-29.167 0-54.167 14.583-69.792 35.416L75 93.75H12.5v-62.5l21.875 21.875C55.208 26.042 87.5 9.375 125 9.375c62.5 0 113.542 50 114.583 112.5l-29.166 1.042zM39.583 125c0 47.917 38.542 86.458 86.459 86.458 30.208 0 56.25-15.625 71.875-38.541l-21.875-21.875h62.5v62.5l-20.834-20.834C195.833 221.875 162.5 239.583 125 239.583c-63.542 0-114.583-51.041-114.583-114.583v-2.083h29.166V125z"/><glyph glyph-name="repository" unicode="" horiz-adv-x="250" d="m83.333 10.313 26.042 15.624 26.042-15.625v41.771H83.333v-41.77zm0 187.604h20.834v-20.834H83.333v20.834zm0-52.084h20.834V125H83.333v20.833zm0-52.187h20.834V72.812H83.333v20.834zM191.25 239.062a15.313 15.313 0 0 1-3.75.521h-125a20.833 20.833 0 0 1-20.833-20.833V52.083A20.833 20.833 0 0 1 62.5 31.25v187.5h125V52.083h-31.25V31.25h31.25a20.833 20.833 0 0 1 20.833 20.833V218.75a20.833 20.833 0 0 1-17.083 20.313z"/><glyph glyph-name="rio" unicode="" horiz-adv-x="250" d="M201.042 111.458c-8.334-4.166-22.917-9.375-38.542-9.375s-30.208 6.25-38.542 9.375c-8.333-4.166-22.916-9.375-38.541-9.375s-30.209 6.25-38.542 9.375c-8.333-4.166-22.917-9.375-38.542-9.375V54.167c0-13.542 10.417-23.959 23.959-23.959H212.5c13.542 0 23.958 10.417 23.958 23.959v47.916c-12.5 0-27.083 5.209-35.416 9.375zM41.667 139.583l7.291 4.167 7.292-4.167c4.167-3.125 18.75-9.375 31.25-9.375 14.583 0 30.208 9.375 31.25 9.375l7.292 4.167 7.291-4.167c4.167-3.125 18.75-9.375 31.25-9.375s26.042 7.292 31.25 9.375l7.292 4.167 7.292-4.167c4.166-3.125 18.75-9.375 31.25-9.375v62.5c0 13.542-10.417 23.959-23.959 23.959H34.375c-13.542 0-23.958-10.417-23.958-23.959v-62.5c12.5 0 26.041 7.292 31.25 9.375z"/><glyph glyph-name="role-binding" unicode="" horiz-adv-x="250" d="M156.25 31.25h-20.833a20.833 20.833 0 0 0 0 41.667h20.833V93.75h-20.833a41.667 41.667 0 0 1 0-83.333h20.833zm83.333 20.833a41.667 41.667 0 0 0-41.666-41.666h-20.834V31.25h20.834a20.833 20.833 0 0 1 0 41.667h-20.834V93.75h20.834a41.667 41.667 0 0 0 41.666-41.667zM145.833 62.5H187.5V41.667h-41.667zM72.917 52.083a62.385 62.385 0 0 0 .937 10.417H31.25v14.583c0 20.834 41.667 32.292 62.5 32.292a89.042 89.042 0 0 0 14.063-1.302 62.02 62.02 0 0 0 27.604 6.51H187.5v93.75a20.896 20.896 0 0 1-20.833 20.834h-43.542a31.125 31.125 0 0 1-58.75 0H20.833A20.896 20.896 0 0 1 0 208.333V62.5a20.896 20.896 0 0 1 20.833-20.833h53.021a62.385 62.385 0 0 0-.937 10.416zM93.75 229.167a10.417 10.417 0 1 0-10.417-10.417 10.448 10.448 0 0 0 10.417 10.417zm0-41.667a31.25 31.25 0 1 0-31.25-31.25 31.208 31.208 0 0 0 31.25 31.25z"/><glyph glyph-name="search" unicode="" horiz-adv-x="250" d="M183.333 232.292c-11.458 4.166-23.958 7.291-36.458 7.291-26.042 0-48.958-10.416-65.625-27.083-16.667-16.667-27.083-40.625-27.083-65.625 0-21.875 7.291-41.667 19.791-57.292L14.583 30.208c-3.125-3.125-4.166-5.208-4.166-8.333 0-6.25 5.208-11.458 11.458-11.458 3.125 0 6.25 1.041 8.333 3.125l59.375 59.375c15.625-12.5 35.417-19.792 57.292-19.792 51.042 0 92.708 41.667 92.708 92.708 0 39.584-22.916 71.875-56.25 86.459zm-36.458-156.25c-38.542 0-70.833 31.25-70.833 70.833 0 38.542 31.25 70.833 70.833 70.833 38.542 0 70.833-31.25 70.833-70.833-1.041-39.583-32.291-70.833-70.833-70.833z"/><glyph glyph-name="service" unicode="" horiz-adv-x="250" d="M31.25 31.25h20.833v62.5H31.25v-62.5zm98.542-10.417L99.27 27.5 68.75 34.688a7.604 7.604 0 0 0-4.48 2.708 7.396 7.396 0 0 0-1.77 4.896v41.666a8.02 8.02 0 0 0 1.77 4.896 8.333 8.333 0 0 0 4.48 2.709l49.792 6.145 49.895 6.25L170 98.125l1.563-5.73A9.688 9.688 0 0 0 170 86.98a9.375 9.375 0 0 0-4.167-3.854L145 77.917l-20.833-5.209 16.875-6.875 16.979-6.77 23.646 6.666 23.02 7.188a8.125 8.125 0 0 0 6.042-.834 7.604 7.604 0 0 0 3.75-4.791l1.98-8.021 2.083-7.917a8.02 8.02 0 0 0-.834-5.833 8.125 8.125 0 0 0-4.791-3.646l-37.813-10.417-37.812-10.416a14.792 14.792 0 0 0-3.75 0 11.458 11.458 0 0 0-3.75-.209zm-36.042 187.5L72.917 187.5l-20.834-20.833 20.834-20.834L93.75 125l7.292 7.292 7.291 7.291-13.541 13.542-13.542 13.542 13.542 13.541 13.541 13.542-7.291 7.292-7.292 7.291zm62.5 0-7.292-7.291-7.291-7.292 13.541-13.542 13.542-13.541-13.542-13.542-13.541-13.542 7.291-7.291L156.25 125l20.833 20.833 20.834 20.834-20.834 20.833-20.833 20.833z"/><glyph glyph-name="show" unicode="" horiz-adv-x="250" d="M125 166.667c11.458 0 23.958-3.125 35.417-8.334 10.416-4.166 20.833-11.458 32.291-19.791 7.292-6.25 14.584-12.5 19.792-17.709-5.208-5.208-11.458-11.458-19.792-17.708-10.416-8.333-20.833-14.583-32.291-19.792C147.917 78.125 136.458 75 125 75s-23.958 3.125-35.417 8.333C79.167 87.5 68.75 94.792 57.292 103.125c-7.292 6.25-14.584 12.5-19.792 17.708 5.208 5.209 11.458 11.459 19.792 17.709 10.416 8.333 20.833 14.583 32.291 19.791 12.5 6.25 23.959 8.334 35.417 8.334zm0 20.833c-63.542 0-114.583-65.625-114.583-65.625S61.458 56.25 125 56.25s114.583 65.625 114.583 65.625S188.542 187.5 125 187.5zm32.292-65.625c0-17.708-14.584-32.292-32.292-32.292s-32.292 14.584-32.292 32.292 14.584 32.292 32.292 32.292 32.292-14.584 32.292-32.292z"/><glyph glyph-name="snapshot" unicode="" horiz-adv-x="250" d="m216.667 185.417-17.709 28.125c-4.166 6.25-11.458 10.416-18.75 10.416h-31.25c-7.291 0-14.583-4.166-18.75-10.416l-16.666-28.125H33.333c-12.5 0-22.916-10.417-22.916-22.917V40.625c0-12.5 10.416-22.917 22.916-22.917h183.334c12.5 0 22.916 10.417 22.916 22.917V162.5c0 12.5-10.416 22.917-22.916 22.917zm-67.709 16.666h31.25l10.417-16.666h-52.083l10.416 16.666zm68.75-161.458c0-1.042 0-1.042 0 0L33.333 39.583c-1.041 0-1.041 0-1.041 1.042V162.5c0 1.042 0 1.042 1.041 1.042h183.334c1.041 0 1.041 0 1.041-1.042V40.625zM125 150c-27.083 0-48.958-21.875-48.958-48.958S97.917 52.083 125 52.083s48.958 21.875 48.958 48.959S152.083 150 125 150zm0-75c-14.583 0-27.083 12.5-27.083 27.083s12.5 27.084 27.083 27.084 27.083-12.5 27.083-27.084S139.583 75 125 75zM28.125 192.708h35.417c6.25 0 11.458 5.209 11.458 11.459s-5.208 10.416-11.458 10.416H28.125c-6.25 0-11.458-5.208-11.458-11.458s6.25-10.417 11.458-10.417z"/><glyph glyph-name="sort-down" unicode="" horiz-adv-x="250" d="M128.125 6.25c-3.125 0-6.25 1.042-8.333 3.125L55.208 73.958c-2.083 2.084-3.125 5.209-3.125 8.334 0 6.25 5.209 11.458 11.459 11.458 3.125 0 6.25-1.042 8.333-3.125l56.25-56.25 56.25 56.25c2.083 2.083 5.208 3.125 8.333 3.125 6.25 0 11.459-5.208 11.459-11.458 0-3.125-1.042-6.25-3.125-8.334L136.458 9.375c-2.083-2.083-5.208-3.125-8.333-3.125z"/><glyph glyph-name="sort-up" unicode="" horiz-adv-x="250" d="M192.708 152.083c-3.125 0-6.25 1.042-8.333 3.125l-56.25 56.25-56.25-56.25c-2.083-2.083-5.208-3.125-8.333-3.125-6.25 0-11.459 5.209-11.459 11.459 0 3.125 1.042 6.25 3.125 8.333l64.584 64.583c2.083 2.084 5.208 3.125 8.333 3.125s6.25-1.041 8.333-3.125l64.584-64.583c2.083-2.083 3.125-5.208 3.125-8.333 0-6.25-5.209-11.459-11.459-11.459z"/><glyph glyph-name="sort" unicode="" horiz-adv-x="250" d="M128.125 10.417c-3.125 0-6.25 1.041-8.333 3.125L55.208 78.125c-2.083 2.083-3.125 5.208-3.125 8.333 0 6.25 5.209 11.459 11.459 11.459 3.125 0 6.25-1.042 8.333-3.125l56.25-56.25 56.25 56.25c2.083 2.083 5.208 3.125 8.333 3.125 6.25 0 11.459-5.209 11.459-11.459 0-3.125-1.042-6.25-3.125-8.333l-64.584-64.583c-2.083-2.084-5.208-3.125-8.333-3.125zm63.542 141.666c-3.125 0-6.25 1.042-8.334 3.125l-56.25 56.25-55.208-56.25c-2.083-1.041-5.208-3.125-8.333-3.125-6.25 0-11.459 5.209-11.459 11.459 0 3.125 1.042 6.25 3.125 8.333l64.584 64.583c2.083 2.084 5.208 3.125 8.333 3.125s6.25-1.041 8.333-3.125l64.584-64.583c2.083-2.083 3.125-5.208 3.125-8.333-1.042-6.25-5.209-11.459-12.5-11.459z"/><glyph glyph-name="spinner" unicode="" horiz-adv-x="250" d="M125 195.833c-6.25 0-11.458 5.209-11.458 11.459v20.833c0 6.25 5.208 11.458 11.458 11.458s11.458-5.208 11.458-11.458V206.25c0-5.208-5.208-10.417-11.458-10.417zm0-185.416c-6.25 0-11.458 5.208-11.458 11.458V43.75c0 6.25 5.208 11.458 11.458 11.458S136.458 50 136.458 43.75V21.875c0-6.25-5.208-11.458-11.458-11.458zM42.708 113.542H21.875c-6.25 0-11.458 5.208-11.458 11.458s5.208 11.458 11.458 11.458H43.75c6.25 0 11.458-5.208 11.458-11.458s-6.25-11.458-12.5-11.458zm185.417 0H206.25c-6.25 0-11.458 5.208-11.458 11.458s5.208 11.458 11.458 11.458h21.875c6.25 0 11.458-5.208 11.458-11.458s-5.208-11.458-11.458-11.458zM83.333 184.375c-4.166 0-7.291 2.083-9.375 5.208l-10.416 18.75c-1.042 2.084-2.084 4.167-2.084 6.25 0 6.25 5.209 11.459 11.459 11.459 4.166 0 7.291-2.084 9.375-5.209l10.416-18.75c2.084-2.083 2.084-4.166 2.084-6.25 0-6.25-5.209-11.458-11.459-11.458zM177.083 25c-4.166 0-7.291 2.083-9.375 5.208l-10.416 18.75c-1.042 2.084-1.042 3.125-1.042 5.209 0 6.25 5.208 11.458 11.458 11.458 4.167 0 7.292-2.083 9.375-5.208l10.417-18.75c1.042-2.084 1.042-3.125 1.042-5.209 0-7.291-5.209-11.458-11.459-11.458zM35.417 61.458c-6.25 0-11.459 5.209-11.459 11.459 0 4.166 2.084 7.291 5.209 9.375l18.75 10.416C50 93.75 51.042 93.75 53.125 93.75c6.25 0 11.458-5.208 11.458-11.458 0-4.167-2.083-7.292-5.208-9.375L40.625 62.5c-1.042 0-3.125-1.042-5.208-1.042zm160.416 93.75c-6.25 0-11.458 5.209-11.458 11.459 0 4.166 2.083 7.291 5.208 9.375l18.75 10.416c2.084 1.042 3.125 1.042 5.209 1.042 6.25 0 11.458-5.208 11.458-11.458 0-4.167-2.083-7.292-5.208-9.375l-18.75-10.417c-1.042-1.042-3.125-1.042-5.209-1.042zm-141.666 0c-2.084 0-4.167 0-6.25 1.042l-17.709 10.417c-4.166 2.083-6.25 6.25-6.25 10.416 0 6.25 5.209 10.417 11.459 10.417 2.083 0 4.166 0 5.208-1.042l18.75-10.416c3.125-2.084 5.208-5.209 5.208-9.375 1.042-7.292-4.166-11.459-10.416-11.459zM214.583 62.5c-2.083 0-4.166 1.042-5.208 1.042l-18.75 10.416c-3.125 2.084-5.208 5.209-5.208 9.375 0 6.25 5.208 11.459 11.458 11.459 2.083 0 4.167-1.042 5.208-1.042l18.75-10.417c3.125-2.083 5.209-5.208 5.209-9.375 0-7.291-5.209-11.458-11.459-11.458zM72.917 23.958c-6.25 0-11.459 5.209-11.459 11.459 0 2.083 1.042 4.166 1.042 5.208l10.417 18.75c2.083 3.125 5.208 5.208 9.375 5.208 6.25 0 11.458-5.208 11.458-11.458 0-2.083-1.042-4.167-1.042-5.208l-10.416-18.75c-1.042-3.125-5.209-5.209-9.375-5.209zm92.708 160.417c-6.25 0-11.458 5.208-11.458 11.458 0 2.084 1.041 4.167 1.041 5.209l10.417 18.75c2.083 3.125 5.208 5.208 9.375 5.208 6.25 0 11.458-5.208 11.458-11.458 0-2.084-1.041-4.167-1.041-5.209L175 189.583c-1.042-3.125-5.208-5.208-9.375-5.208z"/><glyph glyph-name="star-open" unicode="" horiz-adv-x="250" d="m233.333 160.417-71.875 10.416-32.291 64.584c-3.125 6.25-7.292 6.25-10.417 0L87.5 170.833l-71.875-10.416c-5.208-1.042-7.292-6.25-2.083-10.417l52.083-50-12.5-70.833c-1.042-6.25 3.125-9.375 8.333-6.25L125 56.25l63.542-33.333c6.25-3.125 9.375 0 8.333 6.25L184.375 100l52.083 50c5.209 5.208 3.125 9.375-3.125 10.417zm-39.583-21.875-32.292-31.25 7.292-43.75c0-3.125-1.042-4.167-4.167-3.125L125 81.25 85.417 60.417c-3.125-1.042-4.167 0-4.167 3.125l7.292 43.75-32.292 31.25c-2.083 2.083-1.042 4.166 1.042 5.208l44.791 6.25 19.792 40.625c1.042 3.125 3.125 3.125 5.208 0L146.875 150l44.792-6.25c3.125-1.042 4.166-3.125 2.083-5.208z"/><glyph glyph-name="star" unicode="" horiz-adv-x="250" d="m233.333 160.417-71.875 10.416-32.291 64.584c-3.125 6.25-7.292 6.25-10.417 0L87.5 170.833l-71.875-10.416c-5.208-1.042-7.292-6.25-2.083-10.417l52.083-50-12.5-70.833c-1.042-6.25 3.125-9.375 8.333-6.25L125 56.25l63.542-33.333c6.25-3.125 9.375 0 8.333 6.25L184.375 100l52.083 50c5.209 5.208 3.125 9.375-3.125 10.417z"/><glyph glyph-name="storage" unicode="" horiz-adv-x="250" d="M20.833 41.667h208.334v41.666H20.833V41.667zm20.834 31.25H62.5V52.083H41.667v20.834zM20.833 208.333v-41.666h208.334v41.666H20.833zm41.667-31.25H41.667v20.834H62.5v-20.834zm-41.667-72.916h208.334v41.666H20.833v-41.666zm20.834 31.25H62.5v-20.834H41.667v20.834z"/><glyph glyph-name="terminal" unicode="" horiz-adv-x="250" d="M46.875 60.938c-6.25 0-11.719 5.468-11.719 11.718 0 3.125 1.563 6.25 3.125 7.813l53.125 53.125-53.125 53.125c-2.343 2.344-3.125 5.469-3.125 8.594 0 6.25 5.469 11.718 11.719 11.718 3.125 0 6.25-1.562 7.813-3.125l60.937-60.937c2.344-2.344 3.125-4.688 3.125-7.813s-1.563-6.25-3.125-7.812L54.687 64.063C52.344 62.5 50 60.937 46.876 60.937zm148.438-25c3.125 0 6.25.78 7.812 3.124 4.688 4.688 4.688 11.72 0 16.407-2.344 2.343-5.469 3.125-7.813 3.125H64.845c-3.125 0-6.25-.782-7.813-3.125-4.687-4.688-4.687-11.719 0-16.407 2.344-2.343 5.469-3.124 7.813-3.124h130.469z"/><glyph glyph-name="trash" unicode="" horiz-adv-x="250" d="M62.5 169.531V47.656c0-5.468 4.688-9.375 9.375-9.375h104.688c5.468 0 9.375 4.688 9.375 9.375v121.875H62.5zM96.875 61.72c0-3.125-2.344-4.688-4.688-4.688S87.5 59.375 87.5 61.72v80.469c0 3.125 2.344 4.687 4.688 4.687s4.687-2.344 4.687-4.688V61.72zm31.25 0c0-3.125-2.344-4.688-4.688-4.688s-4.687 2.344-4.687 4.688v80.469c0 3.125 2.344 4.687 4.688 4.687 3.124 0 4.687-2.344 4.687-4.688V61.72zm32.813 0c0-3.125-2.344-4.688-4.688-4.688s-4.688 2.344-4.688 4.688v80.469c0 3.125 2.344 4.687 4.688 4.687s4.688-2.344 4.688-4.688V61.72zm28.906 135.156h-36.719l-4.688 10.156c-1.562 3.125-4.687 5.469-9.375 5.469h-29.687c-3.906 0-7.813-2.344-9.375-5.469l-4.688-9.375H60.157C54.688 196.875 50 192.97 50 187.5s4.688-10.156 10.156-10.156h130.469c5.469 0 10.156 4.687 10.156 10.156s-5.469 9.375-10.937 9.375z"/><glyph glyph-name="unlock" unicode="" horiz-adv-x="250" d="M184.375 144.531H95.312v33.594c0 16.406 13.282 29.688 29.688 29.688s29.688-13.282 29.688-29.688c0-5.469 4.687-9.375 9.375-9.375s9.375 4.688 9.375 9.375c0 26.563-21.875 48.438-48.438 48.438s-48.438-21.875-48.438-48.438v-33.594H65.626c-5.469 0-10.156-4.687-10.156-10.156v-100c0-5.469 4.687-10.156 10.156-10.156h117.969c5.469 0 10.156 4.687 10.156 10.156v99.219c.781 6.25-3.906 10.937-9.375 10.937zm-52.344-62.5V61.72c0-3.907-3.125-7.032-7.031-7.032s-7.031 3.126-7.031 7.032V82.03c-5.469 2.344-10.156 8.594-10.156 14.844 0 9.375 7.03 16.406 16.406 16.406s16.406-7.031 16.406-16.406c.781-7.031-3.125-12.5-8.594-14.844z"/><glyph glyph-name="upload" unicode="" horiz-adv-x="250" d="M68.75 148.438c3.125 0 5.469.78 7.031 3.125l39.063 39.062V72.656c0-5.469 4.687-10.156 10.156-10.156s10.156 4.688 10.156 10.156v117.969l39.063-39.063c1.562-1.562 3.906-3.125 7.031-3.125 5.469 0 10.156 4.688 10.156 10.157 0 3.125-.781 5.469-3.125 7.031l-56.25 56.25C130.47 223.438 128.125 225 125 225s-5.469-.781-7.031-3.125l-56.25-56.25c-1.563-1.563-3.125-3.906-3.125-7.031 0-5.469 4.687-10.156 10.156-10.156zm133.594-82.032c-5.469 0-10.156-4.687-10.156-10.156V45.312H57.813V56.25c0 5.469-4.688 10.156-10.157 10.156S37.5 61.72 37.5 56.25V35.156C37.5 29.688 42.188 25 47.656 25h154.688c5.469 0 10.156 4.688 10.156 10.156V56.25c0 5.469-4.688 10.156-10.156 10.156z"/><glyph glyph-name="user-check" unicode="" horiz-adv-x="250" d="M96.793 153.207c-26.739 0-48.37 21.684-48.37 48.37S70.055 250 96.794 250s48.37-21.685 48.37-48.37c0-26.739-21.685-48.37-48.37-48.37zm-19.89-96.794H0v24.185c0 9.891 6.25 24.239 36.25 36.25 19.293 7.5 39.783 11.63 60.49 12.12 13.151-.272 26.195-2.011 38.912-5.272-29.891-10.816-52.065-36.25-58.804-67.337h.054zM157.716.109 102.12 55.652l26.956 26.957 28.641-28.587 65.218 65.163 27.01-26.957L157.773.108z"/><glyph glyph-name="user-xmark" unicode="" horiz-adv-x="250" d="M96.685 153.37C70 153.37 48.37 175 48.37 201.685S70 250 96.685 250 145 228.37 145 201.685s-21.63-48.261-48.315-48.315zM85.326 56.685H0V80.87c0 9.89 6.25 24.239 36.196 36.195 19.293 7.5 39.728 11.576 60.434 12.12 7.935-.109 15.87-.815 23.696-2.12A110.206 110.206 0 0 1 85.217 56.74h.11zm164.185 40.924-28.261 27.989-34.946-34.565-34.945 34.565-28.261-27.99 34.945-34.565-34.945-34.565L151.413.435 186.304 35 221.196.435l28.315 28.043-34.946 34.565 34.946 34.566z"/><glyph glyph-name="user" unicode="" horiz-adv-x="250" d="M125 125c23.02 0 41.667 18.646 41.667 41.667S148.02 208.333 125 208.333s-41.667-18.645-41.667-41.666S101.98 125 125 125zm0-20.833c-27.813 0-83.333-13.959-83.333-41.667V41.667h166.666V62.5c0 27.708-55.52 41.667-83.333 41.667z"/><glyph glyph-name="warning" unicode="" horiz-adv-x="250" d="m125 206.25 90.625-157.292H34.375L125 206.25zm0 23.958c-8.333 0-16.667-4.166-20.833-11.458L13.542 61.458c-4.167-7.291-4.167-16.666 0-23.958s12.5-11.458 20.833-11.458h181.25c8.333 0 16.667 4.166 20.833 11.458s4.167 16.667 0 23.958L145.833 218.75c-4.166 7.292-12.5 11.458-20.833 11.458zm0-135.416c-6.25 0-11.458 5.208-11.458 11.458v52.083c0 6.25 5.208 11.459 11.458 11.459s11.458-5.209 11.458-11.459V106.25c0-6.25-5.208-11.458-11.458-11.458zm0-33.334h-5.208s-1.042 0-1.042 1.042c0 0-1.042 0-1.042 1.042 0 0-1.041 0-1.041 1.041l-1.042 1.042s0 1.042-1.042 1.042c0 0 0 1.041-1.041 1.041s0 1.042 0 1.042v9.375s0 1.042 1.041 1.042c0 0 0 1.041 1.042 1.041s0 1.042 1.042 1.042l1.041 1.042s1.042 0 1.042 1.041c0 0 1.042 0 1.042 1.042h10.416s1.042 0 1.042-1.042 1.042 0 1.042-1.041c0 0 1.041 0 1.041-1.042l1.042-1.042s0-1.041 1.042-1.041c0 0 0-1.042 1.041-1.042V67.708s0-1.041-1.041-1.041c0 0 0-1.042-1.042-1.042s0-1.042-1.042-1.042l-1.041-1.041s-1.042 0-1.042-1.042c0 0-1.042 0-1.042-1.042H125z"/><glyph glyph-name="windows" unicode="" horiz-adv-x="250" d="m10.417 207.292 93.75 12.5v-89.584l-93.75-1.041v78.125zm93.75-87.5V29.167l-93.75 12.5v78.125h93.75zm10.416 102.083 123.959 17.708V131.25l-123.959-1.042v91.667zM238.542 118.75V10.417L114.583 28.125v90.625h123.959z"/></font>
</defs>
</svg>
