<?xml version="1.0" standalone="no"?>
<!DOCTYPE svg PUBLIC "-//W3C//DTD SVG 1.1//EN" "http://www.w3.org/Graphics/SVG/1.1/DTD/svg11.dtd" >
<svg xmlns="http://www.w3.org/2000/svg">
<metadata>
<json>
<![CDATA[
{
	"fontFamily": "rancher-icons",
	"majorVersion": 3,
	"minorVersion": 0,
	"fontURL": "https://github.com/rancher/icons",
	"copyright": "2017 Rancher Labs, Inc.",
	"designer": "Lauren Vuchetich",
	"license": "Apache 2",
	"version": "Version 3.0",
	"fontId": "rancher-icons",
	"psName": "rancher-icons",
	"subFamily": "Regular",
	"fullName": "rancher-icons",
	"description": "Font generated by IcoMoon."
}
]]>
</json>
</metadata>
<defs>
<font id="rancher-icons" horiz-adv-x="1024">
<font-face units-per-em="1024" ascent="860.16" descent="-163.84" />
<missing-glyph horiz-adv-x="1024" />
<glyph unicode="&#x20;" horiz-adv-x="512" d="" />
<glyph unicode="&#xe900;" glyph-name="adjust" data-tags="adjust" d="M512 832c-282.6 0-512-229.4-512-512s229.4-512 512-512 512 229.4 512 512-228.6 512-512 512zM512-123.8c-244.4 0-443.8 199.4-443.8 443.8s199.4 443.8 443.8 443.8v0-887.6c0 0 0 0 0 0z" />
<glyph unicode="&#xe901;" glyph-name="alert" data-tags="alert" d="M512 568.2l298-574.4h-596l298 574.4zM512 828.8l-495.4-955h990.8l-91 175.2-404.4 779.8zM572 96c0-33.137-26.863-60-60-60s-60 26.863-60 60c0 33.137 26.863 60 60 60s60-26.863 60-60zM572 416h-120l28-224h64z" />
<glyph unicode="&#xe902;" glyph-name="apple" data-tags="apple" d="M715.6 600.8c-29 0-64.6-7.2-106.6-21-40.4-13.8-69.6-21-88-21-13.8 0-42 6.4-84.8 18.6s-79.2 18.6-109.2 18.6c-70.4 0-128.6-30-174.6-89-46-59.8-69.6-136.6-69.6-230.4 0-99.4 30-202.8 90.6-309.6 61.4-106.6 122.8-159.2 185-159.2 21 0 47.6 7.2 81.6 21 33.2 13.8 62.2 20.2 87.2 20.2 26.6 0 57.4-6.4 93-19.4 37.2-13 66.2-19.4 86.4-19.4 52.6 0 105 40.4 158.4 120.4 34.8 51 59.8 102.6 76 153.6-36.4 11.4-68.6 37.2-97 77.6-28.2 40.4-42.8 86.4-42.8 137.4 0 46 13.8 89 40.4 127.6 14.6 21 38 45.2 70.4 72.8-21 25.8-42.8 46.8-63.8 61.4-40.4 26.2-84 39.8-132.6 39.8v0 0zM705.2 832c-72-17-123.6-46.8-153.6-91.4-30.8-44.4-46.8-97-47.6-158.4 27.4 2.4 48.4 5.6 63.8 10.6 21.8 7.2 44.4 21.8 66.2 44.4 26 25.8 45.4 54.2 57.4 84.8 12.2 30.8 17.8 59 17.8 84 0 1.6 0 4 0 6.4s0 4.8 0 6.4c-0.8 1.6-0.8 3.2-1.6 6.4-1.6 3.6-2.4 5.2-2.4 6.8v0 0z" />
<glyph unicode="&#xe903;" glyph-name="arrow-circle-up" data-tags="arrow-circle-up" d="M512 712c104.8 0 203.2-40.8 277.2-114.8s114.8-172.4 114.8-277.2-40.8-203.2-114.8-277.2-172.4-114.8-277.2-114.8-203.2 40.8-277.2 114.8-114.8 172.4-114.8 277.2 40.8 203.2 114.8 277.2 172.4 114.8 277.2 114.8zM512 832c-282.8 0-512-229.2-512-512s229.2-512 512-512 512 229.2 512 512-229.2 512-512 512v0zM695.2 285l-183.2 183.4-183.2-183.4-85 85 268.2 268 268.2-268zM452 553.2h120v-553.2h-120v553.2z" />
<glyph unicode="&#xe904;" glyph-name="box, container, containers" data-tags="box" d="M513 832.4l-444.8-257.4-0.2-71.2-1-298.4v-142.2l446-257.4 442.8 257.4 1.2 511.8-444 257.4zM513 652.8l257-149.4-257-149.4-258.6 149.4 258.6 149.4zM222.2 449.4l259.8-149.4-0.6-296.4-259.2 149.4v296.4zM543.8 3.2l0.6 296.8 255.4 149v-296.8l-256-149z" />
<glyph unicode="&#xe905;" glyph-name="certificate" data-tags="certificate" d="M993.278 570.539l-263.509 262.144h-439.637v-122.197h68.267v53.931h334.507v-225.28h232.107v-573.44h-339.968c21.163 40.277 32.768 86.699 32.768 135.168 0 84.651-35.499 160.427-92.843 214.357v194.56c0 110.592-90.112 200.704-200.704 200.704-111.275 0-201.387-90.112-201.387-200.704v-195.243c-56.661-53.248-92.16-129.024-92.16-213.675 0-162.475 131.072-293.547 293.547-293.547 83.285 0 158.379 34.816 211.627 90.112h457.387v673.109zM191.144 509.782c0 73.045 60.075 132.437 133.12 132.437s132.437-59.392 132.437-132.437v-146.773c-11.605 6.144-23.893 10.923-36.864 15.701v131.072c0 52.565-43.008 95.573-95.573 95.573-53.248 0-96.256-43.008-96.256-95.573v-131.755c-12.971-4.096-25.259-9.557-36.864-15.701v147.456zM290.131 392.363c-6.827-0.683-14.336-2.048-21.163-3.413v120.832c0 17.067 8.192 32.768 21.163 43.008v-160.427zM358.398 552.107c12.288-10.24 20.48-25.259 20.48-42.325v-120.832c-6.827 1.365-13.653 2.048-20.48 3.413v159.744zM324.264-124.416c-124.245 0-225.28 101.035-225.28 225.28s101.035 225.28 225.28 225.28 225.28-101.035 225.28-225.28c0-124.245-101.035-225.28-225.28-225.28zM747.518 718.678l126.293-124.928h-126.293v124.928zM324.264 286.55c-102.4 0-186.368-83.285-186.368-186.368s83.968-185.685 186.368-185.685 186.368 83.285 186.368 186.368c0 103.083-83.968 185.685-186.368 185.685zM324.264-45.226c-80.555 0-145.408 64.853-145.408 145.408s65.536 145.408 145.408 145.408 145.408-64.853 145.408-145.408c0-79.872-64.853-145.408-145.408-145.408zM326.312 201.216c-31.403 0-57.344-25.941-57.344-57.344 0-23.893 14.336-43.691 34.816-52.565v-91.477h40.96v90.112c22.528 7.509 38.912 29.355 38.912 53.931 0 31.403-25.941 57.344-57.344 57.344z" />
<glyph unicode="&#xe906;" glyph-name="check" data-tags="check" d="M355.328-72.534l-350.891 351.573 120.832 120.832 230.059-230.741 543.403 543.403 120.832-120.832z" />
<glyph unicode="&#xe907;" glyph-name="chevron-down" data-tags="chevron-down" d="M512.341 4.266l-511.317 510.635 120.832 120.832 390.485-390.485 389.803 390.485 120.832-120.832z" />
<glyph unicode="&#xe908;" glyph-name="chevron-left" data-tags="chevron-left" d="M708.949-194.389l-514.731 514.731 514.731 514.048 120.832-120.832-393.899-393.216 393.899-393.899z" />
<glyph unicode="&#xe909;" glyph-name="chevron-right" data-tags="chevron-right" d="M315.392-194.39l-120.832 120.832 393.899 393.899-393.899 393.216 120.832 120.832 514.048-514.048z" />
<glyph unicode="&#xe90a;" glyph-name="chevron-up" data-tags="chevron-up" d="M902.144 4.267l-389.803 389.803-390.485-389.803-120.832 120.149 511.317 511.317 510.635-511.317z" />
<glyph unicode="&#xe90b;" glyph-name="circle-o" data-tags="circle-o" d="M512 763.733c244.395 0 443.733-199.339 443.733-443.733s-199.339-443.733-443.733-443.733-443.733 199.339-443.733 443.733 198.656 443.733 443.733 443.733zM512 832c-282.624 0-512-229.376-512-512s229.376-512 512-512 512 229.376 512 512-229.376 512-512 512v0z" />
<glyph unicode="&#xe90c;" glyph-name="circle" data-tags="circle" d="M1024 320c0-282.77-229.23-512-512-512s-512 229.23-512 512c0 282.77 229.23 512 512 512s512-229.23 512-512z" />
<glyph unicode="&#xe90d;" glyph-name="cloud" data-tags="cloud" d="M135.168 207.359h-34.133c0 77.824 63.488 140.629 140.629 140.629v-34.133c-58.709 0-106.496-47.787-106.496-106.496zM922.966 165.716h-34.133c0 35.499-29.355 64.853-64.853 64.853v34.133c54.613-0.683 98.987-45.056 98.987-98.987zM823.979-31.574h-582.315c-128.341 0-232.789 105.813-232.789 236.203 0 124.245 95.573 226.645 216.405 235.52 49.152 137.216 180.907 231.424 329.045 231.424 187.051 0 339.968-148.139 348.16-332.459 23.893-10.923 45.739-26.624 63.488-46.421 0 0 0 0 0 0 31.403-34.816 49.152-81.92 49.152-129.707 0-107.179-85.333-194.56-191.147-194.56zM241.664 371.882c-90.795 0-164.523-75.093-164.523-167.936 0-92.16 73.728-167.253 164.523-167.253h582.315c66.901 0 122.88 57.344 122.88 125.611 0 30.72-11.605 61.44-32.085 83.968v0c-15.019 17.067-34.816 29.355-56.661 35.499-15.019 4.096-24.576 17.749-24.576 33.451v2.731c0 1.365 0 2.731 0 4.096 0 154.965-125.611 280.576-280.576 280.576-124.928 0.683-236.203-83.968-269.653-205.483-4.096-15.701-18.432-25.941-34.133-25.259h-1.365c-2.048 0-4.096 0-6.144 0zM479.232 197.802l-68.267 2.731v1.365c0 2.048 0 4.096 0 5.461 0 90.795-74.411 164.523-166.571 164.523v68.267c129.707 0 234.837-104.448 234.837-232.789 0-2.731 0-6.144 0-8.875v-0.683zM344.747 397.823l-32.085 11.605c36.864 101.717 133.803 169.984 241.664 169.984 0 0 0 0 0 0v-34.133c0 0 0 0 0 0-92.16 0-178.176-60.075-209.579-147.456z" />
<glyph unicode="&#xe90e;" glyph-name="compass" data-tags="compass" d="M512 648.705c-230.741 0-418.475-187.051-418.475-418.475 0-230.741 187.051-418.475 418.475-418.475s418.475 187.051 418.475 418.475c-0.683 231.424-187.733 418.475-418.475 418.475zM550.229-117.93v65.536h-68.267v-66.219c-169.301 14.336-304.469 149.504-318.805 318.805h79.872v68.267h-79.189c18.432 165.205 151.552 296.277 318.123 310.613v-85.333h68.267v84.651c162.475-17.749 292.181-147.456 309.931-309.931h-70.997v-68.267h71.68c-14.336-166.571-145.408-299.691-310.613-318.123zM441.003 664.406h143.36c41.643 0 75.093 33.451 75.093 75.093v13.653c0 41.643-33.451 75.093-75.093 75.093h-143.36c-41.643 0-75.093-33.451-75.093-75.093v-13.653c0-41.643 33.451-75.093 75.093-75.093zM434.176 753.153c0 4.096 2.731 6.827 6.827 6.827h143.36c4.096 0 6.827-2.731 6.827-6.827v-13.653c0-4.096-2.731-6.827-6.827-6.827h-143.36c-4.096 0-6.827 2.731-6.827 6.827v13.653zM684.715 419.329l-122.88-234.155-192.512-181.589c-6.827-6.144-17.067 1.365-12.288 9.557l122.197 234.155 192.512 181.589c6.827 6.144 17.067-1.365 12.971-9.557z" />
<glyph unicode="&#xe90f;" glyph-name="copy" data-tags="copy" d="M819.6 700.2c-12.2 17.8-32 28.6-55.2 28.6h-30.8c-1.4 56.8-48.6 103.2-106.6 103.2-28.6 0-55.2-11.6-74.4-30.8h-327l-190.4-186.4v-542.8h227.4v-264h726.4v892.2h-169.4zM833.2 569.2v15.6h32.8l4-661.6h-492.2v661.6h39v-15.8l416.4 0.2zM627 784.2c32 0 58.8-26 58.8-58 0-18.4-8.2-33.4-21.2-45h99.6c13 0 21.2-11 21.2-23.8v-40.2h-320.8v40c0 13 12.2 23.8 25.2 23.8h100.4c-13 11.6-21.2 26.6-21.2 45 0 32.2 26 58.2 58 58.2zM123.2 634.8l86 84v-84c0 0-86 0-86 0zM262.4 121.4h-179.4v-1.4 467h174v166.4h267.6c-2-8.2-4-16.4-4-24.6v0h-30.8c-23.2 0-44.4-11.6-58-28.6h-169.4v-578.8zM920.6-123.8h-589.8v755.8h86v-26.6h-59.4v-702.4h533.2l-4 702.4h-53.2v26.6h87.4l-0.2-755.8zM595.6 726.2c0 16.4 13 29.4 29.4 29.4s29.4-13 29.4-29.4-13-29.4-29.4-29.4c-16.4 0-29.4 13-29.4 29.4zM831.4 308.4c0-9.6-8.2-17-17-17-21.2 0-33.4 8.8-41.6 15-6.8 5.4-11.6 8.2-21.8 8.2s-15-3.4-21.8-8.2c-8.8-6.2-20.4-15-41.6-15s-33.4 8.8-41.6 15c-6.8 5.4-11.6 8.2-21.8 8.2s-15-3.4-21.8-8.2c-8.8-6.2-20.4-15-41.6-15s-33.4 8.8-41.6 15c-6.8 5.4-11.6 8.2-21.8 8.2s-15-3.4-21.8-8.2c-8.8-6.2-20.4-15-41.6-15-9.6 0-17 7.6-17 17s7.6 17 17 17c10.2 0 15 3.4 21.8 8.2 8.8 6.2 20.4 15 41.6 15s33.4-8.8 41.6-15c6.8-5.4 11.6-8.2 21.8-8.2s15 3.4 21.8 8.2c8.8 6.2 20.4 15 41.6 15s33.4-8.8 41.6-15c6.8-5.4 11.6-8.2 21.8-8.2s15 3.4 21.8 8.2c8.8 6.2 20.4 15 41.6 15s33.4-8.8 41.6-15c6.8-5.4 11.6-8.2 21.8-8.2 9.6 0 17-7.4 17-17zM455.4 463.2c8.8 6.2 20.4 15 41.6 15s33.4-8.8 41.6-15c6.8-5.4 11.6-8.2 21.8-8.2s15 3.4 21.8 8.2c8.8 6.2 20.4 15 41.6 15s33.4-8.8 41.6-15c6.8-5.4 11.6-8.2 21.8-8.2s15 3.4 21.8 8.2c8.8 6.2 20.4 15 41.6 15s33.4-8.8 41.6-15c6.8-5.4 11.6-8.2 21.8-8.2 9.6 0 17-7.6 17-17s-8.2-17-17-17c-21.2 0-33.4 8.8-41.6 15-6.8 5.4-11.6 8.2-21.8 8.2s-15-3.4-21.8-8.2c-8.8-6.2-20.4-15-41.6-15s-33.4 8.8-41.6 15c-6.8 5.4-11.6 8.2-21.8 8.2s-15-3.4-21.8-8.2c-8.8-6.2-20.4-15-41.6-15s-33.4 8.8-41.6 15c-6.8 5.4-11.6 8.2-21.8 8.2s-15-3.4-21.8-8.2c-8.8-6.2-20.4-15-41.6-15-9.6 0-17 7.6-17 17s7.6 17 17 17c10.2 0 15 3.4 21.8 8.2v0zM831.4 179c0-9.6-8.2-17-17-17-21.2 0-33.4 8.8-41.6 15-6.8 5.4-11.6 8.2-21.8 8.2s-15-3.4-21.8-8.2c-8.8-6.2-20.4-15-41.6-15s-33.4 8.8-41.6 15c-6.8 5.4-11.6 8.2-21.8 8.2s-15-3.4-21.8-8.2c-8.8-6.2-20.4-15-41.6-15s-33.4 8.8-41.6 15c-6.8 5.4-11.6 8.2-21.8 8.2s-15-3.4-21.8-8.2c-8.8-6.2-20.4-15-41.6-15-9.6 0-17 7.6-17 17s7.6 17 17 17c10.2 0 15 3.4 21.8 8.2 8.8 6.2 20.4 15 41.6 15s33.4-8.8 41.6-15c6.8-5.4 11.6-8.2 21.8-8.2s15 3.4 21.8 8.2c8.8 6.2 20.4 15 41.6 15s33.4-8.8 41.6-15c6.8-5.4 11.6-8.2 21.8-8.2s15 3.4 21.8 8.2c8.8 6.2 20.4 15 41.6 15s33.4-8.8 41.6-15c6.8-5.4 11.6-8.2 21.8-8.2 9.6 0 17-7.6 17-17zM831.4 49.4c0-9.6-8.2-17-17-17-21.2 0-33.4 8.8-41.6 15-6.8 5.4-11.6 8.2-21.8 8.2s-15-3.4-21.8-8.2c-8.8-6.2-20.4-15-41.6-15s-33.4 8.8-41.6 15c-6.8 5.4-11.6 8.2-21.8 8.2s-15-3.4-21.8-8.2c-8.8-6.2-20.4-15-41.6-15s-33.4 8.8-41.6 15c-6.8 5.4-11.6 8.2-21.8 8.2s-15-3.4-21.8-8.2c-8.8-6.2-20.4-15-41.6-15-9.6 0-17 7.6-17 17s7.6 17 17 17c10.2 0 15 3.4 21.8 8.2 8.8 6.2 20.4 15 41.6 15s33.4-8.8 41.6-15c6.8-5.4 11.6-8.2 21.8-8.2s15 3.4 21.8 8.2c8.8 6.2 20.4 15 41.6 15s33.4-8.8 41.6-15c6.8-5.4 11.6-8.2 21.8-8.2s15 3.4 21.8 8.2c8.8 6.2 20.4 15 41.6 15s33.4-8.8 41.6-15c6.8-5.4 11.6-8.2 21.8-8.2 9.6 0.2 17-7.4 17-17z" />
<glyph unicode="&#xe910;" glyph-name="cpu" data-tags="cpu" d="M280 832h60v-128h-60v128zM684 832h60v-128h-60v128zM549.2 832h60v-128h-60v128zM414.6 832h60v-128h-60v128zM280-64h60v-128h-60v128zM684-64h60v-128h-60v128zM549.2-64h60v-128h-60v128zM414.6-64h60v-128h-60v128zM0 88v60h128v-60h-128zM0 492v60h128v-60h-128zM0 357.2v60h128v-60h-128zM0 222.6v60h128v-60h-128zM896 88v60h128v-60h-128zM896 492v60h128v-60h-128zM896 357.2v60h128v-60h-128zM896 222.6v60h128v-60h-128zM744 552v-464h-464v464h464zM864 672h-704v-704h704v704z" />
<glyph unicode="&#xe911;" glyph-name="database" data-tags="database" d="M516.779 107.008c-34.133 0-67.584 0.683-101.035 2.731-109.909 5.461-225.28 13.653-326.315 50.517l18.432 51.2c94.208-34.133 204.8-42.325 310.613-47.104 106.496-5.461 216.405-2.048 326.315 10.24 49.152 5.461 112.64 13.653 172.715 33.451l16.384-51.883c-64.853-21.163-132.437-30.037-183.637-35.499-77.824-9.557-156.331-13.653-233.472-13.653zM516.779 407.381c-34.133 0-67.584 0.683-101.035 2.731-109.909 5.461-225.28 13.653-326.315 50.517l18.432 51.2c94.208-34.133 204.8-42.325 310.613-47.104 106.496-5.461 216.405-2.048 326.315 10.24 49.152 5.461 112.64 13.653 172.715 33.451l16.384-51.883c-64.853-21.163-132.437-30.037-183.637-35.499-77.824-9.557-156.331-13.653-233.472-13.653zM527.019 12.117c-161.109 0-312.661 16.384-406.187 43.691l13.653 45.739c89.429-25.941 236.203-41.643 393.216-41.643 148.139 0 289.451 14.336 379.563 38.229l12.288-46.421c-95.573-25.259-238.251-39.595-392.533-39.595zM527.019 312.491c-161.109 0-312.661 16.384-406.187 43.691l13.653 45.739c89.429-25.941 236.203-41.643 393.216-41.643 148.139 0 289.451 14.336 379.563 38.229l12.288-46.421c-95.573-25.259-238.251-39.595-392.533-39.595zM527.019 624.469c-161.109 0-312.661 16.384-406.187 43.691l13.653 45.739c89.429-25.941 236.203-41.643 393.216-41.643 148.139 0 289.451 14.336 379.563 38.229l12.288-46.421c-95.573-25.259-238.251-39.595-392.533-39.595zM866.304 586.923c0-19.605-15.893-35.499-35.499-35.499s-35.499 15.893-35.499 35.499c0 19.605 15.893 35.499 35.499 35.499s35.499-15.893 35.499-35.499zM866.304 286.549c0-19.605-15.893-35.499-35.499-35.499s-35.499 15.893-35.499 35.499c0 19.605 15.893 35.499 35.499 35.499s35.499-15.893 35.499-35.499zM866.304-26.795c0-19.605-15.893-35.499-35.499-35.499s-35.499 15.893-35.499 35.499c0 19.605 15.893 35.499 35.499 35.499s35.499-15.893 35.499-35.499zM513.366 757.589c106.496 0 209.579-7.509 290.816-21.163 73.728-12.288 109.227-25.941 124.245-34.133v-164.523c-2.048-0.683-4.096-2.048-6.827-3.413l-142.677-62.805 142.677-62.805c2.731-1.365 5.461-2.048 6.827-3.413v-164.523c-2.731-1.365-6.144-2.731-10.24-4.779l-151.552-62.805 152.235-62.805c4.096-2.048 7.509-3.413 10.24-4.779v-169.301c-15.019-7.509-49.835-21.163-124.245-34.133-81.237-13.653-184.32-21.163-290.816-21.163s-210.261 7.509-292.181 21.163c-74.411 12.288-109.227 25.941-124.928 34.133l1.365 168.619c2.731 1.365 6.144 2.731 10.923 4.779l153.6 64.171-154.283 62.805c-4.779 2.048-8.875 3.413-11.605 5.461l1.365 163.84c2.048 0.683 4.096 2.048 6.827 3.413l144.725 63.488-145.408 62.123c-3.413 1.365-6.144 2.731-8.875 4.096l0.683 163.84c15.019 7.509 50.517 21.163 124.928 34.133 81.92 12.971 185.685 20.48 292.181 20.48zM513.366 825.856c-269.653 0-485.376-45.739-485.376-102.4l-0.683-206.165c0-16.384 18.432-31.403 50.517-45.056-30.72-13.653-47.787-28.672-47.787-44.373l-1.365-206.848c0-17.067 19.797-32.768 54.613-47.104-33.451-13.653-52.565-30.037-52.565-46.421l-2.048-210.944c0-56.661 215.040-102.4 484.693-102.4s483.328 45.739 483.328 102.4v210.944c0 17.067-18.432 32.768-52.565 47.104 33.451 13.653 52.565 30.037 52.565 46.421v206.165c0 16.384-17.067 31.403-47.787 45.056 30.72 13.653 47.787 28.672 47.787 44.373v206.848c0 56.661-212.992 102.4-483.328 102.4v0z" />
<glyph unicode="&#xe912;" glyph-name="dot-circlefill" data-tags="circle-dots" d="M1021.952 318.635c0 18.432-1.365 36.864-2.731 54.613-0.683-0.683-1.365-0.683-1.365-1.365-25.259 237.568-212.992 426.667-449.877 452.608 0 0 0 0 0.683 0.683-18.432 2.048-36.864 2.731-55.296 2.731-0.683 0-0.683 0-1.365 0 0 0-0.683 0-0.683 0-1.365 0-2.731 0-4.779 0-3.413 0-6.827 0-10.24 0-275.115-7.509-494.933-232.789-494.933-509.269 0-281.259 228.011-509.952 509.952-509.952 262.827 0 479.232 198.656 507.221 454.656 0 0 0.683-0.683 0.683-0.683 1.365 17.749 2.731 36.864 2.731 55.979zM946.176 244.224c-7.509 3.413-16.384 5.461-24.576 5.461-40.96 0-68.267-30.72-68.267-68.267 0-31.403 19.115-58.027 49.835-66.219-14.336-27.307-30.72-52.565-49.835-76.459 0 2.048 0 4.096 0 6.144 0 34.133-30.72 68.267-68.267 68.267s-68.267-34.133-68.267-68.267c0-40.96 30.72-68.267 68.267-68.267 2.048 0 4.779 0 6.827 0-23.893-19.797-49.835-36.864-77.824-51.883-8.875 29.355-36.864 50.517-65.536 50.517-40.96 0-68.267-30.72-68.267-68.267 0-8.875 1.365-17.749 4.779-25.941-23.893-4.096-49.152-6.144-74.411-6.144-24.576 0-49.152 2.048-72.363 6.144 3.413 8.192 5.461 17.067 5.461 25.941 0 37.547-34.133 68.267-68.267 68.267-34.816 0-59.392-21.845-66.219-51.883-28.672 15.019-55.979 32.768-80.555 53.248 3.413-0.683 6.827-0.683 10.24-0.683 37.547 0 68.267 27.307 68.267 68.267 0 34.133-30.72 68.267-68.267 68.267s-68.267-34.133-68.267-68.267c0-3.413 0-6.827 0.683-10.24-20.48 24.576-38.229 51.2-53.248 79.872 27.989 7.509 52.565 34.133 52.565 66.219 0 37.547-34.133 68.267-68.267 68.267-10.24 0-19.115-2.048-27.307-5.461-4.096 23.893-6.144 48.469-6.144 73.728s2.048 49.835 6.144 73.728c8.192-3.413 17.067-5.461 27.307-5.461 34.133 0 68.267 30.72 68.267 68.267 0 31.403-24.576 58.709-52.565 66.219 15.019 28.672 32.768 55.296 53.248 79.872-0.683-2.731-0.683-6.144-0.683-8.875 0-40.96 30.72-68.267 68.267-68.267s68.267 27.307 68.267 68.267c0 34.133-30.72 68.267-68.267 68.267-2.731 0-5.461 0-8.192-0.683 23.893 19.797 50.517 36.864 78.507 51.2 6.827-29.355 31.403-51.883 66.219-51.883 34.133 0 68.267 30.72 68.267 68.267 0 8.875-2.048 17.749-5.461 25.941 23.893 4.096 47.787 6.144 72.363 6.144 25.259 0 49.835-2.048 74.411-6.144-2.731-8.192-4.779-16.384-4.779-25.941 0-37.547 27.307-68.267 68.267-68.267 28.672 0 57.344 21.845 65.536 50.517 27.307-14.336 52.565-30.72 76.459-49.835-2.048 0-3.413 0-5.461 0-37.547 0-68.267-34.133-68.267-68.267 0-40.96 30.72-68.267 68.267-68.267s68.267 27.307 68.267 68.267c0 1.365 0 3.413 0 4.779 19.115-23.211 36.181-49.152 49.835-76.459-30.72-7.509-49.835-34.133-49.835-66.219 0-37.547 27.307-68.267 68.267-68.267 8.192 0 16.384 2.048 24.576 5.461 4.096-23.893 6.144-48.469 6.144-73.728s-2.048-47.104-6.144-70.997zM580.267 45.568c0-40.96-30.72-68.267-68.267-68.267s-68.267 27.307-68.267 68.267c0 34.133 30.72 68.267 68.267 68.267s68.267-34.133 68.267-68.267zM580.267 318.635c0-40.96-30.72-68.267-68.267-68.267s-68.267 27.307-68.267 68.267c0 34.133 30.72 68.267 68.267 68.267s68.267-34.133 68.267-68.267zM443.733 591.701c0 34.133 30.72 68.267 68.267 68.267s68.267-34.133 68.267-68.267c0-40.96-30.72-68.267-68.267-68.267s-68.267 27.307-68.267 68.267zM307.2 318.635c0-40.96-30.72-68.267-68.267-68.267s-68.267 27.307-68.267 68.267c0 34.133 30.72 68.267 68.267 68.267s68.267-34.133 68.267-68.267zM853.333 318.635c0-40.96-30.72-68.267-68.267-68.267s-68.267 27.307-68.267 68.267c0 34.133 30.72 68.267 68.267 68.267s68.267-34.133 68.267-68.267zM307.2 454.485c0 37.547 27.307 68.267 68.267 68.267 34.133 0 68.267-30.72 68.267-68.267s-34.133-68.267-68.267-68.267c-40.96 0-68.267 30.72-68.267 68.267zM443.733 181.419c0-37.547-34.133-68.267-68.267-68.267-40.96 0-68.267 30.72-68.267 68.267s27.307 68.267 68.267 68.267c34.133 0 68.267-30.72 68.267-68.267zM716.8 181.419c0-37.547-34.133-68.267-68.267-68.267-40.96 0-68.267 30.72-68.267 68.267s27.307 68.267 68.267 68.267c34.133 0 68.267-30.72 68.267-68.267zM580.267 454.485c0 37.547 27.307 68.267 68.267 68.267 34.133 0 68.267-30.72 68.267-68.267s-34.133-68.267-68.267-68.267c-40.96 0-68.267 30.72-68.267 68.267z" />
<glyph unicode="&#xe913;" glyph-name="dot-diagonalfill" data-tags="circle-diagonal" d="M1019.221 318.635c0 0 0 0.683 0 0.683-0.683 92.16-25.259 178.176-68.267 252.587v0c-0.683 0.683-0.683 1.365-1.365 2.048-24.576 42.325-55.979 81.237-91.477 114.688-1.365 1.365-2.048 2.048-3.413 3.413v0c-27.989 25.259-58.027 47.787-90.795 66.901-0.683 0-0.683 0.683-1.365 0.683v0c-22.528 12.971-47.104 24.576-71.68 34.133v0c-1.365 0.683-3.413 1.365-4.779 2.048s-2.731 0.683-4.096 1.365c-10.923 4.096-22.528 8.192-34.133 10.923v0c-27.307 7.509-55.296 12.971-83.968 16.384v0c-18.432 2.048-36.181 2.731-54.613 2.731v0c0 0-0.683 0-0.683 0-40.277 0-79.872-4.779-117.419-13.653v0c-0.683 0-2.048-0.683-2.731-0.683-21.163-5.461-42.325-11.605-62.805-19.797-6.827-2.731-14.336-5.461-21.163-8.192l-0.683-0.683c-116.736-51.2-210.261-144.725-261.461-261.461l-0.683-0.683c-10.24-23.893-19.115-47.787-25.259-73.045-0.683-2.731-1.365-5.461-2.048-8.875-0.683-1.365-0.683-3.413-1.365-4.779v0c-8.875-37.547-13.653-77.141-13.653-117.419 0 0 0-0.683 0-0.683v0c0-6.827 0-13.653 0.683-20.48 0-3.413 0-6.827 0.683-10.24 0.683-8.192 1.365-16.384 1.365-23.893v0c3.413-28.672 8.875-56.661 16.384-83.968v0c4.096-15.019 8.875-29.355 14.336-43.008v0c9.557-24.576 21.163-49.152 34.133-71.68v0c5.461-10.24 11.605-19.115 17.749-28.672 0.683-1.365 2.048-2.731 2.731-4.096 0.683-0.683 1.365-2.048 2.048-2.731v0c13.653-19.797 28.672-38.912 45.056-56.661v0c9.557-10.24 19.115-19.797 28.672-28.672v0c17.749-16.384 36.864-31.403 56.661-45.056v0c0.683-0.683 1.365-0.683 2.048-1.365 1.365-0.683 2.731-2.048 4.096-2.731 4.779-3.413 9.557-6.144 14.336-8.875 2.731-2.048 5.461-3.413 8.875-5.461 2.048-1.365 4.779-2.731 6.827-4.096v0c74.411-43.008 161.109-67.584 253.952-67.584 40.277 0 79.872 4.779 117.419 13.653v0c1.365 0 2.731 0.683 3.413 0.683 4.096 0.683 8.192 2.048 12.288 3.413s8.192 2.048 12.288 3.413c4.096 1.365 8.192 2.731 12.288 4.096 2.731 0.683 5.461 2.048 8.192 2.731 4.779 2.048 9.557 3.413 15.019 5.461 7.509 2.731 15.701 6.144 23.211 8.875l0.683 0.683c178.859 78.507 304.469 258.048 304.469 467.627 0-0.683 0 0 0 0v0zM508.587-124.416c-28.672 0-56.661 2.731-83.285 8.192l517.461 517.461c5.461-27.307 8.192-54.613 8.192-83.285 0-3.413 0-6.827 0-10.24l-430.763-430.763c-4.779-1.365-8.192-1.365-11.605-1.365zM145.408 567.808l114.005 114.005c51.883 35.499 111.275 60.757 176.128 71.68l-361.131-361.131c10.24 64.171 34.816 123.563 70.997 175.445zM67.584 317.952c0 3.413 0 6.827 0 10.24l430.080 430.080c3.413 0 6.827 0 10.24 0 27.989 0 55.296-2.731 82.603-7.509l-515.413-515.413c-4.779 26.624-7.509 54.613-7.509 82.603zM86.699 189.611l550.229 550.229c25.941-8.192 51.2-18.432 75.093-30.72l-594.603-594.603c-12.288 23.893-23.211 48.469-30.72 75.093zM138.581 77.653l610.304 610.304c20.48-12.971 39.595-27.989 57.344-44.373l-623.275-623.275c-16.384 17.749-31.403 36.864-44.373 57.344zM211.627-8.363l623.275 623.275c16.384-17.749 30.72-36.864 44.373-57.344l-610.304-610.304c-20.48 12.971-39.595 27.989-57.344 44.373zM900.437 521.387c12.288-23.893 22.528-48.469 30.72-74.411l-551.595-551.595c-25.941 8.192-50.517 18.432-73.728 30.72l594.603 595.285zM874.496 69.461l-117.419-117.419c-51.2-34.816-110.592-59.392-174.763-70.315l361.813 361.813c-10.923-63.488-34.816-122.88-69.632-174.080z" />
<glyph unicode="&#xe914;" glyph-name="download" data-tags="download" d="M993.962-192h-963.925v335.872h136.533v-199.339h690.859v199.339h136.533zM507.904 33.28l-315.392 315.392 96.256 96.939 219.136-219.136 219.136 219.136 96.256-96.939zM432.128 832h136.533v-701.099h-136.533v701.099z" />
<glyph unicode="&#xe915;" glyph-name="edit" data-tags="edit" d="M613.8 368.8l-276.4-377-121.8-38.8 0.4 128 276.2 377 121.6-89.2zM739.4 388.2l-266.6 195.4-346.8-473.2v-29.2l-0.4-128-0.4-123.4 267.2 85.2 17.4 23.6 329.6 449.6zM248.534 56.959l276.445 377.119 18.066-13.243-276.445-377.119-18.066 13.243zM291.9 25.034l276.445 377.119 18.066-13.243-276.445-377.119-18.066 13.243zM806.2 635.4c3-2.2 3.6-6.4 1.4-9.4l-51.8-70.6-125 91.6 51.8 70.6c2.2 3 6.4 3.6 9.4 1.4l114.2-83.6zM859.4 707.8l-114.2 83.6c-43 31.6-103.6 22.2-135-20.8l-105-143.2 270.2-198 105 143.2c31.2 43.2 22 103.8-21 135.2v0zM185.493 89.087l13.243 18.066 188.56-138.223-13.243-18.066-188.56 138.223z" />
<glyph unicode="&#xe916;" glyph-name="ellipsis" data-tags="ellipsis" d="M131.072 450.389c-71.68 0-130.389-58.027-130.389-130.389s58.709-130.389 130.389-130.389c72.363 0 130.389 58.709 130.389 130.389 0 72.363-58.027 130.389-130.389 130.389v0zM512 450.389c-71.68 0-130.389-58.027-130.389-130.389s58.709-130.389 130.389-130.389c72.363 0 130.389 58.709 130.389 130.389 0 72.363-58.027 130.389-130.389 130.389v0zM892.928 450.389c-72.363 0-130.389-58.709-130.389-130.389 0-72.363 58.709-130.389 130.389-130.389 72.363 0 130.389 58.709 130.389 130.389 0 72.363-58.709 130.389-130.389 130.389v0z" />
<glyph unicode="&#xe917;" glyph-name="external-link" data-tags="external-link" d="M446.805 420.090c6.144 0 12.288-2.048 17.067-6.827l159.744-159.744c9.557-9.557 9.557-24.576 0-34.133l-6.827-6.827c-4.779-4.779-10.923-6.827-17.067-6.827s-12.288 2.048-17.067 6.827l-159.744 159.061c-9.557 9.557-9.557 24.576 0 34.133l6.827 6.827c4.779 4.779 10.923 7.509 17.067 7.509zM446.805 488.356c-24.576 0-47.787-9.557-65.536-27.307l-6.827-6.827c-36.181-36.181-36.181-94.891 0-131.072l159.744-159.744c17.749-17.749 40.96-27.307 65.536-27.307s47.787 9.557 65.536 27.307l6.827 6.827c36.181 36.181 36.181 94.891 0 131.072l-159.744 159.744c-17.749 17.067-40.96 27.307-65.536 27.307v0zM815.445-190.897c-56.661 0-109.909 21.845-149.504 61.44l-166.571 166.571c-67.584 67.584-81.237 172.715-33.451 256l58.709-34.133c-32.768-55.979-23.211-127.659 22.528-173.397l166.571-166.571c26.624-26.624 62.805-41.643 101.035-41.643 0 0 0 0 0 0 38.229 0 74.411 15.019 101.035 41.643s41.643 62.805 41.643 101.035c0 38.229-14.336 74.411-41.643 101.035l-166.571 166.571c-45.739 45.739-117.419 55.296-173.397 21.845l-34.133 58.709c83.285 48.469 188.416 34.816 256.683-32.768l166.571-166.571c39.595-39.595 61.44-92.843 61.44-149.504s-21.845-109.909-62.123-149.504c-39.595-38.912-92.843-60.757-148.821-60.757 0 0 0 0 0 0zM815.445-93.958c-29.355 0-58.709 10.923-80.555 33.451l-167.253 166.571c-29.355 29.355-40.96 73.045-28.672 113.323l65.536-19.115c-4.779-16.384 0-33.451 11.605-45.739l166.571-166.571c17.749-17.749 47.104-17.749 64.853 0s18.432 47.104 0 65.536l-166.571 165.888c-12.288 12.288-30.037 16.384-46.421 10.923l-21.163 64.853c40.96 12.971 85.333 2.731 116.053-27.989l166.571-166.571c21.845-21.845 33.451-50.517 33.451-81.237s-12.288-59.392-33.451-80.555c-22.528-21.845-51.883-32.768-80.555-32.768zM396.287 227.578c-54.613 0-108.544 21.163-149.504 62.123l-166.571 166.571c-82.603 82.603-82.603 216.405 0 299.008 81.92 82.603 216.405 82.603 299.008 0l166.571-166.571c68.949-68.949 81.237-179.541 28.672-262.827l-57.344 36.864c35.499 55.979 27.307 131.072-19.115 178.176l-167.253 165.888c-55.979 55.979-146.773 55.979-202.752 0s-55.296-146.091 0-202.069l167.253-166.571c46.421-46.421 120.149-55.296 176.128-20.48l35.499-58.027c-34.816-21.845-73.045-32.085-110.592-32.085zM396.287 325.199c-30.037 0-59.392 11.605-80.555 33.451l-167.253 166.571c-44.373 44.373-44.373 116.736 0 161.109 21.845 21.845 50.517 33.451 80.555 33.451 0 0 0 0 0 0 30.72 0 59.392-11.605 80.555-33.451l166.571-166.571c26.624-26.624 38.912-65.536 31.403-103.083l-66.901 12.971c2.731 15.019-2.048 30.72-12.288 41.643l-166.571 167.253c-8.875 8.875-20.48 13.653-32.768 13.653 0 0 0 0 0 0-12.288 0-23.893-4.779-32.768-13.653-17.749-17.749-17.749-47.104 0-64.853l167.253-167.253c10.923-10.923 25.941-15.701 41.643-12.971l12.971-66.901c-7.509-0.683-15.019-1.365-21.845-1.365zM1022.293 461.050h-68.267v279.893h-279.893v68.267h348.16zM962.281 797.099l48.271-48.271-290.111-290.111-48.271 48.271 290.111 290.111zM301.966 137.119l48.271-48.271-286.732-286.732-48.271 48.271 286.732 286.732z" />
<glyph unicode="&#xe918;" glyph-name="host" data-tags="host" d="M1020.8 564.4l-374.8 217.8-643.6-370.6 0.8-336 373.8-217.8 644.6 370.4-0.8 336.2zM645.8 643.6l234.6-136.2-503.2-284.6-233.6 131.6 502.2 289.2zM122.6 320.2l234.6-132.2v-179.8l-234.2 136.6-0.4 175.4zM397.2 8v180.2l503.8 284.8 0.4-175.2-504.2-289.8zM856.6 392.8l-283.6-162.6 0.2-54.4 283.6 162.6zM466.6 163.8v-54.2l70.2 41.2-0.2 54.4z" />
<glyph unicode="&#xe919;" glyph-name="sidekick" data-tags="sidekick" d="M1015.2 475.8c-43.8 53.6-289.8 89.8-503.2-93.4-199.6 178.8-459.4 147-503.2 93.4-43.8-97.2 86.8-375 148.4-375 67 0 260.6 64.6 329.8 99.4 13.8 7 36 7 50 0 69.2-34.8 262.8-99.4 329.8-99.4 61.6 0 192.2 277.8 148.4 375zM291.6 236.2c-51.6-1-130 55.2-148.6 92 28 30.6 124.4 43 164.2 34.8 27.6-5.6 92-25.8 98.6-72.2 3.6-24.6-38.4-53.2-114.2-54.6zM732.4 236.2c-75.8 1.4-117.8 30-114.2 54.6 6.6 46.4 71 66.6 98.6 72.2 39.8 8 136.2-4.4 164.2-34.8-18.6-37-97-93-148.6-92z" />
<glyph unicode="&#xe91a;" glyph-name="gitlab" data-tags="gitlab" d="M329 425c0 0-102.8 315-107.4 331.6-8.2 29.6-34 30.6-44.8 0 0 0-126.2-389.4-148.6-459s-20.6-67.8 0-88.6c13.6-13.6 483.8-348.2 483.8-348.2s470.2 334.6 483.8 348.2c20.6 20.6 22.4 18.8 0 88.6-22.4 69.6-148.6 459-148.6 459-11 30.6-36.6 29.6-44.8 0-4.6-16.6-107.4-331.6-107.4-331.6h-366zM78.4 421.2h246l176.2-536.4-422.2 536.4zM523.6-115.2l176.2 536.4h246l-422.2-536.4z" />
<glyph unicode="&#xe91b;" glyph-name="unmute" data-tags="unmute" d="M512-12c-166.6 0-302 135.4-302 302h60c0-133.4 108.6-242 242-242s242 108.6 242 242h60c0-166.6-135.4-302-302-302zM512 732c50.8 0 92-41.2 92-92v-350c0-50.8-41.2-92-92-92s-92 41.2-92 92v350c0 50.8 41.2 92 92 92zM512 832c-106 0-192-86-192-192v-350c0-106 86-192 192-192s192 86 192 192v350c0 106-86 192-192 192v0zM482 18h60v-206h-60v206zM384-132h256v-60h-256v60z" />
<glyph unicode="&#xe91c;" glyph-name="mute" data-tags="mute" d="M420 388.2v251.8c0 50.8 41.2 92 92 92s92-41.2 92-92v-67.8l97.6 97.6c-14.2 92-93.8 162.2-189.6 162.2-106 0-192-86-192-192v-350c0-0.6 0-1.2 0-1.8l100 100zM604 430.8v-140.8c0-50.8-41.2-92-92-92-38 0-70.6 23.2-84.6 56l-73.4-73.2c34.6-50 92.4-82.8 158-82.8 106 0 192 86 192 192v240.8l-100-100zM179.303 119.093l622.955 622.955 42.426-42.426-622.955-622.955-42.426 42.426zM210 290c0-33.6 5.6-66 15.6-96.2l49 49c-3 15.2-4.6 31-4.6 47.2h-60zM814 290h-60c0-133.4-108.6-242-242-242-79.2 0-149.6 38.2-193.6 97l-42.8-42.8c49.6-62.2 123-104.6 206.4-112.8v-121.4h-98v-60h256v60h-98v121.4c152.4 15.2 272 144.2 272 300.6z" />
<glyph unicode="&#xe91d;" glyph-name="file" data-tags="file" d="M897.706-188.587h-771.413v1017.173h507.904l263.509-262.144v-755.029zM194.56-120.321h634.88v658.773l-223.232 221.867h-411.648v-880.64zM849.92 535.039h-252.587v252.587h54.613v-197.973h197.973zM604.16 567.807c-27.307 0-42.325 10.923-53.931 19.115-10.24 7.509-17.749 12.971-34.133 12.971s-23.893-5.461-34.133-12.971c-11.605-8.875-26.624-19.115-53.931-19.115s-42.325 10.923-53.931 19.115c-10.24 7.509-17.749 12.971-34.133 12.971s-23.893-5.461-34.133-12.971c-11.605-8.875-26.624-19.115-53.931-19.115-9.557 0-17.067 7.509-17.067 17.067s7.509 17.067 17.067 17.067c16.384 0 23.893 5.461 34.133 12.971 11.605 8.875 26.624 19.115 53.931 19.115s42.325-10.923 53.931-19.115c10.24-7.509 17.749-12.971 34.133-12.971s23.893 5.461 34.133 12.971c11.605 8.875 26.624 19.115 53.931 19.115s42.325-10.923 53.931-19.115c10.24-7.509 17.749-12.971 34.133-12.971 9.557 0 17.067-7.509 17.067-17.067s-7.509-17.067-17.067-17.067zM780.288 459.263c-27.307 0-42.325 10.923-53.931 19.115-10.24 7.509-17.749 12.971-34.133 12.971s-23.893-5.461-34.133-12.971c-11.605-8.875-26.624-19.115-53.931-19.115s-42.325 10.923-53.931 19.115c-10.24 7.509-17.749 12.971-34.133 12.971s-23.893-5.461-34.133-12.971c-11.605-8.875-26.624-19.115-53.931-19.115s-42.325 10.923-53.931 19.115c-10.24 7.509-17.749 12.971-34.133 12.971s-23.893-5.461-34.133-12.971c-11.605-8.875-26.624-19.115-53.931-19.115-9.557 0-17.067 7.509-17.067 17.067s7.509 17.067 17.067 17.067c16.384 0 23.893 5.461 34.133 12.971 11.605 8.875 26.624 19.115 53.931 19.115s42.325-10.923 53.931-19.115c10.24-7.509 17.749-12.971 34.133-12.971s23.893 5.461 34.133 12.971c11.605 8.875 26.624 19.115 53.931 19.115s42.325-10.923 53.931-19.115c10.24-7.509 17.749-12.971 34.133-12.971s23.893 5.461 34.133 12.971c11.605 8.875 26.624 19.115 53.931 19.115s42.325-10.923 53.931-19.115c10.24-7.509 17.749-12.971 34.133-12.971 9.557 0 17.067-7.509 17.067-17.067s-7.509-17.067-17.067-17.067zM780.288 350.719c-27.307 0-42.325 10.923-53.931 19.115-10.24 7.509-17.749 12.971-34.133 12.971s-23.893-5.461-34.133-12.971c-11.605-8.192-26.624-19.115-53.931-19.115s-42.325 10.923-53.931 19.115c-10.24 7.509-17.749 12.971-34.133 12.971s-23.893-5.461-34.133-12.971c-11.605-8.875-26.624-19.115-53.931-19.115s-42.325 10.923-53.931 19.115c-10.24 7.509-17.749 12.971-34.133 12.971s-23.893-5.461-34.133-12.971c-11.605-8.875-26.624-19.115-53.931-19.115-9.557 0-17.067 7.509-17.067 17.067s7.509 17.067 17.067 17.067c16.384 0 23.893 5.461 34.133 12.971 11.605 8.875 26.624 19.115 53.931 19.115s42.325-10.923 53.931-19.115c10.24-7.509 17.749-12.971 34.133-12.971s23.893 5.461 34.133 12.971c11.605 8.875 26.624 19.115 53.931 19.115s42.325-10.923 53.931-19.115c10.24-7.509 17.749-12.971 34.133-12.971s23.893 5.461 34.133 12.971c11.605 8.875 26.624 19.115 53.931 19.115s42.325-10.923 53.931-19.115c10.24-7.509 17.749-12.971 34.133-12.971 9.557 0 17.067-7.509 17.067-17.067s-7.509-17.067-17.067-17.067zM780.288 242.858c-27.307 0-42.325 10.923-53.931 19.115-10.24 7.509-17.749 12.971-34.133 12.971s-23.893-5.461-34.133-12.971c-11.605-8.875-26.624-19.115-53.931-19.115s-42.325 10.923-53.931 19.115c-10.24 7.509-17.749 12.971-34.133 12.971s-23.893-5.461-34.133-12.971c-11.605-8.875-26.624-19.115-53.931-19.115s-42.325 10.923-53.931 19.115c-10.24 7.509-17.749 12.971-34.133 12.971s-23.893-5.461-34.133-12.971c-11.605-8.875-26.624-19.115-53.931-19.115-9.557 0-17.067 7.509-17.067 17.067s7.509 17.067 17.067 17.067c16.384 0 23.893 5.461 34.133 12.971 11.605 8.875 26.624 19.115 53.931 19.115s42.325-10.923 53.931-19.115c10.24-7.509 17.749-12.971 34.133-12.971s23.893 5.461 34.133 12.971c11.605 8.875 26.624 19.115 53.931 19.115s42.325-10.923 53.931-19.115c10.24-7.509 17.749-12.971 34.133-12.971s23.893 5.461 34.133 12.971c11.605 8.875 26.624 19.115 53.931 19.115s42.325-10.923 53.931-19.115c10.24-7.509 17.749-12.971 34.133-12.971 9.557 0 17.067-7.509 17.067-17.067s-7.509-17.067-17.067-17.067zM780.288 134.314c-27.307 0-42.325 10.923-53.931 19.115-10.24 7.509-17.749 12.971-34.133 12.971s-23.893-5.461-34.133-12.971c-11.605-8.875-26.624-19.115-53.931-19.115s-42.325 10.923-53.931 19.115c-10.24 7.509-17.749 12.971-34.133 12.971s-23.893-5.461-34.133-12.971c-11.605-8.875-26.624-19.115-53.931-19.115s-42.325 10.923-53.931 19.115c-10.24 7.509-17.749 12.971-34.133 12.971s-23.893-5.461-34.133-12.971c-11.605-8.875-26.624-19.115-53.931-19.115-9.557 0-17.067 7.509-17.067 17.067s7.509 17.067 17.067 17.067c16.384 0 23.893 5.461 34.133 12.971 11.605 8.875 26.624 19.115 53.931 19.115s42.325-10.923 53.931-19.115c10.24-7.509 17.749-12.971 34.133-12.971s23.893 5.461 34.133 12.971c11.605 8.875 26.624 19.115 53.931 19.115s42.325-10.923 53.931-19.115c10.24-7.509 17.749-12.971 34.133-12.971s23.893 5.461 34.133 12.971c11.605 8.875 26.624 19.115 53.931 19.115s42.325-10.923 53.931-19.115c10.24-7.509 17.749-12.971 34.133-12.971 9.557 0 17.067-7.509 17.067-17.067s-7.509-17.067-17.067-17.067zM780.288 30.549c-27.307 0-42.325 10.923-53.931 19.115-10.24 7.509-17.749 12.971-34.133 12.971s-23.893-5.461-34.133-12.971c-11.605-8.875-26.624-19.115-53.931-19.115s-42.325 10.923-53.931 19.115c-10.24 7.509-17.749 12.971-34.133 12.971s-23.893-5.461-34.133-12.971c-11.605-8.875-26.624-19.115-53.931-19.115s-42.325 10.923-53.931 19.115c-10.24 7.509-17.749 12.971-34.133 12.971s-23.893-5.461-34.133-12.971c-11.605-8.875-26.624-19.115-53.931-19.115-9.557 0-17.067 7.509-17.067 17.067s7.509 17.067 17.067 17.067c16.384 0 23.893 5.461 34.133 12.971 11.605 8.875 26.624 19.115 53.931 19.115s42.325-10.923 53.931-19.115c10.24-7.509 17.749-12.971 34.133-12.971s23.893 5.461 34.133 12.971c11.605 8.875 26.624 19.115 53.931 19.115s42.325-10.923 53.931-19.115c10.24-7.509 17.749-12.971 34.133-12.971s23.893 5.461 34.133 12.971c11.605 8.875 26.624 19.115 53.931 19.115s42.325-10.923 53.931-19.115c10.24-7.509 17.749-12.971 34.133-12.971 9.557 0 17.067-7.509 17.067-17.067s-7.509-17.067-17.067-17.067z" />
<glyph unicode="&#xe91e;" glyph-name="files" data-tags="files" d="M684.715 832h-432.128v-143.36h-150.187v-873.813h662.187v143.36h150.187v650.581l-230.059 223.232zM703.147 719.36l87.381-85.333h-87.381v85.333zM696.32-116.907h-525.653v737.28h327.68v-129.024c-6.144 1.365-10.923 4.779-16.384 8.875-10.24 7.509-23.211 17.067-47.104 17.067s-36.864-9.557-47.104-17.067c-8.875-6.144-14.336-10.24-27.307-10.24s-19.115 4.096-27.307 10.24c-10.24 7.509-23.211 17.067-47.104 17.067s-36.864-9.557-47.104-17.067c-8.875-6.144-14.336-10.24-27.307-10.24-9.557 0-17.067-7.509-17.067-17.067s7.509-17.067 17.067-17.067c23.893 0 36.864 9.557 47.104 17.067 8.875 6.144 14.336 10.24 27.307 10.24s19.115-4.096 27.307-10.24c10.24-7.509 23.211-17.067 47.104-17.067s36.864 9.557 47.104 17.067c8.875 6.144 14.336 10.24 27.307 10.24s19.115-4.096 27.307-10.24c8.875-6.144 19.115-13.653 36.181-16.384v-34.133h197.973v-539.307zM552.96 477.013v98.987l98.304-98.987h-98.304zM846.507 26.453h-81.92v433.493l-227.328 228.693h-216.405v75.093h327.68v-184.32h197.973v-552.96zM658.773 36.693c-12.971 0-19.115 4.096-27.307 10.24-10.24 7.509-23.211 17.067-47.104 17.067s-36.864-9.557-47.104-17.067c-8.875-6.144-14.336-10.24-27.307-10.24s-19.115 4.096-27.307 10.24c-10.24 7.509-23.211 17.067-47.104 17.067s-36.864-9.557-47.104-17.067c-8.875-6.144-14.336-10.24-27.307-10.24s-19.115 4.096-27.307 10.24c-10.24 7.509-23.211 17.067-47.104 17.067s-36.864-9.557-47.104-17.067c-8.875-6.144-14.336-10.24-27.307-10.24-9.557 0-17.067-7.509-17.067-17.067s7.509-17.067 17.067-17.067c23.893 0 36.864 9.557 47.104 17.067 8.875 6.144 14.336 10.24 27.307 10.24s19.115-4.096 27.307-10.24c10.24-7.509 23.211-17.067 47.104-17.067s36.864 9.557 47.104 17.067c8.875 6.144 14.336 10.24 27.307 10.24s19.115-4.096 27.307-10.24c10.24-7.509 23.211-17.067 47.104-17.067s36.864 9.557 47.104 17.067c8.875 6.144 14.336 10.24 27.307 10.24s19.115-4.096 27.307-10.24c10.24-7.509 23.211-17.067 47.104-17.067 8.875 0 17.067 7.509 17.067 17.067s-7.509 17.067-17.067 17.067zM435.541 403.968c-23.893 0-36.864-9.557-47.104-17.067-8.875-6.144-14.336-10.24-27.307-10.24s-19.115 4.096-27.307 10.24c-10.24 7.509-23.211 17.067-47.104 17.067s-36.864-9.557-47.104-17.067c-8.875-6.144-14.336-10.24-27.307-10.24-9.557 0-17.067-7.509-17.067-17.067s7.509-17.067 17.067-17.067c23.893 0 36.864 9.557 47.104 17.067 8.875 6.144 14.336 10.24 27.307 10.24s19.115-4.096 27.307-10.24c10.24-7.509 23.211-17.067 47.104-17.067s36.864 9.557 47.104 17.067c8.875 6.144 14.336 10.24 27.307 10.24s19.115-4.096 27.307-10.24c10.24-7.509 23.211-17.067 47.104-17.067s36.864 9.557 47.104 17.067c8.875 6.144 14.336 10.24 27.307 10.24s19.115-4.096 27.307-10.24c10.24-7.509 23.211-17.067 47.104-17.067 8.875 0 17.067 7.509 17.067 17.067s-7.509 17.067-17.067 17.067c-12.971 0-19.115 4.096-27.307 10.24-10.24 7.509-23.211 17.067-47.104 17.067s-36.864-9.557-47.104-17.067c-8.875-6.144-14.336-10.24-27.307-10.24s-19.115 4.096-27.307 10.24c-10.24 7.509-23.211 17.067-47.104 17.067zM658.773 263.339c-12.971 0-19.115 4.096-27.307 10.24-10.24 7.509-23.211 17.067-47.104 17.067s-36.864-9.557-47.104-17.067c-8.875-6.144-14.336-10.24-27.307-10.24s-19.115 4.096-27.307 10.24c-10.24 7.509-23.211 17.067-47.104 17.067s-36.864-9.557-47.104-17.067c-8.875-6.144-14.336-10.24-27.307-10.24s-19.115 4.096-27.307 10.24c-10.24 7.509-23.211 17.067-47.104 17.067s-36.864-9.557-47.104-17.067c-8.875-6.144-14.336-10.24-27.307-10.24-9.557 0-17.067-7.509-17.067-17.067s7.509-17.067 17.067-17.067c23.893 0 36.864 9.557 47.104 17.067 8.875 6.144 14.336 10.24 27.307 10.24s19.115-4.096 27.307-10.24c10.24-7.509 23.211-17.067 47.104-17.067s36.864 9.557 47.104 17.067c8.875 6.144 14.336 10.24 27.307 10.24s19.115-4.096 27.307-10.24c10.24-7.509 23.211-17.067 47.104-17.067s36.864 9.557 47.104 17.067c8.875 6.144 14.336 10.24 27.307 10.24s19.115-4.096 27.307-10.24c10.24-7.509 23.211-17.067 47.104-17.067 8.875 0 17.067 7.509 17.067 17.067s-7.509 17.067-17.067 17.067zM658.773 150.016c-12.971 0-19.115 4.096-27.307 10.24-10.24 7.509-23.211 17.067-47.104 17.067s-36.864-9.557-47.104-17.067c-8.875-6.144-14.336-10.24-27.307-10.24s-19.115 4.096-27.307 10.24c-10.24 7.509-23.211 17.067-47.104 17.067s-36.864-9.557-47.104-17.067c-8.875-6.144-14.336-10.24-27.307-10.24s-19.115 4.096-27.307 10.24c-10.24 7.509-23.211 17.067-47.104 17.067s-36.864-9.557-47.104-17.067c-8.875-6.144-14.336-10.24-27.307-10.24-9.557 0-17.067-7.509-17.067-17.067s7.509-17.067 17.067-17.067c23.893 0 36.864 9.557 47.104 17.067 8.875 6.144 14.336 10.24 27.307 10.24s19.115-4.096 27.307-10.24c10.24-7.509 23.211-17.067 47.104-17.067s36.864 9.557 47.104 17.067c8.875 6.144 14.336 10.24 27.307 10.24s19.115-4.096 27.307-10.24c10.24-7.509 23.211-17.067 47.104-17.067s36.864 9.557 47.104 17.067c8.875 6.144 14.336 10.24 27.307 10.24s19.115-4.096 27.307-10.24c10.24-7.509 23.211-17.067 47.104-17.067 8.875 0 17.067 7.509 17.067 17.067s-7.509 17.067-17.067 17.067z" />
<glyph unicode="&#xe91f;" glyph-name="folder" data-tags="folder" d="M1024-75.946h-1024v646.485h1024v-646.485zM68.267-7.68h887.467v509.952h-887.467v-509.952zM957.099 528.896l-66.901 12.971v51.2h-582.315v54.613h-110.592v-54.613h-62.123v-26.624h-68.267v94.891h62.123v54.613h247.125v-54.613h580.949z" />
<glyph unicode="&#xe920;" glyph-name="folder-open" data-tags="folder-open" d="M896.682-55.126h-811.008l-81.237 606.208h811.691l80.555-606.208zM145.066 13.141h673.792l-62.805 469.675h-673.792l62.805-469.675zM898.048-51.713l-66.901 12.971 106.496 610.987h-540.672v54.613h-111.275v-54.613h-62.123v-26.624h-68.267v94.891h62.123v54.613h247.808v-54.613h554.325z" />
<glyph unicode="&#xe921;" glyph-name="fork" data-tags="fork" d="M869.6-63.6c-211.4 0-383.6 172-383.6 383.6s172.2 383.6 383.6 383.6v-120c-145.4 0-263.6-118.2-263.6-263.6s118.2-263.6 263.6-263.6v-120zM729.2-187l-57.6 105.4 152 83.2-83.2 152 105.4 57.6 140.8-257.2zM845.8 428.8l-105.4 57.6 83.2 152-152 83.2 57.6 105.4 257.4-141zM37.4 380h508.6v-120h-508.6v120z" />
<glyph unicode="&#xe922;" glyph-name="github" data-tags="github" d="M512 832c-282.8 0-512-229.2-512-512s229.2-512 512-512 512 229.2 512 512-229.2 512-512 512zM939.4 321.6c0-58.4-11.6-115-33.6-167.6-21.4-51-52.6-97-92-136.4s-83.8-70.6-134.8-92c-13.2-5.8-29.6-10.6-37.8-14.8v76.4c0 40.2-15.6 69.8-43.6 88.8 17.2 2.4 32 4.2 46.8 7.4 14 3.2 28.8 7.4 45.2 13.2s30.4 12.4 43.6 20.6c13.2 7.4 25.4 18 37 30.4s21.4 27.2 29.6 42.8c8.2 15.6 14 34.6 19 56.8s7.4 46.8 7.4 73.2c0 51.8-16.4 96.2-50.2 132.4 15.6 40.2 14 83.8-5 130.6l-12.4 1.6c-0.8 0-2.4 0-3.2 0-9 0-23.8-4.2-43.6-11.6-22.2-8.2-47.6-22.2-75.6-41-39.4 10.6-80.6 16.4-123.2 16.4-43.6 0-84.6-5.8-123.2-16.4-17.2 11.6-34.6 21.4-50.2 29.6-15.6 7.4-28.8 13.2-37.8 15.6s-18 4.2-26.2 5c-5 0.8-9.8 0.8-12.4 0.8-1.6 0-2.4 0-3.2 0-2.4 0-4.2-0.8-5-0.8-19-47.6-20.6-91.2-5-130.6-33.6-37-50.2-80.6-50.2-132.4 0-26.2 2.4-51 7.4-73.2s10.6-41 19-56.8c8.2-16.4 18-30.4 29.6-42.8s23.8-22.2 37-30.4c13.2-8.2 27.2-14.8 43.6-20.6s31.2-9.8 46-13.2 30.4-5.8 47.6-7.4c-27.2-18-41-48.4-41-88.8v-78c-16.4 4.2-29.6 9.8-46.8 17.2-51 21.4-97 52.6-136.4 92s-70.6 85.4-92 136.4c-22.2 53.4-33.6 109.4-33.6 167.6s11.6 115 33.6 167.6c21.4 51 52.6 97 92 136.4s85.4 70.6 136.4 92c53.4 22.2 109.4 33.6 167.6 33.6s115-11.6 167.6-33.6c51-21.4 97-52.6 136.4-92s70.6-85.4 92-136.4c22-53.4 33.6-109.2 33.6-167.6z" />
<glyph unicode="&#xe923;" glyph-name="globe" data-tags="globe" d="M539.307 824.49v0.683h-54.613v-0.683c-266.24-14.336-477.867-234.155-477.867-504.491 0-279.211 225.963-505.173 505.173-505.173s505.173 225.963 505.173 505.173c0 270.336-211.627 490.155-477.867 504.491zM719.531 45.567c21.163 47.104 38.229 101.717 47.787 166.571 27.307 10.923 53.248 23.211 77.141 37.547 44.373 26.624 79.189 57.344 103.765 90.112 0-6.827 0.683-12.971 0.683-19.797 0-48.469-8.192-95.573-23.211-139.264-36.181-54.613-109.909-104.448-206.165-135.168zM102.401 168.447c-17.749 47.104-27.307 98.304-27.307 151.552 0 4.779 0 9.557 0.683 14.336 38.229-52.565 101.717-95.573 181.589-125.611 9.557-64.171 26.624-119.467 48.469-165.888-92.16 26.624-165.205 71.68-203.435 125.611zM118.102 509.781c37.547-31.403 84.651-58.027 139.264-77.824-5.461-34.816-8.192-71.68-8.192-111.957 0-17.067 0.683-33.451 2.048-49.835-90.112 38.912-150.869 97.621-160.427 163.84 6.827 25.941 15.701 51.883 27.307 75.776zM933.206 434.687c-10.24-58.709-69.632-118.784-160.427-160.427 0.683 15.019 1.365 30.037 1.365 45.739 0 42.325-3.413 81.237-8.875 117.419 52.565 21.163 98.987 47.787 135.851 80.555 13.653-26.624 24.576-53.931 32.085-83.285zM720.214 319.999c0-23.211-1.365-45.739-3.413-68.267-52.565-17.067-112.64-28.672-177.493-31.403v169.984c60.757 2.731 120.149 12.288 174.080 28.672 4.779-31.403 6.827-64.171 6.827-98.987zM539.307 445.61v133.803c40.277 2.048 80.555 8.192 117.419 18.432 20.48-38.229 35.499-79.872 46.421-124.245-50.517-15.701-106.496-25.259-163.84-27.989zM539.307 634.026v107.861c19.797-15.701 43.008-36.864 65.536-65.536 8.192-9.557 15.019-19.797 22.528-30.037-27.989-6.144-58.027-10.923-88.064-12.288zM617.814 743.935c43.691-10.923 85.333-28.672 122.197-51.883-17.749-10.923-37.547-20.48-58.709-28.672-19.797 32.085-42.325 58.709-63.488 80.555zM419.158 676.351c22.528 27.989 45.739 49.835 65.536 65.536v-107.179c-30.72 1.365-60.075 5.461-88.064 12.288 6.827 9.557 14.336 19.797 22.528 29.355zM342.017 662.698c-21.845 8.192-41.643 17.749-59.392 29.355 37.547 23.211 79.189 40.96 123.563 51.883-21.163-21.845-43.691-49.152-64.171-81.237zM484.694 579.413v-134.485c-58.027 2.048-114.005 10.24-164.523 24.576 10.24 45.739 25.941 88.747 47.104 127.659 36.181-9.557 75.776-15.701 117.419-17.749zM484.694 390.997v-169.984c-64.171 2.048-124.245 12.288-177.493 28.672-2.048 22.528-3.413 46.421-3.413 70.315 0 32.768 2.048 64.853 6.144 95.573 53.931-14.336 113.323-23.211 174.763-24.576zM315.393 190.293c51.883-13.653 108.544-22.528 169.301-23.893v-151.552c-37.547 1.365-74.411 5.461-109.227 11.605-27.989 49.152-48.469 103.765-60.075 163.84zM484.694-39.766v-61.44c-19.797 15.701-43.008 36.864-65.536 64.853-0.683 0.683-0.683 1.365-1.365 2.048 21.845-3.413 44.373-4.779 66.901-5.461zM539.307-101.889v62.123c22.528 0.683 45.056 2.731 67.584 5.461-0.683-0.683-1.365-1.365-2.048-2.048-22.528-28.672-45.739-50.517-65.536-65.536zM539.307 14.847v151.552c58.709 2.048 116.053 10.923 169.301 25.941-11.605-60.757-31.403-115.371-60.075-165.205-34.133-6.827-70.997-10.923-109.227-12.288zM873.131 565.759c-30.72-28.672-71.68-53.931-118.784-73.728-11.605 46.421-27.307 87.381-45.739 123.563 29.355 11.605 55.979 25.941 79.189 43.008 32.768-26.624 61.44-58.027 85.333-92.843zM235.521 657.919c22.528-17.067 49.152-31.403 79.189-43.691-18.432-36.864-34.816-79.189-46.421-127.659-48.469 18.432-90.795 43.008-122.197 70.997 24.576 38.229 54.613 71.68 89.429 100.352zM182.955 33.279c45.739-24.576 99.669-43.691 158.379-55.979 20.48-32.085 42.325-58.709 63.488-80.555-87.381 21.845-164.523 70.315-221.867 136.533zM619.179-103.937c21.845 22.528 43.691 49.835 64.853 82.603 60.075 14.336 116.736 35.499 165.888 64.171-58.709-70.997-139.264-123.563-230.741-146.773z" />
<glyph unicode="&#xe924;" glyph-name="hamburger-nav" data-tags="hamburger-nav" d="M3.072 743.254h1017.856v-203.435h-1017.856v203.435zM3.072 417.622h1017.856v-203.435h-1017.856v203.435zM3.072 100.182h1017.856v-203.435h-1017.856v203.435z" />
<glyph unicode="&#xe925;" glyph-name="hdd" data-tags="hdd" d="M856.746-195.413h-689.493c-26.624 0-47.787 21.163-47.787 47.787v935.253c0 26.624 21.163 47.787 47.787 47.787h689.493c26.624 0 47.787-21.163 47.787-47.787v-935.253c0-26.624-21.163-47.787-47.787-47.787zM187.733-127.146h648.533v894.293h-648.533v-894.293zM514.73 160.939c-157.696 0-286.72 128.341-286.72 286.72s128.341 286.72 286.72 286.72 286.72-128.341 286.72-286.72-128.341-286.72-286.72-286.72zM514.73 665.43c-120.149 0-218.453-97.621-218.453-218.453s97.621-218.453 218.453-218.453c120.149 0 218.453 97.621 218.453 218.453s-97.621 218.453-218.453 218.453zM514.73 341.846c-58.709 0-105.813 47.787-105.813 105.813 0 58.709 47.787 105.813 105.813 105.813s105.813-47.787 105.813-105.813c0-58.709-47.104-105.813-105.813-105.813zM514.73 519.339c-39.595 0-71.68-32.085-71.68-71.68s32.085-71.68 71.68-71.68 71.68 32.085 71.68 71.68c0 39.595-32.085 71.68-71.68 71.68zM514.73 393.728c-29.355 0-53.248 23.893-53.248 53.248s23.893 53.248 53.248 53.248c29.355 0 53.248-23.893 53.248-53.248s-23.893-53.248-53.248-53.248zM514.73 473.6c-14.336 0-25.941-11.605-25.941-25.941s11.605-25.941 25.941-25.941 25.941 11.605 25.941 25.941-11.605 25.941-25.941 25.941zM223.232 649.728h-42.325v27.307h42.325c10.24 0 19.797 10.24 19.797 21.845 0 10.923-8.192 19.115-18.432 19.115h-43.691v27.307h43.691c25.259 0 45.739-21.163 45.739-46.421 0-26.624-21.845-49.152-47.104-49.152zM856.746 650.411h-49.152c-25.259 0-45.739 20.48-45.739 46.421 0 25.259 21.845 46.421 47.104 46.421l45.056 0.683 0.683-27.307-45.739-0.683c-10.923 0-20.48-8.875-20.48-19.115 0-10.923 8.192-19.115 18.432-19.115h49.152v-27.307zM223.232 168.448h-42.325v27.307h42.325c10.24 0 19.797 9.557 19.797 20.48s-8.192 20.48-18.432 20.48h-43.691v27.307h43.691c25.259 0 45.739-21.163 45.739-47.787 0-25.941-21.163-47.787-47.104-47.787zM856.746 169.131h-49.152c-25.259 0-45.739 20.48-45.739 46.421 0 25.259 21.845 46.421 47.104 46.421l45.056 0.683 0.683-27.307-45.739-0.683c-10.923 0-20.48-8.875-20.48-19.115 0-10.923 8.192-19.115 18.432-19.115h49.152v-27.307zM516.096 54.443c-18.432 0-36.864 10.24-45.739 27.307-6.827 12.288-8.192 26.624-4.096 39.595 4.096 13.653 12.971 24.576 25.259 30.72l1.365 0.683 223.232 96.256c15.701 8.192 35.499 2.048 43.691-13.653 4.096-7.509 4.779-16.384 2.731-25.259-2.731-8.192-8.192-15.019-15.701-19.115l-206.165-130.389c-8.192-4.096-16.384-6.144-24.576-6.144zM503.808 128.171c-5.461-3.413-9.557-8.192-11.605-14.336s-1.365-12.971 2.048-19.115c6.144-11.605 21.163-16.384 33.451-10.24l206.165 130.389c2.048 0.683 2.731 2.731 2.731 3.413s0.683 2.731-0.683 4.096c-1.365 2.731-4.779 3.413-7.509 2.048l-1.365-0.683-223.232-95.573zM849.92 16.214h-218.453v70.997c0 24.576 21.163 45.056 47.787 45.056h170.667v-116.053zM658.773 43.52h163.84v61.44h-143.36c-9.557 0-20.48-6.827-20.48-17.749v-43.691zM529.066-4.266h-43.008c-7.509 0-13.653 6.144-13.653 13.653v13.653c0 10.24-8.875 19.797-19.797 19.797s-19.797-8.192-19.797-18.432v-15.019c0-7.509-6.144-13.653-13.653-13.653h-183.637c-7.509 0-13.653 6.144-13.653 13.653v137.216c0 6.827 4.779 12.288 10.923 13.653 21.163 4.096 43.008 25.941 43.008 51.883 0 2.731-0.683 6.144-1.365 9.557-1.365 6.144 2.048 11.605 7.509 14.336s12.288 1.365 16.384-2.731c46.421-50.517 106.496-83.968 173.397-95.573 7.509-1.365 12.288-8.192 10.923-15.701s-8.192-12.288-15.701-10.923c-62.805 10.923-119.467 38.912-166.571 81.92-7.509-26.624-28.672-47.104-51.2-55.296v-114.688h157.013v1.365c0 25.259 21.163 45.739 47.104 45.739 25.259 0 47.104-21.845 47.104-47.104h15.019v40.96c0 7.509 6.144 13.653 13.653 13.653s13.653-6.144 13.653-13.653v-54.613c0-7.509-6.144-13.653-13.653-13.653zM537.941 111.104c0-9.426-7.641-17.067-17.067-17.067s-17.067 7.641-17.067 17.067c0 9.426 7.641 17.067 17.067 17.067s17.067-7.641 17.067-17.067zM469.674 22.358c0-9.426-7.641-17.067-17.067-17.067s-17.067 7.641-17.067 17.067c0 9.426 7.641 17.067 17.067 17.067s17.067-7.641 17.067-17.067zM828.757 216.235c0-9.426-7.641-17.067-17.067-17.067s-17.067 7.641-17.067 17.067c0 9.426 7.641 17.067 17.067 17.067s17.067-7.641 17.067-17.067zM234.154 216.235c0-9.426-7.641-17.067-17.067-17.067s-17.067 7.641-17.067 17.067c0 9.426 7.641 17.067 17.067 17.067s17.067-7.641 17.067-17.067zM828.757 697.515c0-9.426-7.641-17.067-17.067-17.067s-17.067 7.641-17.067 17.067c0 9.426 7.641 17.067 17.067 17.067s17.067-7.641 17.067-17.067zM234.154 697.515c0-9.426-7.641-17.067-17.067-17.067s-17.067 7.641-17.067 17.067c0 9.426 7.641 17.067 17.067 17.067s17.067-7.641 17.067-17.067zM223.232-98.474h-42.325v27.307h42.325c10.24 0 19.797 10.24 19.797 21.845 0 10.923-8.192 19.115-18.432 19.115h-43.691v27.307h43.691c25.259 0 45.739-21.163 45.739-46.421 0-26.624-21.845-49.152-47.104-49.152zM856.746-97.792h-49.152c-25.259 0-45.739 20.48-45.739 46.421 0 25.259 21.845 46.421 47.104 46.421l45.056 0.683 0.683-27.307-45.739-0.683c-10.923 0-20.48-8.875-20.48-19.115 0-10.923 8.192-19.115 18.432-19.115h49.152v-27.307zM828.757-50.688c0-9.426-7.641-17.067-17.067-17.067s-17.067 7.641-17.067 17.067c0 9.426 7.641 17.067 17.067 17.067s17.067-7.641 17.067-17.067zM234.154-50.688c0-9.426-7.641-17.067-17.067-17.067s-17.067 7.641-17.067 17.067c0 9.426 7.641 17.067 17.067 17.067s17.067-7.641 17.067-17.067zM679.253 57.174h13.653v-47.787h-13.653v47.787zM715.434 57.174h13.653v-47.787h-13.653v47.787zM752.298 57.174h13.653v-47.787h-13.653v47.787zM788.48 57.174h13.653v-47.787h-13.653v47.787zM679.253 145.92h13.653v-47.787h-13.653v47.787zM715.434 145.92h13.653v-47.787h-13.653v47.787zM752.298 145.92h13.653v-47.787h-13.653v47.787zM788.48 145.92h13.653v-47.787h-13.653v47.787z" />
<glyph unicode="&#xe926;" glyph-name="help" data-tags="help" d="M512 712c104.8 0 203.2-40.8 277.2-114.8s114.8-172.4 114.8-277.2-40.8-203.2-114.8-277.2-172.4-114.8-277.2-114.8-203.2 40.8-277.2 114.8-114.8 172.4-114.8 277.2 40.8 203.2 114.8 277.2 172.4 114.8 277.2 114.8zM512 832c-282.8 0-512-229.2-512-512s229.2-512 512-512 512 229.2 512 512-229.2 512-512 512v0zM572 163h-120v186h60c47.4 0 86 38.6 86 86s-38.6 86-86 86-86-38.6-86-86h-120c0 113.6 92.4 206 206 206s206-92.4 206-206c0-92.8-61.6-171.4-146-197v-75zM572 60c0-33.137-26.863-60-60-60s-60 26.863-60 60c0 33.137 26.863 60 60 60s60-26.863 60-60z" />
<glyph unicode="&#xe927;" glyph-name="chevron-beginning" data-tags="chevron-beginning" d="M843.2-194.4l-514.8 514.7 514.7 514 120.9-120.7-393.9-393.3 393.9-393.9-120.8-120.8zM230.9 832v-1024h-170.9v1024h170.9z" />
<glyph unicode="&#xe928;" glyph-name="home" data-tags="home" d="M314 466.6v-474h396v474l120-100v-494h-636v494l120 100zM932 177.8l-420 420-420-420-84.8 84.8 504.8 504.8 504.8-504.8z" />
<glyph unicode="&#xe929;" glyph-name="hosts, cluster" data-tags="hosts, cluster" d="M904.533 763.733v-177.493h-785.067v177.493h785.067zM972.8 832h-921.6v-314.027h921.6v314.027zM174.080 709.12h546.133v-68.267h-546.133v68.267zM754.346 709.12h95.573v-68.267h-95.573v68.267zM904.533 412.16v-177.493h-785.067v177.493h785.067zM972.8 480.426h-921.6v-314.027h921.6v314.027zM174.080 357.546h546.133v-68.267h-546.133v68.267zM754.346 357.546h95.573v-68.267h-95.573v68.267zM904.533 60.586v-184.32h-785.067v184.32h785.067zM972.8 128.853h-921.6v-320.853h921.6v320.853zM174.080 5.973h546.133v-75.093h-546.133v75.093zM754.346 5.973h95.573v-75.093h-95.573v75.093z" />
<glyph unicode="&#xe92a;" glyph-name="info" data-tags="info" d="M512 712c104.8 0 203.2-40.8 277.2-114.8s114.8-172.4 114.8-277.2-40.8-203.2-114.8-277.2-172.4-114.8-277.2-114.8-203.2 40.8-277.2 114.8-114.8 172.4-114.8 277.2 40.8 203.2 114.8 277.2 172.4 114.8 277.2 114.8zM512 832c-282.8 0-512-229.2-512-512s229.2-512 512-512 512 229.2 512 512-229.2 512-512 512v0zM452 446h120v-446h-120v446zM591 559c0-43.63-35.37-79-79-79s-79 35.37-79 79c0 43.63 35.37 79 79 79s79-35.37 79-79z" />
<glyph unicode="&#xe92b;" glyph-name="key" data-tags="key" d="M512 761.6c101 0 183-82 183-183s-82-183-183-183-183 82-183 183c0 101.2 82 183 183 183zM512 830c-138.6 0-251.2-113.4-251.2-252s112.6-251.2 251.2-251.2 251.2 112.6 251.2 251.2-112.6 252-251.2 252c0 0 0 0 0 0zM566 662.6c0-29.8-24.2-54-54-54s-54 24.2-54 54 24.2 54 54 54 54-24.2 54-54zM475.8-190l-123.6 123.6 61.4 61.4-49.2 41.6 47.2 47.2-45 45 45 45-45 45 45 45-45 45 79.8 79.8h176.8v-431.4l-147.4-147.2zM449.2-66.4l26.6-26.6 79.2 79.2v334.4h-80.6l-11-11 45-45-45-45 45-45-45-45 45-45-43-43 49.2-41.6-65.4-66.4z" />
<glyph unicode="&#xe92c;" glyph-name="kubernetes" data-tags="kubernetes" d="M405.4 305.7c6.8 8 5.8 19.4-2.2 26.4l-84.8 75.6c-25.2-42.4-36.6-91.6-33.2-139.6l111 32c4.6 1 7 2 9.2 5.6zM455.8 380.1c10.4 0 19.4 8 19.4 18.4l5.8 114.4-22.8-4.6c-40-9.2-76.8-29.8-106.4-58.4l95-67.6c3.2-1.2 5.6-2.2 9-2.2zM478.6 265.5l31-14.8 31 14.8 8 33.2-21.8 27.6h-34.4l-21.8-27.6zM546.2 388.1c5.8-8 17.2-9.2 25.2-4.6l93.8 66.4c-34.4 34.4-79 56.2-129.4 61.8l6.8-115.6c0.2-3.4 1.4-5.8 3.6-8zM412.2 233.5l-113.4-19.4c16-45.8 48-85.8 88.2-112.2l43.6 105.4c2.2 3.4 2.2 8 1.2 11.4-1.2 9-10.4 14.8-19.6 14.8zM516.4 184.3c-8 4.6-17.2 2.2-22.8-4.6l-56.2-101.8c22.8-6.8 48-11.4 72.2-11.4 17.2 0 33.2 2.2 49.2 5.8 8 2.2 14.8 3.4 21.8 4.6l-55 99.6c-3.4 3.2-5.6 5.4-9.2 7.8zM699.6 407.5l-85.8-77.8c-2.2-2.2-3.4-4.6-4.6-8-2.2-10.4 3.4-20.6 13.8-22.8l108.8-31c2.2 24 1.2 48-4.6 72.2-5.8 24-15 46.8-27.6 67.4zM1012.2 215.1l-87 374.4c-5.8 18.4-19.4 33.2-36.6 42.4l-349.2 167.2c-9.2 4.6-19.4 5.8-28.6 5.8s-19.4 0-28.6-2.2l-349.2-168.4c-17.2-8-29.8-22.8-34.4-42.4l-85.8-376.8c-3.4-19.4 1.2-39 12.6-55l241.6-298.8c13.8-13.8 33.2-22.8 52.6-24h384.6c20.6-2.2 40 6.8 52.6 24l241.6 298.8c11.6 16.2 16.2 35.6 13.8 55zM869.2 189.9c-2.2 0-3.4 0-5.8 1.2-1.2 1.2-1.2 1.2-2.2 1.2-2.2 0-3.4 1.2-4.6 1.2-4.6 1.2-8 3.4-12.6 5.8-2.2 0-4.6 1.2-6.8 2.2h-1.2c-11.4 4.6-24 8-36.6 10.4h-1.2c-3.4 0-6.8-1.2-9.2-3.4 0 0 0-1.2-1.2-1.2l-9.2 1.2c-20.6-65.2-65.2-120.2-123.6-155.8l3.4-9.2c0 0-1.2 0-1.2-1.2-2.2-3.4-2.2-8-1.2-11.4 4.6-11.4 10.4-22.8 18.4-33.2v-2.2c2.2-2.2 3.4-3.4 4.6-5.8 3.4-3.4 5.8-6.8 8-11.4 1.2-1.2 2.2-2.2 2.2-3.4 0 0 1.2 0 1.2-1.2 2.2-5.8 2.2-11.4 1.2-17.2-1.2-5.8-5.8-10.4-10.4-12.6-3.4-1.2-5.8-2.2-9.2-2.2-9.2 0-17.2 5.8-21.8 13.8-1.2 0-1.2 1.2-1.2 1.2-1.2 1.2-1.2 2.2-2.2 3.4-2.2 3.4-3.4 8-4.6 12.6l-2.2 6.8v1.2c-3.4 12.6-9.2 24-14.8 35.4-2.2 3.4-5.8 5.8-9.2 6.8 0 1.2 0 1.2-1.2 1.2l-4.6 8c-11.4-3.4-24-8-36.6-10.4-20.6-5.8-41.2-8-61.8-8-34.4 0-67.6 5.8-99.6 18.4l-4.6-9.2c0-1.2 0-1.2-1.2-1.2-3.4-1.2-6.8-3.4-9.2-6.8-5.8-11.4-11.4-22.8-14.8-35.4l-2.2-6.8c-1.2-4.6-3.4-8-4.6-12.6-1.2-1.2-2.2-2.2-2.2-3.4-1.2 0-1.2-1.2-1.2-1.2-4.6-8-12.6-13.8-21.8-13.8-2.2 0-5.8 1.2-8 2.2-10.4 5.8-14.8 19.4-9.2 31 1.2 0 1.2 1.2 1.2 1.2 1.2 1.2 1.2 2.2 2.2 3.4 3.4 4.6 5.8 9.2 8 11.4s3.4 3.4 4.6 5.8v1.2c6.8 10.4 13.8 21.8 18.4 33.2 1.2 3.4 1.2 8-1.2 11.4 0 0-1.2 0-1.2 1.2l5.8 8c-11.4 5.8-20.6 12.6-31 20.6-44.6 34.4-76.8 81.2-93.8 134l-10.4-1.2c0 0 0 1.2-1.2 1.2-2.2 2.2-5.8 3.4-9.2 3.4h-1.2c-13.8-2.2-25.2-5.8-37.8-10.4h-1.2c-2.2 0-4.6-1.2-6.8-2.2-3.4-1.2-8-3.4-12.6-4.6-1.2 0-4.6 1.2-4.6 0s0-1.2-1.2-1.2c-2.2-1.2-3.4-1.2-5.8-1.2-10.4-1.2-20.6 5.8-22.8 16-2.2 12.6 5.8 24 18.4 26.4 1.2 1.2 1.2 1.2 2.2 1.2 2.2 0 3.4 1.2 4.6 1.2 4.6 0 9.2 1.2 13.8 1.2 2.2 1.2 4.6 1.2 6.8 1.2 13.8 1.2 26.4 3.4 39 6.8 3.4 2.2 6.8 4.6 8 8 0 0 1.2 0 1.2 1.2l9.2 2.2c-10.4 65.2 4.6 131.6 40 187.8 1.2 2.2 2.2 3.4 3.4 5.8l-6.6 6.6c0-0.4 0-0.6-0.2-1v1.2l0.2-0.2c0.6 3.2-1.6 7.2-3.6 9.4-9.2 9.2-20.6 16-32 22.8-2.2 1.2-4.6 2.2-6.8 3.4-4.6 2.2-9.2 4.6-12.6 6.8-1.2 0-3.4 2.2-3.4 2.2s0 1.2-1.2 1.2c-9.2 8-11.4 21.8-4.6 32 3.4 5.8 9.2 8 16 8 5.8 0 11.4-2.2 16-5.8 0 0 0 0 1.2-1.2s2.2-1.2 3.4-2.2c3.4-3.4 5.8-6.8 9.2-10.4 1.2-1.2 3.4-2.2 4.6-4.6 8-9.2 18.4-18.4 28.6-26.4 2.2-1.2 4.6-2.2 6.8-2.2s3.4 1.2 4.6 1.2h1.2l6.8-4.6c37.8 40 87 68.6 140.8 80.2 13.8 2.2 26.4 4.6 39 5.8l1.2 9.2v2.2c3.4 2.2 4.6 5.8 5.8 9.2 0 13.8 0 26.4-2.2 39v1.2c0 2.2 0 4.6-1.2 6.8-1.2 4.6-2.2 9.2-2.2 13.8v5.8c0 5.8 2.2 11.4 6.8 16 5.8 5.8 12.6 9.2 19.4 8 11.4-1.2 20.6-12.6 19.4-24v-6.8c-1.2-4.6-1.2-9.2-2.2-13.8 0-2.2-1.2-4.6-1.2-6.8v-1.2c-2.2-13.8-2.2-26.4-2.2-39 1.2-3.4 2.2-6.8 5.8-9.2v1.2l1.2-9.2c53.8-5.8 106.4-26.4 148.8-59.6 9.2-9.2 19.4-18.4 28.6-27.4l9.2 5.8h1.2c1.2-1.2 3.4-1.2 4.6-1.2 2.2 0 4.6 1.2 6.8 2.2 10.4 6.8 20.6 16 28.6 25.2 1.2 1.2 3.4 2.2 4.6 4.6 2.2 3.4 5.8 6.8 9.2 10.4 1.2 0 2.2 1.2 3.4 2.2l1.2 1.2c4.6 3.4 10.4 5.8 16 5.8 5.8 0 12.6-3.4 16-8 8-10.4 5.8-24-4.6-32 0-1.2 1.2-1.2 0-2.2-1.2-1.2-2.2-1.2-3.4-2.2-4.6-2.2-8-4.6-12.6-6.8-2.2-1.2-4.6-2.2-6.8-3.4-11.4-6.8-21.8-13.8-32-22.8-2.2-2.2-3.4-6.8-3.4-10.4v-1.2l-6.8-6.8c18.4-28.6 32-60.6 40-93.8 6.8-33.2 9.2-67.6 4.6-100.8l9.2-2.2c0 0 1.2 0 0 0 1.2-3.4 4.6-6.8 8-8 12.6-3.4 26.4-5.8 39-6.8h1.2c2.2-1.2 4.6-1.2 6.8-1.2 4.6 0 9.2 0 13.8-1.2 2.2 0 4.6 0 4.6-1.2s1.2-1.2 2.2-1.2c10.4-2.2 19.4-11.4 20.6-24-3.8-9.8-13-16.8-23.2-16.8zM595.4 232.3c-8-3.4-12.6-12.6-10.4-21.8l44.6-107.6c27.4 17.2 51.6 41.2 68.6 68.6 9.2 12.6 16 27.4 21.8 43.6l-114.4 19.4c-3.2 0.2-6.6-1-10.2-2.2z" />
<glyph unicode="&#xe92d;" glyph-name="azuread" data-tags="azuread" d="M542.138 430.66c-4.988-2.165-10.254-3.804-15.73-4.859l0.487-267.274c7.23-1.441 14.083-3.917 20.412-7.256l129.419 74.936c-3.089 8.006-4.799 16.697-4.799 25.792 0 16.722 5.74 32.093 15.335 44.289l-145.124 134.371zM481.414 430.863l-145.729-134.931c9.427-12.138 15.055-27.373 15.055-43.932 0-8.976-1.664-17.559-4.676-25.477l130.275-75.432c6.365 3.401 13.269 5.926 20.555 7.4l-0.487 267.539c-5.217 1.091-10.231 2.729-14.994 4.833zM512 768l-442-532.667 442-363.333 440.667 363.333-440.667 532.667zM743.63 180.297c-19.679 0-37.502 7.933-50.458 20.769l-121.396-70.291c10.026-12.851 16.015-29.005 16.015-46.567 0-41.859-33.933-75.792-75.792-75.792s-75.792 33.933-75.792 75.792c0 17.441 5.906 33.493 15.807 46.301l-122.269 70.796c-12.976-12.98-30.905-21.009-50.709-21.009-39.601 0-71.703 32.103-71.703 71.703s32.103 71.703 71.703 71.703c12.108 0 23.507-3.013 33.51-8.312l143.921 133.259c-12.565 13.527-20.259 31.64-20.259 51.558 0 41.859 33.933 75.792 75.792 75.792s75.792-33.933 75.792-75.792c0-20.081-7.824-38.325-20.572-51.886l143.329-132.711c9.9 5.159 21.145 8.092 33.081 8.092 39.601 0 71.703-32.103 71.703-71.703s-32.103-71.703-71.703-71.703z" />
<glyph unicode="&#xe92e;" glyph-name="container-d" data-tags="container-d" horiz-adv-x="717" d="M264.533 265.956h187.733v-221.867h-187.733v221.867zM0 832v-1024h716.8v1024h-716.8zM594.489-69.689h-472.178v449.422h329.956v164.978h142.222v-614.4z" />
<glyph unicode="&#xe92f;" glyph-name="level-down" data-tags="level-down" d="M611.8-126.4h-120v838.4h-331.4v120h451.4zM552.6-191.2l-418.6 418.6 84.8 84.8 333.8-333.8 333.8 333.8 84.8-84.8z" />
<glyph unicode="&#xe930;" glyph-name="life-ring" data-tags="life-ring" d="M966.315 765.781c-75.776 75.776-163.157 50.517-256 23.211-10.923-3.413-22.528-6.827-34.133-9.557-51.2 18.432-106.496 28.672-164.523 28.672s-112.64-10.24-163.84-28.672c-11.605 3.413-23.211 6.827-34.133 9.557-92.843 27.307-180.224 52.565-256-23.211-85.333-85.333-48.469-200.704-8.875-294.229-15.701-47.787-24.576-98.987-24.576-151.552 0-53.248 8.875-103.765 24.576-152.235-39.595-92.843-76.459-208.213 8.875-293.547 37.547-37.547 77.824-50.517 120.149-50.517 43.008 0 88.747 13.653 135.851 27.307 10.923 3.413 22.528 6.827 34.133 9.557 51.2-18.432 106.496-28.672 164.523-28.672 57.344 0 112.64 10.24 164.523 28.672 11.605-3.413 23.211-6.827 34.133-9.557 92.16-27.307 179.541-52.565 255.317 23.211 85.333 85.333 49.152 200.704 9.557 294.229 15.701 47.787 24.576 98.987 24.576 152.235s-8.875 103.765-24.576 151.552c38.912 92.843 75.776 208.213-9.557 293.547zM917.845 717.994c40.277-40.277 38.912-92.16 18.432-157.013-40.277 70.997-98.304 131.072-167.253 174.080 69.632 18.432 109.909 21.163 148.821-17.067zM197.632 42.154c-65.536 73.728-105.131 171.349-105.131 277.845 0 105.813 39.595 202.752 104.448 276.48l80.555-79.872c-44.373-53.248-71.68-121.515-71.68-196.608s27.307-144.043 72.363-197.291l-80.555-80.555zM274.091 319.999c0 131.072 106.496 238.251 238.251 238.251s238.251-106.496 238.251-238.251c0-131.072-106.496-238.251-238.251-238.251s-238.251 107.179-238.251 238.251zM818.176 319.999c0 81.237-32.085 155.648-83.968 210.261l79.872 79.872c73.045-75.093 117.419-177.493 117.419-290.133 0-111.957-44.373-213.675-116.053-289.451l-80.555 79.872c51.883 54.613 83.285 128.341 83.285 209.579zM789.504 634.026l-79.872-79.872c-53.248 45.056-122.197 72.363-197.291 72.363-81.92 0-156.331-32.085-210.944-84.651l-81.237 79.189c75.776 73.045 178.859 118.784 291.499 118.784 106.496 0 204.117-40.277 277.845-105.813zM106.155 717.994c21.845 21.845 44.373 30.72 71.68 30.72 21.845 0 46.421-5.461 77.141-13.653-68.949-43.008-126.976-103.083-167.253-174.080-20.48 64.171-21.845 116.053 18.432 157.013zM106.155-77.995c-40.277 40.277-38.912 92.843-18.432 157.013 40.277-70.997 98.304-131.072 167.253-174.080-69.632-18.432-109.909-21.163-148.821 17.067zM221.525 17.578l79.872 79.872c54.613-51.883 129.024-83.968 210.261-83.968 75.776 0 144.725 27.307 198.656 73.045l80.555-79.872c-74.411-65.536-172.032-106.496-279.211-106.496-112.64 0-214.357 45.056-290.133 117.419zM917.845-77.995c-38.912-38.912-79.189-36.181-149.504-17.067 69.632 43.008 126.976 103.083 167.253 174.080 21.163-64.171 22.528-116.053-17.749-157.013z" />
<glyph unicode="&#xe931;" glyph-name="x-circle" data-tags="x-circle" d="M245.558 501.582l84.852 84.852 448.019-448.019-84.852-84.852-448.019 448.019zM245.558 138.408l448.019 448.019 84.852-84.852-448.019-448.019-84.852 84.852zM512 712c104.8 0 203.2-40.8 277.2-114.8s114.8-172.4 114.8-277.2-40.8-203.2-114.8-277.2-172.4-114.8-277.2-114.8-203.2 40.8-277.2 114.8-114.8 172.4-114.8 277.2 40.8 203.2 114.8 277.2 172.4 114.8 277.2 114.8zM512 832c-282.8 0-512-229.2-512-512s229.2-512 512-512 512 229.2 512 512-229.2 512-512 512v0z" />
<glyph unicode="&#xe932;" glyph-name="x-square" data-tags="x-square" d="M649.6 543.2l84.8-84.8-362-362.2-84.8 84.8 362 362.2zM367.2 543.8l362-362-84.8-84.8-362 362 84.8 84.8zM906 714v-788h-788v788h788zM1024 832h-1024v-1024h1024v1024z" />
<glyph unicode="&#xe933;" glyph-name="stop" data-tags="stop" d="M720.896 835.413h-424.619l-296.277-301.739v-424.619l296.277-304.469h424.619l296.277 304.469v424.619l-296.277 301.739zM666.965 161.621h-316.757v316.757h316.757v-316.757z" />
<glyph unicode="&#xe934;" glyph-name="process, processes, gear" data-tags="gear" d="M747.6 30c0 0 0.6 0.6 2 1.6s3.2 2.4 5.6 4.6c4.6 4 11.4 9.6 19 17.2 15.2 14.6 34 35.8 50 59s28.6 48.4 36.8 67.8c2 4.8 3.8 9.4 5.2 13.4s2.6 7.6 3.6 10.4c1 3 1.8 5.2 2.2 6.8 0.6 1.6 0.8 2.4 0.8 2.4s1.8-1.2 5.2-3.2c3.2-2.2 7.8-5.2 13.4-8.8 11-7.4 25.6-17.8 40-29 14.2-11 28-22.8 38.2-31.8s17-15.4 17-15.4-1.2-3-3.6-8c-1.2-2.6-2.6-5.6-4.2-9.2-0.8-1.8-1.6-3.6-2.6-5.6s-2-4-3.2-6.2c-8.4-17.2-21.2-39.4-35.6-60.6s-30.8-40.8-43.4-55.2c-6.6-7-12-12.8-16-16.8-2-2-3.6-3.6-4.6-4.6s-1.6-1.6-1.6-1.6-8.4 3.8-20.6 10c-12.2 6.2-28 14.6-43.6 24-15.6 9.2-30.6 19-41.6 26.4-11.2 7-18.4 12.4-18.4 12.4zM429.6-42.6c0 0 0.8-0.2 2.4-0.6s4-1 7-1.6c3-0.6 6.8-1.2 11-2 2.2-0.4 4.4-0.8 6.8-1.2 2.4-0.2 4.8-0.6 7.6-1 20.8-2.8 49.2-4.4 77.4-2.2 28.2 2 55.8 7.6 76 13.6 2.6 0.8 5 1.4 7.2 2 2.2 0.8 4.4 1.4 6.4 2.2 4 1.4 7.6 2.6 10.6 3.6 5.8 2.2 9 3.6 9 3.6s1-8.8 2-22.2c1.2-13.6 2-31 2.2-49.2 0.2-18-0.2-36.4-1-49.8-0.8-13.6-1.6-22.8-1.6-22.8s-3-0.8-8.4-2.4c-5.4-1.4-13.2-3.2-22.6-5.4-4.6-1.2-9.8-2-15.2-3s-11.2-2-17-3c-11.8-1.6-24.6-3.4-37.4-4-12.8-1.2-25.6-1.2-37.4-1.6-6 0-11.8 0.2-17.2 0.4s-10.6 0.2-15.4 0.6c-9.6 0.8-17.6 1.2-23 1.8-5.6 0.6-8.8 1-8.8 1s-2.2 9-5 22.2c-2.8 13.2-6 31.2-8.6 49-2.6 18-4.4 35.4-5.2 49-1.6 14-1.8 23-1.8 23zM174.4 160.8c0 0 1.6-3.2 4.4-8.6 1.4-2.8 3-6.2 5.2-9.8 2.2-3.8 4.6-8 7.2-12.4 10.8-18 27.2-41.2 46.6-61.6 19.2-20.6 40.8-38.8 58.2-51 4.2-3 8.2-6 11.8-8.2 3.6-2.4 6.8-4.4 9.4-6s4.8-2.8 6.2-3.6c1.4-0.8 2.2-1.2 2.2-1.2s-6.2-6.2-16.2-15.4c-9.8-9.2-23.2-20.8-37.2-32.4-7-5.8-14.2-11.4-21-16.4-6.8-5.2-13.2-9.8-18.6-13.8-11.2-7.8-18.8-13-18.8-13s-2.6 1.8-7.2 5.2c-4.4 3.4-10.6 8.4-18.2 14.4-14.6 12.4-34 29.2-51.2 48.2-4.4 4.6-8.6 9.6-12.6 14.2-4.2 4.8-8.2 9.4-11.8 14.2s-7.2 9.2-10.6 13.6c-3.2 4.4-6.2 8.8-9 12.6-5.6 7.8-9.8 14.6-12.8 19.2-3 4.8-4.8 7.4-4.8 7.4s1.4 1.8 3.8 5c2.6 3.2 6.2 7.6 10.6 12.8 8.8 10.6 20.6 24.2 33 37.2 12.4 13.2 25.4 25.6 35.2 34.6 9.4 9 16.2 14.8 16.2 14.8zM174.4 487c0 0-1.4-3.2-4-8.8-1.2-2.8-3-6.2-4.4-10.2-1.6-4-3.4-8.4-5.2-13.4-7.4-19.8-15.2-46.8-19.2-74.6-4.2-27.8-4.8-56.2-3.6-77.2 0.4-5.2 0.8-10 1-14.4 0.2-4.2 1-8 1.2-11 0.8-6.2 1.2-9.6 1.2-9.6s-8.8 1-22 3c-13.2 2-31 5-48.6 8.8-17.4 3.8-35 8.4-48.2 12.2-6.6 1.8-12 3.6-16 4.8-3.8 1.2-6 1.8-6 1.8s0 3.2-0.2 8.8c0 2.8-0.2 6.2-0.2 10 0 2 0 4-0.2 6.2 0 2.2 0 4.4 0.2 6.8 0.2 9.6 0.4 20.8 1.4 32.6 0.6 12 2.4 24.6 4 37.4 1 6.4 2.2 12.6 3.2 18.8 0.6 3 1 6.2 1.8 9.2 0.6 3 1.4 6 2 9 1.4 5.8 2.6 11.6 4 16.8s3 10.4 4.2 15c2.4 9.2 5.4 16.8 7 22.2 1.8 5.4 2.8 8.4 2.8 8.4s2.2 0 6.2 0c4 0 9.8 0 16.6-0.2 13.8-0.2 31.8-1.2 49.6-2.6 18-1.6 35.8-3.8 49-6 13.8-2 22.4-3.8 22.4-3.8zM429.6 690.4c0 0-3.4-0.8-9.4-2.2-3-0.8-6.6-1.8-10.6-3-4.2-1.2-8.8-2.4-13.8-4.2-20-6.4-46-17.4-70.4-31.6-24.4-14-47-31.2-62.6-45.2-4-3.4-7.4-7-10.6-9.8-1.6-1.4-3-2.8-4.4-4.2-1.4-1.2-2.4-2.6-3.6-3.6-4.2-4.4-6.6-7-6.6-7s-4.8 7.4-11.4 19c-6.8 11.6-15.4 27.4-23.4 43.4s-15.4 32.6-20.8 45.4c-5.2 12.6-8.4 21.2-8.4 21.2s2.4 2 6.6 5.8c2.2 1.8 4.6 4 7.6 6.6 3 2.4 6.6 5.2 10.2 8 7.4 6 16.6 12.4 26.4 19.4 5 3.4 10.2 6.6 15.6 10 2.6 1.6 5.2 3.4 8 5s5.6 3.2 8.4 4.8c11 6.6 22.4 12.2 33.2 17.8 5.4 2.6 10.8 5 15.8 7.2 2.6 1.2 5 2.2 7.4 3.2s4.8 1.8 7 2.8c9 3.4 16.4 6.6 21.6 8.2 5.4 1.8 8.4 2.8 8.4 2.8s5.8-7 14-17.8c8.2-10.6 19-25.6 29-40.6s19.2-30.2 26-42c6.6-11.4 10.8-19.4 10.8-19.4zM747.6 617.8c0 0-2.8 2.2-7.6 6-2.4 2-5.6 4-9 6.6-3.6 2.4-7.4 5.4-11.8 8.2-17.6 11.6-42.4 25.2-68.6 35.4-26.2 10.4-53.4 17.2-74.2 20.6-5.2 1-10 1.6-14.2 2-4.2 0.6-8 1-11 1.4-6.2 0.4-9.6 0.8-9.6 0.8s3 8.4 7.8 21c4.8 12.6 11.8 29 19.4 45.4 7.6 16.2 16 32.6 22.6 44.6 6.6 11.8 11.2 19.8 11.2 19.8s3.2-0.6 8.6-1.6c5.6-0.8 13.4-2.8 22.6-5 2.4-0.6 4.8-1.2 7.2-1.8s5-1.4 7.8-2.2c5.2-1.6 10.8-3 16.6-4.8 11.4-3.8 23.6-7.6 35.4-12.6 12-4.4 23.6-10 34.6-15 5.4-2.8 10.6-5.4 15.4-7.8 2.4-1.2 4.8-2.4 7.2-3.6 2.2-1.2 4.4-2.6 6.6-3.8 8.4-4.8 15.4-8.6 20-11.8 4.8-3 7.4-4.8 7.4-4.8s-2-9-5.2-22.2c-3.2-13.2-8.2-30.8-13.8-48-2.8-8.6-5.6-17-8.4-24.8-2.8-8-5.8-15.2-8.2-21.6-5.2-12.2-8.8-20.4-8.8-20.4zM889.4 324c0 0 0 3.6-0.2 9.6-0.2 3 0 6.8-0.4 11.2-0.4 4.2-0.6 9.2-1 14.4-2 21-6.6 48.8-15 75.8-8.2 26.8-20 52.6-30.2 71-2.6 4.6-5 8.8-7.2 12.4-2.4 3.6-4.4 6.8-6 9.4s-3 4.6-3.8 6c-1 1.4-1.4 2-1.4 2s2.2 0.8 5.8 2c3.6 1.2 9 3 15.2 5 12.8 4 30 8.8 47.6 13.2 17.6 4.2 35.2 7.8 48.6 10 13.4 2.4 22.6 3.6 22.6 3.6s0.4-0.6 1-2c0.6-1.4 1.6-3.2 3-5.8 1.2-2.4 2.8-5.6 4.6-9s3.8-7.4 5.8-11.8c8.2-17.4 17.6-41.2 25.4-65.6 7.4-24.6 13-49.6 16-68.6 1-4.8 1.4-9 1.8-13 0.4-3.8 1-7.2 1.2-10 0.4-2.8 0.6-5 0.8-6.4s0.2-2.2 0.2-2.2-8.2-4-20.8-9.8c-12.4-5.6-29-12.8-45.8-19.2-17-6.4-34-12-46.8-16-12.6-4-21-6.2-21-6.2zM512 604c75.8 0 147.2-29.6 200.8-83.2s83.2-125 83.2-200.8-29.6-147.2-83.2-200.8c-53.6-53.6-125-83.2-200.8-83.2s-147.2 29.6-200.8 83.2c-53.6 53.6-83.2 125-83.2 200.8s29.6 147.2 83.2 200.8c53.6 53.6 125 83.2 200.8 83.2zM512 724c-223.2 0-404-180.8-404-404s180.8-404 404-404 404 180.8 404 404-180.8 404-404 404v0zM512 391c39.2 0 71-31.8 71-71s-31.8-71-71-71-71 31.8-71 71 31.8 71 71 71zM512 511c-105.4 0-191-85.6-191-191s85.6-191 191-191 191 85.6 191 191-85.6 191-191 191v0z" />
<glyph unicode="&#xe935;" glyph-name="vm" data-tags="vm" d="M1.365 115.2h322.219l-9.557-101.035h-58.709v-68.267h297.643v68.267h-58.709l-9.557 101.035h66.219v68.267h-481.28v442.368h669.013v-204.8h68.267v273.067h-805.547zM577.535 401.92v-326.997h445.099v326.997h-445.099zM1002.154 95.403h-404.139v216.405h404.139v-216.405z" />
<glyph unicode="&#xe936;" glyph-name="google" data-tags="google" d="M1000.8 413h-477.2v-197.8h274.6c-25.6-125.6-132.6-197.8-274.6-197.8-167.6 0-302.6 135-302.6 302.6s135 302.6 302.6 302.6c72.2 0 137.4-25.6 188.6-67.4l148.8 148.8c-90.6 79.2-207 128-337.4 128-284 0-512-228-512-512s228-512 512-512c256 0 488.8 186.2 488.8 512 0 30.2-4.6 62.8-11.6 93z" />
<glyph unicode="&#xe937;" glyph-name="link" data-tags="link" d="M590.164 419.329c6.144 0 12.288-2.048 17.067-6.827l7.509-7.509c9.557-9.557 9.557-24.576 0-34.133l-162.475-162.475c-4.779-4.779-10.923-6.827-17.067-6.827s-12.288 2.048-17.067 6.827l-7.509 7.509c-9.557 9.557-9.557 24.576 0 34.133l162.475 162.475c4.779 4.779 10.923 6.827 17.067 6.827zM590.164 487.595c-24.576 0-47.787-9.557-65.536-27.307l-162.475-161.792c-17.749-17.749-27.307-40.96-27.307-65.536s9.557-47.787 27.307-65.536l7.509-7.509c17.749-17.749 40.96-27.307 65.536-27.307s47.787 9.557 65.536 27.307l162.475 162.475c36.181 36.181 36.181 94.891 0 131.072l-7.509 7.509c-17.749 17.067-40.96 26.624-65.536 26.624v0zM639.316 223.403c-36.864 0-74.411 9.557-107.861 28.672l34.133 58.709c57.344-33.451 129.707-23.893 176.128 22.528l168.619 168.619c56.661 56.661 56.661 148.821 0 205.483s-149.504 57.344-206.165 0.683l-167.253-167.936c-46.421-46.421-55.979-119.467-22.528-176.811l-58.709-34.133c-49.152 83.968-35.499 190.464 33.451 259.413l168.619 169.301c83.285 83.285 219.136 83.285 302.421-0.683 83.285-83.285 83.285-219.136 0-302.421l-168.619-168.619c-41.643-40.96-96.939-62.805-152.235-62.805zM639.316 321.707c-10.923 0-21.845 1.365-32.768 4.779l19.115 65.536c16.384-4.779 34.133 0 46.421 12.288l168.619 168.619c8.875 8.875 13.653 20.48 13.653 33.451 0 12.288-4.779 24.576-13.653 33.451-18.432 18.432-48.469 18.432-66.901 0l-167.253-169.301c-12.288-12.288-17.067-30.72-11.605-47.787l-64.853-21.163c-13.653 41.643-2.731 86.016 27.989 116.736l168.619 168.619c45.056 45.056 118.101 45.056 163.157 0 21.845-21.845 33.451-50.517 33.451-81.92 0-30.72-12.288-59.392-34.133-81.237l-168.619-168.619c-21.163-21.163-50.517-33.451-81.237-33.451zM214.697-201.215c0 0 0 0 0 0-57.344 0-110.592 21.845-150.869 62.123-83.285 83.285-83.285 219.136 0 302.421l169.301 169.301c70.315 70.315 181.589 81.92 265.557 28.672l-36.864-57.344c-57.344 36.181-133.12 27.989-180.907-19.797l-169.301-169.301c-56.661-56.661-56.661-149.504 0-206.165s148.821-56.661 205.483 0l169.301 169.984c47.104 47.104 55.979 122.197 21.163 179.541l58.027 35.499c51.883-84.651 38.912-193.195-30.72-263.509l-168.619-168.619c-40.277-40.277-94.208-62.805-151.552-62.805zM214.697-102.911c-29.355 0-58.709 10.923-81.237 33.451-21.845 21.845-34.133 50.517-34.133 81.92 0 30.72 11.605 60.075 33.451 81.92l169.301 168.619c27.307 27.307 66.219 38.912 103.765 31.403l-12.971-66.901c-15.701 2.731-31.403-2.048-42.325-12.971l-168.619-168.619c-8.875-8.875-13.653-20.48-13.653-33.451s4.779-24.576 13.653-33.451c18.432-18.432 47.787-18.432 66.219 0l168.619 168.619c10.923 10.923 15.701 26.624 12.971 42.325l66.901 12.971c7.509-37.547-4.779-76.459-31.403-103.765l-168.619-168.619c-22.528-21.845-52.565-33.451-81.92-33.451z" />
<glyph unicode="&#xe938;" glyph-name="linux" data-tags="linux" d="M863.232 37.377c-23.211 9.557-42.325 24.576-40.96 53.248s-20.48 47.104-20.48 47.104 19.115 62.123 1.365 114.005c-17.749 51.883-75.776 134.485-120.832 196.608-44.373 62.123-6.827 134.485-47.104 226.645-40.96 92.16-146.773 86.699-203.435 47.787-57.344-39.595-39.595-137.216-36.864-182.955s1.365-79.189-4.096-90.795c-5.461-11.605-42.325-55.979-66.219-92.16-24.576-36.864-42.325-113.323-59.392-144.043-17.749-31.403-5.461-59.392-5.461-59.392s-12.288-4.096-21.845-24.576c-9.557-20.48-28.672-30.037-62.123-36.181-34.133-6.827-34.133-28.672-25.941-53.248s0-38.229-9.557-68.949c-9.557-31.403 38.229-40.96 83.968-45.739 46.421-5.461 97.621-35.499 141.312-40.96s56.661 30.037 56.661 30.037 49.152 10.923 100.352 12.288c51.883 1.365 100.352-10.923 100.352-10.923s9.557-21.845 27.307-31.403c17.749-9.557 55.979-10.923 79.872 15.019 24.576 25.941 89.429 58.027 126.293 78.507 36.864 19.797 30.037 50.517 6.827 60.075zM545.792 636.076c23.211 0 42.325-23.211 42.325-51.2 0-20.48-9.557-37.547-23.211-45.739-3.413 1.365-7.509 3.413-10.923 4.779 8.192 4.096 14.336 14.336 14.336 26.624 0 15.701-10.24 29.355-21.845 29.355-12.288 0-21.845-12.971-21.845-29.355 0-6.144 1.365-11.605 4.096-16.384-7.509 2.731-13.653 5.461-19.115 7.509-2.731 6.827-4.096 15.019-4.096 23.211-2.048 27.989 17.067 51.2 40.277 51.2zM543.061 527.532c11.605-4.096 24.576-11.605 23.211-19.115s-7.509-7.509-23.211-17.067c-15.701-9.557-49.835-30.72-60.757-32.085s-17.067 4.779-28.672 12.288c-11.605 7.509-33.451 25.259-27.989 34.816 0 0 17.067 12.971 24.576 19.797s26.624 23.211 38.229 21.163c11.605-2.048 43.008-15.701 54.613-19.797zM437.931 627.884c18.432 0 33.451-21.845 33.451-48.469 0-4.779-0.683-9.557-1.365-13.653-4.779-1.365-8.875-4.096-13.653-7.509-2.048-2.048-4.096-3.413-6.144-5.461 2.731 5.461 4.096 12.971 2.731 21.163-2.731 15.019-12.288 25.259-21.845 23.893s-15.701-15.019-12.971-30.037c2.731-15.019 12.288-25.259 21.845-23.893 0.683 0 1.365 0 1.365 0.683-4.779-4.779-8.875-8.192-13.653-11.605-13.653 6.144-23.211 24.576-23.211 46.421 0 26.624 15.019 48.469 33.451 48.469zM402.432-57.514c-4.096-19.797-27.307-33.451-27.307-33.451-20.48-6.827-77.824 18.432-103.765 29.355s-92.16 14.336-101.035 23.893c-8.875 9.557 4.096 31.403 7.509 51.883s-6.827 33.451-3.413 47.787c3.413 14.336 45.739 14.336 61.44 23.893 16.384 9.557 19.797 38.229 32.768 45.739s36.864-19.797 46.421-34.816c9.557-15.019 46.421-79.872 61.44-96.256 15.701-17.067 30.037-38.912 25.941-58.027zM642.048 130.902c-4.096-19.115-4.096-88.064-4.096-88.064s-42.325-58.027-107.179-67.584c-64.853-9.557-97.621-2.731-97.621-2.731l-36.864 42.325c0 0 28.672 4.096 24.576 32.768s-86.699 67.584-101.717 103.083c-15.019 35.499-2.731 94.891 16.384 124.928s31.403 94.891 49.835 116.736c19.115 21.845 34.133 67.584 27.307 88.064 0 0 40.96-49.152 68.949-40.96 28.672 8.192 92.16 55.979 101.717 47.787s90.795-187.051 98.987-244.395c8.192-56.661-5.461-100.352-5.461-100.352s-30.72 7.509-34.816-11.605zM850.261 3.244c-12.971-11.605-83.285-40.277-104.448-62.123s-48.469-40.277-65.536-34.816c-17.067 5.461-31.403 28.672-24.576 62.123 7.509 33.451 13.653 70.315 12.971 91.477-1.365 21.163-5.461 49.835 0 53.931s13.653 2.048 13.653 2.048-4.096-40.277 19.797-50.517c23.893-10.24 58.709 4.096 69.632 15.019 10.923 10.24 17.749 25.941 17.749 25.941s10.24-5.461 9.557-21.845c-1.365-17.067 7.509-40.96 23.211-49.835 16.384-8.192 40.96-19.797 27.989-31.403z" />
<glyph unicode="&#xe93a;" glyph-name="logout" data-tags="logout" d="M684.715-186.539l-441.003 153.6v858.795l441.003-145.408v-866.987zM311.979 15.531l304.469-105.813v721.579l-304.469 100.352v-716.117zM586.411 296.789c0-20.359-16.505-36.864-36.864-36.864s-36.864 16.505-36.864 36.864c0 20.359 16.505 36.864 36.864 36.864s36.864-16.505 36.864-36.864zM780.288-71.168h-113.323v68.267h45.056v761.173h-468.309v68.267h536.576z" />
<glyph unicode="&#xe93b;" glyph-name="plus, medical-cross" data-tags="plus" d="M1013.76 454.485h-350.891v367.275h-268.971v-367.275h-383.659v-260.779h383.659v-375.467h268.971v375.467h350.891z" />
<glyph unicode="&#xe93c;" glyph-name="memory" data-tags="memory" d="M65.4 151.6v-150.6h60v150.6h-60zM386 151.6v-150.6h60v150.6h-60zM279.2 151.6v-150.6h60v150.6h-60zM172.2 151.6v-150.6h60v150.6h-60zM579.8 151.6v-150.6h60v150.6h-60zM900.2 151.6v-150.6h60v150.6h-60zM793.4 151.6v-150.6h60v150.6h-60zM686.6 151.6v-150.6h60v150.6h-60zM931 514.8v-291.4h-834v291.4h834zM1023.4 607.2h-1022.8v-480h1022.6c0.2 0 0.2 480 0.2 480z" />
<glyph unicode="&#xe93d;" glyph-name="minus-circle" data-tags="minus-circle" d="M512 712c104.8 0 203.2-40.8 277.2-114.8s114.8-172.4 114.8-277.2-40.8-203.2-114.8-277.2c-74-74-172.4-114.8-277.2-114.8s-203.2 40.8-277.2 114.8c-74 74-114.8 172.4-114.8 277.2s40.8 203.2 114.8 277.2c74 74 172.4 114.8 277.2 114.8zM512 832c-282.8 0-512-229.2-512-512s229.2-512 512-512 512 229.2 512 512-229.2 512-512 512v0zM256 380h512v-120h-512v120z" />
<glyph unicode="&#xe93e;" glyph-name="minus-square" data-tags="minus-square" d="M256 380h512v-120h-512v120zM906 714v-788h-788v788h788zM1024 832h-1024v-1024h1024v1024z" />
<glyph unicode="&#xe93f;" glyph-name="minus" data-tags="minus" d="M6.827 456.534h1010.347v-273.067h-1010.347v273.067z" />
<glyph unicode="&#xe940;" glyph-name="network" data-tags="network" d="M512 762.368c244.395 0 442.368-198.656 442.368-442.368s-198.656-442.368-442.368-442.368-442.368 197.973-442.368 442.368 198.656 442.368 442.368 442.368zM512 830.635c-281.941 0-510.635-228.693-510.635-510.635s228.693-510.635 510.635-510.635 510.635 228.693 510.635 510.635-228.011 510.635-510.635 510.635v0zM177.493-40.448l-32.768 8.875c61.44 219.136 262.827 372.053 490.837 372.053 135.851 0 264.192-53.248 360.448-149.504l-23.893-23.893c-89.429 89.429-208.896 139.264-335.872 139.264-213.675 0.683-402.091-141.995-458.752-346.795zM235.52 53.078c-32.085 0-58.709 26.624-58.709 58.709s26.624 58.709 58.709 58.709 58.709-26.624 58.709-58.709c0-32.085-25.941-58.709-58.709-58.709zM348.842 162.304c-39.595 0-72.363 32.085-72.363 72.363s32.085 72.363 72.363 72.363 72.363-32.085 72.363-72.363-32.768-72.363-72.363-72.363zM402.773 372.566c-135.851 0-264.192 53.248-360.448 149.504l23.893 23.893c90.112-90.112 209.579-139.264 336.555-139.264 180.224 0 342.699 99.669 423.936 260.096l30.72-15.701c-87.381-172.032-261.461-278.528-454.656-278.528zM302.421 350.038c-32.085 0-58.709 26.624-58.709 58.709s26.624 58.709 58.709 58.709 58.709-26.624 58.709-58.709-26.624-58.709-58.709-58.709zM148.138 390.998c-39.595 0-72.363 32.085-72.363 72.363 0 39.595 32.085 72.363 72.363 72.363s72.363-32.085 72.363-72.363c0-40.277-32.085-72.363-72.363-72.363zM402.090-166.741l-10.923 32.085c136.533 47.104 246.443 144.043 309.931 273.749 105.813 217.088 53.931 480.597-126.293 640.341l22.528 25.259c191.829-170.667 247.125-450.56 134.485-681.301-67.584-137.216-184.32-240.299-329.728-290.133zM698.368 580.779c-9.557 0-19.115 2.048-27.307 6.144-15.019 7.509-26.624 19.797-32.085 36.181-5.461 15.701-4.096 32.768 2.731 47.787 10.923 21.845 32.085 35.499 56.661 35.499 9.557 0 19.115-2.048 27.307-6.144 31.403-15.019 44.373-52.565 28.672-83.968-9.557-21.845-31.403-35.499-55.979-35.499zM763.221 410.112c-12.288 0-23.211 2.731-34.133 8.192-19.115 8.875-32.768 25.259-39.595 45.056s-5.461 40.96 3.413 60.075c12.971 27.307 40.277 43.691 70.315 43.691 12.288 0 23.211-2.731 34.133-8.192 18.432-8.875 32.768-25.259 39.595-45.056s5.461-40.96-3.413-60.075c-13.653-26.624-40.277-43.691-70.315-43.691zM682.666 20.31c-148.139 0-295.595 57.344-405.504 166.571-109.227 107.861-169.301 251.904-169.984 405.504h34.133c0.683-144.043 57.344-279.893 159.744-381.611 171.349-169.984 437.589-205.483 647.168-86.699l17.067-29.355c-88.747-49.835-185.685-74.411-282.624-74.411zM778.922-11.776c-16.384 0-32.085 6.144-44.373 18.432-11.605 11.605-18.432 27.307-18.432 44.373s6.144 32.768 18.432 44.373c11.605 12.288 27.989 18.432 44.373 18.432s32.085-6.144 44.373-18.432c11.605-11.605 18.432-27.307 18.432-44.373s-6.144-32.768-18.432-44.373c-11.605-11.605-27.307-18.432-44.373-18.432zM606.89-26.794c-20.48 0-40.277 8.192-55.296 22.528-15.019 15.019-23.211 34.133-23.211 55.296s8.192 40.277 22.528 55.296c15.019 15.019 34.816 23.211 55.296 23.211s40.277-8.192 55.296-22.528c30.72-30.037 30.72-79.872 0.683-110.592-14.336-15.019-34.133-23.211-55.296-23.211z" />
<glyph unicode="&#xe941;" glyph-name="notification" data-tags="notification" d="M815.104-44.202c-60.757 0-115.371 45.056-154.283 126.293-34.816 73.728-54.613 170.667-54.613 273.749s19.115 200.021 54.613 273.749c38.912 81.92 93.525 126.293 154.283 126.293s115.371-45.056 154.283-126.293c34.816-73.728 54.613-170.667 54.613-273.749s-19.115-200.021-54.613-273.749c-38.912-81.237-93.525-126.293-154.283-126.293zM815.104 687.617c-66.219 0-140.629-136.533-140.629-331.776s74.411-331.776 140.629-331.776 140.629 136.533 140.629 331.776-74.411 331.776-140.629 331.776zM772.779 200.193h-137.899v68.267h137.899c23.211 0 40.277 28.672 40.277 68.267s-17.067 68.267-40.96 68.267h-137.216v68.267h137.216c63.488 0 109.227-57.344 109.227-136.533s-45.739-136.533-108.544-136.533zM722.944 277.334c-15.019 21.163-23.893 49.835-23.893 81.92 0 29.355 12.971 55.296 26.624 75.776l23.211-14.336c-11.605-18.432-21.845-38.912-21.845-61.44 0-25.941 6.827-49.152 18.432-65.536l-22.528-16.384zM825.344 348.332c0-34.686-17.727-62.805-39.595-62.805s-39.595 28.119-39.595 62.805c0 34.686 17.727 62.805 39.595 62.805s39.595-28.119 39.595-62.805zM351.573 176.3c0 0 0 0 0 0v0c0 0 0 0 0 0h-217.771c-73.728 0.683-133.803 77.824-133.803 172.715s60.075 172.715 133.803 172.715l218.453-2.731-0.683-68.267c-35.499 0-65.536-46.421-65.536-101.717s30.72-104.448 65.536-104.448v0-68.267zM133.803 453.462c-34.816 0-65.536-48.469-65.536-104.448s30.72-104.448 65.536-104.448h111.275c-17.067 28.672-27.307 64.853-27.307 104.448 0 38.912 9.557 74.411 26.624 103.083l-110.592 1.365zM687.445 36.353c-80.555 139.947-259.413 139.947-335.872 139.947v68.267c80.555 0 294.912 0 394.581-174.763l-58.709-33.451zM347.477 450.732c-1.365 0-2.731 0-4.096 0h-3.413v68.267h3.413c81.92 0 253.269 0 331.776 137.216l59.392-34.133c-96.939-168.619-297.643-171.349-387.072-171.349zM320.171-115.882c-8.192 0-16.384 2.731-22.528 8.875-151.552 133.803-140.629 318.123-140.629 326.315l68.267-4.779c0-1.365-7.509-144.725 99.669-253.952 12.971 8.192 29.355 19.115 44.373 31.403-36.864 48.469-66.219 98.987-84.651 219.819l67.584 10.24c18.432-122.88 47.104-158.379 89.429-211.627 10.24-12.971 10.24-32.085-0.683-44.373-36.864-41.643-101.717-77.141-105.131-78.507-4.779-2.048-10.24-3.413-15.701-3.413z" />
<glyph unicode="&#xe942;" glyph-name="pause" data-tags="pause" d="M360.789-191.658h-314.027c-7.509 0-13.653 6.144-13.653 13.653v996.011c0 7.509 6.144 13.653 13.653 13.653h314.027c7.509 0 13.653-6.144 13.653-13.653v-996.011c0-7.509-6.144-13.653-13.653-13.653zM990.89-178.005v996.011c0 7.509-6.144 13.653-13.653 13.653h-314.027c-7.509 0-13.653-6.144-13.653-13.653v-996.011c0-7.509 6.144-13.653 13.653-13.653h314.027c7.509 0 13.653 6.144 13.653 13.653z" />
<glyph unicode="&#xe943;" glyph-name="play" data-tags="play" d="M112.64 830.636l815.104-496.299c10.923-6.827 10.923-22.528 0.683-28.672l-815.787-496.299c-10.923-6.827-27.307 1.365-27.307 14.336v992.597c0 12.971 16.384 21.163 27.307 14.336z" />
<glyph unicode="&#xe944;" glyph-name="plus-circle" data-tags="plus-circle" d="M452 636.8h120v-633.6h-120v633.6zM195.2 380h633.6v-120h-633.6v120zM512 712c104.8 0 203.2-40.8 277.2-114.8s114.8-172.4 114.8-277.2-40.8-203.2-114.8-277.2-172.4-114.8-277.2-114.8-203.2 40.8-277.2 114.8-114.8 172.4-114.8 277.2 40.8 203.2 114.8 277.2 172.4 114.8 277.2 114.8zM512 832c-282.8 0-512-229.2-512-512s229.2-512 512-512 512 229.2 512 512-229.2 512-512 512v0z" />
<glyph unicode="&#xe945;" glyph-name="plus-square" data-tags="plus-square" d="M904 712v-784h-784v784h784zM1024 832h-1024v-1024h1024v1024zM452 576h120v-512h-120v512zM256 380h512v-120h-512v120z" />
<glyph unicode="&#xe946;" glyph-name="rancher-cow" data-tags="rancher-cow" d="M1016.15 453.12l-10.923 66.219c-3.413 21.163-12.288 38.912-19.115 38.912s-12.288-17.067-12.288-38.912v-17.067c0-21.163-16.384-39.595-37.547-39.595h-17.067c-1.365 0-2.048 0.683-2.048 0.683v-47.104c0 0 0.683-2.048 2.048-2.048h64.853c20.48 0 35.499 18.432 32.085 38.912zM859.82 511.83h-104.448c-0.683 0-2.048 0-2.731 0h-107.179c-1.365 0-4.779-2.048-4.779-2.048v10.24c0 21.163-4.779 38.912-11.605 38.912s-14.336-17.067-17.749-38.229l-10.923-66.901c-3.413-21.163 10.923-39.595 32.768-39.595h64.853c6.827 0 12.971 1.365 18.432 2.731-2.048-10.923-11.605-19.115-23.211-19.115h-90.795c-15.019 0-25.941 13.653-23.211 28.672l8.875 56.661c2.731 14.336-8.875 28.672-23.211 28.672h-451.925c-9.557 0-17.749-6.827-21.845-15.019l-85.333-129.707c-1.365-2.048-1.365-5.461 0.683-7.509l16.384-19.797c2.048-2.731 5.461-2.731 8.192-0.683l57.344 45.739v-276.48c0-12.971 10.923-26.624 24.576-26.624h128.341c12.971 0 25.941 13.653 25.941 26.624v95.573c0 12.971 8.192 23.211 21.163 23.211h320.171c12.971 0 23.893-10.24 23.893-23.211v-96.256c0-12.971 10.24-26.624 23.893-26.624h128.341c12.971 0 26.624 13.653 26.624 26.624v103.765h-70.997c-21.163 0-42.325 17.749-42.325 38.912v66.901c0 12.971 8.192 23.893 16.384 31.403v-79.189c0-21.163 20.48-40.96 41.643-40.96h105.131c21.163 0 39.595 19.797 39.595 40.96v201.387c0 21.163-18.432 40.277-39.595 40.277z" />
<glyph unicode="&#xe947;" glyph-name="refresh" data-tags="refresh" d="M599 607.8c76.8 0 149.2-30 203.6-84.4s84.4-126.6 84.4-203.6-30-149.2-84.4-203.6c-54.4-54.4-126.6-84.4-203.6-84.4v-130.8c231.2 0 418.8 187.4 418.8 418.8s-187.6 419-418.8 419v0c-231.2 0-418.6-187.6-418.6-418.8h130.8c0 76.8 30 149.2 84.4 203.6 54.2 54.4 126.6 84.2 203.4 84.2zM232.2 146.4l-227.6 229.4 93 92.2 147.2-148.6 167.6 125.2 78.4-104.8z" />
<glyph unicode="&#xe948;" glyph-name="search" data-tags="search" d="M331.094 758.273c64.853 0 125.611-25.259 170.667-70.997 45.739-45.739 70.997-106.496 70.997-170.667s-25.259-125.611-70.997-170.667-106.496-70.997-170.667-70.997c-64.853 0-125.611 25.259-170.667 70.997-45.739 45.739-70.997 106.496-70.997 170.667s25.259 125.611 70.997 170.667c45.056 45.739 105.813 70.997 170.667 70.997zM331.094 826.539c-79.189 0-159.061-30.037-219.136-90.795-121.515-120.832-121.515-317.44 0-438.272 60.757-60.757 139.947-90.795 219.136-90.795s158.379 30.037 219.136 90.795c120.832 120.832 120.832 317.44 0 438.272-60.757 60.757-139.947 90.795-219.136 90.795v0zM331.094 726.187v-27.307c48.469 0 94.208-19.115 129.024-53.248 70.997-70.997 70.997-186.368 0-258.048-34.133-34.133-79.872-53.248-129.024-53.248-48.469 0-94.208 19.115-129.024 53.248s-53.248 79.872-53.248 129.024c0 48.469 19.115 94.208 53.248 129.024 34.133 34.133 79.872 53.248 129.024 53.248v27.307zM331.094 726.187c-53.931 0-107.179-20.48-148.139-61.44-81.92-81.92-81.92-214.357 0-296.277 40.96-40.96 94.208-61.44 148.139-61.44s107.179 20.48 148.139 61.44c81.92 81.92 81.92 214.357 0 296.277-40.96 40.96-94.891 61.44-148.139 61.44v0zM578.902 149.334l-118.784 119.467 119.467 119.467 119.467-119.467-120.149-119.467zM556.374 268.801l22.528-22.528 22.528 22.528-22.528 22.528-22.528-22.528zM919.552-186.538c-30.72 0-59.392 11.605-81.237 33.451l-332.459 332.459 161.792 162.475 332.459-332.459c21.845-21.845 33.451-50.517 33.451-81.237s-11.605-59.392-33.451-81.237c-21.163-21.163-49.835-33.451-80.555-33.451zM602.112 179.371l283.989-283.989c17.749-17.749 47.104-17.749 65.536 0 8.875 8.875 13.653 20.48 13.653 32.768s-4.779 23.893-13.653 32.768l-283.989 283.989-65.536-65.536z" />
<glyph unicode="&#xe949;" glyph-name="share" data-tags="share" d="M490.6 50h-120v217.8c0 192.6 156.8 349.4 349.4 349.4h136.4v-120h-136.4c-126.6 0-229.4-103-229.4-229.4v-217.8zM836.8-158.4h-835.2v835.2h417.6v-120h-297.6v-595.2h595.2v297.6h120zM793.2 323.8l-84.8 84.8 148.8 148.6-148.8 148.8 84.8 84.8 233.6-233.6z" />
<glyph unicode="&#xe94a;" glyph-name="sort-down" data-tags="sort-down" d="M494.933-192l-339.968 340.651 96.256 96.256 243.712-243.712 244.395 243.712 96.256-96.256z" />
<glyph unicode="&#xe94b;" glyph-name="sort-up" data-tags="sort-up" d="M739.328 394.41l-244.395 244.395-243.712-244.395-96.256 96.939 339.968 340.651 340.651-340.651z" />
<glyph unicode="&#xe94c;" glyph-name="sort" data-tags="sort" d="M756.054 396.458l-244.395 244.395-243.712-244.395-96.256 96.939 339.968 340.651 340.651-340.651zM511.659-194.049l-339.968 340.651 96.256 96.256 243.712-243.712 244.395 243.712 96.256-96.256z" />
<glyph unicode="&#xe94d;" glyph-name="spinner" data-tags="spinner" d="M671.403 688.299c0-77.667-62.962-140.629-140.629-140.629s-140.629 62.962-140.629 140.629c0 77.667 62.962 140.629 140.629 140.629s140.629-62.962 140.629-140.629zM887.125 560.641c0-28.277-22.923-51.2-51.2-51.2s-51.2 22.923-51.2 51.2c0 28.277 22.923 51.2 51.2 51.2s51.2-22.923 51.2-51.2zM1003.861 305.323c0-36.572-29.647-66.219-66.219-66.219s-66.219 29.647-66.219 66.219c0 36.572 29.647 66.219 66.219 66.219s66.219-29.647 66.219-66.219zM902.144 30.209c0-36.572-29.647-66.219-66.219-66.219s-66.219 29.647-66.219 66.219c0 36.572 29.647 66.219 66.219 66.219s66.219-29.647 66.219-66.219zM624.299-95.402c0-51.653-41.873-93.525-93.525-93.525s-93.525 41.873-93.525 93.525c0 51.653 41.873 93.525 93.525 93.525s93.525-41.873 93.525-93.525zM368.981 2.902c0-59.947-48.597-108.544-108.544-108.544s-108.544 48.597-108.544 108.544c0 59.947 48.597 108.544 108.544 108.544s108.544-48.597 108.544-108.544zM237.227 305.323c0-59.947-48.597-108.544-108.544-108.544s-108.544 48.597-108.544 108.544c0 59.947 48.597 108.544 108.544 108.544s108.544-48.597 108.544-108.544zM347.819 579.755c0-61.078-49.514-110.592-110.592-110.592s-110.592 49.514-110.592 110.592c0 61.078 49.514 110.592 110.592 110.592s110.592-49.514 110.592-110.592z" />
<glyph unicode="&#xe94e;" glyph-name="square" data-tags="square" d="M1010.347-192h-996.693c-7.509 0-13.653 6.144-13.653 13.653v996.693c0 7.509 6.144 13.653 13.653 13.653h996.693c7.509 0 13.653-6.144 13.653-13.653v-996.693c0-7.509-6.144-13.653-13.653-13.653z" />
<glyph unicode="&#xe94f;" glyph-name="success" data-tags="success" d="M454.4 59.2l-246.4 246.4 84.8 84.8 161.6-161.4 471.8 471.8 84.8-85zM477.6-144.6c-124.2 0-240.8 48.4-328.6 136-87.8 87.8-136 204.4-136 328.6s48.4 240.8 136 328.6c87.8 87.8 204.4 136 328.6 136s240.8-48.4 328.6-136c87.8-87.8 136-204.4 136-328.6s-48.4-240.8-136-328.6c-87.8-87.8-204.4-136-328.6-136zM477.6 664.6c-190 0-344.6-154.6-344.6-344.6s154.6-344.6 344.6-344.6c190 0 344.6 154.6 344.6 344.6s-154.6 344.6-344.6 344.6v0z" />
<glyph unicode="&#xe951;" glyph-name="tag" data-tags="tag" d="M965.63 759.639c-31.403 29.355-74.411 11.605-94.208 1.365l-30.037 30.037-19.115-19.115 75.093-75.093 19.115 19.115-23.893 23.893c15.019 6.827 39.595 13.653 55.296-0.683 34.816-32.085 53.931-96.256-28.672-222.549l-2.048 99.669-57.344 57.344c0.683 2.048 0.683 4.779 1.365 7.509l10.24-10.24 19.115 19.115-75.093 75.093-19.115-19.115 8.875-8.875c-0.683 0-0.683 0-1.365 0-1.365-0.683-3.413-1.365-4.779-2.048l-42.325 42.325-287.403 6.827-482.645-481.963 453.291-453.291 481.963 481.963-2.048 139.264c117.419 163.157 90.795 247.125 45.739 289.451zM439.294-54.1l-356.352 356.352 412.331 413.696 231.424-5.461 14.336-14.336c-19.115-18.432-36.864-40.96-47.104-62.805-29.355-2.731-52.565-27.307-52.565-58.027 0-32.085 25.941-58.027 58.027-58.027 24.576 0 45.739 15.701 53.931 37.547 2.048 0.683 3.413 1.365 4.096 1.365l-2.048 5.461c1.365 4.779 2.048 9.557 2.048 14.336 0 23.893-15.019 45.056-35.499 53.931 8.875 17.067 23.211 33.451 38.229 47.787l88.747-89.429 2.048-157.696c-68.949-62.123-222.549-129.024-359.083-112.64l-3.413-27.307c10.923-1.365 23.211-2.048 36.181-2.048 96.939 0 239.616 36.181 326.997 105.813l0.683-35.499-413.013-413.013z" />
<glyph unicode="&#xe953;" glyph-name="tasks" data-tags="tasks" d="M0 832h213.675v-213.675h-213.675v213.675zM305.152 832h718.848v-213.675h-718.848v213.675zM0 427.179h213.675v-213.675h-213.675v213.675zM305.152 427.179h718.848v-213.675h-718.848v213.675zM0 21.675h213.675v-213.675h-213.675v213.675zM305.152 21.675h718.848v-213.675h-718.848v213.675z" />
<glyph unicode="&#xe954;" glyph-name="catalog" data-tags="catalog" d="M736.8 689.8c76 0 152-11.8 225.2-35.6 0-196.4 0-392.8 0-589.2-73.2 23.8-149.2 35.6-225.2 35.6s-152-11.8-225.2-35.6v0c-73.2 23.8-149.2 35.6-225.2 35.6s-152-11.8-225.2-35.6c0 196.4 0 392.8 0 589.2 73.2 23.8 149.2 35.6 225.2 35.6s152-11.8 225.2-35.6v0c73.2 23.6 149.2 35.6 225.2 35.6zM736.8 749.8c-76.4 0-152.2-11-225.2-32.8-73.2 21.8-148.8 32.8-225.2 32.8-83 0-165-13-243.8-38.6l-41.4-13.4v-715.6l78.6 25.6c66.8 21.8 136.4 32.8 206.8 32.8s139.8-11 206.8-32.8l18.6-6 18.6 6c66.8 21.8 136.4 32.8 206.8 32.8s139.8-11 206.8-32.8l78.6-25.6v715.4l-41.4 13.4c-79.6 25.8-161.6 38.8-244.6 38.8v0zM511.6-109.8l-7.8 2.6c-70.2 22.8-143.4 34.4-217.4 34.4s-147.2-11.6-217.6-34.4l-15.4 47.6c75.4 24.4 153.8 37 233 37 76.6 0 152.2-11.6 225.2-34.4 73 22.8 148.8 34.4 225.2 34.4 79.2 0 157.6-12.4 233-37l-15.4-47.6c-70.4 22.8-143.6 34.4-217.6 34.4s-147.2-11.6-217.6-34.4l-7.6-2.6zM486 664h50v-622h-50v622z" />
<glyph unicode="&#xe955;" glyph-name="service, services" data-tags="service" d="M963.4 329.4l-166 95.8 0.6 191.4 0.2 46.4-286.6 165.4-40-23.2-244.6-142.2-0.2-45.8-0.6-191.8-204.8-119-0.2-45.8-0.6-237-0.2-46.4 286.8-165.6 40 23.2 164.8 95.8 206.2-119 40 23.2 244.4 142.2 0.2 45.8 0.6 237 0.2 46.4-40.2 23.2zM121.2 225.4l166.2-96-0.4-190.8-166.2 96 0.4 190.8zM306.2 356.2l166.4-96-165-96-166.4 96 165 96zM697.2 391.2l-164.8-95.8 0.4 143.6 0.2 47 164.8 95.8-0.6-190.6zM327.6 129.4l164.4 95.6-0.4-190.4-164.6-95.6 0.6 190.4zM717.2 356.2l166.4-96-165-96-166.4 96 165 96zM513 521l-166.4 96 165 96 166.4-96-165-96zM493 486.2l-0.2-47.2-0.4-143.6-166.4 96 0.6 190.8 166.4-96zM532.4 225.4l166-96-0.4-190.8-166 95.8 0.4 191zM737.8-61.2l0.4 144.2 0.2 46.2 164.8 95.8-0.6-190.6-164.8-95.6z" />
<glyph unicode="&#xe956;" glyph-name="docker" data-tags="docker" horiz-adv-x="1126" d="M7.4 328.2h756c0 0 65.8 2.2 90.4 18.4 0 0-64.4 91.2 20 209.2 0 0 88.8-50.6 96.6-127.2 0 0 96.6 16.8 150.2-32.2 0 0-27.6-116.4-174.6-108.8 0 0-110.2-356.2-569.8-356.2-415.6 0-368.8 396.8-368.8 396.8zM89.2 457.6h116.4v-105.8h-116.4v105.8zM226 457.6h116.4v-105.8h-116.4v105.8zM362.8 457.6h116.4v-105.8h-116.4v105.8zM499.4 457.6h116.4v-105.8h-116.4v105.8zM636.2 457.6h116.4v-105.8h-116.4v105.8zM226 583.2h116.4v-105.8h-116.4v105.8zM362.8 583.2h116.4v-105.8h-116.4v105.8zM499.4 583.2h116.4v-105.8h-116.4v105.8zM499.4 708.6h116.4v-105.8h-116.4v105.8z" />
<glyph unicode="&#xe957;" glyph-name="auto" data-tags="auto" d="M282 174c-3.6 5.6-9.8 9.2-17.6 10.2-1.2 0.2-2.4 0.2-3.6 0.2-5.8 0-11.6-1.6-16.8-4.6l-151.6-87.8c-7.2-4.2-12-11.8-13-20.6-1-8 1.2-17 6.4-25 2.6-4.2 5.8-7.4 9-10 3.4-2.6 7.2-4.6 11.2-5.8 3-1 6-1.4 9-1.4 5.6 0 11 1.6 15.2 4.8l141.6 103c5.8 4.2 10.2 10.2 12.2 16.8 1 3.4 1.4 6.8 1 10.2 0 4-1.2 7.2-3 10v0 0 0zM412.8 68.2c-2.4 1-5 1.6-7.8 1.6-4.2 0-8.4-1.2-12.6-3.4-6-3.4-10.8-8.8-13.8-15.4l-71.4-160c-3.4-7.6-2.8-16.6 1.6-24.4 4-7.2 11-13 19.6-16.4 4.6-1.8 9.6-2.8 14.4-2.8 4 0 7.8 0.6 11.4 1.8 8.6 3 15 9.2 17.6 17l54 166.6c2.2 6.8 2.2 14.2 0.2 20.8s-6.8 11.8-13.2 14.6v0 0 0zM612.4 38.6c-2.2 6.8-6.4 12.8-12 16.8-4.4 3.2-9.4 5-14.4 5-2 0-4-0.2-5.6-0.8-2-0.6-3.6-1.4-4.6-2-1.6-0.8-3-1.8-4.4-3.2-2.4-2.2-4.4-5-6-8.4-2.8-6.2-3.6-13.6-2-20.6l36.2-171.4c1.8-8.2 7.4-15 15.6-18.8 3.8-1.8 7.8-2.8 12.2-3.2 1 0 2.2-0.2 3.2-0.2s2.2 0 3.4 0.2c2.2 0.2 4.2 0.6 7 1.4 8.8 2.4 16.4 7.6 21.2 14.2 5.2 7.4 6.8 16.2 4.2 24.2l-54 166.8zM901 49.8l-141.6 103c-5.8 4.2-12.6 6.4-19.4 6.4h-0.2c-7.8 0-14.4-3-18.8-8.4l-0.2-0.2c-2-2.8-3.4-6-4.2-9.2-0.6-3.2-0.6-6.8 0-10.2 1.4-6.6 5.2-13 10.4-18l130.2-117.2c4.8-4.4 10.8-6.6 17.6-6.6 2 0 4 0.2 6 0.6 4 0.8 8 2.4 11.6 4.6 4 2.4 7.6 5.6 10.2 9 5.6 7.2 8.8 15.6 8.8 24 0.4 9.2-3.6 17.2-10.4 22.2v0 0 0zM1008 320.2c-5.4 7.2-13.2 11.4-21.6 11.4h-175.2c-7.2 0-14.2-2.2-19.8-6.4-6.2-4.6-9.8-10.8-10-17.6-0.4-6.8 2.4-13.4 8.2-18.6 5.2-4.6 11.8-7.6 19-8.2l174.2-18c0.8 0 1.8-0.2 2.6-0.2 7.6 0 14.6 3.4 20 9.2 5.6 6.2 9 14.6 9.6 23.6v0.4c0.4 9-2 17.8-7 24.4v0 0 0zM738 470c3.6-5.6 9.8-9.2 17.6-10.2 1.2-0.2 2.4-0.2 3.6-0.2 5.8 0 11.6 1.6 16.8 4.6l151.6 87.8c7.2 4.2 12 11.8 13 20.6 1 8-1.2 17-6.4 25-2.6 4.2-5.8 7.4-9 10-3.6 2.6-7.2 4.6-11.2 5.8-3 1-6 1.4-9 1.4-5.6 0-11-1.6-15.2-4.8l-141.8-103.2c-5.8-4.2-10.2-10.2-12.2-16.8-1-3.4-1.4-6.8-1-10.2 0.2-3.8 1.4-7 3.2-9.8v0 0 0zM691.4 794.2c-4.6 1.8-9.6 2.8-14.4 2.8-4 0-7.8-0.6-11.4-1.8-8.6-3-15-9.2-17.6-17l-54-166.6c-2.2-6.8-2.2-14.2-0.2-20.8 2.4-6.8 7-12.2 13.4-14.8 2.4-1 5-1.6 7.8-1.6 4.2 0 8.4 1.2 12.6 3.4 6 3.4 10.8 8.8 13.8 15.4l71.4 160c3.4 7.6 2.8 16.4-1.6 24.4-4 7.2-11 13-19.8 16.6zM420.6 790c-1.8 8.2-7.4 15-15.6 18.8-3.8 1.8-7.8 2.8-12.2 3.2-1 0-2.2 0.2-3.2 0.2s-2.2 0-3.4-0.2c-2.2-0.2-4.2-0.6-7-1.4-8.8-2.4-16.4-7.6-21.2-14.2-5.2-7.4-6.8-16.2-4.2-24.2l54-166.6c2.2-6.8 6.4-12.8 12-16.8 4.4-3.2 9.4-5 14.4-5 2 0 4 0.2 5.6 0.8 2 0.6 3.6 1.4 4.6 2 1.6 0.8 3 1.8 4.4 3.2 2.4 2.2 4.4 5 6 8.4 2.8 6.2 3.6 13.6 2 20.6l-36.2 171.2zM292.6 530.8l-130 117.2c-4.8 4.4-10.8 6.6-17.6 6.6-2 0-4-0.2-6-0.6-4-0.8-8-2.4-11.6-4.6-4-2.4-7.6-5.6-10.2-9-5.6-7.2-8.8-15.6-8.8-24 0.2-9 4-17 10.8-22l141.6-103c5.8-4.2 12.6-6.4 19.4-6.4h0.2c7.8 0 14.4 3 18.8 8.4l0.2 0.2c2 2.8 3.4 6 4.2 9.2 0.6 3.2 0.6 6.8 0 10.2-1.8 6.4-5.6 12.8-11 17.8v0 0 0zM228.6 318.6c6.2 4.6 9.8 10.8 10 17.6 0.4 6.8-2.4 13.4-8.2 18.6-5.2 4.6-11.8 7.6-19 8.2l-174.2 18c-0.8 0-1.8 0.2-2.6 0.2-7.6 0-14.6-3.4-20-9.2-5.6-6.2-9-14.4-9.6-23.6v-0.4c-0.4-9.2 2.2-17.8 7.2-24.4 5.4-7.2 13.2-11.4 21.6-11.4v0h175.2c7 0.2 14 2.4 19.6 6.4v0 0 0zM512 576c-141.4 0-255.8-114.4-256-255.8 0-141.4 114.4-256 255.8-256.2h0.2c141.4 0 255.8 114.4 256 255.8 0 141.6-114.4 256-256 256.2zM346 317c0 1.2 0 2.6 0 3.8 0.2 44.2 17.4 85.4 48.6 116.8 31.2 31 72.4 48.2 116.6 48.4 17.8-0.2 34.8-3.2 50.8-8.6 11.8-22.6 18.4-48.6 18.4-75.8 0-90.4-73.6-164-164-164-17.8-0.2-35.2 2.8-51.4 8.2-11.4 21.2-18.2 45.4-19 71v0.2zM510 158c-28.4 0-55.2 7.2-78.4 20 116.6 7.8 209 104.8 209 223.4 0 7-0.4 14-1 21 21.6-27.8 34.6-62.6 34.6-100.4-0.2-90.4-73.8-164-164.2-164v0z" />
</font>
</defs>
</svg>
