<?xml version="1.0" standalone="no"?>
<!DOCTYPE svg PUBLIC "-//W3C//DTD SVG 1.1//EN" "http://www.w3.org/Graphics/SVG/1.1/DTD/svg11.dtd" >
<svg xmlns="http://www.w3.org/2000/svg">
<metadata>
<json>
<![CDATA[
{
	"fontFamily": "rancher-icons",
	"majorVersion": 2,
	"minorVersion": 0,
	"fontURL": "https://github.com/rancher/icons",
	"copyright": "2015 Rancher Labs, Inc.",
	"designer": "Lauren Vuchetich",
	"license": "Apache 2",
	"version": "Version 2.0",
	"fontId": "rancher-icons",
	"psName": "rancher-icons",
	"subFamily": "Regular",
	"fullName": "rancher-icons",
	"description": "Font generated by IcoMoon."
}
]]>
</json>
</metadata>
<defs>
<font id="rancher-icons" horiz-adv-x="1024">
<font-face units-per-em="1024" ascent="960" descent="-64" />
<missing-glyph horiz-adv-x="1024" />
<glyph unicode="&#x20;" horiz-adv-x="512" d="" />
<glyph unicode="&#xe900;" glyph-name="adjust" data-tags="adjust" d="M506.539 891.733c244.395 0 443.733-199.339 443.733-443.733s-199.339-443.733-443.733-443.733-443.733 199.339-443.733 443.733 199.339 443.733 443.733 443.733zM506.539 960c-282.624 0-512-229.376-512-512s229.376-512 512-512 512 229.376 512 512-228.693 512-512 512v0zM506.539 960c282.624 0 512-229.376 512-512s-229.376-512-512-512v1024z" />
<glyph unicode="&#xe901;" glyph-name="alert" data-tags="alert" d="M549.547 200.192c0-22.245-18.033-40.277-40.277-40.277s-40.277 18.033-40.277 40.277c0 22.245 18.033 40.277 40.277 40.277s40.277-18.033 40.277-40.277zM559.104 554.496c0-27.307-49.835-269.653-49.835-269.653s-49.835 241.664-49.835 269.653 22.528 49.835 49.835 49.835c27.307 0 49.835-22.528 49.835-49.835zM514.048 826.88l436.907-757.077h-873.813l436.907 757.077zM514.048 895.147c-24.576 0-47.104-12.971-59.392-34.133l-436.907-757.077c-12.288-21.163-12.288-47.104 0-68.267s34.816-34.133 59.392-34.133h873.813c24.576 0 47.104 12.971 59.392 34.133s12.288 47.104 0 68.267l-436.907 757.077c-12.288 20.48-34.816 34.133-59.392 34.133v0z" />
<glyph unicode="&#xe902;" glyph-name="apple" data-tags="apple" d="M673.792 621.397c25.259 0 47.104-6.144 66.219-17.749-6.144-7.509-12.288-15.019-17.067-21.845-30.72-44.373-45.739-93.525-45.739-146.773 0-57.344 16.384-109.227 48.469-154.965 15.701-23.211 33.451-42.325 52.565-57.344-9.557-20.48-21.845-40.96-35.499-61.44v0 0c-34.816-52.565-62.123-70.997-76.459-70.997-2.048 0-15.701 0.683-49.835 12.288-37.547 13.653-70.997 20.48-101.717 20.48-30.037 0-62.805-7.509-99.669-22.528h-1.365c-27.989-11.605-40.277-12.288-42.325-12.288-19.115 0-54.613 26.624-96.939 100.352-45.056 79.872-67.584 156.331-67.584 228.011 0 64.171 14.336 114.005 44.373 152.235 25.941 32.768 55.296 48.469 93.525 48.469 12.971 0 35.499-2.048 73.045-12.971 55.979-16.384 77.141-18.432 90.795-18.432 23.893 0 54.613 6.827 96.256 21.163 35.499 11.605 57.344 14.336 68.949 14.336zM673.792 689.664c-24.576 0-54.613-6.144-90.112-17.749-34.133-11.605-58.709-17.749-74.411-17.749-11.605 0-35.499 5.461-71.68 15.701s-66.901 15.701-92.16 15.701c-59.392 0-108.544-25.259-147.456-75.093-38.912-50.517-58.709-115.371-58.709-194.56 0-83.968 25.259-171.349 76.459-261.461 51.883-90.112 103.765-134.485 156.331-134.485 17.749 0 40.277 6.144 68.949 17.749 27.989 11.605 52.565 17.067 73.728 17.067 22.528 0 48.469-5.461 78.507-16.384 31.403-10.923 55.979-16.384 73.045-16.384 44.373 0 88.747 34.133 133.803 101.717 29.355 43.008 50.517 86.699 64.171 129.707-30.72 9.557-58.027 31.403-81.92 65.536s-36.181 73.045-36.181 116.053c0 38.912 11.605 75.093 34.133 107.861 12.288 17.749 32.085 38.229 59.392 61.44-17.749 21.845-36.181 39.595-53.931 51.883-34.133 21.845-70.997 33.451-111.957 33.451v0zM664.917 884.907c-60.757-14.336-104.448-39.595-129.707-77.141-25.941-37.547-39.595-81.92-40.277-133.803 23.211 2.048 40.96 4.779 53.931 8.875 18.432 6.144 37.547 18.432 55.979 37.547 21.845 21.845 38.229 45.739 48.469 71.68s15.019 49.835 15.019 70.997c0 1.365 0 3.413 0 5.461s0 4.096 0 5.461c-0.683 1.365-0.683 2.731-1.365 5.461-1.365 2.731-2.048 4.096-2.048 5.461v0z" />
<glyph unicode="&#xe903;" glyph-name="arrow-circle-up" data-tags="arrow-circle-up" d="M509.952 891.733c244.395 0 443.733-199.339 443.733-443.733s-199.339-443.733-443.733-443.733-443.733 199.339-443.733 443.733 198.656 443.733 443.733 443.733zM509.952 960c-282.624 0-512-229.376-512-512s229.376-512 512-512 512 229.376 512 512-229.376 512-512 512v0zM741.376 514.219l-231.424 231.424-232.107-231.424-48.469 47.787 280.576 280.576 279.893-280.576zM471.040 789.333h68.267v-682.667h-68.267v682.667z" />
<glyph unicode="&#xe904;" glyph-name="box" data-tags="box" d="M320.853 666.453h68.267v-655.36h-68.267v655.36zM354.987 630.955l-335.872 200.704 612.352 101.717 369.323-181.589-645.803-120.832zM213.675 794.795l154.283-92.16 419.157 78.507-165.888 81.237-407.552-67.584zM351.573-37.376l-331.093 186.368v681.301h68.267v-641.024l275.797-155.648 565.931 79.189-0.683 637.611h68.267l0.683-697.003z" />
<glyph unicode="&#xe905;" glyph-name="certificate" data-tags="certificate" d="M509.269 187.221l-75.776 82.603-107.179-34.133-23.211 109.909-109.909 23.893 34.133 107.179-82.603 75.093 82.603 75.776-34.133 107.179 109.909 23.893 23.893 109.909 107.179-34.133 75.093 81.92 75.776-82.603 107.179 34.133 23.893-109.909 109.909-23.893-34.133-107.179 82.603-75.776-82.603-75.776 34.133-107.179-110.592-22.528-23.893-109.909-107.179 34.133-75.093-82.603zM454.656 348.331l54.613-60.075 54.613 60.075 77.141-24.576 17.067 79.189 79.189 17.067-24.576 77.141 60.075 54.613-60.075 54.613 24.576 77.141-79.189 17.067-17.067 79.189-77.141-24.576-54.613 60.075-54.613-60.075-77.141 24.576-17.067-79.189-79.189-17.067 24.576-77.141-60.075-54.613 60.075-54.613-24.576-77.141 79.189-17.067 17.067-79.189 77.141 24.576zM677.205 620.715c8.875 3.413 18.432-1.365 21.845-10.923 2.731-10.24-2.731-19.797-12.288-21.845s-18.432 3.413-20.48 11.605c-2.048 7.509 2.048 17.067 10.923 21.163zM637.611 679.424c6.827 6.827 17.749 6.144 24.576-2.048 6.144-8.192 4.779-19.115-2.731-24.576-8.192-5.461-18.432-4.096-23.211 2.731-6.144 6.827-4.779 17.067 1.365 23.893zM578.219 719.019c3.413 8.875 13.653 12.288 23.211 7.509 8.875-4.779 12.288-16.384 6.827-23.893-5.461-8.192-15.019-10.24-22.528-6.144s-10.923 14.336-7.509 22.528zM508.587 733.355c0 9.557 8.192 16.384 18.432 16.384 10.24-1.365 17.067-10.24 15.019-19.115-2.048-9.557-10.24-15.701-18.432-14.336-8.192-0.683-15.019 7.509-15.019 17.067zM438.955 719.019c-3.413 8.875 1.365 18.432 10.923 21.845 10.24 2.731 19.797-2.731 21.845-12.288s-3.413-18.432-11.605-20.48c-8.192-2.048-17.749 2.731-21.163 10.923zM379.563 679.424c-6.827 6.827-6.144 17.749 2.048 24.576 8.192 6.144 19.115 4.779 24.576-2.731 5.461-8.192 4.096-18.432-2.731-23.211-6.827-5.461-17.067-4.779-23.893 1.365zM339.968 620.715c-8.875 3.413-12.288 13.653-7.509 23.211 4.779 8.875 16.384 12.288 23.893 6.827 8.192-5.461 10.24-15.019 6.144-22.528-4.096-8.192-14.336-10.923-22.528-7.509zM325.632 550.4c-9.557 0-16.384 8.192-16.384 18.432 1.365 10.24 10.24 17.067 19.115 15.019 9.557-2.048 15.701-10.24 14.336-18.432 0.683-7.509-7.509-15.019-17.067-15.019zM339.968 480.768c-8.875-3.413-18.432 1.365-21.845 10.923-2.731 10.24 2.731 19.797 12.288 21.845s18.432-3.413 20.48-11.605c2.048-8.192-2.048-17.749-10.923-21.163zM379.563 421.376c-6.827-6.827-17.749-6.144-24.576 2.048-6.144 8.192-4.779 19.115 2.731 24.576 8.192 5.461 18.432 4.096 23.211-2.731 6.144-6.827 4.779-17.067-1.365-23.893zM438.955 381.781c-3.413-8.875-13.653-12.288-23.211-7.509-8.875 4.779-12.288 16.384-6.827 23.893 5.461 8.192 15.019 10.24 22.528 6.144 7.509-3.413 10.923-13.653 7.509-22.528zM508.587 368.128c0-9.557-8.192-16.384-18.432-16.384-10.24 1.365-17.067 10.24-15.019 19.115 2.048 9.557 10.24 15.701 18.432 14.336 8.192 0 15.019-8.192 15.019-17.067zM578.219 381.781c3.413-8.875-1.365-18.432-10.923-21.845-10.24-2.731-19.797 2.731-21.845 12.288s3.413 18.432 11.605 20.48c8.192 2.731 17.749-2.048 21.163-10.923zM637.611 421.376c6.827-6.827 6.144-17.749-2.048-24.576-8.192-6.144-19.115-4.779-24.576 2.731-5.461 8.192-4.096 18.432 2.731 23.211 6.827 6.144 17.067 5.461 23.893-1.365zM677.205 480.768c8.875-3.413 12.288-13.653 7.509-23.211-4.779-8.875-16.384-12.288-23.893-6.827-8.192 5.461-10.24 15.019-6.144 22.528s14.336 10.923 22.528 7.509zM690.859 550.4c9.557 0 16.384-8.192 16.384-18.432-1.365-10.24-10.24-17.067-19.115-15.019-9.557 2.048-15.701 10.24-14.336 18.432 0 8.192 8.192 15.019 17.067 15.019zM445.099-59.221l-63.488 131.072-130.389-65.536 98.987 292.864 64.853-21.845-45.739-135.168 43.008 21.845 21.163-43.691 45.739 135.168 64.853-21.845zM571.392-59.221l-98.987 292.864 64.853 21.845 45.739-135.168 21.163 43.691 43.008-21.845-45.739 135.168 64.853 21.845 98.987-292.864-130.389 65.536z" />
<glyph unicode="&#xe906;" glyph-name="check" data-tags="check" d="M357.035-17.579l-350.891 351.573 120.832 120.832 230.059-230.741 543.403 543.403 120.832-120.832z" />
<glyph unicode="&#xe907;" glyph-name="chevron-down" data-tags="chevron-down" d="M510.635 34.987l-511.317 510.635 120.832 120.832 390.485-390.485 389.803 390.485 120.832-120.832z" />
<glyph unicode="&#xe908;" glyph-name="chevron-left" data-tags="chevron-left" d="M595.968-66.048l-514.731 514.731 514.731 514.048 120.832-120.832-393.899-393.216 393.899-393.899z" />
<glyph unicode="&#xe909;" glyph-name="chevron-right" data-tags="chevron-right" d="M404.139-66.048l-120.832 120.832 393.899 393.899-393.899 393.216 120.832 120.832 514.048-514.048z" />
<glyph unicode="&#xe90a;" glyph-name="chevron-up" data-tags="chevron-up" d="M898.389 207.701l-389.803 389.803-390.485-389.803-120.832 120.149 511.317 511.317 510.635-511.317z" />
<glyph unicode="&#xe90b;" glyph-name="circle-o" data-tags="circle-o" d="M509.952 891.733c244.395 0 443.733-199.339 443.733-443.733s-199.339-443.733-443.733-443.733-443.733 199.339-443.733 443.733 198.656 443.733 443.733 443.733zM509.952 960c-282.624 0-512-229.376-512-512s229.376-512 512-512 512 229.376 512 512-229.376 512-512 512v0z" />
<glyph unicode="&#xe90c;" glyph-name="circle" data-tags="circle" d="M1020.587 448c0-282.77-229.23-512-512-512s-512 229.23-512 512c0 282.77 229.23 512 512 512s512-229.23 512-512z" />
<glyph unicode="&#xe90d;" glyph-name="cloud" data-tags="cloud" d="M132.437 386.56h-34.133c0 77.824 63.488 140.629 140.629 140.629v-34.133c-58.709 0-106.496-47.787-106.496-106.496zM920.235 344.917h-34.133c0 35.499-29.355 64.853-64.853 64.853v34.133c54.613-0.683 98.987-45.056 98.987-98.987zM821.248 147.627h-582.315c-128.341 0-232.789 105.813-232.789 236.203 0 124.245 95.573 226.645 216.405 235.52 49.152 137.216 180.907 231.424 329.045 231.424 187.051 0 339.968-148.139 348.16-332.459 23.893-10.923 45.739-26.624 63.488-46.421 0 0 0 0 0 0 31.403-34.816 49.152-81.92 49.152-129.707 0-107.179-85.333-194.56-191.147-194.56zM238.933 551.083c-90.795 0-164.523-75.093-164.523-167.936 0-92.16 73.728-167.253 164.523-167.253h582.315c66.901 0 122.88 57.344 122.88 125.611 0 30.72-11.605 61.44-32.085 83.968v0c-15.019 17.067-34.816 29.355-56.661 35.499-15.019 4.096-24.576 17.749-24.576 33.451v2.731c0 1.365 0 2.731 0 4.096 0 154.965-125.611 280.576-280.576 280.576-124.928 0.683-236.203-83.968-269.653-205.483-4.096-15.701-18.432-25.941-34.133-25.259h-1.365c-2.048 0-4.096 0-6.144 0zM476.501 377.003l-68.267 2.731v1.365c0 2.048 0 4.096 0 5.461 0 90.795-74.411 164.523-166.571 164.523v68.267c129.707 0 234.837-104.448 234.837-232.789 0-2.731 0-6.144 0-8.875v-0.683zM342.016 577.024l-32.085 11.605c36.864 101.717 133.803 169.984 241.664 169.984 0 0 0 0 0 0v-34.133c0 0 0 0 0 0-92.16 0-178.176-60.075-209.579-147.456z" />
<glyph unicode="&#xe90e;" glyph-name="compass" data-tags="compass" d="M507.904 712.192c193.195 0 350.208-157.013 350.208-350.208s-157.013-350.208-350.208-350.208-350.208 157.013-350.208 350.208 157.013 350.208 350.208 350.208zM507.904 780.459c-230.741 0-418.475-187.051-418.475-418.475 0-230.741 187.051-418.475 418.475-418.475s418.475 187.051 418.475 418.475c-0.683 231.424-187.733 418.475-418.475 418.475v0zM477.867 79.36h68.267v-129.707h-68.267v129.707zM477.867 762.027h68.267v-136.533h-68.267v136.533zM785.067 400.213h136.533v-68.267h-136.533v68.267zM109.227 400.213h129.707v-68.267h-129.707v68.267zM580.267 796.16h-143.36c-41.643 0-75.093 33.451-75.093 75.093v13.653c0 41.643 33.451 75.093 75.093 75.093h143.36c41.643 0 75.093-33.451 75.093-75.093v-13.653c0-41.643-33.451-75.093-75.093-75.093zM436.907 891.733c-4.096 0-6.827-2.731-6.827-6.827v-13.653c0-4.096 2.731-6.827 6.827-6.827h143.36c4.096 0 6.827 2.731 6.827 6.827v13.653c0 4.096-2.731 6.827-6.827 6.827h-143.36zM680.619 551.083l-122.88-234.155-192.512-181.589c-6.827-6.144-17.067 1.365-12.288 9.557l122.197 234.155 192.512 181.589c6.827 6.144 17.067-1.365 12.971-9.557z" />
<glyph unicode="&#xe90f;" glyph-name="copy" data-tags="copy" d="M285.355 200.192h-277.163v542.72l190.464 186.368h356.352v-47.787h-337.237l-161.792-158.379v-475.136h229.376zM230.059 714.923h-190.464v47.787h142.677v142.677h47.787zM217.771 660.992c-21.163 0-33.451 8.875-41.643 15.019-6.827 5.461-11.605 8.192-21.845 8.192s-14.336-3.413-21.845-8.192c-8.875-6.144-20.48-15.019-41.643-15.019-9.557 0-17.067 7.509-17.067 17.067s7.509 17.067 17.067 17.067c10.24 0 14.336 3.413 21.845 8.192 8.875 6.144 20.48 15.019 41.643 15.019s33.451-8.875 41.643-15.019c6.827-5.461 11.605-8.192 21.845-8.192s14.336 3.413 21.845 8.192c8.875 6.144 20.48 15.019 41.643 15.019 9.557 0 17.067-7.509 17.067-17.067s-7.509-17.067-17.067-17.067c-10.24 0-14.336-3.413-21.845-8.192-8.875-6.144-20.48-15.019-41.643-15.019zM217.771 583.168c-21.163 0-33.451 8.875-41.643 15.019-6.827 5.461-11.605 8.192-21.845 8.192s-14.336-3.413-21.845-8.192c-8.875-6.144-20.48-15.019-41.643-15.019-9.557 0-17.067 7.509-17.067 17.067s7.509 17.067 17.067 17.067c10.24 0 14.336 3.413 21.845 8.192 8.875 6.144 20.48 15.019 41.643 15.019s33.451-8.875 41.643-15.019c6.827-5.461 11.605-8.192 21.845-8.192s14.336 3.413 21.845 8.192c8.875 6.144 20.48 15.019 41.643 15.019 9.557 0 17.067-7.509 17.067-17.067s-7.509-17.067-17.067-17.067c-10.24 0-14.336-3.413-21.845-8.192-8.875-6.827-20.48-15.019-41.643-15.019zM217.771 505.344c-21.163 0-33.451 8.875-41.643 15.019-6.827 5.461-11.605 8.192-21.845 8.192s-14.336-3.413-21.845-8.192c-8.875-6.144-20.48-15.019-41.643-15.019-9.557 0-17.067 7.509-17.067 17.067s7.509 17.067 17.067 17.067c10.24 0 14.336 3.413 21.845 8.192 8.875 6.144 20.48 15.019 41.643 15.019s33.451-8.875 41.643-15.019c6.827-5.461 11.605-8.192 21.845-8.192s14.336 3.413 21.845 8.192c8.875 6.144 20.48 15.019 41.643 15.019 9.557 0 17.067-7.509 17.067-17.067s-7.509-17.067-17.067-17.067c-10.24 0-14.336-3.413-21.845-8.192-8.875-6.827-20.48-15.019-41.643-15.019zM217.771 426.837c-21.163 0-33.451 8.875-41.643 15.019-6.827 5.461-11.605 8.192-21.845 8.192s-14.336-3.413-21.845-8.192c-8.875-6.144-20.48-15.019-41.643-15.019-9.557 0-17.067 7.509-17.067 17.067s7.509 17.067 17.067 17.067c10.24 0 14.336 3.413 21.845 8.192 8.875 6.144 20.48 15.019 41.643 15.019s33.451-8.875 41.643-15.019c6.827-5.461 11.605-8.192 21.845-8.192s14.336 3.413 21.845 8.192c8.875 6.144 20.48 15.019 41.643 15.019 9.557 0 17.067-7.509 17.067-17.067s-7.509-17.067-17.067-17.067c-10.24 0-14.336-3.413-21.845-8.192-8.875-6.144-20.48-15.019-41.643-15.019zM217.771 351.744c-21.163 0-33.451 8.875-41.643 15.019-6.827 5.461-11.605 8.192-21.845 8.192s-14.336-3.413-21.845-8.192c-8.875-6.144-20.48-15.019-41.643-15.019-9.557 0-17.067 7.509-17.067 17.067s7.509 17.067 17.067 17.067c10.24 0 14.336 3.413 21.845 8.192 8.875 6.144 20.48 15.019 41.643 15.019s33.451-8.875 41.643-15.019c6.827-5.461 11.605-8.192 21.845-8.192s14.336 3.413 21.845 8.192c8.875 6.144 20.48 15.019 41.643 15.019 9.557 0 17.067-7.509 17.067-17.067s-7.509-17.067-17.067-17.067c-10.24 0-14.336-3.413-21.845-8.192-8.875-6.144-20.48-15.019-41.643-15.019zM877.227 17.237h-560.469v729.771h111.275v-47.787h-63.488v-634.197h464.896l-4.096 634.197h-56.661v47.787h104.448zM961.877-64h-726.357v892.245h200.704v-68.267h-132.437v-755.712h589.824v755.712h-132.437v68.267h200.704zM789.845 476.672c-21.163 0-33.451 8.875-41.643 15.019-6.827 5.461-11.605 8.192-21.845 8.192s-15.019-3.413-21.845-8.192c-8.875-6.144-20.48-15.019-41.643-15.019s-33.451 8.875-41.643 15.019c-6.827 5.461-11.605 8.192-21.845 8.192s-15.019-3.413-21.845-8.192c-8.875-6.144-20.48-15.019-41.643-15.019s-33.451 8.875-41.643 15.019c-6.827 5.461-11.605 8.192-21.845 8.192s-15.019-3.413-21.845-8.192c-8.875-6.144-20.48-15.019-41.643-15.019-9.557 0-17.067 7.509-17.067 17.067s7.509 17.067 17.067 17.067c10.24 0 15.019 3.413 21.845 8.192 8.875 6.144 20.48 15.019 41.643 15.019s33.451-8.875 41.643-15.019c6.827-5.461 11.605-8.192 21.845-8.192s15.019 3.413 21.845 8.192c8.875 6.144 20.48 15.019 41.643 15.019s33.451-8.875 41.643-15.019c6.827-5.461 11.605-8.192 21.845-8.192s15.019 3.413 21.845 8.192c8.875 6.144 20.48 15.019 41.643 15.019s33.451-8.875 41.643-15.019c6.827-5.461 11.605-8.192 21.845-8.192 9.557 0 17.067-7.509 17.067-17.067s-8.192-17.067-17.067-17.067zM789.845 555.179c-21.163 0-33.451 8.875-41.643 15.019-6.827 5.461-11.605 8.192-21.845 8.192s-15.019-3.413-21.845-8.192c-8.875-6.144-20.48-15.019-41.643-15.019s-33.451 8.875-41.643 15.019c-6.827 5.461-11.605 8.192-21.845 8.192s-15.019-3.413-21.845-8.192c-8.875-6.144-20.48-15.019-41.643-15.019s-33.451 8.875-41.643 15.019c-6.827 5.461-11.605 8.192-21.845 8.192s-15.019-3.413-21.845-8.192c-8.875-6.144-20.48-15.019-41.643-15.019-9.557 0-17.067 7.509-17.067 17.067s7.509 17.067 17.067 17.067c10.24 0 15.019 3.413 21.845 8.192 8.875 6.144 20.48 15.019 41.643 15.019s33.451-8.875 41.643-15.019c6.827-5.461 11.605-8.192 21.845-8.192s15.019 3.413 21.845 8.192c8.875 6.144 20.48 15.019 41.643 15.019s33.451-8.875 41.643-15.019c6.827-5.461 11.605-8.192 21.845-8.192s15.019 3.413 21.845 8.192c8.875 6.144 20.48 15.019 41.643 15.019s33.451-8.875 41.643-15.019c6.827-5.461 11.605-8.192 21.845-8.192 9.557 0 17.067-7.509 17.067-17.067s-8.192-17.067-17.067-17.067zM789.845 398.165c-21.163 0-33.451 8.875-41.643 15.019-6.827 5.461-11.605 8.192-21.845 8.192s-15.019-3.413-21.845-8.192c-8.875-6.144-20.48-15.019-41.643-15.019s-33.451 8.875-41.643 15.019c-6.827 5.461-11.605 8.192-21.845 8.192s-15.019-3.413-21.845-8.192c-8.875-6.144-20.48-15.019-41.643-15.019s-33.451 8.875-41.643 15.019c-6.827 5.461-11.605 8.192-21.845 8.192s-15.019-3.413-21.845-8.192c-8.875-6.144-20.48-15.019-41.643-15.019-9.557 0-17.067 7.509-17.067 17.067s7.509 17.067 17.067 17.067c10.24 0 15.019 3.413 21.845 8.192 8.875 6.144 20.48 15.019 41.643 15.019s33.451-8.875 41.643-15.019c6.827-5.461 11.605-8.192 21.845-8.192s15.019 3.413 21.845 8.192c8.875 6.144 20.48 15.019 41.643 15.019s33.451-8.875 41.643-15.019c6.827-5.461 11.605-8.192 21.845-8.192s15.019 3.413 21.845 8.192c8.875 6.144 20.48 15.019 41.643 15.019s33.451-8.875 41.643-15.019c6.827-5.461 11.605-8.192 21.845-8.192 9.557 0 17.067-7.509 17.067-17.067s-8.192-17.067-17.067-17.067zM789.845 320.341c-21.163 0-33.451 8.875-41.643 15.019-6.827 5.461-11.605 8.192-21.845 8.192s-15.019-3.413-21.845-8.192c-8.875-6.144-20.48-15.019-41.643-15.019s-33.451 8.875-41.643 15.019c-6.827 5.461-11.605 8.192-21.845 8.192s-15.019-3.413-21.845-8.192c-8.875-6.144-20.48-15.019-41.643-15.019s-33.451 8.875-41.643 15.019c-6.827 5.461-11.605 8.192-21.845 8.192s-15.019-3.413-21.845-8.192c-8.875-6.144-20.48-15.019-41.643-15.019-9.557 0-17.067 7.509-17.067 17.067s7.509 17.067 17.067 17.067c10.24 0 15.019 3.413 21.845 8.192 8.875 6.144 20.48 15.019 41.643 15.019s33.451-8.875 41.643-15.019c6.827-5.461 11.605-8.192 21.845-8.192s15.019 3.413 21.845 8.192c8.875 6.144 20.48 15.019 41.643 15.019s33.451-8.875 41.643-15.019c6.827-5.461 11.605-8.192 21.845-8.192s15.019 3.413 21.845 8.192c8.875 6.144 20.48 15.019 41.643 15.019s33.451-8.875 41.643-15.019c6.827-5.461 11.605-8.192 21.845-8.192 9.557 0 17.067-7.509 17.067-17.067s-8.192-17.067-17.067-17.067zM789.845 241.835c-21.163 0-33.451 8.875-41.643 15.019-6.827 5.461-11.605 8.192-21.845 8.192s-15.019-3.413-21.845-8.192c-8.875-6.144-20.48-15.019-41.643-15.019s-33.451 8.875-41.643 15.019c-6.827 5.461-11.605 8.192-21.845 8.192s-15.019-3.413-21.845-8.192c-8.875-6.144-20.48-15.019-41.643-15.019s-33.451 8.875-41.643 15.019c-6.827 5.461-11.605 8.192-21.845 8.192s-15.019-3.413-21.845-8.192c-8.875-6.144-20.48-15.019-41.643-15.019-9.557 0-17.067 7.509-17.067 17.067s7.509 17.067 17.067 17.067c10.24 0 15.019 3.413 21.845 8.192 8.875 6.144 20.48 15.019 41.643 15.019s33.451-8.875 41.643-15.019c6.827-5.461 11.605-8.192 21.845-8.192s15.019 3.413 21.845 8.192c8.875 6.144 20.48 15.019 41.643 15.019s33.451-8.875 41.643-15.019c6.827-5.461 11.605-8.192 21.845-8.192s15.019 3.413 21.845 8.192c8.875 6.144 20.48 15.019 41.643 15.019s33.451-8.875 41.643-15.019c6.827-5.461 11.605-8.192 21.845-8.192 9.557 0 17.067-7.509 17.067-17.067s-8.192-17.067-17.067-17.067zM789.845 166.741c-21.163 0-33.451 8.875-41.643 15.019-6.827 5.461-11.605 8.192-21.845 8.192s-15.019-3.413-21.845-8.192c-8.875-6.144-20.48-15.019-41.643-15.019s-33.451 8.875-41.643 15.019c-6.827 5.461-11.605 8.192-21.845 8.192s-15.019-3.413-21.845-8.192c-8.875-6.144-20.48-15.019-41.643-15.019s-33.451 8.875-41.643 15.019c-6.827 5.461-11.605 8.192-21.845 8.192s-15.019-3.413-21.845-8.192c-8.875-6.144-20.48-15.019-41.643-15.019-9.557 0-17.067 7.509-17.067 17.067s7.509 17.067 17.067 17.067c10.24 0 15.019 3.413 21.845 8.192 8.875 6.144 20.48 15.019 41.643 15.019s33.451-8.875 41.643-15.019c6.827-5.461 11.605-8.192 21.845-8.192s15.019 3.413 21.845 8.192c8.875 6.144 20.48 15.019 41.643 15.019s33.451-8.875 41.643-15.019c6.827-5.461 11.605-8.192 21.845-8.192s15.019 3.413 21.845 8.192c8.875 6.144 20.48 15.019 41.643 15.019s33.451-8.875 41.643-15.019c6.827-5.461 11.605-8.192 21.845-8.192 9.557 0 17.067-7.509 17.067-17.067s-8.192-17.067-17.067-17.067zM600.064 892.416c32.085 0 58.709-25.941 58.709-58.027 0-18.432-8.192-33.451-21.163-45.056h99.669c12.971 0 21.163-10.923 21.163-23.893v-40.277h-320.853v40.277c0 12.971 12.288 23.893 25.259 23.893h100.352c-12.971 11.605-21.163 26.624-21.163 45.056 0 32.085 25.941 58.027 58.027 58.027zM600.064 940.203c-57.344 0-104.448-46.421-106.496-103.083h-30.72c-39.595 0-73.045-32.768-73.045-71.68v-88.064h416.427v88.064c0 40.277-30.037 71.68-68.949 71.68h-30.72c-1.365 56.661-48.469 103.083-106.496 103.083v0zM627.371 834.389c0-16.212-13.143-29.355-29.355-29.355s-29.355 13.143-29.355 29.355c0 16.212 13.143 29.355 29.355 29.355s29.355-13.143 29.355-29.355z" />
<glyph unicode="&#xe910;" glyph-name="cpu" data-tags="cpu" d="M948.907 883.541v-872.448h-872.448v872.448h872.448zM1017.173 951.808h-1008.981v-1008.981h1008.981v1008.981zM189.099 87.552c0-13.95-11.309-25.259-25.259-25.259s-25.259 11.309-25.259 25.259c0 13.95 11.309 25.259 25.259 25.259s25.259-11.309 25.259-25.259zM189.099 189.952c0-13.95-11.309-25.259-25.259-25.259s-25.259 11.309-25.259 25.259c0 13.95 11.309 25.259 25.259 25.259s25.259-11.309 25.259-25.259zM189.099 293.035c0-13.95-11.309-25.259-25.259-25.259s-25.259 11.309-25.259 25.259c0 13.95 11.309 25.259 25.259 25.259s25.259-11.309 25.259-25.259zM189.099 395.435c0-13.95-11.309-25.259-25.259-25.259s-25.259 11.309-25.259 25.259c0 13.95 11.309 25.259 25.259 25.259s25.259-11.309 25.259-25.259zM189.099 497.835c0-13.95-11.309-25.259-25.259-25.259s-25.259 11.309-25.259 25.259c0 13.95 11.309 25.259 25.259 25.259s25.259-11.309 25.259-25.259zM189.099 600.235c0-13.95-11.309-25.259-25.259-25.259s-25.259 11.309-25.259 25.259c0 13.95 11.309 25.259 25.259 25.259s25.259-11.309 25.259-25.259zM189.099 703.317c0-13.95-11.309-25.259-25.259-25.259s-25.259 11.309-25.259 25.259c0 13.95 11.309 25.259 25.259 25.259s25.259-11.309 25.259-25.259zM189.099 805.717c0-13.95-11.309-25.259-25.259-25.259s-25.259 11.309-25.259 25.259c0 13.95 11.309 25.259 25.259 25.259s25.259-11.309 25.259-25.259zM289.451 87.552c0-13.95-11.309-25.259-25.259-25.259s-25.259 11.309-25.259 25.259c0 13.95 11.309 25.259 25.259 25.259s25.259-11.309 25.259-25.259zM289.451 189.952c0-13.95-11.309-25.259-25.259-25.259s-25.259 11.309-25.259 25.259c0 13.95 11.309 25.259 25.259 25.259s25.259-11.309 25.259-25.259zM289.451 293.035c0-13.95-11.309-25.259-25.259-25.259s-25.259 11.309-25.259 25.259c0 13.95 11.309 25.259 25.259 25.259s25.259-11.309 25.259-25.259zM289.451 395.435c0-13.95-11.309-25.259-25.259-25.259s-25.259 11.309-25.259 25.259c0 13.95 11.309 25.259 25.259 25.259s25.259-11.309 25.259-25.259zM289.451 497.835c0-13.95-11.309-25.259-25.259-25.259s-25.259 11.309-25.259 25.259c0 13.95 11.309 25.259 25.259 25.259s25.259-11.309 25.259-25.259zM289.451 600.235c0-13.95-11.309-25.259-25.259-25.259s-25.259 11.309-25.259 25.259c0 13.95 11.309 25.259 25.259 25.259s25.259-11.309 25.259-25.259zM289.451 703.317c0-13.95-11.309-25.259-25.259-25.259s-25.259 11.309-25.259 25.259c0 13.95 11.309 25.259 25.259 25.259s25.259-11.309 25.259-25.259zM289.451 805.717c0-13.95-11.309-25.259-25.259-25.259s-25.259 11.309-25.259 25.259c0 13.95 11.309 25.259 25.259 25.259s25.259-11.309 25.259-25.259zM389.803 87.552c0-13.95-11.309-25.259-25.259-25.259s-25.259 11.309-25.259 25.259c0 13.95 11.309 25.259 25.259 25.259s25.259-11.309 25.259-25.259zM389.803 189.952c0-13.95-11.309-25.259-25.259-25.259s-25.259 11.309-25.259 25.259c0 13.95 11.309 25.259 25.259 25.259s25.259-11.309 25.259-25.259zM389.803 703.317c0-13.95-11.309-25.259-25.259-25.259s-25.259 11.309-25.259 25.259c0 13.95 11.309 25.259 25.259 25.259s25.259-11.309 25.259-25.259zM389.803 805.717c0-13.95-11.309-25.259-25.259-25.259s-25.259 11.309-25.259 25.259c0 13.95 11.309 25.259 25.259 25.259s25.259-11.309 25.259-25.259zM490.155 87.552c0-13.95-11.309-25.259-25.259-25.259s-25.259 11.309-25.259 25.259c0 13.95 11.309 25.259 25.259 25.259s25.259-11.309 25.259-25.259zM490.155 189.952c0-13.95-11.309-25.259-25.259-25.259s-25.259 11.309-25.259 25.259c0 13.95 11.309 25.259 25.259 25.259s25.259-11.309 25.259-25.259zM490.155 703.317c0-13.95-11.309-25.259-25.259-25.259s-25.259 11.309-25.259 25.259c0 13.95 11.309 25.259 25.259 25.259s25.259-11.309 25.259-25.259zM490.155 805.717c0-13.95-11.309-25.259-25.259-25.259s-25.259 11.309-25.259 25.259c0 13.95 11.309 25.259 25.259 25.259s25.259-11.309 25.259-25.259zM590.507 87.552c0-13.95-11.309-25.259-25.259-25.259s-25.259 11.309-25.259 25.259c0 13.95 11.309 25.259 25.259 25.259s25.259-11.309 25.259-25.259zM590.507 189.952c0-13.95-11.309-25.259-25.259-25.259s-25.259 11.309-25.259 25.259c0 13.95 11.309 25.259 25.259 25.259s25.259-11.309 25.259-25.259zM590.507 703.317c0-13.95-11.309-25.259-25.259-25.259s-25.259 11.309-25.259 25.259c0 13.95 11.309 25.259 25.259 25.259s25.259-11.309 25.259-25.259zM590.507 805.717c0-13.95-11.309-25.259-25.259-25.259s-25.259 11.309-25.259 25.259c0 13.95 11.309 25.259 25.259 25.259s25.259-11.309 25.259-25.259zM690.859 87.552c0-13.95-11.309-25.259-25.259-25.259s-25.259 11.309-25.259 25.259c0 13.95 11.309 25.259 25.259 25.259s25.259-11.309 25.259-25.259zM690.859 189.952c0-13.95-11.309-25.259-25.259-25.259s-25.259 11.309-25.259 25.259c0 13.95 11.309 25.259 25.259 25.259s25.259-11.309 25.259-25.259zM690.859 703.317c0-13.95-11.309-25.259-25.259-25.259s-25.259 11.309-25.259 25.259c0 13.95 11.309 25.259 25.259 25.259s25.259-11.309 25.259-25.259zM690.859 805.717c0-13.95-11.309-25.259-25.259-25.259s-25.259 11.309-25.259 25.259c0 13.95 11.309 25.259 25.259 25.259s25.259-11.309 25.259-25.259zM791.211 87.552c0-13.95-11.309-25.259-25.259-25.259s-25.259 11.309-25.259 25.259c0 13.95 11.309 25.259 25.259 25.259s25.259-11.309 25.259-25.259zM791.211 189.952c0-13.95-11.309-25.259-25.259-25.259s-25.259 11.309-25.259 25.259c0 13.95 11.309 25.259 25.259 25.259s25.259-11.309 25.259-25.259zM791.211 293.035c0-13.95-11.309-25.259-25.259-25.259s-25.259 11.309-25.259 25.259c0 13.95 11.309 25.259 25.259 25.259s25.259-11.309 25.259-25.259zM791.211 395.435c0-13.95-11.309-25.259-25.259-25.259s-25.259 11.309-25.259 25.259c0 13.95 11.309 25.259 25.259 25.259s25.259-11.309 25.259-25.259zM791.211 497.835c0-13.95-11.309-25.259-25.259-25.259s-25.259 11.309-25.259 25.259c0 13.95 11.309 25.259 25.259 25.259s25.259-11.309 25.259-25.259zM791.211 600.235c0-13.95-11.309-25.259-25.259-25.259s-25.259 11.309-25.259 25.259c0 13.95 11.309 25.259 25.259 25.259s25.259-11.309 25.259-25.259zM791.211 703.317c0-13.95-11.309-25.259-25.259-25.259s-25.259 11.309-25.259 25.259c0 13.95 11.309 25.259 25.259 25.259s25.259-11.309 25.259-25.259zM791.211 805.717c0-13.95-11.309-25.259-25.259-25.259s-25.259 11.309-25.259 25.259c0 13.95 11.309 25.259 25.259 25.259s25.259-11.309 25.259-25.259zM891.563 87.552c0-13.95-11.309-25.259-25.259-25.259s-25.259 11.309-25.259 25.259c0 13.95 11.309 25.259 25.259 25.259s25.259-11.309 25.259-25.259zM891.563 189.952c0-13.95-11.309-25.259-25.259-25.259s-25.259 11.309-25.259 25.259c0 13.95 11.309 25.259 25.259 25.259s25.259-11.309 25.259-25.259zM891.563 293.035c0-13.95-11.309-25.259-25.259-25.259s-25.259 11.309-25.259 25.259c0 13.95 11.309 25.259 25.259 25.259s25.259-11.309 25.259-25.259zM891.563 395.435c0-13.95-11.309-25.259-25.259-25.259s-25.259 11.309-25.259 25.259c0 13.95 11.309 25.259 25.259 25.259s25.259-11.309 25.259-25.259zM891.563 497.835c0-13.95-11.309-25.259-25.259-25.259s-25.259 11.309-25.259 25.259c0 13.95 11.309 25.259 25.259 25.259s25.259-11.309 25.259-25.259zM891.563 600.235c0-13.95-11.309-25.259-25.259-25.259s-25.259 11.309-25.259 25.259c0 13.95 11.309 25.259 25.259 25.259s25.259-11.309 25.259-25.259zM891.563 703.317c0-13.95-11.309-25.259-25.259-25.259s-25.259 11.309-25.259 25.259c0 13.95 11.309 25.259 25.259 25.259s25.259-11.309 25.259-25.259zM891.563 805.717c0-13.95-11.309-25.259-25.259-25.259s-25.259 11.309-25.259 25.259c0 13.95 11.309 25.259 25.259 25.259s25.259-11.309 25.259-25.259zM319.488 633.003h78.507v-78.507h-78.507v78.507zM319.488 533.333h78.507v-78.507h-78.507v78.507zM319.488 432.981h78.507v-86.016h-78.507v86.016zM319.488 325.803h78.507v-78.507h-78.507v78.507zM426.667 633.003h78.507v-78.507h-78.507v78.507zM426.667 533.333h78.507v-78.507h-78.507v78.507zM426.667 432.981h78.507v-86.016h-78.507v86.016zM426.667 325.803h78.507v-78.507h-78.507v78.507zM527.019 633.003h86.016v-78.507h-86.016v78.507zM527.019 533.333h86.016v-78.507h-86.016v78.507zM527.019 432.981h86.016v-86.016h-86.016v86.016zM527.019 325.803h86.016v-78.507h-86.016v78.507zM634.197 633.003h78.507v-78.507h-78.507v78.507zM634.197 533.333h78.507v-78.507h-78.507v78.507zM634.197 432.981h78.507v-86.016h-78.507v86.016zM634.197 325.803h78.507v-78.507h-78.507v78.507z" />
<glyph unicode="&#xe911;" glyph-name="database" data-tags="database" d="M512.683 232.96c-35.499 0-70.315 0.683-105.131 2.731-114.005 5.461-234.837 14.336-341.333 53.248l18.432 51.2c99.669-36.181 215.723-44.373 325.632-49.835 111.275-5.461 226.645-2.048 342.016 10.24 51.883 5.461 118.784 14.336 182.955 34.816l16.384-51.883c-68.267-21.845-139.264-31.403-193.195-37.547-82.603-8.192-165.205-12.971-245.76-12.971zM512.683 529.237c-35.499 0-70.315 0.683-105.131 2.731-114.005 5.461-234.837 13.653-341.333 52.565l18.432 51.2c99.669-36.181 215.723-44.373 325.632-49.835 111.275-5.461 226.645-2.048 342.016 10.24 51.883 5.461 118.784 14.336 182.955 34.816l16.384-51.883c-68.267-21.845-139.264-31.403-193.195-37.547-82.603-8.192-165.205-12.288-245.76-12.288zM524.971 153.771c-167.253 0-326.315 17.067-423.936 45.739l9.557 32.768c94.891-27.989 249.856-44.373 414.379-44.373 157.696 0 303.104 15.019 400.043 40.277l8.875-32.768c-99.669-25.941-249.173-41.643-408.917-41.643zM524.971 450.048c-167.253 0-326.315 17.067-423.936 45.739l9.557 32.768c94.891-27.989 249.856-44.373 414.379-44.373 157.696 0 303.104 15.019 400.043 40.277l8.875-32.768c-99.669-26.624-249.173-41.643-408.917-41.643zM524.971 758.613c-167.253 0-326.315 17.067-423.936 45.739l9.557 32.768c94.891-27.989 249.856-44.373 414.379-44.373 157.696 0 303.104 15.019 400.043 40.277l8.875-32.768c-99.669-26.624-249.173-41.643-408.917-41.643zM879.957 696.491c0-20.736-16.81-37.547-37.547-37.547s-37.547 16.81-37.547 37.547c0 20.736 16.81 37.547 37.547 37.547s37.547-16.81 37.547-37.547zM879.957 400.896c0-20.736-16.81-37.547-37.547-37.547s-37.547 16.81-37.547 37.547c0 20.736 16.81 37.547 37.547 37.547s37.547-16.81 37.547-37.547zM879.957 104.619c0-20.736-16.81-37.547-37.547-37.547s-37.547 16.81-37.547 37.547c0 20.736 16.81 37.547 37.547 37.547s37.547-16.81 37.547-37.547zM509.952 880.128c112.64 0 221.867-8.192 307.883-22.528 79.872-13.653 116.053-28.672 131.072-36.864v-157.013c-2.731-1.365-5.461-2.731-9.557-4.779l-142.677-62.805 142.677-62.805c4.096-2.048 7.509-3.413 9.557-4.779v-157.696c-3.413-2.048-7.509-4.096-13.653-6.144l-151.552-62.805 152.235-62.805c5.461-2.048 10.24-4.779 13.653-6.144v-157.696c-15.019-8.192-51.2-23.211-131.072-36.864-85.333-14.336-194.56-22.528-307.883-22.528s-222.549 8.192-308.565 22.528c-79.872 13.653-116.736 28.672-131.755 36.864l1.365 157.013c3.413 2.048 7.509 4.096 13.653 6.144l153.6 63.488-154.283 62.805c-6.144 2.731-10.923 4.779-15.019 6.827l1.365 157.013c2.731 1.365 5.461 2.731 9.557 4.779l144.725 63.488-145.408 62.123c-4.779 2.048-8.875 4.096-11.605 5.461l0.683 157.013c15.019 8.192 51.883 23.211 132.437 36.864 86.016 13.653 195.925 21.845 308.565 21.845zM509.952 948.395c-284.672 0-509.269-47.787-509.269-107.861l-0.683-197.291c0-17.067 19.115-33.451 53.248-47.787-32.085-14.336-50.517-30.037-50.517-47.104l-1.365-196.608c0-17.749 20.48-34.816 57.344-49.835-35.499-15.019-55.296-31.403-55.296-49.152l-2.048-197.291c0-59.392 224.597-107.861 509.269-107.861s507.221 48.469 507.221 107.861v197.291c0 17.749-19.797 34.816-55.296 49.835 35.499 15.019 55.296 31.403 55.296 49.152v197.291c0 17.067-17.749 33.451-50.517 47.787 32.768 14.336 50.517 30.037 50.517 47.104v196.608c-0.683 60.075-223.232 107.861-507.904 107.861v0z" />
<glyph unicode="&#xe912;" glyph-name="dot-circlefill" data-tags="circle-dots" d="M510.635 887.637c243.712 0 441.685-197.973 441.685-441.685s-197.973-441.685-441.685-441.685-441.685 197.973-441.685 441.685 197.973 441.685 441.685 441.685zM510.635 955.904c-281.941 0-509.952-228.011-509.952-509.952 0-281.259 228.011-509.952 509.952-509.952 281.259 0 509.952 228.011 509.952 509.952-0.683 281.941-228.693 509.952-509.952 509.952v0zM512 241.835c-37.547 0-68.267-34.133-68.267-68.267 0-40.96 30.72-68.267 68.267-68.267s68.267 27.307 68.267 68.267c0 34.133-30.72 68.267-68.267 68.267zM238.933 787.968c-37.547 0-68.267-34.133-68.267-68.267 0-40.96 30.72-68.267 68.267-68.267s68.267 27.307 68.267 68.267c0 34.133-30.72 68.267-68.267 68.267zM375.467 104.619c-40.96 0-68.267-30.72-68.267-68.267s27.307-68.267 68.267-68.267c34.133 0 68.267 30.72 68.267 68.267s-34.133 68.267-68.267 68.267zM512 514.901c-37.547 0-68.267-34.133-68.267-68.267 0-40.96 30.72-68.267 68.267-68.267s68.267 27.307 68.267 68.267c0 34.133-30.72 68.267-68.267 68.267zM102.4 377.685c-40.96 0-68.267-30.72-68.267-68.267s27.307-68.267 68.267-68.267c34.133 0 68.267 30.72 68.267 68.267s-34.133 68.267-68.267 68.267zM238.933 241.835c-37.547 0-68.267-34.133-68.267-68.267 0-40.96 30.72-68.267 68.267-68.267s68.267 27.307 68.267 68.267c0 34.133-30.72 68.267-68.267 68.267zM512 787.968c-37.547 0-68.267-34.133-68.267-68.267 0-40.96 30.72-68.267 68.267-68.267s68.267 27.307 68.267 68.267c0 34.133-30.72 68.267-68.267 68.267zM238.933 514.901c-37.547 0-68.267-34.133-68.267-68.267 0-40.96 30.72-68.267 68.267-68.267s68.267 27.307 68.267 68.267c0 34.133-30.72 68.267-68.267 68.267zM989.867 309.419c0 37.547-34.133 68.267-68.267 68.267-40.96 0-68.267-30.72-68.267-68.267s27.307-68.267 68.267-68.267c34.133 0 68.267 30.72 68.267 68.267zM785.067 787.968c-37.547 0-68.267-34.133-68.267-68.267 0-40.96 30.72-68.267 68.267-68.267s68.267 27.307 68.267 68.267c0 34.133-30.72 68.267-68.267 68.267zM785.067 514.901c-37.547 0-68.267-34.133-68.267-68.267 0-40.96 30.72-68.267 68.267-68.267s68.267 27.307 68.267 68.267c0 34.133-30.72 68.267-68.267 68.267zM648.533 104.619c-40.96 0-68.267-30.72-68.267-68.267s27.307-68.267 68.267-68.267c34.133 0 68.267 30.72 68.267 68.267s-34.133 68.267-68.267 68.267zM785.067 241.835c-37.547 0-68.267-34.133-68.267-68.267 0-40.96 30.72-68.267 68.267-68.267s68.267 27.307 68.267 68.267c0 34.133-30.72 68.267-68.267 68.267zM648.533 787.285c34.133 0 68.267 30.72 68.267 68.267s-34.133 68.267-68.267 68.267c-40.96 0-68.267-30.72-68.267-68.267s27.307-68.267 68.267-68.267zM512-29.867c-22.528 0-43.008-12.288-55.296-30.037 18.432-2.048 36.864-2.731 55.296-2.731s36.864 1.365 55.296 2.731c-12.971 17.749-32.768 30.037-55.296 30.037zM102.4 514.219c34.133 0 68.267 30.72 68.267 68.267s-34.133 68.267-68.267 68.267c-40.96 0-68.267-30.72-68.267-68.267s27.307-68.267 68.267-68.267zM34.133 446.635c0 20.48-11.605 41.643-28.672 54.613-2.048-17.749-2.731-36.181-2.731-54.613 0-19.115 1.365-37.547 3.413-55.979 16.384 11.605 27.989 31.403 27.989 55.979zM512 925.867c23.211 0 43.691 10.24 55.979 27.307-18.432 2.048-36.864 2.731-55.296 2.731-19.115 0-37.547-1.365-55.979-3.413 11.605-16.384 32.085-26.624 55.296-26.624zM872.448 807.083c0 0 0 0 0 0s0 0 0 0zM989.867 446.635c0-25.259 11.605-45.056 28.672-56.661 2.048 18.432 3.413 37.547 3.413 56.661 0 18.432-1.365 36.864-2.731 54.613-18.432-12.971-29.355-33.451-29.355-54.613zM921.6 514.219c34.133 0 68.267 30.72 68.267 68.267s-34.133 68.267-68.267 68.267c-40.96 0-68.267-30.72-68.267-68.267s27.307-68.267 68.267-68.267zM375.467 514.219c34.133 0 68.267 30.72 68.267 68.267s-34.133 68.267-68.267 68.267c-40.96 0-68.267-30.72-68.267-68.267s27.307-68.267 68.267-68.267zM375.467 241.152c34.133 0 68.267 30.72 68.267 68.267s-34.133 68.267-68.267 68.267c-40.96 0-68.267-30.72-68.267-68.267s27.307-68.267 68.267-68.267zM648.533 241.152c34.133 0 68.267 30.72 68.267 68.267s-34.133 68.267-68.267 68.267c-40.96 0-68.267-30.72-68.267-68.267s27.307-68.267 68.267-68.267zM375.467 787.285c34.133 0 68.267 30.72 68.267 68.267s-34.133 68.267-68.267 68.267c-40.96 0-68.267-30.72-68.267-68.267s27.307-68.267 68.267-68.267zM648.533 514.219c34.133 0 68.267 30.72 68.267 68.267s-34.133 68.267-68.267 68.267c-40.96 0-68.267-30.72-68.267-68.267s27.307-68.267 68.267-68.267z" />
<glyph unicode="&#xe913;" glyph-name="dot-diagonalfill" data-tags="circle-diagonal" d="M928.427 734.72l-708.608-708.608c11.605-8.192 23.211-15.019 35.499-22.528l695.637 696.32c-7.509 11.605-15.019 23.893-22.528 34.816zM984.405 628.224l-658.091-658.091c14.336-5.461 28.672-10.24 43.008-14.336l629.419 629.419c-4.096 14.336-8.875 28.672-14.336 43.008zM1015.808 500.565l-561.152-561.152c17.749-2.048 36.181-2.731 54.613-2.731l509.952 509.952c-0.683 17.749-2.048 35.499-3.413 53.931zM975.531 241.152c12.288 27.989 21.845 56.661 28.672 86.699l-377.515-378.197c30.037 6.827 58.709 17.067 86.699 28.672l262.144 262.827zM647.851 936.107l-629.419-629.419c4.096-15.019 8.875-29.355 14.336-43.008l658.091 658.091c-13.653 5.461-27.989 10.24-43.008 14.336zM509.269 955.221l-509.952-509.952c0-18.432 1.365-36.864 2.731-54.613l561.835 561.835c-18.432 2.048-36.181 2.731-54.613 2.731zM304.469 912.896l-262.827-262.827c-12.288-27.989-21.845-56.661-28.672-86.699l378.197 378.197c-30.037-7.509-58.709-17.067-86.699-28.672zM854.699 820.053l-720.213-720.213c9.557-10.24 19.115-19.797 28.672-28.672l720.213 720.213c-9.557 9.557-19.115 19.797-28.672 28.672zM762.539 887.637l-695.637-695.637c6.827-12.288 14.336-23.893 22.528-35.499l708.608 708.608c-11.605 8.192-23.211 15.019-35.499 22.528zM508.587 886.955c243.712 0 441.685-197.973 441.685-441.685s-197.973-441.685-441.685-441.685-441.003 198.656-441.003 442.368 197.973 441.003 441.003 441.003zM508.587 955.221c-281.259 0-509.269-228.011-509.269-509.269s228.011-509.952 509.952-509.952c281.259 0 509.952 228.011 509.952 509.952-0.683 281.259-228.693 509.269-510.635 509.269v0z" />
<glyph unicode="&#xe914;" glyph-name="download" data-tags="download" d="M990.549-57.173h-963.925v335.872h136.533v-199.339h690.859v199.339h136.533zM504.491 168.107l-315.392 315.392 96.256 96.939 219.136-219.136 219.136 219.136 96.256-96.939zM428.715 966.827h136.533v-701.099h-136.533v701.099z" />
<glyph unicode="&#xe915;" glyph-name="edit" data-tags="edit" d="M539.307 652.117l124.245-82.603-306.517-458.752-131.072-62.123 6.827 144.725 306.517 458.752zM520.192 747.008l-37.547-56.661-306.517-458.752-10.24-15.701-0.683-19.115-6.827-144.725-5.461-114.005 102.4 49.152 148.139 70.315 10.24 15.701 306.517 458.752 38.229 56.661-57.344 37.547-124.245 83.285-56.661 37.547zM706.56 891.733c0.683 0 1.365 0 2.048-0.683l112.64-75.093c2.048-1.365 2.048-4.096 0.683-6.144l-73.728-111.275-119.467 79.872 73.728 111.275c1.365 1.365 2.731 2.048 4.096 2.048zM706.56 960c-24.576 0-47.104-12.288-60.757-32.768l-111.275-167.936 56.661-37.547 118.784-79.872 56.661-37.547 111.275 167.936c22.528 33.451 13.653 78.507-19.797 100.352l-112.64 75.093c-10.923 8.192-24.576 12.288-38.912 12.288v0zM568.537 654.096l28.314-19.067-321.849-477.934-28.314 19.067 321.849 477.934zM623.325 613.354l28.314-19.067-321.849-477.934-28.314 19.067 321.849 477.934zM241.775 208.023l123.998-82.283-18.872-28.44-123.998 82.283 18.872 28.44z" />
<glyph unicode="&#xe916;" glyph-name="ellipsis" data-tags="ellipsis" d="M124.928 510.123c34.133 0 62.123-27.989 62.123-62.123s-27.989-62.123-62.123-62.123-62.123 27.989-62.123 62.123c0 34.816 27.989 62.123 62.123 62.123zM124.928 578.389c-71.68 0-130.389-58.027-130.389-130.389s58.709-130.389 130.389-130.389c72.363 0 130.389 58.709 130.389 130.389 0 72.363-58.027 130.389-130.389 130.389v0zM505.856 510.123c34.133 0 62.123-27.989 62.123-62.123s-27.989-62.123-62.123-62.123-62.123 27.989-62.123 62.123c0 34.816 27.989 62.123 62.123 62.123zM505.856 578.389c-71.68 0-130.389-58.027-130.389-130.389s58.709-130.389 130.389-130.389c72.363 0 130.389 58.709 130.389 130.389 0 72.363-58.027 130.389-130.389 130.389v0zM886.784 510.123c34.133 0 62.123-27.989 62.123-62.123s-27.989-62.123-62.123-62.123-62.123 27.989-62.123 62.123c0 34.816 27.989 62.123 62.123 62.123zM886.784 578.389c-72.363 0-130.389-58.709-130.389-130.389 0-72.363 58.709-130.389 130.389-130.389 72.363 0 130.389 58.709 130.389 130.389 0 72.363-58.709 130.389-130.389 130.389v0z" />
<glyph unicode="&#xe917;" glyph-name="external-link" data-tags="external-link" d="M434.859 557.227c6.144 0 12.288-2.048 17.067-6.827l159.744-159.744c9.557-9.557 9.557-24.576 0-34.133l-6.827-6.827c-4.779-4.779-10.923-6.827-17.067-6.827s-12.288 2.048-17.067 6.827l-159.744 159.061c-9.557 9.557-9.557 24.576 0 34.133l6.827 6.827c4.779 4.779 10.923 7.509 17.067 7.509zM434.859 625.493c-24.576 0-47.787-9.557-65.536-27.307l-6.827-6.827c-36.181-36.181-36.181-94.891 0-131.072l159.744-159.744c17.749-17.749 40.96-27.307 65.536-27.307s47.787 9.557 65.536 27.307l6.827 6.827c36.181 36.181 36.181 94.891 0 131.072l-159.744 159.744c-17.749 17.067-40.96 27.307-65.536 27.307v0zM803.499-53.76c-56.661 0-109.909 21.845-149.504 61.44l-166.571 166.571c-67.584 67.584-81.237 172.715-33.451 256l58.709-34.133c-32.768-55.979-23.211-127.659 22.528-173.397l166.571-166.571c26.624-26.624 62.805-41.643 101.035-41.643 0 0 0 0 0 0 38.229 0 74.411 15.019 101.035 41.643s41.643 62.805 41.643 101.035c0 38.229-14.336 74.411-41.643 101.035l-166.571 166.571c-45.739 45.739-117.419 55.296-173.397 21.845l-34.133 58.709c83.285 48.469 188.416 34.816 256.683-32.768l166.571-166.571c39.595-39.595 61.44-92.843 61.44-149.504s-21.845-109.909-62.123-149.504c-39.595-38.912-92.843-60.757-148.821-60.757 0 0 0 0 0 0zM803.499 43.179c-29.355 0-58.709 10.923-80.555 33.451l-167.253 166.571c-29.355 29.355-40.96 73.045-28.672 113.323l65.536-19.115c-4.779-16.384 0-33.451 11.605-45.739l166.571-166.571c17.749-17.749 47.104-17.749 64.853 0s18.432 47.104 0 65.536l-166.571 165.888c-12.288 12.288-30.037 16.384-46.421 10.923l-21.163 64.853c40.96 12.971 85.333 2.731 116.053-27.989l166.571-166.571c21.845-21.845 33.451-50.517 33.451-81.237s-12.288-59.392-33.451-80.555c-22.528-21.845-51.883-32.768-80.555-32.768zM384.341 364.715c-54.613 0-108.544 21.163-149.504 62.123l-166.571 166.571c-82.603 82.603-82.603 216.405 0 299.008 81.92 82.603 216.405 82.603 299.008 0l166.571-166.571c68.949-68.949 81.237-179.541 28.672-262.827l-57.344 36.864c35.499 55.979 27.307 131.072-19.115 178.176l-167.253 165.888c-55.979 55.979-146.773 55.979-202.752 0s-55.296-146.091 0-202.069l167.253-166.571c46.421-46.421 120.149-55.296 176.128-20.48l35.499-58.027c-34.816-21.845-73.045-32.085-110.592-32.085zM384.341 462.336c-30.037 0-59.392 11.605-80.555 33.451l-167.253 166.571c-44.373 44.373-44.373 116.736 0 161.109 21.845 21.845 50.517 33.451 80.555 33.451 0 0 0 0 0 0 30.72 0 59.392-11.605 80.555-33.451l166.571-166.571c26.624-26.624 38.912-65.536 31.403-103.083l-66.901 12.971c2.731 15.019-2.048 30.72-12.288 41.643l-166.571 167.253c-8.875 8.875-20.48 13.653-32.768 13.653 0 0 0 0 0 0-12.288 0-23.893-4.779-32.768-13.653-17.749-17.749-17.749-47.104 0-64.853l167.253-167.253c10.923-10.923 25.941-15.701 41.643-12.971l12.971-66.901c-7.509-0.683-15.019-1.365-21.845-1.365zM1010.347 598.187h-68.267v279.893h-279.893v68.267h348.16zM950.335 934.236l48.271-48.271-290.111-290.111-48.271 48.271 290.111 290.111zM290.020 274.256l48.271-48.271-286.732-286.732-48.271 48.271 286.732 286.732z" />
<glyph unicode="&#xe918;" glyph-name="face-frown" data-tags="face-frown" d="M510.635 891.051c244.395 0 443.733-199.339 443.733-443.733s-199.339-443.733-443.733-443.733-443.733 199.339-443.733 443.733 199.339 443.733 443.733 443.733zM510.635 959.317c-282.624 0-512-229.376-512-512s229.376-512 512-512 512 229.376 512 512-228.693 512-512 512v0zM257.365 203.605l-55.979 38.912c68.267 99.669 184.32 159.061 310.613 159.061 0 0 0.683 0 0.683 0 125.611 0 241.664-59.392 309.248-159.061l-56.661-38.229c-55.296 80.555-150.187 129.024-253.269 129.024-103.765 0-199.339-48.469-254.635-129.707zM359.765 480.768c0-18.851-15.282-34.133-34.133-34.133s-34.133 15.282-34.133 34.133c0 18.851 15.282 34.133 34.133 34.133s34.133-15.282 34.133-34.133zM728.405 480.768c0-18.851-15.282-34.133-34.133-34.133s-34.133 15.282-34.133 34.133c0 18.851 15.282 34.133 34.133 34.133s34.133-15.282 34.133-34.133z" />
<glyph unicode="&#xe919;" glyph-name="face-gasp" data-tags="face-gasp" d="M513.365 880.128c238.933 0 432.811-193.877 432.811-432.811s-193.877-432.811-432.811-432.811-432.811 194.56-432.811 432.811 193.877 432.811 432.811 432.811zM513.365 948.395c-277.163 0-501.077-223.915-501.077-501.077s224.597-501.077 501.077-501.077 501.077 224.597 501.077 501.077-224.597 501.077-501.077 501.077v0zM365.227 480.085c0-18.474-14.976-33.451-33.451-33.451s-33.451 14.976-33.451 33.451c0 18.474 14.976 33.451 33.451 33.451s33.451-14.976 33.451-33.451zM725.675 480.085c0-18.474-14.976-33.451-33.451-33.451s-33.451 14.976-33.451 33.451c0 18.474 14.976 33.451 33.451 33.451s33.451-14.976 33.451-33.451zM236.885 193.365l-27.989 53.248c66.901 97.621 180.907 156.331 305.152 156.331 0 0 0.683 0 0.683 0 123.563 0 236.885-58.709 303.104-156.331l-27.989-53.248h-552.96zM514.048 334.677c-75.776 0-146.773-26.624-200.704-73.045h400.725c-53.931 46.421-124.245 73.045-200.021 73.045 0 0 0 0 0 0z" />
<glyph unicode="&#xe91a;" glyph-name="face-meh" data-tags="face-meh" d="M512 869.888c232.789 0 422.571-189.781 422.571-422.571s-189.781-422.571-422.571-422.571-422.571 189.781-422.571 422.571 189.781 422.571 422.571 422.571zM512 938.155c-271.019 0-490.837-219.819-490.837-490.837s219.819-490.837 490.837-490.837 490.837 219.819 490.837 490.837-219.819 490.837-490.837 490.837v0zM367.275 479.403c0-18.097-14.671-32.768-32.768-32.768s-32.768 14.671-32.768 32.768c0 18.097 14.671 32.768 32.768 32.768s32.768-14.671 32.768-32.768zM720.213 479.403c0-18.097-14.671-32.768-32.768-32.768s-32.768 14.671-32.768 32.768c0 18.097 14.671 32.768 32.768 32.768s32.768-14.671 32.768-32.768zM245.76 262.997h532.48v-68.267h-532.48v68.267z" />
<glyph unicode="&#xe91b;" glyph-name="face-open-smile" data-tags="face-open-smile" d="M514.048 880.128c238.933 0 432.811-193.877 432.811-432.811s-193.877-432.811-432.811-432.811-432.811 194.56-432.811 432.811 194.56 432.811 432.811 432.811zM514.048 948.395c-276.48 0-501.077-223.915-501.077-501.077s224.597-501.077 501.077-501.077 501.077 224.597 501.077 501.077-223.915 501.077-501.077 501.077v0zM366.592 480.085c0-18.474-14.976-33.451-33.451-33.451s-33.451 14.976-33.451 33.451c0 18.474 14.976 33.451 33.451 33.451s33.451-14.976 33.451-33.451zM727.040 480.085c0-18.474-14.976-33.451-33.451-33.451s-33.451 14.976-33.451 33.451c0 18.474 14.976 33.451 33.451 33.451s33.451-14.976 33.451-33.451zM514.048 193.365c-0.683 0-0.683 0 0 0-124.245 0-236.885 58.709-303.787 156.331l27.989 53.248h552.277l27.989-53.248c-66.901-97.621-180.907-156.331-304.469-156.331zM314.027 334.677c53.248-46.421 124.245-73.045 199.339-73.045 75.776 0 147.456 26.624 201.387 73.045h-400.725z" />
<glyph unicode="&#xe91c;" glyph-name="face-smile" data-tags="face-smile" d="M509.952 891.051c245.077 0 443.733-199.339 443.733-443.733s-199.339-443.733-443.733-443.733-443.733 199.339-443.733 443.733 198.656 443.733 443.733 443.733zM509.952 959.317c-282.624 0-512-229.376-512-512s229.376-512 512-512 512 229.376 512 512-229.376 512-512 512v0zM509.952 71.851c-206.848 0-375.467 168.619-375.467 375.467h68.267c0-169.301 137.899-307.2 307.2-307.2s307.2 137.899 307.2 307.2h68.267c0-206.848-168.619-375.467-375.467-375.467zM358.4 480.768c0-18.851-15.282-34.133-34.133-34.133s-34.133 15.282-34.133 34.133c0 18.851 15.282 34.133 34.133 34.133s34.133-15.282 34.133-34.133zM727.040 480.768c0-18.851-15.282-34.133-34.133-34.133s-34.133 15.282-34.133 34.133c0 18.851 15.282 34.133 34.133 34.133s34.133-15.282 34.133-34.133z" />
<glyph unicode="&#xe91d;" glyph-name="file" data-tags="file" d="M894.293-57.173h-771.413v1017.173h507.904l263.509-262.144v-755.029zM191.147 11.093h634.88v658.773l-223.232 221.867h-411.648v-880.64zM846.507 666.453h-252.587v252.587h54.613v-197.973h197.973zM600.747 699.221c-27.307 0-42.325 10.923-53.931 19.115-10.24 7.509-17.749 12.971-34.133 12.971s-23.893-5.461-34.133-12.971c-11.605-8.875-26.624-19.115-53.931-19.115s-42.325 10.923-53.931 19.115c-10.24 7.509-17.749 12.971-34.133 12.971s-23.893-5.461-34.133-12.971c-11.605-8.875-26.624-19.115-53.931-19.115-9.557 0-17.067 7.509-17.067 17.067s7.509 17.067 17.067 17.067c16.384 0 23.893 5.461 34.133 12.971 11.605 8.875 26.624 19.115 53.931 19.115s42.325-10.923 53.931-19.115c10.24-7.509 17.749-12.971 34.133-12.971s23.893 5.461 34.133 12.971c11.605 8.875 26.624 19.115 53.931 19.115s42.325-10.923 53.931-19.115c10.24-7.509 17.749-12.971 34.133-12.971 9.557 0 17.067-7.509 17.067-17.067s-7.509-17.067-17.067-17.067zM776.875 590.677c-27.307 0-42.325 10.923-53.931 19.115-10.24 7.509-17.749 12.971-34.133 12.971s-23.893-5.461-34.133-12.971c-11.605-8.875-26.624-19.115-53.931-19.115s-42.325 10.923-53.931 19.115c-10.24 7.509-17.749 12.971-34.133 12.971s-23.893-5.461-34.133-12.971c-11.605-8.875-26.624-19.115-53.931-19.115s-42.325 10.923-53.931 19.115c-10.24 7.509-17.749 12.971-34.133 12.971s-23.893-5.461-34.133-12.971c-11.605-8.875-26.624-19.115-53.931-19.115-9.557 0-17.067 7.509-17.067 17.067s7.509 17.067 17.067 17.067c16.384 0 23.893 5.461 34.133 12.971 11.605 8.875 26.624 19.115 53.931 19.115s42.325-10.923 53.931-19.115c10.24-7.509 17.749-12.971 34.133-12.971s23.893 5.461 34.133 12.971c11.605 8.875 26.624 19.115 53.931 19.115s42.325-10.923 53.931-19.115c10.24-7.509 17.749-12.971 34.133-12.971s23.893 5.461 34.133 12.971c11.605 8.875 26.624 19.115 53.931 19.115s42.325-10.923 53.931-19.115c10.24-7.509 17.749-12.971 34.133-12.971 9.557 0 17.067-7.509 17.067-17.067s-7.509-17.067-17.067-17.067zM776.875 482.133c-27.307 0-42.325 10.923-53.931 19.115-10.24 7.509-17.749 12.971-34.133 12.971s-23.893-5.461-34.133-12.971c-11.605-8.192-26.624-19.115-53.931-19.115s-42.325 10.923-53.931 19.115c-10.24 7.509-17.749 12.971-34.133 12.971s-23.893-5.461-34.133-12.971c-11.605-8.875-26.624-19.115-53.931-19.115s-42.325 10.923-53.931 19.115c-10.24 7.509-17.749 12.971-34.133 12.971s-23.893-5.461-34.133-12.971c-11.605-8.875-26.624-19.115-53.931-19.115-9.557 0-17.067 7.509-17.067 17.067s7.509 17.067 17.067 17.067c16.384 0 23.893 5.461 34.133 12.971 11.605 8.875 26.624 19.115 53.931 19.115s42.325-10.923 53.931-19.115c10.24-7.509 17.749-12.971 34.133-12.971s23.893 5.461 34.133 12.971c11.605 8.875 26.624 19.115 53.931 19.115s42.325-10.923 53.931-19.115c10.24-7.509 17.749-12.971 34.133-12.971s23.893 5.461 34.133 12.971c11.605 8.875 26.624 19.115 53.931 19.115s42.325-10.923 53.931-19.115c10.24-7.509 17.749-12.971 34.133-12.971 9.557 0 17.067-7.509 17.067-17.067s-7.509-17.067-17.067-17.067zM776.875 374.272c-27.307 0-42.325 10.923-53.931 19.115-10.24 7.509-17.749 12.971-34.133 12.971s-23.893-5.461-34.133-12.971c-11.605-8.875-26.624-19.115-53.931-19.115s-42.325 10.923-53.931 19.115c-10.24 7.509-17.749 12.971-34.133 12.971s-23.893-5.461-34.133-12.971c-11.605-8.875-26.624-19.115-53.931-19.115s-42.325 10.923-53.931 19.115c-10.24 7.509-17.749 12.971-34.133 12.971s-23.893-5.461-34.133-12.971c-11.605-8.875-26.624-19.115-53.931-19.115-9.557 0-17.067 7.509-17.067 17.067s7.509 17.067 17.067 17.067c16.384 0 23.893 5.461 34.133 12.971 11.605 8.875 26.624 19.115 53.931 19.115s42.325-10.923 53.931-19.115c10.24-7.509 17.749-12.971 34.133-12.971s23.893 5.461 34.133 12.971c11.605 8.875 26.624 19.115 53.931 19.115s42.325-10.923 53.931-19.115c10.24-7.509 17.749-12.971 34.133-12.971s23.893 5.461 34.133 12.971c11.605 8.875 26.624 19.115 53.931 19.115s42.325-10.923 53.931-19.115c10.24-7.509 17.749-12.971 34.133-12.971 9.557 0 17.067-7.509 17.067-17.067s-7.509-17.067-17.067-17.067zM776.875 265.728c-27.307 0-42.325 10.923-53.931 19.115-10.24 7.509-17.749 12.971-34.133 12.971s-23.893-5.461-34.133-12.971c-11.605-8.875-26.624-19.115-53.931-19.115s-42.325 10.923-53.931 19.115c-10.24 7.509-17.749 12.971-34.133 12.971s-23.893-5.461-34.133-12.971c-11.605-8.875-26.624-19.115-53.931-19.115s-42.325 10.923-53.931 19.115c-10.24 7.509-17.749 12.971-34.133 12.971s-23.893-5.461-34.133-12.971c-11.605-8.875-26.624-19.115-53.931-19.115-9.557 0-17.067 7.509-17.067 17.067s7.509 17.067 17.067 17.067c16.384 0 23.893 5.461 34.133 12.971 11.605 8.875 26.624 19.115 53.931 19.115s42.325-10.923 53.931-19.115c10.24-7.509 17.749-12.971 34.133-12.971s23.893 5.461 34.133 12.971c11.605 8.875 26.624 19.115 53.931 19.115s42.325-10.923 53.931-19.115c10.24-7.509 17.749-12.971 34.133-12.971s23.893 5.461 34.133 12.971c11.605 8.875 26.624 19.115 53.931 19.115s42.325-10.923 53.931-19.115c10.24-7.509 17.749-12.971 34.133-12.971 9.557 0 17.067-7.509 17.067-17.067s-7.509-17.067-17.067-17.067zM776.875 161.963c-27.307 0-42.325 10.923-53.931 19.115-10.24 7.509-17.749 12.971-34.133 12.971s-23.893-5.461-34.133-12.971c-11.605-8.875-26.624-19.115-53.931-19.115s-42.325 10.923-53.931 19.115c-10.24 7.509-17.749 12.971-34.133 12.971s-23.893-5.461-34.133-12.971c-11.605-8.875-26.624-19.115-53.931-19.115s-42.325 10.923-53.931 19.115c-10.24 7.509-17.749 12.971-34.133 12.971s-23.893-5.461-34.133-12.971c-11.605-8.875-26.624-19.115-53.931-19.115-9.557 0-17.067 7.509-17.067 17.067s7.509 17.067 17.067 17.067c16.384 0 23.893 5.461 34.133 12.971 11.605 8.875 26.624 19.115 53.931 19.115s42.325-10.923 53.931-19.115c10.24-7.509 17.749-12.971 34.133-12.971s23.893 5.461 34.133 12.971c11.605 8.875 26.624 19.115 53.931 19.115s42.325-10.923 53.931-19.115c10.24-7.509 17.749-12.971 34.133-12.971s23.893 5.461 34.133 12.971c11.605 8.875 26.624 19.115 53.931 19.115s42.325-10.923 53.931-19.115c10.24-7.509 17.749-12.971 34.133-12.971 9.557 0 17.067-7.509 17.067-17.067s-7.509-17.067-17.067-17.067z" />
<glyph unicode="&#xe91e;" glyph-name="files" data-tags="files" d="M914.773 86.187h-170.667v68.267h102.4v552.96l-189.099 184.32h-336.555v-102.4h-68.267v170.667h432.128l230.059-223.232zM866.987 707.413h-218.453v211.627h54.613v-157.013h163.84zM657.408 731.989c-23.893 0-36.864 9.557-47.104 17.067-8.192 6.144-14.336 10.24-27.307 10.24s-18.432-4.096-27.307-10.24c-10.24-7.509-23.211-17.067-47.104-17.067-9.557 0-17.067 7.509-17.067 17.067s7.509 17.067 17.067 17.067c12.971 0 18.432 4.096 27.307 10.24 10.24 7.509 23.211 17.067 47.104 17.067s36.864-9.557 47.104-17.067c8.192-6.144 14.336-10.24 27.307-10.24 9.557 0 17.067-7.509 17.067-17.067s-7.509-17.067-17.067-17.067zM806.229 640.512c-23.893 0-36.864 9.557-47.104 17.067-8.192 6.144-14.336 10.24-27.307 10.24s-18.432-4.096-27.307-10.24c-10.24-7.509-23.211-17.067-47.104-17.067-9.557 0-17.067 7.509-17.067 17.067s7.509 17.067 17.067 17.067c12.971 0 18.432 4.096 27.307 10.24 10.24 7.509 23.211 17.067 47.104 17.067s36.864-9.557 47.104-17.067c8.192-6.144 14.336-10.24 27.307-10.24 9.557 0 17.067-7.509 17.067-17.067s-7.509-17.067-17.067-17.067zM806.229 549.035c-23.893 0-36.864 9.557-47.104 17.067-8.192 6.144-14.336 10.24-27.307 10.24-9.557 0-17.067 7.509-17.067 17.067s7.509 17.067 17.067 17.067c23.893 0 36.864-9.557 47.104-17.067 8.192-6.144 14.336-10.24 27.307-10.24 9.557 0 17.067-7.509 17.067-17.067s-7.509-17.067-17.067-17.067zM806.229 457.557c-23.893 0-36.864 9.557-47.104 17.067-8.192 6.144-14.336 10.24-27.307 10.24-9.557 0-17.067 7.509-17.067 17.067s7.509 17.067 17.067 17.067c23.893 0 36.864-9.557 47.104-17.067 8.192-6.144 14.336-10.24 27.307-10.24 9.557 0 17.067-7.509 17.067-17.067s-7.509-17.067-17.067-17.067zM806.229 366.080c-23.893 0-36.864 9.557-47.104 17.067-8.192 6.144-14.336 10.24-27.307 10.24-9.557 0-17.067 7.509-17.067 17.067s7.509 17.067 17.067 17.067c23.893 0 36.864-9.557 47.104-17.067 8.192-6.144 14.336-10.24 27.307-10.24 9.557 0 17.067-7.509 17.067-17.067s-7.509-17.067-17.067-17.067zM806.229 278.016c-23.893 0-36.864 9.557-47.104 17.067-8.192 6.144-14.336 10.24-27.307 10.24-9.557 0-17.067 7.509-17.067 17.067s7.509 17.067 17.067 17.067c23.893 0 36.864-9.557 47.104-17.067 8.192-6.144 14.336-10.24 27.307-10.24 9.557 0 17.067-7.509 17.067-17.067s-7.509-17.067-17.067-17.067zM764.587-57.173h-662.187v873.813h434.859l227.328-228.693v-645.12zM170.667 11.093h525.653v548.864l-187.733 188.416h-337.92v-737.28zM723.627 550.4h-225.28v225.28h54.613v-170.667h170.667zM509.269 583.851c-23.893 0-36.864 9.557-47.104 17.067-8.192 6.144-14.336 10.24-27.307 10.24s-18.432-4.096-27.307-10.24c-10.24-7.509-23.211-17.067-47.104-17.067s-36.864 9.557-47.104 17.067c-8.192 6.144-14.336 10.24-27.307 10.24s-18.432-4.096-27.307-10.24c-10.24-7.509-23.211-17.067-47.104-17.067-9.557 0-17.067 7.509-17.067 17.067s7.509 17.067 17.067 17.067c12.971 0 18.432 4.096 27.307 10.24 10.24 7.509 23.211 17.067 47.104 17.067s36.864-9.557 47.104-17.067c8.192-6.144 14.336-10.24 27.307-10.24s18.432 4.096 27.307 10.24c10.24 7.509 23.211 17.067 47.104 17.067s36.864-9.557 47.104-17.067c8.192-6.144 14.336-10.24 27.307-10.24 9.557 0 17.067-7.509 17.067-17.067s-7.509-17.067-17.067-17.067zM658.773 492.373c-23.893 0-36.864 9.557-47.104 17.067-8.192 6.144-14.336 10.24-27.307 10.24s-18.432-4.096-27.307-10.24c-10.24-7.509-23.211-17.067-47.104-17.067s-36.864 9.557-47.104 17.067c-8.192 6.144-14.336 10.24-27.307 10.24s-18.432-4.096-27.307-10.24c-10.24-7.509-23.211-17.067-47.104-17.067s-36.864 9.557-47.104 17.067c-8.192 6.144-14.336 10.24-27.307 10.24s-18.432-4.096-27.307-10.24c-10.24-7.509-23.211-17.067-47.104-17.067-9.557 0-17.067 7.509-17.067 17.067s7.509 17.067 17.067 17.067c12.971 0 18.432 4.096 27.307 10.24 10.24 7.509 23.211 17.067 47.104 17.067s36.864-9.557 47.104-17.067c8.192-6.144 14.336-10.24 27.307-10.24s18.432 4.096 27.307 10.24c10.24 7.509 23.211 17.067 47.104 17.067s36.864-9.557 47.104-17.067c8.192-6.144 14.336-10.24 27.307-10.24s18.432 4.096 27.307 10.24c10.24 7.509 23.211 17.067 47.104 17.067s36.864-9.557 47.104-17.067c8.192-6.144 14.336-10.24 27.307-10.24 9.557 0 17.067-7.509 17.067-17.067s-8.192-17.067-17.067-17.067zM658.773 400.896c-23.893 0-36.864 9.557-47.104 17.067-8.192 6.144-14.336 10.24-27.307 10.24s-18.432-4.096-27.307-10.24c-10.24-7.509-23.211-17.067-47.104-17.067s-36.864 9.557-47.104 17.067c-8.192 6.144-14.336 10.24-27.307 10.24s-18.432-4.096-27.307-10.24c-10.24-7.509-23.211-17.067-47.104-17.067s-36.864 9.557-47.104 17.067c-8.192 6.144-14.336 10.24-27.307 10.24s-18.432-4.096-27.307-10.24c-10.24-7.509-23.211-17.067-47.104-17.067-9.557 0-17.067 7.509-17.067 17.067s7.509 17.067 17.067 17.067c12.971 0 18.432 4.096 27.307 10.24 10.24 7.509 23.211 17.067 47.104 17.067s36.864-9.557 47.104-17.067c8.192-6.144 14.336-10.24 27.307-10.24s18.432 4.096 27.307 10.24c10.24 7.509 23.211 17.067 47.104 17.067s36.864-9.557 47.104-17.067c8.192-6.144 14.336-10.24 27.307-10.24s18.432 4.096 27.307 10.24c10.24 7.509 23.211 17.067 47.104 17.067s36.864-9.557 47.104-17.067c8.192-6.144 14.336-10.24 27.307-10.24 9.557 0 17.067-7.509 17.067-17.067s-8.192-17.067-17.067-17.067zM658.773 309.419c-23.893 0-36.864 9.557-47.104 17.067-8.192 6.144-14.336 10.24-27.307 10.24s-18.432-4.096-27.307-10.24c-10.24-7.509-23.211-17.067-47.104-17.067s-36.864 9.557-47.104 17.067c-8.192 6.144-14.336 10.24-27.307 10.24s-18.432-4.096-27.307-10.24c-10.24-7.509-23.211-17.067-47.104-17.067s-36.864 9.557-47.104 17.067c-8.192 6.144-14.336 10.24-27.307 10.24s-18.432-4.096-27.307-10.24c-10.24-7.509-23.211-17.067-47.104-17.067-9.557 0-17.067 7.509-17.067 17.067s7.509 17.067 17.067 17.067c12.971 0 18.432 4.096 27.307 10.24 10.24 7.509 23.211 17.067 47.104 17.067s36.864-9.557 47.104-17.067c8.192-6.144 14.336-10.24 27.307-10.24s18.432 4.096 27.307 10.24c10.24 7.509 23.211 17.067 47.104 17.067s36.864-9.557 47.104-17.067c8.192-6.144 14.336-10.24 27.307-10.24s18.432 4.096 27.307 10.24c10.24 7.509 23.211 17.067 47.104 17.067s36.864-9.557 47.104-17.067c8.192-6.144 14.336-10.24 27.307-10.24 9.557 0 17.067-7.509 17.067-17.067s-8.192-17.067-17.067-17.067zM658.773 218.624c-23.893 0-36.864 9.557-47.104 17.067-8.192 6.144-14.336 10.24-27.307 10.24s-18.432-4.096-27.307-10.24c-10.24-7.509-23.211-17.067-47.104-17.067s-36.864 9.557-47.104 17.067c-8.192 6.144-14.336 10.24-27.307 10.24s-18.432-4.096-27.307-10.24c-10.24-7.509-23.211-17.067-47.104-17.067s-36.864 9.557-47.104 17.067c-8.192 6.144-14.336 10.24-27.307 10.24s-18.432-4.096-27.307-10.24c-10.24-7.509-23.211-17.067-47.104-17.067-9.557 0-17.067 7.509-17.067 17.067s7.509 17.067 17.067 17.067c12.971 0 18.432 4.096 27.307 10.24 10.24 7.509 23.211 17.067 47.104 17.067s36.864-9.557 47.104-17.067c8.192-6.144 14.336-10.24 27.307-10.24s18.432 4.096 27.307 10.24c10.24 7.509 23.211 17.067 47.104 17.067s36.864-9.557 47.104-17.067c8.192-6.144 14.336-10.24 27.307-10.24s18.432 4.096 27.307 10.24c10.24 7.509 23.211 17.067 47.104 17.067s36.864-9.557 47.104-17.067c8.192-6.144 14.336-10.24 27.307-10.24 9.557 0 17.067-7.509 17.067-17.067s-8.192-17.067-17.067-17.067zM658.773 130.56c-23.893 0-36.864 9.557-47.104 17.067-8.192 6.144-14.336 10.24-27.307 10.24s-18.432-4.096-27.307-10.24c-10.24-7.509-23.211-17.067-47.104-17.067s-36.864 9.557-47.104 17.067c-8.192 6.144-14.336 10.24-27.307 10.24s-18.432-4.096-27.307-10.24c-10.24-7.509-23.211-17.067-47.104-17.067s-36.864 9.557-47.104 17.067c-8.192 6.144-14.336 10.24-27.307 10.24s-18.432-4.096-27.307-10.24c-10.24-7.509-23.211-17.067-47.104-17.067-9.557 0-17.067 7.509-17.067 17.067s7.509 17.067 17.067 17.067c12.971 0 18.432 4.096 27.307 10.24 10.24 7.509 23.211 17.067 47.104 17.067s36.864-9.557 47.104-17.067c8.192-6.144 14.336-10.24 27.307-10.24s18.432 4.096 27.307 10.24c10.24 7.509 23.211 17.067 47.104 17.067s36.864-9.557 47.104-17.067c8.192-6.144 14.336-10.24 27.307-10.24s18.432 4.096 27.307 10.24c10.24 7.509 23.211 17.067 47.104 17.067s36.864-9.557 47.104-17.067c8.192-6.144 14.336-10.24 27.307-10.24 9.557 0 17.067-7.509 17.067-17.067s-8.192-17.067-17.067-17.067z" />
<glyph unicode="&#xe91f;" glyph-name="folder" data-tags="folder" d="M1024 59.563h-1024v646.485h1024v-646.485zM68.267 127.829h887.467v509.952h-887.467v-509.952zM957.099 664.405l-66.901 12.971v51.2h-582.315v54.613h-110.592v-54.613h-62.123v-26.624h-68.267v94.891h62.123v54.613h247.125v-54.613h580.949z" />
<glyph unicode="&#xe920;" glyph-name="folder-open" data-tags="folder-open" d="M894.293 87.552h-811.008l-81.237 606.208h811.691l80.555-606.208zM142.677 155.819h673.792l-62.805 469.675h-673.792l62.805-469.675zM895.659 90.965l-66.901 12.971 106.496 610.987h-540.672v54.613h-111.275v-54.613h-62.123v-26.624h-68.267v94.891h62.123v54.613h247.808v-54.613h554.325z" />
<glyph unicode="&#xe921;" glyph-name="fork" data-tags="fork" d="M875.179 669.867l-48.469 47.787 86.016 86.699-86.016 86.016 48.469 48.469 134.485-134.485zM875.179-39.424l-48.469 47.787 86.016 86.699-86.016 86.016 48.469 48.469 134.485-134.485zM940.715 58.88c-215.723 0-390.485 175.445-390.485 390.485s175.445 390.485 390.485 390.485v-68.267c-177.493 0-322.219-144.725-322.219-322.219s144.725-322.219 322.219-322.219v-68.267zM10.923 466.432h568.661v-68.267h-568.661v68.267z" />
<glyph unicode="&#xe922;" glyph-name="github" data-tags="github" d="M512 878.763c234.837 0 425.301-190.464 425.301-425.301s-190.464-425.301-425.301-425.301-425.301 190.464-425.301 425.301c0 234.837 190.464 425.301 425.301 425.301zM409.6 111.445v64.853c0 33.451 11.605 58.709 34.133 73.728-14.336 1.365-27.307 3.413-39.595 6.144s-24.576 6.144-38.229 10.923c-13.653 4.779-25.259 10.24-36.181 17.067s-21.163 15.019-30.72 25.259c-9.557 10.24-17.749 21.845-24.576 35.499-6.827 12.971-11.605 28.672-15.701 47.104s-6.144 38.912-6.144 60.757c0 43.008 13.653 79.189 41.643 109.909-12.971 32.768-11.605 68.949 4.096 108.544 0.683 0 2.048 0.683 4.096 0.683 0.683 0 1.365 0 2.731 0 2.048 0 6.144 0 10.24-0.683 6.827-0.683 14.336-2.048 21.845-4.096s18.432-6.827 31.403-12.971c12.971-6.827 27.307-15.019 41.643-24.576 32.085 8.875 66.219 13.653 102.4 13.653 35.499 0 69.632-4.779 102.4-13.653 23.211 15.701 44.373 27.307 62.805 34.133 16.384 6.144 28.672 9.557 36.181 9.557 0.683 0 2.048 0 2.731 0l10.24-1.365c15.701-38.912 17.067-75.093 4.096-108.544 27.989-30.037 41.643-66.901 41.643-109.909 0-21.845-2.048-42.325-6.144-60.757s-8.875-34.133-15.701-47.104c-6.827-12.971-15.019-25.259-24.576-35.499s-19.797-19.115-30.72-25.259c-10.923-6.827-22.528-12.288-36.181-17.067s-25.941-8.192-37.547-10.923c-12.288-2.731-24.576-4.096-38.912-6.144 23.211-15.701 36.181-40.277 36.181-73.728v-63.488c6.827 3.413 20.48 7.509 31.403 12.288 42.325 17.749 79.189 43.691 111.957 76.459s58.709 70.997 76.459 113.323c18.432 43.691 27.989 90.795 27.989 139.264s-9.557 94.891-27.989 139.264c-17.749 42.325-43.691 80.555-76.459 113.323s-70.997 58.709-113.323 76.459c-43.691 18.432-90.795 27.989-139.264 27.989s-94.891-9.557-139.264-27.989c-42.325-17.749-80.555-43.691-113.323-76.459s-58.709-70.997-76.459-113.323c-18.432-43.691-27.989-90.795-27.989-139.264s9.557-94.891 27.989-139.264c17.749-42.325 43.691-80.555 76.459-113.323s70.997-58.709 113.323-76.459c14.336-6.144 25.259-10.923 38.912-14.336zM512 947.029c-272.384 0-493.568-221.184-493.568-493.568s221.184-493.568 493.568-493.568 493.568 221.184 493.568 493.568-221.184 493.568-493.568 493.568v0zM393.899 717.653c2.048 0.683 4.096 1.365 5.461 2.731 35.499 15.019 73.045 22.528 112.64 22.528 38.912 0 77.141-7.509 112.64-22.528 2.731-1.365 5.461-2.048 7.509-3.413-8.875-4.096-18.432-9.557-27.989-15.019-29.355 6.144-59.392 8.875-90.112 8.875s-60.757-2.731-90.112-8.875c-8.192 4.779-15.701 8.875-23.893 12.971-2.048 0.683-4.096 1.365-6.144 2.731v0z" />
<glyph unicode="&#xe923;" glyph-name="globe" data-tags="globe" d="M508.587 888.32c240.981 0 436.907-195.925 436.907-436.907s-195.925-436.907-436.907-436.907-436.907 195.925-436.907 436.907 195.925 436.907 436.907 436.907zM508.587 956.587c-279.211 0-505.173-225.963-505.173-505.173s225.963-505.173 505.173-505.173c279.211 0 505.173 225.963 505.173 505.173s-225.963 505.173-505.173 505.173v0zM508.587 297.131c-267.605 0-477.867 126.293-477.867 287.403h54.613c0-128.341 189.781-232.789 423.253-232.789 242.347 0 423.253 122.88 423.253 232.789h54.613c0-74.411-53.248-148.139-145.408-203.435-91.477-54.613-209.579-83.968-332.459-83.968zM505.173 521.728c-182.272 0-346.112 59.392-426.667 155.648l41.643 34.816c70.315-82.603 221.184-135.851 385.024-135.851s320.853 60.075 390.485 148.821l43.008-33.451c-80.555-103.083-250.539-169.984-433.493-169.984zM510.635 710.144c-127.659 0-243.029 38.912-307.2 103.765l38.912 38.229c53.931-53.931 156.331-87.381 268.288-87.381 105.813 0 207.531 34.133 264.875 88.064l37.547-39.595c-66.901-63.488-182.955-103.083-302.421-103.083zM508.587 90.965c-277.163 0-494.933 130.389-494.933 297.643h54.613c0-133.803 197.291-243.029 440.32-243.029 251.904 0 440.32 128.341 440.32 243.029h54.613c0-76.459-54.613-153.6-150.187-210.261-94.891-56.661-217.088-87.381-344.747-87.381zM508.587 893.099c22.528-15.019 58.027-42.325 92.843-85.333 76.459-93.525 115.371-213.675 115.371-356.352 0-143.36-38.912-263.509-115.371-357.035-34.816-43.008-70.315-70.315-92.843-84.651-22.528 15.019-58.027 42.325-92.843 84.651-76.459 93.525-115.371 213.675-115.371 357.035 0 142.677 38.912 262.827 115.371 356.352 34.816 43.008 70.315 70.315 92.843 85.333zM508.587 956.587c0 0-262.827-123.563-262.827-505.173 0-383.659 262.827-505.173 262.827-505.173s262.827 121.515 262.827 505.173c0 381.611-262.827 505.173-262.827 505.173v0zM481.28 956.587h54.613v-993.963h-54.613v993.963z" />
<glyph unicode="&#xe924;" glyph-name="hamburger-nav" data-tags="hamburger-nav" d="M-0.683 878.080h1017.856v-203.435h-1017.856v203.435zM-0.683 552.448h1017.856v-203.435h-1017.856v203.435zM-0.683 235.008h1017.856v-203.435h-1017.856v203.435z" />
<glyph unicode="&#xe925;" glyph-name="hdd" data-tags="hdd" d="M853.333-64h-689.493c-26.624 0-47.787 21.163-47.787 47.787v935.253c0 26.624 21.163 47.787 47.787 47.787h689.493c26.624 0 47.787-21.163 47.787-47.787v-935.253c0-26.624-21.163-47.787-47.787-47.787zM184.32 4.267h648.533v894.293h-648.533v-894.293zM511.317 292.352c-157.696 0-286.72 128.341-286.72 286.72s128.341 286.72 286.72 286.72 286.72-128.341 286.72-286.72-128.341-286.72-286.72-286.72zM511.317 796.843c-120.149 0-218.453-97.621-218.453-218.453s97.621-218.453 218.453-218.453c120.149 0 218.453 97.621 218.453 218.453s-97.621 218.453-218.453 218.453zM511.317 473.259c-58.709 0-105.813 47.787-105.813 105.813 0 58.709 47.787 105.813 105.813 105.813s105.813-47.787 105.813-105.813c0-58.709-47.104-105.813-105.813-105.813zM511.317 650.752c-39.595 0-71.68-32.085-71.68-71.68s32.085-71.68 71.68-71.68 71.68 32.085 71.68 71.68c0 39.595-32.085 71.68-71.68 71.68zM511.317 525.141c-29.355 0-53.248 23.893-53.248 53.248s23.893 53.248 53.248 53.248c29.355 0 53.248-23.893 53.248-53.248s-23.893-53.248-53.248-53.248zM511.317 605.013c-14.336 0-25.941-11.605-25.941-25.941s11.605-25.941 25.941-25.941 25.941 11.605 25.941 25.941-11.605 25.941-25.941 25.941zM219.819 781.141h-42.325v27.307h42.325c10.24 0 19.797 10.24 19.797 21.845 0 10.923-8.192 19.115-18.432 19.115h-43.691v27.307h43.691c25.259 0 45.739-21.163 45.739-46.421 0-26.624-21.845-49.152-47.104-49.152zM853.333 781.824h-49.152c-25.259 0-45.739 20.48-45.739 46.421 0 25.259 21.845 46.421 47.104 46.421l45.056 0.683 0.683-27.307-45.739-0.683c-10.923 0-20.48-8.875-20.48-19.115 0-10.923 8.192-19.115 18.432-19.115h49.152v-27.307zM219.819 299.861h-42.325v27.307h42.325c10.24 0 19.797 9.557 19.797 20.48s-8.192 20.48-18.432 20.48h-43.691v27.307h43.691c25.259 0 45.739-21.163 45.739-47.787 0-25.941-21.163-47.787-47.104-47.787zM853.333 300.544h-49.152c-25.259 0-45.739 20.48-45.739 46.421 0 25.259 21.845 46.421 47.104 46.421l45.056 0.683 0.683-27.307-45.739-0.683c-10.923 0-20.48-8.875-20.48-19.115 0-10.923 8.192-19.115 18.432-19.115h49.152v-27.307zM512.683 185.856c-18.432 0-36.864 10.24-45.739 27.307-6.827 12.288-8.192 26.624-4.096 39.595 4.096 13.653 12.971 24.576 25.259 30.72l1.365 0.683 223.232 96.256c15.701 8.192 35.499 2.048 43.691-13.653 4.096-7.509 4.779-16.384 2.731-25.259-2.731-8.192-8.192-15.019-15.701-19.115l-206.165-130.389c-8.192-4.096-16.384-6.144-24.576-6.144zM500.395 259.584c-5.461-3.413-9.557-8.192-11.605-14.336s-1.365-12.971 2.048-19.115c6.144-11.605 21.163-16.384 33.451-10.24l206.165 130.389c2.048 0.683 2.731 2.731 2.731 3.413s0.683 2.731-0.683 4.096c-1.365 2.731-4.779 3.413-7.509 2.048l-1.365-0.683-223.232-95.573zM846.507 147.627h-218.453v70.997c0 24.576 21.163 45.056 47.787 45.056h170.667v-116.053zM655.36 174.933h163.84v61.44h-143.36c-9.557 0-20.48-6.827-20.48-17.749v-43.691zM525.653 127.147h-43.008c-7.509 0-13.653 6.144-13.653 13.653v13.653c0 10.24-8.875 19.797-19.797 19.797s-19.797-8.192-19.797-18.432v-15.019c0-7.509-6.144-13.653-13.653-13.653h-183.637c-7.509 0-13.653 6.144-13.653 13.653v137.216c0 6.827 4.779 12.288 10.923 13.653 21.163 4.096 43.008 25.941 43.008 51.883 0 2.731-0.683 6.144-1.365 9.557-1.365 6.144 2.048 11.605 7.509 14.336s12.288 1.365 16.384-2.731c46.421-50.517 106.496-83.968 173.397-95.573 7.509-1.365 12.288-8.192 10.923-15.701s-8.192-12.288-15.701-10.923c-62.805 10.923-119.467 38.912-166.571 81.92-7.509-26.624-28.672-47.104-51.2-55.296v-114.688h157.013v1.365c0 25.259 21.163 45.739 47.104 45.739 25.259 0 47.104-21.845 47.104-47.104h15.019v40.96c0 7.509 6.144 13.653 13.653 13.653s13.653-6.144 13.653-13.653v-54.613c0-7.509-6.144-13.653-13.653-13.653zM534.528 242.517c0-9.426-7.641-17.067-17.067-17.067s-17.067 7.641-17.067 17.067c0 9.426 7.641 17.067 17.067 17.067s17.067-7.641 17.067-17.067zM466.261 153.771c0-9.426-7.641-17.067-17.067-17.067s-17.067 7.641-17.067 17.067c0 9.426 7.641 17.067 17.067 17.067s17.067-7.641 17.067-17.067zM825.344 347.648c0-9.426-7.641-17.067-17.067-17.067s-17.067 7.641-17.067 17.067c0 9.426 7.641 17.067 17.067 17.067s17.067-7.641 17.067-17.067zM230.741 347.648c0-9.426-7.641-17.067-17.067-17.067s-17.067 7.641-17.067 17.067c0 9.426 7.641 17.067 17.067 17.067s17.067-7.641 17.067-17.067zM825.344 828.928c0-9.426-7.641-17.067-17.067-17.067s-17.067 7.641-17.067 17.067c0 9.426 7.641 17.067 17.067 17.067s17.067-7.641 17.067-17.067zM230.741 828.928c0-9.426-7.641-17.067-17.067-17.067s-17.067 7.641-17.067 17.067c0 9.426 7.641 17.067 17.067 17.067s17.067-7.641 17.067-17.067zM219.819 32.939h-42.325v27.307h42.325c10.24 0 19.797 10.24 19.797 21.845 0 10.923-8.192 19.115-18.432 19.115h-43.691v27.307h43.691c25.259 0 45.739-21.163 45.739-46.421 0-26.624-21.845-49.152-47.104-49.152zM853.333 33.621h-49.152c-25.259 0-45.739 20.48-45.739 46.421 0 25.259 21.845 46.421 47.104 46.421l45.056 0.683 0.683-27.307-45.739-0.683c-10.923 0-20.48-8.875-20.48-19.115 0-10.923 8.192-19.115 18.432-19.115h49.152v-27.307zM825.344 80.725c0-9.426-7.641-17.067-17.067-17.067s-17.067 7.641-17.067 17.067c0 9.426 7.641 17.067 17.067 17.067s17.067-7.641 17.067-17.067zM230.741 80.725c0-9.426-7.641-17.067-17.067-17.067s-17.067 7.641-17.067 17.067c0 9.426 7.641 17.067 17.067 17.067s17.067-7.641 17.067-17.067zM675.84 188.587h13.653v-47.787h-13.653v47.787zM712.021 188.587h13.653v-47.787h-13.653v47.787zM748.885 188.587h13.653v-47.787h-13.653v47.787zM785.067 188.587h13.653v-47.787h-13.653v47.787zM675.84 277.333h13.653v-47.787h-13.653v47.787zM712.021 277.333h13.653v-47.787h-13.653v47.787zM748.885 277.333h13.653v-47.787h-13.653v47.787zM785.067 277.333h13.653v-47.787h-13.653v47.787z" />
<glyph unicode="&#xe926;" glyph-name="help" data-tags="help" d="M511.317 897.195c244.395 0 443.733-199.339 443.733-443.733s-199.339-443.733-443.733-443.733-443.733 199.339-443.733 443.733 199.339 443.733 443.733 443.733zM511.317 965.461c-282.624 0-512-229.376-512-512s229.376-512 512-512 512 229.376 512 512-228.693 512-512 512v0zM356.352 704.683c8.875 8.192 18.432 16.384 29.355 23.211 10.923 7.509 22.528 13.653 34.816 19.797 12.971 5.461 26.624 10.24 40.96 13.653s30.72 4.779 47.787 4.779c22.528 0 43.691-3.413 62.805-9.557 19.115-6.827 35.499-15.701 49.835-27.989 13.653-12.288 25.259-26.624 32.768-43.691 8.192-17.067 12.288-36.181 12.288-58.027s-3.413-40.277-9.557-55.979c-6.144-15.701-14.336-29.355-24.576-40.96-9.557-11.605-20.48-21.845-32.085-30.72s-22.528-17.067-32.768-24.576c-10.24-7.509-19.115-15.701-25.941-23.211-7.509-7.509-11.605-16.384-12.288-25.941l-7.509-65.536h-51.883l-6.144 71.68c-1.365 12.971 1.365 23.893 7.509 33.451s13.653 18.432 23.211 27.307c9.557 8.192 20.48 16.384 32.085 24.576s22.528 17.067 32.768 27.307c10.24 10.24 18.432 21.163 25.259 34.133s10.24 27.989 10.24 45.739c0 12.288-2.731 23.211-7.509 33.451s-11.605 18.432-19.797 25.259c-8.192 6.827-17.749 12.288-29.355 15.701-10.923 3.413-23.211 5.461-36.181 5.461-17.067 0-32.085-2.048-44.373-6.144s-22.528-8.875-31.403-14.336c-8.875-5.461-15.701-9.557-20.48-14.336-5.461-4.096-9.557-6.144-12.971-6.144-6.827 0-12.971 3.413-16.384 9.557l-20.48 32.085zM439.637 194.048c0 7.509 1.365 14.336 4.096 21.163s6.144 12.288 10.923 17.067c4.779 4.779 10.24 8.875 17.067 11.605s13.653 4.096 21.163 4.096c7.509 0 14.336-1.365 21.163-4.096s12.288-6.827 17.067-11.605c4.779-4.779 8.875-10.24 11.605-17.067s4.096-13.653 4.096-21.163c0-7.509-1.365-15.019-4.096-21.163s-6.827-12.288-11.605-17.067c-4.779-4.779-10.24-8.875-17.067-11.605s-13.653-4.096-21.163-4.096c-7.509 0-14.336 1.365-21.163 4.096s-12.288 6.144-17.067 11.605c-4.779 4.779-8.192 10.24-10.923 17.067-2.731 6.144-4.096 12.971-4.096 21.163z" />
<glyph unicode="&#xe927;" glyph-name="history" data-tags="history" d="M555.008-25.771c-109.227 0-215.723 38.229-299.691 107.179l43.008 52.565c72.363-58.709 163.157-91.477 256.683-91.477 223.232 0 405.504 181.589 405.504 405.504s-182.272 405.504-405.504 405.504-405.504-182.272-405.504-405.504c0-81.237 23.893-159.744 68.949-226.645l-56.661-38.229c-52.565 78.507-80.555 169.984-80.555 264.875 0 261.461 212.309 473.771 473.771 473.771s473.771-212.309 473.771-473.771-212.992-473.771-473.771-473.771zM252.587 161.28h-252.587v68.267h184.32v184.32h68.267zM614.4 352.427h-259.413v68.267h191.147v266.24h68.267z" />
<glyph unicode="&#xe928;" glyph-name="home" data-tags="home" d="M887.467-23.040h-750.933v566.613h68.267v-498.347h614.4v498.347h68.267zM968.704 377.003l-458.752 458.752-458.069-458.752-48.469 48.469 506.539 506.539 506.539-506.539z" />
<glyph unicode="&#xe929;" glyph-name="host" data-tags="host" d="M935.253 733.355h-853.333v218.453h853.333v-218.453zM150.187 801.621h716.8v81.92h-716.8v-81.92zM935.253 467.115h-853.333v218.453h853.333v-218.453zM150.187 535.381h716.8v81.92h-716.8v-81.92zM935.253 200.875h-853.333v218.453h853.333v-218.453zM150.187 269.141h716.8v81.92h-716.8v-81.92zM935.253-65.365h-853.333v225.28h853.333v-225.28zM150.187 2.901h716.8v88.747h-716.8v-88.747zM170.667 863.061h546.133v-47.787h-546.133v47.787zM750.933 863.061h95.573v-47.787h-95.573v47.787zM170.667 596.821h546.133v-40.96h-546.133v40.96zM750.933 596.821h95.573v-40.96h-95.573v40.96zM170.667 330.581h546.133v-40.96h-546.133v40.96zM750.933 330.581h95.573v-40.96h-95.573v40.96zM170.667 71.168h546.133v-47.787h-546.133v47.787zM750.933 71.168h95.573v-47.787h-95.573v47.787z" />
<glyph unicode="&#xe92a;" glyph-name="info" data-tags="info" d="M507.221 901.973c247.808 0 449.195-201.387 449.195-449.195s-201.387-449.195-449.195-449.195c-247.808 0-449.195 201.387-449.195 449.195 0.683 247.808 202.069 449.195 449.195 449.195zM507.221 970.24c-285.355 0-516.779-231.424-516.779-516.779s231.424-517.461 517.461-517.461 517.461 231.424 517.461 517.461c-0.683 285.355-232.107 516.779-518.144 516.779v0zM561.835 709.461c0-7.509-1.365-14.336-4.779-20.48-2.731-6.144-6.827-12.288-11.605-17.067s-10.923-8.875-17.749-11.605c-6.827-2.731-13.653-4.096-21.163-4.096s-14.336 1.365-20.48 4.096c-6.144 2.731-12.288 6.827-17.067 11.605s-8.875 10.923-11.605 17.067c-2.731 6.144-4.096 12.971-4.096 20.48s1.365 14.336 4.096 21.163c2.731 6.827 6.827 12.288 11.605 17.749 4.779 4.779 10.24 8.875 17.067 11.605 6.144 2.731 12.971 4.096 20.48 4.096s14.336-1.365 21.163-4.096c6.827-2.731 12.288-6.827 17.749-11.605 4.779-4.779 8.875-10.923 11.605-17.749s4.779-14.336 4.779-21.163zM546.816 570.88v-430.080h-75.093v430.080h75.093z" />
<glyph unicode="&#xe92b;" glyph-name="key" data-tags="key" d="M500.395 889.003c101.035 0 182.955-81.92 182.955-182.955s-81.92-182.955-182.955-182.955-182.955 81.92-182.955 182.955c0 101.035 81.92 182.955 182.955 182.955zM500.395 957.269c-138.581 0-251.221-113.323-251.221-251.904s112.64-251.221 251.221-251.221c138.581 0 251.221 112.64 251.221 251.221s-112.64 251.904-251.221 251.904v0zM554.325 790.016c0-29.785-24.146-53.931-53.931-53.931s-53.931 24.146-53.931 53.931c0 29.785 24.146 53.931 53.931 53.931s53.931-24.146 53.931-53.931zM464.213-62.635l-123.563 123.563 61.44 61.44-49.152 41.643 47.104 47.104-45.056 45.056 45.056 45.056-45.056 45.056 45.056 45.056-45.056 45.056 79.872 79.872h176.811v-431.445l-147.456-147.456zM437.589 60.928l26.624-26.624 79.189 79.189v334.507h-80.555l-10.923-10.923 45.056-45.056-45.056-45.056 45.056-45.056-45.056-45.056 45.056-45.056-43.008-43.008 49.152-41.643-65.536-66.219zM493.568 502.613h13.653v-442.368h-13.653v442.368z" />
<glyph unicode="&#xe92c;" glyph-name="kubernetes" data-tags="kubernetes" d="M508.587 871.253c13.653 0 24.576-11.605 24.576-26.624 0-1.365 0-2.048 0-3.413s0-2.731 0-4.096c0-5.461-1.365-10.24-2.048-15.019-0.683-2.731-0.683-4.779-1.365-7.509v-0.683c-2.048-16.384-3.413-30.72-2.731-43.691 0.683-3.413 2.048-6.144 3.413-7.509 84.651-6.144 163.157-44.373 219.136-105.813 0.683 0 1.365 0 2.048 0 2.048 0 4.779 0.683 7.509 2.048 10.923 7.509 20.48 17.067 32.085 29.355v0c2.048 2.048 3.413 4.096 5.461 5.461 3.413 4.096 6.144 7.509 10.923 10.923 0.683 0.683 2.048 1.365 3.413 2.731 0.683 0.683 1.365 0 1.365 0.683v-0.683h0.683c4.779 5.461 10.923 8.192 16.384 8.192 7.509 0 15.019-4.096 20.48-10.24 4.096-5.461 5.461-12.288 4.779-19.115-1.365-6.827-4.779-12.971-9.557-19.797l-0.683 2.731c0 0 0 0 0 0s0 2.048-0.683 2.048c0 0 0 0 0 0s0 0-0.683 0c-0.683-0.683-0.683-0.683-1.365-1.365-1.365-1.365-2.731-2.048-3.413-2.731-4.779-3.413-8.875-5.461-12.971-8.192-2.048-1.365-4.779-2.731-6.827-4.096v0c-14.336-8.875-25.941-16.384-35.499-25.259-2.731-2.731-3.413-6.144-4.096-8.875 23.211-33.451 40.277-71.68 49.835-114.005 9.557-41.643 10.923-83.285 4.779-124.245 1.365-2.048 3.413-4.096 6.827-5.461 12.288-4.096 26.624-5.461 43.008-6.827h0.683c2.731 0 5.461 0 7.509-0.683 4.779 0 9.557-0.683 15.701-1.365 1.365 0 2.731-0.683 4.779-1.365 0.683 0 1.365-0.683 2.731-0.683h0.683v-0.683c6.827-2.048 12.288-5.461 16.384-10.923s5.461-12.288 4.096-18.432c-1.365-6.144-5.461-11.605-11.605-15.019-4.096-2.048-8.875-3.413-13.653-3.413-2.048 0-4.096 0-6.827 0.683v0c-2.048 0.683-4.096 1.365-5.461 2.048 0 0-0.683 0-0.683 0-5.461 1.365-9.557 3.413-14.336 5.461-2.048 0.683-4.779 2.048-7.509 2.731v0c-15.701 5.461-28.672 10.24-41.643 12.288-0.683 0-0.683 0-1.365 0-2.731 0-4.779-0.683-6.827-2.048-8.192-27.989-20.48-55.296-36.864-81.237-29.355-47.104-68.949-84.651-116.053-111.275-0.683-2.731-0.683-5.461 0-8.875 4.779-12.288 12.288-23.893 21.163-38.229v-0.683c1.365-2.048 2.731-4.096 4.779-6.144 2.731-4.096 5.461-8.192 8.192-12.971 0.683-1.365 1.365-2.731 2.048-4.096 0.683-0.683 0.683-1.365 1.365-2.048v-0.683h-0.683c2.731-6.144 3.413-13.653 1.365-19.797-2.048-6.827-6.144-11.605-12.288-15.019-3.413-1.365-6.144-2.048-9.557-2.048-9.557 0-19.115 6.144-24.576 16.384-0.683 1.365-1.365 2.731-1.365 4.096-0.683 0.683-0.683 1.365-0.683 2.048-2.048 5.461-3.413 9.557-4.779 15.019-0.683 2.731-1.365 4.779-2.048 7.509v0c-5.461 15.701-10.24 29.355-16.384 40.277-2.048 2.731-4.096 4.779-6.827 5.461-15.701-6.144-32.085-11.605-49.152-15.019-24.576-5.461-48.469-8.192-73.045-8.192 0 0 0 0 0 0-42.325 0-83.285 8.192-120.832 23.211-2.731-0.683-6.144-2.731-8.875-6.144-6.827-10.923-10.923-24.576-16.384-40.277v-0.683c-0.683-2.731-1.365-4.779-2.048-7.509-1.365-4.779-2.731-9.557-4.779-15.019-0.683-1.365-1.365-2.731-2.048-4.096-0.683-0.683-0.683-1.365-1.365-2.048v-0.683c-3.413-6.144-8.192-10.923-14.336-13.653-3.413-1.365-6.144-2.048-9.557-2.048s-6.827 0.683-9.557 2.048c-12.288 6.144-17.067 21.845-10.24 35.499 0.683 1.365 1.365 2.048 1.365 2.731 0.683 1.365 1.365 2.048 1.365 3.413 2.731 4.779 5.461 8.875 8.192 12.971 1.365 2.048 2.731 4.096 4.779 6.144v0.683c8.875 13.653 16.384 25.941 21.163 38.229 1.365 4.779 0.683 7.509-0.683 10.923-70.315 40.277-125.611 106.496-150.869 188.416-2.048 1.365-4.779 2.731-8.192 2.731-0.683 0-0.683 0-1.365 0-12.971-2.048-25.941-6.827-41.643-12.288v0c-2.731-0.683-4.779-2.048-7.509-2.731-4.779-2.048-8.875-4.096-14.336-5.461-1.365 0-2.731-0.683-4.096-0.683-0.683 0-1.365-0.683-2.048-0.683-2.048-0.683-4.779-0.683-6.827-0.683-4.779 0-9.557 1.365-13.653 3.413-6.144 3.413-10.24 8.875-11.605 15.019s0 12.971 4.096 18.432c4.096 5.461 9.557 9.557 16.384 10.923v0h0.683c0.683 0 1.365 0.683 2.731 0.683 1.365 0.683 3.413 0.683 4.779 1.365 5.461 1.365 10.24 1.365 15.701 1.365 2.731 0 5.461 0 7.509 0.683h0.683c16.384 2.048 30.72 3.413 43.008 6.827 4.096 1.365 6.144 4.096 7.509 6.144-12.971 78.507 3.413 158.379 46.421 226.645 2.731 4.096 5.461 8.192 7.509 11.605-0.683 2.731-1.365 4.779-4.096 7.509-9.557 8.875-21.845 16.384-35.499 25.259v0c-2.048 1.365-4.779 2.731-6.827 4.096-4.779 2.048-8.875 4.779-12.971 8.192-0.683 0.683-2.048 1.365-2.731 2.048s-2.048 1.365-2.731 2.048c-5.461 4.779-9.557 10.923-10.24 17.749-1.365 6.827 0.683 13.653 4.779 18.432 4.779 5.461 11.605 8.875 19.115 8.875 6.144 0 12.288-2.048 17.749-6.144l1.365 0.683v-0.683c0-0.683 0.683-0.683 0.683-1.365 1.365-1.365 2.048-2.048 2.731-2.731 4.096-3.413 7.509-7.509 10.923-10.923 1.365-2.048 3.413-4.096 5.461-6.144v0c11.605-11.605 21.845-21.845 32.085-29.355 2.731-1.365 5.461-2.048 7.509-2.048 0 0 0.683 0 0.683 0 40.277 51.2 98.987 87.381 165.205 101.035v0c17.067 6.827 34.133 6.144 51.2 7.509 1.365 2.048 2.731 4.096 3.413 7.509 1.365 12.971-0.683 27.307-2.731 43.691v0.683c-0.683 2.731-0.683 5.461-1.365 7.509-0.683 4.779-2.048 9.557-2.048 15.019 0 1.365 0 3.413 0 4.779 0 0.683 0 1.365 0 2.048v0 0.683c0 0 0 0 0-0.683h-0.683c2.048 20.48 12.971 27.307 25.941 27.307zM441.003 536.747l11.605 13.653h17.749c0 0 0 1.365 0 1.365l6.827 116.736c-6.827-0.683-14.336-2.048-21.163-4.096v0c-42.325-9.557-80.555-30.72-111.275-60.075l92.843-66.219c0.683 0 2.048-0.683 3.413-1.365zM546.816 550.4h17.749l10.923-12.971c0 0 0 0.683 0 0.683l95.573 67.584c-35.499 34.133-81.92 55.979-131.072 63.488l6.827-116.736c0-0.683 0-2.048 0-2.048zM744.107 412.501c2.048 24.576 0.683 49.152-5.461 73.728-5.461 25.259-15.019 48.469-27.989 68.949l-85.333-75.776c-0.683-0.683-0.683-1.365-1.365-1.365l11.605-14.336-4.096-17.067c1.365-0.683 2.731-1.365 4.096-1.365v0 0l108.544-32.768zM273.067 412.501l110.592 32.085c0.683 0 1.365 0.683 1.365 0.683l-4.096 17.749 10.923 13.653-86.699 78.507c-25.941-43.008-36.864-92.843-32.085-142.677zM508.587 405.675l22.528 10.923 5.461 25.259-15.701 20.48h-25.259l-15.701-20.48 5.461-25.259 23.211-10.923zM378.88 237.056l42.325 103.083c0.683 1.365 1.365 3.413 1.365 5.461l-16.384 7.509-3.413 17.067c0 0 0 0-0.683 0l-114.688-19.797c18.432-47.104 51.2-86.016 91.477-113.323zM638.976 236.373c27.989 18.432 51.2 42.325 69.632 71.68 8.875 13.653 15.019 27.989 20.48 43.008l-114.688 19.115v-13.653l-21.163-10.923c0 0 0.683 0 1.365-0.683l44.373-108.544zM508.587 304.64l-15.701 7.509-56.661-102.4c23.211-7.509 47.787-11.605 73.045-11.605 17.067 0 34.816 2.048 52.565 6.144 6.827 1.365 13.653 3.413 19.797 5.461l-55.979 100.352c-0.683 0.683-1.365 1.365-2.048 2.048l-15.019-7.509zM845.141 666.453v0 0c0 0 0 0 0 0zM508.587 939.52c0 0 0 0 0 0-53.248 0-92.16-40.277-92.843-94.891 0-0.683 0-2.048 0-2.731 0-2.048 0-4.096 0-6.827 0-4.779 0.683-8.875 1.365-12.971 0 0-0.683 0-0.683 0-55.979-12.288-107.861-37.547-152.917-73.728-0.683 1.365-2.048 2.048-3.413 3.413-5.461 7.509-12.288 13.653-20.48 18.432-4.779 2.731-9.557 4.779-15.019 6.827-12.288 5.461-25.259 8.192-38.229 8.192-28.672 0-54.613-12.288-72.363-34.133-16.384-20.48-23.211-46.421-18.432-72.363 4.096-23.893 16.384-45.056 35.499-60.075 1.365-1.365 2.731-2.048 4.779-3.413 1.365-0.683 2.048-1.365 2.731-2.048 4.096-2.731 8.192-5.461 11.605-7.509-24.576-51.883-37.547-109.227-37.547-166.571-4.096-0.683-8.875-0.683-14.336-2.048-2.731-0.683-5.461-1.365-8.192-2.048l-1.365-0.683h-0.683c-3.413-0.683-6.827-2.048-10.24-3.413-18.432-6.827-34.816-19.115-46.421-35.499-15.019-21.163-20.48-47.787-14.336-73.045 5.461-25.259 21.845-47.104 45.056-59.392 14.336-8.192 30.72-12.288 47.104-12.288 7.509 0 15.019 0.683 21.845 2.731 1.365 0 2.731 0.683 3.413 0.683 2.048 0.683 3.413 0.683 4.779 1.365 5.461 1.365 10.24 3.413 14.336 4.779 25.259-51.2 61.44-96.256 106.496-132.437-2.731-3.413-5.461-8.192-8.192-12.971 0 0 0 0 0 0-0.683-0.683-0.683-2.048-1.365-2.731-0.683-2.048-2.048-3.413-2.731-5.461-22.528-47.787-4.096-104.448 42.325-126.293 12.288-6.144 25.941-8.875 39.595-8.875 12.288 0 23.893 2.048 35.499 6.827 18.432 7.509 34.133 20.48 44.373 37.547 2.048 3.413 4.096 6.144 6.144 9.557v0.683l0.683 1.365c1.365 2.731 2.731 5.461 3.413 7.509 2.048 5.461 4.096 10.24 5.461 14.336 27.989-6.144 56.661-9.557 85.333-9.557 27.989 0 56.661 2.731 84.651 8.875 1.365-4.096 2.731-8.192 4.779-12.971 0 0 0 0 0-0.683 1.365-2.731 2.048-5.461 3.413-8.192 16.384-33.451 49.835-54.613 86.016-54.613 13.653 0 27.307 3.413 39.595 8.875 23.211 10.923 40.96 32.085 47.787 57.344 5.461 17.749 4.779 36.864-0.683 54.613-1.365 4.779-2.731 9.557-4.779 13.653v0.683l-0.683 1.365c-1.365 2.731-2.731 5.461-3.413 7.509-2.731 4.779-4.779 8.192-6.827 11.605 33.451 27.307 62.805 60.075 86.016 96.939 7.509 11.605 14.336 23.893 20.48 36.864 2.731-1.365 6.144-2.048 10.24-3.413s8.192-2.731 12.288-3.413c0.683 0 0.683 0 1.365 0 6.827-1.365 13.653-2.048 20.48-2.048 16.384 0 32.768 4.096 47.104 12.288 22.528 12.971 39.595 34.816 45.056 59.392 5.461 25.259 0.683 51.883-15.019 73.045-10.24 14.336-23.211 25.259-38.912 32.085-5.461 2.731-10.923 5.461-17.749 6.827h-0.683c0 0 0 0-0.683 0h-1.365c-2.731 0.683-6.144 1.365-8.192 2.048-5.461 0.683-9.557 1.365-13.653 2.048-0.683 27.989-3.413 56.661-10.24 84.651-6.144 27.307-15.701 53.931-27.307 79.189 10.923 4.096 21.163 10.923 28.672 19.797 1.365 1.365 2.731 2.731 3.413 4.779 11.605 15.701 19.115 32.085 21.845 48.469 4.096 25.941-2.731 52.565-18.432 72.363-18.432 22.528-45.739 36.181-73.728 36.181-18.432 0-36.181-5.461-51.2-16.384-2.731-1.365-5.461-2.731-7.509-4.779-2.048-1.365-4.779-3.413-7.509-6.144-4.096-3.413-7.509-6.827-10.923-10.24-45.056 35.499-96.939 60.757-152.917 73.728 0.683 4.096 1.365 8.875 1.365 14.336 0 1.365 0 2.731 0 4.096 0 2.048 0 3.413 0 5.461-1.365 50.517-43.008 93.525-94.208 93.525v0z" />
<glyph unicode="&#xe92d;" glyph-name="layeredgroup" data-tags="layeredgroup" d="M324.267 905.387v-268.971h-268.971v268.971h268.971zM372.053 953.173h-364.544v-364.544h364.544v364.544zM448.512 512.171h-388.437v47.787h340.651v340.651h47.787zM514.731 445.952h-388.437v47.787h340.651v340.651h47.787zM829.44 400.213v-268.971h-268.971v268.971h268.971zM877.227 448h-364.544v-364.544h364.544v364.544zM953.685 6.997h-388.437v47.787h340.651v340.651h47.787zM1019.904-59.221h-388.437v47.787h340.651v340.651h47.787z" />
<glyph unicode="&#xe92e;" glyph-name="layers" data-tags="layers" d="M681.984 891.733v-613.717h-613.717v613.717h613.717zM750.251 960h-750.251v-750.251h750.251v750.251zM892.245 67.755h-783.701v68.267h715.435v715.435h68.267zM1028.779-68.779h-784.384v68.267h716.117v716.117h68.267z" />
<glyph unicode="&#xe92f;" glyph-name="level-down" data-tags="level-down" d="M688.128-57.856l-296.96 296.96 48.469 48.469 248.491-248.491 248.491 248.491 47.787-48.469zM723.627 11.093h-68.267v880.64h-436.907v68.267h505.173z" />
<glyph unicode="&#xe930;" glyph-name="life-ring" data-tags="life-ring" d="M174.763-44.885c-42.325 0-82.603 12.971-120.149 50.517-96.256 96.256-36.864 230.741 6.144 329.045 20.48 45.739 38.912 88.747 38.912 116.736 0 27.307-19.115 70.997-38.912 116.736-43.008 98.304-102.4 232.789-6.144 329.045 75.776 75.776 163.157 50.517 256 23.211 58.027-17.067 123.563-36.181 198.656-36.181s140.629 19.115 198.656 36.181c92.16 27.307 179.541 52.565 255.317-23.211 96.939-96.939 37.547-231.424-6.144-329.728-20.48-45.739-38.912-88.747-38.912-116.736 0-27.307 19.115-70.997 38.912-116.736 43.008-98.304 102.4-232.789 6.144-329.728-75.776-75.776-163.157-50.517-255.317-23.211-58.027 17.067-123.563 36.181-198.656 36.181s-140.629-19.115-198.656-36.181c-47.104-12.288-92.843-25.941-135.851-25.941zM174.763 879.445c-27.989 0-50.517-8.875-71.68-30.72-58.709-58.709-28.672-142.677 20.48-253.952 23.211-52.565 45.056-102.4 45.056-144.043 0-42.325-21.845-91.477-45.056-144.043-49.152-111.275-79.189-194.56-20.48-253.952 45.056-45.056 92.843-34.133 187.733-6.144 62.123 18.432 133.12 38.912 217.771 38.912s155.648-20.48 217.771-38.912c94.891-27.989 142.677-39.595 187.733 6.144 58.709 58.709 28.672 142.677-20.48 253.952-23.211 52.565-45.056 102.4-45.056 144.043 0 42.325 21.845 91.477 45.056 144.043 49.152 111.275 79.189 194.56 20.48 253.952-45.056 45.056-92.843 34.133-187.733 6.144-62.123-18.432-133.12-38.912-217.771-38.912s-155.648 20.48-217.771 38.912c-49.152 14.336-86.016 24.576-116.053 24.576zM962.56 451.413c0-250.723-203.251-453.973-453.973-453.973s-453.973 203.251-453.973 453.973c0 250.723 203.251 453.973 453.973 453.973s453.973-203.251 453.973-453.973zM508.587-36.693c-268.971 0-488.107 219.136-488.107 488.107s219.136 488.107 488.107 488.107c268.971 0 488.107-219.136 488.107-488.107s-219.136-488.107-488.107-488.107zM508.587 871.253c-231.424 0-419.84-188.416-419.84-419.84s188.416-419.84 419.84-419.84 419.84 188.416 419.84 419.84c0 231.424-188.416 419.84-419.84 419.84zM173.397 103.936l-12.288 12.288c-89.429 89.429-137.899 207.531-137.216 333.824 0 125.611 49.835 243.712 138.581 333.141l12.288 12.288 346.112-343.381-347.477-348.16zM174.763 746.325c-75.093-80.555-116.736-185.685-116.736-296.277-0.683-111.275 40.277-216.405 116.053-297.643l299.008 299.008-298.325 294.912zM818.517 108.032l-346.112 343.381 347.477 347.477 12.288-12.288c183.637-183.637 182.955-482.645-1.365-666.965l-12.288-11.605zM520.875 451.413l297.643-295.595c75.093 81.237 116.736 185.685 117.419 296.96s-40.277 216.405-116.053 297.643l-299.008-299.008zM508.587 179.029c-150.187 0-272.384 122.197-272.384 272.384s122.197 272.384 272.384 272.384 272.384-122.197 272.384-272.384-122.197-272.384-272.384-272.384zM508.587 144.896c-168.619 0-306.517 137.216-306.517 306.517 0 168.619 137.216 306.517 306.517 306.517s306.517-137.216 306.517-306.517c0-168.619-137.216-306.517-306.517-306.517zM508.587 689.664c-131.072 0-238.251-106.496-238.251-238.251 0-131.072 106.496-238.251 238.251-238.251s238.251 106.496 238.251 238.251c0 131.072-106.496 238.251-238.251 238.251z" />
<glyph unicode="&#xe937;" glyph-name="link" data-tags="link" d="M590.507 563.371c6.144 0 12.288-2.048 17.067-6.827l7.509-7.509c9.557-9.557 9.557-24.576 0-34.133l-162.475-162.475c-4.779-4.779-10.923-6.827-17.067-6.827s-12.288 2.048-17.067 6.827l-7.509 7.509c-9.557 9.557-9.557 24.576 0 34.133l162.475 162.475c4.779 4.779 10.923 6.827 17.067 6.827zM590.507 631.637c-24.576 0-47.787-9.557-65.536-27.307l-162.475-161.792c-17.749-17.749-27.307-40.96-27.307-65.536s9.557-47.787 27.307-65.536l7.509-7.509c17.749-17.749 40.96-27.307 65.536-27.307s47.787 9.557 65.536 27.307l162.475 162.475c36.181 36.181 36.181 94.891 0 131.072l-7.509 7.509c-17.749 17.067-40.96 26.624-65.536 26.624v0zM639.659 367.445c-36.864 0-74.411 9.557-107.861 28.672l34.133 58.709c57.344-33.451 129.707-23.893 176.128 22.528l168.619 168.619c56.661 56.661 56.661 148.821 0 205.483s-149.504 57.344-206.165 0.683l-167.253-167.936c-46.421-46.421-55.979-119.467-22.528-176.811l-58.709-34.133c-49.152 83.968-35.499 190.464 33.451 259.413l168.619 169.301c83.285 83.285 219.136 83.285 302.421-0.683 83.285-83.285 83.285-219.136 0-302.421l-168.619-168.619c-41.643-40.96-96.939-62.805-152.235-62.805zM639.659 465.749c-10.923 0-21.845 1.365-32.768 4.779l19.115 65.536c16.384-4.779 34.133 0 46.421 12.288l168.619 168.619c8.875 8.875 13.653 20.48 13.653 33.451 0 12.288-4.779 24.576-13.653 33.451-18.432 18.432-48.469 18.432-66.901 0l-167.253-169.301c-12.288-12.288-17.067-30.72-11.605-47.787l-64.853-21.163c-13.653 41.643-2.731 86.016 27.989 116.736l168.619 168.619c45.056 45.056 118.101 45.056 163.157 0 21.845-21.845 33.451-50.517 33.451-81.92 0-30.72-12.288-59.392-34.133-81.237l-168.619-168.619c-21.163-21.163-50.517-33.451-81.237-33.451zM215.040-57.173c0 0 0 0 0 0-57.344 0-110.592 21.845-150.869 62.123-83.285 83.285-83.285 219.136 0 302.421l169.301 169.301c70.315 70.315 181.589 81.92 265.557 28.672l-36.864-57.344c-57.344 36.181-133.12 27.989-180.907-19.797l-169.301-169.301c-56.661-56.661-56.661-149.504 0-206.165s148.821-56.661 205.483 0l169.301 169.984c47.104 47.104 55.979 122.197 21.163 179.541l58.027 35.499c51.883-84.651 38.912-193.195-30.72-263.509l-168.619-168.619c-40.277-40.277-94.208-62.805-151.552-62.805zM215.040 41.131c-29.355 0-58.709 10.923-81.237 33.451-21.845 21.845-34.133 50.517-34.133 81.92 0 30.72 11.605 60.075 33.451 81.92l169.301 168.619c27.307 27.307 66.219 38.912 103.765 31.403l-12.971-66.901c-15.701 2.731-31.403-2.048-42.325-12.971l-168.619-168.619c-8.875-8.875-13.653-20.48-13.653-33.451s4.779-24.576 13.653-33.451c18.432-18.432 47.787-18.432 66.219 0l168.619 168.619c10.923 10.923 15.701 26.624 12.971 42.325l66.901 12.971c7.509-37.547-4.779-76.459-31.403-103.765l-168.619-168.619c-22.528-21.845-52.565-33.451-81.92-33.451z" />
<glyph unicode="&#xe938;" glyph-name="linux" data-tags="linux" d="M854.016 173.568c-23.211 9.557-42.325 24.576-40.96 53.248s-20.48 47.104-20.48 47.104 19.115 62.123 1.365 114.005c-17.749 51.883-75.776 134.485-120.832 196.608-44.373 62.123-6.827 134.485-47.104 226.645-40.96 92.16-146.773 86.699-203.435 47.787-57.344-39.595-39.595-137.216-36.864-182.955s1.365-79.189-4.096-90.795c-5.461-11.605-42.325-55.979-66.219-92.16-24.576-36.864-42.325-113.323-59.392-144.043-17.749-31.403-5.461-59.392-5.461-59.392s-12.288-4.096-21.845-24.576c-9.557-20.48-28.672-30.037-62.123-36.181-34.133-6.827-34.133-28.672-25.941-53.248s0-38.229-9.557-68.949c-9.557-31.403 38.229-40.96 83.968-45.739 46.421-5.461 97.621-35.499 141.312-40.96s56.661 30.037 56.661 30.037 49.152 10.923 100.352 12.288c51.883 1.365 100.352-10.923 100.352-10.923s9.557-21.845 27.307-31.403c17.749-9.557 55.979-10.923 79.872 15.019 24.576 25.941 89.429 58.027 126.293 78.507 36.864 19.797 30.037 50.517 6.827 60.075zM536.576 772.267c23.211 0 42.325-23.211 42.325-51.2 0-20.48-9.557-37.547-23.211-45.739-3.413 1.365-7.509 3.413-10.923 4.779 8.192 4.096 14.336 14.336 14.336 26.624 0 15.701-10.24 29.355-21.845 29.355-12.288 0-21.845-12.971-21.845-29.355 0-6.144 1.365-11.605 4.096-16.384-7.509 2.731-13.653 5.461-19.115 7.509-2.731 6.827-4.096 15.019-4.096 23.211-2.048 27.989 17.067 51.2 40.277 51.2zM533.845 663.723c11.605-4.096 24.576-11.605 23.211-19.115s-7.509-7.509-23.211-17.067c-15.701-9.557-49.835-30.72-60.757-32.085s-17.067 4.779-28.672 12.288c-11.605 7.509-33.451 25.259-27.989 34.816 0 0 17.067 12.971 24.576 19.797s26.624 23.211 38.229 21.163c11.605-2.048 43.008-15.701 54.613-19.797zM428.715 764.075c18.432 0 33.451-21.845 33.451-48.469 0-4.779-0.683-9.557-1.365-13.653-4.779-1.365-8.875-4.096-13.653-7.509-2.048-2.048-4.096-3.413-6.144-5.461 2.731 5.461 4.096 12.971 2.731 21.163-2.731 15.019-12.288 25.259-21.845 23.893s-15.701-15.019-12.971-30.037c2.731-15.019 12.288-25.259 21.845-23.893 0.683 0 1.365 0 1.365 0.683-4.779-4.779-8.875-8.192-13.653-11.605-13.653 6.144-23.211 24.576-23.211 46.421 0 26.624 15.019 48.469 33.451 48.469zM393.216 78.677c-4.096-19.797-27.307-33.451-27.307-33.451-20.48-6.827-77.824 18.432-103.765 29.355s-92.16 14.336-101.035 23.893c-8.875 9.557 4.096 31.403 7.509 51.883s-6.827 33.451-3.413 47.787c3.413 14.336 45.739 14.336 61.44 23.893 16.384 9.557 19.797 38.229 32.768 45.739s36.864-19.797 46.421-34.816c9.557-15.019 46.421-79.872 61.44-96.256 15.701-17.067 30.037-38.912 25.941-58.027zM632.832 267.093c-4.096-19.115-4.096-88.064-4.096-88.064s-42.325-58.027-107.179-67.584c-64.853-9.557-97.621-2.731-97.621-2.731l-36.864 42.325c0 0 28.672 4.096 24.576 32.768s-86.699 67.584-101.717 103.083c-15.019 35.499-2.731 94.891 16.384 124.928s31.403 94.891 49.835 116.736c19.115 21.845 34.133 67.584 27.307 88.064 0 0 40.96-49.152 68.949-40.96 28.672 8.192 92.16 55.979 101.717 47.787s90.795-187.051 98.987-244.395c8.192-56.661-5.461-100.352-5.461-100.352s-30.72 7.509-34.816-11.605zM841.045 139.435c-12.971-11.605-83.285-40.277-104.448-62.123s-48.469-40.277-65.536-34.816c-17.067 5.461-31.403 28.672-24.576 62.123 7.509 33.451 13.653 70.315 12.971 91.477-1.365 21.163-5.461 49.835 0 53.931s13.653 2.048 13.653 2.048-4.096-40.277 19.797-50.517c23.893-10.24 58.709 4.096 69.632 15.019 10.923 10.24 17.749 25.941 17.749 25.941s10.24-5.461 9.557-21.845c-1.365-17.067 7.509-40.96 23.211-49.835 16.384-8.192 40.96-19.797 27.989-31.403z" />
</font>
</defs>
</svg>
