<?xml version="1.0" standalone="no"?>
<!DOCTYPE svg PUBLIC "-//W3C//DTD SVG 1.1//EN" "http://www.w3.org/Graphics/SVG/1.1/DTD/svg11.dtd" >
<svg xmlns="http://www.w3.org/2000/svg">
<metadata>
<json>
<![CDATA[
{
	"fontFamily": "rancher-icons",
	"majorVersion": 3,
	"minorVersion": 0,
	"fontURL": "https://github.com/rancher/icons",
	"copyright": "2017 Rancher Labs, Inc.",
	"designer": "Lauren Vuchetich",
	"license": "Apache 2",
	"version": "Version 3.0",
	"fontId": "rancher-icons",
	"psName": "rancher-icons",
	"subFamily": "Regular",
	"fullName": "rancher-icons",
	"description": "Font generated by IcoMoon."
}
]]>
</json>
</metadata>
<defs>
<font id="rancher-icons" horiz-adv-x="1024">
<font-face units-per-em="1024" ascent="860.16" descent="-163.84" />
<missing-glyph horiz-adv-x="1024" />
<glyph unicode="&#x20;" horiz-adv-x="512" d="" />
<glyph unicode="&#xe900;" glyph-name="adjust" data-tags="adjust" d="M512 763.733c244.395 0 443.733-199.339 443.733-443.733s-199.339-443.733-443.733-443.733-443.733 199.339-443.733 443.733 199.339 443.733 443.733 443.733zM512 832c-282.624 0-512-229.376-512-512s229.376-512 512-512 512 229.376 512 512-228.693 512-512 512v0zM512 832c282.624 0 512-229.376 512-512s-229.376-512-512-512v1024z" />
<glyph unicode="&#xe901;" glyph-name="alert" data-tags="alert" d="M547.5 71.85c0-22.245-18.033-40.277-40.277-40.277s-40.277 18.033-40.277 40.277c0 22.245 18.033 40.277 40.277 40.277s40.277-18.033 40.277-40.277zM557.057 426.154c0-27.307-49.835-269.653-49.835-269.653s-49.835 241.664-49.835 269.653 22.528 49.835 49.835 49.835c27.307 0 49.835-22.528 49.835-49.835zM512.001 698.538l436.907-757.077h-873.813l436.907 757.077zM512.001 766.805c-24.576 0-47.104-12.971-59.392-34.133l-436.907-757.077c-12.288-21.163-12.288-47.104 0-68.267s34.816-34.133 59.392-34.133h873.813c24.576 0 47.104 12.971 59.392 34.133s12.288 47.104 0 68.267l-436.907 757.077c-12.288 20.48-34.816 34.133-59.392 34.133v0z" />
<glyph unicode="&#xe902;" glyph-name="apple" data-tags="apple" d="M684.032 488.959c25.259 0 47.104-6.144 66.219-17.749-6.144-7.509-12.288-15.019-17.067-21.845-30.72-44.373-45.739-93.525-45.739-146.773 0-57.344 16.384-109.227 48.469-154.965 15.701-23.211 33.451-42.325 52.565-57.344-9.557-20.48-21.845-40.96-35.499-61.44v0 0c-34.816-52.565-62.123-70.997-76.459-70.997-2.048 0-15.701 0.683-49.835 12.288-37.547 13.653-70.997 20.48-101.717 20.48-30.037 0-62.805-7.509-99.669-22.528h-1.365c-27.989-11.605-40.277-12.288-42.325-12.288-19.115 0-54.613 26.624-96.939 100.352-45.056 79.872-67.584 156.331-67.584 228.011 0 64.171 14.336 114.005 44.373 152.235 25.941 32.768 55.296 48.469 93.525 48.469 12.971 0 35.499-2.048 73.045-12.971 55.979-16.384 77.141-18.432 90.795-18.432 23.893 0 54.613 6.827 96.256 21.163 35.499 11.605 57.344 14.336 68.949 14.336zM684.032 557.226c-24.576 0-54.613-6.144-90.112-17.749-34.133-11.605-58.709-17.749-74.411-17.749-11.605 0-35.499 5.461-71.68 15.701s-66.901 15.701-92.16 15.701c-59.392 0-108.544-25.259-147.456-75.093-38.912-50.517-58.709-115.371-58.709-194.56 0-83.968 25.259-171.349 76.459-261.461 51.883-90.112 103.765-134.485 156.331-134.485 17.749 0 40.277 6.144 68.949 17.749 27.989 11.605 52.565 17.067 73.728 17.067 22.528 0 48.469-5.461 78.507-16.384 31.403-10.923 55.979-16.384 73.045-16.384 44.373 0 88.747 34.133 133.803 101.717 29.355 43.008 50.517 86.699 64.171 129.707-30.72 9.557-58.027 31.403-81.92 65.536s-36.181 73.045-36.181 116.053c0 38.912 11.605 75.093 34.133 107.861 12.288 17.749 32.085 38.229 59.392 61.44-17.749 21.845-36.181 39.595-53.931 51.883-34.133 21.845-70.997 33.451-111.957 33.451v0zM675.157 752.469c-60.757-14.336-104.448-39.595-129.707-77.141-25.941-37.547-39.595-81.92-40.277-133.803 23.211 2.048 40.96 4.779 53.931 8.875 18.432 6.144 37.547 18.432 55.979 37.547 21.845 21.845 38.229 45.739 48.469 71.68s15.019 49.835 15.019 70.997c0 1.365 0 3.413 0 5.461s0 4.096 0 5.461c-0.683 1.365-0.683 2.731-1.365 5.461-1.365 2.731-2.048 4.096-2.048 5.461v0z" />
<glyph unicode="&#xe903;" glyph-name="arrow-circle-up" data-tags="arrow-circle-up" d="M512 763.733c244.395 0 443.733-199.339 443.733-443.733s-199.339-443.733-443.733-443.733-443.733 199.339-443.733 443.733 198.656 443.733 443.733 443.733zM512 832c-282.624 0-512-229.376-512-512s229.376-512 512-512 512 229.376 512 512-229.376 512-512 512v0zM743.424 386.219l-231.424 231.424-232.107-231.424-48.469 47.787 280.576 280.576 279.893-280.576zM473.088 661.333h68.267v-682.667h-68.267v682.667z" />
<glyph unicode="&#xe904;" glyph-name="box, container, containers" data-tags="box" d="M1017.856 623.616c0 1.024 0 2.56 0 3.584 0 0.512 0 1.024 0 1.536 0 1.536-0.512 3.072-1.024 4.608 0 0 0 0.512 0 0.512-0.512 1.536-1.024 3.072-1.024 4.096 0 0.512-0.512 1.024-0.512 1.024-0.512 1.536-1.024 2.56-1.536 3.584 0 0 0 0.512-0.512 0.512-0.512 1.536-1.536 3.072-2.56 4.096 0 0.512-0.512 0.512-0.512 1.024-0.512 1.024-1.536 2.048-2.048 3.072 0 0.512-0.512 0.512-0.512 1.024-1.024 1.024-2.048 2.56-3.072 3.584 0 0-0.512 0.512-0.512 0.512-1.024 1.024-2.048 2.048-3.072 3.072 0 0-0.512 0.512-0.512 0.512s-0.512 0-0.512 0.512c-2.56 2.048-5.632 3.584-8.704 5.12-0.512 0-1.024 0.512-1.024 0.512-1.024 0.512-2.56 1.024-3.584 1.536-0.512 0-1.024 0.512-1.024 0.512s-0.512 0-0.512 0l-437.248 134.656c-8.192 2.56-17.408 2.56-25.6 0.512l-479.744-120.32c-0.512 0-0.512 0-1.024-0.512-0.512 0-1.024-0.512-1.536-0.512-1.536-0.512-2.56-1.024-3.584-1.536-0.512 0-0.512 0-1.024-0.512-1.536 0-3.072-0.512-4.608-1.536 0 0-0.512 0-0.512-0.512-1.024-0.512-2.56-1.536-3.584-2.56 0 0-0.512 0-0.512-0.512 0 0 0 0 0 0-1.536-1.024-2.56-2.048-4.096-3.072 0 0-0.512-0.512-0.512-0.512-1.024-1.024-2.048-2.048-3.072-3.072-0.512-0.512-0.512-0.512-1.024-1.024-1.024-1.024-2.048-2.56-3.072-4.096 0 0-0.512-0.512-0.512-0.512-1.024-1.024-1.536-2.56-2.048-3.584 0-0.512-0.512-0.512-0.512-1.024-1.536-3.072-2.56-6.144-3.584-9.216 0-0.512 0-1.024-0.512-1.024-0.512-1.536-0.512-3.072-1.024-4.608 0 0 0-0.512 0-0.512 0-1.536-0.512-3.072-0.512-4.096 0 0 0-0.512 0-0.512s0-0.512 0-0.512l-0.512-623.104c0-20.992 13.824-39.936 33.792-46.080l435.712-133.632c0 0 0.512 0 0.512 0 2.048-0.512 4.096-1.024 6.144-1.536 0.512 0 0.512 0.512 1.024 0.512 2.048-0.512 4.096 0 6.656 0 0 0 0 0 0 0s0 0 0 0 0 0 0 0 0 0 0 0c1.536 0 3.584-0.512 5.12-0.512 0.512 0 1.024-0.512 1.024 0 1.536 0 3.584 0.512 5.12 1.024 0 0 0 0 0 0l479.232 120.32c21.504 5.12 36.352 24.576 36.352 46.592l1.024 622.592c1.024-0.512 1.024 0 1.024 0zM532.48 707.072l258.048-79.36-299.008-75.264-258.048 79.36 299.008 75.264zM102.4 571.392l339.968-104.448-1.024-521.728-339.968 104.448 1.024 521.728zM920.576 37.888l-382.976-95.744 1.024 523.264 382.976 95.744-1.024-523.264z" />
<glyph unicode="&#xe905;" glyph-name="certificate" data-tags="certificate" d="M993.278 570.539l-263.509 262.144h-439.637v-122.197h68.267v53.931h334.507v-225.28h232.107v-573.44h-339.968c21.163 40.277 32.768 86.699 32.768 135.168 0 84.651-35.499 160.427-92.843 214.357v194.56c0 110.592-90.112 200.704-200.704 200.704-111.275 0-201.387-90.112-201.387-200.704v-195.243c-56.661-53.248-92.16-129.024-92.16-213.675 0-162.475 131.072-293.547 293.547-293.547 83.285 0 158.379 34.816 211.627 90.112h457.387v673.109zM191.144 509.782c0 73.045 60.075 132.437 133.12 132.437s132.437-59.392 132.437-132.437v-146.773c-11.605 6.144-23.893 10.923-36.864 15.701v131.072c0 52.565-43.008 95.573-95.573 95.573-53.248 0-96.256-43.008-96.256-95.573v-131.755c-12.971-4.096-25.259-9.557-36.864-15.701v147.456zM290.131 392.363c-6.827-0.683-14.336-2.048-21.163-3.413v120.832c0 17.067 8.192 32.768 21.163 43.008v-160.427zM358.398 552.107c12.288-10.24 20.48-25.259 20.48-42.325v-120.832c-6.827 1.365-13.653 2.048-20.48 3.413v159.744zM324.264-124.416c-124.245 0-225.28 101.035-225.28 225.28s101.035 225.28 225.28 225.28 225.28-101.035 225.28-225.28c0-124.245-101.035-225.28-225.28-225.28zM747.518 718.678l126.293-124.928h-126.293v124.928zM324.264 286.55c-102.4 0-186.368-83.285-186.368-186.368s83.968-185.685 186.368-185.685 186.368 83.285 186.368 186.368c0 103.083-83.968 185.685-186.368 185.685zM324.264-45.226c-80.555 0-145.408 64.853-145.408 145.408s65.536 145.408 145.408 145.408 145.408-64.853 145.408-145.408c0-79.872-64.853-145.408-145.408-145.408zM326.312 201.216c-31.403 0-57.344-25.941-57.344-57.344 0-23.893 14.336-43.691 34.816-52.565v-91.477h40.96v90.112c22.528 7.509 38.912 29.355 38.912 53.931 0 31.403-25.941 57.344-57.344 57.344z" />
<glyph unicode="&#xe906;" glyph-name="check" data-tags="check" d="M355.328-72.534l-350.891 351.573 120.832 120.832 230.059-230.741 543.403 543.403 120.832-120.832z" />
<glyph unicode="&#xe907;" glyph-name="chevron-down" data-tags="chevron-down" d="M512.341 4.266l-511.317 510.635 120.832 120.832 390.485-390.485 389.803 390.485 120.832-120.832z" />
<glyph unicode="&#xe908;" glyph-name="chevron-left" data-tags="chevron-left" d="M708.949-194.389l-514.731 514.731 514.731 514.048 120.832-120.832-393.899-393.216 393.899-393.899z" />
<glyph unicode="&#xe909;" glyph-name="chevron-right" data-tags="chevron-right" d="M315.392-194.39l-120.832 120.832 393.899 393.899-393.899 393.216 120.832 120.832 514.048-514.048z" />
<glyph unicode="&#xe90a;" glyph-name="chevron-up" data-tags="chevron-up" d="M902.144 4.267l-389.803 389.803-390.485-389.803-120.832 120.149 511.317 511.317 510.635-511.317z" />
<glyph unicode="&#xe90b;" glyph-name="circle-o" data-tags="circle-o" d="M512 763.733c244.395 0 443.733-199.339 443.733-443.733s-199.339-443.733-443.733-443.733-443.733 199.339-443.733 443.733 198.656 443.733 443.733 443.733zM512 832c-282.624 0-512-229.376-512-512s229.376-512 512-512 512 229.376 512 512-229.376 512-512 512v0z" />
<glyph unicode="&#xe90c;" glyph-name="circle" data-tags="circle" d="M1024 320c0-282.77-229.23-512-512-512s-512 229.23-512 512c0 282.77 229.23 512 512 512s512-229.23 512-512z" />
<glyph unicode="&#xe90d;" glyph-name="cloud" data-tags="cloud" d="M135.168 207.359h-34.133c0 77.824 63.488 140.629 140.629 140.629v-34.133c-58.709 0-106.496-47.787-106.496-106.496zM922.966 165.716h-34.133c0 35.499-29.355 64.853-64.853 64.853v34.133c54.613-0.683 98.987-45.056 98.987-98.987zM823.979-31.574h-582.315c-128.341 0-232.789 105.813-232.789 236.203 0 124.245 95.573 226.645 216.405 235.52 49.152 137.216 180.907 231.424 329.045 231.424 187.051 0 339.968-148.139 348.16-332.459 23.893-10.923 45.739-26.624 63.488-46.421 0 0 0 0 0 0 31.403-34.816 49.152-81.92 49.152-129.707 0-107.179-85.333-194.56-191.147-194.56zM241.664 371.882c-90.795 0-164.523-75.093-164.523-167.936 0-92.16 73.728-167.253 164.523-167.253h582.315c66.901 0 122.88 57.344 122.88 125.611 0 30.72-11.605 61.44-32.085 83.968v0c-15.019 17.067-34.816 29.355-56.661 35.499-15.019 4.096-24.576 17.749-24.576 33.451v2.731c0 1.365 0 2.731 0 4.096 0 154.965-125.611 280.576-280.576 280.576-124.928 0.683-236.203-83.968-269.653-205.483-4.096-15.701-18.432-25.941-34.133-25.259h-1.365c-2.048 0-4.096 0-6.144 0zM479.232 197.802l-68.267 2.731v1.365c0 2.048 0 4.096 0 5.461 0 90.795-74.411 164.523-166.571 164.523v68.267c129.707 0 234.837-104.448 234.837-232.789 0-2.731 0-6.144 0-8.875v-0.683zM344.747 397.823l-32.085 11.605c36.864 101.717 133.803 169.984 241.664 169.984 0 0 0 0 0 0v-34.133c0 0 0 0 0 0-92.16 0-178.176-60.075-209.579-147.456z" />
<glyph unicode="&#xe90e;" glyph-name="compass" data-tags="compass" d="M512 648.705c-230.741 0-418.475-187.051-418.475-418.475 0-230.741 187.051-418.475 418.475-418.475s418.475 187.051 418.475 418.475c-0.683 231.424-187.733 418.475-418.475 418.475zM550.229-117.93v65.536h-68.267v-66.219c-169.301 14.336-304.469 149.504-318.805 318.805h79.872v68.267h-79.189c18.432 165.205 151.552 296.277 318.123 310.613v-85.333h68.267v84.651c162.475-17.749 292.181-147.456 309.931-309.931h-70.997v-68.267h71.68c-14.336-166.571-145.408-299.691-310.613-318.123zM441.003 664.406h143.36c41.643 0 75.093 33.451 75.093 75.093v13.653c0 41.643-33.451 75.093-75.093 75.093h-143.36c-41.643 0-75.093-33.451-75.093-75.093v-13.653c0-41.643 33.451-75.093 75.093-75.093zM434.176 753.153c0 4.096 2.731 6.827 6.827 6.827h143.36c4.096 0 6.827-2.731 6.827-6.827v-13.653c0-4.096-2.731-6.827-6.827-6.827h-143.36c-4.096 0-6.827 2.731-6.827 6.827v13.653zM684.715 419.329l-122.88-234.155-192.512-181.589c-6.827-6.144-17.067 1.365-12.288 9.557l122.197 234.155 192.512 181.589c6.827 6.144 17.067-1.365 12.971-9.557z" />
<glyph unicode="&#xe90f;" glyph-name="copy" data-tags="copy" d="M819.542 700.245c-12.288 17.749-32.085 28.672-55.296 28.672h-30.72c-1.365 56.661-48.469 103.083-106.496 103.083-28.672 0-55.296-11.605-74.411-30.72h-326.997l-190.464-186.368v-542.72h227.328v-264.192h726.357v892.245h-169.301zM833.195 569.173v15.701h32.768l4.096-661.504h-492.203v661.504h38.912v-15.701h416.427zM627.030 784.213c32.085 0 58.709-25.941 58.709-58.027 0-18.432-8.192-33.451-21.163-45.056h99.669c12.971 0 21.163-10.923 21.163-23.893v-40.277h-320.853v40.277c0 12.971 12.288 23.893 25.259 23.893h100.352c-12.971 11.605-21.163 26.624-21.163 45.056 0 32.085 25.941 58.027 58.027 58.027zM520.534 728.917h-30.72c-23.211 0-44.373-11.605-58.027-28.672h-169.301v-127.659c-5.461-3.413-9.557-5.461-17.749-5.461-10.24 0-15.019 2.731-21.845 8.192-4.779 3.413-11.605 8.192-20.48 11.605h54.613v166.571h267.605c-2.048-8.192-4.096-16.384-4.096-24.576zM123.222 634.709l86.016 83.968v-83.968h-86.016zM82.945 119.979v466.944h77.141c-8.875-3.413-15.701-8.192-20.48-11.605-7.509-4.779-11.605-8.192-21.845-8.192-9.557 0-17.067-7.509-17.067-17.067s7.509-17.067 17.067-17.067c21.163 0 32.768 8.875 41.643 15.019 7.509 4.779 11.605 8.192 21.845 8.192s15.019-2.731 21.845-8.192c8.192-6.144 20.48-15.019 41.643-15.019 6.827 0 12.971 0.683 17.749 2.731v-65.536c-5.461-3.413-9.557-5.461-17.749-5.461-10.24 0-15.019 2.731-21.845 8.192-8.192 6.144-20.48 15.019-41.643 15.019s-32.768-8.875-41.643-15.019c-7.509-4.779-11.605-8.192-21.845-8.192-9.557 0-17.067-7.509-17.067-17.067s7.509-17.067 17.067-17.067c21.163 0 32.768 8.875 41.643 15.019 7.509 4.779 11.605 8.192 21.845 8.192s15.019-2.731 21.845-8.192c8.192-6.144 20.48-15.019 41.643-15.019 6.827 0 12.971 0.683 17.749 2.048v-65.536c-5.461-3.413-9.557-5.461-17.749-5.461-10.24 0-15.019 2.731-21.845 8.192-8.192 6.144-20.48 15.019-41.643 15.019s-32.768-8.875-41.643-15.019c-7.509-4.779-11.605-8.192-21.845-8.192-9.557 0-17.067-7.509-17.067-17.067s7.509-17.067 17.067-17.067c21.163 0 32.768 8.875 41.643 15.019 7.509 4.779 11.605 8.192 21.845 8.192s15.019-2.731 21.845-8.192c8.192-6.144 20.48-15.019 41.643-15.019 6.827 0 12.971 0.683 17.749 2.731v-65.536c-5.461-3.413-9.557-5.461-17.749-5.461-10.24 0-15.019 2.731-21.845 8.192-8.192 6.144-20.48 15.019-41.643 15.019s-32.768-8.875-41.643-15.019c-7.509-4.779-11.605-8.192-21.845-8.192-9.557 0-17.067-7.509-17.067-17.067s7.509-17.067 17.067-17.067c21.163 0 32.768 8.875 41.643 15.019 7.509 4.779 11.605 8.192 21.845 8.192s15.019-2.731 21.845-8.192c8.192-6.144 20.48-15.019 41.643-15.019 6.827 0 12.971 0.683 17.749 2.731v-106.496h-179.541zM920.577-123.733h-589.824v755.712h86.016v-26.624h-59.392v-702.464h533.163l-4.096 702.464h-53.248v26.624h87.381v-755.712zM833.878 347.307c0-9.557-8.192-17.067-17.067-17.067-21.163 0-33.451 8.875-41.643 15.019-6.827 5.461-11.605 8.192-21.845 8.192s-15.019-3.413-21.845-8.192c-8.875-6.144-20.48-15.019-41.643-15.019s-33.451 8.875-41.643 15.019c-6.827 5.461-11.605 8.192-21.845 8.192s-15.019-3.413-21.845-8.192c-8.875-6.144-20.48-15.019-41.643-15.019s-33.451 8.875-41.643 15.019c-6.827 5.461-11.605 8.192-21.845 8.192s-15.019-3.413-21.845-8.192c-8.875-6.144-20.48-15.019-41.643-15.019-9.557 0-17.067 7.509-17.067 17.067s7.509 17.067 17.067 17.067c10.24 0 15.019 3.413 21.845 8.192 8.875 6.144 20.48 15.019 41.643 15.019s33.451-8.875 41.643-15.019c6.827-5.461 11.605-8.192 21.845-8.192s15.019 3.413 21.845 8.192c8.875 6.144 20.48 15.019 41.643 15.019s33.451-8.875 41.643-15.019c6.827-5.461 11.605-8.192 21.845-8.192s15.019 3.413 21.845 8.192c8.875 6.144 20.48 15.019 41.643 15.019s33.451-8.875 41.643-15.019c6.827-5.461 11.605-8.192 21.845-8.192 9.557 0 17.067-7.509 17.067-17.067zM457.729 469.504c8.875 6.144 20.48 15.019 41.643 15.019s33.451-8.875 41.643-15.019c6.827-5.461 11.605-8.192 21.845-8.192s15.019 3.413 21.845 8.192c8.875 6.144 20.48 15.019 41.643 15.019s33.451-8.875 41.643-15.019c6.827-5.461 11.605-8.192 21.845-8.192s15.019 3.413 21.845 8.192c8.875 6.144 20.48 15.019 41.643 15.019s33.451-8.875 41.643-15.019c6.827-5.461 11.605-8.192 21.845-8.192 9.557 0 17.067-7.509 17.067-17.067s-8.192-17.067-17.067-17.067c-21.163 0-33.451 8.875-41.643 15.019-6.827 5.461-11.605 8.192-21.845 8.192s-15.019-3.413-21.845-8.192c-8.875-6.144-20.48-15.019-41.643-15.019s-33.451 8.875-41.643 15.019c-6.827 5.461-11.605 8.192-21.845 8.192s-15.019-3.413-21.845-8.192c-8.875-6.144-20.48-15.019-41.643-15.019s-33.451 8.875-41.643 15.019c-6.827 5.461-11.605 8.192-21.845 8.192s-15.019-3.413-21.845-8.192c-8.875-6.144-20.48-15.019-41.643-15.019-9.557 0-17.067 7.509-17.067 17.067s7.509 17.067 17.067 17.067c10.24 0 15.019 3.413 21.845 8.192zM833.878 250.368c0-9.557-8.192-17.067-17.067-17.067-21.163 0-33.451 8.875-41.643 15.019-6.827 5.461-11.605 8.192-21.845 8.192s-15.019-3.413-21.845-8.192c-8.875-6.144-20.48-15.019-41.643-15.019s-33.451 8.875-41.643 15.019c-6.827 5.461-11.605 8.192-21.845 8.192s-15.019-3.413-21.845-8.192c-8.875-6.144-20.48-15.019-41.643-15.019s-33.451 8.875-41.643 15.019c-6.827 5.461-11.605 8.192-21.845 8.192s-15.019-3.413-21.845-8.192c-8.875-6.144-20.48-15.019-41.643-15.019-9.557 0-17.067 7.509-17.067 17.067s7.509 17.067 17.067 17.067c10.24 0 15.019 3.413 21.845 8.192 8.875 6.144 20.48 15.019 41.643 15.019s33.451-8.875 41.643-15.019c6.827-5.461 11.605-8.192 21.845-8.192s15.019 3.413 21.845 8.192c8.875 6.144 20.48 15.019 41.643 15.019s33.451-8.875 41.643-15.019c6.827-5.461 11.605-8.192 21.845-8.192s15.019 3.413 21.845 8.192c8.875 6.144 20.48 15.019 41.643 15.019s33.451-8.875 41.643-15.019c6.827-5.461 11.605-8.192 21.845-8.192 9.557-0.683 17.067-7.509 17.067-17.067zM833.878 152.747c0-9.557-8.192-17.067-17.067-17.067-21.163 0-33.451 8.875-41.643 15.019-6.827 5.461-11.605 8.192-21.845 8.192s-15.019-3.413-21.845-8.192c-8.875-6.144-20.48-15.019-41.643-15.019s-33.451 8.875-41.643 15.019c-6.827 5.461-11.605 8.192-21.845 8.192s-15.019-3.413-21.845-8.192c-8.875-6.144-20.48-15.019-41.643-15.019s-33.451 8.875-41.643 15.019c-6.827 5.461-11.605 8.192-21.845 8.192s-15.019-3.413-21.845-8.192c-8.875-6.144-20.48-15.019-41.643-15.019-9.557 0-17.067 7.509-17.067 17.067s7.509 17.067 17.067 17.067c10.24 0 15.019 3.413 21.845 8.192 8.875 6.144 20.48 15.019 41.643 15.019s33.451-8.875 41.643-15.019c6.827-5.461 11.605-8.192 21.845-8.192s15.019 3.413 21.845 8.192c8.875 6.144 20.48 15.019 41.643 15.019s33.451-8.875 41.643-15.019c6.827-5.461 11.605-8.192 21.845-8.192s15.019 3.413 21.845 8.192c8.875 6.144 20.48 15.019 41.643 15.019s33.451-8.875 41.643-15.019c6.827-5.461 11.605-8.192 21.845-8.192 9.557 0 17.067-7.509 17.067-17.067zM833.878 55.808c0-9.557-8.192-17.067-17.067-17.067-21.163 0-33.451 8.875-41.643 15.019-6.827 5.461-11.605 8.192-21.845 8.192s-15.019-3.413-21.845-8.192c-8.875-6.144-20.48-15.019-41.643-15.019s-33.451 8.875-41.643 15.019c-6.827 5.461-11.605 8.192-21.845 8.192s-15.019-3.413-21.845-8.192c-8.875-6.144-20.48-15.019-41.643-15.019s-33.451 8.875-41.643 15.019c-6.827 5.461-11.605 8.192-21.845 8.192s-15.019-3.413-21.845-8.192c-8.875-6.144-20.48-15.019-41.643-15.019-9.557 0-17.067 7.509-17.067 17.067s7.509 17.067 17.067 17.067c10.24 0 15.019 3.413 21.845 8.192 8.875 6.144 20.48 15.019 41.643 15.019s33.451-8.875 41.643-15.019c6.827-5.461 11.605-8.192 21.845-8.192s15.019 3.413 21.845 8.192c8.875 6.144 20.48 15.019 41.643 15.019s33.451-8.875 41.643-15.019c6.827-5.461 11.605-8.192 21.845-8.192s15.019 3.413 21.845 8.192c8.875 6.144 20.48 15.019 41.643 15.019s33.451-8.875 41.643-15.019c6.827-5.461 11.605-8.192 21.845-8.192 9.557 0 17.067-7.509 17.067-17.067zM595.627 726.187c0 16.384 12.971 29.355 29.355 29.355s29.355-12.971 29.355-29.355-12.971-29.355-29.355-29.355c-16.384 0-29.355 12.971-29.355 29.355z" />
<glyph unicode="&#xe910;" glyph-name="cpu" data-tags="cpu" d="M948.225 756.224v-872.448h-872.448v872.448h872.448zM1016.491 824.491h-1008.981v-1008.981h1008.981v1008.981zM188.417-39.765c0-13.95-11.309-25.259-25.259-25.259s-25.259 11.309-25.259 25.259c0 13.95 11.309 25.259 25.259 25.259s25.259-11.309 25.259-25.259zM188.417 62.635c0-13.95-11.309-25.259-25.259-25.259s-25.259 11.309-25.259 25.259c0 13.95 11.309 25.259 25.259 25.259s25.259-11.309 25.259-25.259zM188.417 165.718c0-13.95-11.309-25.259-25.259-25.259s-25.259 11.309-25.259 25.259c0 13.95 11.309 25.259 25.259 25.259s25.259-11.309 25.259-25.259zM188.417 268.118c0-13.95-11.309-25.259-25.259-25.259s-25.259 11.309-25.259 25.259c0 13.95 11.309 25.259 25.259 25.259s25.259-11.309 25.259-25.259zM188.417 370.518c0-13.95-11.309-25.259-25.259-25.259s-25.259 11.309-25.259 25.259c0 13.95 11.309 25.259 25.259 25.259s25.259-11.309 25.259-25.259zM188.417 472.918c0-13.95-11.309-25.259-25.259-25.259s-25.259 11.309-25.259 25.259c0 13.95 11.309 25.259 25.259 25.259s25.259-11.309 25.259-25.259zM188.417 576c0-13.95-11.309-25.259-25.259-25.259s-25.259 11.309-25.259 25.259c0 13.95 11.309 25.259 25.259 25.259s25.259-11.309 25.259-25.259zM188.417 678.4c0-13.95-11.309-25.259-25.259-25.259s-25.259 11.309-25.259 25.259c0 13.95 11.309 25.259 25.259 25.259s25.259-11.309 25.259-25.259zM288.769-39.765c0-13.95-11.309-25.259-25.259-25.259s-25.259 11.309-25.259 25.259c0 13.95 11.309 25.259 25.259 25.259s25.259-11.309 25.259-25.259zM288.769 62.635c0-13.95-11.309-25.259-25.259-25.259s-25.259 11.309-25.259 25.259c0 13.95 11.309 25.259 25.259 25.259s25.259-11.309 25.259-25.259zM288.769 165.718c0-13.95-11.309-25.259-25.259-25.259s-25.259 11.309-25.259 25.259c0 13.95 11.309 25.259 25.259 25.259s25.259-11.309 25.259-25.259zM288.769 268.118c0-13.95-11.309-25.259-25.259-25.259s-25.259 11.309-25.259 25.259c0 13.95 11.309 25.259 25.259 25.259s25.259-11.309 25.259-25.259zM288.769 370.518c0-13.95-11.309-25.259-25.259-25.259s-25.259 11.309-25.259 25.259c0 13.95 11.309 25.259 25.259 25.259s25.259-11.309 25.259-25.259zM288.769 472.918c0-13.95-11.309-25.259-25.259-25.259s-25.259 11.309-25.259 25.259c0 13.95 11.309 25.259 25.259 25.259s25.259-11.309 25.259-25.259zM288.769 576c0-13.95-11.309-25.259-25.259-25.259s-25.259 11.309-25.259 25.259c0 13.95 11.309 25.259 25.259 25.259s25.259-11.309 25.259-25.259zM288.769 678.4c0-13.95-11.309-25.259-25.259-25.259s-25.259 11.309-25.259 25.259c0 13.95 11.309 25.259 25.259 25.259s25.259-11.309 25.259-25.259zM389.121-39.765c0-13.95-11.309-25.259-25.259-25.259s-25.259 11.309-25.259 25.259c0 13.95 11.309 25.259 25.259 25.259s25.259-11.309 25.259-25.259zM389.121 62.635c0-13.95-11.309-25.259-25.259-25.259s-25.259 11.309-25.259 25.259c0 13.95 11.309 25.259 25.259 25.259s25.259-11.309 25.259-25.259zM389.121 576c0-13.95-11.309-25.259-25.259-25.259s-25.259 11.309-25.259 25.259c0 13.95 11.309 25.259 25.259 25.259s25.259-11.309 25.259-25.259zM389.121 678.4c0-13.95-11.309-25.259-25.259-25.259s-25.259 11.309-25.259 25.259c0 13.95 11.309 25.259 25.259 25.259s25.259-11.309 25.259-25.259zM489.473-39.765c0-13.95-11.309-25.259-25.259-25.259s-25.259 11.309-25.259 25.259c0 13.95 11.309 25.259 25.259 25.259s25.259-11.309 25.259-25.259zM489.473 62.635c0-13.95-11.309-25.259-25.259-25.259s-25.259 11.309-25.259 25.259c0 13.95 11.309 25.259 25.259 25.259s25.259-11.309 25.259-25.259zM489.473 576c0-13.95-11.309-25.259-25.259-25.259s-25.259 11.309-25.259 25.259c0 13.95 11.309 25.259 25.259 25.259s25.259-11.309 25.259-25.259zM489.473 678.4c0-13.95-11.309-25.259-25.259-25.259s-25.259 11.309-25.259 25.259c0 13.95 11.309 25.259 25.259 25.259s25.259-11.309 25.259-25.259zM589.825-39.765c0-13.95-11.309-25.259-25.259-25.259s-25.259 11.309-25.259 25.259c0 13.95 11.309 25.259 25.259 25.259s25.259-11.309 25.259-25.259zM589.825 62.635c0-13.95-11.309-25.259-25.259-25.259s-25.259 11.309-25.259 25.259c0 13.95 11.309 25.259 25.259 25.259s25.259-11.309 25.259-25.259zM589.825 576c0-13.95-11.309-25.259-25.259-25.259s-25.259 11.309-25.259 25.259c0 13.95 11.309 25.259 25.259 25.259s25.259-11.309 25.259-25.259zM589.825 678.4c0-13.95-11.309-25.259-25.259-25.259s-25.259 11.309-25.259 25.259c0 13.95 11.309 25.259 25.259 25.259s25.259-11.309 25.259-25.259zM690.177-39.765c0-13.95-11.309-25.259-25.259-25.259s-25.259 11.309-25.259 25.259c0 13.95 11.309 25.259 25.259 25.259s25.259-11.309 25.259-25.259zM690.177 62.635c0-13.95-11.309-25.259-25.259-25.259s-25.259 11.309-25.259 25.259c0 13.95 11.309 25.259 25.259 25.259s25.259-11.309 25.259-25.259zM690.177 576c0-13.95-11.309-25.259-25.259-25.259s-25.259 11.309-25.259 25.259c0 13.95 11.309 25.259 25.259 25.259s25.259-11.309 25.259-25.259zM690.177 678.4c0-13.95-11.309-25.259-25.259-25.259s-25.259 11.309-25.259 25.259c0 13.95 11.309 25.259 25.259 25.259s25.259-11.309 25.259-25.259zM790.529-39.765c0-13.95-11.309-25.259-25.259-25.259s-25.259 11.309-25.259 25.259c0 13.95 11.309 25.259 25.259 25.259s25.259-11.309 25.259-25.259zM790.529 62.635c0-13.95-11.309-25.259-25.259-25.259s-25.259 11.309-25.259 25.259c0 13.95 11.309 25.259 25.259 25.259s25.259-11.309 25.259-25.259zM790.529 165.718c0-13.95-11.309-25.259-25.259-25.259s-25.259 11.309-25.259 25.259c0 13.95 11.309 25.259 25.259 25.259s25.259-11.309 25.259-25.259zM790.529 268.118c0-13.95-11.309-25.259-25.259-25.259s-25.259 11.309-25.259 25.259c0 13.95 11.309 25.259 25.259 25.259s25.259-11.309 25.259-25.259zM790.529 370.518c0-13.95-11.309-25.259-25.259-25.259s-25.259 11.309-25.259 25.259c0 13.95 11.309 25.259 25.259 25.259s25.259-11.309 25.259-25.259zM790.529 472.918c0-13.95-11.309-25.259-25.259-25.259s-25.259 11.309-25.259 25.259c0 13.95 11.309 25.259 25.259 25.259s25.259-11.309 25.259-25.259zM790.529 576c0-13.95-11.309-25.259-25.259-25.259s-25.259 11.309-25.259 25.259c0 13.95 11.309 25.259 25.259 25.259s25.259-11.309 25.259-25.259zM790.529 678.4c0-13.95-11.309-25.259-25.259-25.259s-25.259 11.309-25.259 25.259c0 13.95 11.309 25.259 25.259 25.259s25.259-11.309 25.259-25.259zM890.881-39.765c0-13.95-11.309-25.259-25.259-25.259s-25.259 11.309-25.259 25.259c0 13.95 11.309 25.259 25.259 25.259s25.259-11.309 25.259-25.259zM890.881 62.635c0-13.95-11.309-25.259-25.259-25.259s-25.259 11.309-25.259 25.259c0 13.95 11.309 25.259 25.259 25.259s25.259-11.309 25.259-25.259zM890.881 165.718c0-13.95-11.309-25.259-25.259-25.259s-25.259 11.309-25.259 25.259c0 13.95 11.309 25.259 25.259 25.259s25.259-11.309 25.259-25.259zM890.881 268.118c0-13.95-11.309-25.259-25.259-25.259s-25.259 11.309-25.259 25.259c0 13.95 11.309 25.259 25.259 25.259s25.259-11.309 25.259-25.259zM890.881 370.518c0-13.95-11.309-25.259-25.259-25.259s-25.259 11.309-25.259 25.259c0 13.95 11.309 25.259 25.259 25.259s25.259-11.309 25.259-25.259zM890.881 472.918c0-13.95-11.309-25.259-25.259-25.259s-25.259 11.309-25.259 25.259c0 13.95 11.309 25.259 25.259 25.259s25.259-11.309 25.259-25.259zM890.881 576c0-13.95-11.309-25.259-25.259-25.259s-25.259 11.309-25.259 25.259c0 13.95 11.309 25.259 25.259 25.259s25.259-11.309 25.259-25.259zM890.881 678.4c0-13.95-11.309-25.259-25.259-25.259s-25.259 11.309-25.259 25.259c0 13.95 11.309 25.259 25.259 25.259s25.259-11.309 25.259-25.259zM318.806 505.686h78.507v-78.507h-78.507v78.507zM318.806 406.016h78.507v-78.507h-78.507v78.507zM318.806 305.664h78.507v-86.016h-78.507v86.016zM318.806 198.486h78.507v-78.507h-78.507v78.507zM425.985 505.686h78.507v-78.507h-78.507v78.507zM425.985 406.016h78.507v-78.507h-78.507v78.507zM425.985 305.664h78.507v-86.016h-78.507v86.016zM425.985 198.486h78.507v-78.507h-78.507v78.507zM526.337 505.686h86.016v-78.507h-86.016v78.507zM526.337 406.016h86.016v-78.507h-86.016v78.507zM526.337 305.664h86.016v-86.016h-86.016v86.016zM526.337 198.486h86.016v-78.507h-86.016v78.507zM633.515 505.686h78.507v-78.507h-78.507v78.507zM633.515 406.016h78.507v-78.507h-78.507v78.507zM633.515 305.664h78.507v-86.016h-78.507v86.016zM633.515 198.486h78.507v-78.507h-78.507v78.507z" />
<glyph unicode="&#xe911;" glyph-name="database" data-tags="database" d="M516.779 107.008c-34.133 0-67.584 0.683-101.035 2.731-109.909 5.461-225.28 13.653-326.315 50.517l18.432 51.2c94.208-34.133 204.8-42.325 310.613-47.104 106.496-5.461 216.405-2.048 326.315 10.24 49.152 5.461 112.64 13.653 172.715 33.451l16.384-51.883c-64.853-21.163-132.437-30.037-183.637-35.499-77.824-9.557-156.331-13.653-233.472-13.653zM516.779 407.381c-34.133 0-67.584 0.683-101.035 2.731-109.909 5.461-225.28 13.653-326.315 50.517l18.432 51.2c94.208-34.133 204.8-42.325 310.613-47.104 106.496-5.461 216.405-2.048 326.315 10.24 49.152 5.461 112.64 13.653 172.715 33.451l16.384-51.883c-64.853-21.163-132.437-30.037-183.637-35.499-77.824-9.557-156.331-13.653-233.472-13.653zM527.019 12.117c-161.109 0-312.661 16.384-406.187 43.691l13.653 45.739c89.429-25.941 236.203-41.643 393.216-41.643 148.139 0 289.451 14.336 379.563 38.229l12.288-46.421c-95.573-25.259-238.251-39.595-392.533-39.595zM527.019 312.491c-161.109 0-312.661 16.384-406.187 43.691l13.653 45.739c89.429-25.941 236.203-41.643 393.216-41.643 148.139 0 289.451 14.336 379.563 38.229l12.288-46.421c-95.573-25.259-238.251-39.595-392.533-39.595zM527.019 624.469c-161.109 0-312.661 16.384-406.187 43.691l13.653 45.739c89.429-25.941 236.203-41.643 393.216-41.643 148.139 0 289.451 14.336 379.563 38.229l12.288-46.421c-95.573-25.259-238.251-39.595-392.533-39.595zM866.304 586.923c0-19.605-15.893-35.499-35.499-35.499s-35.499 15.893-35.499 35.499c0 19.605 15.893 35.499 35.499 35.499s35.499-15.893 35.499-35.499zM866.304 286.549c0-19.605-15.893-35.499-35.499-35.499s-35.499 15.893-35.499 35.499c0 19.605 15.893 35.499 35.499 35.499s35.499-15.893 35.499-35.499zM866.304-26.795c0-19.605-15.893-35.499-35.499-35.499s-35.499 15.893-35.499 35.499c0 19.605 15.893 35.499 35.499 35.499s35.499-15.893 35.499-35.499zM513.366 757.589c106.496 0 209.579-7.509 290.816-21.163 73.728-12.288 109.227-25.941 124.245-34.133v-164.523c-2.048-0.683-4.096-2.048-6.827-3.413l-142.677-62.805 142.677-62.805c2.731-1.365 5.461-2.048 6.827-3.413v-164.523c-2.731-1.365-6.144-2.731-10.24-4.779l-151.552-62.805 152.235-62.805c4.096-2.048 7.509-3.413 10.24-4.779v-169.301c-15.019-7.509-49.835-21.163-124.245-34.133-81.237-13.653-184.32-21.163-290.816-21.163s-210.261 7.509-292.181 21.163c-74.411 12.288-109.227 25.941-124.928 34.133l1.365 168.619c2.731 1.365 6.144 2.731 10.923 4.779l153.6 64.171-154.283 62.805c-4.779 2.048-8.875 3.413-11.605 5.461l1.365 163.84c2.048 0.683 4.096 2.048 6.827 3.413l144.725 63.488-145.408 62.123c-3.413 1.365-6.144 2.731-8.875 4.096l0.683 163.84c15.019 7.509 50.517 21.163 124.928 34.133 81.92 12.971 185.685 20.48 292.181 20.48zM513.366 825.856c-269.653 0-485.376-45.739-485.376-102.4l-0.683-206.165c0-16.384 18.432-31.403 50.517-45.056-30.72-13.653-47.787-28.672-47.787-44.373l-1.365-206.848c0-17.067 19.797-32.768 54.613-47.104-33.451-13.653-52.565-30.037-52.565-46.421l-2.048-210.944c0-56.661 215.040-102.4 484.693-102.4s483.328 45.739 483.328 102.4v210.944c0 17.067-18.432 32.768-52.565 47.104 33.451 13.653 52.565 30.037 52.565 46.421v206.165c0 16.384-17.067 31.403-47.787 45.056 30.72 13.653 47.787 28.672 47.787 44.373v206.848c0 56.661-212.992 102.4-483.328 102.4v0z" />
<glyph unicode="&#xe912;" glyph-name="dot-circlefill" data-tags="circle-dots" d="M1021.952 318.635c0 18.432-1.365 36.864-2.731 54.613-0.683-0.683-1.365-0.683-1.365-1.365-25.259 237.568-212.992 426.667-449.877 452.608 0 0 0 0 0.683 0.683-18.432 2.048-36.864 2.731-55.296 2.731-0.683 0-0.683 0-1.365 0 0 0-0.683 0-0.683 0-1.365 0-2.731 0-4.779 0-3.413 0-6.827 0-10.24 0-275.115-7.509-494.933-232.789-494.933-509.269 0-281.259 228.011-509.952 509.952-509.952 262.827 0 479.232 198.656 507.221 454.656 0 0 0.683-0.683 0.683-0.683 1.365 17.749 2.731 36.864 2.731 55.979zM946.176 244.224c-7.509 3.413-16.384 5.461-24.576 5.461-40.96 0-68.267-30.72-68.267-68.267 0-31.403 19.115-58.027 49.835-66.219-14.336-27.307-30.72-52.565-49.835-76.459 0 2.048 0 4.096 0 6.144 0 34.133-30.72 68.267-68.267 68.267s-68.267-34.133-68.267-68.267c0-40.96 30.72-68.267 68.267-68.267 2.048 0 4.779 0 6.827 0-23.893-19.797-49.835-36.864-77.824-51.883-8.875 29.355-36.864 50.517-65.536 50.517-40.96 0-68.267-30.72-68.267-68.267 0-8.875 1.365-17.749 4.779-25.941-23.893-4.096-49.152-6.144-74.411-6.144-24.576 0-49.152 2.048-72.363 6.144 3.413 8.192 5.461 17.067 5.461 25.941 0 37.547-34.133 68.267-68.267 68.267-34.816 0-59.392-21.845-66.219-51.883-28.672 15.019-55.979 32.768-80.555 53.248 3.413-0.683 6.827-0.683 10.24-0.683 37.547 0 68.267 27.307 68.267 68.267 0 34.133-30.72 68.267-68.267 68.267s-68.267-34.133-68.267-68.267c0-3.413 0-6.827 0.683-10.24-20.48 24.576-38.229 51.2-53.248 79.872 27.989 7.509 52.565 34.133 52.565 66.219 0 37.547-34.133 68.267-68.267 68.267-10.24 0-19.115-2.048-27.307-5.461-4.096 23.893-6.144 48.469-6.144 73.728s2.048 49.835 6.144 73.728c8.192-3.413 17.067-5.461 27.307-5.461 34.133 0 68.267 30.72 68.267 68.267 0 31.403-24.576 58.709-52.565 66.219 15.019 28.672 32.768 55.296 53.248 79.872-0.683-2.731-0.683-6.144-0.683-8.875 0-40.96 30.72-68.267 68.267-68.267s68.267 27.307 68.267 68.267c0 34.133-30.72 68.267-68.267 68.267-2.731 0-5.461 0-8.192-0.683 23.893 19.797 50.517 36.864 78.507 51.2 6.827-29.355 31.403-51.883 66.219-51.883 34.133 0 68.267 30.72 68.267 68.267 0 8.875-2.048 17.749-5.461 25.941 23.893 4.096 47.787 6.144 72.363 6.144 25.259 0 49.835-2.048 74.411-6.144-2.731-8.192-4.779-16.384-4.779-25.941 0-37.547 27.307-68.267 68.267-68.267 28.672 0 57.344 21.845 65.536 50.517 27.307-14.336 52.565-30.72 76.459-49.835-2.048 0-3.413 0-5.461 0-37.547 0-68.267-34.133-68.267-68.267 0-40.96 30.72-68.267 68.267-68.267s68.267 27.307 68.267 68.267c0 1.365 0 3.413 0 4.779 19.115-23.211 36.181-49.152 49.835-76.459-30.72-7.509-49.835-34.133-49.835-66.219 0-37.547 27.307-68.267 68.267-68.267 8.192 0 16.384 2.048 24.576 5.461 4.096-23.893 6.144-48.469 6.144-73.728s-2.048-47.104-6.144-70.997zM580.267 45.568c0-40.96-30.72-68.267-68.267-68.267s-68.267 27.307-68.267 68.267c0 34.133 30.72 68.267 68.267 68.267s68.267-34.133 68.267-68.267zM580.267 318.635c0-40.96-30.72-68.267-68.267-68.267s-68.267 27.307-68.267 68.267c0 34.133 30.72 68.267 68.267 68.267s68.267-34.133 68.267-68.267zM443.733 591.701c0 34.133 30.72 68.267 68.267 68.267s68.267-34.133 68.267-68.267c0-40.96-30.72-68.267-68.267-68.267s-68.267 27.307-68.267 68.267zM307.2 318.635c0-40.96-30.72-68.267-68.267-68.267s-68.267 27.307-68.267 68.267c0 34.133 30.72 68.267 68.267 68.267s68.267-34.133 68.267-68.267zM853.333 318.635c0-40.96-30.72-68.267-68.267-68.267s-68.267 27.307-68.267 68.267c0 34.133 30.72 68.267 68.267 68.267s68.267-34.133 68.267-68.267zM307.2 454.485c0 37.547 27.307 68.267 68.267 68.267 34.133 0 68.267-30.72 68.267-68.267s-34.133-68.267-68.267-68.267c-40.96 0-68.267 30.72-68.267 68.267zM443.733 181.419c0-37.547-34.133-68.267-68.267-68.267-40.96 0-68.267 30.72-68.267 68.267s27.307 68.267 68.267 68.267c34.133 0 68.267-30.72 68.267-68.267zM716.8 181.419c0-37.547-34.133-68.267-68.267-68.267-40.96 0-68.267 30.72-68.267 68.267s27.307 68.267 68.267 68.267c34.133 0 68.267-30.72 68.267-68.267zM580.267 454.485c0 37.547 27.307 68.267 68.267 68.267 34.133 0 68.267-30.72 68.267-68.267s-34.133-68.267-68.267-68.267c-40.96 0-68.267 30.72-68.267 68.267z" />
<glyph unicode="&#xe913;" glyph-name="dot-diagonalfill" data-tags="circle-diagonal" d="M1019.221 318.635c0 0 0 0.683 0 0.683-0.683 92.16-25.259 178.176-68.267 252.587v0c-0.683 0.683-0.683 1.365-1.365 2.048-24.576 42.325-55.979 81.237-91.477 114.688-1.365 1.365-2.048 2.048-3.413 3.413v0c-27.989 25.259-58.027 47.787-90.795 66.901-0.683 0-0.683 0.683-1.365 0.683v0c-22.528 12.971-47.104 24.576-71.68 34.133v0c-1.365 0.683-3.413 1.365-4.779 2.048s-2.731 0.683-4.096 1.365c-10.923 4.096-22.528 8.192-34.133 10.923v0c-27.307 7.509-55.296 12.971-83.968 16.384v0c-18.432 2.048-36.181 2.731-54.613 2.731v0c0 0-0.683 0-0.683 0-40.277 0-79.872-4.779-117.419-13.653v0c-0.683 0-2.048-0.683-2.731-0.683-21.163-5.461-42.325-11.605-62.805-19.797-6.827-2.731-14.336-5.461-21.163-8.192l-0.683-0.683c-116.736-51.2-210.261-144.725-261.461-261.461l-0.683-0.683c-10.24-23.893-19.115-47.787-25.259-73.045-0.683-2.731-1.365-5.461-2.048-8.875-0.683-1.365-0.683-3.413-1.365-4.779v0c-8.875-37.547-13.653-77.141-13.653-117.419 0 0 0-0.683 0-0.683v0c0-6.827 0-13.653 0.683-20.48 0-3.413 0-6.827 0.683-10.24 0.683-8.192 1.365-16.384 1.365-23.893v0c3.413-28.672 8.875-56.661 16.384-83.968v0c4.096-15.019 8.875-29.355 14.336-43.008v0c9.557-24.576 21.163-49.152 34.133-71.68v0c5.461-10.24 11.605-19.115 17.749-28.672 0.683-1.365 2.048-2.731 2.731-4.096 0.683-0.683 1.365-2.048 2.048-2.731v0c13.653-19.797 28.672-38.912 45.056-56.661v0c9.557-10.24 19.115-19.797 28.672-28.672v0c17.749-16.384 36.864-31.403 56.661-45.056v0c0.683-0.683 1.365-0.683 2.048-1.365 1.365-0.683 2.731-2.048 4.096-2.731 4.779-3.413 9.557-6.144 14.336-8.875 2.731-2.048 5.461-3.413 8.875-5.461 2.048-1.365 4.779-2.731 6.827-4.096v0c74.411-43.008 161.109-67.584 253.952-67.584 40.277 0 79.872 4.779 117.419 13.653v0c1.365 0 2.731 0.683 3.413 0.683 4.096 0.683 8.192 2.048 12.288 3.413s8.192 2.048 12.288 3.413c4.096 1.365 8.192 2.731 12.288 4.096 2.731 0.683 5.461 2.048 8.192 2.731 4.779 2.048 9.557 3.413 15.019 5.461 7.509 2.731 15.701 6.144 23.211 8.875l0.683 0.683c178.859 78.507 304.469 258.048 304.469 467.627 0-0.683 0 0 0 0v0zM508.587-124.416c-28.672 0-56.661 2.731-83.285 8.192l517.461 517.461c5.461-27.307 8.192-54.613 8.192-83.285 0-3.413 0-6.827 0-10.24l-430.763-430.763c-4.779-1.365-8.192-1.365-11.605-1.365zM145.408 567.808l114.005 114.005c51.883 35.499 111.275 60.757 176.128 71.68l-361.131-361.131c10.24 64.171 34.816 123.563 70.997 175.445zM67.584 317.952c0 3.413 0 6.827 0 10.24l430.080 430.080c3.413 0 6.827 0 10.24 0 27.989 0 55.296-2.731 82.603-7.509l-515.413-515.413c-4.779 26.624-7.509 54.613-7.509 82.603zM86.699 189.611l550.229 550.229c25.941-8.192 51.2-18.432 75.093-30.72l-594.603-594.603c-12.288 23.893-23.211 48.469-30.72 75.093zM138.581 77.653l610.304 610.304c20.48-12.971 39.595-27.989 57.344-44.373l-623.275-623.275c-16.384 17.749-31.403 36.864-44.373 57.344zM211.627-8.363l623.275 623.275c16.384-17.749 30.72-36.864 44.373-57.344l-610.304-610.304c-20.48 12.971-39.595 27.989-57.344 44.373zM900.437 521.387c12.288-23.893 22.528-48.469 30.72-74.411l-551.595-551.595c-25.941 8.192-50.517 18.432-73.728 30.72l594.603 595.285zM874.496 69.461l-117.419-117.419c-51.2-34.816-110.592-59.392-174.763-70.315l361.813 361.813c-10.923-63.488-34.816-122.88-69.632-174.080z" />
<glyph unicode="&#xe914;" glyph-name="download" data-tags="download" d="M993.962-192h-963.925v335.872h136.533v-199.339h690.859v199.339h136.533zM507.904 33.28l-315.392 315.392 96.256 96.939 219.136-219.136 219.136 219.136 96.256-96.939zM432.128 832h136.533v-701.099h-136.533v701.099z" />
<glyph unicode="&#xe915;" glyph-name="edit" data-tags="edit" d="M524.63 523.093l124.245-82.603-306.517-458.752-131.072-62.123 6.827 144.725 306.517 458.752zM505.515 617.984l-37.547-56.661-306.517-458.752-10.24-15.701-0.683-19.115-6.827-144.725-5.461-114.005 102.4 49.152 148.139 70.315 10.24 15.701 306.517 458.752 38.229 56.661-57.344 37.547-124.245 83.285-56.661 37.547zM691.883 762.709c0.683 0 1.365 0 2.048-0.683l112.64-75.093c2.048-1.365 2.048-4.096 0.683-6.144l-73.728-111.275-119.467 79.872 73.728 111.275c1.365 1.365 2.731 2.048 4.096 2.048zM691.883 830.976c-24.576 0-47.104-12.288-60.757-32.768l-111.275-167.936 56.661-37.547 118.784-79.872 56.661-37.547 111.275 167.936c22.528 33.451 13.653 78.507-19.797 100.352l-112.64 75.093c-10.923 8.192-24.576 12.288-38.912 12.288v0zM553.86 525.072l28.314-19.067-321.849-477.934-28.314 19.067 321.849 477.934zM608.648 484.33l28.314-19.067-321.849-477.934-28.314 19.067 321.849 477.934zM227.098 78.999l123.998-82.283-18.872-28.44-123.998 82.283 18.872 28.44z" />
<glyph unicode="&#xe916;" glyph-name="ellipsis" data-tags="ellipsis" d="M131.072 450.389c-71.68 0-130.389-58.027-130.389-130.389s58.709-130.389 130.389-130.389c72.363 0 130.389 58.709 130.389 130.389 0 72.363-58.027 130.389-130.389 130.389v0zM512 450.389c-71.68 0-130.389-58.027-130.389-130.389s58.709-130.389 130.389-130.389c72.363 0 130.389 58.709 130.389 130.389 0 72.363-58.027 130.389-130.389 130.389v0zM892.928 450.389c-72.363 0-130.389-58.709-130.389-130.389 0-72.363 58.709-130.389 130.389-130.389 72.363 0 130.389 58.709 130.389 130.389 0 72.363-58.709 130.389-130.389 130.389v0z" />
<glyph unicode="&#xe917;" glyph-name="external-link" data-tags="external-link" d="M446.805 420.090c6.144 0 12.288-2.048 17.067-6.827l159.744-159.744c9.557-9.557 9.557-24.576 0-34.133l-6.827-6.827c-4.779-4.779-10.923-6.827-17.067-6.827s-12.288 2.048-17.067 6.827l-159.744 159.061c-9.557 9.557-9.557 24.576 0 34.133l6.827 6.827c4.779 4.779 10.923 7.509 17.067 7.509zM446.805 488.356c-24.576 0-47.787-9.557-65.536-27.307l-6.827-6.827c-36.181-36.181-36.181-94.891 0-131.072l159.744-159.744c17.749-17.749 40.96-27.307 65.536-27.307s47.787 9.557 65.536 27.307l6.827 6.827c36.181 36.181 36.181 94.891 0 131.072l-159.744 159.744c-17.749 17.067-40.96 27.307-65.536 27.307v0zM815.445-190.897c-56.661 0-109.909 21.845-149.504 61.44l-166.571 166.571c-67.584 67.584-81.237 172.715-33.451 256l58.709-34.133c-32.768-55.979-23.211-127.659 22.528-173.397l166.571-166.571c26.624-26.624 62.805-41.643 101.035-41.643 0 0 0 0 0 0 38.229 0 74.411 15.019 101.035 41.643s41.643 62.805 41.643 101.035c0 38.229-14.336 74.411-41.643 101.035l-166.571 166.571c-45.739 45.739-117.419 55.296-173.397 21.845l-34.133 58.709c83.285 48.469 188.416 34.816 256.683-32.768l166.571-166.571c39.595-39.595 61.44-92.843 61.44-149.504s-21.845-109.909-62.123-149.504c-39.595-38.912-92.843-60.757-148.821-60.757 0 0 0 0 0 0zM815.445-93.958c-29.355 0-58.709 10.923-80.555 33.451l-167.253 166.571c-29.355 29.355-40.96 73.045-28.672 113.323l65.536-19.115c-4.779-16.384 0-33.451 11.605-45.739l166.571-166.571c17.749-17.749 47.104-17.749 64.853 0s18.432 47.104 0 65.536l-166.571 165.888c-12.288 12.288-30.037 16.384-46.421 10.923l-21.163 64.853c40.96 12.971 85.333 2.731 116.053-27.989l166.571-166.571c21.845-21.845 33.451-50.517 33.451-81.237s-12.288-59.392-33.451-80.555c-22.528-21.845-51.883-32.768-80.555-32.768zM396.287 227.578c-54.613 0-108.544 21.163-149.504 62.123l-166.571 166.571c-82.603 82.603-82.603 216.405 0 299.008 81.92 82.603 216.405 82.603 299.008 0l166.571-166.571c68.949-68.949 81.237-179.541 28.672-262.827l-57.344 36.864c35.499 55.979 27.307 131.072-19.115 178.176l-167.253 165.888c-55.979 55.979-146.773 55.979-202.752 0s-55.296-146.091 0-202.069l167.253-166.571c46.421-46.421 120.149-55.296 176.128-20.48l35.499-58.027c-34.816-21.845-73.045-32.085-110.592-32.085zM396.287 325.199c-30.037 0-59.392 11.605-80.555 33.451l-167.253 166.571c-44.373 44.373-44.373 116.736 0 161.109 21.845 21.845 50.517 33.451 80.555 33.451 0 0 0 0 0 0 30.72 0 59.392-11.605 80.555-33.451l166.571-166.571c26.624-26.624 38.912-65.536 31.403-103.083l-66.901 12.971c2.731 15.019-2.048 30.72-12.288 41.643l-166.571 167.253c-8.875 8.875-20.48 13.653-32.768 13.653 0 0 0 0 0 0-12.288 0-23.893-4.779-32.768-13.653-17.749-17.749-17.749-47.104 0-64.853l167.253-167.253c10.923-10.923 25.941-15.701 41.643-12.971l12.971-66.901c-7.509-0.683-15.019-1.365-21.845-1.365zM1022.293 461.050h-68.267v279.893h-279.893v68.267h348.16zM962.281 797.099l48.271-48.271-290.111-290.111-48.271 48.271 290.111 290.111zM301.966 137.119l48.271-48.271-286.732-286.732-48.271 48.271 286.732 286.732z" />
<glyph unicode="&#xe918;" glyph-name="face-frown" data-tags="face-frown" d="M512 763.734c244.395 0 443.733-199.339 443.733-443.733s-199.339-443.733-443.733-443.733-443.733 199.339-443.733 443.733 199.339 443.733 443.733 443.733zM512 832c-282.624 0-512-229.376-512-512s229.376-512 512-512 512 229.376 512 512-228.693 512-512 512v0zM258.73 76.288l-55.979 38.912c68.267 99.669 184.32 159.061 310.613 159.061 0 0 0.683 0 0.683 0 125.611 0 241.664-59.392 309.248-159.061l-56.661-38.229c-55.296 80.555-150.187 129.024-253.269 129.024-103.765 0-199.339-48.469-254.635-129.707zM361.13 353.451c0-18.851-15.282-34.133-34.133-34.133s-34.133 15.282-34.133 34.133c0 18.851 15.282 34.133 34.133 34.133s34.133-15.282 34.133-34.133zM729.77 353.451c0-18.851-15.282-34.133-34.133-34.133s-34.133 15.282-34.133 34.133c0 18.851 15.282 34.133 34.133 34.133s34.133-15.282 34.133-34.133z" />
<glyph unicode="&#xe919;" glyph-name="face-gasp" data-tags="face-gasp" d="M512 752.81c238.933 0 432.811-193.877 432.811-432.811s-193.877-432.811-432.811-432.811-432.811 194.56-432.811 432.811 193.877 432.811 432.811 432.811zM512 821.077c-277.163 0-501.077-223.915-501.077-501.077s224.597-501.077 501.077-501.077 501.077 224.597 501.077 501.077-224.597 501.077-501.077 501.077v0zM363.862 352.767c0-18.474-14.976-33.451-33.451-33.451s-33.451 14.976-33.451 33.451c0 18.474 14.976 33.451 33.451 33.451s33.451-14.976 33.451-33.451zM724.31 352.767c0-18.474-14.976-33.451-33.451-33.451s-33.451 14.976-33.451 33.451c0 18.474 14.976 33.451 33.451 33.451s33.451-14.976 33.451-33.451zM235.52 66.047l-27.989 53.248c66.901 97.621 180.907 156.331 305.152 156.331 0 0 0.683 0 0.683 0 123.563 0 236.885-58.709 303.104-156.331l-27.989-53.248h-552.96zM512.683 207.359c-75.776 0-146.773-26.624-200.704-73.045h400.725c-53.931 46.421-124.245 73.045-200.021 73.045 0 0 0 0 0 0z" />
<glyph unicode="&#xe91a;" glyph-name="face-meh" data-tags="face-meh" d="M512 742.57c232.789 0 422.571-189.781 422.571-422.571s-189.781-422.571-422.571-422.571-422.571 189.781-422.571 422.571 189.781 422.571 422.571 422.571zM512 810.837c-271.019 0-490.837-219.819-490.837-490.837s219.819-490.837 490.837-490.837 490.837 219.819 490.837 490.837-219.819 490.837-490.837 490.837v0zM367.275 352.085c0-18.097-14.671-32.768-32.768-32.768s-32.768 14.671-32.768 32.768c0 18.097 14.671 32.768 32.768 32.768s32.768-14.671 32.768-32.768zM720.213 352.085c0-18.097-14.671-32.768-32.768-32.768s-32.768 14.671-32.768 32.768c0 18.097 14.671 32.768 32.768 32.768s32.768-14.671 32.768-32.768zM245.76 135.679h532.48v-68.267h-532.48v68.267z" />
<glyph unicode="&#xe91b;" glyph-name="face-open-smile" data-tags="face-open-smile" d="M512 752.81c238.933 0 432.811-193.877 432.811-432.811s-193.877-432.811-432.811-432.811-432.811 194.56-432.811 432.811 194.56 432.811 432.811 432.811zM512 821.077c-276.48 0-501.077-223.915-501.077-501.077s224.597-501.077 501.077-501.077 501.077 224.597 501.077 501.077-223.915 501.077-501.077 501.077v0zM364.544 352.767c0-18.474-14.976-33.451-33.451-33.451s-33.451 14.976-33.451 33.451c0 18.474 14.976 33.451 33.451 33.451s33.451-14.976 33.451-33.451zM724.992 352.767c0-18.474-14.976-33.451-33.451-33.451s-33.451 14.976-33.451 33.451c0 18.474 14.976 33.451 33.451 33.451s33.451-14.976 33.451-33.451zM512 66.047c-0.683 0-0.683 0 0 0-124.245 0-236.885 58.709-303.787 156.331l27.989 53.248h552.277l27.989-53.248c-66.901-97.621-180.907-156.331-304.469-156.331zM311.979 207.359c53.248-46.421 124.245-73.045 199.339-73.045 75.776 0 147.456 26.624 201.387 73.045h-400.725z" />
<glyph unicode="&#xe91c;" glyph-name="face-smile" data-tags="face-smile" d="M512 763.734c245.077 0 443.733-199.339 443.733-443.733s-199.339-443.733-443.733-443.733-443.733 199.339-443.733 443.733 198.656 443.733 443.733 443.733zM512 832c-282.624 0-512-229.376-512-512s229.376-512 512-512 512 229.376 512 512-229.376 512-512 512v0zM512-55.466c-206.848 0-375.467 168.619-375.467 375.467h68.267c0-169.301 137.899-307.2 307.2-307.2s307.2 137.899 307.2 307.2h68.267c0-206.848-168.619-375.467-375.467-375.467zM360.448 353.451c0-18.851-15.282-34.133-34.133-34.133s-34.133 15.282-34.133 34.133c0 18.851 15.282 34.133 34.133 34.133s34.133-15.282 34.133-34.133zM729.088 353.451c0-18.851-15.282-34.133-34.133-34.133s-34.133 15.282-34.133 34.133c0 18.851 15.282 34.133 34.133 34.133s34.133-15.282 34.133-34.133z" />
<glyph unicode="&#xe91d;" glyph-name="file" data-tags="file" d="M897.706-188.587h-771.413v1017.173h507.904l263.509-262.144v-755.029zM194.56-120.321h634.88v658.773l-223.232 221.867h-411.648v-880.64zM849.92 535.039h-252.587v252.587h54.613v-197.973h197.973zM604.16 567.807c-27.307 0-42.325 10.923-53.931 19.115-10.24 7.509-17.749 12.971-34.133 12.971s-23.893-5.461-34.133-12.971c-11.605-8.875-26.624-19.115-53.931-19.115s-42.325 10.923-53.931 19.115c-10.24 7.509-17.749 12.971-34.133 12.971s-23.893-5.461-34.133-12.971c-11.605-8.875-26.624-19.115-53.931-19.115-9.557 0-17.067 7.509-17.067 17.067s7.509 17.067 17.067 17.067c16.384 0 23.893 5.461 34.133 12.971 11.605 8.875 26.624 19.115 53.931 19.115s42.325-10.923 53.931-19.115c10.24-7.509 17.749-12.971 34.133-12.971s23.893 5.461 34.133 12.971c11.605 8.875 26.624 19.115 53.931 19.115s42.325-10.923 53.931-19.115c10.24-7.509 17.749-12.971 34.133-12.971 9.557 0 17.067-7.509 17.067-17.067s-7.509-17.067-17.067-17.067zM780.288 459.263c-27.307 0-42.325 10.923-53.931 19.115-10.24 7.509-17.749 12.971-34.133 12.971s-23.893-5.461-34.133-12.971c-11.605-8.875-26.624-19.115-53.931-19.115s-42.325 10.923-53.931 19.115c-10.24 7.509-17.749 12.971-34.133 12.971s-23.893-5.461-34.133-12.971c-11.605-8.875-26.624-19.115-53.931-19.115s-42.325 10.923-53.931 19.115c-10.24 7.509-17.749 12.971-34.133 12.971s-23.893-5.461-34.133-12.971c-11.605-8.875-26.624-19.115-53.931-19.115-9.557 0-17.067 7.509-17.067 17.067s7.509 17.067 17.067 17.067c16.384 0 23.893 5.461 34.133 12.971 11.605 8.875 26.624 19.115 53.931 19.115s42.325-10.923 53.931-19.115c10.24-7.509 17.749-12.971 34.133-12.971s23.893 5.461 34.133 12.971c11.605 8.875 26.624 19.115 53.931 19.115s42.325-10.923 53.931-19.115c10.24-7.509 17.749-12.971 34.133-12.971s23.893 5.461 34.133 12.971c11.605 8.875 26.624 19.115 53.931 19.115s42.325-10.923 53.931-19.115c10.24-7.509 17.749-12.971 34.133-12.971 9.557 0 17.067-7.509 17.067-17.067s-7.509-17.067-17.067-17.067zM780.288 350.719c-27.307 0-42.325 10.923-53.931 19.115-10.24 7.509-17.749 12.971-34.133 12.971s-23.893-5.461-34.133-12.971c-11.605-8.192-26.624-19.115-53.931-19.115s-42.325 10.923-53.931 19.115c-10.24 7.509-17.749 12.971-34.133 12.971s-23.893-5.461-34.133-12.971c-11.605-8.875-26.624-19.115-53.931-19.115s-42.325 10.923-53.931 19.115c-10.24 7.509-17.749 12.971-34.133 12.971s-23.893-5.461-34.133-12.971c-11.605-8.875-26.624-19.115-53.931-19.115-9.557 0-17.067 7.509-17.067 17.067s7.509 17.067 17.067 17.067c16.384 0 23.893 5.461 34.133 12.971 11.605 8.875 26.624 19.115 53.931 19.115s42.325-10.923 53.931-19.115c10.24-7.509 17.749-12.971 34.133-12.971s23.893 5.461 34.133 12.971c11.605 8.875 26.624 19.115 53.931 19.115s42.325-10.923 53.931-19.115c10.24-7.509 17.749-12.971 34.133-12.971s23.893 5.461 34.133 12.971c11.605 8.875 26.624 19.115 53.931 19.115s42.325-10.923 53.931-19.115c10.24-7.509 17.749-12.971 34.133-12.971 9.557 0 17.067-7.509 17.067-17.067s-7.509-17.067-17.067-17.067zM780.288 242.858c-27.307 0-42.325 10.923-53.931 19.115-10.24 7.509-17.749 12.971-34.133 12.971s-23.893-5.461-34.133-12.971c-11.605-8.875-26.624-19.115-53.931-19.115s-42.325 10.923-53.931 19.115c-10.24 7.509-17.749 12.971-34.133 12.971s-23.893-5.461-34.133-12.971c-11.605-8.875-26.624-19.115-53.931-19.115s-42.325 10.923-53.931 19.115c-10.24 7.509-17.749 12.971-34.133 12.971s-23.893-5.461-34.133-12.971c-11.605-8.875-26.624-19.115-53.931-19.115-9.557 0-17.067 7.509-17.067 17.067s7.509 17.067 17.067 17.067c16.384 0 23.893 5.461 34.133 12.971 11.605 8.875 26.624 19.115 53.931 19.115s42.325-10.923 53.931-19.115c10.24-7.509 17.749-12.971 34.133-12.971s23.893 5.461 34.133 12.971c11.605 8.875 26.624 19.115 53.931 19.115s42.325-10.923 53.931-19.115c10.24-7.509 17.749-12.971 34.133-12.971s23.893 5.461 34.133 12.971c11.605 8.875 26.624 19.115 53.931 19.115s42.325-10.923 53.931-19.115c10.24-7.509 17.749-12.971 34.133-12.971 9.557 0 17.067-7.509 17.067-17.067s-7.509-17.067-17.067-17.067zM780.288 134.314c-27.307 0-42.325 10.923-53.931 19.115-10.24 7.509-17.749 12.971-34.133 12.971s-23.893-5.461-34.133-12.971c-11.605-8.875-26.624-19.115-53.931-19.115s-42.325 10.923-53.931 19.115c-10.24 7.509-17.749 12.971-34.133 12.971s-23.893-5.461-34.133-12.971c-11.605-8.875-26.624-19.115-53.931-19.115s-42.325 10.923-53.931 19.115c-10.24 7.509-17.749 12.971-34.133 12.971s-23.893-5.461-34.133-12.971c-11.605-8.875-26.624-19.115-53.931-19.115-9.557 0-17.067 7.509-17.067 17.067s7.509 17.067 17.067 17.067c16.384 0 23.893 5.461 34.133 12.971 11.605 8.875 26.624 19.115 53.931 19.115s42.325-10.923 53.931-19.115c10.24-7.509 17.749-12.971 34.133-12.971s23.893 5.461 34.133 12.971c11.605 8.875 26.624 19.115 53.931 19.115s42.325-10.923 53.931-19.115c10.24-7.509 17.749-12.971 34.133-12.971s23.893 5.461 34.133 12.971c11.605 8.875 26.624 19.115 53.931 19.115s42.325-10.923 53.931-19.115c10.24-7.509 17.749-12.971 34.133-12.971 9.557 0 17.067-7.509 17.067-17.067s-7.509-17.067-17.067-17.067zM780.288 30.549c-27.307 0-42.325 10.923-53.931 19.115-10.24 7.509-17.749 12.971-34.133 12.971s-23.893-5.461-34.133-12.971c-11.605-8.875-26.624-19.115-53.931-19.115s-42.325 10.923-53.931 19.115c-10.24 7.509-17.749 12.971-34.133 12.971s-23.893-5.461-34.133-12.971c-11.605-8.875-26.624-19.115-53.931-19.115s-42.325 10.923-53.931 19.115c-10.24 7.509-17.749 12.971-34.133 12.971s-23.893-5.461-34.133-12.971c-11.605-8.875-26.624-19.115-53.931-19.115-9.557 0-17.067 7.509-17.067 17.067s7.509 17.067 17.067 17.067c16.384 0 23.893 5.461 34.133 12.971 11.605 8.875 26.624 19.115 53.931 19.115s42.325-10.923 53.931-19.115c10.24-7.509 17.749-12.971 34.133-12.971s23.893 5.461 34.133 12.971c11.605 8.875 26.624 19.115 53.931 19.115s42.325-10.923 53.931-19.115c10.24-7.509 17.749-12.971 34.133-12.971s23.893 5.461 34.133 12.971c11.605 8.875 26.624 19.115 53.931 19.115s42.325-10.923 53.931-19.115c10.24-7.509 17.749-12.971 34.133-12.971 9.557 0 17.067-7.509 17.067-17.067s-7.509-17.067-17.067-17.067z" />
<glyph unicode="&#xe91e;" glyph-name="files" data-tags="files" d="M684.715 832h-432.128v-143.36h-150.187v-873.813h662.187v143.36h150.187v650.581l-230.059 223.232zM703.147 719.36l87.381-85.333h-87.381v85.333zM696.32-116.907h-525.653v737.28h327.68v-129.024c-6.144 1.365-10.923 4.779-16.384 8.875-10.24 7.509-23.211 17.067-47.104 17.067s-36.864-9.557-47.104-17.067c-8.875-6.144-14.336-10.24-27.307-10.24s-19.115 4.096-27.307 10.24c-10.24 7.509-23.211 17.067-47.104 17.067s-36.864-9.557-47.104-17.067c-8.875-6.144-14.336-10.24-27.307-10.24-9.557 0-17.067-7.509-17.067-17.067s7.509-17.067 17.067-17.067c23.893 0 36.864 9.557 47.104 17.067 8.875 6.144 14.336 10.24 27.307 10.24s19.115-4.096 27.307-10.24c10.24-7.509 23.211-17.067 47.104-17.067s36.864 9.557 47.104 17.067c8.875 6.144 14.336 10.24 27.307 10.24s19.115-4.096 27.307-10.24c8.875-6.144 19.115-13.653 36.181-16.384v-34.133h197.973v-539.307zM552.96 477.013v98.987l98.304-98.987h-98.304zM846.507 26.453h-81.92v433.493l-227.328 228.693h-216.405v75.093h327.68v-184.32h197.973v-552.96zM658.773 36.693c-12.971 0-19.115 4.096-27.307 10.24-10.24 7.509-23.211 17.067-47.104 17.067s-36.864-9.557-47.104-17.067c-8.875-6.144-14.336-10.24-27.307-10.24s-19.115 4.096-27.307 10.24c-10.24 7.509-23.211 17.067-47.104 17.067s-36.864-9.557-47.104-17.067c-8.875-6.144-14.336-10.24-27.307-10.24s-19.115 4.096-27.307 10.24c-10.24 7.509-23.211 17.067-47.104 17.067s-36.864-9.557-47.104-17.067c-8.875-6.144-14.336-10.24-27.307-10.24-9.557 0-17.067-7.509-17.067-17.067s7.509-17.067 17.067-17.067c23.893 0 36.864 9.557 47.104 17.067 8.875 6.144 14.336 10.24 27.307 10.24s19.115-4.096 27.307-10.24c10.24-7.509 23.211-17.067 47.104-17.067s36.864 9.557 47.104 17.067c8.875 6.144 14.336 10.24 27.307 10.24s19.115-4.096 27.307-10.24c10.24-7.509 23.211-17.067 47.104-17.067s36.864 9.557 47.104 17.067c8.875 6.144 14.336 10.24 27.307 10.24s19.115-4.096 27.307-10.24c10.24-7.509 23.211-17.067 47.104-17.067 8.875 0 17.067 7.509 17.067 17.067s-7.509 17.067-17.067 17.067zM435.541 403.968c-23.893 0-36.864-9.557-47.104-17.067-8.875-6.144-14.336-10.24-27.307-10.24s-19.115 4.096-27.307 10.24c-10.24 7.509-23.211 17.067-47.104 17.067s-36.864-9.557-47.104-17.067c-8.875-6.144-14.336-10.24-27.307-10.24-9.557 0-17.067-7.509-17.067-17.067s7.509-17.067 17.067-17.067c23.893 0 36.864 9.557 47.104 17.067 8.875 6.144 14.336 10.24 27.307 10.24s19.115-4.096 27.307-10.24c10.24-7.509 23.211-17.067 47.104-17.067s36.864 9.557 47.104 17.067c8.875 6.144 14.336 10.24 27.307 10.24s19.115-4.096 27.307-10.24c10.24-7.509 23.211-17.067 47.104-17.067s36.864 9.557 47.104 17.067c8.875 6.144 14.336 10.24 27.307 10.24s19.115-4.096 27.307-10.24c10.24-7.509 23.211-17.067 47.104-17.067 8.875 0 17.067 7.509 17.067 17.067s-7.509 17.067-17.067 17.067c-12.971 0-19.115 4.096-27.307 10.24-10.24 7.509-23.211 17.067-47.104 17.067s-36.864-9.557-47.104-17.067c-8.875-6.144-14.336-10.24-27.307-10.24s-19.115 4.096-27.307 10.24c-10.24 7.509-23.211 17.067-47.104 17.067zM658.773 263.339c-12.971 0-19.115 4.096-27.307 10.24-10.24 7.509-23.211 17.067-47.104 17.067s-36.864-9.557-47.104-17.067c-8.875-6.144-14.336-10.24-27.307-10.24s-19.115 4.096-27.307 10.24c-10.24 7.509-23.211 17.067-47.104 17.067s-36.864-9.557-47.104-17.067c-8.875-6.144-14.336-10.24-27.307-10.24s-19.115 4.096-27.307 10.24c-10.24 7.509-23.211 17.067-47.104 17.067s-36.864-9.557-47.104-17.067c-8.875-6.144-14.336-10.24-27.307-10.24-9.557 0-17.067-7.509-17.067-17.067s7.509-17.067 17.067-17.067c23.893 0 36.864 9.557 47.104 17.067 8.875 6.144 14.336 10.24 27.307 10.24s19.115-4.096 27.307-10.24c10.24-7.509 23.211-17.067 47.104-17.067s36.864 9.557 47.104 17.067c8.875 6.144 14.336 10.24 27.307 10.24s19.115-4.096 27.307-10.24c10.24-7.509 23.211-17.067 47.104-17.067s36.864 9.557 47.104 17.067c8.875 6.144 14.336 10.24 27.307 10.24s19.115-4.096 27.307-10.24c10.24-7.509 23.211-17.067 47.104-17.067 8.875 0 17.067 7.509 17.067 17.067s-7.509 17.067-17.067 17.067zM658.773 150.016c-12.971 0-19.115 4.096-27.307 10.24-10.24 7.509-23.211 17.067-47.104 17.067s-36.864-9.557-47.104-17.067c-8.875-6.144-14.336-10.24-27.307-10.24s-19.115 4.096-27.307 10.24c-10.24 7.509-23.211 17.067-47.104 17.067s-36.864-9.557-47.104-17.067c-8.875-6.144-14.336-10.24-27.307-10.24s-19.115 4.096-27.307 10.24c-10.24 7.509-23.211 17.067-47.104 17.067s-36.864-9.557-47.104-17.067c-8.875-6.144-14.336-10.24-27.307-10.24-9.557 0-17.067-7.509-17.067-17.067s7.509-17.067 17.067-17.067c23.893 0 36.864 9.557 47.104 17.067 8.875 6.144 14.336 10.24 27.307 10.24s19.115-4.096 27.307-10.24c10.24-7.509 23.211-17.067 47.104-17.067s36.864 9.557 47.104 17.067c8.875 6.144 14.336 10.24 27.307 10.24s19.115-4.096 27.307-10.24c10.24-7.509 23.211-17.067 47.104-17.067s36.864 9.557 47.104 17.067c8.875 6.144 14.336 10.24 27.307 10.24s19.115-4.096 27.307-10.24c10.24-7.509 23.211-17.067 47.104-17.067 8.875 0 17.067 7.509 17.067 17.067s-7.509 17.067-17.067 17.067z" />
<glyph unicode="&#xe91f;" glyph-name="folder" data-tags="folder" d="M1024-75.946h-1024v646.485h1024v-646.485zM68.267-7.68h887.467v509.952h-887.467v-509.952zM957.099 528.896l-66.901 12.971v51.2h-582.315v54.613h-110.592v-54.613h-62.123v-26.624h-68.267v94.891h62.123v54.613h247.125v-54.613h580.949z" />
<glyph unicode="&#xe920;" glyph-name="folder-open" data-tags="folder-open" d="M896.682-55.126h-811.008l-81.237 606.208h811.691l80.555-606.208zM145.066 13.141h673.792l-62.805 469.675h-673.792l62.805-469.675zM898.048-51.713l-66.901 12.971 106.496 610.987h-540.672v54.613h-111.275v-54.613h-62.123v-26.624h-68.267v94.891h62.123v54.613h247.808v-54.613h554.325z" />
<glyph unicode="&#xe921;" glyph-name="fork" data-tags="fork" d="M876.885 540.16l-48.469 47.787 86.016 86.699-86.016 86.016 48.469 48.469 134.485-134.485zM876.885-169.131l-48.469 47.787 86.016 86.699-86.016 86.016 48.469 48.469 134.485-134.485zM942.421-70.827c-215.723 0-390.485 175.445-390.485 390.485s175.445 390.485 390.485 390.485v-68.267c-177.493 0-322.219-144.725-322.219-322.219s144.725-322.219 322.219-322.219v-68.267zM12.629 336.725h568.661v-68.267h-568.661v68.267z" />
<glyph unicode="&#xe922;" glyph-name="github" data-tags="github" d="M512 745.302c234.837 0 425.301-190.464 425.301-425.301s-190.464-425.301-425.301-425.301-425.301 190.464-425.301 425.301c0 234.837 190.464 425.301 425.301 425.301zM409.6-22.016v64.853c0 33.451 11.605 58.709 34.133 73.728-14.336 1.365-27.307 3.413-39.595 6.144s-24.576 6.144-38.229 10.923c-13.653 4.779-25.259 10.24-36.181 17.067s-21.163 15.019-30.72 25.259c-9.557 10.24-17.749 21.845-24.576 35.499-6.827 12.971-11.605 28.672-15.701 47.104s-6.144 38.912-6.144 60.757c0 43.008 13.653 79.189 41.643 109.909-12.971 32.768-11.605 68.949 4.096 108.544 0.683 0 2.048 0.683 4.096 0.683 0.683 0 1.365 0 2.731 0 2.048 0 6.144 0 10.24-0.683 6.827-0.683 14.336-2.048 21.845-4.096s18.432-6.827 31.403-12.971c12.971-6.827 27.307-15.019 41.643-24.576 32.085 8.875 66.219 13.653 102.4 13.653 35.499 0 69.632-4.779 102.4-13.653 23.211 15.701 44.373 27.307 62.805 34.133 16.384 6.144 28.672 9.557 36.181 9.557 0.683 0 2.048 0 2.731 0l10.24-1.365c15.701-38.912 17.067-75.093 4.096-108.544 27.989-30.037 41.643-66.901 41.643-109.909 0-21.845-2.048-42.325-6.144-60.757s-8.875-34.133-15.701-47.104c-6.827-12.971-15.019-25.259-24.576-35.499s-19.797-19.115-30.72-25.259c-10.923-6.827-22.528-12.288-36.181-17.067s-25.941-8.192-37.547-10.923c-12.288-2.731-24.576-4.096-38.912-6.144 23.211-15.701 36.181-40.277 36.181-73.728v-63.488c6.827 3.413 20.48 7.509 31.403 12.288 42.325 17.749 79.189 43.691 111.957 76.459s58.709 70.997 76.459 113.323c18.432 43.691 27.989 90.795 27.989 139.264s-9.557 94.891-27.989 139.264c-17.749 42.325-43.691 80.555-76.459 113.323s-70.997 58.709-113.323 76.459c-43.691 18.432-90.795 27.989-139.264 27.989s-94.891-9.557-139.264-27.989c-42.325-17.749-80.555-43.691-113.323-76.459s-58.709-70.997-76.459-113.323c-18.432-43.691-27.989-90.795-27.989-139.264s9.557-94.891 27.989-139.264c17.749-42.325 43.691-80.555 76.459-113.323s70.997-58.709 113.323-76.459c14.336-6.144 25.259-10.923 38.912-14.336zM512 813.568c-272.384 0-493.568-221.184-493.568-493.568s221.184-493.568 493.568-493.568 493.568 221.184 493.568 493.568-221.184 493.568-493.568 493.568v0zM393.899 584.192c2.048 0.683 4.096 1.365 5.461 2.731 35.499 15.019 73.045 22.528 112.64 22.528 38.912 0 77.141-7.509 112.64-22.528 2.731-1.365 5.461-2.048 7.509-3.413-8.875-4.096-18.432-9.557-27.989-15.019-29.355 6.144-59.392 8.875-90.112 8.875s-60.757-2.731-90.112-8.875c-8.192 4.779-15.701 8.875-23.893 12.971-2.048 0.683-4.096 1.365-6.144 2.731v0z" />
<glyph unicode="&#xe923;" glyph-name="globe" data-tags="globe" d="M539.307 824.49v0.683h-54.613v-0.683c-266.24-14.336-477.867-234.155-477.867-504.491 0-279.211 225.963-505.173 505.173-505.173s505.173 225.963 505.173 505.173c0 270.336-211.627 490.155-477.867 504.491zM719.531 45.567c21.163 47.104 38.229 101.717 47.787 166.571 27.307 10.923 53.248 23.211 77.141 37.547 44.373 26.624 79.189 57.344 103.765 90.112 0-6.827 0.683-12.971 0.683-19.797 0-48.469-8.192-95.573-23.211-139.264-36.181-54.613-109.909-104.448-206.165-135.168zM102.401 168.447c-17.749 47.104-27.307 98.304-27.307 151.552 0 4.779 0 9.557 0.683 14.336 38.229-52.565 101.717-95.573 181.589-125.611 9.557-64.171 26.624-119.467 48.469-165.888-92.16 26.624-165.205 71.68-203.435 125.611zM118.102 509.781c37.547-31.403 84.651-58.027 139.264-77.824-5.461-34.816-8.192-71.68-8.192-111.957 0-17.067 0.683-33.451 2.048-49.835-90.112 38.912-150.869 97.621-160.427 163.84 6.827 25.941 15.701 51.883 27.307 75.776zM933.206 434.687c-10.24-58.709-69.632-118.784-160.427-160.427 0.683 15.019 1.365 30.037 1.365 45.739 0 42.325-3.413 81.237-8.875 117.419 52.565 21.163 98.987 47.787 135.851 80.555 13.653-26.624 24.576-53.931 32.085-83.285zM720.214 319.999c0-23.211-1.365-45.739-3.413-68.267-52.565-17.067-112.64-28.672-177.493-31.403v169.984c60.757 2.731 120.149 12.288 174.080 28.672 4.779-31.403 6.827-64.171 6.827-98.987zM539.307 445.61v133.803c40.277 2.048 80.555 8.192 117.419 18.432 20.48-38.229 35.499-79.872 46.421-124.245-50.517-15.701-106.496-25.259-163.84-27.989zM539.307 634.026v107.861c19.797-15.701 43.008-36.864 65.536-65.536 8.192-9.557 15.019-19.797 22.528-30.037-27.989-6.144-58.027-10.923-88.064-12.288zM617.814 743.935c43.691-10.923 85.333-28.672 122.197-51.883-17.749-10.923-37.547-20.48-58.709-28.672-19.797 32.085-42.325 58.709-63.488 80.555zM419.158 676.351c22.528 27.989 45.739 49.835 65.536 65.536v-107.179c-30.72 1.365-60.075 5.461-88.064 12.288 6.827 9.557 14.336 19.797 22.528 29.355zM342.017 662.698c-21.845 8.192-41.643 17.749-59.392 29.355 37.547 23.211 79.189 40.96 123.563 51.883-21.163-21.845-43.691-49.152-64.171-81.237zM484.694 579.413v-134.485c-58.027 2.048-114.005 10.24-164.523 24.576 10.24 45.739 25.941 88.747 47.104 127.659 36.181-9.557 75.776-15.701 117.419-17.749zM484.694 390.997v-169.984c-64.171 2.048-124.245 12.288-177.493 28.672-2.048 22.528-3.413 46.421-3.413 70.315 0 32.768 2.048 64.853 6.144 95.573 53.931-14.336 113.323-23.211 174.763-24.576zM315.393 190.293c51.883-13.653 108.544-22.528 169.301-23.893v-151.552c-37.547 1.365-74.411 5.461-109.227 11.605-27.989 49.152-48.469 103.765-60.075 163.84zM484.694-39.766v-61.44c-19.797 15.701-43.008 36.864-65.536 64.853-0.683 0.683-0.683 1.365-1.365 2.048 21.845-3.413 44.373-4.779 66.901-5.461zM539.307-101.889v62.123c22.528 0.683 45.056 2.731 67.584 5.461-0.683-0.683-1.365-1.365-2.048-2.048-22.528-28.672-45.739-50.517-65.536-65.536zM539.307 14.847v151.552c58.709 2.048 116.053 10.923 169.301 25.941-11.605-60.757-31.403-115.371-60.075-165.205-34.133-6.827-70.997-10.923-109.227-12.288zM873.131 565.759c-30.72-28.672-71.68-53.931-118.784-73.728-11.605 46.421-27.307 87.381-45.739 123.563 29.355 11.605 55.979 25.941 79.189 43.008 32.768-26.624 61.44-58.027 85.333-92.843zM235.521 657.919c22.528-17.067 49.152-31.403 79.189-43.691-18.432-36.864-34.816-79.189-46.421-127.659-48.469 18.432-90.795 43.008-122.197 70.997 24.576 38.229 54.613 71.68 89.429 100.352zM182.955 33.279c45.739-24.576 99.669-43.691 158.379-55.979 20.48-32.085 42.325-58.709 63.488-80.555-87.381 21.845-164.523 70.315-221.867 136.533zM619.179-103.937c21.845 22.528 43.691 49.835 64.853 82.603 60.075 14.336 116.736 35.499 165.888 64.171-58.709-70.997-139.264-123.563-230.741-146.773z" />
<glyph unicode="&#xe924;" glyph-name="hamburger-nav" data-tags="hamburger-nav" d="M3.072 743.254h1017.856v-203.435h-1017.856v203.435zM3.072 417.622h1017.856v-203.435h-1017.856v203.435zM3.072 100.182h1017.856v-203.435h-1017.856v203.435z" />
<glyph unicode="&#xe925;" glyph-name="hdd" data-tags="hdd" d="M856.746-195.413h-689.493c-26.624 0-47.787 21.163-47.787 47.787v935.253c0 26.624 21.163 47.787 47.787 47.787h689.493c26.624 0 47.787-21.163 47.787-47.787v-935.253c0-26.624-21.163-47.787-47.787-47.787zM187.733-127.146h648.533v894.293h-648.533v-894.293zM514.73 160.939c-157.696 0-286.72 128.341-286.72 286.72s128.341 286.72 286.72 286.72 286.72-128.341 286.72-286.72-128.341-286.72-286.72-286.72zM514.73 665.43c-120.149 0-218.453-97.621-218.453-218.453s97.621-218.453 218.453-218.453c120.149 0 218.453 97.621 218.453 218.453s-97.621 218.453-218.453 218.453zM514.73 341.846c-58.709 0-105.813 47.787-105.813 105.813 0 58.709 47.787 105.813 105.813 105.813s105.813-47.787 105.813-105.813c0-58.709-47.104-105.813-105.813-105.813zM514.73 519.339c-39.595 0-71.68-32.085-71.68-71.68s32.085-71.68 71.68-71.68 71.68 32.085 71.68 71.68c0 39.595-32.085 71.68-71.68 71.68zM514.73 393.728c-29.355 0-53.248 23.893-53.248 53.248s23.893 53.248 53.248 53.248c29.355 0 53.248-23.893 53.248-53.248s-23.893-53.248-53.248-53.248zM514.73 473.6c-14.336 0-25.941-11.605-25.941-25.941s11.605-25.941 25.941-25.941 25.941 11.605 25.941 25.941-11.605 25.941-25.941 25.941zM223.232 649.728h-42.325v27.307h42.325c10.24 0 19.797 10.24 19.797 21.845 0 10.923-8.192 19.115-18.432 19.115h-43.691v27.307h43.691c25.259 0 45.739-21.163 45.739-46.421 0-26.624-21.845-49.152-47.104-49.152zM856.746 650.411h-49.152c-25.259 0-45.739 20.48-45.739 46.421 0 25.259 21.845 46.421 47.104 46.421l45.056 0.683 0.683-27.307-45.739-0.683c-10.923 0-20.48-8.875-20.48-19.115 0-10.923 8.192-19.115 18.432-19.115h49.152v-27.307zM223.232 168.448h-42.325v27.307h42.325c10.24 0 19.797 9.557 19.797 20.48s-8.192 20.48-18.432 20.48h-43.691v27.307h43.691c25.259 0 45.739-21.163 45.739-47.787 0-25.941-21.163-47.787-47.104-47.787zM856.746 169.131h-49.152c-25.259 0-45.739 20.48-45.739 46.421 0 25.259 21.845 46.421 47.104 46.421l45.056 0.683 0.683-27.307-45.739-0.683c-10.923 0-20.48-8.875-20.48-19.115 0-10.923 8.192-19.115 18.432-19.115h49.152v-27.307zM516.096 54.443c-18.432 0-36.864 10.24-45.739 27.307-6.827 12.288-8.192 26.624-4.096 39.595 4.096 13.653 12.971 24.576 25.259 30.72l1.365 0.683 223.232 96.256c15.701 8.192 35.499 2.048 43.691-13.653 4.096-7.509 4.779-16.384 2.731-25.259-2.731-8.192-8.192-15.019-15.701-19.115l-206.165-130.389c-8.192-4.096-16.384-6.144-24.576-6.144zM503.808 128.171c-5.461-3.413-9.557-8.192-11.605-14.336s-1.365-12.971 2.048-19.115c6.144-11.605 21.163-16.384 33.451-10.24l206.165 130.389c2.048 0.683 2.731 2.731 2.731 3.413s0.683 2.731-0.683 4.096c-1.365 2.731-4.779 3.413-7.509 2.048l-1.365-0.683-223.232-95.573zM849.92 16.214h-218.453v70.997c0 24.576 21.163 45.056 47.787 45.056h170.667v-116.053zM658.773 43.52h163.84v61.44h-143.36c-9.557 0-20.48-6.827-20.48-17.749v-43.691zM529.066-4.266h-43.008c-7.509 0-13.653 6.144-13.653 13.653v13.653c0 10.24-8.875 19.797-19.797 19.797s-19.797-8.192-19.797-18.432v-15.019c0-7.509-6.144-13.653-13.653-13.653h-183.637c-7.509 0-13.653 6.144-13.653 13.653v137.216c0 6.827 4.779 12.288 10.923 13.653 21.163 4.096 43.008 25.941 43.008 51.883 0 2.731-0.683 6.144-1.365 9.557-1.365 6.144 2.048 11.605 7.509 14.336s12.288 1.365 16.384-2.731c46.421-50.517 106.496-83.968 173.397-95.573 7.509-1.365 12.288-8.192 10.923-15.701s-8.192-12.288-15.701-10.923c-62.805 10.923-119.467 38.912-166.571 81.92-7.509-26.624-28.672-47.104-51.2-55.296v-114.688h157.013v1.365c0 25.259 21.163 45.739 47.104 45.739 25.259 0 47.104-21.845 47.104-47.104h15.019v40.96c0 7.509 6.144 13.653 13.653 13.653s13.653-6.144 13.653-13.653v-54.613c0-7.509-6.144-13.653-13.653-13.653zM537.941 111.104c0-9.426-7.641-17.067-17.067-17.067s-17.067 7.641-17.067 17.067c0 9.426 7.641 17.067 17.067 17.067s17.067-7.641 17.067-17.067zM469.674 22.358c0-9.426-7.641-17.067-17.067-17.067s-17.067 7.641-17.067 17.067c0 9.426 7.641 17.067 17.067 17.067s17.067-7.641 17.067-17.067zM828.757 216.235c0-9.426-7.641-17.067-17.067-17.067s-17.067 7.641-17.067 17.067c0 9.426 7.641 17.067 17.067 17.067s17.067-7.641 17.067-17.067zM234.154 216.235c0-9.426-7.641-17.067-17.067-17.067s-17.067 7.641-17.067 17.067c0 9.426 7.641 17.067 17.067 17.067s17.067-7.641 17.067-17.067zM828.757 697.515c0-9.426-7.641-17.067-17.067-17.067s-17.067 7.641-17.067 17.067c0 9.426 7.641 17.067 17.067 17.067s17.067-7.641 17.067-17.067zM234.154 697.515c0-9.426-7.641-17.067-17.067-17.067s-17.067 7.641-17.067 17.067c0 9.426 7.641 17.067 17.067 17.067s17.067-7.641 17.067-17.067zM223.232-98.474h-42.325v27.307h42.325c10.24 0 19.797 10.24 19.797 21.845 0 10.923-8.192 19.115-18.432 19.115h-43.691v27.307h43.691c25.259 0 45.739-21.163 45.739-46.421 0-26.624-21.845-49.152-47.104-49.152zM856.746-97.792h-49.152c-25.259 0-45.739 20.48-45.739 46.421 0 25.259 21.845 46.421 47.104 46.421l45.056 0.683 0.683-27.307-45.739-0.683c-10.923 0-20.48-8.875-20.48-19.115 0-10.923 8.192-19.115 18.432-19.115h49.152v-27.307zM828.757-50.688c0-9.426-7.641-17.067-17.067-17.067s-17.067 7.641-17.067 17.067c0 9.426 7.641 17.067 17.067 17.067s17.067-7.641 17.067-17.067zM234.154-50.688c0-9.426-7.641-17.067-17.067-17.067s-17.067 7.641-17.067 17.067c0 9.426 7.641 17.067 17.067 17.067s17.067-7.641 17.067-17.067zM679.253 57.174h13.653v-47.787h-13.653v47.787zM715.434 57.174h13.653v-47.787h-13.653v47.787zM752.298 57.174h13.653v-47.787h-13.653v47.787zM788.48 57.174h13.653v-47.787h-13.653v47.787zM679.253 145.92h13.653v-47.787h-13.653v47.787zM715.434 145.92h13.653v-47.787h-13.653v47.787zM752.298 145.92h13.653v-47.787h-13.653v47.787zM788.48 145.92h13.653v-47.787h-13.653v47.787z" />
<glyph unicode="&#xe926;" glyph-name="help" data-tags="help" d="M512 763.734c244.395 0 443.733-199.339 443.733-443.733s-199.339-443.733-443.733-443.733-443.733 199.339-443.733 443.733 199.339 443.733 443.733 443.733zM512 832c-282.624 0-512-229.376-512-512s229.376-512 512-512 512 229.376 512 512-228.693 512-512 512v0zM357.035 571.222c8.875 8.192 18.432 16.384 29.355 23.211 10.923 7.509 22.528 13.653 34.816 19.797 12.971 5.461 26.624 10.24 40.96 13.653s30.72 4.779 47.787 4.779c22.528 0 43.691-3.413 62.805-9.557 19.115-6.827 35.499-15.701 49.835-27.989 13.653-12.288 25.259-26.624 32.768-43.691 8.192-17.067 12.288-36.181 12.288-58.027s-3.413-40.277-9.557-55.979c-6.144-15.701-14.336-29.355-24.576-40.96-9.557-11.605-20.48-21.845-32.085-30.72s-22.528-17.067-32.768-24.576c-10.24-7.509-19.115-15.701-25.941-23.211-7.509-7.509-11.605-16.384-12.288-25.941l-7.509-65.536h-51.883l-6.144 71.68c-1.365 12.971 1.365 23.893 7.509 33.451s13.653 18.432 23.211 27.307c9.557 8.192 20.48 16.384 32.085 24.576s22.528 17.067 32.768 27.307c10.24 10.24 18.432 21.163 25.259 34.133s10.24 27.989 10.24 45.739c0 12.288-2.731 23.211-7.509 33.451s-11.605 18.432-19.797 25.259c-8.192 6.827-17.749 12.288-29.355 15.701-10.923 3.413-23.211 5.461-36.181 5.461-17.067 0-32.085-2.048-44.373-6.144s-22.528-8.875-31.403-14.336c-8.875-5.461-15.701-9.557-20.48-14.336-5.461-4.096-9.557-6.144-12.971-6.144-6.827 0-12.971 3.413-16.384 9.557l-20.48 32.085zM440.32 60.587c0 7.509 1.365 14.336 4.096 21.163s6.144 12.288 10.923 17.067c4.779 4.779 10.24 8.875 17.067 11.605s13.653 4.096 21.163 4.096c7.509 0 14.336-1.365 21.163-4.096s12.288-6.827 17.067-11.605c4.779-4.779 8.875-10.24 11.605-17.067s4.096-13.653 4.096-21.163c0-7.509-1.365-15.019-4.096-21.163s-6.827-12.288-11.605-17.067c-4.779-4.779-10.24-8.875-17.067-11.605s-13.653-4.096-21.163-4.096c-7.509 0-14.336 1.365-21.163 4.096s-12.288 6.144-17.067 11.605c-4.779 4.779-8.192 10.24-10.923 17.067-2.731 6.144-4.096 12.971-4.096 21.163z" />
<glyph unicode="&#xe927;" glyph-name="chevron-beginning" data-tags="chevron-beginning" d="M843.2-194.4l-514.8 514.7 514.7 514 120.9-120.7-393.9-393.3 393.9-393.9-120.8-120.8zM230.9 832v-1024h-170.9v1024h170.9z" />
<glyph unicode="&#xe928;" glyph-name="home" data-tags="home" d="M889.514-157.526h-750.933v566.613h68.267v-498.347h614.4v498.347h68.267zM970.751 242.517l-458.752 458.752-458.069-458.752-48.469 48.469 506.539 506.539 506.539-506.539z" />
<glyph unicode="&#xe929;" glyph-name="host" data-tags="host" d="M904.533 763.733v-177.493h-785.067v177.493h785.067zM972.8 832h-921.6v-314.027h921.6v314.027zM174.080 709.12h546.133v-68.267h-546.133v68.267zM754.346 709.12h95.573v-68.267h-95.573v68.267zM904.533 412.16v-177.493h-785.067v177.493h785.067zM972.8 480.426h-921.6v-314.027h921.6v314.027zM174.080 357.546h546.133v-68.267h-546.133v68.267zM754.346 357.546h95.573v-68.267h-95.573v68.267zM904.533 60.586v-184.32h-785.067v184.32h785.067zM972.8 128.853h-921.6v-320.853h921.6v320.853zM174.080 5.973h546.133v-75.093h-546.133v75.093zM754.346 5.973h95.573v-75.093h-95.573v75.093z" />
<glyph unicode="&#xe92a;" glyph-name="info" data-tags="info" d="M511.318 768.853c247.808 0 449.195-201.387 449.195-449.195s-201.387-449.195-449.195-449.195c-247.808 0-449.195 201.387-449.195 449.195 0.683 247.808 202.069 449.195 449.195 449.195zM511.318 837.12c-285.355 0-516.779-231.424-516.779-516.779s231.424-517.461 517.461-517.461 517.461 231.424 517.461 517.461c-0.683 285.355-232.107 516.779-518.144 516.779v0zM565.932 576.341c0-7.509-1.365-14.336-4.779-20.48-2.731-6.144-6.827-12.288-11.605-17.067s-10.923-8.875-17.749-11.605c-6.827-2.731-13.653-4.096-21.163-4.096s-14.336 1.365-20.48 4.096c-6.144 2.731-12.288 6.827-17.067 11.605s-8.875 10.923-11.605 17.067c-2.731 6.144-4.096 12.971-4.096 20.48s1.365 14.336 4.096 21.163c2.731 6.827 6.827 12.288 11.605 17.749 4.779 4.779 10.24 8.875 17.067 11.605 6.144 2.731 12.971 4.096 20.48 4.096s14.336-1.365 21.163-4.096c6.827-2.731 12.288-6.827 17.749-11.605 4.779-4.779 8.875-10.923 11.605-17.749s4.779-14.336 4.779-21.163zM550.913 437.76v-430.080h-75.093v430.080h75.093z" />
<glyph unicode="&#xe92b;" glyph-name="key" data-tags="key" d="M512 761.686c101.035 0 182.955-81.92 182.955-182.955s-81.92-182.955-182.955-182.955-182.955 81.92-182.955 182.955c0 101.035 81.92 182.955 182.955 182.955zM512 829.952c-138.581 0-251.221-113.323-251.221-251.904s112.64-251.221 251.221-251.221c138.581 0 251.221 112.64 251.221 251.221s-112.64 251.904-251.221 251.904v0zM565.93 662.699c0-29.785-24.146-53.931-53.931-53.931s-53.931 24.146-53.931 53.931c0 29.785 24.146 53.931 53.931 53.931s53.931-24.146 53.931-53.931zM475.818-189.952l-123.563 123.563 61.44 61.44-49.152 41.643 47.104 47.104-45.056 45.056 45.056 45.056-45.056 45.056 45.056 45.056-45.056 45.056 79.872 79.872h176.811v-431.445l-147.456-147.456zM449.194-66.389l26.624-26.624 79.189 79.189v334.507h-80.555l-10.923-10.923 45.056-45.056-45.056-45.056 45.056-45.056-45.056-45.056 45.056-45.056-43.008-43.008 49.152-41.643-65.536-66.219zM505.173 375.296h13.653v-442.368h-13.653v442.368z" />
<glyph unicode="&#xe92c;" glyph-name="kubernetes" data-tags="kubernetes" d="M510.636 735.744c13.653 0 24.576-11.605 24.576-26.624 0-1.365 0-2.048 0-3.413s0-2.731 0-4.096c0-5.461-1.365-10.24-2.048-15.019-0.683-2.731-0.683-4.779-1.365-7.509v-0.683c-2.048-16.384-3.413-30.72-2.731-43.691 0.683-3.413 2.048-6.144 3.413-7.509 84.651-6.144 163.157-44.373 219.136-105.813 0.683 0 1.365 0 2.048 0 2.048 0 4.779 0.683 7.509 2.048 10.923 7.509 20.48 17.067 32.085 29.355v0c2.048 2.048 3.413 4.096 5.461 5.461 3.413 4.096 6.144 7.509 10.923 10.923 0.683 0.683 2.048 1.365 3.413 2.731 0.683 0.683 1.365 0 1.365 0.683v-0.683h0.683c4.779 5.461 10.923 8.192 16.384 8.192 7.509 0 15.019-4.096 20.48-10.24 4.096-5.461 5.461-12.288 4.779-19.115-1.365-6.827-4.779-12.971-9.557-19.797l-0.683 2.731c0 0 0 0 0 0s0 2.048-0.683 2.048c0 0 0 0 0 0s0 0-0.683 0c-0.683-0.683-0.683-0.683-1.365-1.365-1.365-1.365-2.731-2.048-3.413-2.731-4.779-3.413-8.875-5.461-12.971-8.192-2.048-1.365-4.779-2.731-6.827-4.096v0c-14.336-8.875-25.941-16.384-35.499-25.259-2.731-2.731-3.413-6.144-4.096-8.875 23.211-33.451 40.277-71.68 49.835-114.005 9.557-41.643 10.923-83.285 4.779-124.245 1.365-2.048 3.413-4.096 6.827-5.461 12.288-4.096 26.624-5.461 43.008-6.827h0.683c2.731 0 5.461 0 7.509-0.683 4.779 0 9.557-0.683 15.701-1.365 1.365 0 2.731-0.683 4.779-1.365 0.683 0 1.365-0.683 2.731-0.683h0.683v-0.683c6.827-2.048 12.288-5.461 16.384-10.923s5.461-12.288 4.096-18.432c-1.365-6.144-5.461-11.605-11.605-15.019-4.096-2.048-8.875-3.413-13.653-3.413-2.048 0-4.096 0-6.827 0.683v0c-2.048 0.683-4.096 1.365-5.461 2.048 0 0-0.683 0-0.683 0-5.461 1.365-9.557 3.413-14.336 5.461-2.048 0.683-4.779 2.048-7.509 2.731v0c-15.701 5.461-28.672 10.24-41.643 12.288-0.683 0-0.683 0-1.365 0-2.731 0-4.779-0.683-6.827-2.048-8.192-27.989-20.48-55.296-36.864-81.237-29.355-47.104-68.949-84.651-116.053-111.275-0.683-2.731-0.683-5.461 0-8.875 4.779-12.288 12.288-23.893 21.163-38.229v-0.683c1.365-2.048 2.731-4.096 4.779-6.144 2.731-4.096 5.461-8.192 8.192-12.971 0.683-1.365 1.365-2.731 2.048-4.096 0.683-0.683 0.683-1.365 1.365-2.048v-0.683h-0.683c2.731-6.144 3.413-13.653 1.365-19.797-2.048-6.827-6.144-11.605-12.288-15.019-3.413-1.365-6.144-2.048-9.557-2.048-9.557 0-19.115 6.144-24.576 16.384-0.683 1.365-1.365 2.731-1.365 4.096-0.683 0.683-0.683 1.365-0.683 2.048-2.048 5.461-3.413 9.557-4.779 15.019-0.683 2.731-1.365 4.779-2.048 7.509v0c-5.461 15.701-10.24 29.355-16.384 40.277-2.048 2.731-4.096 4.779-6.827 5.461-15.701-6.144-32.085-11.605-49.152-15.019-24.576-5.461-48.469-8.192-73.045-8.192 0 0 0 0 0 0-42.325 0-83.285 8.192-120.832 23.211-2.731-0.683-6.144-2.731-8.875-6.144-6.827-10.923-10.923-24.576-16.384-40.277v-0.683c-0.683-2.731-1.365-4.779-2.048-7.509-1.365-4.779-2.731-9.557-4.779-15.019-0.683-1.365-1.365-2.731-2.048-4.096-0.683-0.683-0.683-1.365-1.365-2.048v-0.683c-3.413-6.144-8.192-10.923-14.336-13.653-3.413-1.365-6.144-2.048-9.557-2.048s-6.827 0.683-9.557 2.048c-12.288 6.144-17.067 21.845-10.24 35.499 0.683 1.365 1.365 2.048 1.365 2.731 0.683 1.365 1.365 2.048 1.365 3.413 2.731 4.779 5.461 8.875 8.192 12.971 1.365 2.048 2.731 4.096 4.779 6.144v0.683c8.875 13.653 16.384 25.941 21.163 38.229 1.365 4.779 0.683 7.509-0.683 10.923-70.315 40.277-125.611 106.496-150.869 188.416-2.048 1.365-4.779 2.731-8.192 2.731-0.683 0-0.683 0-1.365 0-12.971-2.048-25.941-6.827-41.643-12.288v0c-2.731-0.683-4.779-2.048-7.509-2.731-4.779-2.048-8.875-4.096-14.336-5.461-1.365 0-2.731-0.683-4.096-0.683-0.683 0-1.365-0.683-2.048-0.683-2.048-0.683-4.779-0.683-6.827-0.683-4.779 0-9.557 1.365-13.653 3.413-6.144 3.413-10.24 8.875-11.605 15.019s0 12.971 4.096 18.432c4.096 5.461 9.557 9.557 16.384 10.923v0h0.683c0.683 0 1.365 0.683 2.731 0.683 1.365 0.683 3.413 0.683 4.779 1.365 5.461 1.365 10.24 1.365 15.701 1.365 2.731 0 5.461 0 7.509 0.683h0.683c16.384 2.048 30.72 3.413 43.008 6.827 4.096 1.365 6.144 4.096 7.509 6.144-12.971 78.507 3.413 158.379 46.421 226.645 2.731 4.096 5.461 8.192 7.509 11.605-0.683 2.731-1.365 4.779-4.096 7.509-9.557 8.875-21.845 16.384-35.499 25.259v0c-2.048 1.365-4.779 2.731-6.827 4.096-4.779 2.048-8.875 4.779-12.971 8.192-0.683 0.683-2.048 1.365-2.731 2.048s-2.048 1.365-2.731 2.048c-5.461 4.779-9.557 10.923-10.24 17.749-1.365 6.827 0.683 13.653 4.779 18.432 4.779 5.461 11.605 8.875 19.115 8.875 6.144 0 12.288-2.048 17.749-6.144l1.365 0.683v-0.683c0-0.683 0.683-0.683 0.683-1.365 1.365-1.365 2.048-2.048 2.731-2.731 4.096-3.413 7.509-7.509 10.923-10.923 1.365-2.048 3.413-4.096 5.461-6.144v0c11.605-11.605 21.845-21.845 32.085-29.355 2.731-1.365 5.461-2.048 7.509-2.048 0 0 0.683 0 0.683 0 40.277 51.2 98.987 87.381 165.205 101.035v0c17.067 6.827 34.133 6.144 51.2 7.509 1.365 2.048 2.731 4.096 3.413 7.509 1.365 12.971-0.683 27.307-2.731 43.691v0.683c-0.683 2.731-0.683 5.461-1.365 7.509-0.683 4.779-2.048 9.557-2.048 15.019 0 1.365 0 3.413 0 4.779 0 0.683 0 1.365 0 2.048v0 0.683c0 0 0 0 0-0.683h-0.683c2.048 20.48 12.971 27.307 25.941 27.307zM443.052 401.238l11.605 13.653h17.749c0 0 0 1.365 0 1.365l6.827 116.736c-6.827-0.683-14.336-2.048-21.163-4.096v0c-42.325-9.557-80.555-30.72-111.275-60.075l92.843-66.219c0.683 0 2.048-0.683 3.413-1.365zM548.865 414.891h17.749l10.923-12.971c0 0 0 0.683 0 0.683l95.573 67.584c-35.499 34.133-81.92 55.979-131.072 63.488l6.827-116.736c0-0.683 0-2.048 0-2.048zM746.156 276.992c2.048 24.576 0.683 49.152-5.461 73.728-5.461 25.259-15.019 48.469-27.989 68.949l-85.333-75.776c-0.683-0.683-0.683-1.365-1.365-1.365l11.605-14.336-4.096-17.067c1.365-0.683 2.731-1.365 4.096-1.365v0 0l108.544-32.768zM275.116 276.992l110.592 32.085c0.683 0 1.365 0.683 1.365 0.683l-4.096 17.749 10.923 13.653-86.699 78.507c-25.941-43.008-36.864-92.843-32.085-142.677zM510.636 270.166l22.528 10.923 5.461 25.259-15.701 20.48h-25.259l-15.701-20.48 5.461-25.259 23.211-10.923zM380.929 101.547l42.325 103.083c0.683 1.365 1.365 3.413 1.365 5.461l-16.384 7.509-3.413 17.067c0 0 0 0-0.683 0l-114.688-19.797c18.432-47.104 51.2-86.016 91.477-113.323zM641.025 100.864c27.989 18.432 51.2 42.325 69.632 71.68 8.875 13.653 15.019 27.989 20.48 43.008l-114.688 19.115v-13.653l-21.163-10.923c0 0 0.683 0 1.365-0.683l44.373-108.544zM510.636 169.131l-15.701 7.509-56.661-102.4c23.211-7.509 47.787-11.605 73.045-11.605 17.067 0 34.816 2.048 52.565 6.144 6.827 1.365 13.653 3.413 19.797 5.461l-55.979 100.352c-0.683 0.683-1.365 1.365-2.048 2.048l-15.019-7.509zM847.19 530.944v0 0c0 0 0 0 0 0zM510.636 804.011c0 0 0 0 0 0-53.248 0-92.16-40.277-92.843-94.891 0-0.683 0-2.048 0-2.731 0-2.048 0-4.096 0-6.827 0-4.779 0.683-8.875 1.365-12.971 0 0-0.683 0-0.683 0-55.979-12.288-107.861-37.547-152.917-73.728-0.683 1.365-2.048 2.048-3.413 3.413-5.461 7.509-12.288 13.653-20.48 18.432-4.779 2.731-9.557 4.779-15.019 6.827-12.288 5.461-25.259 8.192-38.229 8.192-28.672 0-54.613-12.288-72.363-34.133-16.384-20.48-23.211-46.421-18.432-72.363 4.096-23.893 16.384-45.056 35.499-60.075 1.365-1.365 2.731-2.048 4.779-3.413 1.365-0.683 2.048-1.365 2.731-2.048 4.096-2.731 8.192-5.461 11.605-7.509-24.576-51.883-37.547-109.227-37.547-166.571-4.096-0.683-8.875-0.683-14.336-2.048-2.731-0.683-5.461-1.365-8.192-2.048l-1.365-0.683h-0.683c-3.413-0.683-6.827-2.048-10.24-3.413-18.432-6.827-34.816-19.115-46.421-35.499-15.019-21.163-20.48-47.787-14.336-73.045 5.461-25.259 21.845-47.104 45.056-59.392 14.336-8.192 30.72-12.288 47.104-12.288 7.509 0 15.019 0.683 21.845 2.731 1.365 0 2.731 0.683 3.413 0.683 2.048 0.683 3.413 0.683 4.779 1.365 5.461 1.365 10.24 3.413 14.336 4.779 25.259-51.2 61.44-96.256 106.496-132.437-2.731-3.413-5.461-8.192-8.192-12.971 0 0 0 0 0 0-0.683-0.683-0.683-2.048-1.365-2.731-0.683-2.048-2.048-3.413-2.731-5.461-22.528-47.787-4.096-104.448 42.325-126.293 12.288-6.144 25.941-8.875 39.595-8.875 12.288 0 23.893 2.048 35.499 6.827 18.432 7.509 34.133 20.48 44.373 37.547 2.048 3.413 4.096 6.144 6.144 9.557v0.683l0.683 1.365c1.365 2.731 2.731 5.461 3.413 7.509 2.048 5.461 4.096 10.24 5.461 14.336 27.989-6.144 56.661-9.557 85.333-9.557 27.989 0 56.661 2.731 84.651 8.875 1.365-4.096 2.731-8.192 4.779-12.971 0 0 0 0 0-0.683 1.365-2.731 2.048-5.461 3.413-8.192 16.384-33.451 49.835-54.613 86.016-54.613 13.653 0 27.307 3.413 39.595 8.875 23.211 10.923 40.96 32.085 47.787 57.344 5.461 17.749 4.779 36.864-0.683 54.613-1.365 4.779-2.731 9.557-4.779 13.653v0.683l-0.683 1.365c-1.365 2.731-2.731 5.461-3.413 7.509-2.731 4.779-4.779 8.192-6.827 11.605 33.451 27.307 62.805 60.075 86.016 96.939 7.509 11.605 14.336 23.893 20.48 36.864 2.731-1.365 6.144-2.048 10.24-3.413s8.192-2.731 12.288-3.413c0.683 0 0.683 0 1.365 0 6.827-1.365 13.653-2.048 20.48-2.048 16.384 0 32.768 4.096 47.104 12.288 22.528 12.971 39.595 34.816 45.056 59.392 5.461 25.259 0.683 51.883-15.019 73.045-10.24 14.336-23.211 25.259-38.912 32.085-5.461 2.731-10.923 5.461-17.749 6.827h-0.683c0 0 0 0-0.683 0h-1.365c-2.731 0.683-6.144 1.365-8.192 2.048-5.461 0.683-9.557 1.365-13.653 2.048-0.683 27.989-3.413 56.661-10.24 84.651-6.144 27.307-15.701 53.931-27.307 79.189 10.923 4.096 21.163 10.923 28.672 19.797 1.365 1.365 2.731 2.731 3.413 4.779 11.605 15.701 19.115 32.085 21.845 48.469 4.096 25.941-2.731 52.565-18.432 72.363-18.432 22.528-45.739 36.181-73.728 36.181-18.432 0-36.181-5.461-51.2-16.384-2.731-1.365-5.461-2.731-7.509-4.779-2.048-1.365-4.779-3.413-7.509-6.144-4.096-3.413-7.509-6.827-10.923-10.24-45.056 35.499-96.939 60.757-152.917 73.728 0.683 4.096 1.365 8.875 1.365 14.336 0 1.365 0 2.731 0 4.096 0 2.048 0 3.413 0 5.461-1.365 50.517-43.008 93.525-94.208 93.525v0z" />
<glyph unicode="&#xe92d;" glyph-name="layeredgroup" data-tags="layeredgroup" d="M427.349 222.379l-181.589-100.352-181.589 99.669 181.589 102.4 181.589-101.717zM490.837 222.379l-245.077 146.091-245.077-146.773 245.077-144.043 245.077 144.725zM245.76-10.411l-245.077 148.821v38.912l245.077-142.677 238.933 139.264v-35.499zM245.76-98.475l-245.077 148.821v38.912l245.077-143.36 233.472 139.947v-35.499zM964.608 222.379l-181.589-100.352-181.589 99.669 181.589 101.717 181.589-101.035zM1028.096 222.379l-245.077 146.091-245.077-146.773 245.077-144.043 245.077 144.725zM783.019-10.411l-245.077 148.821v38.912l245.077-142.677 238.933 139.264v-35.499zM783.019-98.475l-245.077 148.821v38.912l245.077-143.36 233.472 139.947v-35.499zM698.368 591.701l-180.907-99.669-181.589 99.669 181.589 101.717 180.907-101.717zM761.856 591.701l-244.395 146.773-245.077-146.773 245.077-144.043 244.395 144.043zM517.461 359.595l-245.077 148.139v39.595l245.077-143.36 238.251 139.947v-36.181zM517.461 270.848l-245.077 148.821v39.595l245.077-143.36 233.472 139.947v-36.181z" />
<glyph unicode="&#xe92e;" glyph-name="layers" data-tags="layers" d="M893.611 502.955l-381.611-210.261-381.611 210.261 381.611 214.357 381.611-214.357zM1027.414 502.955l-515.413 308.565-515.413-308.565 515.413-303.787 515.413 303.787zM512 14.165l-515.413 312.661v82.603l515.413-301.739 502.443 294.229v-75.093zM512-171.52l-515.413 312.661v82.603l515.413-301.739 491.52 294.912v-75.776z" />
<glyph unicode="&#xe92f;" glyph-name="level-down" data-tags="level-down" d="M598.698-188.928l-296.96 296.96 48.469 48.469 248.491-248.491 248.491 248.491 47.787-48.469zM634.197-119.979h-68.267v880.64h-436.907v68.267h505.173z" />
<glyph unicode="&#xe930;" glyph-name="life-ring" data-tags="life-ring" d="M966.315 765.781c-75.776 75.776-163.157 50.517-256 23.211-10.923-3.413-22.528-6.827-34.133-9.557-51.2 18.432-106.496 28.672-164.523 28.672s-112.64-10.24-163.84-28.672c-11.605 3.413-23.211 6.827-34.133 9.557-92.843 27.307-180.224 52.565-256-23.211-85.333-85.333-48.469-200.704-8.875-294.229-15.701-47.787-24.576-98.987-24.576-151.552 0-53.248 8.875-103.765 24.576-152.235-39.595-92.843-76.459-208.213 8.875-293.547 37.547-37.547 77.824-50.517 120.149-50.517 43.008 0 88.747 13.653 135.851 27.307 10.923 3.413 22.528 6.827 34.133 9.557 51.2-18.432 106.496-28.672 164.523-28.672 57.344 0 112.64 10.24 164.523 28.672 11.605-3.413 23.211-6.827 34.133-9.557 92.16-27.307 179.541-52.565 255.317 23.211 85.333 85.333 49.152 200.704 9.557 294.229 15.701 47.787 24.576 98.987 24.576 152.235s-8.875 103.765-24.576 151.552c38.912 92.843 75.776 208.213-9.557 293.547zM917.845 717.994c40.277-40.277 38.912-92.16 18.432-157.013-40.277 70.997-98.304 131.072-167.253 174.080 69.632 18.432 109.909 21.163 148.821-17.067zM197.632 42.154c-65.536 73.728-105.131 171.349-105.131 277.845 0 105.813 39.595 202.752 104.448 276.48l80.555-79.872c-44.373-53.248-71.68-121.515-71.68-196.608s27.307-144.043 72.363-197.291l-80.555-80.555zM274.091 319.999c0 131.072 106.496 238.251 238.251 238.251s238.251-106.496 238.251-238.251c0-131.072-106.496-238.251-238.251-238.251s-238.251 107.179-238.251 238.251zM818.176 319.999c0 81.237-32.085 155.648-83.968 210.261l79.872 79.872c73.045-75.093 117.419-177.493 117.419-290.133 0-111.957-44.373-213.675-116.053-289.451l-80.555 79.872c51.883 54.613 83.285 128.341 83.285 209.579zM789.504 634.026l-79.872-79.872c-53.248 45.056-122.197 72.363-197.291 72.363-81.92 0-156.331-32.085-210.944-84.651l-81.237 79.189c75.776 73.045 178.859 118.784 291.499 118.784 106.496 0 204.117-40.277 277.845-105.813zM106.155 717.994c21.845 21.845 44.373 30.72 71.68 30.72 21.845 0 46.421-5.461 77.141-13.653-68.949-43.008-126.976-103.083-167.253-174.080-20.48 64.171-21.845 116.053 18.432 157.013zM106.155-77.995c-40.277 40.277-38.912 92.843-18.432 157.013 40.277-70.997 98.304-131.072 167.253-174.080-69.632-18.432-109.909-21.163-148.821 17.067zM221.525 17.578l79.872 79.872c54.613-51.883 129.024-83.968 210.261-83.968 75.776 0 144.725 27.307 198.656 73.045l80.555-79.872c-74.411-65.536-172.032-106.496-279.211-106.496-112.64 0-214.357 45.056-290.133 117.419zM917.845-77.995c-38.912-38.912-79.189-36.181-149.504-17.067 69.632 43.008 126.976 103.083 167.253 174.080 21.163-64.171 22.528-116.053-17.749-157.013z" />
<glyph unicode="&#xe931;" glyph-name="x-circle" data-tags="x-circle" d="M512 763.733c244.395 0 443.733-199.339 443.733-443.733s-199.339-443.733-443.733-443.733-443.733 199.339-443.733 443.733 199.339 443.733 443.733 443.733zM512 832c-282.624 0-512-229.376-512-512s229.376-512 512-512c282.624 0 512 229.376 512 512s-228.693 512-512 512v0zM671.295 525.711l48.271-48.271-362.035-362.035-48.271 48.271 362.035 362.035zM352.256 526.16l362.035-362.035-48.271-48.271-362.035 362.035 48.271 48.271z" />
<glyph unicode="&#xe932;" glyph-name="x-square" data-tags="x-square" d="M955.734 763.732v-887.467h-887.467v887.467h887.467zM1010.347 831.999h-996.693c-7.509 0-13.653-6.144-13.653-13.653v-996.693c0-7.509 6.144-13.653 13.653-13.653h996.693c7.509 0 13.653 6.144 13.653 13.653v996.693c0 8.192-6.144 13.653-13.653 13.653v0zM667.881 525.002l48.278-48.271-362.035-362.086-48.278 48.271 362.035 362.086zM348.843 525.476l362.035-362.035-48.271-48.271-362.035 362.035 48.271 48.271z" />
<glyph unicode="&#xe933;" glyph-name="stop" data-tags="stop" d="M720.896 835.413h-424.619l-296.277-301.739v-424.619l296.277-304.469h424.619l296.277 304.469v424.619l-296.277 301.739zM666.965 161.621h-316.757v316.757h316.757v-316.757z" />
<glyph unicode="&#xe934;" glyph-name="process, processes, gear" data-tags="gear" d="M512.682-177.323c-19.115 0-39.595 1.365-60.075 3.413l-34.133 4.096 11.605 98.304c-14.336 2.731-30.037 7.509-45.056 12.288-15.701 4.779-30.72 11.605-43.008 17.067l-49.152-85.333-29.355 17.067c-92.843 53.931-167.253 137.216-208.896 235.52l-13.653 31.403 90.795 38.912c-4.096 12.971-8.192 28.672-11.605 43.691v0.683c-2.048 15.019-4.096 29.355-5.461 43.008h-101.035v34.133c0 114.688 32.768 209.579 101.035 300.373l21.163 26.624 79.189-58.027c10.923 12.288 23.893 23.893 33.451 32.768 12.288 10.923 25.259 20.48 36.864 28.672l-50.517 86.016 29.355 17.067c75.093 43.691 161.109 66.901 248.491 66.901 19.797 0 38.912-1.365 60.075-3.413l34.133-4.096-11.605-98.304c14.336-2.731 30.037-7.509 45.056-12.288 15.701-4.779 30.72-11.605 43.008-17.067l48.469 85.333 29.355-17.067c92.843-53.931 167.253-137.216 208.896-235.52l13.653-31.403-90.795-38.912c4.096-12.971 8.192-28.672 11.605-44.373v-0.683c3.413-15.701 5.461-33.451 6.827-48.469h98.987v-34.133c0-110.592-32.768-208.213-99.669-296.96l-21.163-27.307-79.189 60.757c-10.923-12.288-23.211-23.893-32.768-32.085-12.288-10.923-24.576-20.48-36.864-28.672l49.152-85.333-29.355-17.067c-74.411-44.373-160.427-67.584-247.808-67.584zM495.615-108.373c6.144 0 11.605-0.683 17.749-0.683 63.488 0 126.976 14.336 184.32 41.643l-47.787 83.285 35.499 20.48c1.365 0.683 3.413 2.048 5.461 3.413s4.096 2.731 6.827 4.096c11.605 7.509 24.576 17.067 35.499 27.307 13.653 12.288 25.259 23.893 32.085 32.768l1.365 1.365c2.731 2.731 4.779 5.461 6.827 8.192 0.683 1.365 2.048 2.048 2.731 3.413l24.576 31.403 75.776-58.709c38.229 59.392 60.075 123.563 64.853 193.877h-95.573l-0.683 33.451c0 0 0 3.413 0 6.827 0 2.048 0 4.096 0 6.144 0 3.413 0 6.144-0.683 9.557v1.365c-0.683 12.971-2.731 30.037-6.144 45.739-3.413 16.384-8.192 32.768-12.288 43.691-4.096 12.288-7.509 19.797-7.509 20.48l-12.971 31.403 88.064 37.547c-32.085 61.44-79.189 114.688-136.533 154.283l-48.469-83.968-30.037 18.432c0 0-6.827 4.096-17.749 9.557-10.24 4.779-25.941 12.288-41.643 17.067-15.019 4.779-31.403 8.875-44.373 11.605l-3.413 0.683c-4.096 0.683-8.875 1.365-10.24 2.048l-8.192-0.683-33.451 4.096 11.605 94.891c-6.144 0-11.605 0.683-17.749 0.683-63.488 0-126.976-14.336-184.32-41.643l47.787-82.603-35.499-20.48c-1.365-0.683-3.413-2.048-5.461-3.413s-4.096-2.731-6.827-4.779c-11.605-7.509-24.576-17.067-35.499-27.307-13.653-12.288-25.259-23.893-32.085-32.768l-1.365-1.365c-2.731-2.731-4.779-5.461-6.827-8.192-0.683-1.365-2.048-2.731-2.731-3.413l-23.893-30.72-76.459 55.979c-38.912-60.075-60.075-122.88-64.853-196.608h92.843l3.413-31.403c0 0 0-1.365 0-6.144 0-2.048 0-3.413 0-5.461s0-5.461 0.683-8.192v-1.365c0.683-12.971 2.731-29.355 6.144-45.056s8.192-31.403 12.288-43.691c4.096-11.605 7.509-19.797 7.509-19.797l12.971-31.403-88.064-37.547c32.085-61.44 79.189-114.688 136.533-154.283l48.469 83.968 30.037-18.432c0 0 6.827-4.096 17.749-9.557 10.24-4.779 25.941-12.288 42.325-17.067 15.019-4.779 31.403-8.875 44.373-11.605l3.413-0.683c4.096-0.683 8.875-1.365 10.24-2.048l7.509-0.683 33.451-4.096-11.605-94.891zM512.682 133.973c-104.448 0-189.099 84.651-189.099 189.099s84.651 189.099 189.099 189.099c104.448 0 189.099-84.651 189.099-189.099s-84.651-189.099-189.099-189.099zM512.682 443.221c-66.219 0-120.832-53.931-120.832-120.832 0-66.219 53.931-120.832 120.832-120.832s120.832 53.931 120.832 120.832c0 66.901-53.931 120.832-120.832 120.832z" />
<glyph unicode="&#xe935;" glyph-name="vm" data-tags="vm" d="M1.365 115.2h322.219l-9.557-101.035h-58.709v-68.267h297.643v68.267h-58.709l-9.557 101.035h66.219v68.267h-481.28v442.368h669.013v-204.8h68.267v273.067h-805.547zM577.535 401.92v-326.997h445.099v326.997h-445.099zM1002.154 95.403h-404.139v216.405h404.139v-216.405z" />
<glyph unicode="&#xe936;" glyph-name="stacks" data-tags="stacks" d="M1021.952-111.445h-1019.221v267.605h170.667v-96.939h677.888v96.939h170.667v-267.605zM813.739 302.251h-582.315v-170.667h582.315v170.667zM813.739 526.848h-582.315v-170.667h582.315v170.667zM813.739 751.445h-582.315v-170.667h582.315v170.667z" />
<glyph unicode="&#xe937;" glyph-name="link" data-tags="link" d="M590.164 419.329c6.144 0 12.288-2.048 17.067-6.827l7.509-7.509c9.557-9.557 9.557-24.576 0-34.133l-162.475-162.475c-4.779-4.779-10.923-6.827-17.067-6.827s-12.288 2.048-17.067 6.827l-7.509 7.509c-9.557 9.557-9.557 24.576 0 34.133l162.475 162.475c4.779 4.779 10.923 6.827 17.067 6.827zM590.164 487.595c-24.576 0-47.787-9.557-65.536-27.307l-162.475-161.792c-17.749-17.749-27.307-40.96-27.307-65.536s9.557-47.787 27.307-65.536l7.509-7.509c17.749-17.749 40.96-27.307 65.536-27.307s47.787 9.557 65.536 27.307l162.475 162.475c36.181 36.181 36.181 94.891 0 131.072l-7.509 7.509c-17.749 17.067-40.96 26.624-65.536 26.624v0zM639.316 223.403c-36.864 0-74.411 9.557-107.861 28.672l34.133 58.709c57.344-33.451 129.707-23.893 176.128 22.528l168.619 168.619c56.661 56.661 56.661 148.821 0 205.483s-149.504 57.344-206.165 0.683l-167.253-167.936c-46.421-46.421-55.979-119.467-22.528-176.811l-58.709-34.133c-49.152 83.968-35.499 190.464 33.451 259.413l168.619 169.301c83.285 83.285 219.136 83.285 302.421-0.683 83.285-83.285 83.285-219.136 0-302.421l-168.619-168.619c-41.643-40.96-96.939-62.805-152.235-62.805zM639.316 321.707c-10.923 0-21.845 1.365-32.768 4.779l19.115 65.536c16.384-4.779 34.133 0 46.421 12.288l168.619 168.619c8.875 8.875 13.653 20.48 13.653 33.451 0 12.288-4.779 24.576-13.653 33.451-18.432 18.432-48.469 18.432-66.901 0l-167.253-169.301c-12.288-12.288-17.067-30.72-11.605-47.787l-64.853-21.163c-13.653 41.643-2.731 86.016 27.989 116.736l168.619 168.619c45.056 45.056 118.101 45.056 163.157 0 21.845-21.845 33.451-50.517 33.451-81.92 0-30.72-12.288-59.392-34.133-81.237l-168.619-168.619c-21.163-21.163-50.517-33.451-81.237-33.451zM214.697-201.215c0 0 0 0 0 0-57.344 0-110.592 21.845-150.869 62.123-83.285 83.285-83.285 219.136 0 302.421l169.301 169.301c70.315 70.315 181.589 81.92 265.557 28.672l-36.864-57.344c-57.344 36.181-133.12 27.989-180.907-19.797l-169.301-169.301c-56.661-56.661-56.661-149.504 0-206.165s148.821-56.661 205.483 0l169.301 169.984c47.104 47.104 55.979 122.197 21.163 179.541l58.027 35.499c51.883-84.651 38.912-193.195-30.72-263.509l-168.619-168.619c-40.277-40.277-94.208-62.805-151.552-62.805zM214.697-102.911c-29.355 0-58.709 10.923-81.237 33.451-21.845 21.845-34.133 50.517-34.133 81.92 0 30.72 11.605 60.075 33.451 81.92l169.301 168.619c27.307 27.307 66.219 38.912 103.765 31.403l-12.971-66.901c-15.701 2.731-31.403-2.048-42.325-12.971l-168.619-168.619c-8.875-8.875-13.653-20.48-13.653-33.451s4.779-24.576 13.653-33.451c18.432-18.432 47.787-18.432 66.219 0l168.619 168.619c10.923 10.923 15.701 26.624 12.971 42.325l66.901 12.971c7.509-37.547-4.779-76.459-31.403-103.765l-168.619-168.619c-22.528-21.845-52.565-33.451-81.92-33.451z" />
</font>
</defs>
</svg>
