<?xml version="1.0" encoding="utf-8"?>
<!-- Generator: Adobe Illustrator 18.1.1, SVG Export Plug-In . SVG Version: 6.00 Build 0)  -->
<svg version="1.1" id="Layer_1" xmlns="http://www.w3.org/2000/svg" xmlns:xlink="http://www.w3.org/1999/xlink" x="0px" y="0px"
	 viewBox="-424 334.7 103 102.3" enable-background="new -424 334.7 103 102.3" xml:space="preserve">
<path d="M-370.8,337.6c-1.5,0-2.6,1.3-2.7,3h0c0,0.2,0,0.6,0,0.8c0,1,0.2,1.7,0.4,2.6c0.2,1.9,0.4,3.5,0.3,5c-0.1,0.7-0.5,1-0.9,1.4
	l0.1,0h-0.1v0l-0.1,1.2c-8.5,0.8-16.4,4.8-22.2,11l-1-0.7l0,0.1l0-0.1c-0.5,0.1-1,0.2-1.6-0.2c-1.2-0.8-2.3-2-3.6-3.3
	c-0.6-0.7-1-1.3-1.8-1.9c-0.2-0.1-0.4-0.3-0.6-0.5c0,0,0,0,0,0c-1.3-1.1-3.1-0.9-4,0.2c-0.9,1.2-0.6,3,0.6,4l0,0
	c0.2,0.2,0.4,0.4,0.6,0.5c0.8,0.6,1.5,0.9,2.2,1.3c1.6,1,2.9,1.9,4,2.9c0.5,0.5,0.5,1.1,0.5,1.6l0.1,0l0,0.1l0.9,0.8
	c-2.3,3.5-4.1,7.5-5,11.9c-1,4.3-1.1,8.7-0.5,12.8l-1,0.3l0,0.1l-0.1-0.1c-0.2,0.4-0.4,0.9-1.1,1.2c-1.4,0.4-2.9,0.6-4.8,0.8
	c-0.9,0.1-1.6,0-2.6,0.2c-0.2,0-0.5,0.1-0.7,0.2c0,0,0,0,0,0c0,0,0,0,0,0c0,0,0,0,0,0v0c-1.6,0.4-2.6,1.9-2.3,3.3
	c0.3,1.5,1.9,2.4,3.5,2v0c0,0,0,0,0,0c0,0,0,0,0,0c0.2-0.1,0.5-0.1,0.7-0.2c0.9-0.3,1.6-0.6,2.4-0.9c1.8-0.7,3.2-1.2,4.7-1.4
	c0.7-0.1,1.1,0.3,1.5,0.6l0-0.1l0,0.1l1.1-0.2c2.6,8.2,8,15.4,15.5,19.9l-0.4,1.1l0.1,0l-0.1,0c0.2,0.5,0.4,0.9,0.2,1.6
	c-0.5,1.4-1.4,2.7-2.4,4.4c-0.5,0.8-1,1.3-1.4,2.2c-0.1,0.2-0.2,0.5-0.3,0.7c0,0,0,0,0,0c0,0,0,0,0,0c0,0,0,0,0,0h0
	c-0.7,1.5-0.2,3.2,1.1,3.9c1.3,0.7,3,0,3.7-1.6c0,0,0,0,0,0c0.1-0.2,0.2-0.5,0.3-0.7c0.4-0.9,0.5-1.7,0.8-2.5
	c0.6-1.8,1.1-3.3,1.8-4.6c0.4-0.6,0.9-0.7,1.4-0.8l0-0.1l0.1,0l0.6-1.1c1.5,0.6,3,1,4.5,1.4c6.9,1.6,13.9,1,20.1-1.5l0.6,1.2l0.1,0
	l0,0.1c0.5,0.2,1,0.2,1.4,0.8c0.7,1.3,1.2,2.8,1.8,4.6c0.3,0.9,0.4,1.6,0.8,2.5c0.1,0.2,0.2,0.5,0.3,0.7c0,0,0,0,0,0
	c0.7,1.5,2.4,2.2,3.7,1.6c1.3-0.7,1.8-2.4,1.1-3.9l0,0c0,0,0,0,0,0c0,0,0,0,0,0c-0.1-0.2-0.2-0.5-0.3-0.7c-0.4-0.9-0.9-1.4-1.4-2.2
	c-1-1.6-1.9-3-2.4-4.4c-0.2-0.7,0-1.2,0.2-1.6l-0.1,0l0.1,0l-0.5-1.3c7.1-4.3,12.8-11.2,15.5-19.7l1.1,0.2l0-0.1l0,0.1
	c0.4-0.3,0.8-0.6,1.5-0.6c1.4,0.2,2.9,0.8,4.7,1.4c0.8,0.3,1.5,0.7,2.4,0.9c0.2,0.1,0.5,0.1,0.7,0.2c0,0,0,0,0,0c0,0,0,0,0,0
	c0,0,0,0,0,0v0c1.6,0.4,3.1-0.5,3.5-2c0.3-1.5-0.7-3-2.3-3.3v0c0,0,0,0,0,0c0,0,0,0,0,0c-0.2-0.1-0.5-0.1-0.7-0.2
	c-0.9-0.2-1.7-0.1-2.6-0.2c-1.9-0.2-3.4-0.4-4.8-0.8c-0.7-0.3-0.9-0.8-1.1-1.2l-0.1,0.1l0-0.1l-1.1-0.3c1.3-8.9-0.9-17.7-5.5-24.8
	l0.8-0.8l0-0.1l0.1,0c0-0.5,0-1,0.5-1.6c1.1-1,2.4-1.9,4-2.9c0.8-0.5,1.5-0.8,2.2-1.3c0.2-0.1,0.4-0.3,0.6-0.5c0,0,0,0,0,0
	c1.3-1.1,1.6-2.9,0.7-4c-0.9-1.2-2.7-1.3-4-0.3l0,0c-0.2,0.2-0.5,0.4-0.6,0.5c-0.7,0.6-1.2,1.3-1.8,1.9c-1.3,1.4-2.4,2.5-3.6,3.3
	c-0.6,0.4-1.1,0.2-1.6,0.2l0,0.1l0-0.1l-0.9,0.7c-4.5-4.9-10.5-8.6-17.5-10.2c-1.6-0.4-3.2-0.6-4.8-0.8l-0.1-1.2v0h-0.1l0.1,0
	c-0.3-0.3-0.8-0.6-0.9-1.4c-0.1-1.5,0.1-3.1,0.3-5c0.1-0.9,0.3-1.6,0.4-2.6c0-0.2,0-0.6,0-0.8h0C-368.2,339-369.4,337.6-370.8,337.6
	L-370.8,337.6z M-367.5,358.8c0.9,0.1,1.9,0.3,2.8,0.5c5.2,1.2,9.8,3.9,13.3,7.5l-11.5,8.4l0,0c-0.4,0.3-0.9,0.5-1.4,0.5
	c-1.3,0-2.3-1-2.4-2.3l-0.1,0L-367.5,358.8L-367.5,358.8z M-374.2,358.8l-0.8,14.4l0,0c0,0.5-0.2,1-0.5,1.4c-0.8,1-2.2,1.2-3.2,0.4
	l0,0l-11.4-8.3C-385.9,362.4-380.3,359.6-374.2,358.8L-374.2,358.8z M-394.4,372.2l10.4,9.6l0,0c0.4,0.3,0.6,0.8,0.7,1.3
	c0.3,1.3-0.5,2.5-1.7,2.9l0,0.1l-13.5,4c-0.3-3-0.1-6.1,0.6-9.2C-397.1,377.7-395.9,374.8-394.4,372.2L-394.4,372.2z M-347.2,372.2
	c3.1,5.2,4.5,11.4,3.9,17.9l-13.4-4l0,0c-0.5-0.1-0.9-0.4-1.2-0.8c-0.8-1-0.7-2.5,0.3-3.3l0-0.1L-347.2,372.2L-347.2,372.2z
	 M-372.9,382.5h4.2l2.7,3.4l-1,4.4l-3.8,1.9l-3.8-1.9l-1-4.4L-372.9,382.5L-372.9,382.5z M-382.7,394.3c0.4,0,0.7,0.1,1.1,0.2
	c0.1,0.1,0.2,0.1,0.3,0.2v0.1l0.3,0.2c0.7,0.7,0.9,1.7,0.5,2.6l0,0l-5.4,13.4c-5.2-3.4-9.1-8.5-11.1-14.4l13.9-2.4l0,0
	C-382.9,394.4-382.8,394.4-382.7,394.3L-382.7,394.3z M-359.1,394.4c0.2,0,0.3,0,0.5,0l0,0l13.7,2.4c-2.1,6.1-6.1,11-11,14.3
	l-5.3-13.3l0-0.1c-0.2-0.5-0.2-1-0.1-1.5C-361.1,395.2-360.2,394.4-359.1,394.4L-359.1,394.4z M-371,400.2c0.9-0.1,1.8,0.4,2.2,1.3
	v0h0l6.8,12.6c-4.7,1.7-9.9,2-15.1,0.8c-0.9-0.2-1.8-0.5-2.7-0.8l6.8-12.6h0.1c0.2-0.4,0.6-0.8,1.1-1
	C-371.6,400.3-371.3,400.2-371,400.2L-371,400.2z"/>
</svg>
